G04 #@! TF.GenerationSoftware,KiCad,Pcbnew,6.0.9-8da3e8f707~116~ubuntu20.04.1*
G04 #@! TF.CreationDate,2022-11-05T14:44:27+00:00*
G04 #@! TF.ProjectId,slrm,736c726d-2e6b-4696-9361-645f70636258,rev?*
G04 #@! TF.SameCoordinates,Original*
G04 #@! TF.FileFunction,Copper,L2,Inr*
G04 #@! TF.FilePolarity,Positive*
%FSLAX46Y46*%
G04 Gerber Fmt 4.6, Leading zero omitted, Abs format (unit mm)*
G04 Created by KiCad (PCBNEW 6.0.9-8da3e8f707~116~ubuntu20.04.1) date 2022-11-05 14:44:27*
%MOMM*%
%LPD*%
G01*
G04 APERTURE LIST*
G04 #@! TA.AperFunction,ComponentPad*
%ADD10R,1.350000X1.350000*%
G04 #@! TD*
G04 #@! TA.AperFunction,ComponentPad*
%ADD11C,2.000000*%
G04 #@! TD*
G04 #@! TA.AperFunction,ComponentPad*
%ADD12C,1.600000*%
G04 #@! TD*
G04 #@! TA.AperFunction,ComponentPad*
%ADD13R,1.700000X1.700000*%
G04 #@! TD*
G04 #@! TA.AperFunction,ComponentPad*
%ADD14O,1.700000X1.700000*%
G04 #@! TD*
G04 #@! TA.AperFunction,ComponentPad*
%ADD15O,1.600000X1.600000*%
G04 #@! TD*
G04 #@! TA.AperFunction,ViaPad*
%ADD16C,0.800000*%
G04 #@! TD*
G04 APERTURE END LIST*
D10*
X121920000Y-88900000D03*
X162560000Y-88900000D03*
D11*
X187629800Y-100660200D03*
X111480600Y-104241600D03*
D12*
X177400000Y-85690000D03*
X177400000Y-90690000D03*
D10*
X142240000Y-88900000D03*
D11*
X111480600Y-99898200D03*
X111480600Y-95427800D03*
X111582200Y-87172800D03*
D13*
X119380000Y-86360000D03*
D14*
X119380000Y-88900000D03*
X119380000Y-91440000D03*
X119380000Y-93980000D03*
X119380000Y-96520000D03*
X119380000Y-99060000D03*
X119380000Y-101600000D03*
X119380000Y-104140000D03*
D12*
X162585400Y-85826600D03*
D15*
X172745400Y-85826600D03*
D13*
X182880000Y-86360000D03*
D14*
X182880000Y-88900000D03*
X182880000Y-91440000D03*
X182880000Y-93980000D03*
X182880000Y-96520000D03*
X182880000Y-99060000D03*
X182880000Y-101600000D03*
X182880000Y-104140000D03*
D10*
X132080000Y-88900000D03*
X172720000Y-88900000D03*
D11*
X187680600Y-104749600D03*
X187807600Y-96545400D03*
X187858400Y-92481400D03*
X111600000Y-90410000D03*
D10*
X152400000Y-88900000D03*
D11*
X187833000Y-88366600D03*
D16*
X138585685Y-104205946D03*
X176700000Y-103500000D03*
X140350000Y-92650000D03*
X135320000Y-95750000D03*
X179000000Y-99000000D03*
X168930000Y-104600000D03*
X174040000Y-104630000D03*
X150100000Y-90200000D03*
X140500000Y-104200000D03*
X123000000Y-93980000D03*
X165240000Y-97820000D03*
X171480000Y-104630000D03*
X160500000Y-103600000D03*
X121195500Y-86700000D03*
X154300000Y-90100000D03*
X137000000Y-95451000D03*
X144900000Y-95451000D03*
X137000000Y-93980000D03*
X124900000Y-93980000D03*
X128700000Y-98800000D03*
X152200000Y-98500000D03*
X127482600Y-98075500D03*
X148800000Y-97575500D03*
X127500000Y-99524500D03*
X121400000Y-105100000D03*
X125345059Y-100249000D03*
X143800000Y-105300000D03*
X155100000Y-86300000D03*
X124000000Y-85900000D03*
X156300000Y-85400000D03*
X132100000Y-85375500D03*
X157700000Y-84700000D03*
X142300000Y-84675500D03*
X158900000Y-88900000D03*
X162600000Y-101300000D03*
X157700000Y-101500000D03*
X163400000Y-90800000D03*
X156500000Y-100500000D03*
X163400000Y-100500000D03*
X155200000Y-99500000D03*
X164124500Y-99500000D03*
X164124500Y-92100000D03*
X143700000Y-94000000D03*
X175300000Y-94000000D03*
X138000000Y-93192600D03*
X138000000Y-94726500D03*
X132537200Y-93141800D03*
X141000000Y-94726500D03*
X129921000Y-97325500D03*
X147818154Y-97125500D03*
X130885397Y-96875500D03*
X146710400Y-96675500D03*
X179000000Y-97400000D03*
X179000000Y-95450500D03*
X174600000Y-99800000D03*
X122402600Y-100973500D03*
X146300000Y-101800000D03*
X124383800Y-100973500D03*
X126200000Y-101075500D03*
X147600000Y-101500000D03*
X148900000Y-101500000D03*
X127700000Y-100625500D03*
X150100000Y-101500000D03*
X128700000Y-100175500D03*
X129900000Y-99725500D03*
X151400000Y-101500000D03*
X152600000Y-101500000D03*
X131300000Y-99275500D03*
X153900000Y-101500000D03*
X132500000Y-98825500D03*
X168940000Y-93780000D03*
X152560000Y-94001500D03*
X150090000Y-89010000D03*
G04 #@! TA.AperFunction,Conductor*
G36*
X141979515Y-83951956D02*
G01*
X142026008Y-84005612D01*
X142036112Y-84075886D01*
X142006618Y-84140466D01*
X141988100Y-84157916D01*
X141871718Y-84247218D01*
X141775464Y-84372659D01*
X141714956Y-84518738D01*
X141694318Y-84675500D01*
X141714956Y-84832262D01*
X141775464Y-84978341D01*
X141871718Y-85103782D01*
X141878264Y-85108805D01*
X141895116Y-85121736D01*
X141997159Y-85200036D01*
X142143238Y-85260544D01*
X142300000Y-85281182D01*
X142308188Y-85280104D01*
X142448574Y-85261622D01*
X142456762Y-85260544D01*
X142602841Y-85200036D01*
X142704884Y-85121736D01*
X142721736Y-85108805D01*
X142728282Y-85103782D01*
X142824536Y-84978341D01*
X142885044Y-84832262D01*
X142905682Y-84675500D01*
X142885044Y-84518738D01*
X142824536Y-84372659D01*
X142728282Y-84247218D01*
X142611902Y-84157916D01*
X142570035Y-84100579D01*
X142565813Y-84029708D01*
X142600577Y-83967805D01*
X142663289Y-83934524D01*
X142688606Y-83931954D01*
X157351599Y-83931954D01*
X157419720Y-83951956D01*
X157466213Y-84005612D01*
X157476317Y-84075886D01*
X157446823Y-84140466D01*
X157410899Y-84166372D01*
X157411940Y-84168175D01*
X157404789Y-84172303D01*
X157397159Y-84175464D01*
X157271718Y-84271718D01*
X157175464Y-84397159D01*
X157114956Y-84543238D01*
X157094318Y-84700000D01*
X157095396Y-84708188D01*
X157112901Y-84841149D01*
X157114956Y-84856762D01*
X157175464Y-85002841D01*
X157271718Y-85128282D01*
X157278264Y-85133305D01*
X157307918Y-85156059D01*
X157397159Y-85224536D01*
X157543238Y-85285044D01*
X157551426Y-85286122D01*
X157613681Y-85294318D01*
X157700000Y-85305682D01*
X157708188Y-85304604D01*
X157848574Y-85286122D01*
X157856762Y-85285044D01*
X158002841Y-85224536D01*
X158092082Y-85156059D01*
X158121736Y-85133305D01*
X158128282Y-85128282D01*
X158224536Y-85002841D01*
X158285044Y-84856762D01*
X158287100Y-84841149D01*
X158304604Y-84708188D01*
X158305682Y-84700000D01*
X158285044Y-84543238D01*
X158224536Y-84397159D01*
X158128282Y-84271718D01*
X158002841Y-84175464D01*
X157995211Y-84172303D01*
X157988060Y-84168175D01*
X157989471Y-84165731D01*
X157944902Y-84129814D01*
X157922481Y-84062450D01*
X157940040Y-83993659D01*
X157992002Y-83945281D01*
X158048401Y-83931954D01*
X190651515Y-83931954D01*
X190719636Y-83951956D01*
X190766129Y-84005612D01*
X190777515Y-84057954D01*
X190777515Y-106271596D01*
X190757513Y-106339717D01*
X190703857Y-106386210D01*
X190651515Y-106397596D01*
X188276025Y-106397596D01*
X188207904Y-106377594D01*
X188161411Y-106323938D01*
X188151307Y-106253664D01*
X188180801Y-106189084D01*
X188227807Y-106155187D01*
X188362763Y-106099287D01*
X188371558Y-106094805D01*
X188539045Y-105992168D01*
X188548507Y-105981710D01*
X188544724Y-105972934D01*
X187693412Y-105121622D01*
X187679468Y-105114008D01*
X187677635Y-105114139D01*
X187671020Y-105118390D01*
X186819520Y-105969890D01*
X186812760Y-105982270D01*
X186818487Y-105989920D01*
X186989642Y-106094805D01*
X186998437Y-106099287D01*
X187133393Y-106155187D01*
X187188674Y-106199735D01*
X187211095Y-106267098D01*
X187193537Y-106335890D01*
X187141575Y-106384268D01*
X187085175Y-106397596D01*
X108872194Y-106397596D01*
X108804073Y-106377594D01*
X108757580Y-106323938D01*
X108746194Y-106271596D01*
X108746194Y-105474270D01*
X110612760Y-105474270D01*
X110618487Y-105481920D01*
X110789642Y-105586805D01*
X110798437Y-105591287D01*
X111008588Y-105678334D01*
X111017973Y-105681383D01*
X111239154Y-105734485D01*
X111248901Y-105736028D01*
X111475670Y-105753875D01*
X111485530Y-105753875D01*
X111712299Y-105736028D01*
X111722046Y-105734485D01*
X111943227Y-105681383D01*
X111952612Y-105678334D01*
X112162763Y-105591287D01*
X112171558Y-105586805D01*
X112339045Y-105484168D01*
X112348507Y-105473710D01*
X112344724Y-105464934D01*
X111493412Y-104613622D01*
X111479468Y-104606008D01*
X111477635Y-104606139D01*
X111471020Y-104610390D01*
X110619520Y-105461890D01*
X110612760Y-105474270D01*
X108746194Y-105474270D01*
X108746194Y-104246530D01*
X109968325Y-104246530D01*
X109986172Y-104473299D01*
X109987715Y-104483046D01*
X110040817Y-104704227D01*
X110043866Y-104713612D01*
X110130913Y-104923763D01*
X110135395Y-104932558D01*
X110238032Y-105100045D01*
X110248490Y-105109507D01*
X110257266Y-105105724D01*
X111108578Y-104254412D01*
X111114956Y-104242732D01*
X111845008Y-104242732D01*
X111845139Y-104244565D01*
X111849390Y-104251180D01*
X112700890Y-105102680D01*
X112713270Y-105109440D01*
X112720920Y-105103713D01*
X112825805Y-104932558D01*
X112830287Y-104923763D01*
X112917334Y-104713612D01*
X112920383Y-104704227D01*
X112973485Y-104483046D01*
X112975028Y-104473299D01*
X112980170Y-104407966D01*
X118048257Y-104407966D01*
X118078565Y-104542446D01*
X118081645Y-104552275D01*
X118161769Y-104749600D01*
X118166413Y-104758794D01*
X118277694Y-104940388D01*
X118283777Y-104948699D01*
X118423213Y-105109667D01*
X118430580Y-105116883D01*
X118594434Y-105252916D01*
X118602881Y-105258831D01*
X118786756Y-105366279D01*
X118796042Y-105370729D01*
X118995001Y-105446703D01*
X119004899Y-105449579D01*
X119108250Y-105470606D01*
X119122299Y-105469410D01*
X119126000Y-105459065D01*
X119126000Y-105458517D01*
X119634000Y-105458517D01*
X119638064Y-105472359D01*
X119651478Y-105474393D01*
X119658184Y-105473534D01*
X119668262Y-105471392D01*
X119872255Y-105410191D01*
X119881842Y-105406433D01*
X120073095Y-105312739D01*
X120081945Y-105307464D01*
X120255328Y-105183792D01*
X120263200Y-105177139D01*
X120340608Y-105100000D01*
X120794318Y-105100000D01*
X120814956Y-105256762D01*
X120875464Y-105402841D01*
X120971718Y-105528282D01*
X121097159Y-105624536D01*
X121224947Y-105677468D01*
X121234400Y-105681383D01*
X121243238Y-105685044D01*
X121400000Y-105705682D01*
X121408188Y-105704604D01*
X121548574Y-105686122D01*
X121556762Y-105685044D01*
X121565601Y-105681383D01*
X121575053Y-105677468D01*
X121702841Y-105624536D01*
X121828282Y-105528282D01*
X121924536Y-105402841D01*
X121967134Y-105300000D01*
X143194318Y-105300000D01*
X143214956Y-105456762D01*
X143275464Y-105602841D01*
X143371718Y-105728282D01*
X143497159Y-105824536D01*
X143643238Y-105885044D01*
X143800000Y-105905682D01*
X143808188Y-105904604D01*
X143948574Y-105886122D01*
X143956762Y-105885044D01*
X144102841Y-105824536D01*
X144228282Y-105728282D01*
X144324536Y-105602841D01*
X144385044Y-105456762D01*
X144405682Y-105300000D01*
X144389507Y-105177139D01*
X144386122Y-105151426D01*
X144385044Y-105143238D01*
X144324536Y-104997159D01*
X144228282Y-104871718D01*
X144102841Y-104775464D01*
X143956762Y-104714956D01*
X143946554Y-104713612D01*
X143808188Y-104695396D01*
X143800000Y-104694318D01*
X143791812Y-104695396D01*
X143653447Y-104713612D01*
X143643238Y-104714956D01*
X143497159Y-104775464D01*
X143371718Y-104871718D01*
X143275464Y-104997159D01*
X143214956Y-105143238D01*
X143213878Y-105151426D01*
X143210493Y-105177139D01*
X143194318Y-105300000D01*
X121967134Y-105300000D01*
X121985044Y-105256762D01*
X122005682Y-105100000D01*
X121985044Y-104943238D01*
X121924536Y-104797159D01*
X121828282Y-104671718D01*
X121702841Y-104575464D01*
X121556762Y-104514956D01*
X121505096Y-104508154D01*
X121408188Y-104495396D01*
X121400000Y-104494318D01*
X121391812Y-104495396D01*
X121294905Y-104508154D01*
X121243238Y-104514956D01*
X121097159Y-104575464D01*
X120971718Y-104671718D01*
X120875464Y-104797159D01*
X120814956Y-104943238D01*
X120794318Y-105100000D01*
X120340608Y-105100000D01*
X120414052Y-105026812D01*
X120420730Y-105018965D01*
X120545003Y-104846020D01*
X120550313Y-104837183D01*
X120644670Y-104646267D01*
X120648469Y-104636672D01*
X120710377Y-104432910D01*
X120712555Y-104422837D01*
X120713986Y-104411962D01*
X120711775Y-104397778D01*
X120698617Y-104394000D01*
X119652115Y-104394000D01*
X119636876Y-104398475D01*
X119635671Y-104399865D01*
X119634000Y-104407548D01*
X119634000Y-105458517D01*
X119126000Y-105458517D01*
X119126000Y-104412115D01*
X119121525Y-104396876D01*
X119120135Y-104395671D01*
X119112452Y-104394000D01*
X118063225Y-104394000D01*
X118049694Y-104397973D01*
X118048257Y-104407966D01*
X112980170Y-104407966D01*
X112992875Y-104246530D01*
X112992875Y-104236670D01*
X112989989Y-104200000D01*
X139894318Y-104200000D01*
X139914956Y-104356762D01*
X139975464Y-104502841D01*
X139980491Y-104509392D01*
X140050017Y-104600000D01*
X140071718Y-104628282D01*
X140197159Y-104724536D01*
X140343238Y-104785044D01*
X140351426Y-104786122D01*
X140385501Y-104790608D01*
X140500000Y-104805682D01*
X140508188Y-104804604D01*
X140648574Y-104786122D01*
X140656762Y-104785044D01*
X140802841Y-104724536D01*
X140928282Y-104628282D01*
X140949984Y-104600000D01*
X168324318Y-104600000D01*
X168344956Y-104756762D01*
X168405464Y-104902841D01*
X168501718Y-105028282D01*
X168627159Y-105124536D01*
X168773238Y-105185044D01*
X168781426Y-105186122D01*
X168847943Y-105194879D01*
X168930000Y-105205682D01*
X168938188Y-105204604D01*
X169078574Y-105186122D01*
X169086762Y-105185044D01*
X169232841Y-105124536D01*
X169358282Y-105028282D01*
X169454536Y-104902841D01*
X169515044Y-104756762D01*
X169531732Y-104630000D01*
X170874318Y-104630000D01*
X170875396Y-104638188D01*
X170889415Y-104744670D01*
X170894956Y-104786762D01*
X170955464Y-104932841D01*
X171012208Y-105006791D01*
X171032553Y-105033305D01*
X171051718Y-105058282D01*
X171177159Y-105154536D01*
X171323238Y-105215044D01*
X171480000Y-105235682D01*
X171488188Y-105234604D01*
X171628574Y-105216122D01*
X171636762Y-105215044D01*
X171782841Y-105154536D01*
X171908282Y-105058282D01*
X171927448Y-105033305D01*
X171947792Y-105006791D01*
X172004536Y-104932841D01*
X172065044Y-104786762D01*
X172070586Y-104744670D01*
X172084604Y-104638188D01*
X172085682Y-104630000D01*
X173434318Y-104630000D01*
X173435396Y-104638188D01*
X173449415Y-104744670D01*
X173454956Y-104786762D01*
X173515464Y-104932841D01*
X173572208Y-105006791D01*
X173592553Y-105033305D01*
X173611718Y-105058282D01*
X173737159Y-105154536D01*
X173883238Y-105215044D01*
X174040000Y-105235682D01*
X174048188Y-105234604D01*
X174188574Y-105216122D01*
X174196762Y-105215044D01*
X174342841Y-105154536D01*
X174468282Y-105058282D01*
X174487448Y-105033305D01*
X174507792Y-105006791D01*
X174564536Y-104932841D01*
X174625044Y-104786762D01*
X174630586Y-104744670D01*
X174644604Y-104638188D01*
X174645682Y-104630000D01*
X174625044Y-104473238D01*
X174564536Y-104327159D01*
X174491533Y-104232020D01*
X174473305Y-104208264D01*
X174468282Y-104201718D01*
X174368642Y-104125262D01*
X181824520Y-104125262D01*
X181825036Y-104131406D01*
X181839596Y-104304789D01*
X181841759Y-104330553D01*
X181843458Y-104336478D01*
X181895542Y-104518116D01*
X181898544Y-104528586D01*
X181901359Y-104534063D01*
X181901360Y-104534066D01*
X181983718Y-104694318D01*
X181992712Y-104711818D01*
X182120677Y-104873270D01*
X182125370Y-104877264D01*
X182125371Y-104877265D01*
X182259064Y-104991046D01*
X182277564Y-105006791D01*
X182282942Y-105009797D01*
X182282944Y-105009798D01*
X182321342Y-105031258D01*
X182457398Y-105107297D01*
X182520180Y-105127696D01*
X182647471Y-105169056D01*
X182647475Y-105169057D01*
X182653329Y-105170959D01*
X182857894Y-105195351D01*
X182864029Y-105194879D01*
X182864031Y-105194879D01*
X182920039Y-105190569D01*
X183063300Y-105179546D01*
X183069230Y-105177890D01*
X183069232Y-105177890D01*
X183220665Y-105135609D01*
X183261725Y-105124145D01*
X183267214Y-105121372D01*
X183267220Y-105121370D01*
X183440116Y-105034033D01*
X183445610Y-105031258D01*
X183461345Y-105018965D01*
X183603101Y-104908213D01*
X183607951Y-104904424D01*
X183615904Y-104895211D01*
X183737335Y-104754530D01*
X186168325Y-104754530D01*
X186186172Y-104981299D01*
X186187715Y-104991046D01*
X186240817Y-105212227D01*
X186243866Y-105221612D01*
X186330913Y-105431763D01*
X186335395Y-105440558D01*
X186438032Y-105608045D01*
X186448490Y-105617507D01*
X186457266Y-105613724D01*
X187308578Y-104762412D01*
X187314956Y-104750732D01*
X188045008Y-104750732D01*
X188045139Y-104752565D01*
X188049390Y-104759180D01*
X188900890Y-105610680D01*
X188913270Y-105617440D01*
X188920920Y-105611713D01*
X189025805Y-105440558D01*
X189030287Y-105431763D01*
X189117334Y-105221612D01*
X189120383Y-105212227D01*
X189173485Y-104991046D01*
X189175028Y-104981299D01*
X189192875Y-104754530D01*
X189192875Y-104744670D01*
X189175028Y-104517901D01*
X189173485Y-104508154D01*
X189120383Y-104286973D01*
X189117334Y-104277588D01*
X189030287Y-104067437D01*
X189025805Y-104058642D01*
X188923168Y-103891155D01*
X188912710Y-103881693D01*
X188903934Y-103885476D01*
X188052622Y-104736788D01*
X188045008Y-104750732D01*
X187314956Y-104750732D01*
X187316192Y-104748468D01*
X187316061Y-104746635D01*
X187311810Y-104740020D01*
X186460310Y-103888520D01*
X186447930Y-103881760D01*
X186440280Y-103887487D01*
X186335395Y-104058642D01*
X186330913Y-104067437D01*
X186243866Y-104277588D01*
X186240817Y-104286973D01*
X186187715Y-104508154D01*
X186186172Y-104517901D01*
X186168325Y-104744670D01*
X186168325Y-104754530D01*
X183737335Y-104754530D01*
X183738540Y-104753134D01*
X183738540Y-104753133D01*
X183742564Y-104748472D01*
X183747366Y-104740020D01*
X183789020Y-104666695D01*
X183844323Y-104569344D01*
X183909351Y-104373863D01*
X183935171Y-104169474D01*
X183935583Y-104140000D01*
X183915480Y-103934970D01*
X183855935Y-103737749D01*
X183759218Y-103555849D01*
X183727933Y-103517490D01*
X186812693Y-103517490D01*
X186816476Y-103526266D01*
X187667788Y-104377578D01*
X187681732Y-104385192D01*
X187683565Y-104385061D01*
X187690180Y-104380810D01*
X188541680Y-103529310D01*
X188548440Y-103516930D01*
X188542713Y-103509280D01*
X188371558Y-103404395D01*
X188362763Y-103399913D01*
X188152612Y-103312866D01*
X188143227Y-103309817D01*
X187922046Y-103256715D01*
X187912299Y-103255172D01*
X187685530Y-103237325D01*
X187675670Y-103237325D01*
X187448901Y-103255172D01*
X187439154Y-103256715D01*
X187217973Y-103309817D01*
X187208588Y-103312866D01*
X186998437Y-103399913D01*
X186989642Y-103404395D01*
X186822155Y-103507032D01*
X186812693Y-103517490D01*
X183727933Y-103517490D01*
X183683206Y-103462649D01*
X183632906Y-103400975D01*
X183632903Y-103400972D01*
X183629011Y-103396200D01*
X183616458Y-103385815D01*
X183475025Y-103268811D01*
X183475021Y-103268809D01*
X183470275Y-103264882D01*
X183289055Y-103166897D01*
X183092254Y-103105977D01*
X183086129Y-103105333D01*
X183086128Y-103105333D01*
X182893498Y-103085087D01*
X182893496Y-103085087D01*
X182887369Y-103084443D01*
X182800529Y-103092346D01*
X182688342Y-103102555D01*
X182688339Y-103102556D01*
X182682203Y-103103114D01*
X182484572Y-103161280D01*
X182302002Y-103256726D01*
X182297201Y-103260586D01*
X182297198Y-103260588D01*
X182232103Y-103312926D01*
X182141447Y-103385815D01*
X182009024Y-103543630D01*
X182006056Y-103549028D01*
X182006053Y-103549033D01*
X181981158Y-103594318D01*
X181909776Y-103724162D01*
X181907913Y-103730035D01*
X181863648Y-103869578D01*
X181847484Y-103920532D01*
X181846798Y-103926649D01*
X181846797Y-103926653D01*
X181831006Y-104067437D01*
X181824520Y-104125262D01*
X174368642Y-104125262D01*
X174342841Y-104105464D01*
X174196762Y-104044956D01*
X174183713Y-104043238D01*
X174048188Y-104025396D01*
X174040000Y-104024318D01*
X174031812Y-104025396D01*
X173896288Y-104043238D01*
X173883238Y-104044956D01*
X173737159Y-104105464D01*
X173611718Y-104201718D01*
X173606695Y-104208264D01*
X173588467Y-104232020D01*
X173515464Y-104327159D01*
X173454956Y-104473238D01*
X173434318Y-104630000D01*
X172085682Y-104630000D01*
X172065044Y-104473238D01*
X172004536Y-104327159D01*
X171931533Y-104232020D01*
X171913305Y-104208264D01*
X171908282Y-104201718D01*
X171782841Y-104105464D01*
X171636762Y-104044956D01*
X171623713Y-104043238D01*
X171488188Y-104025396D01*
X171480000Y-104024318D01*
X171471812Y-104025396D01*
X171336288Y-104043238D01*
X171323238Y-104044956D01*
X171177159Y-104105464D01*
X171051718Y-104201718D01*
X171046695Y-104208264D01*
X171028467Y-104232020D01*
X170955464Y-104327159D01*
X170894956Y-104473238D01*
X170874318Y-104630000D01*
X169531732Y-104630000D01*
X169535682Y-104600000D01*
X169515044Y-104443238D01*
X169454536Y-104297159D01*
X169381302Y-104201718D01*
X169363305Y-104178264D01*
X169358282Y-104171718D01*
X169232841Y-104075464D01*
X169086762Y-104014956D01*
X168930000Y-103994318D01*
X168773238Y-104014956D01*
X168627159Y-104075464D01*
X168501718Y-104171718D01*
X168496695Y-104178264D01*
X168478698Y-104201718D01*
X168405464Y-104297159D01*
X168344956Y-104443238D01*
X168324318Y-104600000D01*
X140949984Y-104600000D01*
X141019509Y-104509392D01*
X141024536Y-104502841D01*
X141085044Y-104356762D01*
X141105682Y-104200000D01*
X141085044Y-104043238D01*
X141024536Y-103897159D01*
X140928282Y-103771718D01*
X140802841Y-103675464D01*
X140656762Y-103614956D01*
X140543159Y-103600000D01*
X159894318Y-103600000D01*
X159914956Y-103756762D01*
X159975464Y-103902841D01*
X160071718Y-104028282D01*
X160197159Y-104124536D01*
X160343238Y-104185044D01*
X160500000Y-104205682D01*
X160508188Y-104204604D01*
X160648574Y-104186122D01*
X160656762Y-104185044D01*
X160802841Y-104124536D01*
X160928282Y-104028282D01*
X161024536Y-103902841D01*
X161085044Y-103756762D01*
X161105682Y-103600000D01*
X161088781Y-103471623D01*
X161086122Y-103451426D01*
X161085044Y-103443238D01*
X161024536Y-103297159D01*
X160928282Y-103171718D01*
X160802841Y-103075464D01*
X160656762Y-103014956D01*
X160615244Y-103009490D01*
X160552882Y-103001280D01*
X160500000Y-102994318D01*
X160447118Y-103001280D01*
X160384757Y-103009490D01*
X160343238Y-103014956D01*
X160197159Y-103075464D01*
X160071718Y-103171718D01*
X159975464Y-103297159D01*
X159914956Y-103443238D01*
X159913878Y-103451426D01*
X159911219Y-103471623D01*
X159894318Y-103600000D01*
X140543159Y-103600000D01*
X140500000Y-103594318D01*
X140343238Y-103614956D01*
X140197159Y-103675464D01*
X140071718Y-103771718D01*
X139975464Y-103897159D01*
X139914956Y-104043238D01*
X139894318Y-104200000D01*
X112989989Y-104200000D01*
X112975028Y-104009901D01*
X112973485Y-104000154D01*
X112943241Y-103874183D01*
X118044389Y-103874183D01*
X118045912Y-103882607D01*
X118058292Y-103886000D01*
X120698344Y-103886000D01*
X120711875Y-103882027D01*
X120713180Y-103872947D01*
X120671214Y-103705875D01*
X120667894Y-103696124D01*
X120582972Y-103500814D01*
X120578105Y-103491739D01*
X120462426Y-103312926D01*
X120456136Y-103304757D01*
X120312806Y-103147240D01*
X120305273Y-103140215D01*
X120138139Y-103008222D01*
X120129552Y-103002517D01*
X119943117Y-102899599D01*
X119933705Y-102895369D01*
X119742031Y-102827493D01*
X119684495Y-102785899D01*
X119658579Y-102719801D01*
X119672513Y-102650185D01*
X119721872Y-102599154D01*
X119750206Y-102587362D01*
X119755790Y-102585803D01*
X119755799Y-102585800D01*
X119761725Y-102584145D01*
X119767214Y-102581372D01*
X119767220Y-102581370D01*
X119940116Y-102494033D01*
X119945610Y-102491258D01*
X120107951Y-102364424D01*
X120139654Y-102327696D01*
X120238540Y-102213134D01*
X120238540Y-102213133D01*
X120242564Y-102208472D01*
X120263387Y-102171818D01*
X120306905Y-102095211D01*
X120344323Y-102029344D01*
X120409351Y-101833863D01*
X120413629Y-101800000D01*
X145694318Y-101800000D01*
X145714956Y-101956762D01*
X145775464Y-102102841D01*
X145780491Y-102109392D01*
X145860095Y-102213134D01*
X145871718Y-102228282D01*
X145997159Y-102324536D01*
X146143238Y-102385044D01*
X146300000Y-102405682D01*
X146308188Y-102404604D01*
X146448574Y-102386122D01*
X146456762Y-102385044D01*
X146602841Y-102324536D01*
X146728282Y-102228282D01*
X146739906Y-102213134D01*
X146819509Y-102109392D01*
X146824536Y-102102841D01*
X146885044Y-101956762D01*
X146888132Y-101933305D01*
X146890522Y-101915153D01*
X146919245Y-101850226D01*
X146978510Y-101811135D01*
X147049502Y-101810290D01*
X147109680Y-101847961D01*
X147115407Y-101854896D01*
X147153549Y-101904604D01*
X147171718Y-101928282D01*
X147297159Y-102024536D01*
X147443238Y-102085044D01*
X147600000Y-102105682D01*
X147608188Y-102104604D01*
X147621580Y-102102841D01*
X147756762Y-102085044D01*
X147902841Y-102024536D01*
X148028282Y-101928282D01*
X148124536Y-101802841D01*
X148133591Y-101780980D01*
X148178139Y-101725699D01*
X148245502Y-101703278D01*
X148314294Y-101720836D01*
X148362672Y-101772798D01*
X148366408Y-101780977D01*
X148375464Y-101802841D01*
X148471718Y-101928282D01*
X148597159Y-102024536D01*
X148743238Y-102085044D01*
X148900000Y-102105682D01*
X148908188Y-102104604D01*
X148921580Y-102102841D01*
X149056762Y-102085044D01*
X149202841Y-102024536D01*
X149328282Y-101928282D01*
X149346451Y-101904604D01*
X149400037Y-101834769D01*
X149457375Y-101792902D01*
X149528246Y-101788680D01*
X149590149Y-101823444D01*
X149599963Y-101834769D01*
X149653549Y-101904604D01*
X149671718Y-101928282D01*
X149797159Y-102024536D01*
X149943238Y-102085044D01*
X150100000Y-102105682D01*
X150108188Y-102104604D01*
X150121580Y-102102841D01*
X150256762Y-102085044D01*
X150402841Y-102024536D01*
X150528282Y-101928282D01*
X150624536Y-101802841D01*
X150633591Y-101780980D01*
X150678139Y-101725699D01*
X150745502Y-101703278D01*
X150814294Y-101720836D01*
X150862672Y-101772798D01*
X150866408Y-101780977D01*
X150875464Y-101802841D01*
X150971718Y-101928282D01*
X151097159Y-102024536D01*
X151243238Y-102085044D01*
X151400000Y-102105682D01*
X151408188Y-102104604D01*
X151421580Y-102102841D01*
X151556762Y-102085044D01*
X151702841Y-102024536D01*
X151828282Y-101928282D01*
X151846451Y-101904604D01*
X151900037Y-101834769D01*
X151957375Y-101792902D01*
X152028246Y-101788680D01*
X152090149Y-101823444D01*
X152099963Y-101834769D01*
X152153549Y-101904604D01*
X152171718Y-101928282D01*
X152297159Y-102024536D01*
X152443238Y-102085044D01*
X152600000Y-102105682D01*
X152608188Y-102104604D01*
X152621580Y-102102841D01*
X152756762Y-102085044D01*
X152902841Y-102024536D01*
X153028282Y-101928282D01*
X153124536Y-101802841D01*
X153133591Y-101780980D01*
X153178139Y-101725699D01*
X153245502Y-101703278D01*
X153314294Y-101720836D01*
X153362672Y-101772798D01*
X153366408Y-101780977D01*
X153375464Y-101802841D01*
X153471718Y-101928282D01*
X153597159Y-102024536D01*
X153743238Y-102085044D01*
X153900000Y-102105682D01*
X153908188Y-102104604D01*
X153921580Y-102102841D01*
X154056762Y-102085044D01*
X154202841Y-102024536D01*
X154328282Y-101928282D01*
X154424536Y-101802841D01*
X154485044Y-101656762D01*
X154505682Y-101500000D01*
X157094318Y-101500000D01*
X157114956Y-101656762D01*
X157175464Y-101802841D01*
X157271718Y-101928282D01*
X157397159Y-102024536D01*
X157543238Y-102085044D01*
X157700000Y-102105682D01*
X157708188Y-102104604D01*
X157721580Y-102102841D01*
X157856762Y-102085044D01*
X158002841Y-102024536D01*
X158128282Y-101928282D01*
X158224536Y-101802841D01*
X158285044Y-101656762D01*
X158305682Y-101500000D01*
X158285044Y-101343238D01*
X158267134Y-101300000D01*
X161994318Y-101300000D01*
X162014956Y-101456762D01*
X162075464Y-101602841D01*
X162114568Y-101653802D01*
X162165164Y-101719740D01*
X162171718Y-101728282D01*
X162297159Y-101824536D01*
X162443238Y-101885044D01*
X162600000Y-101905682D01*
X162608188Y-101904604D01*
X162748574Y-101886122D01*
X162756762Y-101885044D01*
X162902841Y-101824536D01*
X163028282Y-101728282D01*
X163034837Y-101719740D01*
X163085432Y-101653802D01*
X163124536Y-101602841D01*
X163131817Y-101585262D01*
X181824520Y-101585262D01*
X181825463Y-101596494D01*
X181839485Y-101763468D01*
X181841759Y-101790553D01*
X181843458Y-101796478D01*
X181889419Y-101956762D01*
X181898544Y-101988586D01*
X181901359Y-101994063D01*
X181901360Y-101994066D01*
X181989897Y-102166341D01*
X181992712Y-102171818D01*
X182120677Y-102333270D01*
X182277564Y-102466791D01*
X182457398Y-102567297D01*
X182552238Y-102598113D01*
X182647471Y-102629056D01*
X182647475Y-102629057D01*
X182653329Y-102630959D01*
X182857894Y-102655351D01*
X182864029Y-102654879D01*
X182864031Y-102654879D01*
X182920039Y-102650569D01*
X183063300Y-102639546D01*
X183069230Y-102637890D01*
X183069232Y-102637890D01*
X183193104Y-102603304D01*
X183261725Y-102584145D01*
X183267214Y-102581372D01*
X183267220Y-102581370D01*
X183440116Y-102494033D01*
X183445610Y-102491258D01*
X183607951Y-102364424D01*
X183639654Y-102327696D01*
X183738540Y-102213134D01*
X183738540Y-102213133D01*
X183742564Y-102208472D01*
X183763387Y-102171818D01*
X183806905Y-102095211D01*
X183844323Y-102029344D01*
X183909351Y-101833863D01*
X183935171Y-101629474D01*
X183935583Y-101600000D01*
X183915480Y-101394970D01*
X183855935Y-101197749D01*
X183759218Y-101015849D01*
X183660979Y-100895396D01*
X183632906Y-100860975D01*
X183632903Y-100860972D01*
X183629011Y-100856200D01*
X183622173Y-100850543D01*
X183475025Y-100728811D01*
X183475021Y-100728809D01*
X183470275Y-100724882D01*
X183292279Y-100628640D01*
X186424570Y-100628640D01*
X186439000Y-100848804D01*
X186440421Y-100854400D01*
X186440422Y-100854405D01*
X186479693Y-101009033D01*
X186493311Y-101062652D01*
X186495728Y-101067894D01*
X186495728Y-101067895D01*
X186533596Y-101150036D01*
X186585683Y-101263021D01*
X186713022Y-101443202D01*
X186871064Y-101597161D01*
X186875860Y-101600366D01*
X186875863Y-101600368D01*
X186967537Y-101661622D01*
X187054517Y-101719740D01*
X187059820Y-101722018D01*
X187059823Y-101722020D01*
X187222269Y-101791812D01*
X187257236Y-101806835D01*
X187313247Y-101819509D01*
X187466795Y-101854254D01*
X187466801Y-101854255D01*
X187472432Y-101855529D01*
X187478203Y-101855756D01*
X187478205Y-101855756D01*
X187546011Y-101858420D01*
X187692898Y-101864191D01*
X187804834Y-101847961D01*
X187905538Y-101833360D01*
X187905543Y-101833359D01*
X187911252Y-101832531D01*
X187916716Y-101830676D01*
X187916721Y-101830675D01*
X188114707Y-101763468D01*
X188114712Y-101763466D01*
X188120179Y-101761610D01*
X188179691Y-101728282D01*
X188224338Y-101703278D01*
X188312684Y-101653802D01*
X188346174Y-101625949D01*
X188477886Y-101516404D01*
X188482318Y-101512718D01*
X188544056Y-101438487D01*
X188619708Y-101347526D01*
X188619710Y-101347523D01*
X188623402Y-101343084D01*
X188720964Y-101168874D01*
X188728386Y-101155622D01*
X188728387Y-101155620D01*
X188731210Y-101150579D01*
X188733066Y-101145112D01*
X188733068Y-101145107D01*
X188800275Y-100947121D01*
X188800276Y-100947116D01*
X188802131Y-100941652D01*
X188802959Y-100935943D01*
X188802960Y-100935938D01*
X188824287Y-100788848D01*
X188833791Y-100723298D01*
X188835443Y-100660200D01*
X188815254Y-100440489D01*
X188806562Y-100409667D01*
X188768353Y-100274189D01*
X188755365Y-100228136D01*
X188657780Y-100030253D01*
X188602902Y-99956762D01*
X188529220Y-99858091D01*
X188529220Y-99858090D01*
X188525767Y-99853467D01*
X188387333Y-99725500D01*
X188367989Y-99707618D01*
X188367986Y-99707616D01*
X188363749Y-99703699D01*
X188177150Y-99585964D01*
X187972221Y-99504206D01*
X187966561Y-99503080D01*
X187966557Y-99503079D01*
X187761491Y-99462289D01*
X187761488Y-99462289D01*
X187755824Y-99461162D01*
X187750049Y-99461086D01*
X187750045Y-99461086D01*
X187639304Y-99459637D01*
X187535206Y-99458274D01*
X187529509Y-99459253D01*
X187529508Y-99459253D01*
X187323454Y-99494659D01*
X187323453Y-99494659D01*
X187317757Y-99495638D01*
X187110757Y-99572004D01*
X187105796Y-99574956D01*
X187105795Y-99574956D01*
X186941125Y-99672925D01*
X186921141Y-99684814D01*
X186755257Y-99830290D01*
X186618663Y-100003560D01*
X186515931Y-100198820D01*
X186450503Y-100409533D01*
X186424570Y-100628640D01*
X183292279Y-100628640D01*
X183289055Y-100626897D01*
X183092254Y-100565977D01*
X183086129Y-100565333D01*
X183086128Y-100565333D01*
X182893498Y-100545087D01*
X182893496Y-100545087D01*
X182887369Y-100544443D01*
X182806076Y-100551841D01*
X182688342Y-100562555D01*
X182688339Y-100562556D01*
X182682203Y-100563114D01*
X182484572Y-100621280D01*
X182302002Y-100716726D01*
X182297201Y-100720586D01*
X182297198Y-100720588D01*
X182146254Y-100841950D01*
X182141447Y-100845815D01*
X182009024Y-101003630D01*
X182006056Y-101009028D01*
X182006053Y-101009033D01*
X181928537Y-101150036D01*
X181909776Y-101184162D01*
X181847484Y-101380532D01*
X181846798Y-101386649D01*
X181846797Y-101386653D01*
X181827871Y-101555384D01*
X181824520Y-101585262D01*
X163131817Y-101585262D01*
X163185044Y-101456762D01*
X163205682Y-101300000D01*
X163197654Y-101239022D01*
X163208593Y-101168874D01*
X163255721Y-101115775D01*
X163324075Y-101096585D01*
X163339020Y-101097654D01*
X163400000Y-101105682D01*
X163408188Y-101104604D01*
X163548574Y-101086122D01*
X163556762Y-101085044D01*
X163702841Y-101024536D01*
X163794075Y-100954530D01*
X163821736Y-100933305D01*
X163828282Y-100928282D01*
X163834092Y-100920711D01*
X163856274Y-100891802D01*
X163924536Y-100802841D01*
X163985044Y-100656762D01*
X163986301Y-100647218D01*
X164004604Y-100508188D01*
X164005682Y-100500000D01*
X163994527Y-100415270D01*
X163986122Y-100351426D01*
X163985044Y-100343238D01*
X163981884Y-100335609D01*
X163981883Y-100335605D01*
X163956443Y-100274189D01*
X163948853Y-100203599D01*
X163980632Y-100140112D01*
X164041690Y-100103884D01*
X164089295Y-100101048D01*
X164116309Y-100104604D01*
X164116312Y-100104604D01*
X164124500Y-100105682D01*
X164132688Y-100104604D01*
X164146080Y-100102841D01*
X164250788Y-100089056D01*
X164273074Y-100086122D01*
X164281262Y-100085044D01*
X164427341Y-100024536D01*
X164552782Y-99928282D01*
X164573023Y-99901904D01*
X164613194Y-99849551D01*
X164649036Y-99802841D01*
X164650213Y-99800000D01*
X173994318Y-99800000D01*
X174014956Y-99956762D01*
X174075464Y-100102841D01*
X174171718Y-100228282D01*
X174297159Y-100324536D01*
X174443238Y-100385044D01*
X174451426Y-100386122D01*
X174508395Y-100393622D01*
X174600000Y-100405682D01*
X174608188Y-100404604D01*
X174612655Y-100404016D01*
X174691605Y-100393622D01*
X174748574Y-100386122D01*
X174756762Y-100385044D01*
X174902841Y-100324536D01*
X175028282Y-100228282D01*
X175124536Y-100102841D01*
X175185044Y-99956762D01*
X175205682Y-99800000D01*
X175185044Y-99643238D01*
X175124536Y-99497159D01*
X175028282Y-99371718D01*
X174902841Y-99275464D01*
X174756762Y-99214956D01*
X174600000Y-99194318D01*
X174443238Y-99214956D01*
X174297159Y-99275464D01*
X174171718Y-99371718D01*
X174075464Y-99497159D01*
X174014956Y-99643238D01*
X173994318Y-99800000D01*
X164650213Y-99800000D01*
X164709544Y-99656762D01*
X164730182Y-99500000D01*
X164709544Y-99343238D01*
X164649036Y-99197159D01*
X164552782Y-99071718D01*
X164459317Y-99000000D01*
X178394318Y-99000000D01*
X178414956Y-99156762D01*
X178475464Y-99302841D01*
X178514103Y-99353196D01*
X178562209Y-99415889D01*
X178571718Y-99428282D01*
X178697159Y-99524536D01*
X178843238Y-99585044D01*
X179000000Y-99605682D01*
X179008188Y-99604604D01*
X179148574Y-99586122D01*
X179156762Y-99585044D01*
X179302841Y-99524536D01*
X179428282Y-99428282D01*
X179437792Y-99415889D01*
X179485897Y-99353196D01*
X179524536Y-99302841D01*
X179585044Y-99156762D01*
X179599723Y-99045262D01*
X181824520Y-99045262D01*
X181825036Y-99051406D01*
X181840311Y-99233305D01*
X181841759Y-99250553D01*
X181843458Y-99256478D01*
X181896051Y-99439891D01*
X181898544Y-99448586D01*
X181901359Y-99454063D01*
X181901360Y-99454066D01*
X181978497Y-99604159D01*
X181992712Y-99631818D01*
X182120677Y-99793270D01*
X182125370Y-99797264D01*
X182125371Y-99797265D01*
X182243970Y-99898200D01*
X182277564Y-99926791D01*
X182282942Y-99929797D01*
X182282944Y-99929798D01*
X182314563Y-99947469D01*
X182457398Y-100027297D01*
X182552238Y-100058113D01*
X182647471Y-100089056D01*
X182647475Y-100089057D01*
X182653329Y-100090959D01*
X182857894Y-100115351D01*
X182864029Y-100114879D01*
X182864031Y-100114879D01*
X182933363Y-100109544D01*
X183063300Y-100099546D01*
X183069230Y-100097890D01*
X183069232Y-100097890D01*
X183193104Y-100063304D01*
X183261725Y-100044145D01*
X183267214Y-100041372D01*
X183267220Y-100041370D01*
X183432649Y-99957805D01*
X183445610Y-99951258D01*
X183452137Y-99946159D01*
X183536683Y-99880104D01*
X183607951Y-99824424D01*
X183620927Y-99809392D01*
X183738540Y-99673134D01*
X183738540Y-99673133D01*
X183742564Y-99668472D01*
X183752248Y-99651426D01*
X183794569Y-99576926D01*
X183844323Y-99489344D01*
X183909351Y-99293863D01*
X183935171Y-99089474D01*
X183935467Y-99068290D01*
X183935534Y-99063522D01*
X183935534Y-99063518D01*
X183935583Y-99060000D01*
X183915480Y-98854970D01*
X183855935Y-98657749D01*
X183759218Y-98475849D01*
X183670194Y-98366695D01*
X183632906Y-98320975D01*
X183632903Y-98320972D01*
X183629011Y-98316200D01*
X183622173Y-98310543D01*
X183475025Y-98188811D01*
X183475021Y-98188809D01*
X183470275Y-98184882D01*
X183289055Y-98086897D01*
X183092254Y-98025977D01*
X183086129Y-98025333D01*
X183086128Y-98025333D01*
X182893498Y-98005087D01*
X182893496Y-98005087D01*
X182887369Y-98004443D01*
X182800529Y-98012346D01*
X182688342Y-98022555D01*
X182688339Y-98022556D01*
X182682203Y-98023114D01*
X182484572Y-98081280D01*
X182302002Y-98176726D01*
X182297201Y-98180586D01*
X182297198Y-98180588D01*
X182183126Y-98272304D01*
X182141447Y-98305815D01*
X182009024Y-98463630D01*
X182006056Y-98469028D01*
X182006053Y-98469033D01*
X181914478Y-98635609D01*
X181909776Y-98644162D01*
X181907913Y-98650035D01*
X181853419Y-98821824D01*
X181847484Y-98840532D01*
X181846798Y-98846649D01*
X181846797Y-98846653D01*
X181830731Y-98989891D01*
X181824520Y-99045262D01*
X179599723Y-99045262D01*
X179605682Y-99000000D01*
X179585044Y-98843238D01*
X179524536Y-98697159D01*
X179428282Y-98571718D01*
X179302841Y-98475464D01*
X179156762Y-98414956D01*
X179000000Y-98394318D01*
X178843238Y-98414956D01*
X178697159Y-98475464D01*
X178571718Y-98571718D01*
X178475464Y-98697159D01*
X178414956Y-98843238D01*
X178394318Y-99000000D01*
X164459317Y-99000000D01*
X164427341Y-98975464D01*
X164281262Y-98914956D01*
X164124500Y-98894318D01*
X163967738Y-98914956D01*
X163821659Y-98975464D01*
X163696218Y-99071718D01*
X163599964Y-99197159D01*
X163539456Y-99343238D01*
X163518818Y-99500000D01*
X163539456Y-99656762D01*
X163542616Y-99664390D01*
X163542617Y-99664395D01*
X163568057Y-99725811D01*
X163575647Y-99796401D01*
X163543868Y-99859888D01*
X163482810Y-99896116D01*
X163435205Y-99898952D01*
X163408191Y-99895396D01*
X163408188Y-99895396D01*
X163400000Y-99894318D01*
X163243238Y-99914956D01*
X163097159Y-99975464D01*
X162971718Y-100071718D01*
X162966695Y-100078264D01*
X162955972Y-100092238D01*
X162875464Y-100197159D01*
X162814956Y-100343238D01*
X162813878Y-100351426D01*
X162805473Y-100415270D01*
X162794318Y-100500000D01*
X162800612Y-100547804D01*
X162802346Y-100560978D01*
X162791407Y-100631126D01*
X162744279Y-100684225D01*
X162675925Y-100703415D01*
X162660980Y-100702346D01*
X162600000Y-100694318D01*
X162591812Y-100695396D01*
X162451495Y-100713869D01*
X162443238Y-100714956D01*
X162297159Y-100775464D01*
X162271424Y-100795211D01*
X162185719Y-100860975D01*
X162171718Y-100871718D01*
X162166695Y-100878264D01*
X162156307Y-100891802D01*
X162075464Y-100997159D01*
X162014956Y-101143238D01*
X161994318Y-101300000D01*
X158267134Y-101300000D01*
X158224536Y-101197159D01*
X158128282Y-101071718D01*
X158002841Y-100975464D01*
X157856762Y-100914956D01*
X157700000Y-100894318D01*
X157543238Y-100914956D01*
X157397159Y-100975464D01*
X157271718Y-101071718D01*
X157175464Y-101197159D01*
X157114956Y-101343238D01*
X157094318Y-101500000D01*
X154505682Y-101500000D01*
X154485044Y-101343238D01*
X154424536Y-101197159D01*
X154328282Y-101071718D01*
X154202841Y-100975464D01*
X154056762Y-100914956D01*
X153900000Y-100894318D01*
X153743238Y-100914956D01*
X153597159Y-100975464D01*
X153471718Y-101071718D01*
X153375464Y-101197159D01*
X153368539Y-101213878D01*
X153366409Y-101219020D01*
X153321861Y-101274301D01*
X153254498Y-101296722D01*
X153185706Y-101279164D01*
X153137328Y-101227202D01*
X153133591Y-101219020D01*
X153131461Y-101213878D01*
X153124536Y-101197159D01*
X153028282Y-101071718D01*
X152902841Y-100975464D01*
X152756762Y-100914956D01*
X152600000Y-100894318D01*
X152443238Y-100914956D01*
X152297159Y-100975464D01*
X152171718Y-101071718D01*
X152166695Y-101078264D01*
X152099963Y-101165231D01*
X152042625Y-101207098D01*
X151971754Y-101211320D01*
X151909851Y-101176556D01*
X151900037Y-101165231D01*
X151833305Y-101078264D01*
X151828282Y-101071718D01*
X151702841Y-100975464D01*
X151556762Y-100914956D01*
X151400000Y-100894318D01*
X151243238Y-100914956D01*
X151097159Y-100975464D01*
X150971718Y-101071718D01*
X150875464Y-101197159D01*
X150868539Y-101213878D01*
X150866409Y-101219020D01*
X150821861Y-101274301D01*
X150754498Y-101296722D01*
X150685706Y-101279164D01*
X150637328Y-101227202D01*
X150633591Y-101219020D01*
X150631461Y-101213878D01*
X150624536Y-101197159D01*
X150528282Y-101071718D01*
X150402841Y-100975464D01*
X150256762Y-100914956D01*
X150100000Y-100894318D01*
X149943238Y-100914956D01*
X149797159Y-100975464D01*
X149671718Y-101071718D01*
X149666695Y-101078264D01*
X149599963Y-101165231D01*
X149542625Y-101207098D01*
X149471754Y-101211320D01*
X149409851Y-101176556D01*
X149400037Y-101165231D01*
X149333305Y-101078264D01*
X149328282Y-101071718D01*
X149202841Y-100975464D01*
X149056762Y-100914956D01*
X148900000Y-100894318D01*
X148743238Y-100914956D01*
X148597159Y-100975464D01*
X148471718Y-101071718D01*
X148375464Y-101197159D01*
X148368539Y-101213878D01*
X148366409Y-101219020D01*
X148321861Y-101274301D01*
X148254498Y-101296722D01*
X148185706Y-101279164D01*
X148137328Y-101227202D01*
X148133591Y-101219020D01*
X148131461Y-101213878D01*
X148124536Y-101197159D01*
X148028282Y-101071718D01*
X147902841Y-100975464D01*
X147756762Y-100914956D01*
X147600000Y-100894318D01*
X147443238Y-100914956D01*
X147297159Y-100975464D01*
X147171718Y-101071718D01*
X147075464Y-101197159D01*
X147014956Y-101343238D01*
X147013878Y-101351426D01*
X147009478Y-101384847D01*
X146980755Y-101449774D01*
X146921490Y-101488865D01*
X146850498Y-101489710D01*
X146790320Y-101452039D01*
X146784593Y-101445104D01*
X146733305Y-101378264D01*
X146728282Y-101371718D01*
X146602841Y-101275464D01*
X146456762Y-101214956D01*
X146423250Y-101210544D01*
X146326061Y-101197749D01*
X146300000Y-101194318D01*
X146273939Y-101197749D01*
X146176751Y-101210544D01*
X146143238Y-101214956D01*
X145997159Y-101275464D01*
X145871718Y-101371718D01*
X145775464Y-101497159D01*
X145714956Y-101643238D01*
X145694318Y-101800000D01*
X120413629Y-101800000D01*
X120435171Y-101629474D01*
X120435583Y-101600000D01*
X120415480Y-101394970D01*
X120355935Y-101197749D01*
X120259218Y-101015849D01*
X120224679Y-100973500D01*
X121796918Y-100973500D01*
X121797996Y-100981688D01*
X121813831Y-101101964D01*
X121817556Y-101130262D01*
X121878064Y-101276341D01*
X121974318Y-101401782D01*
X122099759Y-101498036D01*
X122245838Y-101558544D01*
X122402600Y-101579182D01*
X122410788Y-101578104D01*
X122551174Y-101559622D01*
X122559362Y-101558544D01*
X122705441Y-101498036D01*
X122830882Y-101401782D01*
X122927136Y-101276341D01*
X122987644Y-101130262D01*
X122991370Y-101101964D01*
X123007204Y-100981688D01*
X123008282Y-100973500D01*
X123778118Y-100973500D01*
X123779196Y-100981688D01*
X123795031Y-101101964D01*
X123798756Y-101130262D01*
X123859264Y-101276341D01*
X123955518Y-101401782D01*
X124080959Y-101498036D01*
X124227038Y-101558544D01*
X124383800Y-101579182D01*
X124391988Y-101578104D01*
X124532374Y-101559622D01*
X124540562Y-101558544D01*
X124686641Y-101498036D01*
X124812082Y-101401782D01*
X124908336Y-101276341D01*
X124968844Y-101130262D01*
X124972570Y-101101964D01*
X124988404Y-100981688D01*
X124989482Y-100973500D01*
X124987082Y-100955270D01*
X124998021Y-100885121D01*
X125045150Y-100832023D01*
X125113504Y-100812833D01*
X125160222Y-100822415D01*
X125180667Y-100830884D01*
X125180670Y-100830885D01*
X125188297Y-100834044D01*
X125196485Y-100835122D01*
X125221141Y-100838368D01*
X125345059Y-100854682D01*
X125465497Y-100838826D01*
X125535645Y-100849765D01*
X125588744Y-100896893D01*
X125607934Y-100965247D01*
X125606865Y-100980194D01*
X125600611Y-101027696D01*
X125594318Y-101075500D01*
X125614956Y-101232262D01*
X125675464Y-101378341D01*
X125771718Y-101503782D01*
X125897159Y-101600036D01*
X125968229Y-101629474D01*
X126033782Y-101656627D01*
X126043238Y-101660544D01*
X126200000Y-101681182D01*
X126208188Y-101680104D01*
X126348574Y-101661622D01*
X126356762Y-101660544D01*
X126366219Y-101656627D01*
X126431771Y-101629474D01*
X126502841Y-101600036D01*
X126628282Y-101503782D01*
X126724536Y-101378341D01*
X126785044Y-101232262D01*
X126805682Y-101075500D01*
X126786308Y-100928341D01*
X126786122Y-100926926D01*
X126785044Y-100918738D01*
X126724536Y-100772659D01*
X126628282Y-100647218D01*
X126607311Y-100631126D01*
X126521567Y-100565333D01*
X126502841Y-100550964D01*
X126356762Y-100490456D01*
X126200000Y-100469818D01*
X126079562Y-100485674D01*
X126009414Y-100474735D01*
X125956315Y-100427607D01*
X125937125Y-100359253D01*
X125938194Y-100344306D01*
X125949663Y-100257188D01*
X125950741Y-100249000D01*
X125930103Y-100092238D01*
X125869595Y-99946159D01*
X125773341Y-99820718D01*
X125647900Y-99724464D01*
X125501821Y-99663956D01*
X125441321Y-99655991D01*
X125377075Y-99647533D01*
X125345059Y-99643318D01*
X125313043Y-99647533D01*
X125248798Y-99655991D01*
X125188297Y-99663956D01*
X125042218Y-99724464D01*
X124916777Y-99820718D01*
X124820523Y-99946159D01*
X124760015Y-100092238D01*
X124739377Y-100249000D01*
X124740455Y-100257188D01*
X124741777Y-100267230D01*
X124730838Y-100337379D01*
X124683709Y-100390477D01*
X124615355Y-100409667D01*
X124568637Y-100400085D01*
X124548192Y-100391616D01*
X124548189Y-100391615D01*
X124540562Y-100388456D01*
X124522834Y-100386122D01*
X124391988Y-100368896D01*
X124383800Y-100367818D01*
X124375612Y-100368896D01*
X124244767Y-100386122D01*
X124227038Y-100388456D01*
X124080959Y-100448964D01*
X123955518Y-100545218D01*
X123859264Y-100670659D01*
X123798756Y-100816738D01*
X123797678Y-100824926D01*
X123794078Y-100852271D01*
X123778118Y-100973500D01*
X123008282Y-100973500D01*
X122992322Y-100852271D01*
X122988722Y-100824926D01*
X122987644Y-100816738D01*
X122927136Y-100670659D01*
X122830882Y-100545218D01*
X122705441Y-100448964D01*
X122559362Y-100388456D01*
X122541634Y-100386122D01*
X122410788Y-100368896D01*
X122402600Y-100367818D01*
X122394412Y-100368896D01*
X122263567Y-100386122D01*
X122245838Y-100388456D01*
X122099759Y-100448964D01*
X121974318Y-100545218D01*
X121878064Y-100670659D01*
X121817556Y-100816738D01*
X121816478Y-100824926D01*
X121812878Y-100852271D01*
X121796918Y-100973500D01*
X120224679Y-100973500D01*
X120160979Y-100895396D01*
X120132906Y-100860975D01*
X120132903Y-100860972D01*
X120129011Y-100856200D01*
X120122173Y-100850543D01*
X119975025Y-100728811D01*
X119975021Y-100728809D01*
X119970275Y-100724882D01*
X119789055Y-100626897D01*
X119592254Y-100565977D01*
X119586129Y-100565333D01*
X119586128Y-100565333D01*
X119393498Y-100545087D01*
X119393496Y-100545087D01*
X119387369Y-100544443D01*
X119306076Y-100551841D01*
X119188342Y-100562555D01*
X119188339Y-100562556D01*
X119182203Y-100563114D01*
X118984572Y-100621280D01*
X118802002Y-100716726D01*
X118797201Y-100720586D01*
X118797198Y-100720588D01*
X118646254Y-100841950D01*
X118641447Y-100845815D01*
X118509024Y-101003630D01*
X118506056Y-101009028D01*
X118506053Y-101009033D01*
X118428537Y-101150036D01*
X118409776Y-101184162D01*
X118347484Y-101380532D01*
X118346798Y-101386649D01*
X118346797Y-101386653D01*
X118327871Y-101555384D01*
X118324520Y-101585262D01*
X118325463Y-101596494D01*
X118339485Y-101763468D01*
X118341759Y-101790553D01*
X118343458Y-101796478D01*
X118389419Y-101956762D01*
X118398544Y-101988586D01*
X118401359Y-101994063D01*
X118401360Y-101994066D01*
X118489897Y-102166341D01*
X118492712Y-102171818D01*
X118620677Y-102333270D01*
X118777564Y-102466791D01*
X118957398Y-102567297D01*
X119022437Y-102588429D01*
X119081042Y-102628502D01*
X119108680Y-102693898D01*
X119096574Y-102763855D01*
X119048568Y-102816162D01*
X119022646Y-102828027D01*
X118856868Y-102882212D01*
X118847359Y-102886209D01*
X118658463Y-102984542D01*
X118649738Y-102990036D01*
X118479433Y-103117905D01*
X118471726Y-103124748D01*
X118324590Y-103278717D01*
X118318104Y-103286727D01*
X118198098Y-103462649D01*
X118193000Y-103471623D01*
X118103338Y-103664783D01*
X118099775Y-103674470D01*
X118044389Y-103874183D01*
X112943241Y-103874183D01*
X112920383Y-103778973D01*
X112917334Y-103769588D01*
X112830287Y-103559437D01*
X112825805Y-103550642D01*
X112723168Y-103383155D01*
X112712710Y-103373693D01*
X112703934Y-103377476D01*
X111852622Y-104228788D01*
X111845008Y-104242732D01*
X111114956Y-104242732D01*
X111116192Y-104240468D01*
X111116061Y-104238635D01*
X111111810Y-104232020D01*
X110260310Y-103380520D01*
X110247930Y-103373760D01*
X110240280Y-103379487D01*
X110135395Y-103550642D01*
X110130913Y-103559437D01*
X110043866Y-103769588D01*
X110040817Y-103778973D01*
X109987715Y-104000154D01*
X109986172Y-104009901D01*
X109968325Y-104236670D01*
X109968325Y-104246530D01*
X108746194Y-104246530D01*
X108746194Y-103009490D01*
X110612693Y-103009490D01*
X110616476Y-103018266D01*
X111467788Y-103869578D01*
X111481732Y-103877192D01*
X111483565Y-103877061D01*
X111490180Y-103872810D01*
X112341680Y-103021310D01*
X112348440Y-103008930D01*
X112342713Y-103001280D01*
X112171558Y-102896395D01*
X112162763Y-102891913D01*
X111952612Y-102804866D01*
X111943227Y-102801817D01*
X111722046Y-102748715D01*
X111712299Y-102747172D01*
X111485530Y-102729325D01*
X111475670Y-102729325D01*
X111248901Y-102747172D01*
X111239154Y-102748715D01*
X111017973Y-102801817D01*
X111008588Y-102804866D01*
X110798437Y-102891913D01*
X110789642Y-102896395D01*
X110622155Y-102999032D01*
X110612693Y-103009490D01*
X108746194Y-103009490D01*
X108746194Y-99866640D01*
X110275370Y-99866640D01*
X110289800Y-100086804D01*
X110291221Y-100092400D01*
X110291222Y-100092405D01*
X110332880Y-100256432D01*
X110344111Y-100300652D01*
X110346528Y-100305894D01*
X110346528Y-100305895D01*
X110384589Y-100388456D01*
X110436483Y-100501021D01*
X110563822Y-100681202D01*
X110721864Y-100835161D01*
X110726660Y-100838366D01*
X110726663Y-100838368D01*
X110839673Y-100913878D01*
X110905317Y-100957740D01*
X110910620Y-100960018D01*
X110910623Y-100960020D01*
X111060789Y-101024536D01*
X111108036Y-101044835D01*
X111186776Y-101062652D01*
X111317595Y-101092254D01*
X111317601Y-101092255D01*
X111323232Y-101093529D01*
X111329003Y-101093756D01*
X111329005Y-101093756D01*
X111396811Y-101096420D01*
X111543698Y-101102191D01*
X111661958Y-101085044D01*
X111756338Y-101071360D01*
X111756343Y-101071359D01*
X111762052Y-101070531D01*
X111767516Y-101068676D01*
X111767521Y-101068675D01*
X111965507Y-101001468D01*
X111965512Y-101001466D01*
X111970979Y-100999610D01*
X111987054Y-100990608D01*
X112074470Y-100941652D01*
X112163484Y-100891802D01*
X112187633Y-100871718D01*
X112305036Y-100774074D01*
X112333118Y-100750718D01*
X112393357Y-100678289D01*
X112470508Y-100585526D01*
X112470510Y-100585523D01*
X112474202Y-100581084D01*
X112549715Y-100446246D01*
X112579186Y-100393622D01*
X112579187Y-100393620D01*
X112582010Y-100388579D01*
X112583866Y-100383112D01*
X112583868Y-100383107D01*
X112651075Y-100185121D01*
X112651076Y-100185116D01*
X112652931Y-100179652D01*
X112653759Y-100173943D01*
X112653760Y-100173938D01*
X112674964Y-100027696D01*
X112684591Y-99961298D01*
X112686243Y-99898200D01*
X112666054Y-99678489D01*
X112659927Y-99656762D01*
X112624934Y-99532688D01*
X112606165Y-99466136D01*
X112508580Y-99268253D01*
X112473787Y-99221659D01*
X112380020Y-99096091D01*
X112380020Y-99096090D01*
X112376567Y-99091467D01*
X112326583Y-99045262D01*
X118324520Y-99045262D01*
X118325036Y-99051406D01*
X118340311Y-99233305D01*
X118341759Y-99250553D01*
X118343458Y-99256478D01*
X118396051Y-99439891D01*
X118398544Y-99448586D01*
X118401359Y-99454063D01*
X118401360Y-99454066D01*
X118478497Y-99604159D01*
X118492712Y-99631818D01*
X118620677Y-99793270D01*
X118625370Y-99797264D01*
X118625371Y-99797265D01*
X118743970Y-99898200D01*
X118777564Y-99926791D01*
X118782942Y-99929797D01*
X118782944Y-99929798D01*
X118814563Y-99947469D01*
X118957398Y-100027297D01*
X119052238Y-100058113D01*
X119147471Y-100089056D01*
X119147475Y-100089057D01*
X119153329Y-100090959D01*
X119357894Y-100115351D01*
X119364029Y-100114879D01*
X119364031Y-100114879D01*
X119433363Y-100109544D01*
X119563300Y-100099546D01*
X119569230Y-100097890D01*
X119569232Y-100097890D01*
X119693104Y-100063304D01*
X119761725Y-100044145D01*
X119767214Y-100041372D01*
X119767220Y-100041370D01*
X119932649Y-99957805D01*
X119945610Y-99951258D01*
X119952137Y-99946159D01*
X120036683Y-99880104D01*
X120107951Y-99824424D01*
X120120927Y-99809392D01*
X120238540Y-99673134D01*
X120238540Y-99673133D01*
X120242564Y-99668472D01*
X120252248Y-99651426D01*
X120294569Y-99576926D01*
X120344323Y-99489344D01*
X120409351Y-99293863D01*
X120435171Y-99089474D01*
X120435467Y-99068290D01*
X120435534Y-99063522D01*
X120435534Y-99063518D01*
X120435583Y-99060000D01*
X120415480Y-98854970D01*
X120355935Y-98657749D01*
X120259218Y-98475849D01*
X120170194Y-98366695D01*
X120132906Y-98320975D01*
X120132903Y-98320972D01*
X120129011Y-98316200D01*
X120122173Y-98310543D01*
X119975025Y-98188811D01*
X119975021Y-98188809D01*
X119970275Y-98184882D01*
X119789055Y-98086897D01*
X119752237Y-98075500D01*
X126876918Y-98075500D01*
X126897556Y-98232262D01*
X126958064Y-98378341D01*
X127054318Y-98503782D01*
X127179759Y-98600036D01*
X127325838Y-98660544D01*
X127444936Y-98676223D01*
X127489490Y-98695933D01*
X127537664Y-98673933D01*
X127631174Y-98661622D01*
X127639362Y-98660544D01*
X127785441Y-98600036D01*
X127910882Y-98503782D01*
X127912984Y-98501043D01*
X127973345Y-98468082D01*
X128044160Y-98473147D01*
X128100996Y-98515694D01*
X128125807Y-98582214D01*
X128118523Y-98627166D01*
X128120254Y-98627630D01*
X128118116Y-98635609D01*
X128114956Y-98643238D01*
X128113878Y-98651426D01*
X128107445Y-98700289D01*
X128094318Y-98800000D01*
X128114956Y-98956762D01*
X128115571Y-98958246D01*
X128113956Y-99026140D01*
X128074163Y-99084937D01*
X128008899Y-99112886D01*
X127938885Y-99101113D01*
X127917235Y-99087740D01*
X127809396Y-99004993D01*
X127809392Y-99004991D01*
X127802841Y-98999964D01*
X127656762Y-98939456D01*
X127537664Y-98923777D01*
X127493110Y-98904067D01*
X127444936Y-98926067D01*
X127351426Y-98938378D01*
X127343238Y-98939456D01*
X127197159Y-98999964D01*
X127071718Y-99096218D01*
X126975464Y-99221659D01*
X126943132Y-99299715D01*
X126920980Y-99353196D01*
X126914956Y-99367738D01*
X126913878Y-99375926D01*
X126909179Y-99411622D01*
X126894318Y-99524500D01*
X126895396Y-99532688D01*
X126910516Y-99647533D01*
X126914956Y-99681262D01*
X126975464Y-99827341D01*
X127071718Y-99952782D01*
X127197159Y-100049036D01*
X127204097Y-100051910D01*
X127252852Y-100103041D01*
X127266289Y-100172755D01*
X127240821Y-100237483D01*
X127180497Y-100316098D01*
X127180493Y-100316105D01*
X127175464Y-100322659D01*
X127114956Y-100468738D01*
X127094318Y-100625500D01*
X127096516Y-100642195D01*
X127106837Y-100720588D01*
X127114956Y-100782262D01*
X127175464Y-100928341D01*
X127271718Y-101053782D01*
X127278264Y-101058805D01*
X127303624Y-101078264D01*
X127397159Y-101150036D01*
X127543238Y-101210544D01*
X127551426Y-101211622D01*
X127600753Y-101218116D01*
X127700000Y-101231182D01*
X127708188Y-101230104D01*
X127848574Y-101211622D01*
X127856762Y-101210544D01*
X128002841Y-101150036D01*
X128096376Y-101078264D01*
X128121736Y-101058805D01*
X128128282Y-101053782D01*
X128224536Y-100928341D01*
X128282316Y-100788848D01*
X128326864Y-100733567D01*
X128394228Y-100711146D01*
X128446942Y-100720657D01*
X128543238Y-100760544D01*
X128700000Y-100781182D01*
X128708188Y-100780104D01*
X128848574Y-100761622D01*
X128856762Y-100760544D01*
X129002841Y-100700036D01*
X129098158Y-100626897D01*
X129121736Y-100608805D01*
X129128282Y-100603782D01*
X129207917Y-100500000D01*
X155894318Y-100500000D01*
X155895396Y-100508188D01*
X155913700Y-100647218D01*
X155914956Y-100656762D01*
X155975464Y-100802841D01*
X156043726Y-100891802D01*
X156065909Y-100920711D01*
X156071718Y-100928282D01*
X156078264Y-100933305D01*
X156105925Y-100954530D01*
X156197159Y-101024536D01*
X156343238Y-101085044D01*
X156500000Y-101105682D01*
X156508188Y-101104604D01*
X156648574Y-101086122D01*
X156656762Y-101085044D01*
X156802841Y-101024536D01*
X156894075Y-100954530D01*
X156921736Y-100933305D01*
X156928282Y-100928282D01*
X156934092Y-100920711D01*
X156956274Y-100891802D01*
X157024536Y-100802841D01*
X157085044Y-100656762D01*
X157086301Y-100647218D01*
X157104604Y-100508188D01*
X157105682Y-100500000D01*
X157094527Y-100415270D01*
X157086122Y-100351426D01*
X157085044Y-100343238D01*
X157024536Y-100197159D01*
X156944028Y-100092238D01*
X156933305Y-100078264D01*
X156928282Y-100071718D01*
X156802841Y-99975464D01*
X156656762Y-99914956D01*
X156500000Y-99894318D01*
X156343238Y-99914956D01*
X156197159Y-99975464D01*
X156071718Y-100071718D01*
X156066695Y-100078264D01*
X156055972Y-100092238D01*
X155975464Y-100197159D01*
X155914956Y-100343238D01*
X155913878Y-100351426D01*
X155905473Y-100415270D01*
X155894318Y-100500000D01*
X129207917Y-100500000D01*
X129224536Y-100478341D01*
X129285044Y-100332262D01*
X129295027Y-100256431D01*
X129323749Y-100191505D01*
X129383014Y-100152413D01*
X129454006Y-100151568D01*
X129496652Y-100172915D01*
X129597159Y-100250036D01*
X129743238Y-100310544D01*
X129900000Y-100331182D01*
X129908188Y-100330104D01*
X130048574Y-100311622D01*
X130056762Y-100310544D01*
X130202841Y-100250036D01*
X130294567Y-100179652D01*
X130321736Y-100158805D01*
X130328282Y-100153782D01*
X130424536Y-100028341D01*
X130485044Y-99882262D01*
X130505682Y-99725500D01*
X130485044Y-99568738D01*
X130481264Y-99559611D01*
X130444849Y-99471700D01*
X130424536Y-99422659D01*
X130328282Y-99297218D01*
X130299979Y-99275500D01*
X130694318Y-99275500D01*
X130714956Y-99432262D01*
X130775464Y-99578341D01*
X130826150Y-99644396D01*
X130856728Y-99684246D01*
X130871718Y-99703782D01*
X130878264Y-99708805D01*
X130900427Y-99725811D01*
X130997159Y-99800036D01*
X131143238Y-99860544D01*
X131300000Y-99881182D01*
X131308188Y-99880104D01*
X131448574Y-99861622D01*
X131456762Y-99860544D01*
X131602841Y-99800036D01*
X131699573Y-99725811D01*
X131721736Y-99708805D01*
X131728282Y-99703782D01*
X131743273Y-99684246D01*
X131773850Y-99644396D01*
X131824536Y-99578341D01*
X131856986Y-99500000D01*
X154594318Y-99500000D01*
X154614956Y-99656762D01*
X154675464Y-99802841D01*
X154711306Y-99849551D01*
X154751478Y-99901904D01*
X154771718Y-99928282D01*
X154897159Y-100024536D01*
X155043238Y-100085044D01*
X155051426Y-100086122D01*
X155073712Y-100089056D01*
X155200000Y-100105682D01*
X155208188Y-100104604D01*
X155221580Y-100102841D01*
X155326288Y-100089056D01*
X155348574Y-100086122D01*
X155356762Y-100085044D01*
X155502841Y-100024536D01*
X155628282Y-99928282D01*
X155648523Y-99901904D01*
X155688694Y-99849551D01*
X155724536Y-99802841D01*
X155785044Y-99656762D01*
X155805682Y-99500000D01*
X155785044Y-99343238D01*
X155724536Y-99197159D01*
X155628282Y-99071718D01*
X155502841Y-98975464D01*
X155356762Y-98914956D01*
X155200000Y-98894318D01*
X155043238Y-98914956D01*
X154897159Y-98975464D01*
X154771718Y-99071718D01*
X154675464Y-99197159D01*
X154614956Y-99343238D01*
X154594318Y-99500000D01*
X131856986Y-99500000D01*
X131885044Y-99432262D01*
X131895027Y-99356431D01*
X131923749Y-99291505D01*
X131983014Y-99252413D01*
X132054006Y-99251568D01*
X132096652Y-99272915D01*
X132197159Y-99350036D01*
X132343238Y-99410544D01*
X132351426Y-99411622D01*
X132385501Y-99416108D01*
X132500000Y-99431182D01*
X132508188Y-99430104D01*
X132648574Y-99411622D01*
X132656762Y-99410544D01*
X132802841Y-99350036D01*
X132893474Y-99280491D01*
X132921736Y-99258805D01*
X132928282Y-99253782D01*
X133024536Y-99128341D01*
X133077712Y-98999964D01*
X133081884Y-98989891D01*
X133085044Y-98982262D01*
X133090680Y-98939456D01*
X133104604Y-98833688D01*
X133105682Y-98825500D01*
X133085044Y-98668738D01*
X133024536Y-98522659D01*
X133007149Y-98500000D01*
X151594318Y-98500000D01*
X151614956Y-98656762D01*
X151618116Y-98664391D01*
X151622068Y-98673933D01*
X151675464Y-98802841D01*
X151771718Y-98928282D01*
X151897159Y-99024536D01*
X152043238Y-99085044D01*
X152051426Y-99086122D01*
X152063716Y-99087740D01*
X152200000Y-99105682D01*
X152208188Y-99104604D01*
X152221580Y-99102841D01*
X152336284Y-99087740D01*
X152348574Y-99086122D01*
X152356762Y-99085044D01*
X152502841Y-99024536D01*
X152628282Y-98928282D01*
X152724536Y-98802841D01*
X152777932Y-98673933D01*
X152781884Y-98664391D01*
X152785044Y-98656762D01*
X152805682Y-98500000D01*
X152785044Y-98343238D01*
X152724536Y-98197159D01*
X152646154Y-98095009D01*
X152633305Y-98078264D01*
X152628282Y-98071718D01*
X152502841Y-97975464D01*
X152356762Y-97914956D01*
X152323250Y-97910544D01*
X152208188Y-97895396D01*
X152200000Y-97894318D01*
X152191812Y-97895396D01*
X152076751Y-97910544D01*
X152043238Y-97914956D01*
X151897159Y-97975464D01*
X151771718Y-98071718D01*
X151766695Y-98078264D01*
X151753846Y-98095009D01*
X151675464Y-98197159D01*
X151614956Y-98343238D01*
X151594318Y-98500000D01*
X133007149Y-98500000D01*
X132928282Y-98397218D01*
X132802841Y-98300964D01*
X132656762Y-98240456D01*
X132500000Y-98219818D01*
X132343238Y-98240456D01*
X132197159Y-98300964D01*
X132071718Y-98397218D01*
X131975464Y-98522659D01*
X131914956Y-98668738D01*
X131913878Y-98676926D01*
X131904973Y-98744568D01*
X131876251Y-98809495D01*
X131816986Y-98848587D01*
X131745994Y-98849432D01*
X131703347Y-98828085D01*
X131699978Y-98825500D01*
X131602841Y-98750964D01*
X131456762Y-98690456D01*
X131300000Y-98669818D01*
X131143238Y-98690456D01*
X130997159Y-98750964D01*
X130990608Y-98755991D01*
X130900022Y-98825500D01*
X130871718Y-98847218D01*
X130775464Y-98972659D01*
X130728957Y-99084937D01*
X130720811Y-99104604D01*
X130714956Y-99118738D01*
X130694318Y-99275500D01*
X130299979Y-99275500D01*
X130239755Y-99229289D01*
X130202841Y-99200964D01*
X130056762Y-99140456D01*
X129900000Y-99119818D01*
X129743238Y-99140456D01*
X129597159Y-99200964D01*
X129560245Y-99229289D01*
X129500022Y-99275500D01*
X129471718Y-99297218D01*
X129375464Y-99422659D01*
X129355151Y-99471700D01*
X129318737Y-99559611D01*
X129314956Y-99568738D01*
X129304996Y-99644396D01*
X129304973Y-99644568D01*
X129276251Y-99709495D01*
X129216986Y-99748587D01*
X129145994Y-99749432D01*
X129103347Y-99728085D01*
X129002841Y-99650964D01*
X128889844Y-99604159D01*
X128834563Y-99559611D01*
X128812142Y-99492247D01*
X128829700Y-99423456D01*
X128881662Y-99375078D01*
X128889844Y-99371341D01*
X128925837Y-99356432D01*
X129002841Y-99324536D01*
X129128282Y-99228282D01*
X129224536Y-99102841D01*
X129285044Y-98956762D01*
X129305682Y-98800000D01*
X129292555Y-98700289D01*
X129286122Y-98651426D01*
X129285044Y-98643238D01*
X129224536Y-98497159D01*
X129128282Y-98371718D01*
X129002841Y-98275464D01*
X128856762Y-98214956D01*
X128700000Y-98194318D01*
X128543238Y-98214956D01*
X128397159Y-98275464D01*
X128271718Y-98371718D01*
X128269616Y-98374457D01*
X128209255Y-98407418D01*
X128138440Y-98402353D01*
X128081604Y-98359806D01*
X128056793Y-98293286D01*
X128064077Y-98248334D01*
X128062346Y-98247870D01*
X128064484Y-98239891D01*
X128067644Y-98232262D01*
X128088282Y-98075500D01*
X128067644Y-97918738D01*
X128007136Y-97772659D01*
X127910882Y-97647218D01*
X127785441Y-97550964D01*
X127639362Y-97490456D01*
X127629830Y-97489201D01*
X127490788Y-97470896D01*
X127482600Y-97469818D01*
X127474412Y-97470896D01*
X127335371Y-97489201D01*
X127325838Y-97490456D01*
X127179759Y-97550964D01*
X127054318Y-97647218D01*
X126958064Y-97772659D01*
X126897556Y-97918738D01*
X126876918Y-98075500D01*
X119752237Y-98075500D01*
X119592254Y-98025977D01*
X119586129Y-98025333D01*
X119586128Y-98025333D01*
X119393498Y-98005087D01*
X119393496Y-98005087D01*
X119387369Y-98004443D01*
X119300529Y-98012346D01*
X119188342Y-98022555D01*
X119188339Y-98022556D01*
X119182203Y-98023114D01*
X118984572Y-98081280D01*
X118802002Y-98176726D01*
X118797201Y-98180586D01*
X118797198Y-98180588D01*
X118683126Y-98272304D01*
X118641447Y-98305815D01*
X118509024Y-98463630D01*
X118506056Y-98469028D01*
X118506053Y-98469033D01*
X118414478Y-98635609D01*
X118409776Y-98644162D01*
X118407913Y-98650035D01*
X118353419Y-98821824D01*
X118347484Y-98840532D01*
X118346798Y-98846649D01*
X118346797Y-98846653D01*
X118330731Y-98989891D01*
X118324520Y-99045262D01*
X112326583Y-99045262D01*
X112256514Y-98980491D01*
X112218789Y-98945618D01*
X112218786Y-98945616D01*
X112214549Y-98941699D01*
X112027950Y-98823964D01*
X111823021Y-98742206D01*
X111817361Y-98741080D01*
X111817357Y-98741079D01*
X111612291Y-98700289D01*
X111612288Y-98700289D01*
X111606624Y-98699162D01*
X111600849Y-98699086D01*
X111600845Y-98699086D01*
X111490104Y-98697637D01*
X111386006Y-98696274D01*
X111380309Y-98697253D01*
X111380308Y-98697253D01*
X111174254Y-98732659D01*
X111174253Y-98732659D01*
X111168557Y-98733638D01*
X110961557Y-98810004D01*
X110956596Y-98812956D01*
X110956595Y-98812956D01*
X110778658Y-98918818D01*
X110771941Y-98922814D01*
X110606057Y-99068290D01*
X110469463Y-99241560D01*
X110366731Y-99436820D01*
X110301303Y-99647533D01*
X110275370Y-99866640D01*
X108746194Y-99866640D01*
X108746194Y-95396240D01*
X110275370Y-95396240D01*
X110289800Y-95616404D01*
X110291221Y-95622000D01*
X110291222Y-95622005D01*
X110330383Y-95776200D01*
X110344111Y-95830252D01*
X110346528Y-95835494D01*
X110346528Y-95835495D01*
X110382900Y-95914391D01*
X110436483Y-96030621D01*
X110563822Y-96210802D01*
X110721864Y-96364761D01*
X110726660Y-96367966D01*
X110726663Y-96367968D01*
X110845270Y-96447218D01*
X110905317Y-96487340D01*
X110910620Y-96489618D01*
X110910623Y-96489620D01*
X111088654Y-96566108D01*
X111108036Y-96574435D01*
X111187688Y-96592458D01*
X111317595Y-96621854D01*
X111317601Y-96621855D01*
X111323232Y-96623129D01*
X111329003Y-96623356D01*
X111329005Y-96623356D01*
X111396811Y-96626020D01*
X111543698Y-96631791D01*
X111667793Y-96613798D01*
X111756338Y-96600960D01*
X111756343Y-96600959D01*
X111762052Y-96600131D01*
X111767516Y-96598276D01*
X111767521Y-96598275D01*
X111965507Y-96531068D01*
X111965512Y-96531066D01*
X111970979Y-96529210D01*
X112002771Y-96511406D01*
X112013742Y-96505262D01*
X118324520Y-96505262D01*
X118325036Y-96511406D01*
X118332979Y-96605991D01*
X118341759Y-96710553D01*
X118343458Y-96716478D01*
X118391405Y-96883688D01*
X118398544Y-96908586D01*
X118401359Y-96914063D01*
X118401360Y-96914066D01*
X118489897Y-97086341D01*
X118492712Y-97091818D01*
X118620677Y-97253270D01*
X118625370Y-97257264D01*
X118625371Y-97257265D01*
X118739337Y-97354257D01*
X118777564Y-97386791D01*
X118782942Y-97389797D01*
X118782944Y-97389798D01*
X118863630Y-97434892D01*
X118957398Y-97487297D01*
X119029142Y-97510608D01*
X119147471Y-97549056D01*
X119147475Y-97549057D01*
X119153329Y-97550959D01*
X119357894Y-97575351D01*
X119364029Y-97574879D01*
X119364031Y-97574879D01*
X119420039Y-97570569D01*
X119563300Y-97559546D01*
X119569230Y-97557890D01*
X119569232Y-97557890D01*
X119755797Y-97505800D01*
X119755796Y-97505800D01*
X119761725Y-97504145D01*
X119767214Y-97501372D01*
X119767220Y-97501370D01*
X119911791Y-97428341D01*
X119945610Y-97411258D01*
X119977050Y-97386695D01*
X120055376Y-97325500D01*
X129315318Y-97325500D01*
X129335956Y-97482262D01*
X129396464Y-97628341D01*
X129492718Y-97753782D01*
X129618159Y-97850036D01*
X129764238Y-97910544D01*
X129772426Y-97911622D01*
X129821753Y-97918116D01*
X129921000Y-97931182D01*
X129929188Y-97930104D01*
X130069574Y-97911622D01*
X130077762Y-97910544D01*
X130223841Y-97850036D01*
X130349282Y-97753782D01*
X130445536Y-97628341D01*
X130498102Y-97501436D01*
X130542651Y-97446155D01*
X130610014Y-97423734D01*
X130662729Y-97433245D01*
X130721005Y-97457384D01*
X130721008Y-97457385D01*
X130728635Y-97460544D01*
X130885397Y-97481182D01*
X130893585Y-97480104D01*
X131033971Y-97461622D01*
X131042159Y-97460544D01*
X131188238Y-97400036D01*
X131281594Y-97328402D01*
X131307133Y-97308805D01*
X131313679Y-97303782D01*
X131325626Y-97288213D01*
X131397145Y-97195007D01*
X131409933Y-97178341D01*
X131470441Y-97032262D01*
X131491079Y-96875500D01*
X131470441Y-96718738D01*
X131452531Y-96675500D01*
X146104718Y-96675500D01*
X146105796Y-96683688D01*
X146123892Y-96821138D01*
X146125356Y-96832262D01*
X146185864Y-96978341D01*
X146282118Y-97103782D01*
X146288664Y-97108805D01*
X146314295Y-97128472D01*
X146407559Y-97200036D01*
X146553638Y-97260544D01*
X146710400Y-97281182D01*
X146718588Y-97280104D01*
X146721156Y-97279766D01*
X146867162Y-97260544D01*
X147013241Y-97200036D01*
X147019795Y-97195007D01*
X147029968Y-97187202D01*
X147096189Y-97161604D01*
X147165737Y-97175870D01*
X147216532Y-97225473D01*
X147231591Y-97270721D01*
X147233110Y-97282262D01*
X147293618Y-97428341D01*
X147389872Y-97553782D01*
X147396418Y-97558805D01*
X147426072Y-97581559D01*
X147515313Y-97650036D01*
X147661392Y-97710544D01*
X147818154Y-97731182D01*
X147826342Y-97730104D01*
X147966728Y-97711622D01*
X147974916Y-97710544D01*
X147982543Y-97707385D01*
X147982546Y-97707384D01*
X148055716Y-97677076D01*
X148126306Y-97669487D01*
X148189793Y-97701267D01*
X148220343Y-97745266D01*
X148275464Y-97878341D01*
X148371718Y-98003782D01*
X148378264Y-98008805D01*
X148396912Y-98023114D01*
X148497159Y-98100036D01*
X148643238Y-98160544D01*
X148800000Y-98181182D01*
X148808188Y-98180104D01*
X148948574Y-98161622D01*
X148956762Y-98160544D01*
X149102841Y-98100036D01*
X149203088Y-98023114D01*
X149221736Y-98008805D01*
X149228282Y-98003782D01*
X149324536Y-97878341D01*
X149348702Y-97820000D01*
X164634318Y-97820000D01*
X164654956Y-97976762D01*
X164658116Y-97984391D01*
X164658833Y-97986122D01*
X164715464Y-98122841D01*
X164811718Y-98248282D01*
X164937159Y-98344536D01*
X165083238Y-98405044D01*
X165240000Y-98425682D01*
X165248188Y-98424604D01*
X165388574Y-98406122D01*
X165396762Y-98405044D01*
X165542841Y-98344536D01*
X165668282Y-98248282D01*
X165764536Y-98122841D01*
X165821167Y-97986122D01*
X165821884Y-97984391D01*
X165825044Y-97976762D01*
X165845682Y-97820000D01*
X165825044Y-97663238D01*
X165764536Y-97517159D01*
X165674637Y-97400000D01*
X178394318Y-97400000D01*
X178414956Y-97556762D01*
X178475464Y-97702841D01*
X178571718Y-97828282D01*
X178697159Y-97924536D01*
X178843238Y-97985044D01*
X179000000Y-98005682D01*
X179008188Y-98004604D01*
X179148574Y-97986122D01*
X179156762Y-97985044D01*
X179302841Y-97924536D01*
X179428282Y-97828282D01*
X179524536Y-97702841D01*
X179585044Y-97556762D01*
X179605682Y-97400000D01*
X179585044Y-97243238D01*
X179581614Y-97234956D01*
X179558163Y-97178341D01*
X179524536Y-97097159D01*
X179428282Y-96971718D01*
X179302841Y-96875464D01*
X179156762Y-96814956D01*
X179000000Y-96794318D01*
X178843238Y-96814956D01*
X178697159Y-96875464D01*
X178571718Y-96971718D01*
X178475464Y-97097159D01*
X178441837Y-97178341D01*
X178418387Y-97234956D01*
X178414956Y-97243238D01*
X178394318Y-97400000D01*
X165674637Y-97400000D01*
X165668282Y-97391718D01*
X165542841Y-97295464D01*
X165396762Y-97234956D01*
X165379824Y-97232726D01*
X165248188Y-97215396D01*
X165240000Y-97214318D01*
X165231812Y-97215396D01*
X165100177Y-97232726D01*
X165083238Y-97234956D01*
X164937159Y-97295464D01*
X164811718Y-97391718D01*
X164715464Y-97517159D01*
X164654956Y-97663238D01*
X164634318Y-97820000D01*
X149348702Y-97820000D01*
X149385044Y-97732262D01*
X149405682Y-97575500D01*
X149390132Y-97457384D01*
X149386122Y-97426926D01*
X149385044Y-97418738D01*
X149324536Y-97272659D01*
X149228282Y-97147218D01*
X149199979Y-97125500D01*
X149109392Y-97055991D01*
X149102841Y-97050964D01*
X148956762Y-96990456D01*
X148800000Y-96969818D01*
X148643238Y-96990456D01*
X148635611Y-96993615D01*
X148635608Y-96993616D01*
X148562438Y-97023924D01*
X148491848Y-97031513D01*
X148428361Y-96999733D01*
X148397811Y-96955733D01*
X148373573Y-96897218D01*
X148342690Y-96822659D01*
X148246436Y-96697218D01*
X148218133Y-96675500D01*
X148171081Y-96639396D01*
X148120995Y-96600964D01*
X147974916Y-96540456D01*
X147818154Y-96519818D01*
X147661392Y-96540456D01*
X147515313Y-96600964D01*
X147508762Y-96605991D01*
X147508759Y-96605993D01*
X147498586Y-96613798D01*
X147432365Y-96639396D01*
X147362817Y-96625130D01*
X147312022Y-96575527D01*
X147296963Y-96530279D01*
X147295444Y-96518738D01*
X147289862Y-96505262D01*
X181824520Y-96505262D01*
X181825036Y-96511406D01*
X181832979Y-96605991D01*
X181841759Y-96710553D01*
X181843458Y-96716478D01*
X181891405Y-96883688D01*
X181898544Y-96908586D01*
X181901359Y-96914063D01*
X181901360Y-96914066D01*
X181989897Y-97086341D01*
X181992712Y-97091818D01*
X182120677Y-97253270D01*
X182125370Y-97257264D01*
X182125371Y-97257265D01*
X182239337Y-97354257D01*
X182277564Y-97386791D01*
X182282942Y-97389797D01*
X182282944Y-97389798D01*
X182363630Y-97434892D01*
X182457398Y-97487297D01*
X182529142Y-97510608D01*
X182647471Y-97549056D01*
X182647475Y-97549057D01*
X182653329Y-97550959D01*
X182857894Y-97575351D01*
X182864029Y-97574879D01*
X182864031Y-97574879D01*
X182920039Y-97570569D01*
X183063300Y-97559546D01*
X183069230Y-97557890D01*
X183069232Y-97557890D01*
X183255797Y-97505800D01*
X183255796Y-97505800D01*
X183261725Y-97504145D01*
X183267214Y-97501372D01*
X183267220Y-97501370D01*
X183411791Y-97428341D01*
X183445610Y-97411258D01*
X183477050Y-97386695D01*
X183565856Y-97317312D01*
X183607951Y-97284424D01*
X183616881Y-97274079D01*
X183738540Y-97133134D01*
X183738540Y-97133133D01*
X183742564Y-97128472D01*
X183753737Y-97108805D01*
X183797644Y-97031513D01*
X183844323Y-96949344D01*
X183909351Y-96753863D01*
X183935171Y-96549474D01*
X183935583Y-96520000D01*
X183934979Y-96513840D01*
X186602370Y-96513840D01*
X186616800Y-96734004D01*
X186618221Y-96739600D01*
X186618222Y-96739605D01*
X186662530Y-96914066D01*
X186671111Y-96947852D01*
X186673528Y-96953094D01*
X186673528Y-96953095D01*
X186710025Y-97032262D01*
X186763483Y-97148221D01*
X186890822Y-97328402D01*
X187048864Y-97482361D01*
X187053660Y-97485566D01*
X187053663Y-97485568D01*
X187186943Y-97574622D01*
X187232317Y-97604940D01*
X187237620Y-97607218D01*
X187237623Y-97607220D01*
X187350252Y-97655609D01*
X187435036Y-97692035D01*
X187482792Y-97702841D01*
X187644595Y-97739454D01*
X187644601Y-97739455D01*
X187650232Y-97740729D01*
X187656003Y-97740956D01*
X187656005Y-97740956D01*
X187723811Y-97743620D01*
X187870698Y-97749391D01*
X187996283Y-97731182D01*
X188083338Y-97718560D01*
X188083343Y-97718559D01*
X188089052Y-97717731D01*
X188094516Y-97715876D01*
X188094521Y-97715875D01*
X188292507Y-97648668D01*
X188292512Y-97648666D01*
X188297979Y-97646810D01*
X188490484Y-97539002D01*
X188507574Y-97524789D01*
X188655686Y-97401604D01*
X188660118Y-97397918D01*
X188757950Y-97280289D01*
X188797508Y-97232726D01*
X188797510Y-97232723D01*
X188801202Y-97228284D01*
X188870363Y-97104789D01*
X188906186Y-97040822D01*
X188906187Y-97040820D01*
X188909010Y-97035779D01*
X188910866Y-97030312D01*
X188910868Y-97030307D01*
X188978075Y-96832321D01*
X188978076Y-96832316D01*
X188979931Y-96826852D01*
X188980759Y-96821143D01*
X188980760Y-96821138D01*
X189007111Y-96639396D01*
X189011591Y-96608498D01*
X189013243Y-96545400D01*
X188993054Y-96325689D01*
X188988367Y-96309068D01*
X188942886Y-96147804D01*
X188933165Y-96113336D01*
X188835580Y-95915453D01*
X188728661Y-95772271D01*
X188707020Y-95743291D01*
X188707020Y-95743290D01*
X188703567Y-95738667D01*
X188555101Y-95601426D01*
X188545789Y-95592818D01*
X188545786Y-95592816D01*
X188541549Y-95588899D01*
X188354950Y-95471164D01*
X188150021Y-95389406D01*
X188144361Y-95388280D01*
X188144357Y-95388279D01*
X187939291Y-95347489D01*
X187939288Y-95347489D01*
X187933624Y-95346362D01*
X187927849Y-95346286D01*
X187927845Y-95346286D01*
X187817104Y-95344837D01*
X187713006Y-95343474D01*
X187707309Y-95344453D01*
X187707308Y-95344453D01*
X187501254Y-95379859D01*
X187501253Y-95379859D01*
X187495557Y-95380838D01*
X187288557Y-95457204D01*
X187283596Y-95460156D01*
X187283595Y-95460156D01*
X187140860Y-95545075D01*
X187098941Y-95570014D01*
X186933057Y-95715490D01*
X186796463Y-95888760D01*
X186693731Y-96084020D01*
X186628303Y-96294733D01*
X186602370Y-96513840D01*
X183934979Y-96513840D01*
X183915480Y-96314970D01*
X183855935Y-96117749D01*
X183759218Y-95935849D01*
X183668532Y-95824657D01*
X183632906Y-95780975D01*
X183632903Y-95780972D01*
X183629011Y-95776200D01*
X183611786Y-95761950D01*
X183475025Y-95648811D01*
X183475021Y-95648809D01*
X183470275Y-95644882D01*
X183289055Y-95546897D01*
X183092254Y-95485977D01*
X183086129Y-95485333D01*
X183086128Y-95485333D01*
X182893498Y-95465087D01*
X182893496Y-95465087D01*
X182887369Y-95464443D01*
X182800529Y-95472346D01*
X182688342Y-95482555D01*
X182688339Y-95482556D01*
X182682203Y-95483114D01*
X182484572Y-95541280D01*
X182479107Y-95544137D01*
X182399779Y-95585609D01*
X182302002Y-95636726D01*
X182297201Y-95640586D01*
X182297198Y-95640588D01*
X182156340Y-95753841D01*
X182141447Y-95765815D01*
X182009024Y-95923630D01*
X182006056Y-95929028D01*
X182006053Y-95929033D01*
X181917816Y-96089538D01*
X181909776Y-96104162D01*
X181847484Y-96300532D01*
X181846798Y-96306649D01*
X181846797Y-96306653D01*
X181825207Y-96499137D01*
X181824520Y-96505262D01*
X147289862Y-96505262D01*
X147234936Y-96372659D01*
X147138682Y-96247218D01*
X147013241Y-96150964D01*
X146867162Y-96090456D01*
X146818276Y-96084020D01*
X146718588Y-96070896D01*
X146710400Y-96069818D01*
X146702212Y-96070896D01*
X146602525Y-96084020D01*
X146553638Y-96090456D01*
X146407559Y-96150964D01*
X146282118Y-96247218D01*
X146185864Y-96372659D01*
X146125356Y-96518738D01*
X146104718Y-96675500D01*
X131452531Y-96675500D01*
X131409933Y-96572659D01*
X131313679Y-96447218D01*
X131188238Y-96350964D01*
X131042159Y-96290456D01*
X130885397Y-96269818D01*
X130728635Y-96290456D01*
X130582556Y-96350964D01*
X130457115Y-96447218D01*
X130360861Y-96572659D01*
X130347054Y-96605993D01*
X130308295Y-96699564D01*
X130263746Y-96754845D01*
X130196383Y-96777266D01*
X130143668Y-96767755D01*
X130085392Y-96743616D01*
X130085389Y-96743615D01*
X130077762Y-96740456D01*
X129921000Y-96719818D01*
X129764238Y-96740456D01*
X129618159Y-96800964D01*
X129531692Y-96867312D01*
X129521022Y-96875500D01*
X129492718Y-96897218D01*
X129396464Y-97022659D01*
X129335956Y-97168738D01*
X129315318Y-97325500D01*
X120055376Y-97325500D01*
X120065856Y-97317312D01*
X120107951Y-97284424D01*
X120116881Y-97274079D01*
X120238540Y-97133134D01*
X120238540Y-97133133D01*
X120242564Y-97128472D01*
X120253737Y-97108805D01*
X120297644Y-97031513D01*
X120344323Y-96949344D01*
X120409351Y-96753863D01*
X120435171Y-96549474D01*
X120435583Y-96520000D01*
X120415480Y-96314970D01*
X120355935Y-96117749D01*
X120259218Y-95935849D01*
X120168532Y-95824657D01*
X120132906Y-95780975D01*
X120132903Y-95780972D01*
X120129011Y-95776200D01*
X120111786Y-95761950D01*
X120097341Y-95750000D01*
X134714318Y-95750000D01*
X134734956Y-95906762D01*
X134795464Y-96052841D01*
X134891718Y-96178282D01*
X135017159Y-96274536D01*
X135163238Y-96335044D01*
X135320000Y-96355682D01*
X135328188Y-96354604D01*
X135468574Y-96336122D01*
X135476762Y-96335044D01*
X135622841Y-96274536D01*
X135748282Y-96178282D01*
X135844536Y-96052841D01*
X135905044Y-95906762D01*
X135925682Y-95750000D01*
X135908094Y-95616404D01*
X135906122Y-95601426D01*
X135905044Y-95593238D01*
X135846127Y-95451000D01*
X136394318Y-95451000D01*
X136395396Y-95459188D01*
X136412040Y-95585609D01*
X136414956Y-95607762D01*
X136475464Y-95753841D01*
X136571718Y-95879282D01*
X136578264Y-95884305D01*
X136596860Y-95898574D01*
X136697159Y-95975536D01*
X136843238Y-96036044D01*
X137000000Y-96056682D01*
X137008188Y-96055604D01*
X137148574Y-96037122D01*
X137156762Y-96036044D01*
X137302841Y-95975536D01*
X137403140Y-95898574D01*
X137421736Y-95884305D01*
X137428282Y-95879282D01*
X137524536Y-95753841D01*
X137585044Y-95607762D01*
X137587961Y-95585609D01*
X137604604Y-95459188D01*
X137605682Y-95451000D01*
X144294318Y-95451000D01*
X144295396Y-95459188D01*
X144312040Y-95585609D01*
X144314956Y-95607762D01*
X144375464Y-95753841D01*
X144471718Y-95879282D01*
X144478264Y-95884305D01*
X144496860Y-95898574D01*
X144597159Y-95975536D01*
X144743238Y-96036044D01*
X144900000Y-96056682D01*
X144908188Y-96055604D01*
X145048574Y-96037122D01*
X145056762Y-96036044D01*
X145202841Y-95975536D01*
X145303140Y-95898574D01*
X145321736Y-95884305D01*
X145328282Y-95879282D01*
X145424536Y-95753841D01*
X145485044Y-95607762D01*
X145487961Y-95585609D01*
X145504604Y-95459188D01*
X145505682Y-95451000D01*
X145505616Y-95450500D01*
X178394318Y-95450500D01*
X178414956Y-95607262D01*
X178475464Y-95753341D01*
X178571718Y-95878782D01*
X178578264Y-95883805D01*
X178607918Y-95906559D01*
X178697159Y-95975036D01*
X178843238Y-96035544D01*
X179000000Y-96056182D01*
X179008188Y-96055104D01*
X179025378Y-96052841D01*
X179156762Y-96035544D01*
X179302841Y-95975036D01*
X179392082Y-95906559D01*
X179421736Y-95883805D01*
X179428282Y-95878782D01*
X179524536Y-95753341D01*
X179585044Y-95607262D01*
X179605682Y-95450500D01*
X179585044Y-95293738D01*
X179524536Y-95147659D01*
X179428282Y-95022218D01*
X179302841Y-94925964D01*
X179170769Y-94871258D01*
X179164391Y-94868616D01*
X179156762Y-94865456D01*
X179000000Y-94844818D01*
X178843238Y-94865456D01*
X178835609Y-94868616D01*
X178829231Y-94871258D01*
X178697159Y-94925964D01*
X178571718Y-95022218D01*
X178475464Y-95147659D01*
X178414956Y-95293738D01*
X178394318Y-95450500D01*
X145505616Y-95450500D01*
X145485044Y-95294238D01*
X145424536Y-95148159D01*
X145337976Y-95035351D01*
X145333305Y-95029264D01*
X145328282Y-95022718D01*
X145202841Y-94926464D01*
X145056762Y-94865956D01*
X144900000Y-94845318D01*
X144743238Y-94865956D01*
X144597159Y-94926464D01*
X144471718Y-95022718D01*
X144466695Y-95029264D01*
X144462024Y-95035351D01*
X144375464Y-95148159D01*
X144314956Y-95294238D01*
X144294318Y-95451000D01*
X137605682Y-95451000D01*
X137604604Y-95442809D01*
X137601048Y-95415795D01*
X137611988Y-95345647D01*
X137659117Y-95292549D01*
X137727471Y-95273360D01*
X137774189Y-95282943D01*
X137835605Y-95308383D01*
X137835610Y-95308384D01*
X137843238Y-95311544D01*
X138000000Y-95332182D01*
X138008188Y-95331104D01*
X138148574Y-95312622D01*
X138156762Y-95311544D01*
X138302841Y-95251036D01*
X138399154Y-95177133D01*
X138421736Y-95159805D01*
X138428282Y-95154782D01*
X138524536Y-95029341D01*
X138585044Y-94883262D01*
X138605682Y-94726500D01*
X140394318Y-94726500D01*
X140414956Y-94883262D01*
X140475464Y-95029341D01*
X140571718Y-95154782D01*
X140578264Y-95159805D01*
X140600846Y-95177133D01*
X140697159Y-95251036D01*
X140843238Y-95311544D01*
X141000000Y-95332182D01*
X141008188Y-95331104D01*
X141148574Y-95312622D01*
X141156762Y-95311544D01*
X141302841Y-95251036D01*
X141399154Y-95177133D01*
X141421736Y-95159805D01*
X141428282Y-95154782D01*
X141524536Y-95029341D01*
X141585044Y-94883262D01*
X141605682Y-94726500D01*
X141585044Y-94569738D01*
X141524536Y-94423659D01*
X141428282Y-94298218D01*
X141302841Y-94201964D01*
X141156762Y-94141456D01*
X141121108Y-94136762D01*
X141008188Y-94121896D01*
X141000000Y-94120818D01*
X140991812Y-94121896D01*
X140878893Y-94136762D01*
X140843238Y-94141456D01*
X140697159Y-94201964D01*
X140571718Y-94298218D01*
X140475464Y-94423659D01*
X140414956Y-94569738D01*
X140394318Y-94726500D01*
X138605682Y-94726500D01*
X138585044Y-94569738D01*
X138524536Y-94423659D01*
X138428282Y-94298218D01*
X138302841Y-94201964D01*
X138156762Y-94141456D01*
X138121108Y-94136762D01*
X138008188Y-94121896D01*
X138000000Y-94120818D01*
X137991812Y-94121896D01*
X137878893Y-94136762D01*
X137843238Y-94141456D01*
X137771122Y-94171327D01*
X137700535Y-94178916D01*
X137637048Y-94147137D01*
X137600820Y-94086079D01*
X137597984Y-94038472D01*
X137601774Y-94009688D01*
X137603049Y-94000000D01*
X143094318Y-94000000D01*
X143114956Y-94156762D01*
X143175464Y-94302841D01*
X143180491Y-94309392D01*
X143261302Y-94414707D01*
X143271718Y-94428282D01*
X143397159Y-94524536D01*
X143543238Y-94585044D01*
X143551426Y-94586122D01*
X143562820Y-94587622D01*
X143700000Y-94605682D01*
X143708188Y-94604604D01*
X143848574Y-94586122D01*
X143856762Y-94585044D01*
X144002841Y-94524536D01*
X144128282Y-94428282D01*
X144138699Y-94414707D01*
X144219509Y-94309392D01*
X144224536Y-94302841D01*
X144285044Y-94156762D01*
X144305485Y-94001500D01*
X151954318Y-94001500D01*
X151955396Y-94009688D01*
X151971048Y-94128574D01*
X151974956Y-94158262D01*
X152035464Y-94304341D01*
X152040491Y-94310892D01*
X152115221Y-94408282D01*
X152131718Y-94429782D01*
X152257159Y-94526036D01*
X152403238Y-94586544D01*
X152411426Y-94587622D01*
X152453294Y-94593134D01*
X152560000Y-94607182D01*
X152568188Y-94606104D01*
X152571394Y-94605682D01*
X152666706Y-94593134D01*
X152708574Y-94587622D01*
X152716762Y-94586544D01*
X152862841Y-94526036D01*
X152988282Y-94429782D01*
X153004780Y-94408282D01*
X153079509Y-94310892D01*
X153084536Y-94304341D01*
X153145044Y-94158262D01*
X153148953Y-94128574D01*
X153164604Y-94009688D01*
X153165682Y-94001500D01*
X153145044Y-93844738D01*
X153118229Y-93780000D01*
X168334318Y-93780000D01*
X168354956Y-93936762D01*
X168415464Y-94082841D01*
X168511718Y-94208282D01*
X168637159Y-94304536D01*
X168783238Y-94365044D01*
X168940000Y-94385682D01*
X168948188Y-94384604D01*
X169088574Y-94366122D01*
X169096762Y-94365044D01*
X169242841Y-94304536D01*
X169368282Y-94208282D01*
X169464536Y-94082841D01*
X169498850Y-94000000D01*
X174694318Y-94000000D01*
X174714956Y-94156762D01*
X174775464Y-94302841D01*
X174780491Y-94309392D01*
X174861302Y-94414707D01*
X174871718Y-94428282D01*
X174997159Y-94524536D01*
X175143238Y-94585044D01*
X175151426Y-94586122D01*
X175162820Y-94587622D01*
X175300000Y-94605682D01*
X175308188Y-94604604D01*
X175448574Y-94586122D01*
X175456762Y-94585044D01*
X175602841Y-94524536D01*
X175728282Y-94428282D01*
X175738699Y-94414707D01*
X175819509Y-94309392D01*
X175824536Y-94302841D01*
X175885044Y-94156762D01*
X175905682Y-94000000D01*
X175901109Y-93965262D01*
X181824520Y-93965262D01*
X181826875Y-93993312D01*
X181841242Y-94164391D01*
X181841759Y-94170553D01*
X181843458Y-94176478D01*
X181894237Y-94353564D01*
X181898544Y-94368586D01*
X181901359Y-94374063D01*
X181901360Y-94374066D01*
X181989897Y-94546341D01*
X181992712Y-94551818D01*
X182120677Y-94713270D01*
X182125370Y-94717264D01*
X182125371Y-94717265D01*
X182226150Y-94803034D01*
X182277564Y-94846791D01*
X182282942Y-94849797D01*
X182282944Y-94849798D01*
X182363031Y-94894557D01*
X182457398Y-94947297D01*
X182533235Y-94971938D01*
X182647471Y-95009056D01*
X182647475Y-95009057D01*
X182653329Y-95010959D01*
X182857894Y-95035351D01*
X182864029Y-95034879D01*
X182864031Y-95034879D01*
X182920039Y-95030569D01*
X183063300Y-95019546D01*
X183069230Y-95017890D01*
X183069232Y-95017890D01*
X183233813Y-94971938D01*
X183261725Y-94964145D01*
X183267214Y-94961372D01*
X183267220Y-94961370D01*
X183421846Y-94883262D01*
X183445610Y-94871258D01*
X183452397Y-94865956D01*
X183603101Y-94748213D01*
X183607951Y-94744424D01*
X183616353Y-94734691D01*
X183738540Y-94593134D01*
X183738540Y-94593133D01*
X183742564Y-94588472D01*
X183753207Y-94569738D01*
X183806901Y-94475218D01*
X183844323Y-94409344D01*
X183909351Y-94213863D01*
X183935171Y-94009474D01*
X183935583Y-93980000D01*
X183915480Y-93774970D01*
X183855935Y-93577749D01*
X183759218Y-93395849D01*
X183676422Y-93294331D01*
X183632906Y-93240975D01*
X183632903Y-93240972D01*
X183629011Y-93236200D01*
X183611786Y-93221950D01*
X183475025Y-93108811D01*
X183475021Y-93108809D01*
X183470275Y-93104882D01*
X183289055Y-93006897D01*
X183092254Y-92945977D01*
X183086129Y-92945333D01*
X183086128Y-92945333D01*
X182893498Y-92925087D01*
X182893496Y-92925087D01*
X182887369Y-92924443D01*
X182800529Y-92932346D01*
X182688342Y-92942555D01*
X182688339Y-92942556D01*
X182682203Y-92943114D01*
X182484572Y-93001280D01*
X182302002Y-93096726D01*
X182297201Y-93100586D01*
X182297198Y-93100588D01*
X182204156Y-93175396D01*
X182141447Y-93225815D01*
X182009024Y-93383630D01*
X182006056Y-93389028D01*
X182006053Y-93389033D01*
X181916617Y-93551718D01*
X181909776Y-93564162D01*
X181847484Y-93760532D01*
X181846798Y-93766649D01*
X181846797Y-93766653D01*
X181837120Y-93852926D01*
X181824520Y-93965262D01*
X175901109Y-93965262D01*
X175885044Y-93843238D01*
X175824536Y-93697159D01*
X175728282Y-93571718D01*
X175602841Y-93475464D01*
X175456762Y-93414956D01*
X175300000Y-93394318D01*
X175143238Y-93414956D01*
X174997159Y-93475464D01*
X174871718Y-93571718D01*
X174775464Y-93697159D01*
X174714956Y-93843238D01*
X174694318Y-94000000D01*
X169498850Y-94000000D01*
X169525044Y-93936762D01*
X169545682Y-93780000D01*
X169525044Y-93623238D01*
X169464536Y-93477159D01*
X169368282Y-93351718D01*
X169242841Y-93255464D01*
X169096762Y-93194956D01*
X169078867Y-93192600D01*
X168948188Y-93175396D01*
X168940000Y-93174318D01*
X168931812Y-93175396D01*
X168801134Y-93192600D01*
X168783238Y-93194956D01*
X168637159Y-93255464D01*
X168511718Y-93351718D01*
X168415464Y-93477159D01*
X168354956Y-93623238D01*
X168334318Y-93780000D01*
X153118229Y-93780000D01*
X153084536Y-93698659D01*
X152988282Y-93573218D01*
X152969447Y-93558765D01*
X152895458Y-93501992D01*
X152862841Y-93476964D01*
X152716762Y-93416456D01*
X152705369Y-93414956D01*
X152577455Y-93398116D01*
X152560000Y-93395818D01*
X152542545Y-93398116D01*
X152414632Y-93414956D01*
X152403238Y-93416456D01*
X152257159Y-93476964D01*
X152224542Y-93501992D01*
X152150554Y-93558765D01*
X152131718Y-93573218D01*
X152035464Y-93698659D01*
X151974956Y-93844738D01*
X151954318Y-94001500D01*
X144305485Y-94001500D01*
X144305682Y-94000000D01*
X144285044Y-93843238D01*
X144224536Y-93697159D01*
X144128282Y-93571718D01*
X144002841Y-93475464D01*
X143856762Y-93414956D01*
X143700000Y-93394318D01*
X143543238Y-93414956D01*
X143397159Y-93475464D01*
X143271718Y-93571718D01*
X143175464Y-93697159D01*
X143114956Y-93843238D01*
X143094318Y-94000000D01*
X137603049Y-94000000D01*
X137605682Y-93980000D01*
X137592289Y-93878269D01*
X137603228Y-93808120D01*
X137650357Y-93755022D01*
X137718711Y-93735832D01*
X137765426Y-93745413D01*
X137843238Y-93777644D01*
X137851426Y-93778722D01*
X137869512Y-93781103D01*
X138000000Y-93798282D01*
X138008188Y-93797204D01*
X138148574Y-93778722D01*
X138156762Y-93777644D01*
X138302841Y-93717136D01*
X138428282Y-93620882D01*
X138524536Y-93495441D01*
X138585044Y-93349362D01*
X138605682Y-93192600D01*
X138585044Y-93035838D01*
X138524536Y-92889759D01*
X138428282Y-92764318D01*
X138302841Y-92668064D01*
X138156762Y-92607556D01*
X138000000Y-92586918D01*
X137843238Y-92607556D01*
X137697159Y-92668064D01*
X137571718Y-92764318D01*
X137475464Y-92889759D01*
X137414956Y-93035838D01*
X137394318Y-93192600D01*
X137395396Y-93200788D01*
X137407711Y-93294331D01*
X137396772Y-93364480D01*
X137349643Y-93417578D01*
X137281289Y-93436768D01*
X137234574Y-93427187D01*
X137156762Y-93394956D01*
X137000000Y-93374318D01*
X136843238Y-93394956D01*
X136697159Y-93455464D01*
X136645060Y-93495441D01*
X136589948Y-93537730D01*
X136571718Y-93551718D01*
X136566695Y-93558264D01*
X136553773Y-93575105D01*
X136475464Y-93677159D01*
X136414956Y-93823238D01*
X136413878Y-93831426D01*
X136407711Y-93878269D01*
X136394318Y-93980000D01*
X136414956Y-94136762D01*
X136475464Y-94282841D01*
X136571718Y-94408282D01*
X136697159Y-94504536D01*
X136843238Y-94565044D01*
X136851426Y-94566122D01*
X136921619Y-94575363D01*
X137000000Y-94585682D01*
X137008188Y-94584604D01*
X137148574Y-94566122D01*
X137156762Y-94565044D01*
X137228878Y-94535173D01*
X137299465Y-94527584D01*
X137362952Y-94559363D01*
X137399180Y-94620421D01*
X137402016Y-94668028D01*
X137394318Y-94726500D01*
X137395396Y-94734688D01*
X137395396Y-94734691D01*
X137398952Y-94761705D01*
X137388012Y-94831853D01*
X137340883Y-94884951D01*
X137272529Y-94904140D01*
X137225811Y-94894557D01*
X137164395Y-94869117D01*
X137164390Y-94869116D01*
X137156762Y-94865956D01*
X137000000Y-94845318D01*
X136843238Y-94865956D01*
X136697159Y-94926464D01*
X136571718Y-95022718D01*
X136566695Y-95029264D01*
X136562024Y-95035351D01*
X136475464Y-95148159D01*
X136414956Y-95294238D01*
X136394318Y-95451000D01*
X135846127Y-95451000D01*
X135844536Y-95447159D01*
X135748282Y-95321718D01*
X135730904Y-95308383D01*
X135629392Y-95230491D01*
X135622841Y-95225464D01*
X135476762Y-95164956D01*
X135320000Y-95144318D01*
X135163238Y-95164956D01*
X135017159Y-95225464D01*
X135010608Y-95230491D01*
X134909097Y-95308383D01*
X134891718Y-95321718D01*
X134795464Y-95447159D01*
X134734956Y-95593238D01*
X134733878Y-95601426D01*
X134731906Y-95616404D01*
X134714318Y-95750000D01*
X120097341Y-95750000D01*
X119975025Y-95648811D01*
X119975021Y-95648809D01*
X119970275Y-95644882D01*
X119789055Y-95546897D01*
X119592254Y-95485977D01*
X119586129Y-95485333D01*
X119586128Y-95485333D01*
X119393498Y-95465087D01*
X119393496Y-95465087D01*
X119387369Y-95464443D01*
X119300529Y-95472346D01*
X119188342Y-95482555D01*
X119188339Y-95482556D01*
X119182203Y-95483114D01*
X118984572Y-95541280D01*
X118979107Y-95544137D01*
X118899779Y-95585609D01*
X118802002Y-95636726D01*
X118797201Y-95640586D01*
X118797198Y-95640588D01*
X118656340Y-95753841D01*
X118641447Y-95765815D01*
X118509024Y-95923630D01*
X118506056Y-95929028D01*
X118506053Y-95929033D01*
X118417816Y-96089538D01*
X118409776Y-96104162D01*
X118347484Y-96300532D01*
X118346798Y-96306649D01*
X118346797Y-96306653D01*
X118325207Y-96499137D01*
X118324520Y-96505262D01*
X112013742Y-96505262D01*
X112051475Y-96484130D01*
X112163484Y-96421402D01*
X112229968Y-96366108D01*
X112328686Y-96284004D01*
X112333118Y-96280318D01*
X112394856Y-96206087D01*
X112470508Y-96115126D01*
X112470510Y-96115123D01*
X112474202Y-96110684D01*
X112569067Y-95941290D01*
X112579186Y-95923222D01*
X112579187Y-95923220D01*
X112582010Y-95918179D01*
X112583866Y-95912712D01*
X112583868Y-95912707D01*
X112651075Y-95714721D01*
X112651076Y-95714716D01*
X112652931Y-95709252D01*
X112653759Y-95703543D01*
X112653760Y-95703538D01*
X112684058Y-95494572D01*
X112684591Y-95490898D01*
X112686243Y-95427800D01*
X112666054Y-95208089D01*
X112653890Y-95164956D01*
X112615480Y-95028764D01*
X112606165Y-94995736D01*
X112508580Y-94797853D01*
X112468683Y-94744424D01*
X112380020Y-94625691D01*
X112380020Y-94625690D01*
X112376567Y-94621067D01*
X112250505Y-94504536D01*
X112218789Y-94475218D01*
X112218786Y-94475216D01*
X112214549Y-94471299D01*
X112027950Y-94353564D01*
X111823021Y-94271806D01*
X111817361Y-94270680D01*
X111817357Y-94270679D01*
X111612291Y-94229889D01*
X111612288Y-94229889D01*
X111606624Y-94228762D01*
X111600849Y-94228686D01*
X111600845Y-94228686D01*
X111490104Y-94227237D01*
X111386006Y-94225874D01*
X111380309Y-94226853D01*
X111380308Y-94226853D01*
X111174254Y-94262259D01*
X111174253Y-94262259D01*
X111168557Y-94263238D01*
X110961557Y-94339604D01*
X110956596Y-94342556D01*
X110956595Y-94342556D01*
X110820274Y-94423659D01*
X110771941Y-94452414D01*
X110606057Y-94597890D01*
X110469463Y-94771160D01*
X110366731Y-94966420D01*
X110301303Y-95177133D01*
X110275370Y-95396240D01*
X108746194Y-95396240D01*
X108746194Y-93965262D01*
X118324520Y-93965262D01*
X118326875Y-93993312D01*
X118341242Y-94164391D01*
X118341759Y-94170553D01*
X118343458Y-94176478D01*
X118394237Y-94353564D01*
X118398544Y-94368586D01*
X118401359Y-94374063D01*
X118401360Y-94374066D01*
X118489897Y-94546341D01*
X118492712Y-94551818D01*
X118620677Y-94713270D01*
X118625370Y-94717264D01*
X118625371Y-94717265D01*
X118726150Y-94803034D01*
X118777564Y-94846791D01*
X118782942Y-94849797D01*
X118782944Y-94849798D01*
X118863031Y-94894557D01*
X118957398Y-94947297D01*
X119033235Y-94971938D01*
X119147471Y-95009056D01*
X119147475Y-95009057D01*
X119153329Y-95010959D01*
X119357894Y-95035351D01*
X119364029Y-95034879D01*
X119364031Y-95034879D01*
X119420039Y-95030569D01*
X119563300Y-95019546D01*
X119569230Y-95017890D01*
X119569232Y-95017890D01*
X119733813Y-94971938D01*
X119761725Y-94964145D01*
X119767214Y-94961372D01*
X119767220Y-94961370D01*
X119921846Y-94883262D01*
X119945610Y-94871258D01*
X119952397Y-94865956D01*
X120103101Y-94748213D01*
X120107951Y-94744424D01*
X120116353Y-94734691D01*
X120238540Y-94593134D01*
X120238540Y-94593133D01*
X120242564Y-94588472D01*
X120253207Y-94569738D01*
X120306901Y-94475218D01*
X120344323Y-94409344D01*
X120409351Y-94213863D01*
X120435171Y-94009474D01*
X120435583Y-93980000D01*
X122394318Y-93980000D01*
X122414956Y-94136762D01*
X122475464Y-94282841D01*
X122571718Y-94408282D01*
X122697159Y-94504536D01*
X122843238Y-94565044D01*
X122851426Y-94566122D01*
X122921619Y-94575363D01*
X123000000Y-94585682D01*
X123008188Y-94584604D01*
X123148574Y-94566122D01*
X123156762Y-94565044D01*
X123302841Y-94504536D01*
X123428282Y-94408282D01*
X123524536Y-94282841D01*
X123585044Y-94136762D01*
X123605682Y-93980000D01*
X124294318Y-93980000D01*
X124314956Y-94136762D01*
X124375464Y-94282841D01*
X124471718Y-94408282D01*
X124597159Y-94504536D01*
X124743238Y-94565044D01*
X124751426Y-94566122D01*
X124821619Y-94575363D01*
X124900000Y-94585682D01*
X124908188Y-94584604D01*
X125048574Y-94566122D01*
X125056762Y-94565044D01*
X125202841Y-94504536D01*
X125328282Y-94408282D01*
X125424536Y-94282841D01*
X125485044Y-94136762D01*
X125505682Y-93980000D01*
X125492289Y-93878269D01*
X125486122Y-93831426D01*
X125485044Y-93823238D01*
X125424536Y-93677159D01*
X125346227Y-93575105D01*
X125333305Y-93558264D01*
X125328282Y-93551718D01*
X125310053Y-93537730D01*
X125254940Y-93495441D01*
X125202841Y-93455464D01*
X125056762Y-93394956D01*
X124900000Y-93374318D01*
X124743238Y-93394956D01*
X124597159Y-93455464D01*
X124545060Y-93495441D01*
X124489948Y-93537730D01*
X124471718Y-93551718D01*
X124466695Y-93558264D01*
X124453773Y-93575105D01*
X124375464Y-93677159D01*
X124314956Y-93823238D01*
X124313878Y-93831426D01*
X124307711Y-93878269D01*
X124294318Y-93980000D01*
X123605682Y-93980000D01*
X123592289Y-93878269D01*
X123586122Y-93831426D01*
X123585044Y-93823238D01*
X123524536Y-93677159D01*
X123446227Y-93575105D01*
X123433305Y-93558264D01*
X123428282Y-93551718D01*
X123410053Y-93537730D01*
X123354940Y-93495441D01*
X123302841Y-93455464D01*
X123156762Y-93394956D01*
X123000000Y-93374318D01*
X122843238Y-93394956D01*
X122697159Y-93455464D01*
X122645060Y-93495441D01*
X122589948Y-93537730D01*
X122571718Y-93551718D01*
X122566695Y-93558264D01*
X122553773Y-93575105D01*
X122475464Y-93677159D01*
X122414956Y-93823238D01*
X122413878Y-93831426D01*
X122407711Y-93878269D01*
X122394318Y-93980000D01*
X120435583Y-93980000D01*
X120415480Y-93774970D01*
X120355935Y-93577749D01*
X120259218Y-93395849D01*
X120176422Y-93294331D01*
X120132906Y-93240975D01*
X120132903Y-93240972D01*
X120129011Y-93236200D01*
X120111786Y-93221950D01*
X120014902Y-93141800D01*
X131931518Y-93141800D01*
X131952156Y-93298562D01*
X132012664Y-93444641D01*
X132051644Y-93495441D01*
X132084094Y-93537730D01*
X132108918Y-93570082D01*
X132234359Y-93666336D01*
X132380438Y-93726844D01*
X132537200Y-93747482D01*
X132545388Y-93746404D01*
X132685774Y-93727922D01*
X132693962Y-93726844D01*
X132840041Y-93666336D01*
X132965482Y-93570082D01*
X132990307Y-93537730D01*
X133022756Y-93495441D01*
X133061736Y-93444641D01*
X133122244Y-93298562D01*
X133142882Y-93141800D01*
X133122244Y-92985038D01*
X133061736Y-92838959D01*
X132965482Y-92713518D01*
X132840041Y-92617264D01*
X132693962Y-92556756D01*
X132537200Y-92536118D01*
X132380438Y-92556756D01*
X132234359Y-92617264D01*
X132108918Y-92713518D01*
X132012664Y-92838959D01*
X131952156Y-92985038D01*
X131931518Y-93141800D01*
X120014902Y-93141800D01*
X119975025Y-93108811D01*
X119975021Y-93108809D01*
X119970275Y-93104882D01*
X119789055Y-93006897D01*
X119592254Y-92945977D01*
X119586129Y-92945333D01*
X119586128Y-92945333D01*
X119393498Y-92925087D01*
X119393496Y-92925087D01*
X119387369Y-92924443D01*
X119300529Y-92932346D01*
X119188342Y-92942555D01*
X119188339Y-92942556D01*
X119182203Y-92943114D01*
X118984572Y-93001280D01*
X118802002Y-93096726D01*
X118797201Y-93100586D01*
X118797198Y-93100588D01*
X118704156Y-93175396D01*
X118641447Y-93225815D01*
X118509024Y-93383630D01*
X118506056Y-93389028D01*
X118506053Y-93389033D01*
X118416617Y-93551718D01*
X118409776Y-93564162D01*
X118347484Y-93760532D01*
X118346798Y-93766649D01*
X118346797Y-93766653D01*
X118337120Y-93852926D01*
X118324520Y-93965262D01*
X108746194Y-93965262D01*
X108746194Y-90378440D01*
X110394770Y-90378440D01*
X110409200Y-90598604D01*
X110410621Y-90604200D01*
X110410622Y-90604205D01*
X110455748Y-90781884D01*
X110463511Y-90812452D01*
X110465928Y-90817694D01*
X110465928Y-90817695D01*
X110504046Y-90900379D01*
X110555883Y-91012821D01*
X110683222Y-91193002D01*
X110841264Y-91346961D01*
X110846060Y-91350166D01*
X110846063Y-91350168D01*
X110949283Y-91419137D01*
X111024717Y-91469540D01*
X111030020Y-91471818D01*
X111030023Y-91471820D01*
X111138772Y-91518542D01*
X111227436Y-91556635D01*
X111296683Y-91572304D01*
X111436995Y-91604054D01*
X111437001Y-91604055D01*
X111442632Y-91605329D01*
X111448403Y-91605556D01*
X111448405Y-91605556D01*
X111516211Y-91608220D01*
X111663098Y-91613991D01*
X111772275Y-91598161D01*
X111875738Y-91583160D01*
X111875743Y-91583159D01*
X111881452Y-91582331D01*
X111886916Y-91580476D01*
X111886921Y-91580475D01*
X112084907Y-91513268D01*
X112084912Y-91513266D01*
X112090379Y-91511410D01*
X112100015Y-91506014D01*
X112171555Y-91465949D01*
X112244207Y-91425262D01*
X118324520Y-91425262D01*
X118325036Y-91431406D01*
X118340299Y-91613162D01*
X118341759Y-91630553D01*
X118343458Y-91636478D01*
X118360274Y-91695121D01*
X118398544Y-91828586D01*
X118401359Y-91834063D01*
X118401360Y-91834066D01*
X118422247Y-91874707D01*
X118492712Y-92011818D01*
X118620677Y-92173270D01*
X118625370Y-92177264D01*
X118625371Y-92177265D01*
X118731334Y-92267446D01*
X118777564Y-92306791D01*
X118957398Y-92407297D01*
X119052238Y-92438113D01*
X119147471Y-92469056D01*
X119147475Y-92469057D01*
X119153329Y-92470959D01*
X119357894Y-92495351D01*
X119364029Y-92494879D01*
X119364031Y-92494879D01*
X119420039Y-92490569D01*
X119563300Y-92479546D01*
X119569230Y-92477890D01*
X119569232Y-92477890D01*
X119755797Y-92425800D01*
X119755796Y-92425800D01*
X119761725Y-92424145D01*
X119767214Y-92421372D01*
X119767220Y-92421370D01*
X119940116Y-92334033D01*
X119945610Y-92331258D01*
X120107951Y-92204424D01*
X120198087Y-92100000D01*
X163518818Y-92100000D01*
X163519896Y-92108188D01*
X163536785Y-92236470D01*
X163539456Y-92256762D01*
X163599964Y-92402841D01*
X163696218Y-92528282D01*
X163821659Y-92624536D01*
X163967738Y-92685044D01*
X164124500Y-92705682D01*
X164132688Y-92704604D01*
X164273074Y-92686122D01*
X164281262Y-92685044D01*
X164427341Y-92624536D01*
X164552782Y-92528282D01*
X164649036Y-92402841D01*
X164709544Y-92256762D01*
X164712216Y-92236470D01*
X164729104Y-92108188D01*
X164730182Y-92100000D01*
X164709544Y-91943238D01*
X164649036Y-91797159D01*
X164552782Y-91671718D01*
X164427341Y-91575464D01*
X164281262Y-91514956D01*
X164268441Y-91513268D01*
X164132688Y-91495396D01*
X164124500Y-91494318D01*
X164116312Y-91495396D01*
X163980560Y-91513268D01*
X163967738Y-91514956D01*
X163821659Y-91575464D01*
X163696218Y-91671718D01*
X163599964Y-91797159D01*
X163539456Y-91943238D01*
X163518818Y-92100000D01*
X120198087Y-92100000D01*
X120242564Y-92048472D01*
X120255593Y-92025538D01*
X120341276Y-91874707D01*
X120344323Y-91869344D01*
X120409351Y-91673863D01*
X120435171Y-91469474D01*
X120435583Y-91440000D01*
X120415480Y-91234970D01*
X120355935Y-91037749D01*
X120259218Y-90855849D01*
X120154699Y-90727696D01*
X120132906Y-90700975D01*
X120132903Y-90700972D01*
X120129011Y-90696200D01*
X120122173Y-90690543D01*
X119975025Y-90568811D01*
X119975021Y-90568809D01*
X119970275Y-90564882D01*
X119815097Y-90480978D01*
X119794474Y-90469827D01*
X119789055Y-90466897D01*
X119592254Y-90405977D01*
X119586129Y-90405333D01*
X119586128Y-90405333D01*
X119393498Y-90385087D01*
X119393496Y-90385087D01*
X119387369Y-90384443D01*
X119300529Y-90392346D01*
X119188342Y-90402555D01*
X119188339Y-90402556D01*
X119182203Y-90403114D01*
X118984572Y-90461280D01*
X118802002Y-90556726D01*
X118797201Y-90560586D01*
X118797198Y-90560588D01*
X118703891Y-90635609D01*
X118641447Y-90685815D01*
X118509024Y-90843630D01*
X118506056Y-90849028D01*
X118506053Y-90849033D01*
X118446829Y-90956762D01*
X118409776Y-91024162D01*
X118347484Y-91220532D01*
X118346798Y-91226649D01*
X118346797Y-91226653D01*
X118326837Y-91404604D01*
X118324520Y-91425262D01*
X112244207Y-91425262D01*
X112282884Y-91403602D01*
X112295387Y-91393204D01*
X112448086Y-91266204D01*
X112452518Y-91262518D01*
X112514256Y-91188287D01*
X112589908Y-91097326D01*
X112589910Y-91097323D01*
X112593602Y-91092884D01*
X112669834Y-90956762D01*
X112698586Y-90905422D01*
X112698587Y-90905420D01*
X112701410Y-90900379D01*
X112703266Y-90894912D01*
X112703268Y-90894907D01*
X112770475Y-90696921D01*
X112770476Y-90696916D01*
X112772331Y-90691452D01*
X112773159Y-90685743D01*
X112773160Y-90685738D01*
X112796939Y-90521736D01*
X112803991Y-90473098D01*
X112805643Y-90410000D01*
X112785454Y-90190289D01*
X112725565Y-89977936D01*
X112627980Y-89780053D01*
X112614045Y-89761391D01*
X112499420Y-89607891D01*
X112499420Y-89607890D01*
X112495967Y-89603267D01*
X112378107Y-89494318D01*
X112338189Y-89457418D01*
X112338186Y-89457416D01*
X112333949Y-89453499D01*
X112147350Y-89335764D01*
X111942421Y-89254006D01*
X111936761Y-89252880D01*
X111936757Y-89252879D01*
X111731691Y-89212089D01*
X111731688Y-89212089D01*
X111726024Y-89210962D01*
X111720249Y-89210886D01*
X111720245Y-89210886D01*
X111609504Y-89209437D01*
X111505406Y-89208074D01*
X111499709Y-89209053D01*
X111499708Y-89209053D01*
X111293654Y-89244459D01*
X111293653Y-89244459D01*
X111287957Y-89245438D01*
X111080957Y-89321804D01*
X111075996Y-89324756D01*
X111075995Y-89324756D01*
X110908281Y-89424536D01*
X110891341Y-89434614D01*
X110725457Y-89580090D01*
X110588863Y-89753360D01*
X110486131Y-89948620D01*
X110420703Y-90159333D01*
X110394770Y-90378440D01*
X108746194Y-90378440D01*
X108746194Y-88885262D01*
X118324520Y-88885262D01*
X118325036Y-88891406D01*
X118337887Y-89044439D01*
X118341759Y-89090553D01*
X118343458Y-89096478D01*
X118386172Y-89245438D01*
X118398544Y-89288586D01*
X118401359Y-89294063D01*
X118401360Y-89294066D01*
X118489897Y-89466341D01*
X118492712Y-89471818D01*
X118620677Y-89633270D01*
X118625370Y-89637264D01*
X118625371Y-89637265D01*
X118761783Y-89753360D01*
X118777564Y-89766791D01*
X118782942Y-89769797D01*
X118782944Y-89769798D01*
X118810564Y-89785234D01*
X118957398Y-89867297D01*
X119029142Y-89890608D01*
X119147471Y-89929056D01*
X119147475Y-89929057D01*
X119153329Y-89930959D01*
X119357894Y-89955351D01*
X119364029Y-89954879D01*
X119364031Y-89954879D01*
X119420039Y-89950569D01*
X119563300Y-89939546D01*
X119569230Y-89937890D01*
X119569232Y-89937890D01*
X119755797Y-89885800D01*
X119755796Y-89885800D01*
X119761725Y-89884145D01*
X119767214Y-89881372D01*
X119767220Y-89881370D01*
X119940116Y-89794033D01*
X119945610Y-89791258D01*
X119953321Y-89785234D01*
X120059975Y-89701907D01*
X120107951Y-89664424D01*
X120117613Y-89653231D01*
X120168094Y-89594748D01*
X121044500Y-89594748D01*
X121045707Y-89600816D01*
X121052163Y-89633270D01*
X121056133Y-89653231D01*
X121063026Y-89663547D01*
X121066144Y-89668213D01*
X121100448Y-89719552D01*
X121166769Y-89763867D01*
X121178938Y-89766288D01*
X121178939Y-89766288D01*
X121219184Y-89774293D01*
X121225252Y-89775500D01*
X122614748Y-89775500D01*
X122620816Y-89774293D01*
X122661061Y-89766288D01*
X122661062Y-89766288D01*
X122673231Y-89763867D01*
X122739552Y-89719552D01*
X122773856Y-89668213D01*
X122776974Y-89663547D01*
X122783867Y-89653231D01*
X122787838Y-89633270D01*
X122794293Y-89600816D01*
X122795500Y-89594748D01*
X131204500Y-89594748D01*
X131205707Y-89600816D01*
X131212163Y-89633270D01*
X131216133Y-89653231D01*
X131223026Y-89663547D01*
X131226144Y-89668213D01*
X131260448Y-89719552D01*
X131326769Y-89763867D01*
X131338938Y-89766288D01*
X131338939Y-89766288D01*
X131379184Y-89774293D01*
X131385252Y-89775500D01*
X132774748Y-89775500D01*
X132780816Y-89774293D01*
X132821061Y-89766288D01*
X132821062Y-89766288D01*
X132833231Y-89763867D01*
X132899552Y-89719552D01*
X132933856Y-89668213D01*
X132936974Y-89663547D01*
X132943867Y-89653231D01*
X132947838Y-89633270D01*
X132954293Y-89600816D01*
X132955500Y-89594748D01*
X141364500Y-89594748D01*
X141365707Y-89600816D01*
X141372163Y-89633270D01*
X141376133Y-89653231D01*
X141383026Y-89663547D01*
X141386144Y-89668213D01*
X141420448Y-89719552D01*
X141486769Y-89763867D01*
X141498938Y-89766288D01*
X141498939Y-89766288D01*
X141539184Y-89774293D01*
X141545252Y-89775500D01*
X142934748Y-89775500D01*
X142940816Y-89774293D01*
X142981061Y-89766288D01*
X142981062Y-89766288D01*
X142993231Y-89763867D01*
X143059552Y-89719552D01*
X143093856Y-89668213D01*
X143096974Y-89663547D01*
X143103867Y-89653231D01*
X143107838Y-89633270D01*
X143114293Y-89600816D01*
X143115500Y-89594748D01*
X143115500Y-89010000D01*
X149484318Y-89010000D01*
X149504956Y-89166762D01*
X149565464Y-89312841D01*
X149661718Y-89438282D01*
X149668263Y-89443304D01*
X149668268Y-89443309D01*
X149753715Y-89508875D01*
X149795582Y-89566213D01*
X149799804Y-89637084D01*
X149765040Y-89698986D01*
X149753718Y-89708797D01*
X149671718Y-89771718D01*
X149575464Y-89897159D01*
X149514956Y-90043238D01*
X149494318Y-90200000D01*
X149514956Y-90356762D01*
X149575464Y-90502841D01*
X149671718Y-90628282D01*
X149797159Y-90724536D01*
X149943238Y-90785044D01*
X150100000Y-90805682D01*
X150108188Y-90804604D01*
X150143159Y-90800000D01*
X162794318Y-90800000D01*
X162814956Y-90956762D01*
X162875464Y-91102841D01*
X162971718Y-91228282D01*
X163097159Y-91324536D01*
X163243238Y-91385044D01*
X163400000Y-91405682D01*
X163408188Y-91404604D01*
X163548574Y-91386122D01*
X163556762Y-91385044D01*
X163702841Y-91324536D01*
X163828282Y-91228282D01*
X163924536Y-91102841D01*
X163985044Y-90956762D01*
X164005682Y-90800000D01*
X163989352Y-90675963D01*
X176394757Y-90675963D01*
X176411175Y-90871483D01*
X176465258Y-91060091D01*
X176468075Y-91065572D01*
X176552123Y-91229113D01*
X176552126Y-91229117D01*
X176554944Y-91234601D01*
X176676818Y-91388369D01*
X176681511Y-91392363D01*
X176681512Y-91392364D01*
X176819528Y-91509824D01*
X176826238Y-91515535D01*
X176831616Y-91518541D01*
X176831618Y-91518542D01*
X176867932Y-91538837D01*
X176997513Y-91611257D01*
X177184118Y-91671889D01*
X177378946Y-91695121D01*
X177385081Y-91694649D01*
X177385083Y-91694649D01*
X177568434Y-91680541D01*
X177568438Y-91680540D01*
X177574576Y-91680068D01*
X177763556Y-91627303D01*
X177938689Y-91538837D01*
X177968515Y-91515535D01*
X178084059Y-91425262D01*
X181824520Y-91425262D01*
X181825036Y-91431406D01*
X181840299Y-91613162D01*
X181841759Y-91630553D01*
X181843458Y-91636478D01*
X181860274Y-91695121D01*
X181898544Y-91828586D01*
X181901359Y-91834063D01*
X181901360Y-91834066D01*
X181922247Y-91874707D01*
X181992712Y-92011818D01*
X182120677Y-92173270D01*
X182125370Y-92177264D01*
X182125371Y-92177265D01*
X182231334Y-92267446D01*
X182277564Y-92306791D01*
X182457398Y-92407297D01*
X182552238Y-92438113D01*
X182647471Y-92469056D01*
X182647475Y-92469057D01*
X182653329Y-92470959D01*
X182857894Y-92495351D01*
X182864029Y-92494879D01*
X182864031Y-92494879D01*
X182920039Y-92490569D01*
X183063300Y-92479546D01*
X183069230Y-92477890D01*
X183069232Y-92477890D01*
X183169696Y-92449840D01*
X186653170Y-92449840D01*
X186667600Y-92670004D01*
X186669021Y-92675600D01*
X186669022Y-92675605D01*
X186712447Y-92846589D01*
X186721911Y-92883852D01*
X186724328Y-92889094D01*
X186724328Y-92889095D01*
X186777796Y-93005075D01*
X186814283Y-93084221D01*
X186941622Y-93264402D01*
X187099664Y-93418361D01*
X187104460Y-93421566D01*
X187104463Y-93421568D01*
X187215023Y-93495441D01*
X187283117Y-93540940D01*
X187288420Y-93543218D01*
X187288423Y-93543220D01*
X187469187Y-93620882D01*
X187485836Y-93628035D01*
X187565488Y-93646058D01*
X187695395Y-93675454D01*
X187695401Y-93675455D01*
X187701032Y-93676729D01*
X187706803Y-93676956D01*
X187706805Y-93676956D01*
X187774611Y-93679620D01*
X187921498Y-93685391D01*
X188031123Y-93669496D01*
X188134138Y-93654560D01*
X188134143Y-93654559D01*
X188139852Y-93653731D01*
X188145316Y-93651876D01*
X188145321Y-93651875D01*
X188343307Y-93584668D01*
X188343312Y-93584666D01*
X188348779Y-93582810D01*
X188356897Y-93578264D01*
X188493090Y-93501992D01*
X188541284Y-93475002D01*
X188546568Y-93470608D01*
X188706486Y-93337604D01*
X188710918Y-93333918D01*
X188778796Y-93252304D01*
X188848308Y-93168726D01*
X188848310Y-93168723D01*
X188852002Y-93164284D01*
X188959810Y-92971779D01*
X188961666Y-92966312D01*
X188961668Y-92966307D01*
X189028875Y-92768321D01*
X189028876Y-92768316D01*
X189030731Y-92762852D01*
X189031559Y-92757143D01*
X189031560Y-92757138D01*
X189060155Y-92559916D01*
X189062391Y-92544498D01*
X189064043Y-92481400D01*
X189043854Y-92261689D01*
X188983965Y-92049336D01*
X188886380Y-91851453D01*
X188873397Y-91834066D01*
X188757820Y-91679291D01*
X188757820Y-91679290D01*
X188754367Y-91674667D01*
X188647050Y-91575464D01*
X188596589Y-91528818D01*
X188596586Y-91528816D01*
X188592349Y-91524899D01*
X188405750Y-91407164D01*
X188200821Y-91325406D01*
X188195161Y-91324280D01*
X188195157Y-91324279D01*
X187990091Y-91283489D01*
X187990088Y-91283489D01*
X187984424Y-91282362D01*
X187978649Y-91282286D01*
X187978645Y-91282286D01*
X187867904Y-91280837D01*
X187763806Y-91279474D01*
X187758109Y-91280453D01*
X187758108Y-91280453D01*
X187552054Y-91315859D01*
X187552053Y-91315859D01*
X187546357Y-91316838D01*
X187339357Y-91393204D01*
X187334396Y-91396156D01*
X187334395Y-91396156D01*
X187216444Y-91466330D01*
X187149741Y-91506014D01*
X186983857Y-91651490D01*
X186847263Y-91824760D01*
X186744531Y-92020020D01*
X186679103Y-92230733D01*
X186653170Y-92449840D01*
X183169696Y-92449840D01*
X183255797Y-92425800D01*
X183255796Y-92425800D01*
X183261725Y-92424145D01*
X183267214Y-92421372D01*
X183267220Y-92421370D01*
X183440116Y-92334033D01*
X183445610Y-92331258D01*
X183607951Y-92204424D01*
X183742564Y-92048472D01*
X183755593Y-92025538D01*
X183841276Y-91874707D01*
X183844323Y-91869344D01*
X183909351Y-91673863D01*
X183935171Y-91469474D01*
X183935583Y-91440000D01*
X183915480Y-91234970D01*
X183855935Y-91037749D01*
X183759218Y-90855849D01*
X183654699Y-90727696D01*
X183632906Y-90700975D01*
X183632903Y-90700972D01*
X183629011Y-90696200D01*
X183622173Y-90690543D01*
X183475025Y-90568811D01*
X183475021Y-90568809D01*
X183470275Y-90564882D01*
X183315097Y-90480978D01*
X183294474Y-90469827D01*
X183289055Y-90466897D01*
X183092254Y-90405977D01*
X183086129Y-90405333D01*
X183086128Y-90405333D01*
X182893498Y-90385087D01*
X182893496Y-90385087D01*
X182887369Y-90384443D01*
X182800529Y-90392346D01*
X182688342Y-90402555D01*
X182688339Y-90402556D01*
X182682203Y-90403114D01*
X182484572Y-90461280D01*
X182302002Y-90556726D01*
X182297201Y-90560586D01*
X182297198Y-90560588D01*
X182203891Y-90635609D01*
X182141447Y-90685815D01*
X182009024Y-90843630D01*
X182006056Y-90849028D01*
X182006053Y-90849033D01*
X181946829Y-90956762D01*
X181909776Y-91024162D01*
X181847484Y-91220532D01*
X181846798Y-91226649D01*
X181846797Y-91226653D01*
X181826837Y-91404604D01*
X181824520Y-91425262D01*
X178084059Y-91425262D01*
X178088453Y-91421829D01*
X178093303Y-91418040D01*
X178100032Y-91410245D01*
X178217485Y-91274173D01*
X178217485Y-91274172D01*
X178221509Y-91269511D01*
X178228000Y-91258086D01*
X178267651Y-91188287D01*
X178318425Y-91098909D01*
X178380358Y-90912732D01*
X178404949Y-90718071D01*
X178405244Y-90696921D01*
X178405292Y-90693523D01*
X178405292Y-90693519D01*
X178405341Y-90690000D01*
X178386194Y-90494728D01*
X178384413Y-90488829D01*
X178384412Y-90488824D01*
X178331265Y-90312793D01*
X178329484Y-90306894D01*
X178237370Y-90133653D01*
X178113361Y-89981602D01*
X177962180Y-89856535D01*
X177789585Y-89763213D01*
X177648539Y-89719552D01*
X177608039Y-89707015D01*
X177608036Y-89707014D01*
X177602152Y-89705193D01*
X177596027Y-89704549D01*
X177596026Y-89704549D01*
X177413147Y-89685327D01*
X177413146Y-89685327D01*
X177407019Y-89684683D01*
X177284383Y-89695844D01*
X177217759Y-89701907D01*
X177217758Y-89701907D01*
X177211618Y-89702466D01*
X177205704Y-89704207D01*
X177205702Y-89704207D01*
X177076734Y-89742165D01*
X177023393Y-89757864D01*
X177017928Y-89760721D01*
X176854972Y-89845912D01*
X176854968Y-89845915D01*
X176849512Y-89848767D01*
X176844712Y-89852627D01*
X176844711Y-89852627D01*
X176830205Y-89864290D01*
X176696600Y-89971711D01*
X176570480Y-90122016D01*
X176567516Y-90127408D01*
X176567513Y-90127412D01*
X176492208Y-90264391D01*
X176475956Y-90293954D01*
X176474095Y-90299821D01*
X176474094Y-90299823D01*
X176449211Y-90378264D01*
X176416628Y-90480978D01*
X176394757Y-90675963D01*
X163989352Y-90675963D01*
X163985044Y-90643238D01*
X163924536Y-90497159D01*
X163828282Y-90371718D01*
X163702841Y-90275464D01*
X163556762Y-90214956D01*
X163400000Y-90194318D01*
X163243238Y-90214956D01*
X163097159Y-90275464D01*
X162971718Y-90371718D01*
X162875464Y-90497159D01*
X162814956Y-90643238D01*
X162794318Y-90800000D01*
X150143159Y-90800000D01*
X150248574Y-90786122D01*
X150256762Y-90785044D01*
X150402841Y-90724536D01*
X150528282Y-90628282D01*
X150624536Y-90502841D01*
X150685044Y-90356762D01*
X150705682Y-90200000D01*
X150692517Y-90100000D01*
X153694318Y-90100000D01*
X153714956Y-90256762D01*
X153775464Y-90402841D01*
X153871718Y-90528282D01*
X153997159Y-90624536D01*
X154143238Y-90685044D01*
X154300000Y-90705682D01*
X154308188Y-90704604D01*
X154448574Y-90686122D01*
X154456762Y-90685044D01*
X154602841Y-90624536D01*
X154728282Y-90528282D01*
X154824536Y-90402841D01*
X154885044Y-90256762D01*
X154905682Y-90100000D01*
X154888793Y-89971711D01*
X154886122Y-89951426D01*
X154885044Y-89943238D01*
X154824536Y-89797159D01*
X154728282Y-89671718D01*
X154627972Y-89594748D01*
X161684500Y-89594748D01*
X161685707Y-89600816D01*
X161692163Y-89633270D01*
X161696133Y-89653231D01*
X161703026Y-89663547D01*
X161706144Y-89668213D01*
X161740448Y-89719552D01*
X161806769Y-89763867D01*
X161818938Y-89766288D01*
X161818939Y-89766288D01*
X161859184Y-89774293D01*
X161865252Y-89775500D01*
X163254748Y-89775500D01*
X163260816Y-89774293D01*
X163301061Y-89766288D01*
X163301062Y-89766288D01*
X163313231Y-89763867D01*
X163379552Y-89719552D01*
X163413856Y-89668213D01*
X163416974Y-89663547D01*
X163423867Y-89653231D01*
X163427838Y-89633270D01*
X163434293Y-89600816D01*
X163435500Y-89594748D01*
X171844500Y-89594748D01*
X171845707Y-89600816D01*
X171852163Y-89633270D01*
X171856133Y-89653231D01*
X171863026Y-89663547D01*
X171866144Y-89668213D01*
X171900448Y-89719552D01*
X171966769Y-89763867D01*
X171978938Y-89766288D01*
X171978939Y-89766288D01*
X172019184Y-89774293D01*
X172025252Y-89775500D01*
X173414748Y-89775500D01*
X173420816Y-89774293D01*
X173461061Y-89766288D01*
X173461062Y-89766288D01*
X173473231Y-89763867D01*
X173539552Y-89719552D01*
X173573856Y-89668213D01*
X173576974Y-89663547D01*
X173583867Y-89653231D01*
X173587838Y-89633270D01*
X173594293Y-89600816D01*
X173595500Y-89594748D01*
X173595500Y-88885262D01*
X181824520Y-88885262D01*
X181825036Y-88891406D01*
X181837887Y-89044439D01*
X181841759Y-89090553D01*
X181843458Y-89096478D01*
X181886172Y-89245438D01*
X181898544Y-89288586D01*
X181901359Y-89294063D01*
X181901360Y-89294066D01*
X181989897Y-89466341D01*
X181992712Y-89471818D01*
X182120677Y-89633270D01*
X182125370Y-89637264D01*
X182125371Y-89637265D01*
X182261783Y-89753360D01*
X182277564Y-89766791D01*
X182282942Y-89769797D01*
X182282944Y-89769798D01*
X182310564Y-89785234D01*
X182457398Y-89867297D01*
X182529142Y-89890608D01*
X182647471Y-89929056D01*
X182647475Y-89929057D01*
X182653329Y-89930959D01*
X182857894Y-89955351D01*
X182864029Y-89954879D01*
X182864031Y-89954879D01*
X182920039Y-89950569D01*
X183063300Y-89939546D01*
X183069230Y-89937890D01*
X183069232Y-89937890D01*
X183255797Y-89885800D01*
X183255796Y-89885800D01*
X183261725Y-89884145D01*
X183267214Y-89881372D01*
X183267220Y-89881370D01*
X183440116Y-89794033D01*
X183445610Y-89791258D01*
X183453321Y-89785234D01*
X183559975Y-89701907D01*
X183607951Y-89664424D01*
X183617613Y-89653231D01*
X183738540Y-89513134D01*
X183738540Y-89513133D01*
X183742564Y-89508472D01*
X183763387Y-89471818D01*
X183826793Y-89360202D01*
X183844323Y-89329344D01*
X183909351Y-89133863D01*
X183935171Y-88929474D01*
X183935583Y-88900000D01*
X183915480Y-88694970D01*
X183855935Y-88497749D01*
X183769422Y-88335040D01*
X186627770Y-88335040D01*
X186642200Y-88555204D01*
X186643621Y-88560800D01*
X186643622Y-88560805D01*
X186695090Y-88763457D01*
X186696511Y-88769052D01*
X186698928Y-88774294D01*
X186698928Y-88774295D01*
X186755263Y-88896494D01*
X186788883Y-88969421D01*
X186916222Y-89149602D01*
X187074264Y-89303561D01*
X187079060Y-89306766D01*
X187079063Y-89306768D01*
X187163261Y-89363027D01*
X187257717Y-89426140D01*
X187263020Y-89428418D01*
X187263023Y-89428420D01*
X187432424Y-89501200D01*
X187460436Y-89513235D01*
X187540088Y-89531258D01*
X187669995Y-89560654D01*
X187670001Y-89560655D01*
X187675632Y-89561929D01*
X187681403Y-89562156D01*
X187681405Y-89562156D01*
X187749211Y-89564820D01*
X187896098Y-89570591D01*
X188005275Y-89554761D01*
X188108738Y-89539760D01*
X188108743Y-89539759D01*
X188114452Y-89538931D01*
X188119916Y-89537076D01*
X188119921Y-89537075D01*
X188317907Y-89469868D01*
X188317912Y-89469866D01*
X188323379Y-89468010D01*
X188342293Y-89457418D01*
X188409984Y-89419509D01*
X188515884Y-89360202D01*
X188545268Y-89335764D01*
X188681086Y-89222804D01*
X188685518Y-89219118D01*
X188756424Y-89133863D01*
X188822908Y-89053926D01*
X188822910Y-89053923D01*
X188826602Y-89049484D01*
X188934410Y-88856979D01*
X188936266Y-88851512D01*
X188936268Y-88851507D01*
X189003475Y-88653521D01*
X189003476Y-88653516D01*
X189005331Y-88648052D01*
X189006159Y-88642343D01*
X189006160Y-88642338D01*
X189028176Y-88490491D01*
X189036991Y-88429698D01*
X189038643Y-88366600D01*
X189018454Y-88146889D01*
X189008888Y-88112968D01*
X188965698Y-87959829D01*
X188958565Y-87934536D01*
X188860980Y-87736653D01*
X188728967Y-87559867D01*
X188620630Y-87459721D01*
X188571189Y-87414018D01*
X188571186Y-87414016D01*
X188566949Y-87410099D01*
X188380350Y-87292364D01*
X188175421Y-87210606D01*
X188169761Y-87209480D01*
X188169757Y-87209479D01*
X187964691Y-87168689D01*
X187964688Y-87168689D01*
X187959024Y-87167562D01*
X187953249Y-87167486D01*
X187953245Y-87167486D01*
X187842504Y-87166037D01*
X187738406Y-87164674D01*
X187732709Y-87165653D01*
X187732708Y-87165653D01*
X187526654Y-87201059D01*
X187526653Y-87201059D01*
X187520957Y-87202038D01*
X187313957Y-87278404D01*
X187308996Y-87281356D01*
X187308995Y-87281356D01*
X187165033Y-87367005D01*
X187124341Y-87391214D01*
X186958457Y-87536690D01*
X186821863Y-87709960D01*
X186719131Y-87905220D01*
X186653703Y-88115933D01*
X186627770Y-88335040D01*
X183769422Y-88335040D01*
X183759218Y-88315849D01*
X183634319Y-88162708D01*
X183632906Y-88160975D01*
X183632903Y-88160972D01*
X183629011Y-88156200D01*
X183611786Y-88141950D01*
X183475025Y-88028811D01*
X183475021Y-88028809D01*
X183470275Y-88024882D01*
X183289055Y-87926897D01*
X183092254Y-87865977D01*
X183086129Y-87865333D01*
X183086128Y-87865333D01*
X182893498Y-87845087D01*
X182893496Y-87845087D01*
X182887369Y-87844443D01*
X182800529Y-87852346D01*
X182688342Y-87862555D01*
X182688339Y-87862556D01*
X182682203Y-87863114D01*
X182484572Y-87921280D01*
X182302002Y-88016726D01*
X182297201Y-88020586D01*
X182297198Y-88020588D01*
X182178613Y-88115933D01*
X182141447Y-88145815D01*
X182009024Y-88303630D01*
X182006056Y-88309028D01*
X182006053Y-88309033D01*
X181916617Y-88471718D01*
X181909776Y-88484162D01*
X181847484Y-88680532D01*
X181846798Y-88686649D01*
X181846797Y-88686653D01*
X181837555Y-88769052D01*
X181824520Y-88885262D01*
X173595500Y-88885262D01*
X173595500Y-88205252D01*
X173587772Y-88166402D01*
X173586288Y-88158939D01*
X173586288Y-88158938D01*
X173583867Y-88146769D01*
X173539552Y-88080448D01*
X173473231Y-88036133D01*
X173461062Y-88033712D01*
X173461061Y-88033712D01*
X173420816Y-88025707D01*
X173414748Y-88024500D01*
X172025252Y-88024500D01*
X172019184Y-88025707D01*
X171978939Y-88033712D01*
X171978938Y-88033712D01*
X171966769Y-88036133D01*
X171900448Y-88080448D01*
X171856133Y-88146769D01*
X171853712Y-88158938D01*
X171853712Y-88158939D01*
X171852228Y-88166402D01*
X171844500Y-88205252D01*
X171844500Y-89594748D01*
X163435500Y-89594748D01*
X163435500Y-88205252D01*
X163427772Y-88166402D01*
X163426288Y-88158939D01*
X163426288Y-88158938D01*
X163423867Y-88146769D01*
X163379552Y-88080448D01*
X163313231Y-88036133D01*
X163301062Y-88033712D01*
X163301061Y-88033712D01*
X163260816Y-88025707D01*
X163254748Y-88024500D01*
X161865252Y-88024500D01*
X161859184Y-88025707D01*
X161818939Y-88033712D01*
X161818938Y-88033712D01*
X161806769Y-88036133D01*
X161740448Y-88080448D01*
X161696133Y-88146769D01*
X161693712Y-88158938D01*
X161693712Y-88158939D01*
X161692228Y-88166402D01*
X161684500Y-88205252D01*
X161684500Y-89594748D01*
X154627972Y-89594748D01*
X154602841Y-89575464D01*
X154456762Y-89514956D01*
X154442923Y-89513134D01*
X154308188Y-89495396D01*
X154300000Y-89494318D01*
X154291812Y-89495396D01*
X154157078Y-89513134D01*
X154143238Y-89514956D01*
X153997159Y-89575464D01*
X153871718Y-89671718D01*
X153775464Y-89797159D01*
X153714956Y-89943238D01*
X153713878Y-89951426D01*
X153711207Y-89971711D01*
X153694318Y-90100000D01*
X150692517Y-90100000D01*
X150685044Y-90043238D01*
X150624536Y-89897159D01*
X150528282Y-89771718D01*
X150521736Y-89766695D01*
X150521732Y-89766691D01*
X150436285Y-89701125D01*
X150394418Y-89643787D01*
X150391497Y-89594748D01*
X151524500Y-89594748D01*
X151525707Y-89600816D01*
X151532163Y-89633270D01*
X151536133Y-89653231D01*
X151543026Y-89663547D01*
X151546144Y-89668213D01*
X151580448Y-89719552D01*
X151646769Y-89763867D01*
X151658938Y-89766288D01*
X151658939Y-89766288D01*
X151699184Y-89774293D01*
X151705252Y-89775500D01*
X153094748Y-89775500D01*
X153100816Y-89774293D01*
X153141061Y-89766288D01*
X153141062Y-89766288D01*
X153153231Y-89763867D01*
X153219552Y-89719552D01*
X153253856Y-89668213D01*
X153256974Y-89663547D01*
X153263867Y-89653231D01*
X153267838Y-89633270D01*
X153274293Y-89600816D01*
X153275500Y-89594748D01*
X153275500Y-88900000D01*
X158294318Y-88900000D01*
X158314956Y-89056762D01*
X158375464Y-89202841D01*
X158471718Y-89328282D01*
X158597159Y-89424536D01*
X158743238Y-89485044D01*
X158900000Y-89505682D01*
X158908188Y-89504604D01*
X159048574Y-89486122D01*
X159056762Y-89485044D01*
X159202841Y-89424536D01*
X159328282Y-89328282D01*
X159424536Y-89202841D01*
X159485044Y-89056762D01*
X159505682Y-88900000D01*
X159485044Y-88743238D01*
X159424536Y-88597159D01*
X159328282Y-88471718D01*
X159202841Y-88375464D01*
X159056762Y-88314956D01*
X158900000Y-88294318D01*
X158743238Y-88314956D01*
X158597159Y-88375464D01*
X158471718Y-88471718D01*
X158375464Y-88597159D01*
X158314956Y-88743238D01*
X158294318Y-88900000D01*
X153275500Y-88900000D01*
X153275500Y-88205252D01*
X153267772Y-88166402D01*
X153266288Y-88158939D01*
X153266288Y-88158938D01*
X153263867Y-88146769D01*
X153219552Y-88080448D01*
X153153231Y-88036133D01*
X153141062Y-88033712D01*
X153141061Y-88033712D01*
X153100816Y-88025707D01*
X153094748Y-88024500D01*
X151705252Y-88024500D01*
X151699184Y-88025707D01*
X151658939Y-88033712D01*
X151658938Y-88033712D01*
X151646769Y-88036133D01*
X151580448Y-88080448D01*
X151536133Y-88146769D01*
X151533712Y-88158938D01*
X151533712Y-88158939D01*
X151532228Y-88166402D01*
X151524500Y-88205252D01*
X151524500Y-89594748D01*
X150391497Y-89594748D01*
X150390196Y-89572916D01*
X150424960Y-89511014D01*
X150436285Y-89501200D01*
X150455936Y-89486122D01*
X150518282Y-89438282D01*
X150614536Y-89312841D01*
X150675044Y-89166762D01*
X150695682Y-89010000D01*
X150675044Y-88853238D01*
X150614536Y-88707159D01*
X150518282Y-88581718D01*
X150392841Y-88485464D01*
X150246762Y-88424956D01*
X150090000Y-88404318D01*
X149933238Y-88424956D01*
X149787159Y-88485464D01*
X149661718Y-88581718D01*
X149565464Y-88707159D01*
X149504956Y-88853238D01*
X149484318Y-89010000D01*
X143115500Y-89010000D01*
X143115500Y-88205252D01*
X143107772Y-88166402D01*
X143106288Y-88158939D01*
X143106288Y-88158938D01*
X143103867Y-88146769D01*
X143059552Y-88080448D01*
X142993231Y-88036133D01*
X142981062Y-88033712D01*
X142981061Y-88033712D01*
X142940816Y-88025707D01*
X142934748Y-88024500D01*
X141545252Y-88024500D01*
X141539184Y-88025707D01*
X141498939Y-88033712D01*
X141498938Y-88033712D01*
X141486769Y-88036133D01*
X141420448Y-88080448D01*
X141376133Y-88146769D01*
X141373712Y-88158938D01*
X141373712Y-88158939D01*
X141372228Y-88166402D01*
X141364500Y-88205252D01*
X141364500Y-89594748D01*
X132955500Y-89594748D01*
X132955500Y-88205252D01*
X132947772Y-88166402D01*
X132946288Y-88158939D01*
X132946288Y-88158938D01*
X132943867Y-88146769D01*
X132899552Y-88080448D01*
X132833231Y-88036133D01*
X132821062Y-88033712D01*
X132821061Y-88033712D01*
X132780816Y-88025707D01*
X132774748Y-88024500D01*
X131385252Y-88024500D01*
X131379184Y-88025707D01*
X131338939Y-88033712D01*
X131338938Y-88033712D01*
X131326769Y-88036133D01*
X131260448Y-88080448D01*
X131216133Y-88146769D01*
X131213712Y-88158938D01*
X131213712Y-88158939D01*
X131212228Y-88166402D01*
X131204500Y-88205252D01*
X131204500Y-89594748D01*
X122795500Y-89594748D01*
X122795500Y-88205252D01*
X122787772Y-88166402D01*
X122786288Y-88158939D01*
X122786288Y-88158938D01*
X122783867Y-88146769D01*
X122739552Y-88080448D01*
X122673231Y-88036133D01*
X122661062Y-88033712D01*
X122661061Y-88033712D01*
X122620816Y-88025707D01*
X122614748Y-88024500D01*
X121225252Y-88024500D01*
X121219184Y-88025707D01*
X121178939Y-88033712D01*
X121178938Y-88033712D01*
X121166769Y-88036133D01*
X121100448Y-88080448D01*
X121056133Y-88146769D01*
X121053712Y-88158938D01*
X121053712Y-88158939D01*
X121052228Y-88166402D01*
X121044500Y-88205252D01*
X121044500Y-89594748D01*
X120168094Y-89594748D01*
X120238540Y-89513134D01*
X120238540Y-89513133D01*
X120242564Y-89508472D01*
X120263387Y-89471818D01*
X120326793Y-89360202D01*
X120344323Y-89329344D01*
X120409351Y-89133863D01*
X120435171Y-88929474D01*
X120435583Y-88900000D01*
X120415480Y-88694970D01*
X120355935Y-88497749D01*
X120259218Y-88315849D01*
X120134319Y-88162708D01*
X120132906Y-88160975D01*
X120132903Y-88160972D01*
X120129011Y-88156200D01*
X120111786Y-88141950D01*
X119975025Y-88028811D01*
X119975021Y-88028809D01*
X119970275Y-88024882D01*
X119789055Y-87926897D01*
X119592254Y-87865977D01*
X119586129Y-87865333D01*
X119586128Y-87865333D01*
X119393498Y-87845087D01*
X119393496Y-87845087D01*
X119387369Y-87844443D01*
X119300529Y-87852346D01*
X119188342Y-87862555D01*
X119188339Y-87862556D01*
X119182203Y-87863114D01*
X118984572Y-87921280D01*
X118802002Y-88016726D01*
X118797201Y-88020586D01*
X118797198Y-88020588D01*
X118678613Y-88115933D01*
X118641447Y-88145815D01*
X118509024Y-88303630D01*
X118506056Y-88309028D01*
X118506053Y-88309033D01*
X118416617Y-88471718D01*
X118409776Y-88484162D01*
X118347484Y-88680532D01*
X118346798Y-88686649D01*
X118346797Y-88686653D01*
X118337555Y-88769052D01*
X118324520Y-88885262D01*
X108746194Y-88885262D01*
X108746194Y-87141240D01*
X110376970Y-87141240D01*
X110391400Y-87361404D01*
X110392821Y-87367000D01*
X110392822Y-87367005D01*
X110434949Y-87532878D01*
X110445711Y-87575252D01*
X110448128Y-87580494D01*
X110448128Y-87580495D01*
X110507813Y-87709960D01*
X110538083Y-87775621D01*
X110665422Y-87955802D01*
X110823464Y-88109761D01*
X110828260Y-88112966D01*
X110828263Y-88112968D01*
X110912461Y-88169227D01*
X111006917Y-88232340D01*
X111012220Y-88234618D01*
X111012223Y-88234620D01*
X111190173Y-88311073D01*
X111209636Y-88319435D01*
X111278600Y-88335040D01*
X111419195Y-88366854D01*
X111419201Y-88366855D01*
X111424832Y-88368129D01*
X111430603Y-88368356D01*
X111430605Y-88368356D01*
X111498411Y-88371020D01*
X111645298Y-88376791D01*
X111754475Y-88360961D01*
X111857938Y-88345960D01*
X111857943Y-88345959D01*
X111863652Y-88345131D01*
X111869116Y-88343276D01*
X111869121Y-88343275D01*
X112067107Y-88276068D01*
X112067112Y-88276066D01*
X112072579Y-88274210D01*
X112265084Y-88166402D01*
X112271610Y-88160975D01*
X112430286Y-88029004D01*
X112434718Y-88025318D01*
X112514532Y-87929353D01*
X112572108Y-87860126D01*
X112572110Y-87860123D01*
X112575802Y-87855684D01*
X112683610Y-87663179D01*
X112685466Y-87657712D01*
X112685468Y-87657707D01*
X112752675Y-87459721D01*
X112752676Y-87459716D01*
X112754531Y-87454252D01*
X112755359Y-87448543D01*
X112755360Y-87448538D01*
X112780028Y-87278404D01*
X112786191Y-87235898D01*
X112786352Y-87229748D01*
X118329500Y-87229748D01*
X118341133Y-87288231D01*
X118385448Y-87354552D01*
X118451769Y-87398867D01*
X118463938Y-87401288D01*
X118463939Y-87401288D01*
X118504184Y-87409293D01*
X118510252Y-87410500D01*
X120249748Y-87410500D01*
X120255816Y-87409293D01*
X120296061Y-87401288D01*
X120296062Y-87401288D01*
X120308231Y-87398867D01*
X120374552Y-87354552D01*
X120418867Y-87288231D01*
X120430500Y-87229748D01*
X120430500Y-87054428D01*
X120450502Y-86986307D01*
X120504158Y-86939814D01*
X120574432Y-86929710D01*
X120639012Y-86959204D01*
X120665620Y-86991429D01*
X120667804Y-86995211D01*
X120670964Y-87002841D01*
X120767218Y-87128282D01*
X120892659Y-87224536D01*
X121038738Y-87285044D01*
X121195500Y-87305682D01*
X121203688Y-87304604D01*
X121344074Y-87286122D01*
X121352262Y-87285044D01*
X121485758Y-87229748D01*
X181829500Y-87229748D01*
X181841133Y-87288231D01*
X181885448Y-87354552D01*
X181951769Y-87398867D01*
X181963938Y-87401288D01*
X181963939Y-87401288D01*
X182004184Y-87409293D01*
X182010252Y-87410500D01*
X183749748Y-87410500D01*
X183755816Y-87409293D01*
X183796061Y-87401288D01*
X183796062Y-87401288D01*
X183808231Y-87398867D01*
X183874552Y-87354552D01*
X183918867Y-87288231D01*
X183930500Y-87229748D01*
X183930500Y-85490252D01*
X183918867Y-85431769D01*
X183874552Y-85365448D01*
X183808231Y-85321133D01*
X183796062Y-85318712D01*
X183796061Y-85318712D01*
X183755816Y-85310707D01*
X183749748Y-85309500D01*
X182010252Y-85309500D01*
X182004184Y-85310707D01*
X181963939Y-85318712D01*
X181963938Y-85318712D01*
X181951769Y-85321133D01*
X181885448Y-85365448D01*
X181841133Y-85431769D01*
X181829500Y-85490252D01*
X181829500Y-87229748D01*
X121485758Y-87229748D01*
X121498341Y-87224536D01*
X121623782Y-87128282D01*
X121720036Y-87002841D01*
X121780544Y-86856762D01*
X121801182Y-86700000D01*
X121780544Y-86543238D01*
X121720036Y-86397159D01*
X121651559Y-86307918D01*
X121628805Y-86278264D01*
X121623782Y-86271718D01*
X121498341Y-86175464D01*
X121352262Y-86114956D01*
X121195500Y-86094318D01*
X121038738Y-86114956D01*
X120892659Y-86175464D01*
X120767218Y-86271718D01*
X120762195Y-86278264D01*
X120739441Y-86307918D01*
X120670964Y-86397159D01*
X120667804Y-86404789D01*
X120665620Y-86408571D01*
X120614238Y-86457565D01*
X120544524Y-86471002D01*
X120478613Y-86444615D01*
X120437430Y-86386784D01*
X120430500Y-86345572D01*
X120430500Y-85900000D01*
X123394318Y-85900000D01*
X123414956Y-86056762D01*
X123475464Y-86202841D01*
X123480491Y-86209392D01*
X123550017Y-86300000D01*
X123571718Y-86328282D01*
X123578264Y-86333305D01*
X123594251Y-86345572D01*
X123697159Y-86424536D01*
X123843238Y-86485044D01*
X124000000Y-86505682D01*
X124008188Y-86504604D01*
X124148574Y-86486122D01*
X124156762Y-86485044D01*
X124302841Y-86424536D01*
X124405749Y-86345572D01*
X124421736Y-86333305D01*
X124428282Y-86328282D01*
X124449984Y-86300000D01*
X154494318Y-86300000D01*
X154514956Y-86456762D01*
X154575464Y-86602841D01*
X154595506Y-86628960D01*
X154650017Y-86700000D01*
X154671718Y-86728282D01*
X154797159Y-86824536D01*
X154943238Y-86885044D01*
X155100000Y-86905682D01*
X155108188Y-86904604D01*
X155248574Y-86886122D01*
X155256762Y-86885044D01*
X155402841Y-86824536D01*
X155528282Y-86728282D01*
X155549984Y-86700000D01*
X155604494Y-86628960D01*
X155624536Y-86602841D01*
X155685044Y-86456762D01*
X155705682Y-86300000D01*
X155685044Y-86143238D01*
X155624536Y-85997159D01*
X155550011Y-85900036D01*
X155533305Y-85878264D01*
X155528282Y-85871718D01*
X155402841Y-85775464D01*
X155256762Y-85714956D01*
X155100000Y-85694318D01*
X154943238Y-85714956D01*
X154797159Y-85775464D01*
X154671718Y-85871718D01*
X154666695Y-85878264D01*
X154649989Y-85900036D01*
X154575464Y-85997159D01*
X154514956Y-86143238D01*
X154494318Y-86300000D01*
X124449984Y-86300000D01*
X124519509Y-86209392D01*
X124524536Y-86202841D01*
X124585044Y-86056762D01*
X124605682Y-85900000D01*
X124585044Y-85743238D01*
X124524536Y-85597159D01*
X124440083Y-85487097D01*
X124433305Y-85478264D01*
X124428282Y-85471718D01*
X124302888Y-85375500D01*
X131494318Y-85375500D01*
X131514956Y-85532262D01*
X131575464Y-85678341D01*
X131671718Y-85803782D01*
X131797159Y-85900036D01*
X131943238Y-85960544D01*
X132100000Y-85981182D01*
X132108188Y-85980104D01*
X132248574Y-85961622D01*
X132256762Y-85960544D01*
X132402841Y-85900036D01*
X132528282Y-85803782D01*
X132624536Y-85678341D01*
X132685044Y-85532262D01*
X132702457Y-85400000D01*
X155694318Y-85400000D01*
X155714956Y-85556762D01*
X155775464Y-85702841D01*
X155871718Y-85828282D01*
X155997159Y-85924536D01*
X156143238Y-85985044D01*
X156300000Y-86005682D01*
X156308188Y-86004604D01*
X156448574Y-85986122D01*
X156456762Y-85985044D01*
X156602841Y-85924536D01*
X156728282Y-85828282D01*
X156740344Y-85812563D01*
X161580157Y-85812563D01*
X161596575Y-86008083D01*
X161650658Y-86196691D01*
X161659151Y-86213217D01*
X161737523Y-86365713D01*
X161737526Y-86365717D01*
X161740344Y-86371201D01*
X161862218Y-86524969D01*
X161866911Y-86528963D01*
X161866912Y-86528964D01*
X161965844Y-86613161D01*
X162011638Y-86652135D01*
X162017016Y-86655141D01*
X162017018Y-86655142D01*
X162048288Y-86672618D01*
X162182913Y-86747857D01*
X162369518Y-86808489D01*
X162564346Y-86831721D01*
X162570481Y-86831249D01*
X162570483Y-86831249D01*
X162753834Y-86817141D01*
X162753838Y-86817140D01*
X162759976Y-86816668D01*
X162948956Y-86763903D01*
X163124089Y-86675437D01*
X163131068Y-86669985D01*
X163273853Y-86558429D01*
X163278703Y-86554640D01*
X163288878Y-86542853D01*
X163402885Y-86410773D01*
X163402885Y-86410772D01*
X163406909Y-86406111D01*
X163411995Y-86397159D01*
X163471840Y-86291812D01*
X163503825Y-86235509D01*
X163565758Y-86049332D01*
X163590349Y-85854671D01*
X163590555Y-85839940D01*
X163590692Y-85830123D01*
X163590692Y-85830119D01*
X163590741Y-85826600D01*
X163589365Y-85812563D01*
X171740157Y-85812563D01*
X171756575Y-86008083D01*
X171810658Y-86196691D01*
X171819151Y-86213217D01*
X171897523Y-86365713D01*
X171897526Y-86365717D01*
X171900344Y-86371201D01*
X172022218Y-86524969D01*
X172026911Y-86528963D01*
X172026912Y-86528964D01*
X172125844Y-86613161D01*
X172171638Y-86652135D01*
X172177016Y-86655141D01*
X172177018Y-86655142D01*
X172208288Y-86672618D01*
X172342913Y-86747857D01*
X172529518Y-86808489D01*
X172724346Y-86831721D01*
X172730481Y-86831249D01*
X172730483Y-86831249D01*
X172913834Y-86817141D01*
X172913838Y-86817140D01*
X172919976Y-86816668D01*
X173108956Y-86763903D01*
X173284089Y-86675437D01*
X173291068Y-86669985D01*
X173433853Y-86558429D01*
X173438703Y-86554640D01*
X173448878Y-86542853D01*
X173562885Y-86410773D01*
X173562885Y-86410772D01*
X173566909Y-86406111D01*
X173571995Y-86397159D01*
X173631840Y-86291812D01*
X173663825Y-86235509D01*
X173725758Y-86049332D01*
X173750349Y-85854671D01*
X173750555Y-85839940D01*
X173750692Y-85830123D01*
X173750692Y-85830119D01*
X173750741Y-85826600D01*
X173735971Y-85675963D01*
X176394757Y-85675963D01*
X176411175Y-85871483D01*
X176465258Y-86060091D01*
X176468076Y-86065574D01*
X176552123Y-86229113D01*
X176552126Y-86229117D01*
X176554944Y-86234601D01*
X176676818Y-86388369D01*
X176826238Y-86515535D01*
X176831616Y-86518541D01*
X176831618Y-86518542D01*
X176862156Y-86535609D01*
X176997513Y-86611257D01*
X177184118Y-86671889D01*
X177378946Y-86695121D01*
X177385081Y-86694649D01*
X177385083Y-86694649D01*
X177568434Y-86680541D01*
X177568438Y-86680540D01*
X177574576Y-86680068D01*
X177763556Y-86627303D01*
X177938689Y-86538837D01*
X177956440Y-86524969D01*
X178088453Y-86421829D01*
X178093303Y-86418040D01*
X178101477Y-86408571D01*
X178217485Y-86274173D01*
X178217485Y-86274172D01*
X178221509Y-86269511D01*
X178244459Y-86229113D01*
X178315380Y-86104269D01*
X178318425Y-86098909D01*
X178380358Y-85912732D01*
X178404949Y-85718071D01*
X178405341Y-85690000D01*
X178386194Y-85494728D01*
X178384413Y-85488829D01*
X178384412Y-85488824D01*
X178331265Y-85312793D01*
X178329484Y-85306894D01*
X178237370Y-85133653D01*
X178113361Y-84981602D01*
X177962180Y-84856535D01*
X177789585Y-84763213D01*
X177695868Y-84734203D01*
X177608039Y-84707015D01*
X177608036Y-84707014D01*
X177602152Y-84705193D01*
X177596027Y-84704549D01*
X177596026Y-84704549D01*
X177413147Y-84685327D01*
X177413146Y-84685327D01*
X177407019Y-84684683D01*
X177284383Y-84695844D01*
X177217759Y-84701907D01*
X177217758Y-84701907D01*
X177211618Y-84702466D01*
X177205704Y-84704207D01*
X177205702Y-84704207D01*
X177192176Y-84708188D01*
X177023393Y-84757864D01*
X177017928Y-84760721D01*
X176854972Y-84845912D01*
X176854968Y-84845915D01*
X176849512Y-84848767D01*
X176844712Y-84852627D01*
X176844711Y-84852627D01*
X176810326Y-84880273D01*
X176696600Y-84971711D01*
X176570480Y-85122016D01*
X176567516Y-85127408D01*
X176567513Y-85127412D01*
X176503837Y-85243238D01*
X176475956Y-85293954D01*
X176474095Y-85299821D01*
X176474094Y-85299823D01*
X176453277Y-85365448D01*
X176416628Y-85480978D01*
X176394757Y-85675963D01*
X173735971Y-85675963D01*
X173731594Y-85631328D01*
X173729813Y-85625429D01*
X173729812Y-85625424D01*
X173676665Y-85449393D01*
X173674884Y-85443494D01*
X173582770Y-85270253D01*
X173458761Y-85118202D01*
X173307580Y-84993135D01*
X173134985Y-84899813D01*
X173007872Y-84860465D01*
X172953439Y-84843615D01*
X172953436Y-84843614D01*
X172947552Y-84841793D01*
X172941427Y-84841149D01*
X172941426Y-84841149D01*
X172758547Y-84821927D01*
X172758546Y-84821927D01*
X172752419Y-84821283D01*
X172631781Y-84832262D01*
X172563159Y-84838507D01*
X172563158Y-84838507D01*
X172557018Y-84839066D01*
X172551104Y-84840807D01*
X172551102Y-84840807D01*
X172444086Y-84872304D01*
X172368793Y-84894464D01*
X172363328Y-84897321D01*
X172200372Y-84982512D01*
X172200368Y-84982515D01*
X172194912Y-84985367D01*
X172190112Y-84989227D01*
X172190111Y-84989227D01*
X172173179Y-85002841D01*
X172042000Y-85108311D01*
X171915880Y-85258616D01*
X171912916Y-85264008D01*
X171912913Y-85264012D01*
X171883169Y-85318116D01*
X171821356Y-85430554D01*
X171819495Y-85436421D01*
X171819494Y-85436423D01*
X171800999Y-85494728D01*
X171762028Y-85617578D01*
X171740157Y-85812563D01*
X163589365Y-85812563D01*
X163571594Y-85631328D01*
X163569813Y-85625429D01*
X163569812Y-85625424D01*
X163516665Y-85449393D01*
X163514884Y-85443494D01*
X163422770Y-85270253D01*
X163298761Y-85118202D01*
X163147580Y-84993135D01*
X162974985Y-84899813D01*
X162847872Y-84860465D01*
X162793439Y-84843615D01*
X162793436Y-84843614D01*
X162787552Y-84841793D01*
X162781427Y-84841149D01*
X162781426Y-84841149D01*
X162598547Y-84821927D01*
X162598546Y-84821927D01*
X162592419Y-84821283D01*
X162471781Y-84832262D01*
X162403159Y-84838507D01*
X162403158Y-84838507D01*
X162397018Y-84839066D01*
X162391104Y-84840807D01*
X162391102Y-84840807D01*
X162284086Y-84872304D01*
X162208793Y-84894464D01*
X162203328Y-84897321D01*
X162040372Y-84982512D01*
X162040368Y-84982515D01*
X162034912Y-84985367D01*
X162030112Y-84989227D01*
X162030111Y-84989227D01*
X162013179Y-85002841D01*
X161882000Y-85108311D01*
X161755880Y-85258616D01*
X161752916Y-85264008D01*
X161752913Y-85264012D01*
X161723169Y-85318116D01*
X161661356Y-85430554D01*
X161659495Y-85436421D01*
X161659494Y-85436423D01*
X161640999Y-85494728D01*
X161602028Y-85617578D01*
X161580157Y-85812563D01*
X156740344Y-85812563D01*
X156824536Y-85702841D01*
X156885044Y-85556762D01*
X156905682Y-85400000D01*
X156885044Y-85243238D01*
X156824536Y-85097159D01*
X156741717Y-84989227D01*
X156733305Y-84978264D01*
X156728282Y-84971718D01*
X156602841Y-84875464D01*
X156456762Y-84814956D01*
X156300000Y-84794318D01*
X156143238Y-84814956D01*
X155997159Y-84875464D01*
X155871718Y-84971718D01*
X155866695Y-84978264D01*
X155858283Y-84989227D01*
X155775464Y-85097159D01*
X155714956Y-85243238D01*
X155694318Y-85400000D01*
X132702457Y-85400000D01*
X132705682Y-85375500D01*
X132685044Y-85218738D01*
X132624536Y-85072659D01*
X132528282Y-84947218D01*
X132402841Y-84850964D01*
X132256762Y-84790456D01*
X132100000Y-84769818D01*
X131943238Y-84790456D01*
X131797159Y-84850964D01*
X131671718Y-84947218D01*
X131575464Y-85072659D01*
X131514956Y-85218738D01*
X131494318Y-85375500D01*
X124302888Y-85375500D01*
X124302841Y-85375464D01*
X124156762Y-85314956D01*
X124140333Y-85312793D01*
X124008188Y-85295396D01*
X124000000Y-85294318D01*
X123991812Y-85295396D01*
X123859668Y-85312793D01*
X123843238Y-85314956D01*
X123697159Y-85375464D01*
X123571718Y-85471718D01*
X123566695Y-85478264D01*
X123559917Y-85487097D01*
X123475464Y-85597159D01*
X123414956Y-85743238D01*
X123394318Y-85900000D01*
X120430500Y-85900000D01*
X120430500Y-85490252D01*
X120418867Y-85431769D01*
X120374552Y-85365448D01*
X120308231Y-85321133D01*
X120296062Y-85318712D01*
X120296061Y-85318712D01*
X120255816Y-85310707D01*
X120249748Y-85309500D01*
X118510252Y-85309500D01*
X118504184Y-85310707D01*
X118463939Y-85318712D01*
X118463938Y-85318712D01*
X118451769Y-85321133D01*
X118385448Y-85365448D01*
X118341133Y-85431769D01*
X118329500Y-85490252D01*
X118329500Y-87229748D01*
X112786352Y-87229748D01*
X112787843Y-87172800D01*
X112767654Y-86953089D01*
X112707765Y-86740736D01*
X112610180Y-86542853D01*
X112545893Y-86456762D01*
X112481620Y-86370691D01*
X112481620Y-86370690D01*
X112478167Y-86366067D01*
X112342732Y-86240872D01*
X112320389Y-86220218D01*
X112320386Y-86220216D01*
X112316149Y-86216299D01*
X112129550Y-86098564D01*
X111924621Y-86016806D01*
X111918961Y-86015680D01*
X111918957Y-86015679D01*
X111713891Y-85974889D01*
X111713888Y-85974889D01*
X111708224Y-85973762D01*
X111702449Y-85973686D01*
X111702445Y-85973686D01*
X111591704Y-85972237D01*
X111487606Y-85970874D01*
X111481909Y-85971853D01*
X111481908Y-85971853D01*
X111275854Y-86007259D01*
X111275853Y-86007259D01*
X111270157Y-86008238D01*
X111063157Y-86084604D01*
X111058196Y-86087556D01*
X111058195Y-86087556D01*
X110910436Y-86175464D01*
X110873541Y-86197414D01*
X110707657Y-86342890D01*
X110571063Y-86516160D01*
X110468331Y-86711420D01*
X110402903Y-86922133D01*
X110376970Y-87141240D01*
X108746194Y-87141240D01*
X108746194Y-84057954D01*
X108766196Y-83989833D01*
X108819852Y-83943340D01*
X108872194Y-83931954D01*
X141911394Y-83931954D01*
X141979515Y-83951956D01*
G37*
G04 #@! TD.AperFunction*
M02*
