G04 #@! TF.GenerationSoftware,KiCad,Pcbnew,6.0.10-86aedd382b~118~ubuntu20.04.1*
G04 #@! TF.CreationDate,2022-12-28T18:12:39+00:00*
G04 #@! TF.ProjectId,slrm,736c726d-2e6b-4696-9361-645f70636258,rev?*
G04 #@! TF.SameCoordinates,Original*
G04 #@! TF.FileFunction,Copper,L1,Top*
G04 #@! TF.FilePolarity,Positive*
%FSLAX46Y46*%
G04 Gerber Fmt 4.6, Leading zero omitted, Abs format (unit mm)*
G04 Created by KiCad (PCBNEW 6.0.10-86aedd382b~118~ubuntu20.04.1) date 2022-12-28 18:12:39*
%MOMM*%
%LPD*%
G01*
G04 APERTURE LIST*
G04 Aperture macros list*
%AMRoundRect*
0 Rectangle with rounded corners*
0 $1 Rounding radius*
0 $2 $3 $4 $5 $6 $7 $8 $9 X,Y pos of 4 corners*
0 Add a 4 corners polygon primitive as box body*
4,1,4,$2,$3,$4,$5,$6,$7,$8,$9,$2,$3,0*
0 Add four circle primitives for the rounded corners*
1,1,$1+$1,$2,$3*
1,1,$1+$1,$4,$5*
1,1,$1+$1,$6,$7*
1,1,$1+$1,$8,$9*
0 Add four rect primitives between the rounded corners*
20,1,$1+$1,$2,$3,$4,$5,0*
20,1,$1+$1,$4,$5,$6,$7,0*
20,1,$1+$1,$6,$7,$8,$9,0*
20,1,$1+$1,$8,$9,$2,$3,0*%
G04 Aperture macros list end*
G04 #@! TA.AperFunction,SMDPad,CuDef*
%ADD10RoundRect,0.250000X-0.312500X-0.625000X0.312500X-0.625000X0.312500X0.625000X-0.312500X0.625000X0*%
G04 #@! TD*
G04 #@! TA.AperFunction,SMDPad,CuDef*
%ADD11RoundRect,0.250000X0.650000X-0.325000X0.650000X0.325000X-0.650000X0.325000X-0.650000X-0.325000X0*%
G04 #@! TD*
G04 #@! TA.AperFunction,ComponentPad*
%ADD12R,1.350000X1.350000*%
G04 #@! TD*
G04 #@! TA.AperFunction,ComponentPad*
%ADD13C,1.600000*%
G04 #@! TD*
G04 #@! TA.AperFunction,SMDPad,CuDef*
%ADD14O,0.600000X2.250000*%
G04 #@! TD*
G04 #@! TA.AperFunction,ComponentPad*
%ADD15R,1.700000X1.700000*%
G04 #@! TD*
G04 #@! TA.AperFunction,ComponentPad*
%ADD16O,1.700000X1.700000*%
G04 #@! TD*
G04 #@! TA.AperFunction,ComponentPad*
%ADD17O,1.600000X1.600000*%
G04 #@! TD*
G04 #@! TA.AperFunction,SMDPad,CuDef*
%ADD18RoundRect,0.150000X-0.150000X0.837500X-0.150000X-0.837500X0.150000X-0.837500X0.150000X0.837500X0*%
G04 #@! TD*
G04 #@! TA.AperFunction,SMDPad,CuDef*
%ADD19RoundRect,0.150000X-0.150000X0.825000X-0.150000X-0.825000X0.150000X-0.825000X0.150000X0.825000X0*%
G04 #@! TD*
G04 #@! TA.AperFunction,SMDPad,CuDef*
%ADD20RoundRect,0.250000X-0.650000X0.325000X-0.650000X-0.325000X0.650000X-0.325000X0.650000X0.325000X0*%
G04 #@! TD*
G04 #@! TA.AperFunction,ViaPad*
%ADD21C,0.800000*%
G04 #@! TD*
G04 #@! TA.AperFunction,Conductor*
%ADD22C,0.250000*%
G04 #@! TD*
G04 #@! TA.AperFunction,Conductor*
%ADD23C,0.350000*%
G04 #@! TD*
G04 APERTURE END LIST*
D10*
X166277500Y-85800000D03*
X169202500Y-85800000D03*
D11*
X179870000Y-89725000D03*
X179870000Y-86775000D03*
D12*
X121920000Y-88900000D03*
X162560000Y-88900000D03*
D13*
X177400000Y-85690000D03*
X177400000Y-90690000D03*
D12*
X142240000Y-88900000D03*
D14*
X142493809Y-103550000D03*
X143763809Y-103550000D03*
X145033809Y-103550000D03*
X146303809Y-103550000D03*
X147573809Y-103550000D03*
X148843809Y-103550000D03*
X150113809Y-103550000D03*
X151383809Y-103550000D03*
X152653809Y-103550000D03*
X153923809Y-103550000D03*
X155193809Y-103550000D03*
X156463809Y-103550000D03*
X157733809Y-103550000D03*
X159003809Y-103550000D03*
X158943809Y-92450000D03*
X157673809Y-92450000D03*
X156403809Y-92450000D03*
X155133809Y-92450000D03*
X153863809Y-92450000D03*
X152593809Y-92450000D03*
X151323809Y-92450000D03*
X150053809Y-92450000D03*
X148783809Y-92450000D03*
X147513809Y-92450000D03*
X146243809Y-92450000D03*
X144973809Y-92450000D03*
X143703809Y-92450000D03*
X142433809Y-92450000D03*
D15*
X119380000Y-86360000D03*
D16*
X119380000Y-88900000D03*
X119380000Y-91440000D03*
X119380000Y-93980000D03*
X119380000Y-96520000D03*
X119380000Y-99060000D03*
X119380000Y-101600000D03*
X119380000Y-104140000D03*
D11*
X179000000Y-103475000D03*
X179000000Y-100525000D03*
D17*
X172745400Y-85826600D03*
D13*
X162585400Y-85826600D03*
D11*
X136300000Y-104150000D03*
X136300000Y-101200000D03*
D15*
X182880000Y-86360000D03*
D16*
X182880000Y-88900000D03*
X182880000Y-91440000D03*
X182880000Y-93980000D03*
X182880000Y-96520000D03*
X182880000Y-99060000D03*
X182880000Y-101600000D03*
X182880000Y-104140000D03*
D12*
X132080000Y-88900000D03*
X172720000Y-88900000D03*
D18*
X133815000Y-95577500D03*
X132545000Y-95577500D03*
X131275000Y-95577500D03*
X130005000Y-95577500D03*
X128735000Y-95577500D03*
X127465000Y-95577500D03*
X126195000Y-95577500D03*
X124925000Y-95577500D03*
X123655000Y-95577500D03*
X122385000Y-95577500D03*
X122385000Y-102502500D03*
X123655000Y-102502500D03*
X124925000Y-102502500D03*
X126195000Y-102502500D03*
X127465000Y-102502500D03*
X128735000Y-102502500D03*
X130005000Y-102502500D03*
X131275000Y-102502500D03*
X132545000Y-102502500D03*
X133815000Y-102502500D03*
D19*
X175285000Y-97715000D03*
X174015000Y-97715000D03*
X172745000Y-97715000D03*
X171475000Y-97715000D03*
X170205000Y-97715000D03*
X168935000Y-97715000D03*
X167665000Y-97715000D03*
X167665000Y-102665000D03*
X168935000Y-102665000D03*
X170205000Y-102665000D03*
X171475000Y-102665000D03*
X172745000Y-102665000D03*
X174015000Y-102665000D03*
X175285000Y-102665000D03*
D12*
X152400000Y-88900000D03*
D20*
X139900000Y-96789583D03*
X139900000Y-99739583D03*
D21*
X138585685Y-104205946D03*
X176700000Y-103500000D03*
X140350000Y-92650000D03*
X135320000Y-95750000D03*
X179000000Y-99000000D03*
X168930000Y-104600000D03*
X174040000Y-104630000D03*
X150100000Y-90200000D03*
X140500000Y-104200000D03*
X123000000Y-93980000D03*
X165240000Y-97820000D03*
X171480000Y-104630000D03*
X160500000Y-103600000D03*
X121195500Y-86700000D03*
X154300000Y-90100000D03*
X137000000Y-95451000D03*
X144900000Y-95451000D03*
X137000000Y-93980000D03*
X124900000Y-93980000D03*
X128700000Y-98800000D03*
X152200000Y-98500000D03*
X127482600Y-98075500D03*
X148800000Y-97575500D03*
X127500000Y-99524500D03*
X121400000Y-105100000D03*
X125345059Y-100249000D03*
X143800000Y-105300000D03*
X155100000Y-86300000D03*
X124000000Y-85900000D03*
X156300000Y-85400000D03*
X132100000Y-85375500D03*
X157700000Y-84700000D03*
X142300000Y-84675500D03*
X158900000Y-88900000D03*
X162600000Y-101300000D03*
X157700000Y-101500000D03*
X163400000Y-90800000D03*
X156500000Y-100500000D03*
X163400000Y-100500000D03*
X155200000Y-99500000D03*
X164124500Y-99500000D03*
X164124500Y-92100000D03*
X143700000Y-94000000D03*
X175300000Y-94000000D03*
X138000000Y-93192600D03*
X138000000Y-94726500D03*
X132537200Y-93141800D03*
X141000000Y-94726500D03*
X129921000Y-97325500D03*
X147818154Y-97125500D03*
X130885397Y-96875500D03*
X146710400Y-96675500D03*
X179000000Y-97400000D03*
X179000000Y-95450500D03*
X174600000Y-99800000D03*
X122402600Y-100973500D03*
X146300000Y-101800000D03*
X124383800Y-100973500D03*
X126200000Y-101075500D03*
X147600000Y-101500000D03*
X148900000Y-101500000D03*
X127700000Y-100625500D03*
X150100000Y-101500000D03*
X128700000Y-100175500D03*
X129900000Y-99725500D03*
X151400000Y-101500000D03*
X152600000Y-101500000D03*
X131300000Y-99275500D03*
X153900000Y-101500000D03*
X132500000Y-98825500D03*
X168940000Y-93780000D03*
X152560000Y-94001500D03*
D22*
X152560000Y-94001500D02*
X152560000Y-92483809D01*
X152560000Y-92483809D02*
X152593809Y-92450000D01*
X177400000Y-85690000D02*
X178785000Y-85690000D01*
X178785000Y-85690000D02*
X179870000Y-86775000D01*
D23*
X177400000Y-90690000D02*
X178905000Y-90690000D01*
X178905000Y-90690000D02*
X179870000Y-89725000D01*
D22*
X172745400Y-85826600D02*
X169229100Y-85826600D01*
X169229100Y-85826600D02*
X169202500Y-85800000D01*
X162585400Y-85826600D02*
X166250900Y-85826600D01*
X166250900Y-85826600D02*
X166277500Y-85800000D01*
D23*
X133815000Y-102502500D02*
X135612500Y-104300000D01*
X176725000Y-103475000D02*
X179000000Y-103475000D01*
X176700000Y-103500000D02*
X176120000Y-103500000D01*
X140121235Y-92878765D02*
X140350000Y-92650000D01*
X176120000Y-103500000D02*
X175285000Y-102665000D01*
X140350000Y-92650000D02*
X140550000Y-92450000D01*
X138529739Y-104150000D02*
X138585685Y-104205946D01*
X136300000Y-104150000D02*
X138529739Y-104150000D01*
X140121235Y-96568348D02*
X140121235Y-92878765D01*
X135612500Y-104300000D02*
X136150000Y-104300000D01*
X139900000Y-96789583D02*
X140121235Y-96568348D01*
X140550000Y-92450000D02*
X142433809Y-92450000D01*
X176700000Y-103500000D02*
X176725000Y-103475000D01*
X122385000Y-94595000D02*
X123000000Y-93980000D01*
X174015000Y-104605000D02*
X174015000Y-102665000D01*
X171475000Y-102665000D02*
X171475000Y-104625000D01*
X141903809Y-104140000D02*
X140560000Y-104140000D01*
X135147500Y-95577500D02*
X133815000Y-95577500D01*
X140500000Y-104200000D02*
X140500000Y-100339583D01*
X174040000Y-104630000D02*
X174015000Y-104605000D01*
X135320000Y-95750000D02*
X135320000Y-95895000D01*
X159003809Y-103550000D02*
X160450000Y-103550000D01*
X168935000Y-104595000D02*
X168930000Y-104600000D01*
X135320000Y-95895000D02*
X136300000Y-96875000D01*
X165280000Y-97780000D02*
X167600000Y-97780000D01*
X171475000Y-104625000D02*
X171480000Y-104630000D01*
X122385000Y-95577500D02*
X122385000Y-94595000D01*
X140500000Y-100339583D02*
X139900000Y-99739583D01*
X160450000Y-103550000D02*
X160500000Y-103600000D01*
X123655000Y-95577500D02*
X123655000Y-94635000D01*
X142493809Y-103550000D02*
X141903809Y-104140000D01*
X140560000Y-104140000D02*
X140500000Y-104200000D01*
X135320000Y-95750000D02*
X135147500Y-95577500D01*
X136300000Y-96875000D02*
X136300000Y-101200000D01*
X165240000Y-97820000D02*
X165280000Y-97780000D01*
X123655000Y-94635000D02*
X123000000Y-93980000D01*
X167600000Y-97780000D02*
X167665000Y-97715000D01*
X150053809Y-90246191D02*
X150100000Y-90200000D01*
X150053809Y-92450000D02*
X150053809Y-90246191D01*
X168935000Y-102665000D02*
X168935000Y-104595000D01*
X179000000Y-100525000D02*
X179000000Y-99000000D01*
D22*
X121195500Y-86700000D02*
X121195500Y-87084500D01*
X121195500Y-87084500D02*
X119380000Y-88900000D01*
X154300000Y-90100000D02*
X153863809Y-90536191D01*
X153863809Y-90536191D02*
X153863809Y-92450000D01*
X124900000Y-93980000D02*
X124900000Y-95552500D01*
X124900000Y-95552500D02*
X124925000Y-95577500D01*
X144973809Y-95377191D02*
X144900000Y-95451000D01*
X144973809Y-92450000D02*
X144973809Y-95377191D01*
X137000000Y-95451000D02*
X137000000Y-93980000D01*
X151323809Y-97623809D02*
X151323809Y-92450000D01*
X128700000Y-95612500D02*
X128735000Y-95577500D01*
X152200000Y-98500000D02*
X151323809Y-97623809D01*
X128700000Y-98800000D02*
X128700000Y-95612500D01*
X148783809Y-97559309D02*
X148783809Y-92450000D01*
X127482600Y-98075500D02*
X127482600Y-95595100D01*
X127500000Y-98092900D02*
X127500000Y-99524500D01*
X127482600Y-95595100D02*
X127465000Y-95577500D01*
X127482600Y-98075500D02*
X127500000Y-98092900D01*
X148800000Y-97575500D02*
X148783809Y-97559309D01*
X143763809Y-103550000D02*
X143763809Y-104936191D01*
X143763809Y-104936191D02*
X143763809Y-105263809D01*
X126195000Y-95577500D02*
X126300000Y-95682500D01*
X143763809Y-105263809D02*
X143800000Y-105300000D01*
X121400000Y-103620000D02*
X119380000Y-101600000D01*
X121400000Y-105100000D02*
X121400000Y-103620000D01*
X125394059Y-100200000D02*
X125345059Y-100249000D01*
X126300000Y-95682500D02*
X126300000Y-100200000D01*
X126300000Y-100200000D02*
X125394059Y-100200000D01*
X155100000Y-86300000D02*
X155133809Y-86333809D01*
X121920000Y-87980000D02*
X121920000Y-88900000D01*
X124000000Y-85900000D02*
X121920000Y-87980000D01*
X155133809Y-86333809D02*
X155133809Y-92450000D01*
X132100000Y-85375500D02*
X132080000Y-85395500D01*
X132080000Y-85395500D02*
X132080000Y-88900000D01*
X156403809Y-85503809D02*
X156403809Y-92450000D01*
X156300000Y-85400000D02*
X156403809Y-85503809D01*
X142300000Y-84675500D02*
X142240000Y-84735500D01*
X157700000Y-84700000D02*
X157673809Y-84726191D01*
X157673809Y-84726191D02*
X157673809Y-92450000D01*
X142240000Y-84735500D02*
X142240000Y-88900000D01*
X158943809Y-88943809D02*
X158900000Y-88900000D01*
X158943809Y-92450000D02*
X158943809Y-88943809D01*
X162560000Y-101260000D02*
X162560000Y-88900000D01*
X162600000Y-101300000D02*
X162560000Y-101260000D01*
X157733809Y-103550000D02*
X157733809Y-101533809D01*
X157733809Y-101533809D02*
X157700000Y-101500000D01*
X156463809Y-100536191D02*
X156463809Y-103550000D01*
X163400000Y-100500000D02*
X163400000Y-90800000D01*
X156500000Y-100500000D02*
X156463809Y-100536191D01*
X155193809Y-99506191D02*
X155193809Y-103550000D01*
X164124500Y-99500000D02*
X164124500Y-92100000D01*
X155200000Y-99500000D02*
X155193809Y-99506191D01*
X143700000Y-94000000D02*
X143700000Y-92453809D01*
X175300000Y-97700000D02*
X175285000Y-97715000D01*
X175300000Y-94000000D02*
X175300000Y-97700000D01*
X145033809Y-103550000D02*
X145033809Y-99663809D01*
X145033809Y-99663809D02*
X141000000Y-95630000D01*
X132537200Y-95569700D02*
X132545000Y-95577500D01*
X141000000Y-95630000D02*
X141000000Y-94726500D01*
X138000000Y-94726500D02*
X138000000Y-93192600D01*
X132537200Y-93141800D02*
X132537200Y-95569700D01*
X130005000Y-97005000D02*
X130165000Y-97165000D01*
X130005000Y-95577500D02*
X130005000Y-97005000D01*
X147513809Y-96821155D02*
X147513809Y-92450000D01*
X147818154Y-97125500D02*
X147513809Y-96821155D01*
X179000000Y-97400000D02*
X179000000Y-95450500D01*
X146243809Y-96208909D02*
X146243809Y-92450000D01*
X131275000Y-96485897D02*
X131275000Y-95577500D01*
X146710400Y-96675500D02*
X146243809Y-96208909D01*
X130885397Y-96875500D02*
X131275000Y-96485897D01*
X122385000Y-100991100D02*
X122385000Y-102502500D01*
X174015000Y-97715000D02*
X174015000Y-99215000D01*
X174015000Y-99215000D02*
X174600000Y-99800000D01*
X122402600Y-100973500D02*
X122385000Y-100991100D01*
X124383800Y-100973500D02*
X124925000Y-101514700D01*
X124925000Y-101514700D02*
X124925000Y-102502500D01*
X146303809Y-103550000D02*
X146303809Y-101803809D01*
X146303809Y-101803809D02*
X146300000Y-101800000D01*
X147573809Y-101526191D02*
X147573809Y-103550000D01*
X147600000Y-101500000D02*
X147573809Y-101526191D01*
X126200000Y-102497500D02*
X126195000Y-102502500D01*
X126200000Y-101075500D02*
X126200000Y-102497500D01*
X148843809Y-101556191D02*
X148843809Y-103550000D01*
X148900000Y-101500000D02*
X148843809Y-101556191D01*
X127465000Y-100860500D02*
X127465000Y-102502500D01*
X127700000Y-100625500D02*
X127465000Y-100860500D01*
X150113809Y-101513809D02*
X150113809Y-103550000D01*
X128700000Y-100175500D02*
X128700000Y-102467500D01*
X128700000Y-102467500D02*
X128735000Y-102502500D01*
X150100000Y-101500000D02*
X150113809Y-101513809D01*
X151383809Y-103516191D02*
X151383809Y-103550000D01*
X129900000Y-99725500D02*
X130000000Y-99825500D01*
X130000000Y-99825500D02*
X130000000Y-102497500D01*
X130000000Y-102497500D02*
X130005000Y-102502500D01*
X151400000Y-103500000D02*
X151383809Y-103516191D01*
X151400000Y-101500000D02*
X151400000Y-103500000D01*
X131300000Y-102477500D02*
X131275000Y-102502500D01*
X152600000Y-101500000D02*
X152653809Y-101553809D01*
X152653809Y-101553809D02*
X152653809Y-103550000D01*
X131300000Y-99275500D02*
X131300000Y-102477500D01*
X153923809Y-101523809D02*
X153923809Y-103550000D01*
X132500000Y-98825500D02*
X132500000Y-102457500D01*
X153900000Y-101500000D02*
X153923809Y-101523809D01*
X132500000Y-102457500D02*
X132545000Y-102502500D01*
X172882000Y-85690000D02*
X172745400Y-85826600D01*
X174840000Y-89182200D02*
X177400000Y-86622200D01*
X177400000Y-86622200D02*
X177400000Y-85690000D01*
X172745000Y-93285000D02*
X174840000Y-91190000D01*
X177400000Y-85690000D02*
X172882000Y-85690000D01*
X174840000Y-91190000D02*
X174840000Y-89182200D01*
X172745000Y-97715000D02*
X172745000Y-93285000D01*
X171475098Y-94290088D02*
X171391048Y-94206038D01*
X171475098Y-97714902D02*
X171475098Y-94290088D01*
X171391048Y-94206038D02*
X170207894Y-94206038D01*
X171475000Y-97715000D02*
X171475098Y-97714902D01*
X170205000Y-94208932D02*
X170205000Y-97715000D01*
X170207894Y-94206038D02*
X170205000Y-94208932D01*
X168935000Y-97715000D02*
X168935000Y-93785000D01*
X168935000Y-93785000D02*
X168940000Y-93780000D01*
M02*
