G04 #@! TF.GenerationSoftware,KiCad,Pcbnew,6.0.10-86aedd382b~118~ubuntu20.04.1*
G04 #@! TF.CreationDate,2022-12-28T18:12:39+00:00*
G04 #@! TF.ProjectId,slrm,736c726d-2e6b-4696-9361-645f70636258,rev?*
G04 #@! TF.SameCoordinates,Original*
G04 #@! TF.FileFunction,Legend,Top*
G04 #@! TF.FilePolarity,Positive*
%FSLAX46Y46*%
G04 Gerber Fmt 4.6, Leading zero omitted, Abs format (unit mm)*
G04 Created by KiCad (PCBNEW 6.0.10-86aedd382b~118~ubuntu20.04.1) date 2022-12-28 18:12:39*
%MOMM*%
%LPD*%
G01*
G04 APERTURE LIST*
G04 Aperture macros list*
%AMRoundRect*
0 Rectangle with rounded corners*
0 $1 Rounding radius*
0 $2 $3 $4 $5 $6 $7 $8 $9 X,Y pos of 4 corners*
0 Add a 4 corners polygon primitive as box body*
4,1,4,$2,$3,$4,$5,$6,$7,$8,$9,$2,$3,0*
0 Add four circle primitives for the rounded corners*
1,1,$1+$1,$2,$3*
1,1,$1+$1,$4,$5*
1,1,$1+$1,$6,$7*
1,1,$1+$1,$8,$9*
0 Add four rect primitives between the rounded corners*
20,1,$1+$1,$2,$3,$4,$5,0*
20,1,$1+$1,$4,$5,$6,$7,0*
20,1,$1+$1,$6,$7,$8,$9,0*
20,1,$1+$1,$8,$9,$2,$3,0*%
G04 Aperture macros list end*
%ADD10C,0.150000*%
%ADD11C,0.125000*%
%ADD12C,0.120000*%
%ADD13C,0.200000*%
%ADD14C,0.223606*%
%ADD15RoundRect,0.250000X-0.312500X-0.625000X0.312500X-0.625000X0.312500X0.625000X-0.312500X0.625000X0*%
%ADD16RoundRect,0.250000X0.650000X-0.325000X0.650000X0.325000X-0.650000X0.325000X-0.650000X-0.325000X0*%
%ADD17R,1.350000X1.350000*%
%ADD18C,1.600000*%
%ADD19O,0.600000X2.250000*%
%ADD20R,1.700000X1.700000*%
%ADD21O,1.700000X1.700000*%
%ADD22O,1.600000X1.600000*%
%ADD23RoundRect,0.150000X-0.150000X0.837500X-0.150000X-0.837500X0.150000X-0.837500X0.150000X0.837500X0*%
%ADD24RoundRect,0.150000X-0.150000X0.825000X-0.150000X-0.825000X0.150000X-0.825000X0.150000X0.825000X0*%
%ADD25RoundRect,0.250000X-0.650000X0.325000X-0.650000X-0.325000X0.650000X-0.325000X0.650000X0.325000X0*%
G04 APERTURE END LIST*
D10*
X135160000Y-94630000D02*
G75*
G03*
X135160000Y-94630000I-100000J0D01*
G01*
X176580000Y-96820000D02*
G75*
G03*
X176580000Y-96820000I-100000J0D01*
G01*
D11*
X159833990Y-105170314D02*
X159833990Y-105979838D01*
X159810180Y-106075076D01*
X159786371Y-106122695D01*
X159738752Y-106170314D01*
X159667323Y-106170314D01*
X159619704Y-106122695D01*
X159833990Y-105789361D02*
X159786371Y-105836980D01*
X159691133Y-105836980D01*
X159643514Y-105789361D01*
X159619704Y-105741742D01*
X159595895Y-105646504D01*
X159595895Y-105360790D01*
X159619704Y-105265552D01*
X159643514Y-105217933D01*
X159691133Y-105170314D01*
X159786371Y-105170314D01*
X159833990Y-105217933D01*
X160072085Y-105836980D02*
X160072085Y-105170314D01*
X160072085Y-104836980D02*
X160048276Y-104884600D01*
X160072085Y-104932219D01*
X160095895Y-104884600D01*
X160072085Y-104836980D01*
X160072085Y-104932219D01*
X160238752Y-105170314D02*
X160429228Y-105170314D01*
X160310180Y-104836980D02*
X160310180Y-105694123D01*
X160333990Y-105789361D01*
X160381609Y-105836980D01*
X160429228Y-105836980D01*
X160595895Y-105836980D02*
X160595895Y-104836980D01*
X160810180Y-105836980D02*
X160810180Y-105313171D01*
X160786371Y-105217933D01*
X160738752Y-105170314D01*
X160667323Y-105170314D01*
X160619704Y-105217933D01*
X160595895Y-105265552D01*
X161262561Y-105170314D02*
X161262561Y-105836980D01*
X161048276Y-105170314D02*
X161048276Y-105694123D01*
X161072085Y-105789361D01*
X161119704Y-105836980D01*
X161191133Y-105836980D01*
X161238752Y-105789361D01*
X161262561Y-105741742D01*
X161500657Y-105836980D02*
X161500657Y-104836980D01*
X161500657Y-105217933D02*
X161548276Y-105170314D01*
X161643514Y-105170314D01*
X161691133Y-105217933D01*
X161714942Y-105265552D01*
X161738752Y-105360790D01*
X161738752Y-105646504D01*
X161714942Y-105741742D01*
X161691133Y-105789361D01*
X161643514Y-105836980D01*
X161548276Y-105836980D01*
X161500657Y-105789361D01*
X161953038Y-105741742D02*
X161976847Y-105789361D01*
X161953038Y-105836980D01*
X161929228Y-105789361D01*
X161953038Y-105741742D01*
X161953038Y-105836980D01*
X162405419Y-105789361D02*
X162357800Y-105836980D01*
X162262561Y-105836980D01*
X162214942Y-105789361D01*
X162191133Y-105741742D01*
X162167323Y-105646504D01*
X162167323Y-105360790D01*
X162191133Y-105265552D01*
X162214942Y-105217933D01*
X162262561Y-105170314D01*
X162357800Y-105170314D01*
X162405419Y-105217933D01*
X162691133Y-105836980D02*
X162643514Y-105789361D01*
X162619704Y-105741742D01*
X162595895Y-105646504D01*
X162595895Y-105360790D01*
X162619704Y-105265552D01*
X162643514Y-105217933D01*
X162691133Y-105170314D01*
X162762561Y-105170314D01*
X162810180Y-105217933D01*
X162833990Y-105265552D01*
X162857800Y-105360790D01*
X162857800Y-105646504D01*
X162833990Y-105741742D01*
X162810180Y-105789361D01*
X162762561Y-105836980D01*
X162691133Y-105836980D01*
X163072085Y-105836980D02*
X163072085Y-105170314D01*
X163072085Y-105265552D02*
X163095895Y-105217933D01*
X163143514Y-105170314D01*
X163214942Y-105170314D01*
X163262561Y-105217933D01*
X163286371Y-105313171D01*
X163286371Y-105836980D01*
X163286371Y-105313171D02*
X163310180Y-105217933D01*
X163357800Y-105170314D01*
X163429228Y-105170314D01*
X163476847Y-105217933D01*
X163500657Y-105313171D01*
X163500657Y-105836980D01*
X164095895Y-104789361D02*
X163667323Y-106075076D01*
X164476847Y-105836980D02*
X164476847Y-104836980D01*
X164476847Y-105789361D02*
X164429228Y-105836980D01*
X164333990Y-105836980D01*
X164286371Y-105789361D01*
X164262561Y-105741742D01*
X164238752Y-105646504D01*
X164238752Y-105360790D01*
X164262561Y-105265552D01*
X164286371Y-105217933D01*
X164333990Y-105170314D01*
X164429228Y-105170314D01*
X164476847Y-105217933D01*
X164905419Y-105789361D02*
X164857800Y-105836980D01*
X164762561Y-105836980D01*
X164714942Y-105789361D01*
X164691133Y-105694123D01*
X164691133Y-105313171D01*
X164714942Y-105217933D01*
X164762561Y-105170314D01*
X164857800Y-105170314D01*
X164905419Y-105217933D01*
X164929228Y-105313171D01*
X164929228Y-105408409D01*
X164691133Y-105503647D01*
X165143514Y-105836980D02*
X165143514Y-105170314D01*
X165143514Y-105360790D02*
X165167323Y-105265552D01*
X165191133Y-105217933D01*
X165238752Y-105170314D01*
X165286371Y-105170314D01*
X165643514Y-105789361D02*
X165595895Y-105836980D01*
X165500657Y-105836980D01*
X165453038Y-105789361D01*
X165429228Y-105694123D01*
X165429228Y-105313171D01*
X165453038Y-105217933D01*
X165500657Y-105170314D01*
X165595895Y-105170314D01*
X165643514Y-105217933D01*
X165667323Y-105313171D01*
X165667323Y-105408409D01*
X165429228Y-105503647D01*
X165881609Y-105836980D02*
X165881609Y-104836980D01*
X165929228Y-105456028D02*
X166072085Y-105836980D01*
X166072085Y-105170314D02*
X165881609Y-105551266D01*
X166214942Y-105170314D02*
X166405419Y-105170314D01*
X166286371Y-105836980D02*
X166286371Y-104979838D01*
X166310180Y-104884600D01*
X166357800Y-104836980D01*
X166405419Y-104836980D01*
X166643514Y-105836980D02*
X166595895Y-105789361D01*
X166572085Y-105741742D01*
X166548276Y-105646504D01*
X166548276Y-105360790D01*
X166572085Y-105265552D01*
X166595895Y-105217933D01*
X166643514Y-105170314D01*
X166714942Y-105170314D01*
X166762561Y-105217933D01*
X166786371Y-105265552D01*
X166810180Y-105360790D01*
X166810180Y-105646504D01*
X166786371Y-105741742D01*
X166762561Y-105789361D01*
X166714942Y-105836980D01*
X166643514Y-105836980D01*
X167238752Y-105170314D02*
X167238752Y-105836980D01*
X167024466Y-105170314D02*
X167024466Y-105694123D01*
X167048276Y-105789361D01*
X167095895Y-105836980D01*
X167167323Y-105836980D01*
X167214942Y-105789361D01*
X167238752Y-105741742D01*
X167476847Y-105170314D02*
X167476847Y-105836980D01*
X167476847Y-105265552D02*
X167500657Y-105217933D01*
X167548276Y-105170314D01*
X167619704Y-105170314D01*
X167667323Y-105217933D01*
X167691133Y-105313171D01*
X167691133Y-105836980D01*
X167857800Y-105170314D02*
X168048276Y-105170314D01*
X167929228Y-104836980D02*
X167929228Y-105694123D01*
X167953038Y-105789361D01*
X168000657Y-105836980D01*
X168048276Y-105836980D01*
X168429228Y-105836980D02*
X168429228Y-105313171D01*
X168405419Y-105217933D01*
X168357800Y-105170314D01*
X168262561Y-105170314D01*
X168214942Y-105217933D01*
X168429228Y-105789361D02*
X168381609Y-105836980D01*
X168262561Y-105836980D01*
X168214942Y-105789361D01*
X168191133Y-105694123D01*
X168191133Y-105598885D01*
X168214942Y-105503647D01*
X168262561Y-105456028D01*
X168381609Y-105456028D01*
X168429228Y-105408409D01*
X168667323Y-105836980D02*
X168667323Y-105170314D01*
X168667323Y-104836980D02*
X168643514Y-104884600D01*
X168667323Y-104932219D01*
X168691133Y-104884600D01*
X168667323Y-104836980D01*
X168667323Y-104932219D01*
X168905419Y-105170314D02*
X168905419Y-105836980D01*
X168905419Y-105265552D02*
X168929228Y-105217933D01*
X168976847Y-105170314D01*
X169048276Y-105170314D01*
X169095895Y-105217933D01*
X169119704Y-105313171D01*
X169119704Y-105836980D01*
X169714942Y-104789361D02*
X169286371Y-106075076D01*
X169833990Y-105170314D02*
X170095895Y-105170314D01*
X169833990Y-105836980D01*
X170095895Y-105836980D01*
X170238752Y-105836980D02*
X170500657Y-105170314D01*
X170238752Y-105170314D02*
X170500657Y-105836980D01*
X170691133Y-105456028D02*
X171072085Y-105456028D01*
X171286371Y-105789361D02*
X171333990Y-105836980D01*
X171429228Y-105836980D01*
X171476847Y-105789361D01*
X171500657Y-105694123D01*
X171500657Y-105646504D01*
X171476847Y-105551266D01*
X171429228Y-105503647D01*
X171357800Y-105503647D01*
X171310180Y-105456028D01*
X171286371Y-105360790D01*
X171286371Y-105313171D01*
X171310180Y-105217933D01*
X171357800Y-105170314D01*
X171429228Y-105170314D01*
X171476847Y-105217933D01*
X171714942Y-105170314D02*
X171714942Y-106170314D01*
X171714942Y-105217933D02*
X171762561Y-105170314D01*
X171857800Y-105170314D01*
X171905419Y-105217933D01*
X171929228Y-105265552D01*
X171953038Y-105360790D01*
X171953038Y-105646504D01*
X171929228Y-105741742D01*
X171905419Y-105789361D01*
X171857800Y-105836980D01*
X171762561Y-105836980D01*
X171714942Y-105789361D01*
X172357800Y-105789361D02*
X172310180Y-105836980D01*
X172214942Y-105836980D01*
X172167323Y-105789361D01*
X172143514Y-105694123D01*
X172143514Y-105313171D01*
X172167323Y-105217933D01*
X172214942Y-105170314D01*
X172310180Y-105170314D01*
X172357800Y-105217933D01*
X172381609Y-105313171D01*
X172381609Y-105408409D01*
X172143514Y-105503647D01*
X172810180Y-105789361D02*
X172762561Y-105836980D01*
X172667323Y-105836980D01*
X172619704Y-105789361D01*
X172595895Y-105741742D01*
X172572085Y-105646504D01*
X172572085Y-105360790D01*
X172595895Y-105265552D01*
X172619704Y-105217933D01*
X172667323Y-105170314D01*
X172762561Y-105170314D01*
X172810180Y-105217933D01*
X172953038Y-105170314D02*
X173143514Y-105170314D01*
X173024466Y-104836980D02*
X173024466Y-105694123D01*
X173048276Y-105789361D01*
X173095895Y-105836980D01*
X173143514Y-105836980D01*
X173310180Y-105836980D02*
X173310180Y-105170314D01*
X173310180Y-105360790D02*
X173333990Y-105265552D01*
X173357800Y-105217933D01*
X173405419Y-105170314D01*
X173453038Y-105170314D01*
X173833990Y-105170314D02*
X173833990Y-105836980D01*
X173619704Y-105170314D02*
X173619704Y-105694123D01*
X173643514Y-105789361D01*
X173691133Y-105836980D01*
X173762561Y-105836980D01*
X173810180Y-105789361D01*
X173833990Y-105741742D01*
X174072085Y-105836980D02*
X174072085Y-105170314D01*
X174072085Y-105265552D02*
X174095895Y-105217933D01*
X174143514Y-105170314D01*
X174214942Y-105170314D01*
X174262561Y-105217933D01*
X174286371Y-105313171D01*
X174286371Y-105836980D01*
X174286371Y-105313171D02*
X174310180Y-105217933D01*
X174357800Y-105170314D01*
X174429228Y-105170314D01*
X174476847Y-105217933D01*
X174500657Y-105313171D01*
X174500657Y-105836980D01*
X174738752Y-105456028D02*
X175119704Y-105456028D01*
X175429228Y-105836980D02*
X175381609Y-105789361D01*
X175357800Y-105694123D01*
X175357800Y-104836980D01*
X175691133Y-105836980D02*
X175643514Y-105789361D01*
X175619704Y-105741742D01*
X175595895Y-105646504D01*
X175595895Y-105360790D01*
X175619704Y-105265552D01*
X175643514Y-105217933D01*
X175691133Y-105170314D01*
X175762561Y-105170314D01*
X175810180Y-105217933D01*
X175833990Y-105265552D01*
X175857800Y-105360790D01*
X175857800Y-105646504D01*
X175833990Y-105741742D01*
X175810180Y-105789361D01*
X175762561Y-105836980D01*
X175691133Y-105836980D01*
X176024466Y-105170314D02*
X176119704Y-105836980D01*
X176214942Y-105360790D01*
X176310180Y-105836980D01*
X176405419Y-105170314D01*
X176786371Y-105789361D02*
X176738752Y-105836980D01*
X176643514Y-105836980D01*
X176595895Y-105789361D01*
X176572085Y-105694123D01*
X176572085Y-105313171D01*
X176595895Y-105217933D01*
X176643514Y-105170314D01*
X176738752Y-105170314D01*
X176786371Y-105217933D01*
X176810180Y-105313171D01*
X176810180Y-105408409D01*
X176572085Y-105503647D01*
X177024466Y-105836980D02*
X177024466Y-105170314D01*
X177024466Y-105360790D02*
X177048276Y-105265552D01*
X177072085Y-105217933D01*
X177119704Y-105170314D01*
X177167323Y-105170314D01*
X177333990Y-105456028D02*
X177714942Y-105456028D01*
X177953038Y-105836980D02*
X177953038Y-105170314D01*
X177953038Y-105360790D02*
X177976847Y-105265552D01*
X178000657Y-105217933D01*
X178048276Y-105170314D01*
X178095895Y-105170314D01*
X178476847Y-105836980D02*
X178476847Y-105313171D01*
X178453038Y-105217933D01*
X178405419Y-105170314D01*
X178310180Y-105170314D01*
X178262561Y-105217933D01*
X178476847Y-105789361D02*
X178429228Y-105836980D01*
X178310180Y-105836980D01*
X178262561Y-105789361D01*
X178238752Y-105694123D01*
X178238752Y-105598885D01*
X178262561Y-105503647D01*
X178310180Y-105456028D01*
X178429228Y-105456028D01*
X178476847Y-105408409D01*
X178714942Y-105836980D02*
X178714942Y-105170314D01*
X178714942Y-105265552D02*
X178738752Y-105217933D01*
X178786371Y-105170314D01*
X178857800Y-105170314D01*
X178905419Y-105217933D01*
X178929228Y-105313171D01*
X178929228Y-105836980D01*
X178929228Y-105313171D02*
X178953038Y-105217933D01*
X179000657Y-105170314D01*
X179072085Y-105170314D01*
X179119704Y-105217933D01*
X179143514Y-105313171D01*
X179143514Y-105836980D01*
X179714942Y-105170314D02*
X179833990Y-105836980D01*
X179953038Y-105170314D01*
X180405419Y-105836980D02*
X180119704Y-105836980D01*
X180262561Y-105836980D02*
X180262561Y-104836980D01*
X180214942Y-104979838D01*
X180167323Y-105075076D01*
X180119704Y-105122695D01*
X180619704Y-105741742D02*
X180643514Y-105789361D01*
X180619704Y-105836980D01*
X180595895Y-105789361D01*
X180619704Y-105741742D01*
X180619704Y-105836980D01*
X180833990Y-104932219D02*
X180857800Y-104884600D01*
X180905419Y-104836980D01*
X181024466Y-104836980D01*
X181072085Y-104884600D01*
X181095895Y-104932219D01*
X181119704Y-105027457D01*
X181119704Y-105122695D01*
X181095895Y-105265552D01*
X180810180Y-105836980D01*
X181119704Y-105836980D01*
D10*
X179726666Y-88717142D02*
X179688571Y-88764761D01*
X179574285Y-88812380D01*
X179498095Y-88812380D01*
X179383809Y-88764761D01*
X179307619Y-88669523D01*
X179269523Y-88574285D01*
X179231428Y-88383809D01*
X179231428Y-88240952D01*
X179269523Y-88050476D01*
X179307619Y-87955238D01*
X179383809Y-87860000D01*
X179498095Y-87812380D01*
X179574285Y-87812380D01*
X179688571Y-87860000D01*
X179726666Y-87907619D01*
X180412380Y-88145714D02*
X180412380Y-88812380D01*
X180221904Y-87764761D02*
X180031428Y-88479047D01*
X180526666Y-88479047D01*
X123861904Y-89322380D02*
X123861904Y-88322380D01*
X124100000Y-88322380D01*
X124242857Y-88370000D01*
X124338095Y-88465238D01*
X124385714Y-88560476D01*
X124433333Y-88750952D01*
X124433333Y-88893809D01*
X124385714Y-89084285D01*
X124338095Y-89179523D01*
X124242857Y-89274761D01*
X124100000Y-89322380D01*
X123861904Y-89322380D01*
X125290476Y-88322380D02*
X125100000Y-88322380D01*
X125004761Y-88370000D01*
X124957142Y-88417619D01*
X124861904Y-88560476D01*
X124814285Y-88750952D01*
X124814285Y-89131904D01*
X124861904Y-89227142D01*
X124909523Y-89274761D01*
X125004761Y-89322380D01*
X125195238Y-89322380D01*
X125290476Y-89274761D01*
X125338095Y-89227142D01*
X125385714Y-89131904D01*
X125385714Y-88893809D01*
X125338095Y-88798571D01*
X125290476Y-88750952D01*
X125195238Y-88703333D01*
X125004761Y-88703333D01*
X124909523Y-88750952D01*
X124861904Y-88798571D01*
X124814285Y-88893809D01*
X164381904Y-89872380D02*
X164381904Y-88872380D01*
X164620000Y-88872380D01*
X164762857Y-88920000D01*
X164858095Y-89015238D01*
X164905714Y-89110476D01*
X164953333Y-89300952D01*
X164953333Y-89443809D01*
X164905714Y-89634285D01*
X164858095Y-89729523D01*
X164762857Y-89824761D01*
X164620000Y-89872380D01*
X164381904Y-89872380D01*
X165334285Y-88967619D02*
X165381904Y-88920000D01*
X165477142Y-88872380D01*
X165715238Y-88872380D01*
X165810476Y-88920000D01*
X165858095Y-88967619D01*
X165905714Y-89062857D01*
X165905714Y-89158095D01*
X165858095Y-89300952D01*
X165286666Y-89872380D01*
X165905714Y-89872380D01*
X177193333Y-88887142D02*
X177145714Y-88934761D01*
X177002857Y-88982380D01*
X176907619Y-88982380D01*
X176764761Y-88934761D01*
X176669523Y-88839523D01*
X176621904Y-88744285D01*
X176574285Y-88553809D01*
X176574285Y-88410952D01*
X176621904Y-88220476D01*
X176669523Y-88125238D01*
X176764761Y-88030000D01*
X176907619Y-87982380D01*
X177002857Y-87982380D01*
X177145714Y-88030000D01*
X177193333Y-88077619D01*
X178050476Y-88315714D02*
X178050476Y-88982380D01*
X177812380Y-87934761D02*
X177574285Y-88649047D01*
X178193333Y-88649047D01*
X144151904Y-89382380D02*
X144151904Y-88382380D01*
X144390000Y-88382380D01*
X144532857Y-88430000D01*
X144628095Y-88525238D01*
X144675714Y-88620476D01*
X144723333Y-88810952D01*
X144723333Y-88953809D01*
X144675714Y-89144285D01*
X144628095Y-89239523D01*
X144532857Y-89334761D01*
X144390000Y-89382380D01*
X144151904Y-89382380D01*
X145580476Y-88715714D02*
X145580476Y-89382380D01*
X145342380Y-88334761D02*
X145104285Y-89049047D01*
X145723333Y-89049047D01*
X161405316Y-100265003D02*
X161453000Y-100121950D01*
X161453000Y-99883529D01*
X161405316Y-99788160D01*
X161357632Y-99740476D01*
X161262263Y-99692792D01*
X161166895Y-99692792D01*
X161071526Y-99740476D01*
X161023842Y-99788160D01*
X160976157Y-99883529D01*
X160928473Y-100074266D01*
X160880789Y-100169635D01*
X160833105Y-100217319D01*
X160737736Y-100265003D01*
X160642367Y-100265003D01*
X160546999Y-100217319D01*
X160499315Y-100169635D01*
X160451630Y-100074266D01*
X160451630Y-99835845D01*
X160499315Y-99692792D01*
X161453000Y-98691422D02*
X160976157Y-99025212D01*
X161453000Y-99263633D02*
X160451630Y-99263633D01*
X160451630Y-98882159D01*
X160499315Y-98786790D01*
X160546999Y-98739106D01*
X160642367Y-98691422D01*
X160785420Y-98691422D01*
X160880789Y-98739106D01*
X160928473Y-98786790D01*
X160976157Y-98882159D01*
X160976157Y-99263633D01*
X161166895Y-98309947D02*
X161166895Y-97833105D01*
X161453000Y-98405316D02*
X160451630Y-98071526D01*
X161453000Y-97737736D01*
X161453000Y-97403946D02*
X160451630Y-97403946D01*
X161166895Y-97070156D01*
X160451630Y-96736366D01*
X161453000Y-96736366D01*
X161453000Y-95734996D02*
X161453000Y-96307207D01*
X161453000Y-96021102D02*
X160451630Y-96021102D01*
X160594683Y-96116470D01*
X160690052Y-96211839D01*
X160737736Y-96307207D01*
X121326666Y-91522380D02*
X121326666Y-92236666D01*
X121279047Y-92379523D01*
X121183809Y-92474761D01*
X121040952Y-92522380D01*
X120945714Y-92522380D01*
X122326666Y-92522380D02*
X121755238Y-92522380D01*
X122040952Y-92522380D02*
X122040952Y-91522380D01*
X121945714Y-91665238D01*
X121850476Y-91760476D01*
X121755238Y-91808095D01*
X177507142Y-102166666D02*
X177554761Y-102214285D01*
X177602380Y-102357142D01*
X177602380Y-102452380D01*
X177554761Y-102595238D01*
X177459523Y-102690476D01*
X177364285Y-102738095D01*
X177173809Y-102785714D01*
X177030952Y-102785714D01*
X176840476Y-102738095D01*
X176745238Y-102690476D01*
X176650000Y-102595238D01*
X176602380Y-102452380D01*
X176602380Y-102357142D01*
X176650000Y-102214285D01*
X176697619Y-102166666D01*
X177602380Y-101214285D02*
X177602380Y-101785714D01*
X177602380Y-101500000D02*
X176602380Y-101500000D01*
X176745238Y-101595238D01*
X176840476Y-101690476D01*
X176888095Y-101785714D01*
X167573333Y-88522380D02*
X167240000Y-88046190D01*
X167001904Y-88522380D02*
X167001904Y-87522380D01*
X167382857Y-87522380D01*
X167478095Y-87570000D01*
X167525714Y-87617619D01*
X167573333Y-87712857D01*
X167573333Y-87855714D01*
X167525714Y-87950952D01*
X167478095Y-87998571D01*
X167382857Y-88046190D01*
X167001904Y-88046190D01*
X168525714Y-88522380D02*
X167954285Y-88522380D01*
X168240000Y-88522380D02*
X168240000Y-87522380D01*
X168144761Y-87665238D01*
X168049523Y-87760476D01*
X167954285Y-87808095D01*
X138316968Y-102841666D02*
X138364587Y-102889285D01*
X138412206Y-103032142D01*
X138412206Y-103127380D01*
X138364587Y-103270238D01*
X138269349Y-103365476D01*
X138174111Y-103413095D01*
X137983635Y-103460714D01*
X137840778Y-103460714D01*
X137650302Y-103413095D01*
X137555064Y-103365476D01*
X137459826Y-103270238D01*
X137412206Y-103127380D01*
X137412206Y-103032142D01*
X137459826Y-102889285D01*
X137507445Y-102841666D01*
X137507445Y-102460714D02*
X137459826Y-102413095D01*
X137412206Y-102317857D01*
X137412206Y-102079761D01*
X137459826Y-101984523D01*
X137507445Y-101936904D01*
X137602683Y-101889285D01*
X137697921Y-101889285D01*
X137840778Y-101936904D01*
X138412206Y-102508333D01*
X138412206Y-101889285D01*
X179816666Y-84612380D02*
X179816666Y-85326666D01*
X179769047Y-85469523D01*
X179673809Y-85564761D01*
X179530952Y-85612380D01*
X179435714Y-85612380D01*
X180435714Y-85040952D02*
X180340476Y-84993333D01*
X180292857Y-84945714D01*
X180245238Y-84850476D01*
X180245238Y-84802857D01*
X180292857Y-84707619D01*
X180340476Y-84660000D01*
X180435714Y-84612380D01*
X180626190Y-84612380D01*
X180721428Y-84660000D01*
X180769047Y-84707619D01*
X180816666Y-84802857D01*
X180816666Y-84850476D01*
X180769047Y-84945714D01*
X180721428Y-84993333D01*
X180626190Y-85040952D01*
X180435714Y-85040952D01*
X180340476Y-85088571D01*
X180292857Y-85136190D01*
X180245238Y-85231428D01*
X180245238Y-85421904D01*
X180292857Y-85517142D01*
X180340476Y-85564761D01*
X180435714Y-85612380D01*
X180626190Y-85612380D01*
X180721428Y-85564761D01*
X180769047Y-85517142D01*
X180816666Y-85421904D01*
X180816666Y-85231428D01*
X180769047Y-85136190D01*
X180721428Y-85088571D01*
X180626190Y-85040952D01*
X133941904Y-89342380D02*
X133941904Y-88342380D01*
X134180000Y-88342380D01*
X134322857Y-88390000D01*
X134418095Y-88485238D01*
X134465714Y-88580476D01*
X134513333Y-88770952D01*
X134513333Y-88913809D01*
X134465714Y-89104285D01*
X134418095Y-89199523D01*
X134322857Y-89294761D01*
X134180000Y-89342380D01*
X133941904Y-89342380D01*
X135418095Y-88342380D02*
X134941904Y-88342380D01*
X134894285Y-88818571D01*
X134941904Y-88770952D01*
X135037142Y-88723333D01*
X135275238Y-88723333D01*
X135370476Y-88770952D01*
X135418095Y-88818571D01*
X135465714Y-88913809D01*
X135465714Y-89151904D01*
X135418095Y-89247142D01*
X135370476Y-89294761D01*
X135275238Y-89342380D01*
X135037142Y-89342380D01*
X134941904Y-89294761D01*
X134894285Y-89247142D01*
X174091904Y-88062380D02*
X174091904Y-87062380D01*
X174330000Y-87062380D01*
X174472857Y-87110000D01*
X174568095Y-87205238D01*
X174615714Y-87300476D01*
X174663333Y-87490952D01*
X174663333Y-87633809D01*
X174615714Y-87824285D01*
X174568095Y-87919523D01*
X174472857Y-88014761D01*
X174330000Y-88062380D01*
X174091904Y-88062380D01*
X175615714Y-88062380D02*
X175044285Y-88062380D01*
X175330000Y-88062380D02*
X175330000Y-87062380D01*
X175234761Y-87205238D01*
X175139523Y-87300476D01*
X175044285Y-87348095D01*
X126371600Y-93416380D02*
X125895409Y-93416380D01*
X125895409Y-92416380D01*
X126657314Y-93130666D02*
X127133504Y-93130666D01*
X126562076Y-93416380D02*
X126895409Y-92416380D01*
X127228742Y-93416380D01*
X127419219Y-92416380D02*
X127990647Y-92416380D01*
X127704933Y-93416380D02*
X127704933Y-92416380D01*
X128895409Y-93321142D02*
X128847790Y-93368761D01*
X128704933Y-93416380D01*
X128609695Y-93416380D01*
X128466838Y-93368761D01*
X128371600Y-93273523D01*
X128323980Y-93178285D01*
X128276361Y-92987809D01*
X128276361Y-92844952D01*
X128323980Y-92654476D01*
X128371600Y-92559238D01*
X128466838Y-92464000D01*
X128609695Y-92416380D01*
X128704933Y-92416380D01*
X128847790Y-92464000D01*
X128895409Y-92511619D01*
X129323980Y-93416380D02*
X129323980Y-92416380D01*
X129323980Y-92892571D02*
X129895409Y-92892571D01*
X129895409Y-93416380D02*
X129895409Y-92416380D01*
X130895409Y-93416380D02*
X130323980Y-93416380D01*
X130609695Y-93416380D02*
X130609695Y-92416380D01*
X130514457Y-92559238D01*
X130419219Y-92654476D01*
X130323980Y-92702095D01*
X170072228Y-95930980D02*
X170072228Y-94930980D01*
X170548419Y-95930980D02*
X170548419Y-94930980D01*
X171119847Y-95930980D01*
X171119847Y-94930980D01*
X171453180Y-94930980D02*
X171786514Y-95930980D01*
X172119847Y-94930980D01*
X172976990Y-95930980D02*
X172405561Y-95930980D01*
X172691276Y-95930980D02*
X172691276Y-94930980D01*
X172596038Y-95073838D01*
X172500800Y-95169076D01*
X172405561Y-95216695D01*
X151661904Y-87292380D02*
X151661904Y-86292380D01*
X151900000Y-86292380D01*
X152042857Y-86340000D01*
X152138095Y-86435238D01*
X152185714Y-86530476D01*
X152233333Y-86720952D01*
X152233333Y-86863809D01*
X152185714Y-87054285D01*
X152138095Y-87149523D01*
X152042857Y-87244761D01*
X151900000Y-87292380D01*
X151661904Y-87292380D01*
X152566666Y-86292380D02*
X153185714Y-86292380D01*
X152852380Y-86673333D01*
X152995238Y-86673333D01*
X153090476Y-86720952D01*
X153138095Y-86768571D01*
X153185714Y-86863809D01*
X153185714Y-87101904D01*
X153138095Y-87197142D01*
X153090476Y-87244761D01*
X152995238Y-87292380D01*
X152709523Y-87292380D01*
X152614285Y-87244761D01*
X152566666Y-87197142D01*
X139257142Y-94906249D02*
X139304761Y-94953868D01*
X139352380Y-95096725D01*
X139352380Y-95191963D01*
X139304761Y-95334821D01*
X139209523Y-95430059D01*
X139114285Y-95477678D01*
X138923809Y-95525297D01*
X138780952Y-95525297D01*
X138590476Y-95477678D01*
X138495238Y-95430059D01*
X138400000Y-95334821D01*
X138352380Y-95191963D01*
X138352380Y-95096725D01*
X138400000Y-94953868D01*
X138447619Y-94906249D01*
X138352380Y-94572916D02*
X138352380Y-93953868D01*
X138733333Y-94287202D01*
X138733333Y-94144344D01*
X138780952Y-94049106D01*
X138828571Y-94001487D01*
X138923809Y-93953868D01*
X139161904Y-93953868D01*
X139257142Y-94001487D01*
X139304761Y-94049106D01*
X139352380Y-94144344D01*
X139352380Y-94430059D01*
X139304761Y-94525297D01*
X139257142Y-94572916D01*
D12*
X167012936Y-86710000D02*
X168467064Y-86710000D01*
X167012936Y-84890000D02*
X168467064Y-84890000D01*
X180780000Y-88961252D02*
X180780000Y-87538748D01*
X178960000Y-88961252D02*
X178960000Y-87538748D01*
X120860000Y-88900000D02*
X120860000Y-87840000D01*
X122980000Y-89900000D02*
X122980000Y-89960000D01*
X120860000Y-89900000D02*
X120860000Y-89960000D01*
X120860000Y-87840000D02*
X121920000Y-87840000D01*
X120860000Y-89960000D02*
X122980000Y-89960000D01*
X120860000Y-89900000D02*
X122980000Y-89900000D01*
X161500000Y-89900000D02*
X163620000Y-89900000D01*
X161500000Y-89960000D02*
X163620000Y-89960000D01*
X161500000Y-87840000D02*
X162560000Y-87840000D01*
X161500000Y-89900000D02*
X161500000Y-89960000D01*
X161500000Y-88900000D02*
X161500000Y-87840000D01*
X163620000Y-89900000D02*
X163620000Y-89960000D01*
X178470000Y-85920000D02*
X178455000Y-85920000D01*
X178470000Y-85920000D02*
X178470000Y-90460000D01*
X176345000Y-85920000D02*
X176330000Y-85920000D01*
X176330000Y-85920000D02*
X176330000Y-90460000D01*
X178470000Y-90460000D02*
X178455000Y-90460000D01*
X176345000Y-90460000D02*
X176330000Y-90460000D01*
X141180000Y-89900000D02*
X143300000Y-89900000D01*
X141180000Y-88900000D02*
X141180000Y-87840000D01*
X141180000Y-87840000D02*
X142240000Y-87840000D01*
X141180000Y-89900000D02*
X141180000Y-89960000D01*
X141180000Y-89960000D02*
X143300000Y-89960000D01*
X143300000Y-89900000D02*
X143300000Y-89960000D01*
D13*
X141618809Y-93900000D02*
X159818809Y-93900000D01*
X159818809Y-93900000D02*
X159818809Y-102100000D01*
X141618809Y-102100000D02*
X141618809Y-93900000D01*
X159818809Y-102100000D02*
X141618809Y-102100000D01*
D14*
X141630612Y-103700000D02*
G75*
G03*
X141630612Y-103700000I-111803J0D01*
G01*
D12*
X118050000Y-86360000D02*
X118050000Y-85030000D01*
X118050000Y-105470000D02*
X120710000Y-105470000D01*
X120710000Y-87630000D02*
X120710000Y-105470000D01*
X118050000Y-87630000D02*
X118050000Y-105470000D01*
X118050000Y-85030000D02*
X119380000Y-85030000D01*
X118050000Y-87630000D02*
X120710000Y-87630000D01*
X178090000Y-102711252D02*
X178090000Y-101288748D01*
X179910000Y-102711252D02*
X179910000Y-101288748D01*
X164395400Y-87196600D02*
X170935400Y-87196600D01*
X170935400Y-84456600D02*
X164395400Y-84456600D01*
X163625400Y-85826600D02*
X164395400Y-85826600D01*
X171705400Y-85826600D02*
X170935400Y-85826600D01*
X170935400Y-87196600D02*
X170935400Y-84456600D01*
X164395400Y-84456600D02*
X164395400Y-87196600D01*
X137210000Y-103386252D02*
X137210000Y-101963748D01*
X135390000Y-103386252D02*
X135390000Y-101963748D01*
X181550000Y-86360000D02*
X181550000Y-85030000D01*
X181550000Y-87630000D02*
X181550000Y-105470000D01*
X184210000Y-87630000D02*
X184210000Y-105470000D01*
X181550000Y-87630000D02*
X184210000Y-87630000D01*
X181550000Y-105470000D02*
X184210000Y-105470000D01*
X181550000Y-85030000D02*
X182880000Y-85030000D01*
X133140000Y-89900000D02*
X133140000Y-89960000D01*
X131020000Y-89960000D02*
X133140000Y-89960000D01*
X131020000Y-87840000D02*
X132080000Y-87840000D01*
X131020000Y-89900000D02*
X131020000Y-89960000D01*
X131020000Y-88900000D02*
X131020000Y-87840000D01*
X131020000Y-89900000D02*
X133140000Y-89900000D01*
X171660000Y-89960000D02*
X173780000Y-89960000D01*
X171660000Y-88900000D02*
X171660000Y-87840000D01*
X171660000Y-87840000D02*
X172720000Y-87840000D01*
X171660000Y-89900000D02*
X171660000Y-89960000D01*
X171660000Y-89900000D02*
X173780000Y-89900000D01*
X173780000Y-89900000D02*
X173780000Y-89960000D01*
X121690000Y-99040000D02*
X121690000Y-96390000D01*
X134510000Y-99040000D02*
X134510000Y-101690000D01*
X134510000Y-99040000D02*
X134510000Y-94590000D01*
X121690000Y-99040000D02*
X121690000Y-101690000D01*
X175910000Y-100190000D02*
X175910000Y-102140000D01*
X167040000Y-100190000D02*
X167040000Y-98240000D01*
X167040000Y-100190000D02*
X167040000Y-102140000D01*
X175910000Y-100190000D02*
X175910000Y-96740000D01*
X151340000Y-89960000D02*
X153460000Y-89960000D01*
X151340000Y-88900000D02*
X151340000Y-87840000D01*
X153460000Y-89900000D02*
X153460000Y-89960000D01*
X151340000Y-89900000D02*
X153460000Y-89900000D01*
X151340000Y-89900000D02*
X151340000Y-89960000D01*
X151340000Y-87840000D02*
X152400000Y-87840000D01*
X140810000Y-97553331D02*
X140810000Y-98975835D01*
X138990000Y-97553331D02*
X138990000Y-98975835D01*
%LPC*%
D15*
X166277500Y-85800000D03*
X169202500Y-85800000D03*
D16*
X179870000Y-89725000D03*
X179870000Y-86775000D03*
D17*
X121920000Y-88900000D03*
X162560000Y-88900000D03*
D18*
X177400000Y-85690000D03*
X177400000Y-90690000D03*
D17*
X142240000Y-88900000D03*
D19*
X142493809Y-103550000D03*
X143763809Y-103550000D03*
X145033809Y-103550000D03*
X146303809Y-103550000D03*
X147573809Y-103550000D03*
X148843809Y-103550000D03*
X150113809Y-103550000D03*
X151383809Y-103550000D03*
X152653809Y-103550000D03*
X153923809Y-103550000D03*
X155193809Y-103550000D03*
X156463809Y-103550000D03*
X157733809Y-103550000D03*
X159003809Y-103550000D03*
X158943809Y-92450000D03*
X157673809Y-92450000D03*
X156403809Y-92450000D03*
X155133809Y-92450000D03*
X153863809Y-92450000D03*
X152593809Y-92450000D03*
X151323809Y-92450000D03*
X150053809Y-92450000D03*
X148783809Y-92450000D03*
X147513809Y-92450000D03*
X146243809Y-92450000D03*
X144973809Y-92450000D03*
X143703809Y-92450000D03*
X142433809Y-92450000D03*
D20*
X119380000Y-86360000D03*
D21*
X119380000Y-88900000D03*
X119380000Y-91440000D03*
X119380000Y-93980000D03*
X119380000Y-96520000D03*
X119380000Y-99060000D03*
X119380000Y-101600000D03*
X119380000Y-104140000D03*
D16*
X179000000Y-103475000D03*
X179000000Y-100525000D03*
D22*
X172745400Y-85826600D03*
D18*
X162585400Y-85826600D03*
D16*
X136300000Y-104150000D03*
X136300000Y-101200000D03*
D20*
X182880000Y-86360000D03*
D21*
X182880000Y-88900000D03*
X182880000Y-91440000D03*
X182880000Y-93980000D03*
X182880000Y-96520000D03*
X182880000Y-99060000D03*
X182880000Y-101600000D03*
X182880000Y-104140000D03*
D17*
X132080000Y-88900000D03*
X172720000Y-88900000D03*
D23*
X133815000Y-95577500D03*
X132545000Y-95577500D03*
X131275000Y-95577500D03*
X130005000Y-95577500D03*
X128735000Y-95577500D03*
X127465000Y-95577500D03*
X126195000Y-95577500D03*
X124925000Y-95577500D03*
X123655000Y-95577500D03*
X122385000Y-95577500D03*
X122385000Y-102502500D03*
X123655000Y-102502500D03*
X124925000Y-102502500D03*
X126195000Y-102502500D03*
X127465000Y-102502500D03*
X128735000Y-102502500D03*
X130005000Y-102502500D03*
X131275000Y-102502500D03*
X132545000Y-102502500D03*
X133815000Y-102502500D03*
D24*
X175285000Y-97715000D03*
X174015000Y-97715000D03*
X172745000Y-97715000D03*
X171475000Y-97715000D03*
X170205000Y-97715000D03*
X168935000Y-97715000D03*
X167665000Y-97715000D03*
X167665000Y-102665000D03*
X168935000Y-102665000D03*
X170205000Y-102665000D03*
X171475000Y-102665000D03*
X172745000Y-102665000D03*
X174015000Y-102665000D03*
X175285000Y-102665000D03*
D17*
X152400000Y-88900000D03*
D25*
X139900000Y-96789583D03*
X139900000Y-99739583D03*
M02*
