G04 #@! TF.GenerationSoftware,KiCad,Pcbnew,6.0.9-8da3e8f707~116~ubuntu20.04.1*
G04 #@! TF.CreationDate,2022-11-07T18:31:13+00:00*
G04 #@! TF.ProjectId,slrm,736c726d-2e6b-4696-9361-645f70636258,rev?*
G04 #@! TF.SameCoordinates,Original*
G04 #@! TF.FileFunction,Paste,Top*
G04 #@! TF.FilePolarity,Positive*
%FSLAX46Y46*%
G04 Gerber Fmt 4.6, Leading zero omitted, Abs format (unit mm)*
G04 Created by KiCad (PCBNEW 6.0.9-8da3e8f707~116~ubuntu20.04.1) date 2022-11-07 18:31:13*
%MOMM*%
%LPD*%
G01*
G04 APERTURE LIST*
G04 Aperture macros list*
%AMRoundRect*
0 Rectangle with rounded corners*
0 $1 Rounding radius*
0 $2 $3 $4 $5 $6 $7 $8 $9 X,Y pos of 4 corners*
0 Add a 4 corners polygon primitive as box body*
4,1,4,$2,$3,$4,$5,$6,$7,$8,$9,$2,$3,0*
0 Add four circle primitives for the rounded corners*
1,1,$1+$1,$2,$3*
1,1,$1+$1,$4,$5*
1,1,$1+$1,$6,$7*
1,1,$1+$1,$8,$9*
0 Add four rect primitives between the rounded corners*
20,1,$1+$1,$2,$3,$4,$5,0*
20,1,$1+$1,$4,$5,$6,$7,0*
20,1,$1+$1,$6,$7,$8,$9,0*
20,1,$1+$1,$8,$9,$2,$3,0*%
G04 Aperture macros list end*
%ADD10RoundRect,0.250000X0.650000X-0.325000X0.650000X0.325000X-0.650000X0.325000X-0.650000X-0.325000X0*%
%ADD11RoundRect,0.150000X-0.150000X0.825000X-0.150000X-0.825000X0.150000X-0.825000X0.150000X0.825000X0*%
%ADD12O,0.600000X2.250000*%
%ADD13RoundRect,0.150000X-0.150000X0.837500X-0.150000X-0.837500X0.150000X-0.837500X0.150000X0.837500X0*%
%ADD14RoundRect,0.250000X-0.650000X0.325000X-0.650000X-0.325000X0.650000X-0.325000X0.650000X0.325000X0*%
G04 APERTURE END LIST*
D10*
X116110000Y-97255000D03*
X116110000Y-94305000D03*
D11*
X175340000Y-97595000D03*
X174070000Y-97595000D03*
X172800000Y-97595000D03*
X171530000Y-97595000D03*
X170260000Y-97595000D03*
X168990000Y-97595000D03*
X167720000Y-97595000D03*
X167720000Y-102545000D03*
X168990000Y-102545000D03*
X170260000Y-102545000D03*
X171530000Y-102545000D03*
X172800000Y-102545000D03*
X174070000Y-102545000D03*
X175340000Y-102545000D03*
D10*
X179020000Y-103485000D03*
X179020000Y-100535000D03*
D12*
X142493809Y-103550000D03*
X143763809Y-103550000D03*
X145033809Y-103550000D03*
X146303809Y-103550000D03*
X147573809Y-103550000D03*
X148843809Y-103550000D03*
X150113809Y-103550000D03*
X151383809Y-103550000D03*
X152653809Y-103550000D03*
X153923809Y-103550000D03*
X155193809Y-103550000D03*
X156463809Y-103550000D03*
X157733809Y-103550000D03*
X159003809Y-103550000D03*
X158943809Y-92450000D03*
X157673809Y-92450000D03*
X156403809Y-92450000D03*
X155133809Y-92450000D03*
X153863809Y-92450000D03*
X152593809Y-92450000D03*
X151323809Y-92450000D03*
X150053809Y-92450000D03*
X148783809Y-92450000D03*
X147513809Y-92450000D03*
X146243809Y-92450000D03*
X144973809Y-92450000D03*
X143703809Y-92450000D03*
X142433809Y-92450000D03*
D10*
X136300000Y-104150000D03*
X136300000Y-101200000D03*
D13*
X133815000Y-95577500D03*
X132545000Y-95577500D03*
X131275000Y-95577500D03*
X130005000Y-95577500D03*
X128735000Y-95577500D03*
X127465000Y-95577500D03*
X126195000Y-95577500D03*
X124925000Y-95577500D03*
X123655000Y-95577500D03*
X122385000Y-95577500D03*
X122385000Y-102502500D03*
X123655000Y-102502500D03*
X124925000Y-102502500D03*
X126195000Y-102502500D03*
X127465000Y-102502500D03*
X128735000Y-102502500D03*
X130005000Y-102502500D03*
X131275000Y-102502500D03*
X132545000Y-102502500D03*
X133815000Y-102502500D03*
D14*
X139900000Y-96789583D03*
X139900000Y-99739583D03*
M02*
