G04 #@! TF.GenerationSoftware,KiCad,Pcbnew,6.0.9-8da3e8f707~116~ubuntu20.04.1*
G04 #@! TF.CreationDate,2022-11-07T18:31:13+00:00*
G04 #@! TF.ProjectId,slrm,736c726d-2e6b-4696-9361-645f70636258,rev?*
G04 #@! TF.SameCoordinates,Original*
G04 #@! TF.FileFunction,Copper,L3,Inr*
G04 #@! TF.FilePolarity,Positive*
%FSLAX46Y46*%
G04 Gerber Fmt 4.6, Leading zero omitted, Abs format (unit mm)*
G04 Created by KiCad (PCBNEW 6.0.9-8da3e8f707~116~ubuntu20.04.1) date 2022-11-07 18:31:13*
%MOMM*%
%LPD*%
G01*
G04 APERTURE LIST*
G04 #@! TA.AperFunction,ComponentPad*
%ADD10C,2.000000*%
G04 #@! TD*
G04 #@! TA.AperFunction,ComponentPad*
%ADD11R,1.350000X1.350000*%
G04 #@! TD*
G04 #@! TA.AperFunction,ComponentPad*
%ADD12C,1.600000*%
G04 #@! TD*
G04 #@! TA.AperFunction,ComponentPad*
%ADD13R,1.700000X1.700000*%
G04 #@! TD*
G04 #@! TA.AperFunction,ComponentPad*
%ADD14O,1.700000X1.700000*%
G04 #@! TD*
G04 #@! TA.AperFunction,ComponentPad*
%ADD15O,1.600000X1.600000*%
G04 #@! TD*
G04 #@! TA.AperFunction,ViaPad*
%ADD16C,0.800000*%
G04 #@! TD*
G04 APERTURE END LIST*
D10*
X188282400Y-88177000D03*
X188307800Y-92291800D03*
X188257000Y-96355800D03*
X188130000Y-104560000D03*
X188079200Y-100470600D03*
X111419400Y-90278400D03*
X111401600Y-87041200D03*
X111300000Y-95296200D03*
X111300000Y-99766600D03*
X111300000Y-104110000D03*
D11*
X121920000Y-88900000D03*
X162560000Y-88900000D03*
D12*
X177400000Y-85690000D03*
X177400000Y-90690000D03*
D11*
X142240000Y-88900000D03*
D13*
X119380000Y-86360000D03*
D14*
X119380000Y-88900000D03*
X119380000Y-91440000D03*
X119380000Y-93980000D03*
X119380000Y-96520000D03*
X119380000Y-99060000D03*
X119380000Y-101600000D03*
X119380000Y-104140000D03*
D12*
X162585400Y-85826600D03*
D15*
X172745400Y-85826600D03*
D13*
X182880000Y-86360000D03*
D14*
X182880000Y-88900000D03*
X182880000Y-91440000D03*
X182880000Y-93980000D03*
X182880000Y-96520000D03*
X182880000Y-99060000D03*
X182880000Y-101600000D03*
X182880000Y-104140000D03*
D11*
X132080000Y-88900000D03*
X172720000Y-88900000D03*
X152400000Y-88900000D03*
D16*
X138585685Y-104205946D03*
X176700000Y-103500000D03*
X140350000Y-92650000D03*
X135320000Y-95750000D03*
X179000000Y-99000000D03*
X174040000Y-104630000D03*
X150100000Y-90200000D03*
X140500000Y-104200000D03*
X123000000Y-93980000D03*
X166180000Y-97780000D03*
X160500000Y-103600000D03*
X121195500Y-86700000D03*
X154300000Y-90100000D03*
X137000000Y-95451000D03*
X144900000Y-95451000D03*
X137000000Y-93980000D03*
X124900000Y-93980000D03*
X128700000Y-98800000D03*
X152200000Y-98500000D03*
X127482600Y-98075500D03*
X148800000Y-97575500D03*
X127500000Y-99524500D03*
X121400000Y-105100000D03*
X125345059Y-100249000D03*
X143800000Y-105300000D03*
X155100000Y-86300000D03*
X124000000Y-85900000D03*
X156300000Y-85400000D03*
X132100000Y-85375500D03*
X157700000Y-84700000D03*
X142300000Y-84675500D03*
X158900000Y-88900000D03*
X162600000Y-101300000D03*
X157700000Y-101500000D03*
X163400000Y-90800000D03*
X156500000Y-100500000D03*
X163400000Y-100500000D03*
X155200000Y-99500000D03*
X164124500Y-99500000D03*
X164124500Y-92100000D03*
X143700000Y-94000000D03*
X175300000Y-94000000D03*
X138000000Y-93192600D03*
X138000000Y-94726500D03*
X132537200Y-93141800D03*
X141000000Y-94726500D03*
X129921000Y-97325500D03*
X147818154Y-97125500D03*
X130885397Y-96875500D03*
X146710400Y-96675500D03*
X179000000Y-97400000D03*
X179000000Y-95450500D03*
X174600000Y-99800000D03*
X122402600Y-100973500D03*
X146300000Y-101800000D03*
X124383800Y-100973500D03*
X126200000Y-101075500D03*
X147600000Y-101500000D03*
X148900000Y-101500000D03*
X127700000Y-100625500D03*
X150100000Y-101500000D03*
X128700000Y-100175500D03*
X129900000Y-99725500D03*
X151400000Y-101500000D03*
X152600000Y-101500000D03*
X131300000Y-99275500D03*
X153900000Y-101500000D03*
X132500000Y-98825500D03*
X168940000Y-93780000D03*
X152560000Y-94001500D03*
X150090000Y-89010000D03*
G04 #@! TA.AperFunction,Conductor*
G36*
X131536133Y-84449956D02*
G01*
X131582626Y-84503612D01*
X131592730Y-84573886D01*
X131563236Y-84638466D01*
X131542073Y-84657890D01*
X131526871Y-84668935D01*
X131488747Y-84696634D01*
X131360960Y-84838556D01*
X131331300Y-84889928D01*
X131272658Y-84991500D01*
X131265473Y-85003944D01*
X131206458Y-85185572D01*
X131205768Y-85192133D01*
X131205768Y-85192135D01*
X131200658Y-85240757D01*
X131186496Y-85375500D01*
X131187186Y-85382065D01*
X131205757Y-85558754D01*
X131206458Y-85565428D01*
X131265473Y-85747056D01*
X131268776Y-85752778D01*
X131268777Y-85752779D01*
X131275991Y-85765274D01*
X131360960Y-85912444D01*
X131365378Y-85917351D01*
X131365379Y-85917352D01*
X131458825Y-86021134D01*
X131488747Y-86054366D01*
X131643248Y-86166618D01*
X131649276Y-86169302D01*
X131649278Y-86169303D01*
X131811681Y-86241609D01*
X131817712Y-86244294D01*
X131911112Y-86264147D01*
X131998056Y-86282628D01*
X131998061Y-86282628D01*
X132004513Y-86284000D01*
X132195487Y-86284000D01*
X132201939Y-86282628D01*
X132201944Y-86282628D01*
X132288888Y-86264147D01*
X132382288Y-86244294D01*
X132388319Y-86241609D01*
X132550722Y-86169303D01*
X132550724Y-86169302D01*
X132556752Y-86166618D01*
X132711253Y-86054366D01*
X132741175Y-86021134D01*
X132834621Y-85917352D01*
X132834622Y-85917351D01*
X132839040Y-85912444D01*
X132924009Y-85765274D01*
X132931223Y-85752779D01*
X132931224Y-85752778D01*
X132934527Y-85747056D01*
X132993542Y-85565428D01*
X132994244Y-85558754D01*
X133012814Y-85382065D01*
X133013504Y-85375500D01*
X132999342Y-85240757D01*
X132994232Y-85192135D01*
X132994232Y-85192133D01*
X132993542Y-85185572D01*
X132934527Y-85003944D01*
X132927343Y-84991500D01*
X132868700Y-84889928D01*
X132839040Y-84838556D01*
X132711253Y-84696634D01*
X132673129Y-84668935D01*
X132657927Y-84657890D01*
X132614573Y-84601667D01*
X132608498Y-84530931D01*
X132641630Y-84468139D01*
X132703450Y-84433228D01*
X132731988Y-84429954D01*
X141272366Y-84429954D01*
X141340487Y-84449956D01*
X141386980Y-84503612D01*
X141397676Y-84569124D01*
X141390708Y-84635424D01*
X141386496Y-84675500D01*
X141387186Y-84682065D01*
X141404859Y-84850211D01*
X141406458Y-84865428D01*
X141465473Y-85047056D01*
X141468776Y-85052778D01*
X141468777Y-85052779D01*
X141475989Y-85065271D01*
X141560960Y-85212444D01*
X141565378Y-85217351D01*
X141565379Y-85217352D01*
X141573206Y-85226045D01*
X141688747Y-85354366D01*
X141787843Y-85426364D01*
X141829457Y-85456598D01*
X141843248Y-85466618D01*
X141849276Y-85469302D01*
X141849278Y-85469303D01*
X142010740Y-85541190D01*
X142017712Y-85544294D01*
X142085741Y-85558754D01*
X142198056Y-85582628D01*
X142198061Y-85582628D01*
X142204513Y-85584000D01*
X142395487Y-85584000D01*
X142401939Y-85582628D01*
X142401944Y-85582628D01*
X142514259Y-85558754D01*
X142582288Y-85544294D01*
X142589260Y-85541190D01*
X142750722Y-85469303D01*
X142750724Y-85469302D01*
X142756752Y-85466618D01*
X142770544Y-85456598D01*
X142812157Y-85426364D01*
X142911253Y-85354366D01*
X143026794Y-85226045D01*
X143034621Y-85217352D01*
X143034622Y-85217351D01*
X143039040Y-85212444D01*
X143124011Y-85065271D01*
X143131223Y-85052779D01*
X143131224Y-85052778D01*
X143134527Y-85047056D01*
X143193542Y-84865428D01*
X143195142Y-84850211D01*
X143212814Y-84682065D01*
X143213504Y-84675500D01*
X143209292Y-84635424D01*
X143202324Y-84569124D01*
X143215096Y-84499286D01*
X143263599Y-84447439D01*
X143327634Y-84429954D01*
X155701734Y-84429954D01*
X155769855Y-84449956D01*
X155816348Y-84503612D01*
X155826452Y-84573886D01*
X155796958Y-84638466D01*
X155775797Y-84657888D01*
X155688747Y-84721134D01*
X155560960Y-84863056D01*
X155541821Y-84896206D01*
X155472919Y-85015548D01*
X155465473Y-85028444D01*
X155406458Y-85210072D01*
X155405768Y-85216633D01*
X155405768Y-85216635D01*
X155397823Y-85292228D01*
X155370810Y-85357885D01*
X155312588Y-85398514D01*
X155246316Y-85402304D01*
X155201944Y-85392872D01*
X155201939Y-85392872D01*
X155195487Y-85391500D01*
X155004513Y-85391500D01*
X154998061Y-85392872D01*
X154998056Y-85392872D01*
X154929051Y-85407540D01*
X154817712Y-85431206D01*
X154811682Y-85433891D01*
X154811681Y-85433891D01*
X154649278Y-85506197D01*
X154649276Y-85506198D01*
X154643248Y-85508882D01*
X154488747Y-85621134D01*
X154484326Y-85626044D01*
X154484325Y-85626045D01*
X154402758Y-85716635D01*
X154360960Y-85763056D01*
X154321112Y-85832075D01*
X154271453Y-85918087D01*
X154265473Y-85928444D01*
X154206458Y-86110072D01*
X154205768Y-86116633D01*
X154205768Y-86116635D01*
X154198348Y-86187237D01*
X154186496Y-86300000D01*
X154187186Y-86306565D01*
X154205767Y-86483349D01*
X154206458Y-86489928D01*
X154265473Y-86671556D01*
X154360960Y-86836944D01*
X154365378Y-86841851D01*
X154365379Y-86841852D01*
X154439601Y-86924284D01*
X154488747Y-86978866D01*
X154643248Y-87091118D01*
X154649276Y-87093802D01*
X154649278Y-87093803D01*
X154753259Y-87140098D01*
X154817712Y-87168794D01*
X154911113Y-87188647D01*
X154998056Y-87207128D01*
X154998061Y-87207128D01*
X155004513Y-87208500D01*
X155195487Y-87208500D01*
X155201939Y-87207128D01*
X155201944Y-87207128D01*
X155288887Y-87188647D01*
X155382288Y-87168794D01*
X155446741Y-87140098D01*
X155550722Y-87093803D01*
X155550724Y-87093802D01*
X155556752Y-87091118D01*
X155711253Y-86978866D01*
X155760399Y-86924284D01*
X155834621Y-86841852D01*
X155834622Y-86841851D01*
X155839040Y-86836944D01*
X155934527Y-86671556D01*
X155993542Y-86489928D01*
X155994234Y-86483349D01*
X156002177Y-86407772D01*
X156029190Y-86342115D01*
X156087412Y-86301486D01*
X156153684Y-86297696D01*
X156198056Y-86307128D01*
X156198061Y-86307128D01*
X156204513Y-86308500D01*
X156395487Y-86308500D01*
X156401939Y-86307128D01*
X156401944Y-86307128D01*
X156488888Y-86288647D01*
X156582288Y-86268794D01*
X156588319Y-86266109D01*
X156750722Y-86193803D01*
X156750724Y-86193802D01*
X156756752Y-86191118D01*
X156911253Y-86078866D01*
X157008168Y-85971231D01*
X157034621Y-85941852D01*
X157034622Y-85941851D01*
X157039040Y-85936944D01*
X157134527Y-85771556D01*
X157184629Y-85617359D01*
X157224703Y-85558754D01*
X157290100Y-85531117D01*
X157355711Y-85541190D01*
X157411673Y-85566106D01*
X157411679Y-85566108D01*
X157417712Y-85568794D01*
X157511112Y-85588647D01*
X157598056Y-85607128D01*
X157598061Y-85607128D01*
X157604513Y-85608500D01*
X157795487Y-85608500D01*
X157801939Y-85607128D01*
X157801944Y-85607128D01*
X157888887Y-85588647D01*
X157982288Y-85568794D01*
X157988319Y-85566109D01*
X158150722Y-85493803D01*
X158150724Y-85493802D01*
X158156752Y-85491118D01*
X158311253Y-85378866D01*
X158407743Y-85271703D01*
X158434621Y-85241852D01*
X158434622Y-85241851D01*
X158439040Y-85236944D01*
X158534527Y-85071556D01*
X158593542Y-84889928D01*
X158595766Y-84868774D01*
X158612814Y-84706565D01*
X158613504Y-84700000D01*
X158612211Y-84687699D01*
X158599749Y-84569124D01*
X158612521Y-84499286D01*
X158661024Y-84447439D01*
X158725059Y-84429954D01*
X161915992Y-84429954D01*
X161984113Y-84449956D01*
X162030606Y-84503612D01*
X162040710Y-84573886D01*
X162011216Y-84638466D01*
X161969242Y-84670149D01*
X161933638Y-84686751D01*
X161933633Y-84686754D01*
X161928651Y-84689077D01*
X161823789Y-84762502D01*
X161745611Y-84817243D01*
X161745608Y-84817245D01*
X161741100Y-84820402D01*
X161579202Y-84982300D01*
X161576045Y-84986808D01*
X161576043Y-84986811D01*
X161543077Y-85033891D01*
X161447877Y-85169851D01*
X161445554Y-85174833D01*
X161445551Y-85174838D01*
X161355118Y-85368774D01*
X161351116Y-85377357D01*
X161349694Y-85382665D01*
X161349693Y-85382667D01*
X161299040Y-85571706D01*
X161291857Y-85598513D01*
X161271902Y-85826600D01*
X161291857Y-86054687D01*
X161293281Y-86060000D01*
X161293281Y-86060002D01*
X161320895Y-86163056D01*
X161351116Y-86275843D01*
X161353439Y-86280824D01*
X161353439Y-86280825D01*
X161445551Y-86478362D01*
X161445554Y-86478367D01*
X161447877Y-86483349D01*
X161486282Y-86538197D01*
X161575261Y-86665271D01*
X161579202Y-86670900D01*
X161741100Y-86832798D01*
X161745608Y-86835955D01*
X161745611Y-86835957D01*
X161747021Y-86836944D01*
X161928651Y-86964123D01*
X161933633Y-86966446D01*
X161933638Y-86966449D01*
X162131175Y-87058561D01*
X162136157Y-87060884D01*
X162141465Y-87062306D01*
X162141467Y-87062307D01*
X162351998Y-87118719D01*
X162352000Y-87118719D01*
X162357313Y-87120143D01*
X162585400Y-87140098D01*
X162813487Y-87120143D01*
X162818800Y-87118719D01*
X162818802Y-87118719D01*
X163029333Y-87062307D01*
X163029335Y-87062306D01*
X163034643Y-87060884D01*
X163039625Y-87058561D01*
X163237162Y-86966449D01*
X163237167Y-86966446D01*
X163242149Y-86964123D01*
X163423779Y-86836944D01*
X163425189Y-86835957D01*
X163425192Y-86835955D01*
X163429700Y-86832798D01*
X163591598Y-86670900D01*
X163595540Y-86665271D01*
X163684518Y-86538197D01*
X163722923Y-86483349D01*
X163725246Y-86478367D01*
X163725249Y-86478362D01*
X163817361Y-86280825D01*
X163817361Y-86280824D01*
X163819684Y-86275843D01*
X163849906Y-86163056D01*
X163877519Y-86060002D01*
X163877519Y-86060000D01*
X163878943Y-86054687D01*
X163898898Y-85826600D01*
X163878943Y-85598513D01*
X163871760Y-85571706D01*
X163821107Y-85382667D01*
X163821106Y-85382665D01*
X163819684Y-85377357D01*
X163815682Y-85368774D01*
X163725249Y-85174838D01*
X163725246Y-85174833D01*
X163722923Y-85169851D01*
X163627723Y-85033891D01*
X163594757Y-84986811D01*
X163594755Y-84986808D01*
X163591598Y-84982300D01*
X163429700Y-84820402D01*
X163425192Y-84817245D01*
X163425189Y-84817243D01*
X163347011Y-84762502D01*
X163242149Y-84689077D01*
X163237167Y-84686754D01*
X163237162Y-84686751D01*
X163201558Y-84670149D01*
X163148273Y-84623231D01*
X163128812Y-84554954D01*
X163149354Y-84486994D01*
X163203377Y-84440929D01*
X163254808Y-84429954D01*
X172075992Y-84429954D01*
X172144113Y-84449956D01*
X172190606Y-84503612D01*
X172200710Y-84573886D01*
X172171216Y-84638466D01*
X172129242Y-84670149D01*
X172093638Y-84686751D01*
X172093633Y-84686754D01*
X172088651Y-84689077D01*
X171983789Y-84762502D01*
X171905611Y-84817243D01*
X171905608Y-84817245D01*
X171901100Y-84820402D01*
X171739202Y-84982300D01*
X171736045Y-84986808D01*
X171736043Y-84986811D01*
X171703077Y-85033891D01*
X171607877Y-85169851D01*
X171605554Y-85174833D01*
X171605551Y-85174838D01*
X171515118Y-85368774D01*
X171511116Y-85377357D01*
X171509694Y-85382665D01*
X171509693Y-85382667D01*
X171459040Y-85571706D01*
X171451857Y-85598513D01*
X171431902Y-85826600D01*
X171451857Y-86054687D01*
X171453281Y-86060000D01*
X171453281Y-86060002D01*
X171480895Y-86163056D01*
X171511116Y-86275843D01*
X171513439Y-86280824D01*
X171513439Y-86280825D01*
X171605551Y-86478362D01*
X171605554Y-86478367D01*
X171607877Y-86483349D01*
X171646282Y-86538197D01*
X171735261Y-86665271D01*
X171739202Y-86670900D01*
X171901100Y-86832798D01*
X171905608Y-86835955D01*
X171905611Y-86835957D01*
X171907021Y-86836944D01*
X172088651Y-86964123D01*
X172093633Y-86966446D01*
X172093638Y-86966449D01*
X172291175Y-87058561D01*
X172296157Y-87060884D01*
X172301465Y-87062306D01*
X172301467Y-87062307D01*
X172511998Y-87118719D01*
X172512000Y-87118719D01*
X172517313Y-87120143D01*
X172745400Y-87140098D01*
X172973487Y-87120143D01*
X172978800Y-87118719D01*
X172978802Y-87118719D01*
X173189333Y-87062307D01*
X173189335Y-87062306D01*
X173194643Y-87060884D01*
X173199625Y-87058561D01*
X173397162Y-86966449D01*
X173397167Y-86966446D01*
X173402149Y-86964123D01*
X173583779Y-86836944D01*
X173585189Y-86835957D01*
X173585192Y-86835955D01*
X173589700Y-86832798D01*
X173751598Y-86670900D01*
X173755540Y-86665271D01*
X173844518Y-86538197D01*
X173882923Y-86483349D01*
X173885246Y-86478367D01*
X173885249Y-86478362D01*
X173977361Y-86280825D01*
X173977361Y-86280824D01*
X173979684Y-86275843D01*
X174009906Y-86163056D01*
X174037519Y-86060002D01*
X174037519Y-86060000D01*
X174038943Y-86054687D01*
X174058898Y-85826600D01*
X174038943Y-85598513D01*
X174031760Y-85571706D01*
X173981107Y-85382667D01*
X173981106Y-85382665D01*
X173979684Y-85377357D01*
X173975682Y-85368774D01*
X173885249Y-85174838D01*
X173885246Y-85174833D01*
X173882923Y-85169851D01*
X173787723Y-85033891D01*
X173754757Y-84986811D01*
X173754755Y-84986808D01*
X173751598Y-84982300D01*
X173589700Y-84820402D01*
X173585192Y-84817245D01*
X173585189Y-84817243D01*
X173507011Y-84762502D01*
X173402149Y-84689077D01*
X173397167Y-84686754D01*
X173397162Y-84686751D01*
X173361558Y-84670149D01*
X173308273Y-84623231D01*
X173288812Y-84554954D01*
X173309354Y-84486994D01*
X173363377Y-84440929D01*
X173414808Y-84429954D01*
X176518611Y-84429954D01*
X176586732Y-84449956D01*
X176633225Y-84503612D01*
X176643329Y-84573886D01*
X176613835Y-84638466D01*
X176590882Y-84659167D01*
X176560211Y-84680643D01*
X176560208Y-84680645D01*
X176555700Y-84683802D01*
X176393802Y-84845700D01*
X176390645Y-84850208D01*
X176390643Y-84850211D01*
X176362833Y-84889928D01*
X176262477Y-85033251D01*
X176260154Y-85038233D01*
X176260151Y-85038238D01*
X176178918Y-85212444D01*
X176165716Y-85240757D01*
X176164294Y-85246065D01*
X176164293Y-85246067D01*
X176113748Y-85434703D01*
X176106457Y-85461913D01*
X176086502Y-85690000D01*
X176106457Y-85918087D01*
X176107881Y-85923400D01*
X176107881Y-85923402D01*
X176157900Y-86110072D01*
X176165716Y-86139243D01*
X176168039Y-86144224D01*
X176168039Y-86144225D01*
X176260151Y-86341762D01*
X176260154Y-86341767D01*
X176262477Y-86346749D01*
X176270923Y-86358811D01*
X176358126Y-86483349D01*
X176393802Y-86534300D01*
X176555700Y-86696198D01*
X176560208Y-86699355D01*
X176560211Y-86699357D01*
X176613600Y-86736740D01*
X176743251Y-86827523D01*
X176748233Y-86829846D01*
X176748238Y-86829849D01*
X176890543Y-86896206D01*
X176950757Y-86924284D01*
X176956065Y-86925706D01*
X176956067Y-86925707D01*
X177166598Y-86982119D01*
X177166600Y-86982119D01*
X177171913Y-86983543D01*
X177400000Y-87003498D01*
X177628087Y-86983543D01*
X177633400Y-86982119D01*
X177633402Y-86982119D01*
X177843933Y-86925707D01*
X177843935Y-86925706D01*
X177849243Y-86924284D01*
X177909457Y-86896206D01*
X178051762Y-86829849D01*
X178051767Y-86829846D01*
X178056749Y-86827523D01*
X178186400Y-86736740D01*
X178239789Y-86699357D01*
X178239792Y-86699355D01*
X178244300Y-86696198D01*
X178406198Y-86534300D01*
X178441875Y-86483349D01*
X178529077Y-86358811D01*
X178537523Y-86346749D01*
X178539846Y-86341767D01*
X178539849Y-86341762D01*
X178631961Y-86144225D01*
X178631961Y-86144224D01*
X178634284Y-86139243D01*
X178642101Y-86110072D01*
X178692119Y-85923402D01*
X178692119Y-85923400D01*
X178693543Y-85918087D01*
X178713498Y-85690000D01*
X178693543Y-85461913D01*
X178686252Y-85434703D01*
X178635707Y-85246067D01*
X178635706Y-85246065D01*
X178634284Y-85240757D01*
X178621082Y-85212444D01*
X178539849Y-85038238D01*
X178539846Y-85038233D01*
X178537523Y-85033251D01*
X178437167Y-84889928D01*
X178409357Y-84850211D01*
X178409355Y-84850208D01*
X178406198Y-84845700D01*
X178244300Y-84683802D01*
X178239792Y-84680645D01*
X178239789Y-84680643D01*
X178209118Y-84659167D01*
X178164790Y-84603709D01*
X178157481Y-84533090D01*
X178189512Y-84469730D01*
X178250714Y-84433745D01*
X178281389Y-84429954D01*
X189874000Y-84429954D01*
X189942121Y-84449956D01*
X189988614Y-84503612D01*
X190000000Y-84555954D01*
X190000000Y-87804851D01*
X189979998Y-87872972D01*
X189926342Y-87919465D01*
X189856068Y-87929569D01*
X189791488Y-87900075D01*
X189751481Y-87834265D01*
X189730573Y-87747176D01*
X189721505Y-87709406D01*
X189719611Y-87704833D01*
X189632535Y-87494611D01*
X189632533Y-87494607D01*
X189630640Y-87490037D01*
X189604913Y-87448054D01*
X189509159Y-87291798D01*
X189509155Y-87291792D01*
X189506576Y-87287584D01*
X189352369Y-87107031D01*
X189171816Y-86952824D01*
X189167608Y-86950245D01*
X189167602Y-86950241D01*
X188973583Y-86831346D01*
X188969363Y-86828760D01*
X188964793Y-86826867D01*
X188964789Y-86826865D01*
X188754567Y-86739789D01*
X188754565Y-86739788D01*
X188749994Y-86737895D01*
X188669791Y-86718640D01*
X188523924Y-86683620D01*
X188523918Y-86683619D01*
X188519111Y-86682465D01*
X188282400Y-86663835D01*
X188045689Y-86682465D01*
X188040882Y-86683619D01*
X188040876Y-86683620D01*
X187895009Y-86718640D01*
X187814806Y-86737895D01*
X187810235Y-86739788D01*
X187810233Y-86739789D01*
X187600011Y-86826865D01*
X187600007Y-86826867D01*
X187595437Y-86828760D01*
X187591217Y-86831346D01*
X187397198Y-86950241D01*
X187397192Y-86950245D01*
X187392984Y-86952824D01*
X187212431Y-87107031D01*
X187058224Y-87287584D01*
X187055645Y-87291792D01*
X187055641Y-87291798D01*
X186959887Y-87448054D01*
X186934160Y-87490037D01*
X186932267Y-87494607D01*
X186932265Y-87494611D01*
X186845189Y-87704833D01*
X186843295Y-87709406D01*
X186841478Y-87716976D01*
X186789285Y-87934375D01*
X186787865Y-87940289D01*
X186769235Y-88177000D01*
X186787865Y-88413711D01*
X186789019Y-88418518D01*
X186789020Y-88418524D01*
X186816919Y-88534729D01*
X186843295Y-88644594D01*
X186845188Y-88649165D01*
X186845189Y-88649167D01*
X186924727Y-88841189D01*
X186934160Y-88863963D01*
X186936746Y-88868183D01*
X187055641Y-89062202D01*
X187055645Y-89062208D01*
X187058224Y-89066416D01*
X187212431Y-89246969D01*
X187392984Y-89401176D01*
X187397192Y-89403755D01*
X187397198Y-89403759D01*
X187480431Y-89454764D01*
X187595437Y-89525240D01*
X187600007Y-89527133D01*
X187600011Y-89527135D01*
X187810233Y-89614211D01*
X187814806Y-89616105D01*
X187895009Y-89635360D01*
X188040876Y-89670380D01*
X188040882Y-89670381D01*
X188045689Y-89671535D01*
X188282400Y-89690165D01*
X188519111Y-89671535D01*
X188523918Y-89670381D01*
X188523924Y-89670380D01*
X188669791Y-89635360D01*
X188749994Y-89616105D01*
X188754567Y-89614211D01*
X188964789Y-89527135D01*
X188964793Y-89527133D01*
X188969363Y-89525240D01*
X189084369Y-89454764D01*
X189167602Y-89403759D01*
X189167608Y-89403755D01*
X189171816Y-89401176D01*
X189352369Y-89246969D01*
X189506576Y-89066416D01*
X189509155Y-89062208D01*
X189509159Y-89062202D01*
X189628054Y-88868183D01*
X189630640Y-88863963D01*
X189640074Y-88841189D01*
X189719611Y-88649167D01*
X189719612Y-88649165D01*
X189721505Y-88644594D01*
X189747881Y-88534729D01*
X189751481Y-88519735D01*
X189786833Y-88458166D01*
X189849860Y-88425483D01*
X189920551Y-88432064D01*
X189976462Y-88475818D01*
X190000000Y-88549149D01*
X190000000Y-91813852D01*
X189979998Y-91881973D01*
X189926342Y-91928466D01*
X189856068Y-91938570D01*
X189791488Y-91909076D01*
X189751482Y-91843267D01*
X189748063Y-91829027D01*
X189748060Y-91829018D01*
X189746905Y-91824206D01*
X189726963Y-91776062D01*
X189657935Y-91609411D01*
X189657933Y-91609407D01*
X189656040Y-91604837D01*
X189645255Y-91587237D01*
X189534559Y-91406598D01*
X189534555Y-91406592D01*
X189531976Y-91402384D01*
X189377769Y-91221831D01*
X189197216Y-91067624D01*
X189193008Y-91065045D01*
X189193002Y-91065041D01*
X188998983Y-90946146D01*
X188994763Y-90943560D01*
X188990193Y-90941667D01*
X188990189Y-90941665D01*
X188779967Y-90854589D01*
X188779965Y-90854588D01*
X188775394Y-90852695D01*
X188695191Y-90833440D01*
X188549324Y-90798420D01*
X188549318Y-90798419D01*
X188544511Y-90797265D01*
X188307800Y-90778635D01*
X188071089Y-90797265D01*
X188066282Y-90798419D01*
X188066276Y-90798420D01*
X187920409Y-90833440D01*
X187840206Y-90852695D01*
X187835635Y-90854588D01*
X187835633Y-90854589D01*
X187625411Y-90941665D01*
X187625407Y-90941667D01*
X187620837Y-90943560D01*
X187616617Y-90946146D01*
X187422598Y-91065041D01*
X187422592Y-91065045D01*
X187418384Y-91067624D01*
X187237831Y-91221831D01*
X187083624Y-91402384D01*
X187081045Y-91406592D01*
X187081041Y-91406598D01*
X186970345Y-91587237D01*
X186959560Y-91604837D01*
X186957667Y-91609407D01*
X186957665Y-91609411D01*
X186888637Y-91776062D01*
X186868695Y-91824206D01*
X186864280Y-91842596D01*
X186814528Y-92049829D01*
X186813265Y-92055089D01*
X186794635Y-92291800D01*
X186813265Y-92528511D01*
X186814419Y-92533318D01*
X186814420Y-92533324D01*
X186849337Y-92678764D01*
X186868695Y-92759394D01*
X186870588Y-92763965D01*
X186870589Y-92763967D01*
X186955431Y-92968794D01*
X186959560Y-92978763D01*
X186962146Y-92982983D01*
X187081041Y-93177002D01*
X187081045Y-93177008D01*
X187083624Y-93181216D01*
X187237831Y-93361769D01*
X187418384Y-93515976D01*
X187422592Y-93518555D01*
X187422598Y-93518559D01*
X187559938Y-93602721D01*
X187620837Y-93640040D01*
X187625407Y-93641933D01*
X187625411Y-93641935D01*
X187835633Y-93729011D01*
X187840206Y-93730905D01*
X187920409Y-93750160D01*
X188066276Y-93785180D01*
X188066282Y-93785181D01*
X188071089Y-93786335D01*
X188307800Y-93804965D01*
X188544511Y-93786335D01*
X188549318Y-93785181D01*
X188549324Y-93785180D01*
X188695191Y-93750160D01*
X188775394Y-93730905D01*
X188779967Y-93729011D01*
X188990189Y-93641935D01*
X188990193Y-93641933D01*
X188994763Y-93640040D01*
X189055662Y-93602721D01*
X189193002Y-93518559D01*
X189193008Y-93518555D01*
X189197216Y-93515976D01*
X189377769Y-93361769D01*
X189531976Y-93181216D01*
X189534555Y-93177008D01*
X189534559Y-93177002D01*
X189653454Y-92982983D01*
X189656040Y-92978763D01*
X189660170Y-92968794D01*
X189745011Y-92763967D01*
X189745012Y-92763965D01*
X189746905Y-92759394D01*
X189748061Y-92754580D01*
X189748063Y-92754573D01*
X189751482Y-92740333D01*
X189786834Y-92678764D01*
X189849861Y-92646082D01*
X189920552Y-92652663D01*
X189976463Y-92696417D01*
X190000000Y-92769748D01*
X190000000Y-96089450D01*
X189979998Y-96157571D01*
X189926342Y-96204064D01*
X189856068Y-96214168D01*
X189791488Y-96184674D01*
X189751481Y-96118864D01*
X189697260Y-95893018D01*
X189696105Y-95888206D01*
X189693409Y-95881697D01*
X189607135Y-95673411D01*
X189607133Y-95673407D01*
X189605240Y-95668837D01*
X189598845Y-95658401D01*
X189483759Y-95470598D01*
X189483755Y-95470592D01*
X189481176Y-95466384D01*
X189326969Y-95285831D01*
X189146416Y-95131624D01*
X189142208Y-95129045D01*
X189142202Y-95129041D01*
X188948183Y-95010146D01*
X188943963Y-95007560D01*
X188939393Y-95005667D01*
X188939389Y-95005665D01*
X188729167Y-94918589D01*
X188729165Y-94918588D01*
X188724594Y-94916695D01*
X188644391Y-94897440D01*
X188498524Y-94862420D01*
X188498518Y-94862419D01*
X188493711Y-94861265D01*
X188257000Y-94842635D01*
X188020289Y-94861265D01*
X188015482Y-94862419D01*
X188015476Y-94862420D01*
X187869609Y-94897440D01*
X187789406Y-94916695D01*
X187784835Y-94918588D01*
X187784833Y-94918589D01*
X187574611Y-95005665D01*
X187574607Y-95005667D01*
X187570037Y-95007560D01*
X187565817Y-95010146D01*
X187371798Y-95129041D01*
X187371792Y-95129045D01*
X187367584Y-95131624D01*
X187187031Y-95285831D01*
X187032824Y-95466384D01*
X187030245Y-95470592D01*
X187030241Y-95470598D01*
X186915155Y-95658401D01*
X186908760Y-95668837D01*
X186906867Y-95673407D01*
X186906865Y-95673411D01*
X186820591Y-95881697D01*
X186817895Y-95888206D01*
X186816740Y-95893018D01*
X186769581Y-96089450D01*
X186762465Y-96119089D01*
X186743835Y-96355800D01*
X186762465Y-96592511D01*
X186763619Y-96597318D01*
X186763620Y-96597324D01*
X186789362Y-96704547D01*
X186817895Y-96823394D01*
X186819788Y-96827965D01*
X186819789Y-96827967D01*
X186874574Y-96960229D01*
X186908760Y-97042763D01*
X186911346Y-97046983D01*
X187030241Y-97241002D01*
X187030245Y-97241008D01*
X187032824Y-97245216D01*
X187187031Y-97425769D01*
X187367584Y-97579976D01*
X187371792Y-97582555D01*
X187371798Y-97582559D01*
X187548384Y-97690771D01*
X187570037Y-97704040D01*
X187574607Y-97705933D01*
X187574611Y-97705935D01*
X187784833Y-97793011D01*
X187789406Y-97794905D01*
X187844988Y-97808249D01*
X188015476Y-97849180D01*
X188015482Y-97849181D01*
X188020289Y-97850335D01*
X188257000Y-97868965D01*
X188493711Y-97850335D01*
X188498518Y-97849181D01*
X188498524Y-97849180D01*
X188669012Y-97808249D01*
X188724594Y-97794905D01*
X188729167Y-97793011D01*
X188939389Y-97705935D01*
X188939393Y-97705933D01*
X188943963Y-97704040D01*
X188965616Y-97690771D01*
X189142202Y-97582559D01*
X189142208Y-97582555D01*
X189146416Y-97579976D01*
X189326969Y-97425769D01*
X189481176Y-97245216D01*
X189483755Y-97241008D01*
X189483759Y-97241002D01*
X189602654Y-97046983D01*
X189605240Y-97042763D01*
X189639427Y-96960229D01*
X189694211Y-96827967D01*
X189694212Y-96827965D01*
X189696105Y-96823394D01*
X189751481Y-96592736D01*
X189786833Y-96531167D01*
X189849860Y-96498484D01*
X189920551Y-96505065D01*
X189976462Y-96548819D01*
X190000000Y-96622150D01*
X190000000Y-105773596D01*
X189979998Y-105841717D01*
X189926342Y-105888210D01*
X189874000Y-105899596D01*
X189225815Y-105899596D01*
X189157694Y-105879594D01*
X189111201Y-105825938D01*
X189101097Y-105755664D01*
X189130591Y-105691084D01*
X189143984Y-105677785D01*
X189196213Y-105633177D01*
X189199969Y-105629969D01*
X189354176Y-105449416D01*
X189356755Y-105445208D01*
X189356759Y-105445202D01*
X189475654Y-105251183D01*
X189478240Y-105246963D01*
X189484781Y-105231173D01*
X189567211Y-105032167D01*
X189567212Y-105032165D01*
X189569105Y-105027594D01*
X189595744Y-104916635D01*
X189623380Y-104801524D01*
X189623381Y-104801518D01*
X189624535Y-104796711D01*
X189643165Y-104560000D01*
X189624535Y-104323289D01*
X189622801Y-104316064D01*
X189579726Y-104136646D01*
X189569105Y-104092406D01*
X189540183Y-104022581D01*
X189480135Y-103877611D01*
X189480133Y-103877607D01*
X189478240Y-103873037D01*
X189473481Y-103865271D01*
X189356759Y-103674798D01*
X189356755Y-103674792D01*
X189354176Y-103670584D01*
X189199969Y-103490031D01*
X189019416Y-103335824D01*
X189015208Y-103333245D01*
X189015202Y-103333241D01*
X188821183Y-103214346D01*
X188816963Y-103211760D01*
X188812393Y-103209867D01*
X188812389Y-103209865D01*
X188602167Y-103122789D01*
X188602165Y-103122788D01*
X188597594Y-103120895D01*
X188517391Y-103101640D01*
X188371524Y-103066620D01*
X188371518Y-103066619D01*
X188366711Y-103065465D01*
X188130000Y-103046835D01*
X187893289Y-103065465D01*
X187888482Y-103066619D01*
X187888476Y-103066620D01*
X187742609Y-103101640D01*
X187662406Y-103120895D01*
X187657835Y-103122788D01*
X187657833Y-103122789D01*
X187447611Y-103209865D01*
X187447607Y-103209867D01*
X187443037Y-103211760D01*
X187438817Y-103214346D01*
X187244798Y-103333241D01*
X187244792Y-103333245D01*
X187240584Y-103335824D01*
X187060031Y-103490031D01*
X186905824Y-103670584D01*
X186903245Y-103674792D01*
X186903241Y-103674798D01*
X186786519Y-103865271D01*
X186781760Y-103873037D01*
X186779867Y-103877607D01*
X186779865Y-103877611D01*
X186719817Y-104022581D01*
X186690895Y-104092406D01*
X186680274Y-104136646D01*
X186637200Y-104316064D01*
X186635465Y-104323289D01*
X186616835Y-104560000D01*
X186635465Y-104796711D01*
X186636619Y-104801518D01*
X186636620Y-104801524D01*
X186664256Y-104916635D01*
X186690895Y-105027594D01*
X186692788Y-105032165D01*
X186692789Y-105032167D01*
X186775220Y-105231173D01*
X186781760Y-105246963D01*
X186784346Y-105251183D01*
X186903241Y-105445202D01*
X186903245Y-105445208D01*
X186905824Y-105449416D01*
X187060031Y-105629969D01*
X187063787Y-105633177D01*
X187116016Y-105677785D01*
X187154825Y-105737236D01*
X187155331Y-105808231D01*
X187117375Y-105868229D01*
X187053006Y-105898182D01*
X187034185Y-105899596D01*
X144721106Y-105899596D01*
X144652985Y-105879594D01*
X144606492Y-105825938D01*
X144596388Y-105755664D01*
X144611986Y-105710598D01*
X144634527Y-105671556D01*
X144693542Y-105489928D01*
X144694872Y-105477279D01*
X144712814Y-105306565D01*
X144713504Y-105300000D01*
X144701015Y-105181173D01*
X144694232Y-105116635D01*
X144694232Y-105116633D01*
X144693542Y-105110072D01*
X144634527Y-104928444D01*
X144539040Y-104763056D01*
X144527131Y-104749829D01*
X144415675Y-104626045D01*
X144415674Y-104626044D01*
X144411253Y-104621134D01*
X144256752Y-104508882D01*
X144250724Y-104506198D01*
X144250722Y-104506197D01*
X144088319Y-104433891D01*
X144088318Y-104433891D01*
X144082288Y-104431206D01*
X143988887Y-104411353D01*
X143901944Y-104392872D01*
X143901939Y-104392872D01*
X143895487Y-104391500D01*
X143704513Y-104391500D01*
X143698061Y-104392872D01*
X143698056Y-104392872D01*
X143611113Y-104411353D01*
X143517712Y-104431206D01*
X143511682Y-104433891D01*
X143511681Y-104433891D01*
X143349278Y-104506197D01*
X143349276Y-104506198D01*
X143343248Y-104508882D01*
X143188747Y-104621134D01*
X143184326Y-104626044D01*
X143184325Y-104626045D01*
X143072870Y-104749829D01*
X143060960Y-104763056D01*
X142965473Y-104928444D01*
X142906458Y-105110072D01*
X142905768Y-105116633D01*
X142905768Y-105116635D01*
X142898985Y-105181173D01*
X142886496Y-105300000D01*
X142887186Y-105306565D01*
X142905129Y-105477279D01*
X142906458Y-105489928D01*
X142965473Y-105671556D01*
X142988014Y-105710597D01*
X143004751Y-105779591D01*
X142981531Y-105846683D01*
X142925724Y-105890570D01*
X142878894Y-105899596D01*
X122185547Y-105899596D01*
X122117426Y-105879594D01*
X122070933Y-105825938D01*
X122060829Y-105755664D01*
X122091910Y-105689287D01*
X122139040Y-105636944D01*
X122217202Y-105501564D01*
X122231223Y-105477279D01*
X122231224Y-105477278D01*
X122234527Y-105471556D01*
X122293542Y-105289928D01*
X122298539Y-105242389D01*
X122312814Y-105106565D01*
X122313504Y-105100000D01*
X122305846Y-105027137D01*
X122294232Y-104916635D01*
X122294232Y-104916633D01*
X122293542Y-104910072D01*
X122234527Y-104728444D01*
X122139040Y-104563056D01*
X122131850Y-104555070D01*
X122015675Y-104426045D01*
X122015674Y-104426044D01*
X122011253Y-104421134D01*
X121892380Y-104334767D01*
X121862094Y-104312763D01*
X121862093Y-104312762D01*
X121856752Y-104308882D01*
X121850724Y-104306198D01*
X121850722Y-104306197D01*
X121688319Y-104233891D01*
X121688318Y-104233891D01*
X121682288Y-104231206D01*
X121588888Y-104211353D01*
X121563451Y-104205946D01*
X137672181Y-104205946D01*
X137672871Y-104212511D01*
X137689015Y-104366109D01*
X137692143Y-104395874D01*
X137751158Y-104577502D01*
X137846645Y-104742890D01*
X137851063Y-104747797D01*
X137851064Y-104747798D01*
X137895332Y-104796963D01*
X137974432Y-104884812D01*
X138128933Y-104997064D01*
X138134961Y-104999748D01*
X138134963Y-104999749D01*
X138297366Y-105072055D01*
X138303397Y-105074740D01*
X138391350Y-105093435D01*
X138483741Y-105113074D01*
X138483746Y-105113074D01*
X138490198Y-105114446D01*
X138681172Y-105114446D01*
X138687624Y-105113074D01*
X138687629Y-105113074D01*
X138780020Y-105093435D01*
X138867973Y-105074740D01*
X138874004Y-105072055D01*
X139036407Y-104999749D01*
X139036409Y-104999748D01*
X139042437Y-104997064D01*
X139196938Y-104884812D01*
X139276038Y-104796963D01*
X139320306Y-104747798D01*
X139320307Y-104747797D01*
X139324725Y-104742890D01*
X139420212Y-104577502D01*
X139479227Y-104395874D01*
X139482356Y-104366109D01*
X139498499Y-104212511D01*
X139499189Y-104205946D01*
X139489105Y-104110000D01*
X139479917Y-104022581D01*
X139479917Y-104022579D01*
X139479227Y-104016018D01*
X139420212Y-103834390D01*
X139324725Y-103669002D01*
X139296661Y-103637833D01*
X139201360Y-103531991D01*
X139201359Y-103531990D01*
X139196938Y-103527080D01*
X139159666Y-103500000D01*
X175786496Y-103500000D01*
X175787186Y-103506565D01*
X175804860Y-103674720D01*
X175806458Y-103689928D01*
X175865473Y-103871556D01*
X175868776Y-103877278D01*
X175868777Y-103877279D01*
X175889021Y-103912342D01*
X175960960Y-104036944D01*
X175965378Y-104041851D01*
X175965379Y-104041852D01*
X176010898Y-104092406D01*
X176088747Y-104178866D01*
X176243248Y-104291118D01*
X176249276Y-104293802D01*
X176249278Y-104293803D01*
X176411681Y-104366109D01*
X176417712Y-104368794D01*
X176511113Y-104388647D01*
X176598056Y-104407128D01*
X176598061Y-104407128D01*
X176604513Y-104408500D01*
X176795487Y-104408500D01*
X176801939Y-104407128D01*
X176801944Y-104407128D01*
X176888887Y-104388647D01*
X176982288Y-104368794D01*
X176988319Y-104366109D01*
X177150722Y-104293803D01*
X177150724Y-104293802D01*
X177156752Y-104291118D01*
X177311253Y-104178866D01*
X177376236Y-104106695D01*
X181517251Y-104106695D01*
X181517548Y-104111848D01*
X181517548Y-104111851D01*
X181528039Y-104293803D01*
X181530110Y-104329715D01*
X181531247Y-104334761D01*
X181531248Y-104334767D01*
X181547556Y-104407128D01*
X181579222Y-104547639D01*
X181617461Y-104641811D01*
X181660498Y-104747798D01*
X181663266Y-104754616D01*
X181665965Y-104759020D01*
X181769788Y-104928444D01*
X181779987Y-104945088D01*
X181926250Y-105113938D01*
X182098126Y-105256632D01*
X182291000Y-105369338D01*
X182499692Y-105449030D01*
X182504760Y-105450061D01*
X182504763Y-105450062D01*
X182610410Y-105471556D01*
X182718597Y-105493567D01*
X182723772Y-105493757D01*
X182723774Y-105493757D01*
X182936673Y-105501564D01*
X182936677Y-105501564D01*
X182941837Y-105501753D01*
X182946957Y-105501097D01*
X182946959Y-105501097D01*
X183158288Y-105474025D01*
X183158289Y-105474025D01*
X183163416Y-105473368D01*
X183169456Y-105471556D01*
X183372429Y-105410661D01*
X183372434Y-105410659D01*
X183377384Y-105409174D01*
X183577994Y-105310896D01*
X183759860Y-105181173D01*
X183764838Y-105176213D01*
X183869360Y-105072055D01*
X183918096Y-105023489D01*
X183977594Y-104940689D01*
X184045435Y-104846277D01*
X184048453Y-104842077D01*
X184068496Y-104801524D01*
X184145136Y-104646453D01*
X184145137Y-104646451D01*
X184147430Y-104641811D01*
X184212370Y-104428069D01*
X184241529Y-104206590D01*
X184242112Y-104182749D01*
X184243074Y-104143365D01*
X184243074Y-104143361D01*
X184243156Y-104140000D01*
X184224852Y-103917361D01*
X184170431Y-103700702D01*
X184081354Y-103495840D01*
X183980431Y-103339837D01*
X183962822Y-103312617D01*
X183962820Y-103312614D01*
X183960014Y-103308277D01*
X183809670Y-103143051D01*
X183805619Y-103139852D01*
X183805615Y-103139848D01*
X183638414Y-103007800D01*
X183638410Y-103007798D01*
X183634359Y-103004598D01*
X183593053Y-102981796D01*
X183543084Y-102931364D01*
X183528312Y-102861921D01*
X183553428Y-102795516D01*
X183580780Y-102768909D01*
X183624603Y-102737650D01*
X183759860Y-102641173D01*
X183767168Y-102633891D01*
X183914435Y-102487137D01*
X183918096Y-102483489D01*
X183977594Y-102400689D01*
X184045435Y-102306277D01*
X184048453Y-102302077D01*
X184052543Y-102293803D01*
X184145136Y-102106453D01*
X184145137Y-102106451D01*
X184147430Y-102101811D01*
X184194871Y-101945666D01*
X184210865Y-101893023D01*
X184210865Y-101893021D01*
X184212370Y-101888069D01*
X184236700Y-101703270D01*
X187211360Y-101703270D01*
X187217087Y-101710920D01*
X187388242Y-101815805D01*
X187397037Y-101820287D01*
X187607188Y-101907334D01*
X187616573Y-101910383D01*
X187837754Y-101963485D01*
X187847501Y-101965028D01*
X188074270Y-101982875D01*
X188084130Y-101982875D01*
X188310899Y-101965028D01*
X188320646Y-101963485D01*
X188541827Y-101910383D01*
X188551212Y-101907334D01*
X188761363Y-101820287D01*
X188770158Y-101815805D01*
X188937645Y-101713168D01*
X188947107Y-101702710D01*
X188943324Y-101693934D01*
X188092012Y-100842622D01*
X188078068Y-100835008D01*
X188076235Y-100835139D01*
X188069620Y-100839390D01*
X187218120Y-101690890D01*
X187211360Y-101703270D01*
X184236700Y-101703270D01*
X184241529Y-101666590D01*
X184242992Y-101606726D01*
X184243074Y-101603365D01*
X184243074Y-101603361D01*
X184243156Y-101600000D01*
X184224852Y-101377361D01*
X184170431Y-101160702D01*
X184081354Y-100955840D01*
X184018220Y-100858249D01*
X183962822Y-100772617D01*
X183962820Y-100772614D01*
X183960014Y-100768277D01*
X183809670Y-100603051D01*
X183805619Y-100599852D01*
X183805615Y-100599848D01*
X183648202Y-100475530D01*
X186566925Y-100475530D01*
X186584772Y-100702299D01*
X186586315Y-100712046D01*
X186639417Y-100933227D01*
X186642466Y-100942612D01*
X186729513Y-101152763D01*
X186733995Y-101161558D01*
X186836632Y-101329045D01*
X186847090Y-101338507D01*
X186855866Y-101334724D01*
X187707178Y-100483412D01*
X187713556Y-100471732D01*
X188443608Y-100471732D01*
X188443739Y-100473565D01*
X188447990Y-100480180D01*
X189299490Y-101331680D01*
X189311870Y-101338440D01*
X189319520Y-101332713D01*
X189424405Y-101161558D01*
X189428887Y-101152763D01*
X189515934Y-100942612D01*
X189518983Y-100933227D01*
X189572085Y-100712046D01*
X189573628Y-100702299D01*
X189591475Y-100475530D01*
X189591475Y-100465670D01*
X189573628Y-100238901D01*
X189572085Y-100229154D01*
X189518983Y-100007973D01*
X189515934Y-99998588D01*
X189428887Y-99788437D01*
X189424405Y-99779642D01*
X189321768Y-99612155D01*
X189311310Y-99602693D01*
X189302534Y-99606476D01*
X188451222Y-100457788D01*
X188443608Y-100471732D01*
X187713556Y-100471732D01*
X187714792Y-100469468D01*
X187714661Y-100467635D01*
X187710410Y-100461020D01*
X186858910Y-99609520D01*
X186846530Y-99602760D01*
X186838880Y-99608487D01*
X186733995Y-99779642D01*
X186729513Y-99788437D01*
X186642466Y-99998588D01*
X186639417Y-100007973D01*
X186586315Y-100229154D01*
X186584772Y-100238901D01*
X186566925Y-100465670D01*
X186566925Y-100475530D01*
X183648202Y-100475530D01*
X183638414Y-100467800D01*
X183638410Y-100467798D01*
X183634359Y-100464598D01*
X183593053Y-100441796D01*
X183543084Y-100391364D01*
X183528312Y-100321921D01*
X183553428Y-100255516D01*
X183580780Y-100228909D01*
X183624603Y-100197650D01*
X183759860Y-100101173D01*
X183763992Y-100097056D01*
X183892722Y-99968774D01*
X183918096Y-99943489D01*
X183965673Y-99877279D01*
X184045435Y-99766277D01*
X184048453Y-99762077D01*
X184050953Y-99757020D01*
X184145136Y-99566453D01*
X184145137Y-99566451D01*
X184147430Y-99561811D01*
X184194010Y-99408500D01*
X184210865Y-99353023D01*
X184210865Y-99353021D01*
X184212370Y-99348069D01*
X184226797Y-99238490D01*
X187211293Y-99238490D01*
X187215076Y-99247266D01*
X188066388Y-100098578D01*
X188080332Y-100106192D01*
X188082165Y-100106061D01*
X188088780Y-100101810D01*
X188940280Y-99250310D01*
X188947040Y-99237930D01*
X188941313Y-99230280D01*
X188770158Y-99125395D01*
X188761363Y-99120913D01*
X188551212Y-99033866D01*
X188541827Y-99030817D01*
X188320646Y-98977715D01*
X188310899Y-98976172D01*
X188084130Y-98958325D01*
X188074270Y-98958325D01*
X187847501Y-98976172D01*
X187837754Y-98977715D01*
X187616573Y-99030817D01*
X187607188Y-99033866D01*
X187397037Y-99120913D01*
X187388242Y-99125395D01*
X187220755Y-99228032D01*
X187211293Y-99238490D01*
X184226797Y-99238490D01*
X184241529Y-99126590D01*
X184243156Y-99060000D01*
X184224852Y-98837361D01*
X184170431Y-98620702D01*
X184081354Y-98415840D01*
X184008868Y-98303794D01*
X183962822Y-98232617D01*
X183962820Y-98232614D01*
X183960014Y-98228277D01*
X183809670Y-98063051D01*
X183805619Y-98059852D01*
X183805615Y-98059848D01*
X183638414Y-97927800D01*
X183638410Y-97927798D01*
X183634359Y-97924598D01*
X183593053Y-97901796D01*
X183543084Y-97851364D01*
X183528312Y-97781921D01*
X183553428Y-97715516D01*
X183580780Y-97688909D01*
X183625895Y-97656729D01*
X183759860Y-97561173D01*
X183779493Y-97541609D01*
X183904184Y-97417352D01*
X183918096Y-97403489D01*
X183925321Y-97393435D01*
X184045435Y-97226277D01*
X184048453Y-97222077D01*
X184050789Y-97217352D01*
X184145136Y-97026453D01*
X184145137Y-97026451D01*
X184147430Y-97021811D01*
X184212370Y-96808069D01*
X184241529Y-96586590D01*
X184243156Y-96520000D01*
X184224852Y-96297361D01*
X184170431Y-96080702D01*
X184081354Y-95875840D01*
X183960014Y-95688277D01*
X183809670Y-95523051D01*
X183805619Y-95519852D01*
X183805615Y-95519848D01*
X183638414Y-95387800D01*
X183638410Y-95387798D01*
X183634359Y-95384598D01*
X183593053Y-95361796D01*
X183543084Y-95311364D01*
X183528312Y-95241921D01*
X183553428Y-95175516D01*
X183580780Y-95148909D01*
X183644050Y-95103779D01*
X183759860Y-95021173D01*
X183918096Y-94863489D01*
X183927670Y-94850166D01*
X184043838Y-94688500D01*
X184048453Y-94682077D01*
X184057505Y-94663763D01*
X184145136Y-94486453D01*
X184145137Y-94486451D01*
X184147430Y-94481811D01*
X184212370Y-94268069D01*
X184241529Y-94046590D01*
X184242375Y-94011966D01*
X184243074Y-93983365D01*
X184243074Y-93983361D01*
X184243156Y-93980000D01*
X184224852Y-93757361D01*
X184170431Y-93540702D01*
X184081354Y-93335840D01*
X184041906Y-93274862D01*
X183962822Y-93152617D01*
X183962820Y-93152614D01*
X183960014Y-93148277D01*
X183809670Y-92983051D01*
X183805619Y-92979852D01*
X183805615Y-92979848D01*
X183638414Y-92847800D01*
X183638410Y-92847798D01*
X183634359Y-92844598D01*
X183593053Y-92821796D01*
X183543084Y-92771364D01*
X183528312Y-92701921D01*
X183553428Y-92635516D01*
X183580780Y-92608909D01*
X183624603Y-92577650D01*
X183759860Y-92481173D01*
X183782060Y-92459051D01*
X183914435Y-92327137D01*
X183918096Y-92323489D01*
X183955358Y-92271634D01*
X184045435Y-92146277D01*
X184048453Y-92142077D01*
X184089007Y-92060023D01*
X184145136Y-91946453D01*
X184145137Y-91946451D01*
X184147430Y-91941811D01*
X184201585Y-91763566D01*
X184210865Y-91733023D01*
X184210865Y-91733021D01*
X184212370Y-91728069D01*
X184241529Y-91506590D01*
X184242112Y-91482749D01*
X184243074Y-91443365D01*
X184243074Y-91443361D01*
X184243156Y-91440000D01*
X184224852Y-91217361D01*
X184170431Y-91000702D01*
X184081354Y-90795840D01*
X184041906Y-90734862D01*
X183962822Y-90612617D01*
X183962820Y-90612614D01*
X183960014Y-90608277D01*
X183809670Y-90443051D01*
X183805619Y-90439852D01*
X183805615Y-90439848D01*
X183638414Y-90307800D01*
X183638410Y-90307798D01*
X183634359Y-90304598D01*
X183593053Y-90281796D01*
X183543084Y-90231364D01*
X183528312Y-90161921D01*
X183553428Y-90095516D01*
X183580780Y-90068909D01*
X183649027Y-90020229D01*
X183759860Y-89941173D01*
X183769988Y-89931081D01*
X183879746Y-89821705D01*
X183918096Y-89783489D01*
X183927670Y-89770166D01*
X184045435Y-89606277D01*
X184048453Y-89602077D01*
X184053472Y-89591923D01*
X184145136Y-89406453D01*
X184145137Y-89406451D01*
X184147430Y-89401811D01*
X184212370Y-89188069D01*
X184241529Y-88966590D01*
X184242419Y-88930160D01*
X184243074Y-88903365D01*
X184243074Y-88903361D01*
X184243156Y-88900000D01*
X184224852Y-88677361D01*
X184170431Y-88460702D01*
X184081354Y-88255840D01*
X184006306Y-88139834D01*
X183962822Y-88072617D01*
X183962820Y-88072614D01*
X183960014Y-88068277D01*
X183956532Y-88064450D01*
X183812798Y-87906488D01*
X183781746Y-87842642D01*
X183790141Y-87772143D01*
X183835317Y-87717375D01*
X183861761Y-87703706D01*
X183968297Y-87663767D01*
X183976705Y-87660615D01*
X184093261Y-87573261D01*
X184180615Y-87456705D01*
X184231745Y-87320316D01*
X184238500Y-87258134D01*
X184238500Y-85461866D01*
X184231745Y-85399684D01*
X184180615Y-85263295D01*
X184093261Y-85146739D01*
X183976705Y-85059385D01*
X183840316Y-85008255D01*
X183778134Y-85001500D01*
X181981866Y-85001500D01*
X181919684Y-85008255D01*
X181783295Y-85059385D01*
X181666739Y-85146739D01*
X181579385Y-85263295D01*
X181528255Y-85399684D01*
X181521500Y-85461866D01*
X181521500Y-87258134D01*
X181528255Y-87320316D01*
X181579385Y-87456705D01*
X181666739Y-87573261D01*
X181783295Y-87660615D01*
X181791704Y-87663767D01*
X181791705Y-87663768D01*
X181900451Y-87704535D01*
X181957216Y-87747176D01*
X181981916Y-87813738D01*
X181966709Y-87883087D01*
X181947316Y-87909568D01*
X181820629Y-88042138D01*
X181694743Y-88226680D01*
X181676781Y-88265376D01*
X181610217Y-88408777D01*
X181600688Y-88429305D01*
X181540989Y-88644570D01*
X181517251Y-88866695D01*
X181517548Y-88871848D01*
X181517548Y-88871851D01*
X181523011Y-88966590D01*
X181530110Y-89089715D01*
X181531247Y-89094761D01*
X181531248Y-89094767D01*
X181544442Y-89153310D01*
X181579222Y-89307639D01*
X181663266Y-89514616D01*
X181686084Y-89551852D01*
X181773072Y-89693803D01*
X181779987Y-89705088D01*
X181926250Y-89873938D01*
X182098126Y-90016632D01*
X182104282Y-90020229D01*
X182171445Y-90059476D01*
X182220169Y-90111114D01*
X182233240Y-90180897D01*
X182206509Y-90246669D01*
X182166055Y-90280027D01*
X182153607Y-90286507D01*
X182149474Y-90289610D01*
X182149471Y-90289612D01*
X181979100Y-90417530D01*
X181974965Y-90420635D01*
X181820629Y-90582138D01*
X181817715Y-90586410D01*
X181817714Y-90586411D01*
X181738311Y-90702812D01*
X181694743Y-90766680D01*
X181654816Y-90852695D01*
X181638783Y-90887237D01*
X181600688Y-90969305D01*
X181540989Y-91184570D01*
X181517251Y-91406695D01*
X181517548Y-91411848D01*
X181517548Y-91411851D01*
X181528039Y-91593803D01*
X181530110Y-91629715D01*
X181531247Y-91634761D01*
X181531248Y-91634767D01*
X181550155Y-91718660D01*
X181579222Y-91847639D01*
X181663266Y-92054616D01*
X181779987Y-92245088D01*
X181926250Y-92413938D01*
X182098126Y-92556632D01*
X182168595Y-92597811D01*
X182171445Y-92599476D01*
X182220169Y-92651114D01*
X182233240Y-92720897D01*
X182206509Y-92786669D01*
X182166055Y-92820027D01*
X182153607Y-92826507D01*
X182149474Y-92829610D01*
X182149471Y-92829612D01*
X181986636Y-92951872D01*
X181974965Y-92960635D01*
X181930535Y-93007128D01*
X181844412Y-93097251D01*
X181820629Y-93122138D01*
X181817715Y-93126410D01*
X181817714Y-93126411D01*
X181777041Y-93186035D01*
X181694743Y-93306680D01*
X181680202Y-93338006D01*
X181618806Y-93470274D01*
X181600688Y-93509305D01*
X181540989Y-93724570D01*
X181517251Y-93946695D01*
X181517548Y-93951848D01*
X181517548Y-93951851D01*
X181523202Y-94049908D01*
X181530110Y-94169715D01*
X181531247Y-94174761D01*
X181531248Y-94174767D01*
X181543693Y-94229987D01*
X181579222Y-94387639D01*
X181617461Y-94481811D01*
X181653725Y-94571118D01*
X181663266Y-94594616D01*
X181665965Y-94599020D01*
X181773072Y-94773803D01*
X181779987Y-94785088D01*
X181926250Y-94953938D01*
X182098126Y-95096632D01*
X182110357Y-95103779D01*
X182171445Y-95139476D01*
X182220169Y-95191114D01*
X182233240Y-95260897D01*
X182206509Y-95326669D01*
X182166055Y-95360027D01*
X182153607Y-95366507D01*
X182149474Y-95369610D01*
X182149471Y-95369612D01*
X181979100Y-95497530D01*
X181974965Y-95500635D01*
X181958736Y-95517618D01*
X181841376Y-95640428D01*
X181820629Y-95662138D01*
X181817715Y-95666410D01*
X181817714Y-95666411D01*
X181751284Y-95763794D01*
X181694743Y-95846680D01*
X181675441Y-95888263D01*
X181621099Y-96005334D01*
X181600688Y-96049305D01*
X181540989Y-96264570D01*
X181517251Y-96486695D01*
X181517548Y-96491848D01*
X181517548Y-96491851D01*
X181522841Y-96583648D01*
X181530110Y-96709715D01*
X181531247Y-96714761D01*
X181531248Y-96714767D01*
X181548369Y-96790735D01*
X181579222Y-96927639D01*
X181663266Y-97134616D01*
X181665965Y-97139020D01*
X181757421Y-97288263D01*
X181779987Y-97325088D01*
X181926250Y-97493938D01*
X182098126Y-97636632D01*
X182132518Y-97656729D01*
X182171445Y-97679476D01*
X182220169Y-97731114D01*
X182233240Y-97800897D01*
X182206509Y-97866669D01*
X182166055Y-97900027D01*
X182153607Y-97906507D01*
X182149474Y-97909610D01*
X182149471Y-97909612D01*
X181979100Y-98037530D01*
X181974965Y-98040635D01*
X181820629Y-98202138D01*
X181817715Y-98206410D01*
X181817714Y-98206411D01*
X181777455Y-98265428D01*
X181694743Y-98386680D01*
X181669635Y-98440771D01*
X181620646Y-98546310D01*
X181600688Y-98589305D01*
X181540989Y-98804570D01*
X181517251Y-99026695D01*
X181517548Y-99031848D01*
X181517548Y-99031851D01*
X181522942Y-99125395D01*
X181530110Y-99249715D01*
X181531247Y-99254761D01*
X181531248Y-99254767D01*
X181550713Y-99341135D01*
X181579222Y-99467639D01*
X181663266Y-99674616D01*
X181710580Y-99751826D01*
X181750673Y-99817251D01*
X181779987Y-99865088D01*
X181926250Y-100033938D01*
X182098126Y-100176632D01*
X182107966Y-100182382D01*
X182171445Y-100219476D01*
X182220169Y-100271114D01*
X182233240Y-100340897D01*
X182206509Y-100406669D01*
X182166055Y-100440027D01*
X182161739Y-100442274D01*
X182153607Y-100446507D01*
X182149474Y-100449610D01*
X182149471Y-100449612D01*
X181979100Y-100577530D01*
X181974965Y-100580635D01*
X181971393Y-100584373D01*
X181849386Y-100712046D01*
X181820629Y-100742138D01*
X181817715Y-100746410D01*
X181817714Y-100746411D01*
X181757277Y-100835008D01*
X181694743Y-100926680D01*
X181675204Y-100968774D01*
X181606731Y-101116287D01*
X181600688Y-101129305D01*
X181580158Y-101203334D01*
X181543720Y-101334724D01*
X181540989Y-101344570D01*
X181517251Y-101566695D01*
X181517548Y-101571848D01*
X181517548Y-101571851D01*
X181522935Y-101665271D01*
X181530110Y-101789715D01*
X181531247Y-101794761D01*
X181531248Y-101794767D01*
X181547441Y-101866618D01*
X181579222Y-102007639D01*
X181617461Y-102101811D01*
X181660783Y-102208500D01*
X181663266Y-102214616D01*
X181707768Y-102287237D01*
X181739577Y-102339144D01*
X181779987Y-102405088D01*
X181926250Y-102573938D01*
X182098126Y-102716632D01*
X182168595Y-102757811D01*
X182171445Y-102759476D01*
X182220169Y-102811114D01*
X182233240Y-102880897D01*
X182206509Y-102946669D01*
X182166055Y-102980027D01*
X182153607Y-102986507D01*
X182149474Y-102989610D01*
X182149471Y-102989612D01*
X182046906Y-103066620D01*
X181974965Y-103120635D01*
X181820629Y-103282138D01*
X181817715Y-103286410D01*
X181817714Y-103286411D01*
X181781269Y-103339837D01*
X181694743Y-103466680D01*
X181600688Y-103669305D01*
X181540989Y-103884570D01*
X181517251Y-104106695D01*
X177376236Y-104106695D01*
X177389102Y-104092406D01*
X177434621Y-104041852D01*
X177434622Y-104041851D01*
X177439040Y-104036944D01*
X177510979Y-103912342D01*
X177531223Y-103877279D01*
X177531224Y-103877278D01*
X177534527Y-103871556D01*
X177593542Y-103689928D01*
X177595141Y-103674720D01*
X177612814Y-103506565D01*
X177613504Y-103500000D01*
X177605415Y-103423037D01*
X177594232Y-103316635D01*
X177594232Y-103316633D01*
X177593542Y-103310072D01*
X177534527Y-103128444D01*
X177530019Y-103120635D01*
X177442341Y-102968774D01*
X177439040Y-102963056D01*
X177410505Y-102931364D01*
X177315675Y-102826045D01*
X177315674Y-102826044D01*
X177311253Y-102821134D01*
X177156752Y-102708882D01*
X177150724Y-102706198D01*
X177150722Y-102706197D01*
X176988319Y-102633891D01*
X176988318Y-102633891D01*
X176982288Y-102631206D01*
X176888888Y-102611353D01*
X176801944Y-102592872D01*
X176801939Y-102592872D01*
X176795487Y-102591500D01*
X176604513Y-102591500D01*
X176598061Y-102592872D01*
X176598056Y-102592872D01*
X176511113Y-102611353D01*
X176417712Y-102631206D01*
X176411682Y-102633891D01*
X176411681Y-102633891D01*
X176249278Y-102706197D01*
X176249276Y-102706198D01*
X176243248Y-102708882D01*
X176088747Y-102821134D01*
X176084326Y-102826044D01*
X176084325Y-102826045D01*
X175989496Y-102931364D01*
X175960960Y-102963056D01*
X175957659Y-102968774D01*
X175869982Y-103120635D01*
X175865473Y-103128444D01*
X175806458Y-103310072D01*
X175805768Y-103316633D01*
X175805768Y-103316635D01*
X175794585Y-103423037D01*
X175786496Y-103500000D01*
X139159666Y-103500000D01*
X139053736Y-103423037D01*
X139047779Y-103418709D01*
X139047778Y-103418708D01*
X139042437Y-103414828D01*
X139036409Y-103412144D01*
X139036407Y-103412143D01*
X138874004Y-103339837D01*
X138874003Y-103339837D01*
X138867973Y-103337152D01*
X138752546Y-103312617D01*
X138687629Y-103298818D01*
X138687624Y-103298818D01*
X138681172Y-103297446D01*
X138490198Y-103297446D01*
X138483746Y-103298818D01*
X138483741Y-103298818D01*
X138418824Y-103312617D01*
X138303397Y-103337152D01*
X138297367Y-103339837D01*
X138297366Y-103339837D01*
X138134963Y-103412143D01*
X138134961Y-103412144D01*
X138128933Y-103414828D01*
X138123592Y-103418708D01*
X138123591Y-103418709D01*
X138117634Y-103423037D01*
X137974432Y-103527080D01*
X137970011Y-103531990D01*
X137970010Y-103531991D01*
X137874710Y-103637833D01*
X137846645Y-103669002D01*
X137751158Y-103834390D01*
X137692143Y-104016018D01*
X137691453Y-104022579D01*
X137691453Y-104022581D01*
X137682265Y-104110000D01*
X137672181Y-104205946D01*
X121563451Y-104205946D01*
X121501944Y-104192872D01*
X121501939Y-104192872D01*
X121495487Y-104191500D01*
X121304513Y-104191500D01*
X121298061Y-104192872D01*
X121298056Y-104192872D01*
X121211112Y-104211353D01*
X121117712Y-104231206D01*
X121111682Y-104233891D01*
X121111681Y-104233891D01*
X120949278Y-104306197D01*
X120949276Y-104306198D01*
X120943248Y-104308882D01*
X120937907Y-104312763D01*
X120932189Y-104316064D01*
X120930935Y-104313892D01*
X120874705Y-104333946D01*
X120805555Y-104317857D01*
X120756082Y-104266936D01*
X120741566Y-104205073D01*
X120743074Y-104143365D01*
X120743074Y-104143361D01*
X120743156Y-104140000D01*
X120724852Y-103917361D01*
X120670431Y-103700702D01*
X120581354Y-103495840D01*
X120480431Y-103339837D01*
X120462822Y-103312617D01*
X120462820Y-103312614D01*
X120460014Y-103308277D01*
X120309670Y-103143051D01*
X120305619Y-103139852D01*
X120305615Y-103139848D01*
X120138414Y-103007800D01*
X120138410Y-103007798D01*
X120134359Y-103004598D01*
X120093053Y-102981796D01*
X120043084Y-102931364D01*
X120028312Y-102861921D01*
X120053428Y-102795516D01*
X120080780Y-102768909D01*
X120124603Y-102737650D01*
X120259860Y-102641173D01*
X120267168Y-102633891D01*
X120414435Y-102487137D01*
X120418096Y-102483489D01*
X120477594Y-102400689D01*
X120545435Y-102306277D01*
X120548453Y-102302077D01*
X120552543Y-102293803D01*
X120645136Y-102106453D01*
X120645137Y-102106451D01*
X120647430Y-102101811D01*
X120694871Y-101945666D01*
X120710865Y-101893023D01*
X120710865Y-101893021D01*
X120712370Y-101888069D01*
X120741529Y-101666590D01*
X120742992Y-101606726D01*
X120743074Y-101603365D01*
X120743074Y-101603361D01*
X120743156Y-101600000D01*
X120724852Y-101377361D01*
X120670431Y-101160702D01*
X120589033Y-100973500D01*
X121489096Y-100973500D01*
X121489786Y-100980065D01*
X121508354Y-101156726D01*
X121509058Y-101163428D01*
X121568073Y-101345056D01*
X121571376Y-101350778D01*
X121571377Y-101350779D01*
X121586205Y-101376462D01*
X121663560Y-101510444D01*
X121667978Y-101515351D01*
X121667979Y-101515352D01*
X121753265Y-101610072D01*
X121791347Y-101652366D01*
X121945848Y-101764618D01*
X121951876Y-101767302D01*
X121951878Y-101767303D01*
X122114281Y-101839609D01*
X122120312Y-101842294D01*
X122213713Y-101862147D01*
X122300656Y-101880628D01*
X122300661Y-101880628D01*
X122307113Y-101882000D01*
X122498087Y-101882000D01*
X122504539Y-101880628D01*
X122504544Y-101880628D01*
X122591488Y-101862147D01*
X122684888Y-101842294D01*
X122690919Y-101839609D01*
X122853322Y-101767303D01*
X122853324Y-101767302D01*
X122859352Y-101764618D01*
X123013853Y-101652366D01*
X123051935Y-101610072D01*
X123137221Y-101515352D01*
X123137222Y-101515351D01*
X123141640Y-101510444D01*
X123218995Y-101376462D01*
X123233823Y-101350779D01*
X123233824Y-101350778D01*
X123237127Y-101345056D01*
X123273367Y-101233520D01*
X123313441Y-101174916D01*
X123378837Y-101147279D01*
X123448794Y-101159386D01*
X123501100Y-101207392D01*
X123513032Y-101233519D01*
X123549273Y-101345056D01*
X123552576Y-101350778D01*
X123552577Y-101350779D01*
X123567405Y-101376462D01*
X123644760Y-101510444D01*
X123649178Y-101515351D01*
X123649179Y-101515352D01*
X123734465Y-101610072D01*
X123772547Y-101652366D01*
X123927048Y-101764618D01*
X123933076Y-101767302D01*
X123933078Y-101767303D01*
X124095481Y-101839609D01*
X124101512Y-101842294D01*
X124194913Y-101862147D01*
X124281856Y-101880628D01*
X124281861Y-101880628D01*
X124288313Y-101882000D01*
X124479287Y-101882000D01*
X124485739Y-101880628D01*
X124485744Y-101880628D01*
X124572688Y-101862147D01*
X124666088Y-101842294D01*
X124672119Y-101839609D01*
X124834522Y-101767303D01*
X124834524Y-101767302D01*
X124840552Y-101764618D01*
X124995053Y-101652366D01*
X125033135Y-101610072D01*
X125118421Y-101515352D01*
X125118422Y-101515351D01*
X125122840Y-101510444D01*
X125153337Y-101457622D01*
X125204718Y-101408630D01*
X125274432Y-101395194D01*
X125340343Y-101421580D01*
X125371574Y-101457623D01*
X125460960Y-101612444D01*
X125465378Y-101617351D01*
X125465379Y-101617352D01*
X125542236Y-101702710D01*
X125588747Y-101754366D01*
X125743248Y-101866618D01*
X125749276Y-101869302D01*
X125749278Y-101869303D01*
X125834698Y-101907334D01*
X125917712Y-101944294D01*
X126007998Y-101963485D01*
X126098056Y-101982628D01*
X126098061Y-101982628D01*
X126104513Y-101984000D01*
X126295487Y-101984000D01*
X126301939Y-101982628D01*
X126301944Y-101982628D01*
X126392002Y-101963485D01*
X126482288Y-101944294D01*
X126565302Y-101907334D01*
X126650722Y-101869303D01*
X126650724Y-101869302D01*
X126656752Y-101866618D01*
X126748443Y-101800000D01*
X145386496Y-101800000D01*
X145387186Y-101806565D01*
X145401380Y-101941609D01*
X145406458Y-101989928D01*
X145465473Y-102171556D01*
X145468776Y-102177278D01*
X145468777Y-102177279D01*
X145492876Y-102219020D01*
X145560960Y-102336944D01*
X145688747Y-102478866D01*
X145787843Y-102550864D01*
X145824147Y-102577240D01*
X145843248Y-102591118D01*
X145849276Y-102593802D01*
X145849278Y-102593803D01*
X146011681Y-102666109D01*
X146017712Y-102668794D01*
X146111112Y-102688647D01*
X146198056Y-102707128D01*
X146198061Y-102707128D01*
X146204513Y-102708500D01*
X146395487Y-102708500D01*
X146401939Y-102707128D01*
X146401944Y-102707128D01*
X146488888Y-102688647D01*
X146582288Y-102668794D01*
X146588319Y-102666109D01*
X146750722Y-102593803D01*
X146750724Y-102593802D01*
X146756752Y-102591118D01*
X146775854Y-102577240D01*
X146812157Y-102550864D01*
X146911253Y-102478866D01*
X147037059Y-102339144D01*
X147097505Y-102301904D01*
X147168488Y-102303256D01*
X147181943Y-102308347D01*
X147311677Y-102366108D01*
X147311685Y-102366111D01*
X147317712Y-102368794D01*
X147411113Y-102388647D01*
X147498056Y-102407128D01*
X147498061Y-102407128D01*
X147504513Y-102408500D01*
X147695487Y-102408500D01*
X147701939Y-102407128D01*
X147701944Y-102407128D01*
X147788887Y-102388647D01*
X147882288Y-102368794D01*
X147942801Y-102341852D01*
X148050722Y-102293803D01*
X148050724Y-102293802D01*
X148056752Y-102291118D01*
X148175940Y-102204523D01*
X148242806Y-102180665D01*
X148311958Y-102196745D01*
X148324058Y-102204521D01*
X148443248Y-102291118D01*
X148449276Y-102293802D01*
X148449278Y-102293803D01*
X148557199Y-102341852D01*
X148617712Y-102368794D01*
X148711113Y-102388647D01*
X148798056Y-102407128D01*
X148798061Y-102407128D01*
X148804513Y-102408500D01*
X148995487Y-102408500D01*
X149001939Y-102407128D01*
X149001944Y-102407128D01*
X149088887Y-102388647D01*
X149182288Y-102368794D01*
X149242801Y-102341852D01*
X149350722Y-102293803D01*
X149350724Y-102293802D01*
X149356752Y-102291118D01*
X149362094Y-102287237D01*
X149425939Y-102240851D01*
X149492807Y-102216992D01*
X149561959Y-102233073D01*
X149574061Y-102240851D01*
X149637906Y-102287237D01*
X149643248Y-102291118D01*
X149649276Y-102293802D01*
X149649278Y-102293803D01*
X149757199Y-102341852D01*
X149817712Y-102368794D01*
X149911113Y-102388647D01*
X149998056Y-102407128D01*
X149998061Y-102407128D01*
X150004513Y-102408500D01*
X150195487Y-102408500D01*
X150201939Y-102407128D01*
X150201944Y-102407128D01*
X150288887Y-102388647D01*
X150382288Y-102368794D01*
X150442801Y-102341852D01*
X150550722Y-102293803D01*
X150550724Y-102293802D01*
X150556752Y-102291118D01*
X150675940Y-102204523D01*
X150742806Y-102180665D01*
X150811958Y-102196745D01*
X150824058Y-102204521D01*
X150943248Y-102291118D01*
X150949276Y-102293802D01*
X150949278Y-102293803D01*
X151057199Y-102341852D01*
X151117712Y-102368794D01*
X151211113Y-102388647D01*
X151298056Y-102407128D01*
X151298061Y-102407128D01*
X151304513Y-102408500D01*
X151495487Y-102408500D01*
X151501939Y-102407128D01*
X151501944Y-102407128D01*
X151588887Y-102388647D01*
X151682288Y-102368794D01*
X151742801Y-102341852D01*
X151850722Y-102293803D01*
X151850724Y-102293802D01*
X151856752Y-102291118D01*
X151862094Y-102287237D01*
X151925939Y-102240851D01*
X151992807Y-102216992D01*
X152061959Y-102233073D01*
X152074061Y-102240851D01*
X152137906Y-102287237D01*
X152143248Y-102291118D01*
X152149276Y-102293802D01*
X152149278Y-102293803D01*
X152257199Y-102341852D01*
X152317712Y-102368794D01*
X152411113Y-102388647D01*
X152498056Y-102407128D01*
X152498061Y-102407128D01*
X152504513Y-102408500D01*
X152695487Y-102408500D01*
X152701939Y-102407128D01*
X152701944Y-102407128D01*
X152788887Y-102388647D01*
X152882288Y-102368794D01*
X152942801Y-102341852D01*
X153050722Y-102293803D01*
X153050724Y-102293802D01*
X153056752Y-102291118D01*
X153175940Y-102204523D01*
X153242806Y-102180665D01*
X153311958Y-102196745D01*
X153324058Y-102204521D01*
X153443248Y-102291118D01*
X153449276Y-102293802D01*
X153449278Y-102293803D01*
X153557199Y-102341852D01*
X153617712Y-102368794D01*
X153711113Y-102388647D01*
X153798056Y-102407128D01*
X153798061Y-102407128D01*
X153804513Y-102408500D01*
X153995487Y-102408500D01*
X154001939Y-102407128D01*
X154001944Y-102407128D01*
X154088887Y-102388647D01*
X154182288Y-102368794D01*
X154242801Y-102341852D01*
X154350722Y-102293803D01*
X154350724Y-102293802D01*
X154356752Y-102291118D01*
X154511253Y-102178866D01*
X154520322Y-102168794D01*
X154634621Y-102041852D01*
X154634622Y-102041851D01*
X154639040Y-102036944D01*
X154734527Y-101871556D01*
X154793542Y-101689928D01*
X154794872Y-101677279D01*
X154812814Y-101506565D01*
X154813504Y-101500000D01*
X154798830Y-101360387D01*
X154794232Y-101316635D01*
X154794232Y-101316633D01*
X154793542Y-101310072D01*
X154734527Y-101128444D01*
X154724921Y-101111805D01*
X154664365Y-101006920D01*
X154639040Y-100963056D01*
X154544672Y-100858249D01*
X154515675Y-100826045D01*
X154515674Y-100826044D01*
X154511253Y-100821134D01*
X154356752Y-100708882D01*
X154350724Y-100706198D01*
X154350722Y-100706197D01*
X154188319Y-100633891D01*
X154188318Y-100633891D01*
X154182288Y-100631206D01*
X154088888Y-100611353D01*
X154001944Y-100592872D01*
X154001939Y-100592872D01*
X153995487Y-100591500D01*
X153804513Y-100591500D01*
X153798061Y-100592872D01*
X153798056Y-100592872D01*
X153711113Y-100611353D01*
X153617712Y-100631206D01*
X153611682Y-100633891D01*
X153611681Y-100633891D01*
X153449278Y-100706197D01*
X153449276Y-100706198D01*
X153443248Y-100708882D01*
X153331414Y-100790135D01*
X153324061Y-100795477D01*
X153257194Y-100819335D01*
X153188042Y-100803255D01*
X153175939Y-100795477D01*
X153168587Y-100790135D01*
X153056752Y-100708882D01*
X153050724Y-100706198D01*
X153050722Y-100706197D01*
X152888319Y-100633891D01*
X152888318Y-100633891D01*
X152882288Y-100631206D01*
X152788888Y-100611353D01*
X152701944Y-100592872D01*
X152701939Y-100592872D01*
X152695487Y-100591500D01*
X152504513Y-100591500D01*
X152498061Y-100592872D01*
X152498056Y-100592872D01*
X152411113Y-100611353D01*
X152317712Y-100631206D01*
X152311682Y-100633891D01*
X152311681Y-100633891D01*
X152149278Y-100706197D01*
X152149276Y-100706198D01*
X152143248Y-100708882D01*
X152137907Y-100712762D01*
X152137906Y-100712763D01*
X152074061Y-100759149D01*
X152007193Y-100783008D01*
X151938041Y-100766927D01*
X151925939Y-100759149D01*
X151862094Y-100712763D01*
X151862093Y-100712762D01*
X151856752Y-100708882D01*
X151850724Y-100706198D01*
X151850722Y-100706197D01*
X151688319Y-100633891D01*
X151688318Y-100633891D01*
X151682288Y-100631206D01*
X151588888Y-100611353D01*
X151501944Y-100592872D01*
X151501939Y-100592872D01*
X151495487Y-100591500D01*
X151304513Y-100591500D01*
X151298061Y-100592872D01*
X151298056Y-100592872D01*
X151211113Y-100611353D01*
X151117712Y-100631206D01*
X151111682Y-100633891D01*
X151111681Y-100633891D01*
X150949278Y-100706197D01*
X150949276Y-100706198D01*
X150943248Y-100708882D01*
X150831414Y-100790135D01*
X150824061Y-100795477D01*
X150757194Y-100819335D01*
X150688042Y-100803255D01*
X150675939Y-100795477D01*
X150668587Y-100790135D01*
X150556752Y-100708882D01*
X150550724Y-100706198D01*
X150550722Y-100706197D01*
X150388319Y-100633891D01*
X150388318Y-100633891D01*
X150382288Y-100631206D01*
X150288888Y-100611353D01*
X150201944Y-100592872D01*
X150201939Y-100592872D01*
X150195487Y-100591500D01*
X150004513Y-100591500D01*
X149998061Y-100592872D01*
X149998056Y-100592872D01*
X149911113Y-100611353D01*
X149817712Y-100631206D01*
X149811682Y-100633891D01*
X149811681Y-100633891D01*
X149649278Y-100706197D01*
X149649276Y-100706198D01*
X149643248Y-100708882D01*
X149637907Y-100712762D01*
X149637906Y-100712763D01*
X149574061Y-100759149D01*
X149507193Y-100783008D01*
X149438041Y-100766927D01*
X149425939Y-100759149D01*
X149362094Y-100712763D01*
X149362093Y-100712762D01*
X149356752Y-100708882D01*
X149350724Y-100706198D01*
X149350722Y-100706197D01*
X149188319Y-100633891D01*
X149188318Y-100633891D01*
X149182288Y-100631206D01*
X149088888Y-100611353D01*
X149001944Y-100592872D01*
X149001939Y-100592872D01*
X148995487Y-100591500D01*
X148804513Y-100591500D01*
X148798061Y-100592872D01*
X148798056Y-100592872D01*
X148711113Y-100611353D01*
X148617712Y-100631206D01*
X148611682Y-100633891D01*
X148611681Y-100633891D01*
X148449278Y-100706197D01*
X148449276Y-100706198D01*
X148443248Y-100708882D01*
X148331414Y-100790135D01*
X148324061Y-100795477D01*
X148257194Y-100819335D01*
X148188042Y-100803255D01*
X148175939Y-100795477D01*
X148168587Y-100790135D01*
X148056752Y-100708882D01*
X148050724Y-100706198D01*
X148050722Y-100706197D01*
X147888319Y-100633891D01*
X147888318Y-100633891D01*
X147882288Y-100631206D01*
X147788888Y-100611353D01*
X147701944Y-100592872D01*
X147701939Y-100592872D01*
X147695487Y-100591500D01*
X147504513Y-100591500D01*
X147498061Y-100592872D01*
X147498056Y-100592872D01*
X147411113Y-100611353D01*
X147317712Y-100631206D01*
X147311682Y-100633891D01*
X147311681Y-100633891D01*
X147149278Y-100706197D01*
X147149276Y-100706198D01*
X147143248Y-100708882D01*
X146988747Y-100821134D01*
X146984326Y-100826044D01*
X146984325Y-100826045D01*
X146950000Y-100864167D01*
X146863181Y-100960590D01*
X146862941Y-100960856D01*
X146802495Y-100998096D01*
X146731512Y-100996744D01*
X146718057Y-100991653D01*
X146588323Y-100933892D01*
X146588315Y-100933889D01*
X146582288Y-100931206D01*
X146488887Y-100911353D01*
X146401944Y-100892872D01*
X146401939Y-100892872D01*
X146395487Y-100891500D01*
X146204513Y-100891500D01*
X146198061Y-100892872D01*
X146198056Y-100892872D01*
X146111113Y-100911353D01*
X146017712Y-100931206D01*
X146011682Y-100933891D01*
X146011681Y-100933891D01*
X145849278Y-101006197D01*
X145849276Y-101006198D01*
X145843248Y-101008882D01*
X145688747Y-101121134D01*
X145684326Y-101126044D01*
X145684325Y-101126045D01*
X145611989Y-101206383D01*
X145560960Y-101263056D01*
X145519582Y-101334724D01*
X145470751Y-101419303D01*
X145465473Y-101428444D01*
X145406458Y-101610072D01*
X145405768Y-101616633D01*
X145405768Y-101616635D01*
X145395622Y-101713168D01*
X145386496Y-101800000D01*
X126748443Y-101800000D01*
X126811253Y-101754366D01*
X126857764Y-101702710D01*
X126934621Y-101617352D01*
X126934622Y-101617351D01*
X126939040Y-101612444D01*
X127034527Y-101447056D01*
X127035147Y-101447414D01*
X127077906Y-101397109D01*
X127145834Y-101376462D01*
X127214142Y-101395816D01*
X127221091Y-101400520D01*
X127232254Y-101408630D01*
X127243248Y-101416618D01*
X127249276Y-101419302D01*
X127249278Y-101419303D01*
X127411681Y-101491609D01*
X127417712Y-101494294D01*
X127511113Y-101514147D01*
X127598056Y-101532628D01*
X127598061Y-101532628D01*
X127604513Y-101534000D01*
X127795487Y-101534000D01*
X127801939Y-101532628D01*
X127801944Y-101532628D01*
X127888887Y-101514147D01*
X127982288Y-101494294D01*
X127988319Y-101491609D01*
X128150722Y-101419303D01*
X128150724Y-101419302D01*
X128156752Y-101416618D01*
X128167747Y-101408630D01*
X128255917Y-101344570D01*
X128311253Y-101304366D01*
X128315675Y-101299455D01*
X128434621Y-101167352D01*
X128434622Y-101167351D01*
X128439040Y-101162444D01*
X128451696Y-101140524D01*
X128503080Y-101091531D01*
X128572794Y-101078097D01*
X128586999Y-101080277D01*
X128604513Y-101084000D01*
X128795487Y-101084000D01*
X128801939Y-101082628D01*
X128801944Y-101082628D01*
X128888887Y-101064147D01*
X128982288Y-101044294D01*
X128988319Y-101041609D01*
X129150722Y-100969303D01*
X129150724Y-100969302D01*
X129156752Y-100966618D01*
X129311253Y-100854366D01*
X129321827Y-100842622D01*
X129434621Y-100717352D01*
X129434622Y-100717351D01*
X129439040Y-100712444D01*
X129474039Y-100651824D01*
X129525420Y-100602832D01*
X129595133Y-100589395D01*
X129616822Y-100593898D01*
X129617712Y-100594294D01*
X129624170Y-100595667D01*
X129624171Y-100595667D01*
X129798056Y-100632628D01*
X129798061Y-100632628D01*
X129804513Y-100634000D01*
X129995487Y-100634000D01*
X130001939Y-100632628D01*
X130001944Y-100632628D01*
X130116743Y-100608226D01*
X130182288Y-100594294D01*
X130188319Y-100591609D01*
X130350722Y-100519303D01*
X130350724Y-100519302D01*
X130356752Y-100516618D01*
X130403369Y-100482749D01*
X130470615Y-100433891D01*
X130511253Y-100404366D01*
X130529366Y-100384250D01*
X130634621Y-100267352D01*
X130634622Y-100267351D01*
X130639040Y-100262444D01*
X130714015Y-100132585D01*
X130765395Y-100083593D01*
X130835109Y-100070156D01*
X130874380Y-100080479D01*
X130931839Y-100106061D01*
X130996229Y-100134729D01*
X131017712Y-100144294D01*
X131111112Y-100164147D01*
X131198056Y-100182628D01*
X131198061Y-100182628D01*
X131204513Y-100184000D01*
X131395487Y-100184000D01*
X131401939Y-100182628D01*
X131401944Y-100182628D01*
X131488888Y-100164147D01*
X131582288Y-100144294D01*
X131602287Y-100135390D01*
X131750722Y-100069303D01*
X131750724Y-100069302D01*
X131756752Y-100066618D01*
X131763874Y-100061444D01*
X131837369Y-100008046D01*
X131911253Y-99954366D01*
X131924826Y-99939292D01*
X132034621Y-99817352D01*
X132034622Y-99817351D01*
X132039040Y-99812444D01*
X132074039Y-99751824D01*
X132125420Y-99702832D01*
X132195133Y-99689395D01*
X132216822Y-99693898D01*
X132217712Y-99694294D01*
X132224170Y-99695667D01*
X132224171Y-99695667D01*
X132398056Y-99732628D01*
X132398061Y-99732628D01*
X132404513Y-99734000D01*
X132595487Y-99734000D01*
X132601939Y-99732628D01*
X132601944Y-99732628D01*
X132713657Y-99708882D01*
X132782288Y-99694294D01*
X132788319Y-99691609D01*
X132950722Y-99619303D01*
X132950724Y-99619302D01*
X132956752Y-99616618D01*
X132967315Y-99608944D01*
X133032187Y-99561811D01*
X133111253Y-99504366D01*
X133115184Y-99500000D01*
X154286496Y-99500000D01*
X154287186Y-99506565D01*
X154305312Y-99679020D01*
X154306458Y-99689928D01*
X154365473Y-99871556D01*
X154460960Y-100036944D01*
X154465378Y-100041851D01*
X154465379Y-100041852D01*
X154576506Y-100165271D01*
X154588747Y-100178866D01*
X154630761Y-100209391D01*
X154733977Y-100284382D01*
X154743248Y-100291118D01*
X154749276Y-100293802D01*
X154749278Y-100293803D01*
X154846175Y-100336944D01*
X154917712Y-100368794D01*
X155011113Y-100388647D01*
X155098056Y-100407128D01*
X155098061Y-100407128D01*
X155104513Y-100408500D01*
X155295487Y-100408500D01*
X155301939Y-100407128D01*
X155301944Y-100407128D01*
X155434989Y-100378848D01*
X155505780Y-100384250D01*
X155562413Y-100427067D01*
X155586906Y-100493705D01*
X155586967Y-100495522D01*
X155586496Y-100500000D01*
X155587186Y-100506565D01*
X155603955Y-100666109D01*
X155606458Y-100689928D01*
X155665473Y-100871556D01*
X155760960Y-101036944D01*
X155765378Y-101041851D01*
X155765379Y-101041852D01*
X155876910Y-101165720D01*
X155888747Y-101178866D01*
X156043248Y-101291118D01*
X156049276Y-101293802D01*
X156049278Y-101293803D01*
X156177249Y-101350779D01*
X156217712Y-101368794D01*
X156311113Y-101388647D01*
X156398056Y-101407128D01*
X156398061Y-101407128D01*
X156404513Y-101408500D01*
X156595487Y-101408500D01*
X156601939Y-101407128D01*
X156601944Y-101407128D01*
X156636036Y-101399881D01*
X156706827Y-101405283D01*
X156763459Y-101448100D01*
X156787542Y-101509957D01*
X156793506Y-101566695D01*
X156805129Y-101677279D01*
X156806458Y-101689928D01*
X156865473Y-101871556D01*
X156960960Y-102036944D01*
X156965378Y-102041851D01*
X156965379Y-102041852D01*
X157079678Y-102168794D01*
X157088747Y-102178866D01*
X157243248Y-102291118D01*
X157249276Y-102293802D01*
X157249278Y-102293803D01*
X157357199Y-102341852D01*
X157417712Y-102368794D01*
X157511113Y-102388647D01*
X157598056Y-102407128D01*
X157598061Y-102407128D01*
X157604513Y-102408500D01*
X157795487Y-102408500D01*
X157801939Y-102407128D01*
X157801944Y-102407128D01*
X157888887Y-102388647D01*
X157982288Y-102368794D01*
X158042801Y-102341852D01*
X158150722Y-102293803D01*
X158150724Y-102293802D01*
X158156752Y-102291118D01*
X158311253Y-102178866D01*
X158320322Y-102168794D01*
X158434621Y-102041852D01*
X158434622Y-102041851D01*
X158439040Y-102036944D01*
X158534527Y-101871556D01*
X158593542Y-101689928D01*
X158594872Y-101677279D01*
X158612814Y-101506565D01*
X158613504Y-101500000D01*
X158598830Y-101360387D01*
X158594232Y-101316635D01*
X158594232Y-101316633D01*
X158593542Y-101310072D01*
X158590269Y-101300000D01*
X161686496Y-101300000D01*
X161687186Y-101306565D01*
X161703063Y-101457623D01*
X161706458Y-101489928D01*
X161765473Y-101671556D01*
X161768776Y-101677278D01*
X161768777Y-101677279D01*
X161778393Y-101693934D01*
X161860960Y-101836944D01*
X161865378Y-101841851D01*
X161865379Y-101841852D01*
X161974898Y-101963485D01*
X161988747Y-101978866D01*
X162143248Y-102091118D01*
X162149276Y-102093802D01*
X162149278Y-102093803D01*
X162177691Y-102106453D01*
X162317712Y-102168794D01*
X162383365Y-102182749D01*
X162498056Y-102207128D01*
X162498061Y-102207128D01*
X162504513Y-102208500D01*
X162695487Y-102208500D01*
X162701939Y-102207128D01*
X162701944Y-102207128D01*
X162816635Y-102182749D01*
X162882288Y-102168794D01*
X163022309Y-102106453D01*
X163050722Y-102093803D01*
X163050724Y-102093802D01*
X163056752Y-102091118D01*
X163211253Y-101978866D01*
X163225102Y-101963485D01*
X163334621Y-101841852D01*
X163334622Y-101841851D01*
X163339040Y-101836944D01*
X163421607Y-101693934D01*
X163431223Y-101677279D01*
X163431224Y-101677278D01*
X163434527Y-101671556D01*
X163488734Y-101504726D01*
X163491500Y-101496213D01*
X163491500Y-101496212D01*
X163493542Y-101489928D01*
X163494081Y-101484800D01*
X163527553Y-101422801D01*
X163590875Y-101388224D01*
X163623819Y-101381222D01*
X163675830Y-101370167D01*
X163675833Y-101370166D01*
X163682288Y-101368794D01*
X163722751Y-101350779D01*
X163850722Y-101293803D01*
X163850724Y-101293802D01*
X163856752Y-101291118D01*
X164011253Y-101178866D01*
X164023090Y-101165720D01*
X164134621Y-101041852D01*
X164134622Y-101041851D01*
X164139040Y-101036944D01*
X164234527Y-100871556D01*
X164293542Y-100689928D01*
X164296046Y-100666109D01*
X164312814Y-100506565D01*
X164313504Y-100500000D01*
X164312814Y-100493435D01*
X164312814Y-100490147D01*
X164332816Y-100422026D01*
X164386472Y-100375533D01*
X164399877Y-100370314D01*
X164400331Y-100370166D01*
X164406788Y-100368794D01*
X164478325Y-100336944D01*
X164575222Y-100293803D01*
X164575224Y-100293802D01*
X164581252Y-100291118D01*
X164590524Y-100284382D01*
X164693739Y-100209391D01*
X164735753Y-100178866D01*
X164747994Y-100165271D01*
X164859121Y-100041852D01*
X164859122Y-100041851D01*
X164863540Y-100036944D01*
X164959027Y-99871556D01*
X164982277Y-99800000D01*
X173686496Y-99800000D01*
X173687186Y-99806565D01*
X173705198Y-99977936D01*
X173706458Y-99989928D01*
X173765473Y-100171556D01*
X173768776Y-100177278D01*
X173768777Y-100177279D01*
X173784747Y-100204940D01*
X173860960Y-100336944D01*
X173865378Y-100341851D01*
X173865379Y-100341852D01*
X173983974Y-100473565D01*
X173988747Y-100478866D01*
X174143248Y-100591118D01*
X174149276Y-100593802D01*
X174149278Y-100593803D01*
X174252170Y-100639613D01*
X174317712Y-100668794D01*
X174386263Y-100683365D01*
X174498056Y-100707128D01*
X174498061Y-100707128D01*
X174504513Y-100708500D01*
X174695487Y-100708500D01*
X174701939Y-100707128D01*
X174701944Y-100707128D01*
X174813737Y-100683365D01*
X174882288Y-100668794D01*
X174947830Y-100639613D01*
X175050722Y-100593803D01*
X175050724Y-100593802D01*
X175056752Y-100591118D01*
X175211253Y-100478866D01*
X175216026Y-100473565D01*
X175334621Y-100341852D01*
X175334622Y-100341851D01*
X175339040Y-100336944D01*
X175415253Y-100204940D01*
X175431223Y-100177279D01*
X175431224Y-100177278D01*
X175434527Y-100171556D01*
X175493542Y-99989928D01*
X175494803Y-99977936D01*
X175512814Y-99806565D01*
X175513504Y-99800000D01*
X175502538Y-99695666D01*
X175494232Y-99616635D01*
X175494232Y-99616633D01*
X175493542Y-99610072D01*
X175434527Y-99428444D01*
X175416841Y-99397810D01*
X175396422Y-99362444D01*
X175339040Y-99263056D01*
X175327564Y-99250310D01*
X175215675Y-99126045D01*
X175215674Y-99126044D01*
X175211253Y-99121134D01*
X175095376Y-99036944D01*
X175062094Y-99012763D01*
X175062093Y-99012762D01*
X175056752Y-99008882D01*
X175050724Y-99006198D01*
X175050722Y-99006197D01*
X174888319Y-98933891D01*
X174888318Y-98933891D01*
X174882288Y-98931206D01*
X174788887Y-98911353D01*
X174701944Y-98892872D01*
X174701939Y-98892872D01*
X174695487Y-98891500D01*
X174504513Y-98891500D01*
X174498061Y-98892872D01*
X174498056Y-98892872D01*
X174411112Y-98911353D01*
X174317712Y-98931206D01*
X174311682Y-98933891D01*
X174311681Y-98933891D01*
X174149278Y-99006197D01*
X174149276Y-99006198D01*
X174143248Y-99008882D01*
X174137907Y-99012762D01*
X174137906Y-99012763D01*
X174104624Y-99036944D01*
X173988747Y-99121134D01*
X173984326Y-99126044D01*
X173984325Y-99126045D01*
X173872437Y-99250310D01*
X173860960Y-99263056D01*
X173803578Y-99362444D01*
X173783160Y-99397810D01*
X173765473Y-99428444D01*
X173706458Y-99610072D01*
X173705768Y-99616633D01*
X173705768Y-99616635D01*
X173697462Y-99695666D01*
X173686496Y-99800000D01*
X164982277Y-99800000D01*
X165018042Y-99689928D01*
X165019189Y-99679020D01*
X165037314Y-99506565D01*
X165038004Y-99500000D01*
X165026924Y-99394578D01*
X165018732Y-99316635D01*
X165018732Y-99316633D01*
X165018042Y-99310072D01*
X164959027Y-99128444D01*
X164933620Y-99084437D01*
X164897402Y-99021706D01*
X164863540Y-98963056D01*
X164825242Y-98920521D01*
X164740175Y-98826045D01*
X164740174Y-98826044D01*
X164735753Y-98821134D01*
X164603920Y-98725351D01*
X164586594Y-98712763D01*
X164586593Y-98712762D01*
X164581252Y-98708882D01*
X164575224Y-98706198D01*
X164575222Y-98706197D01*
X164412819Y-98633891D01*
X164412818Y-98633891D01*
X164406788Y-98631206D01*
X164307361Y-98610072D01*
X164226444Y-98592872D01*
X164226439Y-98592872D01*
X164219987Y-98591500D01*
X164029013Y-98591500D01*
X164022561Y-98592872D01*
X164022556Y-98592872D01*
X163941639Y-98610072D01*
X163842212Y-98631206D01*
X163836182Y-98633891D01*
X163836181Y-98633891D01*
X163673778Y-98706197D01*
X163673776Y-98706198D01*
X163667748Y-98708882D01*
X163662407Y-98712762D01*
X163662406Y-98712763D01*
X163645080Y-98725351D01*
X163513247Y-98821134D01*
X163508826Y-98826044D01*
X163508825Y-98826045D01*
X163423759Y-98920521D01*
X163385460Y-98963056D01*
X163351598Y-99021706D01*
X163315381Y-99084437D01*
X163289973Y-99128444D01*
X163230958Y-99310072D01*
X163230268Y-99316633D01*
X163230268Y-99316635D01*
X163222076Y-99394578D01*
X163210996Y-99500000D01*
X163211686Y-99506565D01*
X163211686Y-99509853D01*
X163191684Y-99577974D01*
X163138028Y-99624467D01*
X163124623Y-99629686D01*
X163124169Y-99629834D01*
X163117712Y-99631206D01*
X163111682Y-99633891D01*
X163111681Y-99633891D01*
X162949278Y-99706197D01*
X162949276Y-99706198D01*
X162943248Y-99708882D01*
X162937907Y-99712762D01*
X162937906Y-99712763D01*
X162908676Y-99734000D01*
X162788747Y-99821134D01*
X162784326Y-99826044D01*
X162784325Y-99826045D01*
X162668785Y-99954366D01*
X162660960Y-99963056D01*
X162565473Y-100128444D01*
X162549978Y-100176132D01*
X162512617Y-100291118D01*
X162506458Y-100310072D01*
X162505919Y-100315200D01*
X162472447Y-100377199D01*
X162409125Y-100411776D01*
X162376181Y-100418778D01*
X162324170Y-100429833D01*
X162324167Y-100429834D01*
X162317712Y-100431206D01*
X162311682Y-100433891D01*
X162311681Y-100433891D01*
X162149278Y-100506197D01*
X162149276Y-100506198D01*
X162143248Y-100508882D01*
X161988747Y-100621134D01*
X161984326Y-100626044D01*
X161984325Y-100626045D01*
X161879795Y-100742138D01*
X161860960Y-100763056D01*
X161811077Y-100849455D01*
X161786011Y-100892872D01*
X161765473Y-100928444D01*
X161706458Y-101110072D01*
X161705768Y-101116633D01*
X161705768Y-101116635D01*
X161698819Y-101182749D01*
X161686496Y-101300000D01*
X158590269Y-101300000D01*
X158534527Y-101128444D01*
X158524921Y-101111805D01*
X158464365Y-101006920D01*
X158439040Y-100963056D01*
X158344672Y-100858249D01*
X158315675Y-100826045D01*
X158315674Y-100826044D01*
X158311253Y-100821134D01*
X158156752Y-100708882D01*
X158150724Y-100706198D01*
X158150722Y-100706197D01*
X157988319Y-100633891D01*
X157988318Y-100633891D01*
X157982288Y-100631206D01*
X157888888Y-100611353D01*
X157801944Y-100592872D01*
X157801939Y-100592872D01*
X157795487Y-100591500D01*
X157604513Y-100591500D01*
X157598061Y-100592872D01*
X157598056Y-100592872D01*
X157563964Y-100600119D01*
X157493173Y-100594717D01*
X157436541Y-100551900D01*
X157412457Y-100490042D01*
X157411761Y-100483412D01*
X157396366Y-100336944D01*
X157394232Y-100316635D01*
X157394232Y-100316633D01*
X157393542Y-100310072D01*
X157334527Y-100128444D01*
X157239040Y-99963056D01*
X157231216Y-99954366D01*
X157115675Y-99826045D01*
X157115674Y-99826044D01*
X157111253Y-99821134D01*
X156991324Y-99734000D01*
X156962094Y-99712763D01*
X156962093Y-99712762D01*
X156956752Y-99708882D01*
X156950724Y-99706198D01*
X156950722Y-99706197D01*
X156788319Y-99633891D01*
X156788318Y-99633891D01*
X156782288Y-99631206D01*
X156675404Y-99608487D01*
X156601944Y-99592872D01*
X156601939Y-99592872D01*
X156595487Y-99591500D01*
X156404513Y-99591500D01*
X156398061Y-99592872D01*
X156398056Y-99592872D01*
X156265011Y-99621152D01*
X156194220Y-99615750D01*
X156137587Y-99572933D01*
X156113094Y-99506295D01*
X156113033Y-99504478D01*
X156113504Y-99500000D01*
X156102424Y-99394578D01*
X156094232Y-99316635D01*
X156094232Y-99316633D01*
X156093542Y-99310072D01*
X156034527Y-99128444D01*
X156009120Y-99084437D01*
X155972902Y-99021706D01*
X155939040Y-98963056D01*
X155900742Y-98920521D01*
X155815675Y-98826045D01*
X155815674Y-98826044D01*
X155811253Y-98821134D01*
X155679420Y-98725351D01*
X155662094Y-98712763D01*
X155662093Y-98712762D01*
X155656752Y-98708882D01*
X155650724Y-98706198D01*
X155650722Y-98706197D01*
X155488319Y-98633891D01*
X155488318Y-98633891D01*
X155482288Y-98631206D01*
X155382861Y-98610072D01*
X155301944Y-98592872D01*
X155301939Y-98592872D01*
X155295487Y-98591500D01*
X155104513Y-98591500D01*
X155098061Y-98592872D01*
X155098056Y-98592872D01*
X155017139Y-98610072D01*
X154917712Y-98631206D01*
X154911682Y-98633891D01*
X154911681Y-98633891D01*
X154749278Y-98706197D01*
X154749276Y-98706198D01*
X154743248Y-98708882D01*
X154737907Y-98712762D01*
X154737906Y-98712763D01*
X154720580Y-98725351D01*
X154588747Y-98821134D01*
X154584326Y-98826044D01*
X154584325Y-98826045D01*
X154499259Y-98920521D01*
X154460960Y-98963056D01*
X154427098Y-99021706D01*
X154390881Y-99084437D01*
X154365473Y-99128444D01*
X154306458Y-99310072D01*
X154305768Y-99316633D01*
X154305768Y-99316635D01*
X154297576Y-99394578D01*
X154286496Y-99500000D01*
X133115184Y-99500000D01*
X133155525Y-99455197D01*
X133234621Y-99367352D01*
X133234622Y-99367351D01*
X133239040Y-99362444D01*
X133334527Y-99197056D01*
X133393542Y-99015428D01*
X133395871Y-98993274D01*
X133412814Y-98832065D01*
X133413504Y-98825500D01*
X133410781Y-98799588D01*
X133394232Y-98642135D01*
X133394232Y-98642133D01*
X133393542Y-98635572D01*
X133349492Y-98500000D01*
X151286496Y-98500000D01*
X151287186Y-98506565D01*
X151299710Y-98625720D01*
X151306458Y-98689928D01*
X151365473Y-98871556D01*
X151368776Y-98877278D01*
X151368777Y-98877279D01*
X151381179Y-98898760D01*
X151460960Y-99036944D01*
X151465378Y-99041851D01*
X151465379Y-99041852D01*
X151543347Y-99128444D01*
X151588747Y-99178866D01*
X151743248Y-99291118D01*
X151749276Y-99293802D01*
X151749278Y-99293803D01*
X151911681Y-99366109D01*
X151917712Y-99368794D01*
X152011113Y-99388647D01*
X152098056Y-99407128D01*
X152098061Y-99407128D01*
X152104513Y-99408500D01*
X152295487Y-99408500D01*
X152301939Y-99407128D01*
X152301944Y-99407128D01*
X152388887Y-99388647D01*
X152482288Y-99368794D01*
X152488319Y-99366109D01*
X152650722Y-99293803D01*
X152650724Y-99293802D01*
X152656752Y-99291118D01*
X152811253Y-99178866D01*
X152856653Y-99128444D01*
X152934621Y-99041852D01*
X152934622Y-99041851D01*
X152939040Y-99036944D01*
X153018821Y-98898760D01*
X153031223Y-98877279D01*
X153031224Y-98877278D01*
X153034527Y-98871556D01*
X153093542Y-98689928D01*
X153100291Y-98625720D01*
X153112814Y-98506565D01*
X153113504Y-98500000D01*
X153104659Y-98415840D01*
X153094232Y-98316635D01*
X153094232Y-98316633D01*
X153093542Y-98310072D01*
X153034527Y-98128444D01*
X153029250Y-98119303D01*
X152942341Y-97968774D01*
X152939040Y-97963056D01*
X152933323Y-97956706D01*
X152815675Y-97826045D01*
X152815674Y-97826044D01*
X152811253Y-97821134D01*
X152656752Y-97708882D01*
X152650724Y-97706198D01*
X152650722Y-97706197D01*
X152488319Y-97633891D01*
X152488318Y-97633891D01*
X152482288Y-97631206D01*
X152373574Y-97608098D01*
X152301944Y-97592872D01*
X152301939Y-97592872D01*
X152295487Y-97591500D01*
X152104513Y-97591500D01*
X152098061Y-97592872D01*
X152098056Y-97592872D01*
X152026426Y-97608098D01*
X151917712Y-97631206D01*
X151911682Y-97633891D01*
X151911681Y-97633891D01*
X151749278Y-97706197D01*
X151749276Y-97706198D01*
X151743248Y-97708882D01*
X151588747Y-97821134D01*
X151584326Y-97826044D01*
X151584325Y-97826045D01*
X151466678Y-97956706D01*
X151460960Y-97963056D01*
X151457659Y-97968774D01*
X151370751Y-98119303D01*
X151365473Y-98128444D01*
X151306458Y-98310072D01*
X151305768Y-98316633D01*
X151305768Y-98316635D01*
X151295341Y-98415840D01*
X151286496Y-98500000D01*
X133349492Y-98500000D01*
X133334527Y-98453944D01*
X133327406Y-98441609D01*
X133284109Y-98366618D01*
X133239040Y-98288556D01*
X133218216Y-98265428D01*
X133115675Y-98151545D01*
X133115674Y-98151544D01*
X133111253Y-98146634D01*
X132991803Y-98059848D01*
X132962094Y-98038263D01*
X132962093Y-98038262D01*
X132956752Y-98034382D01*
X132950724Y-98031698D01*
X132950722Y-98031697D01*
X132788319Y-97959391D01*
X132788318Y-97959391D01*
X132782288Y-97956706D01*
X132662321Y-97931206D01*
X132601944Y-97918372D01*
X132601939Y-97918372D01*
X132595487Y-97917000D01*
X132404513Y-97917000D01*
X132398061Y-97918372D01*
X132398056Y-97918372D01*
X132337679Y-97931206D01*
X132217712Y-97956706D01*
X132211682Y-97959391D01*
X132211681Y-97959391D01*
X132049278Y-98031697D01*
X132049276Y-98031698D01*
X132043248Y-98034382D01*
X132037907Y-98038262D01*
X132037906Y-98038263D01*
X132008197Y-98059848D01*
X131888747Y-98146634D01*
X131884326Y-98151544D01*
X131884325Y-98151545D01*
X131781785Y-98265428D01*
X131760960Y-98288556D01*
X131725961Y-98349176D01*
X131674580Y-98398168D01*
X131604867Y-98411605D01*
X131583178Y-98407102D01*
X131582288Y-98406706D01*
X131575829Y-98405333D01*
X131401944Y-98368372D01*
X131401939Y-98368372D01*
X131395487Y-98367000D01*
X131204513Y-98367000D01*
X131198061Y-98368372D01*
X131198056Y-98368372D01*
X131132057Y-98382401D01*
X131017712Y-98406706D01*
X131011682Y-98409391D01*
X131011681Y-98409391D01*
X130849278Y-98481697D01*
X130849276Y-98481698D01*
X130843248Y-98484382D01*
X130837907Y-98488262D01*
X130837906Y-98488263D01*
X130821752Y-98500000D01*
X130688747Y-98596634D01*
X130684326Y-98601544D01*
X130684325Y-98601545D01*
X130587679Y-98708882D01*
X130560960Y-98738556D01*
X130485985Y-98868415D01*
X130434605Y-98917407D01*
X130364891Y-98930844D01*
X130325620Y-98920521D01*
X130208585Y-98868414D01*
X130188319Y-98859391D01*
X130188318Y-98859391D01*
X130182288Y-98856706D01*
X130088888Y-98836853D01*
X130001944Y-98818372D01*
X130001939Y-98818372D01*
X129995487Y-98817000D01*
X129804513Y-98817000D01*
X129798061Y-98818372D01*
X129798056Y-98818372D01*
X129756305Y-98827247D01*
X129685514Y-98821845D01*
X129628882Y-98779028D01*
X129604798Y-98717170D01*
X129594232Y-98616635D01*
X129594232Y-98616633D01*
X129593542Y-98610072D01*
X129534527Y-98428444D01*
X129507355Y-98381381D01*
X129490618Y-98312388D01*
X129513838Y-98245296D01*
X129569645Y-98201409D01*
X129642672Y-98195136D01*
X129819056Y-98232628D01*
X129819061Y-98232628D01*
X129825513Y-98234000D01*
X130016487Y-98234000D01*
X130022939Y-98232628D01*
X130022944Y-98232628D01*
X130109888Y-98214147D01*
X130203288Y-98194294D01*
X130209319Y-98191609D01*
X130371722Y-98119303D01*
X130371724Y-98119302D01*
X130377752Y-98116618D01*
X130424369Y-98082749D01*
X130482333Y-98040635D01*
X130532253Y-98004366D01*
X130541322Y-97994294D01*
X130655621Y-97867352D01*
X130655622Y-97867351D01*
X130660040Y-97862444D01*
X130669635Y-97845825D01*
X130721017Y-97796833D01*
X130789652Y-97783945D01*
X130789910Y-97784000D01*
X130980884Y-97784000D01*
X130987336Y-97782628D01*
X130987341Y-97782628D01*
X131099134Y-97758865D01*
X131167685Y-97744294D01*
X131232322Y-97715516D01*
X131336119Y-97669303D01*
X131336121Y-97669302D01*
X131342149Y-97666618D01*
X131496650Y-97554366D01*
X131505737Y-97544274D01*
X131620018Y-97417352D01*
X131620019Y-97417351D01*
X131624437Y-97412444D01*
X131719924Y-97247056D01*
X131778939Y-97065428D01*
X131780269Y-97052779D01*
X131798211Y-96882065D01*
X131798901Y-96875500D01*
X131792919Y-96818582D01*
X131779629Y-96692135D01*
X131779629Y-96692133D01*
X131778939Y-96685572D01*
X131775666Y-96675500D01*
X145796896Y-96675500D01*
X145797586Y-96682065D01*
X145810966Y-96809365D01*
X145816858Y-96865428D01*
X145875873Y-97047056D01*
X145971360Y-97212444D01*
X145975778Y-97217351D01*
X145975779Y-97217352D01*
X146036133Y-97284382D01*
X146099147Y-97354366D01*
X146253648Y-97466618D01*
X146259676Y-97469302D01*
X146259678Y-97469303D01*
X146413625Y-97537844D01*
X146428112Y-97544294D01*
X146507521Y-97561173D01*
X146608456Y-97582628D01*
X146608461Y-97582628D01*
X146614913Y-97584000D01*
X146805887Y-97584000D01*
X146812339Y-97582628D01*
X146812344Y-97582628D01*
X146893952Y-97565281D01*
X146919367Y-97559879D01*
X146990157Y-97565281D01*
X147046789Y-97608098D01*
X147054676Y-97620117D01*
X147079114Y-97662444D01*
X147083532Y-97667351D01*
X147083533Y-97667352D01*
X147165932Y-97758865D01*
X147206901Y-97804366D01*
X147295280Y-97868577D01*
X147348898Y-97907533D01*
X147361402Y-97916618D01*
X147367430Y-97919302D01*
X147367432Y-97919303D01*
X147529835Y-97991609D01*
X147535866Y-97994294D01*
X147601519Y-98008249D01*
X147716210Y-98032628D01*
X147716215Y-98032628D01*
X147722667Y-98034000D01*
X147913641Y-98034000D01*
X147920108Y-98032625D01*
X147926666Y-98031936D01*
X147926949Y-98034628D01*
X147985776Y-98039122D01*
X148042404Y-98081944D01*
X148050290Y-98093963D01*
X148060960Y-98112444D01*
X148065378Y-98117351D01*
X148065379Y-98117352D01*
X148128304Y-98187237D01*
X148188747Y-98254366D01*
X148343248Y-98366618D01*
X148349276Y-98369302D01*
X148349278Y-98369303D01*
X148509799Y-98440771D01*
X148517712Y-98444294D01*
X148592680Y-98460229D01*
X148698056Y-98482628D01*
X148698061Y-98482628D01*
X148704513Y-98484000D01*
X148895487Y-98484000D01*
X148901939Y-98482628D01*
X148901944Y-98482628D01*
X149007320Y-98460229D01*
X149082288Y-98444294D01*
X149090201Y-98440771D01*
X149250722Y-98369303D01*
X149250724Y-98369302D01*
X149256752Y-98366618D01*
X149411253Y-98254366D01*
X149471696Y-98187237D01*
X149534621Y-98117352D01*
X149534622Y-98117351D01*
X149539040Y-98112444D01*
X149621988Y-97968774D01*
X149631223Y-97952779D01*
X149631224Y-97952778D01*
X149634527Y-97947056D01*
X149693542Y-97765428D01*
X149696046Y-97741609D01*
X149712814Y-97582065D01*
X149713504Y-97575500D01*
X149707190Y-97515428D01*
X149695059Y-97400000D01*
X178086496Y-97400000D01*
X178087186Y-97406565D01*
X178105632Y-97582065D01*
X178106458Y-97589928D01*
X178165473Y-97771556D01*
X178168776Y-97777278D01*
X178168777Y-97777279D01*
X178182413Y-97800897D01*
X178260960Y-97936944D01*
X178265378Y-97941851D01*
X178265379Y-97941852D01*
X178348693Y-98034382D01*
X178388747Y-98078866D01*
X178543248Y-98191118D01*
X178549276Y-98193802D01*
X178549278Y-98193803D01*
X178711681Y-98266109D01*
X178717712Y-98268794D01*
X178810684Y-98288556D01*
X178898056Y-98307128D01*
X178898061Y-98307128D01*
X178904513Y-98308500D01*
X179095487Y-98308500D01*
X179101939Y-98307128D01*
X179101944Y-98307128D01*
X179189316Y-98288556D01*
X179282288Y-98268794D01*
X179288319Y-98266109D01*
X179450722Y-98193803D01*
X179450724Y-98193802D01*
X179456752Y-98191118D01*
X179611253Y-98078866D01*
X179651307Y-98034382D01*
X179734621Y-97941852D01*
X179734622Y-97941851D01*
X179739040Y-97936944D01*
X179817587Y-97800897D01*
X179831223Y-97777279D01*
X179831224Y-97777278D01*
X179834527Y-97771556D01*
X179893542Y-97589928D01*
X179894369Y-97582065D01*
X179912814Y-97406565D01*
X179913504Y-97400000D01*
X179893542Y-97210072D01*
X179834527Y-97028444D01*
X179830698Y-97021811D01*
X179776327Y-96927639D01*
X179739040Y-96863056D01*
X179698996Y-96818582D01*
X179615675Y-96726045D01*
X179615674Y-96726044D01*
X179611253Y-96721134D01*
X179505693Y-96644440D01*
X179462094Y-96612763D01*
X179462093Y-96612762D01*
X179456752Y-96608882D01*
X179450724Y-96606198D01*
X179450722Y-96606197D01*
X179302842Y-96540357D01*
X179248746Y-96494377D01*
X179228097Y-96426450D01*
X179247449Y-96358142D01*
X179302842Y-96310143D01*
X179450722Y-96244303D01*
X179450724Y-96244302D01*
X179456752Y-96241618D01*
X179464872Y-96235719D01*
X179518667Y-96196634D01*
X179611253Y-96129366D01*
X179616064Y-96124023D01*
X179734621Y-95992352D01*
X179734622Y-95992351D01*
X179739040Y-95987444D01*
X179834527Y-95822056D01*
X179893542Y-95640428D01*
X179904337Y-95537724D01*
X179912814Y-95457065D01*
X179913504Y-95450500D01*
X179906315Y-95382104D01*
X179894232Y-95267135D01*
X179894232Y-95267133D01*
X179893542Y-95260572D01*
X179834527Y-95078944D01*
X179739040Y-94913556D01*
X179681964Y-94850166D01*
X179615675Y-94776545D01*
X179615674Y-94776544D01*
X179611253Y-94771634D01*
X179481604Y-94677438D01*
X179462094Y-94663263D01*
X179462093Y-94663262D01*
X179456752Y-94659382D01*
X179450724Y-94656698D01*
X179450722Y-94656697D01*
X179288319Y-94584391D01*
X179288318Y-94584391D01*
X179282288Y-94581706D01*
X179188888Y-94561853D01*
X179101944Y-94543372D01*
X179101939Y-94543372D01*
X179095487Y-94542000D01*
X178904513Y-94542000D01*
X178898061Y-94543372D01*
X178898056Y-94543372D01*
X178811112Y-94561853D01*
X178717712Y-94581706D01*
X178711682Y-94584391D01*
X178711681Y-94584391D01*
X178549278Y-94656697D01*
X178549276Y-94656698D01*
X178543248Y-94659382D01*
X178537907Y-94663262D01*
X178537906Y-94663263D01*
X178518396Y-94677438D01*
X178388747Y-94771634D01*
X178384326Y-94776544D01*
X178384325Y-94776545D01*
X178318037Y-94850166D01*
X178260960Y-94913556D01*
X178165473Y-95078944D01*
X178106458Y-95260572D01*
X178105768Y-95267133D01*
X178105768Y-95267135D01*
X178093685Y-95382104D01*
X178086496Y-95450500D01*
X178087186Y-95457065D01*
X178095664Y-95537724D01*
X178106458Y-95640428D01*
X178165473Y-95822056D01*
X178260960Y-95987444D01*
X178265378Y-95992351D01*
X178265379Y-95992352D01*
X178383936Y-96124023D01*
X178388747Y-96129366D01*
X178481333Y-96196634D01*
X178535129Y-96235719D01*
X178543248Y-96241618D01*
X178549276Y-96244302D01*
X178549278Y-96244303D01*
X178697158Y-96310143D01*
X178751254Y-96356123D01*
X178771903Y-96424050D01*
X178752551Y-96492358D01*
X178697158Y-96540357D01*
X178549278Y-96606197D01*
X178549276Y-96606198D01*
X178543248Y-96608882D01*
X178537907Y-96612762D01*
X178537906Y-96612763D01*
X178494307Y-96644440D01*
X178388747Y-96721134D01*
X178384326Y-96726044D01*
X178384325Y-96726045D01*
X178301005Y-96818582D01*
X178260960Y-96863056D01*
X178223673Y-96927639D01*
X178169303Y-97021811D01*
X178165473Y-97028444D01*
X178106458Y-97210072D01*
X178086496Y-97400000D01*
X149695059Y-97400000D01*
X149694232Y-97392135D01*
X149694232Y-97392133D01*
X149693542Y-97385572D01*
X149634527Y-97203944D01*
X149613990Y-97168372D01*
X149558179Y-97071706D01*
X149539040Y-97038556D01*
X149528143Y-97026453D01*
X149415675Y-96901545D01*
X149415674Y-96901544D01*
X149411253Y-96896634D01*
X149289354Y-96808069D01*
X149262094Y-96788263D01*
X149262093Y-96788262D01*
X149256752Y-96784382D01*
X149250724Y-96781698D01*
X149250722Y-96781697D01*
X149088319Y-96709391D01*
X149088318Y-96709391D01*
X149082288Y-96706706D01*
X148966362Y-96682065D01*
X148901944Y-96668372D01*
X148901939Y-96668372D01*
X148895487Y-96667000D01*
X148704513Y-96667000D01*
X148698046Y-96668375D01*
X148691488Y-96669064D01*
X148691205Y-96666372D01*
X148632378Y-96661878D01*
X148575750Y-96619056D01*
X148567864Y-96607037D01*
X148560495Y-96594274D01*
X148557194Y-96588556D01*
X148552408Y-96583240D01*
X148433829Y-96451545D01*
X148433828Y-96451544D01*
X148429407Y-96446634D01*
X148307609Y-96358142D01*
X148280248Y-96338263D01*
X148280247Y-96338262D01*
X148274906Y-96334382D01*
X148268878Y-96331698D01*
X148268876Y-96331697D01*
X148106473Y-96259391D01*
X148106472Y-96259391D01*
X148100442Y-96256706D01*
X148007042Y-96236853D01*
X147920098Y-96218372D01*
X147920093Y-96218372D01*
X147913641Y-96217000D01*
X147722667Y-96217000D01*
X147716215Y-96218372D01*
X147716210Y-96218372D01*
X147635626Y-96235501D01*
X147609187Y-96241121D01*
X147538397Y-96235719D01*
X147481765Y-96192902D01*
X147473878Y-96180883D01*
X147449440Y-96138556D01*
X147441616Y-96129866D01*
X147326075Y-96001545D01*
X147326074Y-96001544D01*
X147321653Y-95996634D01*
X147222557Y-95924636D01*
X147172494Y-95888263D01*
X147172493Y-95888262D01*
X147167152Y-95884382D01*
X147161124Y-95881698D01*
X147161122Y-95881697D01*
X146998719Y-95809391D01*
X146998718Y-95809391D01*
X146992688Y-95806706D01*
X146899288Y-95786853D01*
X146812344Y-95768372D01*
X146812339Y-95768372D01*
X146805887Y-95767000D01*
X146614913Y-95767000D01*
X146608461Y-95768372D01*
X146608456Y-95768372D01*
X146521512Y-95786853D01*
X146428112Y-95806706D01*
X146422082Y-95809391D01*
X146422081Y-95809391D01*
X146259678Y-95881697D01*
X146259676Y-95881698D01*
X146253648Y-95884382D01*
X146248307Y-95888262D01*
X146248306Y-95888263D01*
X146198243Y-95924636D01*
X146099147Y-95996634D01*
X146094726Y-96001544D01*
X146094725Y-96001545D01*
X145979185Y-96129866D01*
X145971360Y-96138556D01*
X145875873Y-96303944D01*
X145816858Y-96485572D01*
X145816168Y-96492133D01*
X145816168Y-96492135D01*
X145804180Y-96606197D01*
X145796896Y-96675500D01*
X131775666Y-96675500D01*
X131719924Y-96503944D01*
X131714401Y-96494377D01*
X131669727Y-96417000D01*
X131624437Y-96338556D01*
X131607094Y-96319294D01*
X131501072Y-96201545D01*
X131501071Y-96201544D01*
X131496650Y-96196634D01*
X131383294Y-96114276D01*
X131347491Y-96088263D01*
X131347490Y-96088262D01*
X131342149Y-96084382D01*
X131336121Y-96081698D01*
X131336119Y-96081697D01*
X131173716Y-96009391D01*
X131173715Y-96009391D01*
X131167685Y-96006706D01*
X131056925Y-95983163D01*
X130987341Y-95968372D01*
X130987336Y-95968372D01*
X130980884Y-95967000D01*
X130789910Y-95967000D01*
X130783458Y-95968372D01*
X130783453Y-95968372D01*
X130713869Y-95983163D01*
X130603109Y-96006706D01*
X130597079Y-96009391D01*
X130597078Y-96009391D01*
X130434675Y-96081697D01*
X130434673Y-96081698D01*
X130428645Y-96084382D01*
X130423304Y-96088262D01*
X130423303Y-96088263D01*
X130387500Y-96114276D01*
X130274144Y-96196634D01*
X130269723Y-96201544D01*
X130269722Y-96201545D01*
X130163701Y-96319294D01*
X130146357Y-96338556D01*
X130136763Y-96355174D01*
X130085380Y-96404167D01*
X130016745Y-96417055D01*
X130016487Y-96417000D01*
X129825513Y-96417000D01*
X129819061Y-96418372D01*
X129819056Y-96418372D01*
X129750178Y-96433013D01*
X129638712Y-96456706D01*
X129632682Y-96459391D01*
X129632681Y-96459391D01*
X129470278Y-96531697D01*
X129470276Y-96531698D01*
X129464248Y-96534382D01*
X129309747Y-96646634D01*
X129181960Y-96788556D01*
X129086473Y-96953944D01*
X129027458Y-97135572D01*
X129026768Y-97142133D01*
X129026768Y-97142135D01*
X129018938Y-97216635D01*
X129007496Y-97325500D01*
X129008186Y-97332065D01*
X129018035Y-97425769D01*
X129027458Y-97515428D01*
X129086473Y-97697056D01*
X129113645Y-97744119D01*
X129130382Y-97813112D01*
X129107162Y-97880204D01*
X129051355Y-97924091D01*
X128978328Y-97930364D01*
X128801944Y-97892872D01*
X128801939Y-97892872D01*
X128795487Y-97891500D01*
X128604513Y-97891500D01*
X128598061Y-97892872D01*
X128598056Y-97892872D01*
X128503668Y-97912935D01*
X128432877Y-97907533D01*
X128376244Y-97864716D01*
X128357638Y-97828624D01*
X128355205Y-97821134D01*
X128317127Y-97703944D01*
X128221640Y-97538556D01*
X128200816Y-97515428D01*
X128098275Y-97401545D01*
X128098274Y-97401544D01*
X128093853Y-97396634D01*
X127939352Y-97284382D01*
X127933324Y-97281698D01*
X127933322Y-97281697D01*
X127770919Y-97209391D01*
X127770918Y-97209391D01*
X127764888Y-97206706D01*
X127671487Y-97186853D01*
X127584544Y-97168372D01*
X127584539Y-97168372D01*
X127578087Y-97167000D01*
X127387113Y-97167000D01*
X127380661Y-97168372D01*
X127380656Y-97168372D01*
X127293713Y-97186853D01*
X127200312Y-97206706D01*
X127194282Y-97209391D01*
X127194281Y-97209391D01*
X127031878Y-97281697D01*
X127031876Y-97281698D01*
X127025848Y-97284382D01*
X126871347Y-97396634D01*
X126866926Y-97401544D01*
X126866925Y-97401545D01*
X126764385Y-97515428D01*
X126743560Y-97538556D01*
X126648073Y-97703944D01*
X126589058Y-97885572D01*
X126588368Y-97892133D01*
X126588368Y-97892135D01*
X126576572Y-98004366D01*
X126569096Y-98075500D01*
X126569786Y-98082065D01*
X126585611Y-98232628D01*
X126589058Y-98265428D01*
X126648073Y-98447056D01*
X126651376Y-98452778D01*
X126651377Y-98452779D01*
X126669403Y-98484000D01*
X126743560Y-98612444D01*
X126845224Y-98725354D01*
X126875940Y-98789359D01*
X126867176Y-98859813D01*
X126845223Y-98893972D01*
X126783020Y-98963056D01*
X126760960Y-98987556D01*
X126738363Y-99026695D01*
X126680689Y-99126590D01*
X126665473Y-99152944D01*
X126606458Y-99334572D01*
X126605768Y-99341133D01*
X126605768Y-99341135D01*
X126600151Y-99394578D01*
X126586496Y-99524500D01*
X126587186Y-99531065D01*
X126604060Y-99691609D01*
X126606458Y-99714428D01*
X126665473Y-99896056D01*
X126668776Y-99901778D01*
X126668777Y-99901779D01*
X126694965Y-99947137D01*
X126760960Y-100061444D01*
X126765378Y-100066351D01*
X126765379Y-100066352D01*
X126769094Y-100070478D01*
X126799809Y-100134486D01*
X126791043Y-100204940D01*
X126745578Y-100259469D01*
X126677850Y-100280762D01*
X126624207Y-100269892D01*
X126482288Y-100206706D01*
X126338447Y-100176131D01*
X126275975Y-100142404D01*
X126241653Y-100080254D01*
X126239335Y-100066055D01*
X126239291Y-100065636D01*
X126239291Y-100065635D01*
X126238601Y-100059072D01*
X126231281Y-100036542D01*
X126181628Y-99883729D01*
X126179586Y-99877444D01*
X126169913Y-99860689D01*
X126117302Y-99769565D01*
X126084099Y-99712056D01*
X126069342Y-99695666D01*
X125960734Y-99575045D01*
X125960733Y-99575044D01*
X125956312Y-99570134D01*
X125821828Y-99472425D01*
X125807153Y-99461763D01*
X125807152Y-99461762D01*
X125801811Y-99457882D01*
X125795783Y-99455198D01*
X125795781Y-99455197D01*
X125633378Y-99382891D01*
X125633377Y-99382891D01*
X125627347Y-99380206D01*
X125516883Y-99356726D01*
X125447003Y-99341872D01*
X125446998Y-99341872D01*
X125440546Y-99340500D01*
X125249572Y-99340500D01*
X125243120Y-99341872D01*
X125243115Y-99341872D01*
X125173235Y-99356726D01*
X125062771Y-99380206D01*
X125056741Y-99382891D01*
X125056740Y-99382891D01*
X124894337Y-99455197D01*
X124894335Y-99455198D01*
X124888307Y-99457882D01*
X124882966Y-99461762D01*
X124882965Y-99461763D01*
X124868290Y-99472425D01*
X124733806Y-99570134D01*
X124729385Y-99575044D01*
X124729384Y-99575045D01*
X124620777Y-99695666D01*
X124606019Y-99712056D01*
X124572816Y-99769565D01*
X124520206Y-99860689D01*
X124510532Y-99877444D01*
X124484277Y-99958249D01*
X124477880Y-99977936D01*
X124437806Y-100036542D01*
X124372410Y-100064179D01*
X124358047Y-100065000D01*
X124288313Y-100065000D01*
X124281861Y-100066372D01*
X124281856Y-100066372D01*
X124215490Y-100080479D01*
X124101512Y-100104706D01*
X124095482Y-100107391D01*
X124095481Y-100107391D01*
X123933078Y-100179697D01*
X123933076Y-100179698D01*
X123927048Y-100182382D01*
X123772547Y-100294634D01*
X123768126Y-100299544D01*
X123768125Y-100299545D01*
X123674933Y-100403046D01*
X123644760Y-100436556D01*
X123600777Y-100512737D01*
X123552898Y-100595666D01*
X123549273Y-100601944D01*
X123513266Y-100712763D01*
X123513033Y-100713479D01*
X123472959Y-100772084D01*
X123407563Y-100799721D01*
X123337606Y-100787614D01*
X123285300Y-100739608D01*
X123273367Y-100713479D01*
X123273135Y-100712763D01*
X123237127Y-100601944D01*
X123233503Y-100595666D01*
X123185623Y-100512737D01*
X123141640Y-100436556D01*
X123111468Y-100403046D01*
X123018275Y-100299545D01*
X123018274Y-100299544D01*
X123013853Y-100294634D01*
X122859352Y-100182382D01*
X122853324Y-100179698D01*
X122853322Y-100179697D01*
X122690919Y-100107391D01*
X122690918Y-100107391D01*
X122684888Y-100104706D01*
X122570910Y-100080479D01*
X122504544Y-100066372D01*
X122504539Y-100066372D01*
X122498087Y-100065000D01*
X122307113Y-100065000D01*
X122300661Y-100066372D01*
X122300656Y-100066372D01*
X122234290Y-100080479D01*
X122120312Y-100104706D01*
X122114282Y-100107391D01*
X122114281Y-100107391D01*
X121951878Y-100179697D01*
X121951876Y-100179698D01*
X121945848Y-100182382D01*
X121791347Y-100294634D01*
X121786926Y-100299544D01*
X121786925Y-100299545D01*
X121693733Y-100403046D01*
X121663560Y-100436556D01*
X121619577Y-100512737D01*
X121571698Y-100595666D01*
X121568073Y-100601944D01*
X121509058Y-100783572D01*
X121508368Y-100790133D01*
X121508368Y-100790135D01*
X121493685Y-100929834D01*
X121489096Y-100973500D01*
X120589033Y-100973500D01*
X120581354Y-100955840D01*
X120518220Y-100858249D01*
X120462822Y-100772617D01*
X120462820Y-100772614D01*
X120460014Y-100768277D01*
X120309670Y-100603051D01*
X120305619Y-100599852D01*
X120305615Y-100599848D01*
X120138414Y-100467800D01*
X120138410Y-100467798D01*
X120134359Y-100464598D01*
X120093053Y-100441796D01*
X120043084Y-100391364D01*
X120028312Y-100321921D01*
X120053428Y-100255516D01*
X120080780Y-100228909D01*
X120124603Y-100197650D01*
X120259860Y-100101173D01*
X120263992Y-100097056D01*
X120392722Y-99968774D01*
X120418096Y-99943489D01*
X120465673Y-99877279D01*
X120545435Y-99766277D01*
X120548453Y-99762077D01*
X120550953Y-99757020D01*
X120645136Y-99566453D01*
X120645137Y-99566451D01*
X120647430Y-99561811D01*
X120694010Y-99408500D01*
X120710865Y-99353023D01*
X120710865Y-99353021D01*
X120712370Y-99348069D01*
X120741529Y-99126590D01*
X120743156Y-99060000D01*
X120724852Y-98837361D01*
X120670431Y-98620702D01*
X120581354Y-98415840D01*
X120508868Y-98303794D01*
X120462822Y-98232617D01*
X120462820Y-98232614D01*
X120460014Y-98228277D01*
X120309670Y-98063051D01*
X120305619Y-98059852D01*
X120305615Y-98059848D01*
X120138414Y-97927800D01*
X120138410Y-97927798D01*
X120134359Y-97924598D01*
X120093053Y-97901796D01*
X120043084Y-97851364D01*
X120028312Y-97781921D01*
X120053428Y-97715516D01*
X120080780Y-97688909D01*
X120125895Y-97656729D01*
X120259860Y-97561173D01*
X120279493Y-97541609D01*
X120404184Y-97417352D01*
X120418096Y-97403489D01*
X120425321Y-97393435D01*
X120545435Y-97226277D01*
X120548453Y-97222077D01*
X120550789Y-97217352D01*
X120645136Y-97026453D01*
X120645137Y-97026451D01*
X120647430Y-97021811D01*
X120712370Y-96808069D01*
X120741529Y-96586590D01*
X120743156Y-96520000D01*
X120724852Y-96297361D01*
X120670431Y-96080702D01*
X120581354Y-95875840D01*
X120460014Y-95688277D01*
X120309670Y-95523051D01*
X120305619Y-95519852D01*
X120305615Y-95519848D01*
X120218439Y-95451000D01*
X136086496Y-95451000D01*
X136087186Y-95457565D01*
X136105716Y-95633865D01*
X136106458Y-95640928D01*
X136165473Y-95822556D01*
X136168776Y-95828278D01*
X136168777Y-95828279D01*
X136179401Y-95846680D01*
X136260960Y-95987944D01*
X136265378Y-95992851D01*
X136265379Y-95992852D01*
X136352356Y-96089450D01*
X136388747Y-96129866D01*
X136465480Y-96185616D01*
X136534441Y-96235719D01*
X136543248Y-96242118D01*
X136549276Y-96244802D01*
X136549278Y-96244803D01*
X136711681Y-96317109D01*
X136717712Y-96319794D01*
X136782890Y-96333648D01*
X136898056Y-96358128D01*
X136898061Y-96358128D01*
X136904513Y-96359500D01*
X137095487Y-96359500D01*
X137101939Y-96358128D01*
X137101944Y-96358128D01*
X137217110Y-96333648D01*
X137282288Y-96319794D01*
X137288319Y-96317109D01*
X137450722Y-96244803D01*
X137450724Y-96244802D01*
X137456752Y-96242118D01*
X137465560Y-96235719D01*
X137534520Y-96185616D01*
X137611253Y-96129866D01*
X137647644Y-96089450D01*
X137734621Y-95992852D01*
X137734622Y-95992851D01*
X137739040Y-95987944D01*
X137820599Y-95846680D01*
X137831223Y-95828279D01*
X137831224Y-95828278D01*
X137834527Y-95822556D01*
X137867179Y-95722064D01*
X137907253Y-95663458D01*
X137972649Y-95635821D01*
X137987012Y-95635000D01*
X138095487Y-95635000D01*
X138101939Y-95633628D01*
X138101944Y-95633628D01*
X138188888Y-95615147D01*
X138282288Y-95595294D01*
X138288319Y-95592609D01*
X138450722Y-95520303D01*
X138450724Y-95520302D01*
X138456752Y-95517618D01*
X138611253Y-95405366D01*
X138615675Y-95400455D01*
X138734621Y-95268352D01*
X138734622Y-95268351D01*
X138739040Y-95263444D01*
X138813293Y-95134835D01*
X138831223Y-95103779D01*
X138831224Y-95103778D01*
X138834527Y-95098056D01*
X138893542Y-94916428D01*
X138894520Y-94907128D01*
X138912814Y-94733065D01*
X138913504Y-94726500D01*
X140086496Y-94726500D01*
X140087186Y-94733065D01*
X140105481Y-94907128D01*
X140106458Y-94916428D01*
X140165473Y-95098056D01*
X140168776Y-95103778D01*
X140168777Y-95103779D01*
X140186707Y-95134835D01*
X140260960Y-95263444D01*
X140265378Y-95268351D01*
X140265379Y-95268352D01*
X140384325Y-95400455D01*
X140388747Y-95405366D01*
X140543248Y-95517618D01*
X140549276Y-95520302D01*
X140549278Y-95520303D01*
X140711681Y-95592609D01*
X140717712Y-95595294D01*
X140811112Y-95615147D01*
X140898056Y-95633628D01*
X140898061Y-95633628D01*
X140904513Y-95635000D01*
X141095487Y-95635000D01*
X141101939Y-95633628D01*
X141101944Y-95633628D01*
X141188888Y-95615147D01*
X141282288Y-95595294D01*
X141288319Y-95592609D01*
X141450722Y-95520303D01*
X141450724Y-95520302D01*
X141456752Y-95517618D01*
X141611253Y-95405366D01*
X141615675Y-95400455D01*
X141734621Y-95268352D01*
X141734622Y-95268351D01*
X141739040Y-95263444D01*
X141813293Y-95134835D01*
X141831223Y-95103779D01*
X141831224Y-95103778D01*
X141834527Y-95098056D01*
X141893542Y-94916428D01*
X141894520Y-94907128D01*
X141912814Y-94733065D01*
X141913504Y-94726500D01*
X141906450Y-94659382D01*
X141894232Y-94543135D01*
X141894232Y-94543133D01*
X141893542Y-94536572D01*
X141834527Y-94354944D01*
X141739040Y-94189556D01*
X141611253Y-94047634D01*
X141545691Y-94000000D01*
X142786496Y-94000000D01*
X142787186Y-94006565D01*
X142804865Y-94174767D01*
X142806458Y-94189928D01*
X142865473Y-94371556D01*
X142868776Y-94377277D01*
X142868777Y-94377279D01*
X142877522Y-94392425D01*
X142960960Y-94536944D01*
X142965378Y-94541851D01*
X142965379Y-94541852D01*
X143071654Y-94659882D01*
X143088747Y-94678866D01*
X143243248Y-94791118D01*
X143249276Y-94793802D01*
X143249278Y-94793803D01*
X143411681Y-94866109D01*
X143417712Y-94868794D01*
X143486489Y-94883413D01*
X143598056Y-94907128D01*
X143598061Y-94907128D01*
X143604513Y-94908500D01*
X143795487Y-94908500D01*
X143801939Y-94907128D01*
X143801944Y-94907128D01*
X143913511Y-94883413D01*
X143938925Y-94878011D01*
X144009716Y-94883413D01*
X144066348Y-94926230D01*
X144090842Y-94992867D01*
X144074240Y-95064259D01*
X144065473Y-95079444D01*
X144006458Y-95261072D01*
X144005768Y-95267633D01*
X144005768Y-95267635D01*
X143991808Y-95400455D01*
X143986496Y-95451000D01*
X143987186Y-95457565D01*
X144005716Y-95633865D01*
X144006458Y-95640928D01*
X144065473Y-95822556D01*
X144068776Y-95828278D01*
X144068777Y-95828279D01*
X144079401Y-95846680D01*
X144160960Y-95987944D01*
X144165378Y-95992851D01*
X144165379Y-95992852D01*
X144252356Y-96089450D01*
X144288747Y-96129866D01*
X144365480Y-96185616D01*
X144434441Y-96235719D01*
X144443248Y-96242118D01*
X144449276Y-96244802D01*
X144449278Y-96244803D01*
X144611681Y-96317109D01*
X144617712Y-96319794D01*
X144682890Y-96333648D01*
X144798056Y-96358128D01*
X144798061Y-96358128D01*
X144804513Y-96359500D01*
X144995487Y-96359500D01*
X145001939Y-96358128D01*
X145001944Y-96358128D01*
X145117110Y-96333648D01*
X145182288Y-96319794D01*
X145188319Y-96317109D01*
X145350722Y-96244803D01*
X145350724Y-96244802D01*
X145356752Y-96242118D01*
X145365560Y-96235719D01*
X145434520Y-96185616D01*
X145511253Y-96129866D01*
X145547644Y-96089450D01*
X145634621Y-95992852D01*
X145634622Y-95992851D01*
X145639040Y-95987944D01*
X145720599Y-95846680D01*
X145731223Y-95828279D01*
X145731224Y-95828278D01*
X145734527Y-95822556D01*
X145793542Y-95640928D01*
X145794285Y-95633865D01*
X145812814Y-95457565D01*
X145813504Y-95451000D01*
X145808192Y-95400455D01*
X145794232Y-95267635D01*
X145794232Y-95267633D01*
X145793542Y-95261072D01*
X145734527Y-95079444D01*
X145725761Y-95064260D01*
X145659810Y-94950031D01*
X145639040Y-94914056D01*
X145634038Y-94908500D01*
X145515675Y-94777045D01*
X145515674Y-94777044D01*
X145511253Y-94772134D01*
X145394253Y-94687128D01*
X145362094Y-94663763D01*
X145362093Y-94663762D01*
X145356752Y-94659882D01*
X145350724Y-94657198D01*
X145350722Y-94657197D01*
X145188319Y-94584891D01*
X145188318Y-94584891D01*
X145182288Y-94582206D01*
X145088887Y-94562353D01*
X145001944Y-94543872D01*
X145001939Y-94543872D01*
X144995487Y-94542500D01*
X144804513Y-94542500D01*
X144798061Y-94543872D01*
X144798056Y-94543872D01*
X144692020Y-94566411D01*
X144661075Y-94572989D01*
X144590284Y-94567587D01*
X144533652Y-94524770D01*
X144509158Y-94458133D01*
X144525760Y-94386740D01*
X144531224Y-94377277D01*
X144534527Y-94371556D01*
X144593542Y-94189928D01*
X144595136Y-94174767D01*
X144612814Y-94006565D01*
X144613346Y-94001500D01*
X151646496Y-94001500D01*
X151647186Y-94008065D01*
X151665611Y-94183365D01*
X151666458Y-94191428D01*
X151725473Y-94373056D01*
X151728776Y-94378778D01*
X151728777Y-94378779D01*
X151736656Y-94392425D01*
X151820960Y-94538444D01*
X151825378Y-94543351D01*
X151825379Y-94543352D01*
X151944325Y-94675455D01*
X151948747Y-94680366D01*
X151969160Y-94695197D01*
X152095842Y-94787237D01*
X152103248Y-94792618D01*
X152109276Y-94795302D01*
X152109278Y-94795303D01*
X152268312Y-94866109D01*
X152277712Y-94870294D01*
X152363364Y-94888500D01*
X152458056Y-94908628D01*
X152458061Y-94908628D01*
X152464513Y-94910000D01*
X152655487Y-94910000D01*
X152661939Y-94908628D01*
X152661944Y-94908628D01*
X152756636Y-94888500D01*
X152842288Y-94870294D01*
X152851688Y-94866109D01*
X153010722Y-94795303D01*
X153010724Y-94795302D01*
X153016752Y-94792618D01*
X153024159Y-94787237D01*
X153150840Y-94695197D01*
X153171253Y-94680366D01*
X153175675Y-94675455D01*
X153294621Y-94543352D01*
X153294622Y-94543351D01*
X153299040Y-94538444D01*
X153383344Y-94392425D01*
X153391223Y-94378779D01*
X153391224Y-94378778D01*
X153394527Y-94373056D01*
X153453542Y-94191428D01*
X153454390Y-94183365D01*
X153472814Y-94008065D01*
X153473504Y-94001500D01*
X153453542Y-93811572D01*
X153443284Y-93780000D01*
X168026496Y-93780000D01*
X168027186Y-93786565D01*
X168043477Y-93941562D01*
X168046458Y-93969928D01*
X168105473Y-94151556D01*
X168200960Y-94316944D01*
X168205378Y-94321851D01*
X168205379Y-94321852D01*
X168324325Y-94453955D01*
X168328747Y-94458866D01*
X168419456Y-94524770D01*
X168445032Y-94543352D01*
X168483248Y-94571118D01*
X168489276Y-94573802D01*
X168489278Y-94573803D01*
X168651681Y-94646109D01*
X168657712Y-94648794D01*
X168751113Y-94668647D01*
X168838056Y-94687128D01*
X168838061Y-94687128D01*
X168844513Y-94688500D01*
X169035487Y-94688500D01*
X169041939Y-94687128D01*
X169041944Y-94687128D01*
X169128887Y-94668647D01*
X169222288Y-94648794D01*
X169228319Y-94646109D01*
X169390722Y-94573803D01*
X169390724Y-94573802D01*
X169396752Y-94571118D01*
X169434969Y-94543352D01*
X169460544Y-94524770D01*
X169551253Y-94458866D01*
X169555675Y-94453955D01*
X169674621Y-94321852D01*
X169674622Y-94321851D01*
X169679040Y-94316944D01*
X169774527Y-94151556D01*
X169823771Y-94000000D01*
X174386496Y-94000000D01*
X174387186Y-94006565D01*
X174404865Y-94174767D01*
X174406458Y-94189928D01*
X174465473Y-94371556D01*
X174468776Y-94377277D01*
X174468777Y-94377279D01*
X174477522Y-94392425D01*
X174560960Y-94536944D01*
X174565378Y-94541851D01*
X174565379Y-94541852D01*
X174671654Y-94659882D01*
X174688747Y-94678866D01*
X174843248Y-94791118D01*
X174849276Y-94793802D01*
X174849278Y-94793803D01*
X175011681Y-94866109D01*
X175017712Y-94868794D01*
X175086489Y-94883413D01*
X175198056Y-94907128D01*
X175198061Y-94907128D01*
X175204513Y-94908500D01*
X175395487Y-94908500D01*
X175401939Y-94907128D01*
X175401944Y-94907128D01*
X175513511Y-94883413D01*
X175582288Y-94868794D01*
X175588319Y-94866109D01*
X175750722Y-94793803D01*
X175750724Y-94793802D01*
X175756752Y-94791118D01*
X175911253Y-94678866D01*
X175928346Y-94659882D01*
X176034621Y-94541852D01*
X176034622Y-94541851D01*
X176039040Y-94536944D01*
X176122478Y-94392425D01*
X176131223Y-94377279D01*
X176131224Y-94377277D01*
X176134527Y-94371556D01*
X176193542Y-94189928D01*
X176195136Y-94174767D01*
X176212814Y-94006565D01*
X176213504Y-94000000D01*
X176208034Y-93947960D01*
X176194232Y-93816635D01*
X176194232Y-93816633D01*
X176193542Y-93810072D01*
X176134527Y-93628444D01*
X176039040Y-93463056D01*
X176026181Y-93448774D01*
X175915675Y-93326045D01*
X175915674Y-93326044D01*
X175911253Y-93321134D01*
X175797033Y-93238148D01*
X175762094Y-93212763D01*
X175762093Y-93212762D01*
X175756752Y-93208882D01*
X175750724Y-93206198D01*
X175750722Y-93206197D01*
X175588319Y-93133891D01*
X175588318Y-93133891D01*
X175582288Y-93131206D01*
X175481741Y-93109834D01*
X175401944Y-93092872D01*
X175401939Y-93092872D01*
X175395487Y-93091500D01*
X175204513Y-93091500D01*
X175198061Y-93092872D01*
X175198056Y-93092872D01*
X175118259Y-93109834D01*
X175017712Y-93131206D01*
X175011682Y-93133891D01*
X175011681Y-93133891D01*
X174849278Y-93206197D01*
X174849276Y-93206198D01*
X174843248Y-93208882D01*
X174837907Y-93212762D01*
X174837906Y-93212763D01*
X174802967Y-93238148D01*
X174688747Y-93321134D01*
X174684326Y-93326044D01*
X174684325Y-93326045D01*
X174573820Y-93448774D01*
X174560960Y-93463056D01*
X174465473Y-93628444D01*
X174406458Y-93810072D01*
X174405768Y-93816633D01*
X174405768Y-93816635D01*
X174391966Y-93947960D01*
X174386496Y-94000000D01*
X169823771Y-94000000D01*
X169833542Y-93969928D01*
X169836524Y-93941562D01*
X169852814Y-93786565D01*
X169853504Y-93780000D01*
X169835473Y-93608444D01*
X169834232Y-93596635D01*
X169834232Y-93596633D01*
X169833542Y-93590072D01*
X169774527Y-93408444D01*
X169679040Y-93243056D01*
X169639521Y-93199165D01*
X169555675Y-93106045D01*
X169555674Y-93106044D01*
X169551253Y-93101134D01*
X169433073Y-93015271D01*
X169402094Y-92992763D01*
X169402093Y-92992762D01*
X169396752Y-92988882D01*
X169390724Y-92986198D01*
X169390722Y-92986197D01*
X169228319Y-92913891D01*
X169228318Y-92913891D01*
X169222288Y-92911206D01*
X169127782Y-92891118D01*
X169041944Y-92872872D01*
X169041939Y-92872872D01*
X169035487Y-92871500D01*
X168844513Y-92871500D01*
X168838061Y-92872872D01*
X168838056Y-92872872D01*
X168752218Y-92891118D01*
X168657712Y-92911206D01*
X168651682Y-92913891D01*
X168651681Y-92913891D01*
X168489278Y-92986197D01*
X168489276Y-92986198D01*
X168483248Y-92988882D01*
X168477907Y-92992762D01*
X168477906Y-92992763D01*
X168446927Y-93015271D01*
X168328747Y-93101134D01*
X168324326Y-93106044D01*
X168324325Y-93106045D01*
X168240480Y-93199165D01*
X168200960Y-93243056D01*
X168105473Y-93408444D01*
X168046458Y-93590072D01*
X168045768Y-93596633D01*
X168045768Y-93596635D01*
X168044527Y-93608444D01*
X168026496Y-93780000D01*
X153443284Y-93780000D01*
X153394527Y-93629944D01*
X153299040Y-93464556D01*
X153279682Y-93443056D01*
X153175675Y-93327545D01*
X153175674Y-93327544D01*
X153171253Y-93322634D01*
X153061724Y-93243056D01*
X153022094Y-93214263D01*
X153022093Y-93214262D01*
X153016752Y-93210382D01*
X153010724Y-93207698D01*
X153010722Y-93207697D01*
X152848319Y-93135391D01*
X152848318Y-93135391D01*
X152842288Y-93132706D01*
X152741139Y-93111206D01*
X152661944Y-93094372D01*
X152661939Y-93094372D01*
X152655487Y-93093000D01*
X152464513Y-93093000D01*
X152458061Y-93094372D01*
X152458056Y-93094372D01*
X152378861Y-93111206D01*
X152277712Y-93132706D01*
X152271682Y-93135391D01*
X152271681Y-93135391D01*
X152109278Y-93207697D01*
X152109276Y-93207698D01*
X152103248Y-93210382D01*
X152097907Y-93214262D01*
X152097906Y-93214263D01*
X152058276Y-93243056D01*
X151948747Y-93322634D01*
X151944326Y-93327544D01*
X151944325Y-93327545D01*
X151840319Y-93443056D01*
X151820960Y-93464556D01*
X151725473Y-93629944D01*
X151666458Y-93811572D01*
X151646496Y-94001500D01*
X144613346Y-94001500D01*
X144613504Y-94000000D01*
X144608034Y-93947960D01*
X144594232Y-93816635D01*
X144594232Y-93816633D01*
X144593542Y-93810072D01*
X144534527Y-93628444D01*
X144439040Y-93463056D01*
X144426181Y-93448774D01*
X144315675Y-93326045D01*
X144315674Y-93326044D01*
X144311253Y-93321134D01*
X144197033Y-93238148D01*
X144162094Y-93212763D01*
X144162093Y-93212762D01*
X144156752Y-93208882D01*
X144150724Y-93206198D01*
X144150722Y-93206197D01*
X143988319Y-93133891D01*
X143988318Y-93133891D01*
X143982288Y-93131206D01*
X143881741Y-93109834D01*
X143801944Y-93092872D01*
X143801939Y-93092872D01*
X143795487Y-93091500D01*
X143604513Y-93091500D01*
X143598061Y-93092872D01*
X143598056Y-93092872D01*
X143518259Y-93109834D01*
X143417712Y-93131206D01*
X143411682Y-93133891D01*
X143411681Y-93133891D01*
X143249278Y-93206197D01*
X143249276Y-93206198D01*
X143243248Y-93208882D01*
X143237907Y-93212762D01*
X143237906Y-93212763D01*
X143202967Y-93238148D01*
X143088747Y-93321134D01*
X143084326Y-93326044D01*
X143084325Y-93326045D01*
X142973820Y-93448774D01*
X142960960Y-93463056D01*
X142865473Y-93628444D01*
X142806458Y-93810072D01*
X142805768Y-93816633D01*
X142805768Y-93816635D01*
X142791966Y-93947960D01*
X142786496Y-94000000D01*
X141545691Y-94000000D01*
X141479420Y-93951851D01*
X141462094Y-93939263D01*
X141462093Y-93939262D01*
X141456752Y-93935382D01*
X141450724Y-93932698D01*
X141450722Y-93932697D01*
X141288319Y-93860391D01*
X141288318Y-93860391D01*
X141282288Y-93857706D01*
X141188888Y-93837853D01*
X141101944Y-93819372D01*
X141101939Y-93819372D01*
X141095487Y-93818000D01*
X140904513Y-93818000D01*
X140898061Y-93819372D01*
X140898056Y-93819372D01*
X140811112Y-93837853D01*
X140717712Y-93857706D01*
X140711682Y-93860391D01*
X140711681Y-93860391D01*
X140549278Y-93932697D01*
X140549276Y-93932698D01*
X140543248Y-93935382D01*
X140537907Y-93939262D01*
X140537906Y-93939263D01*
X140520580Y-93951851D01*
X140388747Y-94047634D01*
X140260960Y-94189556D01*
X140165473Y-94354944D01*
X140106458Y-94536572D01*
X140105768Y-94543133D01*
X140105768Y-94543135D01*
X140093550Y-94659382D01*
X140086496Y-94726500D01*
X138913504Y-94726500D01*
X138906450Y-94659382D01*
X138894232Y-94543135D01*
X138894232Y-94543133D01*
X138893542Y-94536572D01*
X138834527Y-94354944D01*
X138739040Y-94189556D01*
X138611253Y-94047634D01*
X138612354Y-94046642D01*
X138579146Y-93992734D01*
X138580502Y-93921750D01*
X138612244Y-93872358D01*
X138611253Y-93871466D01*
X138734621Y-93734452D01*
X138734622Y-93734451D01*
X138739040Y-93729544D01*
X138808957Y-93608444D01*
X138831223Y-93569879D01*
X138831224Y-93569878D01*
X138834527Y-93564156D01*
X138893542Y-93382528D01*
X138898222Y-93338006D01*
X138912814Y-93199165D01*
X138913504Y-93192600D01*
X138906098Y-93122138D01*
X138894232Y-93009235D01*
X138894232Y-93009233D01*
X138893542Y-93002672D01*
X138834527Y-92821044D01*
X138810176Y-92778866D01*
X138742341Y-92661374D01*
X138739040Y-92655656D01*
X138733947Y-92650000D01*
X139436496Y-92650000D01*
X139437186Y-92656565D01*
X139455374Y-92829612D01*
X139456458Y-92839928D01*
X139515473Y-93021556D01*
X139610960Y-93186944D01*
X139615378Y-93191851D01*
X139615379Y-93191852D01*
X139635558Y-93214263D01*
X139738747Y-93328866D01*
X139893248Y-93441118D01*
X139899276Y-93443802D01*
X139899278Y-93443803D01*
X140061681Y-93516109D01*
X140067712Y-93518794D01*
X140148443Y-93535954D01*
X140248056Y-93557128D01*
X140248061Y-93557128D01*
X140254513Y-93558500D01*
X140445487Y-93558500D01*
X140451939Y-93557128D01*
X140451944Y-93557128D01*
X140551557Y-93535954D01*
X140632288Y-93518794D01*
X140638319Y-93516109D01*
X140800722Y-93443803D01*
X140800724Y-93443802D01*
X140806752Y-93441118D01*
X140961253Y-93328866D01*
X141064442Y-93214263D01*
X141084621Y-93191852D01*
X141084622Y-93191851D01*
X141089040Y-93186944D01*
X141184527Y-93021556D01*
X141243542Y-92839928D01*
X141244627Y-92829612D01*
X141262814Y-92656565D01*
X141263504Y-92650000D01*
X141243542Y-92460072D01*
X141184527Y-92278444D01*
X141089040Y-92113056D01*
X141083196Y-92106565D01*
X140965675Y-91976045D01*
X140965674Y-91976044D01*
X140961253Y-91971134D01*
X140806752Y-91858882D01*
X140800724Y-91856198D01*
X140800722Y-91856197D01*
X140638319Y-91783891D01*
X140638318Y-91783891D01*
X140632288Y-91781206D01*
X140538888Y-91761353D01*
X140451944Y-91742872D01*
X140451939Y-91742872D01*
X140445487Y-91741500D01*
X140254513Y-91741500D01*
X140248061Y-91742872D01*
X140248056Y-91742872D01*
X140161112Y-91761353D01*
X140067712Y-91781206D01*
X140061682Y-91783891D01*
X140061681Y-91783891D01*
X139899278Y-91856197D01*
X139899276Y-91856198D01*
X139893248Y-91858882D01*
X139738747Y-91971134D01*
X139734326Y-91976044D01*
X139734325Y-91976045D01*
X139616805Y-92106565D01*
X139610960Y-92113056D01*
X139515473Y-92278444D01*
X139456458Y-92460072D01*
X139436496Y-92650000D01*
X138733947Y-92650000D01*
X138688881Y-92599948D01*
X138615675Y-92518645D01*
X138615674Y-92518644D01*
X138611253Y-92513734D01*
X138456752Y-92401482D01*
X138450724Y-92398798D01*
X138450722Y-92398797D01*
X138288319Y-92326491D01*
X138288318Y-92326491D01*
X138282288Y-92323806D01*
X138188887Y-92303953D01*
X138101944Y-92285472D01*
X138101939Y-92285472D01*
X138095487Y-92284100D01*
X137904513Y-92284100D01*
X137898061Y-92285472D01*
X137898056Y-92285472D01*
X137811113Y-92303953D01*
X137717712Y-92323806D01*
X137711682Y-92326491D01*
X137711681Y-92326491D01*
X137549278Y-92398797D01*
X137549276Y-92398798D01*
X137543248Y-92401482D01*
X137388747Y-92513734D01*
X137384326Y-92518644D01*
X137384325Y-92518645D01*
X137311120Y-92599948D01*
X137260960Y-92655656D01*
X137257659Y-92661374D01*
X137189825Y-92778866D01*
X137165473Y-92821044D01*
X137141832Y-92893803D01*
X137112383Y-92984437D01*
X137072309Y-93043042D01*
X137006912Y-93070679D01*
X136992550Y-93071500D01*
X136904513Y-93071500D01*
X136898061Y-93072872D01*
X136898056Y-93072872D01*
X136811113Y-93091353D01*
X136717712Y-93111206D01*
X136711682Y-93113891D01*
X136711681Y-93113891D01*
X136549278Y-93186197D01*
X136549276Y-93186198D01*
X136543248Y-93188882D01*
X136537907Y-93192762D01*
X136537906Y-93192763D01*
X136519416Y-93206197D01*
X136388747Y-93301134D01*
X136384326Y-93306044D01*
X136384325Y-93306045D01*
X136315460Y-93382528D01*
X136260960Y-93443056D01*
X136207325Y-93535954D01*
X136187739Y-93569879D01*
X136165473Y-93608444D01*
X136106458Y-93790072D01*
X136105768Y-93796633D01*
X136105768Y-93796635D01*
X136099067Y-93860391D01*
X136086496Y-93980000D01*
X136087186Y-93986565D01*
X136105129Y-94157279D01*
X136106458Y-94169928D01*
X136165473Y-94351556D01*
X136168776Y-94357278D01*
X136168777Y-94357279D01*
X136189069Y-94392425D01*
X136260960Y-94516944D01*
X136265378Y-94521851D01*
X136265379Y-94521852D01*
X136363827Y-94631190D01*
X136394545Y-94695197D01*
X136385780Y-94765651D01*
X136363827Y-94799810D01*
X136265847Y-94908628D01*
X136260960Y-94914056D01*
X136240190Y-94950031D01*
X136174240Y-95064260D01*
X136165473Y-95079444D01*
X136106458Y-95261072D01*
X136105768Y-95267633D01*
X136105768Y-95267635D01*
X136091808Y-95400455D01*
X136086496Y-95451000D01*
X120218439Y-95451000D01*
X120138414Y-95387800D01*
X120138410Y-95387798D01*
X120134359Y-95384598D01*
X120093053Y-95361796D01*
X120043084Y-95311364D01*
X120028312Y-95241921D01*
X120053428Y-95175516D01*
X120080780Y-95148909D01*
X120144050Y-95103779D01*
X120259860Y-95021173D01*
X120418096Y-94863489D01*
X120427670Y-94850166D01*
X120543838Y-94688500D01*
X120548453Y-94682077D01*
X120557505Y-94663763D01*
X120645136Y-94486453D01*
X120645137Y-94486451D01*
X120647430Y-94481811D01*
X120712370Y-94268069D01*
X120741529Y-94046590D01*
X120742375Y-94011966D01*
X120743074Y-93983365D01*
X120743074Y-93983361D01*
X120743156Y-93980000D01*
X123986496Y-93980000D01*
X123987186Y-93986565D01*
X124005129Y-94157279D01*
X124006458Y-94169928D01*
X124065473Y-94351556D01*
X124068776Y-94357278D01*
X124068777Y-94357279D01*
X124089069Y-94392425D01*
X124160960Y-94516944D01*
X124165378Y-94521851D01*
X124165379Y-94521852D01*
X124279678Y-94648794D01*
X124288747Y-94658866D01*
X124443248Y-94771118D01*
X124449276Y-94773802D01*
X124449278Y-94773803D01*
X124604750Y-94843023D01*
X124617712Y-94848794D01*
X124704009Y-94867137D01*
X124798056Y-94887128D01*
X124798061Y-94887128D01*
X124804513Y-94888500D01*
X124995487Y-94888500D01*
X125001939Y-94887128D01*
X125001944Y-94887128D01*
X125095991Y-94867137D01*
X125182288Y-94848794D01*
X125195250Y-94843023D01*
X125350722Y-94773803D01*
X125350724Y-94773802D01*
X125356752Y-94771118D01*
X125511253Y-94658866D01*
X125520322Y-94648794D01*
X125634621Y-94521852D01*
X125634622Y-94521851D01*
X125639040Y-94516944D01*
X125710931Y-94392425D01*
X125731223Y-94357279D01*
X125731224Y-94357278D01*
X125734527Y-94351556D01*
X125793542Y-94169928D01*
X125794872Y-94157279D01*
X125812814Y-93986565D01*
X125813504Y-93980000D01*
X125800933Y-93860391D01*
X125794232Y-93796635D01*
X125794232Y-93796633D01*
X125793542Y-93790072D01*
X125734527Y-93608444D01*
X125712262Y-93569879D01*
X125692675Y-93535954D01*
X125639040Y-93443056D01*
X125584541Y-93382528D01*
X125515675Y-93306045D01*
X125515674Y-93306044D01*
X125511253Y-93301134D01*
X125380584Y-93206197D01*
X125362094Y-93192763D01*
X125362093Y-93192762D01*
X125356752Y-93188882D01*
X125350724Y-93186198D01*
X125350722Y-93186197D01*
X125251004Y-93141800D01*
X131623696Y-93141800D01*
X131624386Y-93148365D01*
X131642545Y-93321134D01*
X131643658Y-93331728D01*
X131702673Y-93513356D01*
X131798160Y-93678744D01*
X131802578Y-93683651D01*
X131802579Y-93683652D01*
X131898400Y-93790072D01*
X131925947Y-93820666D01*
X131975040Y-93856334D01*
X132065077Y-93921750D01*
X132080448Y-93932918D01*
X132086476Y-93935602D01*
X132086478Y-93935603D01*
X132248881Y-94007909D01*
X132254912Y-94010594D01*
X132348312Y-94030447D01*
X132435256Y-94048928D01*
X132435261Y-94048928D01*
X132441713Y-94050300D01*
X132632687Y-94050300D01*
X132639139Y-94048928D01*
X132639144Y-94048928D01*
X132726088Y-94030447D01*
X132819488Y-94010594D01*
X132825519Y-94007909D01*
X132987922Y-93935603D01*
X132987924Y-93935602D01*
X132993952Y-93932918D01*
X133009324Y-93921750D01*
X133099360Y-93856334D01*
X133148453Y-93820666D01*
X133176000Y-93790072D01*
X133271821Y-93683652D01*
X133271822Y-93683651D01*
X133276240Y-93678744D01*
X133371727Y-93513356D01*
X133430742Y-93331728D01*
X133431856Y-93321134D01*
X133450014Y-93148365D01*
X133450704Y-93141800D01*
X133447771Y-93113891D01*
X133431432Y-92958435D01*
X133431432Y-92958433D01*
X133430742Y-92951872D01*
X133371727Y-92770244D01*
X133276240Y-92604856D01*
X133211833Y-92533324D01*
X133152875Y-92467845D01*
X133152874Y-92467844D01*
X133148453Y-92462934D01*
X132993952Y-92350682D01*
X132987924Y-92347998D01*
X132987922Y-92347997D01*
X132825519Y-92275691D01*
X132825518Y-92275691D01*
X132819488Y-92273006D01*
X132726087Y-92253153D01*
X132639144Y-92234672D01*
X132639139Y-92234672D01*
X132632687Y-92233300D01*
X132441713Y-92233300D01*
X132435261Y-92234672D01*
X132435256Y-92234672D01*
X132348313Y-92253153D01*
X132254912Y-92273006D01*
X132248882Y-92275691D01*
X132248881Y-92275691D01*
X132086478Y-92347997D01*
X132086476Y-92347998D01*
X132080448Y-92350682D01*
X131925947Y-92462934D01*
X131921526Y-92467844D01*
X131921525Y-92467845D01*
X131862568Y-92533324D01*
X131798160Y-92604856D01*
X131702673Y-92770244D01*
X131643658Y-92951872D01*
X131642968Y-92958433D01*
X131642968Y-92958435D01*
X131626629Y-93113891D01*
X131623696Y-93141800D01*
X125251004Y-93141800D01*
X125188319Y-93113891D01*
X125188318Y-93113891D01*
X125182288Y-93111206D01*
X125088887Y-93091353D01*
X125001944Y-93072872D01*
X125001939Y-93072872D01*
X124995487Y-93071500D01*
X124804513Y-93071500D01*
X124798061Y-93072872D01*
X124798056Y-93072872D01*
X124711113Y-93091353D01*
X124617712Y-93111206D01*
X124611682Y-93113891D01*
X124611681Y-93113891D01*
X124449278Y-93186197D01*
X124449276Y-93186198D01*
X124443248Y-93188882D01*
X124437907Y-93192762D01*
X124437906Y-93192763D01*
X124419416Y-93206197D01*
X124288747Y-93301134D01*
X124284326Y-93306044D01*
X124284325Y-93306045D01*
X124215460Y-93382528D01*
X124160960Y-93443056D01*
X124107325Y-93535954D01*
X124087739Y-93569879D01*
X124065473Y-93608444D01*
X124006458Y-93790072D01*
X124005768Y-93796633D01*
X124005768Y-93796635D01*
X123999067Y-93860391D01*
X123986496Y-93980000D01*
X120743156Y-93980000D01*
X120724852Y-93757361D01*
X120670431Y-93540702D01*
X120581354Y-93335840D01*
X120541906Y-93274862D01*
X120462822Y-93152617D01*
X120462820Y-93152614D01*
X120460014Y-93148277D01*
X120309670Y-92983051D01*
X120305619Y-92979852D01*
X120305615Y-92979848D01*
X120138414Y-92847800D01*
X120138410Y-92847798D01*
X120134359Y-92844598D01*
X120093053Y-92821796D01*
X120043084Y-92771364D01*
X120028312Y-92701921D01*
X120053428Y-92635516D01*
X120080780Y-92608909D01*
X120124603Y-92577650D01*
X120259860Y-92481173D01*
X120282060Y-92459051D01*
X120414435Y-92327137D01*
X120418096Y-92323489D01*
X120455358Y-92271634D01*
X120545435Y-92146277D01*
X120548453Y-92142077D01*
X120589007Y-92060023D01*
X120645136Y-91946453D01*
X120645137Y-91946451D01*
X120647430Y-91941811D01*
X120701585Y-91763566D01*
X120710865Y-91733023D01*
X120710865Y-91733021D01*
X120712370Y-91728069D01*
X120741529Y-91506590D01*
X120742112Y-91482749D01*
X120743074Y-91443365D01*
X120743074Y-91443361D01*
X120743156Y-91440000D01*
X120724852Y-91217361D01*
X120670431Y-91000702D01*
X120581354Y-90795840D01*
X120541906Y-90734862D01*
X120462822Y-90612617D01*
X120462820Y-90612614D01*
X120460014Y-90608277D01*
X120309670Y-90443051D01*
X120305619Y-90439852D01*
X120305615Y-90439848D01*
X120138414Y-90307800D01*
X120138410Y-90307798D01*
X120134359Y-90304598D01*
X120093053Y-90281796D01*
X120043084Y-90231364D01*
X120028312Y-90161921D01*
X120053428Y-90095516D01*
X120080780Y-90068909D01*
X120149027Y-90020229D01*
X120259860Y-89941173D01*
X120269988Y-89931081D01*
X120379746Y-89821705D01*
X120418096Y-89783489D01*
X120421112Y-89779292D01*
X120519654Y-89642156D01*
X120575649Y-89598508D01*
X120646352Y-89592062D01*
X120709317Y-89624865D01*
X120743113Y-89684006D01*
X120743255Y-89685316D01*
X120746027Y-89692709D01*
X120746027Y-89692711D01*
X120775064Y-89770166D01*
X120794385Y-89821705D01*
X120881739Y-89938261D01*
X120998295Y-90025615D01*
X121134684Y-90076745D01*
X121196866Y-90083500D01*
X122643134Y-90083500D01*
X122705316Y-90076745D01*
X122841705Y-90025615D01*
X122958261Y-89938261D01*
X123045615Y-89821705D01*
X123096745Y-89685316D01*
X123103500Y-89623134D01*
X130896500Y-89623134D01*
X130903255Y-89685316D01*
X130954385Y-89821705D01*
X131041739Y-89938261D01*
X131158295Y-90025615D01*
X131294684Y-90076745D01*
X131356866Y-90083500D01*
X132803134Y-90083500D01*
X132865316Y-90076745D01*
X133001705Y-90025615D01*
X133118261Y-89938261D01*
X133205615Y-89821705D01*
X133256745Y-89685316D01*
X133263500Y-89623134D01*
X141056500Y-89623134D01*
X141063255Y-89685316D01*
X141114385Y-89821705D01*
X141201739Y-89938261D01*
X141318295Y-90025615D01*
X141454684Y-90076745D01*
X141516866Y-90083500D01*
X142963134Y-90083500D01*
X143025316Y-90076745D01*
X143161705Y-90025615D01*
X143278261Y-89938261D01*
X143365615Y-89821705D01*
X143416745Y-89685316D01*
X143423500Y-89623134D01*
X143423500Y-89010000D01*
X149176496Y-89010000D01*
X149177186Y-89016565D01*
X149195212Y-89188069D01*
X149196458Y-89199928D01*
X149255473Y-89381556D01*
X149258776Y-89387278D01*
X149258777Y-89387279D01*
X149278323Y-89421134D01*
X149350960Y-89546944D01*
X149355378Y-89551851D01*
X149355379Y-89551852D01*
X149411527Y-89614211D01*
X149478747Y-89688866D01*
X149633248Y-89801118D01*
X149639276Y-89803802D01*
X149639278Y-89803803D01*
X149796805Y-89873938D01*
X149807712Y-89878794D01*
X149901113Y-89898647D01*
X149988056Y-89917128D01*
X149988061Y-89917128D01*
X149994513Y-89918500D01*
X150185487Y-89918500D01*
X150191939Y-89917128D01*
X150191944Y-89917128D01*
X150278887Y-89898647D01*
X150372288Y-89878794D01*
X150383195Y-89873938D01*
X150540722Y-89803803D01*
X150540724Y-89803802D01*
X150546752Y-89801118D01*
X150701253Y-89688866D01*
X150768473Y-89614211D01*
X150824621Y-89551852D01*
X150824622Y-89551851D01*
X150829040Y-89546944D01*
X150901677Y-89421134D01*
X150921223Y-89387279D01*
X150921224Y-89387278D01*
X150924527Y-89381556D01*
X150970667Y-89239553D01*
X151010741Y-89180947D01*
X151076137Y-89153310D01*
X151146094Y-89165417D01*
X151198400Y-89213423D01*
X151216500Y-89278489D01*
X151216500Y-89623134D01*
X151223255Y-89685316D01*
X151274385Y-89821705D01*
X151361739Y-89938261D01*
X151478295Y-90025615D01*
X151614684Y-90076745D01*
X151676866Y-90083500D01*
X153123134Y-90083500D01*
X153185316Y-90076745D01*
X153192714Y-90073972D01*
X153192721Y-90073970D01*
X153224006Y-90062242D01*
X153294813Y-90057059D01*
X153357182Y-90090981D01*
X153391310Y-90153237D01*
X153393543Y-90167047D01*
X153400303Y-90231364D01*
X153405765Y-90283330D01*
X153406458Y-90289928D01*
X153465473Y-90471556D01*
X153468776Y-90477278D01*
X153468777Y-90477279D01*
X153493398Y-90519924D01*
X153560960Y-90636944D01*
X153565378Y-90641851D01*
X153565379Y-90641852D01*
X153620268Y-90702812D01*
X153688747Y-90778866D01*
X153843248Y-90891118D01*
X153849276Y-90893802D01*
X153849278Y-90893803D01*
X154011681Y-90966109D01*
X154017712Y-90968794D01*
X154086263Y-90983365D01*
X154198056Y-91007128D01*
X154198061Y-91007128D01*
X154204513Y-91008500D01*
X154395487Y-91008500D01*
X154401939Y-91007128D01*
X154401944Y-91007128D01*
X154513737Y-90983365D01*
X154582288Y-90968794D01*
X154588319Y-90966109D01*
X154750722Y-90893803D01*
X154750724Y-90893802D01*
X154756752Y-90891118D01*
X154911253Y-90778866D01*
X154979732Y-90702812D01*
X155034621Y-90641852D01*
X155034622Y-90641851D01*
X155039040Y-90636944D01*
X155106602Y-90519924D01*
X155131223Y-90477279D01*
X155131224Y-90477278D01*
X155134527Y-90471556D01*
X155193542Y-90289928D01*
X155194236Y-90283330D01*
X155212814Y-90106565D01*
X155213504Y-90100000D01*
X155211731Y-90083131D01*
X155194232Y-89916635D01*
X155194232Y-89916633D01*
X155193542Y-89910072D01*
X155134527Y-89728444D01*
X155121043Y-89705088D01*
X155075687Y-89626531D01*
X155039040Y-89563056D01*
X155004991Y-89525240D01*
X154915675Y-89426045D01*
X154915674Y-89426044D01*
X154911253Y-89421134D01*
X154756752Y-89308882D01*
X154750724Y-89306198D01*
X154750722Y-89306197D01*
X154588319Y-89233891D01*
X154588318Y-89233891D01*
X154582288Y-89231206D01*
X154475141Y-89208431D01*
X154401944Y-89192872D01*
X154401939Y-89192872D01*
X154395487Y-89191500D01*
X154204513Y-89191500D01*
X154198061Y-89192872D01*
X154198056Y-89192872D01*
X154124859Y-89208431D01*
X154017712Y-89231206D01*
X154011682Y-89233891D01*
X154011681Y-89233891D01*
X153849278Y-89306197D01*
X153849276Y-89306198D01*
X153843248Y-89308882D01*
X153837907Y-89312762D01*
X153837906Y-89312763D01*
X153783561Y-89352247D01*
X153716693Y-89376106D01*
X153647541Y-89360025D01*
X153598061Y-89309111D01*
X153583500Y-89250311D01*
X153583500Y-88900000D01*
X157986496Y-88900000D01*
X157987186Y-88906565D01*
X157997510Y-89004788D01*
X158006458Y-89089928D01*
X158065473Y-89271556D01*
X158068776Y-89277278D01*
X158068777Y-89277279D01*
X158087023Y-89308882D01*
X158160960Y-89436944D01*
X158165378Y-89441851D01*
X158165379Y-89441852D01*
X158270092Y-89558148D01*
X158288747Y-89578866D01*
X158352059Y-89624865D01*
X158436946Y-89686539D01*
X158443248Y-89691118D01*
X158449276Y-89693802D01*
X158449278Y-89693803D01*
X158541200Y-89734729D01*
X158617712Y-89768794D01*
X158704009Y-89787137D01*
X158798056Y-89807128D01*
X158798061Y-89807128D01*
X158804513Y-89808500D01*
X158995487Y-89808500D01*
X159001939Y-89807128D01*
X159001944Y-89807128D01*
X159095991Y-89787137D01*
X159182288Y-89768794D01*
X159258800Y-89734729D01*
X159350722Y-89693803D01*
X159350724Y-89693802D01*
X159356752Y-89691118D01*
X159363055Y-89686539D01*
X159447941Y-89624865D01*
X159450324Y-89623134D01*
X161376500Y-89623134D01*
X161383255Y-89685316D01*
X161434385Y-89821705D01*
X161521739Y-89938261D01*
X161638295Y-90025615D01*
X161774684Y-90076745D01*
X161836866Y-90083500D01*
X162546388Y-90083500D01*
X162614509Y-90103502D01*
X162661002Y-90157158D01*
X162671106Y-90227432D01*
X162655507Y-90272500D01*
X162568777Y-90422721D01*
X162565473Y-90428444D01*
X162506458Y-90610072D01*
X162505768Y-90616633D01*
X162505768Y-90616635D01*
X162503118Y-90641852D01*
X162486496Y-90800000D01*
X162487186Y-90806565D01*
X162504320Y-90969583D01*
X162506458Y-90989928D01*
X162565473Y-91171556D01*
X162568776Y-91177278D01*
X162568777Y-91177279D01*
X162589021Y-91212342D01*
X162660960Y-91336944D01*
X162665378Y-91341851D01*
X162665379Y-91341852D01*
X162719882Y-91402384D01*
X162788747Y-91478866D01*
X162943248Y-91591118D01*
X162949276Y-91593802D01*
X162949278Y-91593803D01*
X163111681Y-91666109D01*
X163117712Y-91668794D01*
X163124173Y-91670167D01*
X163124178Y-91670169D01*
X163160095Y-91677804D01*
X163222569Y-91711532D01*
X163256890Y-91773682D01*
X163253731Y-91839984D01*
X163230958Y-91910072D01*
X163230268Y-91916633D01*
X163230268Y-91916635D01*
X163221242Y-92002517D01*
X163210996Y-92100000D01*
X163211686Y-92106565D01*
X163229462Y-92275691D01*
X163230958Y-92289928D01*
X163289973Y-92471556D01*
X163293276Y-92477278D01*
X163293277Y-92477279D01*
X163317160Y-92518645D01*
X163385460Y-92636944D01*
X163389878Y-92641851D01*
X163389879Y-92641852D01*
X163495714Y-92759394D01*
X163513247Y-92778866D01*
X163583093Y-92829612D01*
X163642635Y-92872872D01*
X163667748Y-92891118D01*
X163673776Y-92893802D01*
X163673778Y-92893803D01*
X163818945Y-92958435D01*
X163842212Y-92968794D01*
X163935612Y-92988647D01*
X164022556Y-93007128D01*
X164022561Y-93007128D01*
X164029013Y-93008500D01*
X164219987Y-93008500D01*
X164226439Y-93007128D01*
X164226444Y-93007128D01*
X164313388Y-92988647D01*
X164406788Y-92968794D01*
X164430055Y-92958435D01*
X164575222Y-92893803D01*
X164575224Y-92893802D01*
X164581252Y-92891118D01*
X164606366Y-92872872D01*
X164665907Y-92829612D01*
X164735753Y-92778866D01*
X164753286Y-92759394D01*
X164859121Y-92641852D01*
X164859122Y-92641851D01*
X164863540Y-92636944D01*
X164931840Y-92518645D01*
X164955723Y-92477279D01*
X164955724Y-92477278D01*
X164959027Y-92471556D01*
X165018042Y-92289928D01*
X165019539Y-92275691D01*
X165037314Y-92106565D01*
X165038004Y-92100000D01*
X165027758Y-92002517D01*
X165018732Y-91916635D01*
X165018732Y-91916633D01*
X165018042Y-91910072D01*
X164974499Y-91776062D01*
X176678493Y-91776062D01*
X176687789Y-91788077D01*
X176738994Y-91823931D01*
X176748489Y-91829414D01*
X176945947Y-91921490D01*
X176956239Y-91925236D01*
X177166688Y-91981625D01*
X177177481Y-91983528D01*
X177394525Y-92002517D01*
X177405475Y-92002517D01*
X177622519Y-91983528D01*
X177633312Y-91981625D01*
X177843761Y-91925236D01*
X177854053Y-91921490D01*
X178051511Y-91829414D01*
X178061006Y-91823931D01*
X178113048Y-91787491D01*
X178121424Y-91777012D01*
X178114356Y-91763566D01*
X177412812Y-91062022D01*
X177398868Y-91054408D01*
X177397035Y-91054539D01*
X177390420Y-91058790D01*
X176684923Y-91764287D01*
X176678493Y-91776062D01*
X164974499Y-91776062D01*
X164959027Y-91728444D01*
X164952712Y-91717505D01*
X164881292Y-91593803D01*
X164863540Y-91563056D01*
X164815686Y-91509908D01*
X164740175Y-91426045D01*
X164740174Y-91426044D01*
X164735753Y-91421134D01*
X164581252Y-91308882D01*
X164575224Y-91306198D01*
X164575222Y-91306197D01*
X164412819Y-91233891D01*
X164412818Y-91233891D01*
X164406788Y-91231206D01*
X164400327Y-91229833D01*
X164400322Y-91229831D01*
X164364405Y-91222196D01*
X164301931Y-91188468D01*
X164267610Y-91126318D01*
X164270769Y-91060016D01*
X164293542Y-90989928D01*
X164295681Y-90969583D01*
X164312814Y-90806565D01*
X164313504Y-90800000D01*
X164302518Y-90695475D01*
X176087483Y-90695475D01*
X176106472Y-90912519D01*
X176108375Y-90923312D01*
X176164764Y-91133761D01*
X176168510Y-91144053D01*
X176260586Y-91341511D01*
X176266069Y-91351006D01*
X176302509Y-91403048D01*
X176312988Y-91411424D01*
X176326434Y-91404356D01*
X177027978Y-90702812D01*
X177034356Y-90691132D01*
X177764408Y-90691132D01*
X177764539Y-90692965D01*
X177768790Y-90699580D01*
X178474287Y-91405077D01*
X178486062Y-91411507D01*
X178498077Y-91402211D01*
X178533931Y-91351006D01*
X178539414Y-91341511D01*
X178631490Y-91144053D01*
X178635236Y-91133761D01*
X178691625Y-90923312D01*
X178693528Y-90912519D01*
X178712517Y-90695475D01*
X178712517Y-90684525D01*
X178693528Y-90467481D01*
X178691625Y-90456688D01*
X178635236Y-90246239D01*
X178631490Y-90235947D01*
X178539414Y-90038489D01*
X178533931Y-90028994D01*
X178497491Y-89976952D01*
X178487012Y-89968576D01*
X178473566Y-89975644D01*
X177772022Y-90677188D01*
X177764408Y-90691132D01*
X177034356Y-90691132D01*
X177035592Y-90688868D01*
X177035461Y-90687035D01*
X177031210Y-90680420D01*
X176325713Y-89974923D01*
X176313938Y-89968493D01*
X176301923Y-89977789D01*
X176266069Y-90028994D01*
X176260586Y-90038489D01*
X176168510Y-90235947D01*
X176164764Y-90246239D01*
X176108375Y-90456688D01*
X176106472Y-90467481D01*
X176087483Y-90684525D01*
X176087483Y-90695475D01*
X164302518Y-90695475D01*
X164296882Y-90641852D01*
X164294232Y-90616635D01*
X164294232Y-90616633D01*
X164293542Y-90610072D01*
X164234527Y-90428444D01*
X164230019Y-90420635D01*
X164175145Y-90325592D01*
X164139040Y-90263056D01*
X164110505Y-90231364D01*
X164015675Y-90126045D01*
X164015674Y-90126044D01*
X164011253Y-90121134D01*
X163856752Y-90008882D01*
X163850724Y-90006198D01*
X163850722Y-90006197D01*
X163758337Y-89965065D01*
X163704241Y-89919085D01*
X163683592Y-89851158D01*
X163691604Y-89805731D01*
X163736745Y-89685316D01*
X163743500Y-89623134D01*
X171536500Y-89623134D01*
X171543255Y-89685316D01*
X171594385Y-89821705D01*
X171681739Y-89938261D01*
X171798295Y-90025615D01*
X171934684Y-90076745D01*
X171996866Y-90083500D01*
X173443134Y-90083500D01*
X173505316Y-90076745D01*
X173641705Y-90025615D01*
X173758261Y-89938261D01*
X173845615Y-89821705D01*
X173896745Y-89685316D01*
X173903500Y-89623134D01*
X173903500Y-89602988D01*
X176678576Y-89602988D01*
X176685644Y-89616434D01*
X177387188Y-90317978D01*
X177401132Y-90325592D01*
X177402965Y-90325461D01*
X177409580Y-90321210D01*
X178115077Y-89615713D01*
X178121507Y-89603938D01*
X178112211Y-89591923D01*
X178061006Y-89556069D01*
X178051511Y-89550586D01*
X177854053Y-89458510D01*
X177843761Y-89454764D01*
X177633312Y-89398375D01*
X177622519Y-89396472D01*
X177405475Y-89377483D01*
X177394525Y-89377483D01*
X177177481Y-89396472D01*
X177166688Y-89398375D01*
X176956239Y-89454764D01*
X176945947Y-89458510D01*
X176748489Y-89550586D01*
X176738994Y-89556069D01*
X176686952Y-89592509D01*
X176678576Y-89602988D01*
X173903500Y-89602988D01*
X173903500Y-88176866D01*
X173896745Y-88114684D01*
X173845615Y-87978295D01*
X173758261Y-87861739D01*
X173641705Y-87774385D01*
X173505316Y-87723255D01*
X173443134Y-87716500D01*
X171996866Y-87716500D01*
X171934684Y-87723255D01*
X171798295Y-87774385D01*
X171681739Y-87861739D01*
X171594385Y-87978295D01*
X171543255Y-88114684D01*
X171536500Y-88176866D01*
X171536500Y-89623134D01*
X163743500Y-89623134D01*
X163743500Y-88176866D01*
X163736745Y-88114684D01*
X163685615Y-87978295D01*
X163598261Y-87861739D01*
X163481705Y-87774385D01*
X163345316Y-87723255D01*
X163283134Y-87716500D01*
X161836866Y-87716500D01*
X161774684Y-87723255D01*
X161638295Y-87774385D01*
X161521739Y-87861739D01*
X161434385Y-87978295D01*
X161383255Y-88114684D01*
X161376500Y-88176866D01*
X161376500Y-89623134D01*
X159450324Y-89623134D01*
X159511253Y-89578866D01*
X159529908Y-89558148D01*
X159634621Y-89441852D01*
X159634622Y-89441851D01*
X159639040Y-89436944D01*
X159712977Y-89308882D01*
X159731223Y-89277279D01*
X159731224Y-89277278D01*
X159734527Y-89271556D01*
X159793542Y-89089928D01*
X159802491Y-89004788D01*
X159812814Y-88906565D01*
X159813504Y-88900000D01*
X159804995Y-88819040D01*
X159794232Y-88716635D01*
X159794232Y-88716633D01*
X159793542Y-88710072D01*
X159734527Y-88528444D01*
X159639040Y-88363056D01*
X159610298Y-88331134D01*
X159515675Y-88226045D01*
X159515674Y-88226044D01*
X159511253Y-88221134D01*
X159356752Y-88108882D01*
X159350724Y-88106198D01*
X159350722Y-88106197D01*
X159188319Y-88033891D01*
X159188318Y-88033891D01*
X159182288Y-88031206D01*
X159088887Y-88011353D01*
X159001944Y-87992872D01*
X159001939Y-87992872D01*
X158995487Y-87991500D01*
X158804513Y-87991500D01*
X158798061Y-87992872D01*
X158798056Y-87992872D01*
X158711112Y-88011353D01*
X158617712Y-88031206D01*
X158611682Y-88033891D01*
X158611681Y-88033891D01*
X158449278Y-88106197D01*
X158449276Y-88106198D01*
X158443248Y-88108882D01*
X158288747Y-88221134D01*
X158284326Y-88226044D01*
X158284325Y-88226045D01*
X158189703Y-88331134D01*
X158160960Y-88363056D01*
X158065473Y-88528444D01*
X158006458Y-88710072D01*
X158005768Y-88716633D01*
X158005768Y-88716635D01*
X157995005Y-88819040D01*
X157986496Y-88900000D01*
X153583500Y-88900000D01*
X153583500Y-88176866D01*
X153576745Y-88114684D01*
X153525615Y-87978295D01*
X153438261Y-87861739D01*
X153321705Y-87774385D01*
X153185316Y-87723255D01*
X153123134Y-87716500D01*
X151676866Y-87716500D01*
X151614684Y-87723255D01*
X151478295Y-87774385D01*
X151361739Y-87861739D01*
X151274385Y-87978295D01*
X151223255Y-88114684D01*
X151216500Y-88176866D01*
X151216500Y-88741511D01*
X151196498Y-88809632D01*
X151142842Y-88856125D01*
X151072568Y-88866229D01*
X151007988Y-88836735D01*
X150970667Y-88780447D01*
X150949933Y-88716635D01*
X150924527Y-88638444D01*
X150829040Y-88473056D01*
X150817917Y-88460702D01*
X150705675Y-88336045D01*
X150705674Y-88336044D01*
X150701253Y-88331134D01*
X150546752Y-88218882D01*
X150540724Y-88216198D01*
X150540722Y-88216197D01*
X150378319Y-88143891D01*
X150378318Y-88143891D01*
X150372288Y-88141206D01*
X150249837Y-88115178D01*
X150191944Y-88102872D01*
X150191939Y-88102872D01*
X150185487Y-88101500D01*
X149994513Y-88101500D01*
X149988061Y-88102872D01*
X149988056Y-88102872D01*
X149930163Y-88115178D01*
X149807712Y-88141206D01*
X149801682Y-88143891D01*
X149801681Y-88143891D01*
X149639278Y-88216197D01*
X149639276Y-88216198D01*
X149633248Y-88218882D01*
X149478747Y-88331134D01*
X149474326Y-88336044D01*
X149474325Y-88336045D01*
X149362084Y-88460702D01*
X149350960Y-88473056D01*
X149255473Y-88638444D01*
X149196458Y-88820072D01*
X149195768Y-88826633D01*
X149195768Y-88826635D01*
X149180710Y-88969908D01*
X149176496Y-89010000D01*
X143423500Y-89010000D01*
X143423500Y-88176866D01*
X143416745Y-88114684D01*
X143365615Y-87978295D01*
X143278261Y-87861739D01*
X143161705Y-87774385D01*
X143025316Y-87723255D01*
X142963134Y-87716500D01*
X141516866Y-87716500D01*
X141454684Y-87723255D01*
X141318295Y-87774385D01*
X141201739Y-87861739D01*
X141114385Y-87978295D01*
X141063255Y-88114684D01*
X141056500Y-88176866D01*
X141056500Y-89623134D01*
X133263500Y-89623134D01*
X133263500Y-88176866D01*
X133256745Y-88114684D01*
X133205615Y-87978295D01*
X133118261Y-87861739D01*
X133001705Y-87774385D01*
X132865316Y-87723255D01*
X132803134Y-87716500D01*
X131356866Y-87716500D01*
X131294684Y-87723255D01*
X131158295Y-87774385D01*
X131041739Y-87861739D01*
X130954385Y-87978295D01*
X130903255Y-88114684D01*
X130896500Y-88176866D01*
X130896500Y-89623134D01*
X123103500Y-89623134D01*
X123103500Y-88176866D01*
X123096745Y-88114684D01*
X123045615Y-87978295D01*
X122958261Y-87861739D01*
X122841705Y-87774385D01*
X122705316Y-87723255D01*
X122643134Y-87716500D01*
X121729828Y-87716500D01*
X121661707Y-87696498D01*
X121615214Y-87642842D01*
X121605110Y-87572568D01*
X121634604Y-87507988D01*
X121655767Y-87488564D01*
X121801409Y-87382749D01*
X121801411Y-87382747D01*
X121806753Y-87378866D01*
X121852810Y-87327715D01*
X121930121Y-87241852D01*
X121930122Y-87241851D01*
X121934540Y-87236944D01*
X122007377Y-87110787D01*
X122026723Y-87077279D01*
X122026724Y-87077278D01*
X122030027Y-87071556D01*
X122089042Y-86889928D01*
X122095357Y-86829849D01*
X122108314Y-86706565D01*
X122109004Y-86700000D01*
X122100582Y-86619865D01*
X122089732Y-86516635D01*
X122089732Y-86516633D01*
X122089042Y-86510072D01*
X122030027Y-86328444D01*
X121934540Y-86163056D01*
X121892743Y-86116635D01*
X121811175Y-86026045D01*
X121811174Y-86026044D01*
X121806753Y-86021134D01*
X121652252Y-85908882D01*
X121646224Y-85906198D01*
X121646222Y-85906197D01*
X121632303Y-85900000D01*
X123086496Y-85900000D01*
X123087186Y-85906565D01*
X123099228Y-86021134D01*
X123106458Y-86089928D01*
X123165473Y-86271556D01*
X123168776Y-86277278D01*
X123168777Y-86277279D01*
X123186803Y-86308500D01*
X123260960Y-86436944D01*
X123265378Y-86441851D01*
X123265379Y-86441852D01*
X123368267Y-86556121D01*
X123388747Y-86578866D01*
X123437105Y-86614000D01*
X123509212Y-86666389D01*
X123543248Y-86691118D01*
X123549276Y-86693802D01*
X123549278Y-86693803D01*
X123645717Y-86736740D01*
X123717712Y-86768794D01*
X123811112Y-86788647D01*
X123898056Y-86807128D01*
X123898061Y-86807128D01*
X123904513Y-86808500D01*
X124095487Y-86808500D01*
X124101939Y-86807128D01*
X124101944Y-86807128D01*
X124188888Y-86788647D01*
X124282288Y-86768794D01*
X124354283Y-86736740D01*
X124450722Y-86693803D01*
X124450724Y-86693802D01*
X124456752Y-86691118D01*
X124490789Y-86666389D01*
X124562895Y-86614000D01*
X124611253Y-86578866D01*
X124631733Y-86556121D01*
X124734621Y-86441852D01*
X124734622Y-86441851D01*
X124739040Y-86436944D01*
X124813197Y-86308500D01*
X124831223Y-86277279D01*
X124831224Y-86277278D01*
X124834527Y-86271556D01*
X124893542Y-86089928D01*
X124900773Y-86021134D01*
X124912814Y-85906565D01*
X124913504Y-85900000D01*
X124906129Y-85829834D01*
X124894232Y-85716635D01*
X124894232Y-85716633D01*
X124893542Y-85710072D01*
X124834527Y-85528444D01*
X124739040Y-85363056D01*
X124731216Y-85354366D01*
X124615675Y-85226045D01*
X124615674Y-85226044D01*
X124611253Y-85221134D01*
X124456752Y-85108882D01*
X124450724Y-85106198D01*
X124450722Y-85106197D01*
X124288319Y-85033891D01*
X124288318Y-85033891D01*
X124282288Y-85031206D01*
X124170300Y-85007402D01*
X124101944Y-84992872D01*
X124101939Y-84992872D01*
X124095487Y-84991500D01*
X123904513Y-84991500D01*
X123898061Y-84992872D01*
X123898056Y-84992872D01*
X123829700Y-85007402D01*
X123717712Y-85031206D01*
X123711682Y-85033891D01*
X123711681Y-85033891D01*
X123549278Y-85106197D01*
X123549276Y-85106198D01*
X123543248Y-85108882D01*
X123388747Y-85221134D01*
X123384326Y-85226044D01*
X123384325Y-85226045D01*
X123268785Y-85354366D01*
X123260960Y-85363056D01*
X123165473Y-85528444D01*
X123106458Y-85710072D01*
X123105768Y-85716633D01*
X123105768Y-85716635D01*
X123093871Y-85829834D01*
X123086496Y-85900000D01*
X121632303Y-85900000D01*
X121483819Y-85833891D01*
X121483818Y-85833891D01*
X121477788Y-85831206D01*
X121384388Y-85811353D01*
X121297444Y-85792872D01*
X121297439Y-85792872D01*
X121290987Y-85791500D01*
X121100013Y-85791500D01*
X121093561Y-85792872D01*
X121093556Y-85792872D01*
X120982238Y-85816534D01*
X120913212Y-85831206D01*
X120907183Y-85833890D01*
X120902933Y-85835271D01*
X120831966Y-85837297D01*
X120771168Y-85800634D01*
X120739844Y-85736921D01*
X120737999Y-85715437D01*
X120737999Y-85465331D01*
X120737629Y-85458510D01*
X120732105Y-85407648D01*
X120728479Y-85392396D01*
X120683324Y-85271946D01*
X120674786Y-85256351D01*
X120598285Y-85154276D01*
X120585724Y-85141715D01*
X120483649Y-85065214D01*
X120468054Y-85056676D01*
X120347606Y-85011522D01*
X120332351Y-85007895D01*
X120281486Y-85002369D01*
X120274672Y-85002000D01*
X119652115Y-85002000D01*
X119636876Y-85006475D01*
X119635671Y-85007865D01*
X119634000Y-85015548D01*
X119634000Y-86488000D01*
X119613998Y-86556121D01*
X119560342Y-86602614D01*
X119508000Y-86614000D01*
X118040116Y-86614000D01*
X118024877Y-86618475D01*
X118023672Y-86619865D01*
X118022001Y-86627548D01*
X118022001Y-87254669D01*
X118022371Y-87261490D01*
X118027895Y-87312352D01*
X118031521Y-87327604D01*
X118076676Y-87448054D01*
X118085214Y-87463649D01*
X118161715Y-87565724D01*
X118174276Y-87578285D01*
X118276351Y-87654786D01*
X118291946Y-87663324D01*
X118400827Y-87704142D01*
X118457591Y-87746784D01*
X118482291Y-87813345D01*
X118467083Y-87882694D01*
X118447691Y-87909175D01*
X118332387Y-88029834D01*
X118320629Y-88042138D01*
X118194743Y-88226680D01*
X118176781Y-88265376D01*
X118110217Y-88408777D01*
X118100688Y-88429305D01*
X118040989Y-88644570D01*
X118017251Y-88866695D01*
X118017548Y-88871848D01*
X118017548Y-88871851D01*
X118023011Y-88966590D01*
X118030110Y-89089715D01*
X118031247Y-89094761D01*
X118031248Y-89094767D01*
X118044442Y-89153310D01*
X118079222Y-89307639D01*
X118163266Y-89514616D01*
X118186084Y-89551852D01*
X118273072Y-89693803D01*
X118279987Y-89705088D01*
X118426250Y-89873938D01*
X118598126Y-90016632D01*
X118604282Y-90020229D01*
X118671445Y-90059476D01*
X118720169Y-90111114D01*
X118733240Y-90180897D01*
X118706509Y-90246669D01*
X118666055Y-90280027D01*
X118653607Y-90286507D01*
X118649474Y-90289610D01*
X118649471Y-90289612D01*
X118479100Y-90417530D01*
X118474965Y-90420635D01*
X118320629Y-90582138D01*
X118317715Y-90586410D01*
X118317714Y-90586411D01*
X118238311Y-90702812D01*
X118194743Y-90766680D01*
X118154816Y-90852695D01*
X118138783Y-90887237D01*
X118100688Y-90969305D01*
X118040989Y-91184570D01*
X118017251Y-91406695D01*
X118017548Y-91411848D01*
X118017548Y-91411851D01*
X118028039Y-91593803D01*
X118030110Y-91629715D01*
X118031247Y-91634761D01*
X118031248Y-91634767D01*
X118050155Y-91718660D01*
X118079222Y-91847639D01*
X118163266Y-92054616D01*
X118279987Y-92245088D01*
X118426250Y-92413938D01*
X118598126Y-92556632D01*
X118668595Y-92597811D01*
X118671445Y-92599476D01*
X118720169Y-92651114D01*
X118733240Y-92720897D01*
X118706509Y-92786669D01*
X118666055Y-92820027D01*
X118653607Y-92826507D01*
X118649474Y-92829610D01*
X118649471Y-92829612D01*
X118486636Y-92951872D01*
X118474965Y-92960635D01*
X118430535Y-93007128D01*
X118344412Y-93097251D01*
X118320629Y-93122138D01*
X118317715Y-93126410D01*
X118317714Y-93126411D01*
X118277041Y-93186035D01*
X118194743Y-93306680D01*
X118180202Y-93338006D01*
X118118806Y-93470274D01*
X118100688Y-93509305D01*
X118040989Y-93724570D01*
X118017251Y-93946695D01*
X118017548Y-93951848D01*
X118017548Y-93951851D01*
X118023202Y-94049908D01*
X118030110Y-94169715D01*
X118031247Y-94174761D01*
X118031248Y-94174767D01*
X118043693Y-94229987D01*
X118079222Y-94387639D01*
X118117461Y-94481811D01*
X118153725Y-94571118D01*
X118163266Y-94594616D01*
X118165965Y-94599020D01*
X118273072Y-94773803D01*
X118279987Y-94785088D01*
X118426250Y-94953938D01*
X118598126Y-95096632D01*
X118610357Y-95103779D01*
X118671445Y-95139476D01*
X118720169Y-95191114D01*
X118733240Y-95260897D01*
X118706509Y-95326669D01*
X118666055Y-95360027D01*
X118653607Y-95366507D01*
X118649474Y-95369610D01*
X118649471Y-95369612D01*
X118479100Y-95497530D01*
X118474965Y-95500635D01*
X118458736Y-95517618D01*
X118341376Y-95640428D01*
X118320629Y-95662138D01*
X118317715Y-95666410D01*
X118317714Y-95666411D01*
X118251284Y-95763794D01*
X118194743Y-95846680D01*
X118175441Y-95888263D01*
X118121099Y-96005334D01*
X118100688Y-96049305D01*
X118040989Y-96264570D01*
X118017251Y-96486695D01*
X118017548Y-96491848D01*
X118017548Y-96491851D01*
X118022841Y-96583648D01*
X118030110Y-96709715D01*
X118031247Y-96714761D01*
X118031248Y-96714767D01*
X118048369Y-96790735D01*
X118079222Y-96927639D01*
X118163266Y-97134616D01*
X118165965Y-97139020D01*
X118257421Y-97288263D01*
X118279987Y-97325088D01*
X118426250Y-97493938D01*
X118598126Y-97636632D01*
X118632518Y-97656729D01*
X118671445Y-97679476D01*
X118720169Y-97731114D01*
X118733240Y-97800897D01*
X118706509Y-97866669D01*
X118666055Y-97900027D01*
X118653607Y-97906507D01*
X118649474Y-97909610D01*
X118649471Y-97909612D01*
X118479100Y-98037530D01*
X118474965Y-98040635D01*
X118320629Y-98202138D01*
X118317715Y-98206410D01*
X118317714Y-98206411D01*
X118277455Y-98265428D01*
X118194743Y-98386680D01*
X118169635Y-98440771D01*
X118120646Y-98546310D01*
X118100688Y-98589305D01*
X118040989Y-98804570D01*
X118017251Y-99026695D01*
X118017548Y-99031848D01*
X118017548Y-99031851D01*
X118022942Y-99125395D01*
X118030110Y-99249715D01*
X118031247Y-99254761D01*
X118031248Y-99254767D01*
X118050713Y-99341135D01*
X118079222Y-99467639D01*
X118163266Y-99674616D01*
X118210580Y-99751826D01*
X118250673Y-99817251D01*
X118279987Y-99865088D01*
X118426250Y-100033938D01*
X118598126Y-100176632D01*
X118607966Y-100182382D01*
X118671445Y-100219476D01*
X118720169Y-100271114D01*
X118733240Y-100340897D01*
X118706509Y-100406669D01*
X118666055Y-100440027D01*
X118661739Y-100442274D01*
X118653607Y-100446507D01*
X118649474Y-100449610D01*
X118649471Y-100449612D01*
X118479100Y-100577530D01*
X118474965Y-100580635D01*
X118471393Y-100584373D01*
X118349386Y-100712046D01*
X118320629Y-100742138D01*
X118317715Y-100746410D01*
X118317714Y-100746411D01*
X118257277Y-100835008D01*
X118194743Y-100926680D01*
X118175204Y-100968774D01*
X118106731Y-101116287D01*
X118100688Y-101129305D01*
X118080158Y-101203334D01*
X118043720Y-101334724D01*
X118040989Y-101344570D01*
X118017251Y-101566695D01*
X118017548Y-101571848D01*
X118017548Y-101571851D01*
X118022935Y-101665271D01*
X118030110Y-101789715D01*
X118031247Y-101794761D01*
X118031248Y-101794767D01*
X118047441Y-101866618D01*
X118079222Y-102007639D01*
X118117461Y-102101811D01*
X118160783Y-102208500D01*
X118163266Y-102214616D01*
X118207768Y-102287237D01*
X118239577Y-102339144D01*
X118279987Y-102405088D01*
X118426250Y-102573938D01*
X118598126Y-102716632D01*
X118668595Y-102757811D01*
X118671445Y-102759476D01*
X118720169Y-102811114D01*
X118733240Y-102880897D01*
X118706509Y-102946669D01*
X118666055Y-102980027D01*
X118653607Y-102986507D01*
X118649474Y-102989610D01*
X118649471Y-102989612D01*
X118546906Y-103066620D01*
X118474965Y-103120635D01*
X118320629Y-103282138D01*
X118317715Y-103286410D01*
X118317714Y-103286411D01*
X118281269Y-103339837D01*
X118194743Y-103466680D01*
X118100688Y-103669305D01*
X118040989Y-103884570D01*
X118017251Y-104106695D01*
X118017548Y-104111848D01*
X118017548Y-104111851D01*
X118028039Y-104293803D01*
X118030110Y-104329715D01*
X118031247Y-104334761D01*
X118031248Y-104334767D01*
X118047556Y-104407128D01*
X118079222Y-104547639D01*
X118117461Y-104641811D01*
X118160498Y-104747798D01*
X118163266Y-104754616D01*
X118165965Y-104759020D01*
X118269788Y-104928444D01*
X118279987Y-104945088D01*
X118426250Y-105113938D01*
X118598126Y-105256632D01*
X118791000Y-105369338D01*
X118999692Y-105449030D01*
X119004760Y-105450061D01*
X119004763Y-105450062D01*
X119110410Y-105471556D01*
X119218597Y-105493567D01*
X119223772Y-105493757D01*
X119223774Y-105493757D01*
X119436673Y-105501564D01*
X119436677Y-105501564D01*
X119441837Y-105501753D01*
X119446957Y-105501097D01*
X119446959Y-105501097D01*
X119658288Y-105474025D01*
X119658289Y-105474025D01*
X119663416Y-105473368D01*
X119669456Y-105471556D01*
X119872429Y-105410661D01*
X119872434Y-105410659D01*
X119877384Y-105409174D01*
X120077994Y-105310896D01*
X120259860Y-105181173D01*
X120263517Y-105177529D01*
X120263524Y-105177523D01*
X120286035Y-105155091D01*
X120348407Y-105121176D01*
X120419213Y-105126365D01*
X120475974Y-105169012D01*
X120500283Y-105231172D01*
X120506458Y-105289928D01*
X120565473Y-105471556D01*
X120568776Y-105477278D01*
X120568777Y-105477279D01*
X120582798Y-105501564D01*
X120660960Y-105636944D01*
X120708090Y-105689287D01*
X120738806Y-105753293D01*
X120730042Y-105823747D01*
X120684580Y-105878278D01*
X120614453Y-105899596D01*
X109370194Y-105899596D01*
X109302073Y-105879594D01*
X109255580Y-105825938D01*
X109244194Y-105773596D01*
X109244194Y-104110000D01*
X109786835Y-104110000D01*
X109805465Y-104346711D01*
X109806619Y-104351518D01*
X109806620Y-104351524D01*
X109826395Y-104433891D01*
X109860895Y-104577594D01*
X109862788Y-104582165D01*
X109862789Y-104582167D01*
X109940084Y-104768774D01*
X109951760Y-104796963D01*
X109954346Y-104801183D01*
X110073241Y-104995202D01*
X110073245Y-104995208D01*
X110075824Y-104999416D01*
X110230031Y-105179969D01*
X110410584Y-105334176D01*
X110414792Y-105336755D01*
X110414798Y-105336759D01*
X110591761Y-105445202D01*
X110613037Y-105458240D01*
X110617607Y-105460133D01*
X110617611Y-105460135D01*
X110718087Y-105501753D01*
X110832406Y-105549105D01*
X110912609Y-105568360D01*
X111058476Y-105603380D01*
X111058482Y-105603381D01*
X111063289Y-105604535D01*
X111300000Y-105623165D01*
X111536711Y-105604535D01*
X111541518Y-105603381D01*
X111541524Y-105603380D01*
X111687391Y-105568360D01*
X111767594Y-105549105D01*
X111881913Y-105501753D01*
X111982389Y-105460135D01*
X111982393Y-105460133D01*
X111986963Y-105458240D01*
X112008239Y-105445202D01*
X112185202Y-105336759D01*
X112185208Y-105336755D01*
X112189416Y-105334176D01*
X112369969Y-105179969D01*
X112524176Y-104999416D01*
X112526755Y-104995208D01*
X112526759Y-104995202D01*
X112645654Y-104801183D01*
X112648240Y-104796963D01*
X112659917Y-104768774D01*
X112737211Y-104582167D01*
X112737212Y-104582165D01*
X112739105Y-104577594D01*
X112773605Y-104433891D01*
X112793380Y-104351524D01*
X112793381Y-104351518D01*
X112794535Y-104346711D01*
X112813165Y-104110000D01*
X112794535Y-103873289D01*
X112792611Y-103865271D01*
X112748938Y-103683365D01*
X112739105Y-103642406D01*
X112691336Y-103527080D01*
X112650135Y-103427611D01*
X112650133Y-103427607D01*
X112648240Y-103423037D01*
X112645588Y-103418709D01*
X112526759Y-103224798D01*
X112526755Y-103224792D01*
X112524176Y-103220584D01*
X112369969Y-103040031D01*
X112189416Y-102885824D01*
X112185208Y-102883245D01*
X112185202Y-102883241D01*
X111991183Y-102764346D01*
X111986963Y-102761760D01*
X111982393Y-102759867D01*
X111982389Y-102759865D01*
X111772167Y-102672789D01*
X111772165Y-102672788D01*
X111767594Y-102670895D01*
X111687391Y-102651640D01*
X111541524Y-102616620D01*
X111541518Y-102616619D01*
X111536711Y-102615465D01*
X111300000Y-102596835D01*
X111063289Y-102615465D01*
X111058482Y-102616619D01*
X111058476Y-102616620D01*
X110912609Y-102651640D01*
X110832406Y-102670895D01*
X110827835Y-102672788D01*
X110827833Y-102672789D01*
X110617611Y-102759865D01*
X110617607Y-102759867D01*
X110613037Y-102761760D01*
X110608817Y-102764346D01*
X110414798Y-102883241D01*
X110414792Y-102883245D01*
X110410584Y-102885824D01*
X110230031Y-103040031D01*
X110075824Y-103220584D01*
X110073245Y-103224792D01*
X110073241Y-103224798D01*
X109954412Y-103418709D01*
X109951760Y-103423037D01*
X109949867Y-103427607D01*
X109949865Y-103427611D01*
X109908664Y-103527080D01*
X109860895Y-103642406D01*
X109851062Y-103683365D01*
X109807390Y-103865271D01*
X109805465Y-103873289D01*
X109786835Y-104110000D01*
X109244194Y-104110000D01*
X109244194Y-100999270D01*
X110432160Y-100999270D01*
X110437887Y-101006920D01*
X110609042Y-101111805D01*
X110617837Y-101116287D01*
X110827988Y-101203334D01*
X110837373Y-101206383D01*
X111058554Y-101259485D01*
X111068301Y-101261028D01*
X111295070Y-101278875D01*
X111304930Y-101278875D01*
X111531699Y-101261028D01*
X111541446Y-101259485D01*
X111762627Y-101206383D01*
X111772012Y-101203334D01*
X111982163Y-101116287D01*
X111990958Y-101111805D01*
X112158445Y-101009168D01*
X112167907Y-100998710D01*
X112164124Y-100989934D01*
X111312812Y-100138622D01*
X111298868Y-100131008D01*
X111297035Y-100131139D01*
X111290420Y-100135390D01*
X110438920Y-100986890D01*
X110432160Y-100999270D01*
X109244194Y-100999270D01*
X109244194Y-99771530D01*
X109787725Y-99771530D01*
X109805572Y-99998299D01*
X109807115Y-100008046D01*
X109860217Y-100229227D01*
X109863266Y-100238612D01*
X109950313Y-100448763D01*
X109954795Y-100457558D01*
X110057432Y-100625045D01*
X110067890Y-100634507D01*
X110076666Y-100630724D01*
X110927978Y-99779412D01*
X110934356Y-99767732D01*
X111664408Y-99767732D01*
X111664539Y-99769565D01*
X111668790Y-99776180D01*
X112520290Y-100627680D01*
X112532670Y-100634440D01*
X112540320Y-100628713D01*
X112645205Y-100457558D01*
X112649687Y-100448763D01*
X112736734Y-100238612D01*
X112739783Y-100229227D01*
X112792885Y-100008046D01*
X112794428Y-99998299D01*
X112812275Y-99771530D01*
X112812275Y-99761670D01*
X112794428Y-99534901D01*
X112792885Y-99525154D01*
X112739783Y-99303973D01*
X112736734Y-99294588D01*
X112649687Y-99084437D01*
X112645205Y-99075642D01*
X112542568Y-98908155D01*
X112532110Y-98898693D01*
X112523334Y-98902476D01*
X111672022Y-99753788D01*
X111664408Y-99767732D01*
X110934356Y-99767732D01*
X110935592Y-99765468D01*
X110935461Y-99763635D01*
X110931210Y-99757020D01*
X110079710Y-98905520D01*
X110067330Y-98898760D01*
X110059680Y-98904487D01*
X109954795Y-99075642D01*
X109950313Y-99084437D01*
X109863266Y-99294588D01*
X109860217Y-99303973D01*
X109807115Y-99525154D01*
X109805572Y-99534901D01*
X109787725Y-99761670D01*
X109787725Y-99771530D01*
X109244194Y-99771530D01*
X109244194Y-98534490D01*
X110432093Y-98534490D01*
X110435876Y-98543266D01*
X111287188Y-99394578D01*
X111301132Y-99402192D01*
X111302965Y-99402061D01*
X111309580Y-99397810D01*
X112161080Y-98546310D01*
X112167840Y-98533930D01*
X112162113Y-98526280D01*
X111990958Y-98421395D01*
X111982163Y-98416913D01*
X111772012Y-98329866D01*
X111762627Y-98326817D01*
X111541446Y-98273715D01*
X111531699Y-98272172D01*
X111304930Y-98254325D01*
X111295070Y-98254325D01*
X111068301Y-98272172D01*
X111058554Y-98273715D01*
X110837373Y-98326817D01*
X110827988Y-98329866D01*
X110617837Y-98416913D01*
X110609042Y-98421395D01*
X110441555Y-98524032D01*
X110432093Y-98534490D01*
X109244194Y-98534490D01*
X109244194Y-95296200D01*
X109786835Y-95296200D01*
X109805465Y-95532911D01*
X109806619Y-95537718D01*
X109806620Y-95537724D01*
X109837085Y-95664617D01*
X109860895Y-95763794D01*
X109862788Y-95768365D01*
X109862789Y-95768367D01*
X109912428Y-95888206D01*
X109951760Y-95983163D01*
X109954346Y-95987383D01*
X110073241Y-96181402D01*
X110073245Y-96181408D01*
X110075824Y-96185616D01*
X110230031Y-96366169D01*
X110410584Y-96520376D01*
X110414792Y-96522955D01*
X110414798Y-96522959D01*
X110536151Y-96597324D01*
X110613037Y-96644440D01*
X110617607Y-96646333D01*
X110617611Y-96646335D01*
X110810050Y-96726045D01*
X110832406Y-96735305D01*
X110912609Y-96754560D01*
X111058476Y-96789580D01*
X111058482Y-96789581D01*
X111063289Y-96790735D01*
X111300000Y-96809365D01*
X111536711Y-96790735D01*
X111541518Y-96789581D01*
X111541524Y-96789580D01*
X111687391Y-96754560D01*
X111767594Y-96735305D01*
X111789950Y-96726045D01*
X111982389Y-96646335D01*
X111982393Y-96646333D01*
X111986963Y-96644440D01*
X112063849Y-96597324D01*
X112185202Y-96522959D01*
X112185208Y-96522955D01*
X112189416Y-96520376D01*
X112369969Y-96366169D01*
X112524176Y-96185616D01*
X112526755Y-96181408D01*
X112526759Y-96181402D01*
X112645654Y-95987383D01*
X112648240Y-95983163D01*
X112687573Y-95888206D01*
X112737211Y-95768367D01*
X112737212Y-95768365D01*
X112739105Y-95763794D01*
X112762915Y-95664617D01*
X112793380Y-95537724D01*
X112793381Y-95537718D01*
X112794535Y-95532911D01*
X112813165Y-95296200D01*
X112794535Y-95059489D01*
X112785337Y-95021173D01*
X112748109Y-94866109D01*
X112739105Y-94828606D01*
X112737211Y-94824033D01*
X112650135Y-94613811D01*
X112650133Y-94613807D01*
X112648240Y-94609237D01*
X112607878Y-94543372D01*
X112526759Y-94410998D01*
X112526755Y-94410992D01*
X112524176Y-94406784D01*
X112369969Y-94226231D01*
X112189416Y-94072024D01*
X112185208Y-94069445D01*
X112185202Y-94069441D01*
X111991183Y-93950546D01*
X111986963Y-93947960D01*
X111982393Y-93946067D01*
X111982389Y-93946065D01*
X111772167Y-93858989D01*
X111772165Y-93858988D01*
X111767594Y-93857095D01*
X111687391Y-93837840D01*
X111541524Y-93802820D01*
X111541518Y-93802819D01*
X111536711Y-93801665D01*
X111300000Y-93783035D01*
X111063289Y-93801665D01*
X111058482Y-93802819D01*
X111058476Y-93802820D01*
X110912609Y-93837840D01*
X110832406Y-93857095D01*
X110827835Y-93858988D01*
X110827833Y-93858989D01*
X110617611Y-93946065D01*
X110617607Y-93946067D01*
X110613037Y-93947960D01*
X110608817Y-93950546D01*
X110414798Y-94069441D01*
X110414792Y-94069445D01*
X110410584Y-94072024D01*
X110230031Y-94226231D01*
X110075824Y-94406784D01*
X110073245Y-94410992D01*
X110073241Y-94410998D01*
X109992122Y-94543372D01*
X109951760Y-94609237D01*
X109949867Y-94613807D01*
X109949865Y-94613811D01*
X109862789Y-94824033D01*
X109860895Y-94828606D01*
X109851891Y-94866109D01*
X109814664Y-95021173D01*
X109805465Y-95059489D01*
X109786835Y-95296200D01*
X109244194Y-95296200D01*
X109244194Y-87041200D01*
X109888435Y-87041200D01*
X109907065Y-87277911D01*
X109908219Y-87282718D01*
X109908220Y-87282724D01*
X109918995Y-87327604D01*
X109962495Y-87508794D01*
X109964388Y-87513365D01*
X109964389Y-87513367D01*
X110050974Y-87722402D01*
X110053360Y-87728163D01*
X110055946Y-87732383D01*
X110174841Y-87926402D01*
X110174845Y-87926408D01*
X110177424Y-87930616D01*
X110291729Y-88064450D01*
X110327385Y-88106197D01*
X110331631Y-88111169D01*
X110335387Y-88114377D01*
X110336325Y-88115178D01*
X110512184Y-88265376D01*
X110516392Y-88267955D01*
X110516398Y-88267959D01*
X110663573Y-88358148D01*
X110714637Y-88389440D01*
X110719207Y-88391333D01*
X110719211Y-88391335D01*
X110898794Y-88465720D01*
X110934006Y-88480305D01*
X111164889Y-88535735D01*
X111169811Y-88536122D01*
X111173849Y-88536762D01*
X111238002Y-88567175D01*
X111275527Y-88627444D01*
X111274512Y-88698433D01*
X111235278Y-88757605D01*
X111182201Y-88781831D01*
X111182689Y-88783865D01*
X110951806Y-88839295D01*
X110947235Y-88841188D01*
X110947233Y-88841189D01*
X110737011Y-88928265D01*
X110737007Y-88928267D01*
X110732437Y-88930160D01*
X110728217Y-88932746D01*
X110534198Y-89051641D01*
X110534192Y-89051645D01*
X110529984Y-89054224D01*
X110349431Y-89208431D01*
X110195224Y-89388984D01*
X110192645Y-89393192D01*
X110192641Y-89393198D01*
X110076484Y-89582749D01*
X110071160Y-89591437D01*
X110069267Y-89596007D01*
X110069265Y-89596011D01*
X109983196Y-89803803D01*
X109980295Y-89810806D01*
X109975953Y-89828891D01*
X109927913Y-90028994D01*
X109924865Y-90041689D01*
X109906235Y-90278400D01*
X109924865Y-90515111D01*
X109926019Y-90519918D01*
X109926020Y-90519924D01*
X109946156Y-90603794D01*
X109980295Y-90745994D01*
X109982188Y-90750565D01*
X109982189Y-90750567D01*
X110024492Y-90852695D01*
X110071160Y-90965363D01*
X110073746Y-90969583D01*
X110192641Y-91163602D01*
X110192645Y-91163608D01*
X110195224Y-91167816D01*
X110349431Y-91348369D01*
X110529984Y-91502576D01*
X110534192Y-91505155D01*
X110534198Y-91505159D01*
X110696858Y-91604837D01*
X110732437Y-91626640D01*
X110737007Y-91628533D01*
X110737011Y-91628535D01*
X110947233Y-91715611D01*
X110951806Y-91717505D01*
X111016443Y-91733023D01*
X111177876Y-91771780D01*
X111177882Y-91771781D01*
X111182689Y-91772935D01*
X111419400Y-91791565D01*
X111656111Y-91772935D01*
X111660918Y-91771781D01*
X111660924Y-91771780D01*
X111822357Y-91733023D01*
X111886994Y-91717505D01*
X111891567Y-91715611D01*
X112101789Y-91628535D01*
X112101793Y-91628533D01*
X112106363Y-91626640D01*
X112141942Y-91604837D01*
X112304602Y-91505159D01*
X112304608Y-91505155D01*
X112308816Y-91502576D01*
X112489369Y-91348369D01*
X112643576Y-91167816D01*
X112646155Y-91163608D01*
X112646159Y-91163602D01*
X112765054Y-90969583D01*
X112767640Y-90965363D01*
X112814309Y-90852695D01*
X112856611Y-90750567D01*
X112856612Y-90750565D01*
X112858505Y-90745994D01*
X112892644Y-90603794D01*
X112912780Y-90519924D01*
X112912781Y-90519918D01*
X112913935Y-90515111D01*
X112932565Y-90278400D01*
X112913935Y-90041689D01*
X112910888Y-90028994D01*
X112862847Y-89828891D01*
X112858505Y-89810806D01*
X112855605Y-89803803D01*
X112769535Y-89596011D01*
X112769533Y-89596007D01*
X112767640Y-89591437D01*
X112762316Y-89582749D01*
X112646159Y-89393198D01*
X112646155Y-89393192D01*
X112643576Y-89388984D01*
X112489369Y-89208431D01*
X112308816Y-89054224D01*
X112304608Y-89051645D01*
X112304602Y-89051641D01*
X112110583Y-88932746D01*
X112106363Y-88930160D01*
X112101793Y-88928267D01*
X112101789Y-88928265D01*
X111891567Y-88841189D01*
X111891565Y-88841188D01*
X111886994Y-88839295D01*
X111656111Y-88783865D01*
X111651189Y-88783478D01*
X111647151Y-88782838D01*
X111582998Y-88752425D01*
X111545473Y-88692156D01*
X111546488Y-88621167D01*
X111585722Y-88561995D01*
X111638799Y-88537769D01*
X111638311Y-88535735D01*
X111704956Y-88519735D01*
X111869194Y-88480305D01*
X111904406Y-88465720D01*
X112083989Y-88391335D01*
X112083993Y-88391333D01*
X112088563Y-88389440D01*
X112139627Y-88358148D01*
X112286802Y-88267959D01*
X112286808Y-88267955D01*
X112291016Y-88265376D01*
X112466875Y-88115178D01*
X112467813Y-88114377D01*
X112471569Y-88111169D01*
X112475816Y-88106197D01*
X112511471Y-88064450D01*
X112625776Y-87930616D01*
X112628355Y-87926408D01*
X112628359Y-87926402D01*
X112747254Y-87732383D01*
X112749840Y-87728163D01*
X112752227Y-87722402D01*
X112838811Y-87513367D01*
X112838812Y-87513365D01*
X112840705Y-87508794D01*
X112884205Y-87327604D01*
X112894980Y-87282724D01*
X112894981Y-87282718D01*
X112896135Y-87277911D01*
X112914765Y-87041200D01*
X112896135Y-86804489D01*
X112887566Y-86768794D01*
X112841860Y-86578418D01*
X112840705Y-86573606D01*
X112749840Y-86354237D01*
X112742195Y-86341762D01*
X112628359Y-86155998D01*
X112628355Y-86155992D01*
X112625776Y-86151784D01*
X112571201Y-86087885D01*
X118022000Y-86087885D01*
X118026475Y-86103124D01*
X118027865Y-86104329D01*
X118035548Y-86106000D01*
X119107885Y-86106000D01*
X119123124Y-86101525D01*
X119124329Y-86100135D01*
X119126000Y-86092452D01*
X119126000Y-85020116D01*
X119121525Y-85004877D01*
X119120135Y-85003672D01*
X119112452Y-85002001D01*
X118485331Y-85002001D01*
X118478510Y-85002371D01*
X118427648Y-85007895D01*
X118412396Y-85011521D01*
X118291946Y-85056676D01*
X118276351Y-85065214D01*
X118174276Y-85141715D01*
X118161715Y-85154276D01*
X118085214Y-85256351D01*
X118076676Y-85271946D01*
X118031522Y-85392394D01*
X118027895Y-85407649D01*
X118022369Y-85458514D01*
X118022000Y-85465328D01*
X118022000Y-86087885D01*
X112571201Y-86087885D01*
X112471569Y-85971231D01*
X112291016Y-85817024D01*
X112286808Y-85814445D01*
X112286802Y-85814441D01*
X112092783Y-85695546D01*
X112088563Y-85692960D01*
X112083993Y-85691067D01*
X112083989Y-85691065D01*
X111873767Y-85603989D01*
X111873765Y-85603988D01*
X111869194Y-85602095D01*
X111788108Y-85582628D01*
X111643124Y-85547820D01*
X111643118Y-85547819D01*
X111638311Y-85546665D01*
X111401600Y-85528035D01*
X111164889Y-85546665D01*
X111160082Y-85547819D01*
X111160076Y-85547820D01*
X111015092Y-85582628D01*
X110934006Y-85602095D01*
X110929435Y-85603988D01*
X110929433Y-85603989D01*
X110719211Y-85691065D01*
X110719207Y-85691067D01*
X110714637Y-85692960D01*
X110710417Y-85695546D01*
X110516398Y-85814441D01*
X110516392Y-85814445D01*
X110512184Y-85817024D01*
X110331631Y-85971231D01*
X110177424Y-86151784D01*
X110174845Y-86155992D01*
X110174841Y-86155998D01*
X110061005Y-86341762D01*
X110053360Y-86354237D01*
X109962495Y-86573606D01*
X109961340Y-86578418D01*
X109915635Y-86768794D01*
X109907065Y-86804489D01*
X109888435Y-87041200D01*
X109244194Y-87041200D01*
X109244194Y-84555954D01*
X109264196Y-84487833D01*
X109317852Y-84441340D01*
X109370194Y-84429954D01*
X131468012Y-84429954D01*
X131536133Y-84449956D01*
G37*
G04 #@! TD.AperFunction*
M02*
