G04 #@! TF.GenerationSoftware,KiCad,Pcbnew,6.0.9-8da3e8f707~116~ubuntu20.04.1*
G04 #@! TF.CreationDate,2022-11-07T18:31:13+00:00*
G04 #@! TF.ProjectId,slrm,736c726d-2e6b-4696-9361-645f70636258,rev?*
G04 #@! TF.SameCoordinates,Original*
G04 #@! TF.FileFunction,Copper,L2,Inr*
G04 #@! TF.FilePolarity,Positive*
%FSLAX46Y46*%
G04 Gerber Fmt 4.6, Leading zero omitted, Abs format (unit mm)*
G04 Created by KiCad (PCBNEW 6.0.9-8da3e8f707~116~ubuntu20.04.1) date 2022-11-07 18:31:13*
%MOMM*%
%LPD*%
G01*
G04 APERTURE LIST*
G04 #@! TA.AperFunction,ComponentPad*
%ADD10C,2.000000*%
G04 #@! TD*
G04 #@! TA.AperFunction,ComponentPad*
%ADD11R,1.350000X1.350000*%
G04 #@! TD*
G04 #@! TA.AperFunction,ComponentPad*
%ADD12C,1.600000*%
G04 #@! TD*
G04 #@! TA.AperFunction,ComponentPad*
%ADD13R,1.700000X1.700000*%
G04 #@! TD*
G04 #@! TA.AperFunction,ComponentPad*
%ADD14O,1.700000X1.700000*%
G04 #@! TD*
G04 #@! TA.AperFunction,ComponentPad*
%ADD15O,1.600000X1.600000*%
G04 #@! TD*
G04 #@! TA.AperFunction,ViaPad*
%ADD16C,0.800000*%
G04 #@! TD*
G04 APERTURE END LIST*
D10*
X188282400Y-88177000D03*
X188307800Y-92291800D03*
X188257000Y-96355800D03*
X188130000Y-104560000D03*
X188079200Y-100470600D03*
X111419400Y-90278400D03*
X111401600Y-87041200D03*
X111300000Y-95296200D03*
X111300000Y-99766600D03*
X111300000Y-104110000D03*
D11*
X121920000Y-88900000D03*
X162560000Y-88900000D03*
D12*
X177400000Y-85690000D03*
X177400000Y-90690000D03*
D11*
X142240000Y-88900000D03*
D13*
X119380000Y-86360000D03*
D14*
X119380000Y-88900000D03*
X119380000Y-91440000D03*
X119380000Y-93980000D03*
X119380000Y-96520000D03*
X119380000Y-99060000D03*
X119380000Y-101600000D03*
X119380000Y-104140000D03*
D12*
X162585400Y-85826600D03*
D15*
X172745400Y-85826600D03*
D13*
X182880000Y-86360000D03*
D14*
X182880000Y-88900000D03*
X182880000Y-91440000D03*
X182880000Y-93980000D03*
X182880000Y-96520000D03*
X182880000Y-99060000D03*
X182880000Y-101600000D03*
X182880000Y-104140000D03*
D11*
X132080000Y-88900000D03*
X172720000Y-88900000D03*
X152400000Y-88900000D03*
D16*
X138585685Y-104205946D03*
X176700000Y-103500000D03*
X140350000Y-92650000D03*
X135320000Y-95750000D03*
X179000000Y-99000000D03*
X174040000Y-104630000D03*
X150100000Y-90200000D03*
X140500000Y-104200000D03*
X123000000Y-93980000D03*
X166180000Y-97780000D03*
X160500000Y-103600000D03*
X121195500Y-86700000D03*
X154300000Y-90100000D03*
X137000000Y-95451000D03*
X144900000Y-95451000D03*
X137000000Y-93980000D03*
X124900000Y-93980000D03*
X128700000Y-98800000D03*
X152200000Y-98500000D03*
X127482600Y-98075500D03*
X148800000Y-97575500D03*
X127500000Y-99524500D03*
X121400000Y-105100000D03*
X125345059Y-100249000D03*
X143800000Y-105300000D03*
X155100000Y-86300000D03*
X124000000Y-85900000D03*
X156300000Y-85400000D03*
X132100000Y-85375500D03*
X157700000Y-84700000D03*
X142300000Y-84675500D03*
X158900000Y-88900000D03*
X162600000Y-101300000D03*
X157700000Y-101500000D03*
X163400000Y-90800000D03*
X156500000Y-100500000D03*
X163400000Y-100500000D03*
X155200000Y-99500000D03*
X164124500Y-99500000D03*
X164124500Y-92100000D03*
X143700000Y-94000000D03*
X175300000Y-94000000D03*
X138000000Y-93192600D03*
X138000000Y-94726500D03*
X132537200Y-93141800D03*
X141000000Y-94726500D03*
X129921000Y-97325500D03*
X147818154Y-97125500D03*
X130885397Y-96875500D03*
X146710400Y-96675500D03*
X179000000Y-97400000D03*
X179000000Y-95450500D03*
X174600000Y-99800000D03*
X122402600Y-100973500D03*
X146300000Y-101800000D03*
X124383800Y-100973500D03*
X126200000Y-101075500D03*
X147600000Y-101500000D03*
X148900000Y-101500000D03*
X127700000Y-100625500D03*
X150100000Y-101500000D03*
X128700000Y-100175500D03*
X129900000Y-99725500D03*
X151400000Y-101500000D03*
X152600000Y-101500000D03*
X131300000Y-99275500D03*
X153900000Y-101500000D03*
X132500000Y-98825500D03*
X168940000Y-93780000D03*
X152560000Y-94001500D03*
X150090000Y-89010000D03*
G04 #@! TA.AperFunction,Conductor*
G36*
X141979515Y-83951956D02*
G01*
X142026008Y-84005612D01*
X142036112Y-84075886D01*
X142006618Y-84140466D01*
X141988100Y-84157916D01*
X141871718Y-84247218D01*
X141775464Y-84372659D01*
X141714956Y-84518738D01*
X141694318Y-84675500D01*
X141714956Y-84832262D01*
X141775464Y-84978341D01*
X141871718Y-85103782D01*
X141878264Y-85108805D01*
X141895116Y-85121736D01*
X141997159Y-85200036D01*
X142143238Y-85260544D01*
X142300000Y-85281182D01*
X142308188Y-85280104D01*
X142448574Y-85261622D01*
X142456762Y-85260544D01*
X142602841Y-85200036D01*
X142704884Y-85121736D01*
X142721736Y-85108805D01*
X142728282Y-85103782D01*
X142824536Y-84978341D01*
X142885044Y-84832262D01*
X142905682Y-84675500D01*
X142885044Y-84518738D01*
X142824536Y-84372659D01*
X142728282Y-84247218D01*
X142611902Y-84157916D01*
X142570035Y-84100579D01*
X142565813Y-84029708D01*
X142600577Y-83967805D01*
X142663289Y-83934524D01*
X142688606Y-83931954D01*
X157351599Y-83931954D01*
X157419720Y-83951956D01*
X157466213Y-84005612D01*
X157476317Y-84075886D01*
X157446823Y-84140466D01*
X157410899Y-84166372D01*
X157411940Y-84168175D01*
X157404789Y-84172303D01*
X157397159Y-84175464D01*
X157271718Y-84271718D01*
X157175464Y-84397159D01*
X157114956Y-84543238D01*
X157094318Y-84700000D01*
X157095396Y-84708188D01*
X157112901Y-84841149D01*
X157114956Y-84856762D01*
X157175464Y-85002841D01*
X157271718Y-85128282D01*
X157278264Y-85133305D01*
X157307918Y-85156059D01*
X157397159Y-85224536D01*
X157543238Y-85285044D01*
X157551426Y-85286122D01*
X157613681Y-85294318D01*
X157700000Y-85305682D01*
X157708188Y-85304604D01*
X157848574Y-85286122D01*
X157856762Y-85285044D01*
X158002841Y-85224536D01*
X158092082Y-85156059D01*
X158121736Y-85133305D01*
X158128282Y-85128282D01*
X158224536Y-85002841D01*
X158285044Y-84856762D01*
X158287100Y-84841149D01*
X158304604Y-84708188D01*
X158305682Y-84700000D01*
X158285044Y-84543238D01*
X158224536Y-84397159D01*
X158128282Y-84271718D01*
X158002841Y-84175464D01*
X157995211Y-84172303D01*
X157988060Y-84168175D01*
X157989471Y-84165731D01*
X157944902Y-84129814D01*
X157922481Y-84062450D01*
X157940040Y-83993659D01*
X157992002Y-83945281D01*
X158048401Y-83931954D01*
X190651515Y-83931954D01*
X190719636Y-83951956D01*
X190766129Y-84005612D01*
X190777515Y-84057954D01*
X190777515Y-106271596D01*
X190757513Y-106339717D01*
X190703857Y-106386210D01*
X190651515Y-106397596D01*
X108872194Y-106397596D01*
X108804073Y-106377594D01*
X108757580Y-106323938D01*
X108746194Y-106271596D01*
X108746194Y-105342670D01*
X110432160Y-105342670D01*
X110437887Y-105350320D01*
X110609042Y-105455205D01*
X110617837Y-105459687D01*
X110827988Y-105546734D01*
X110837373Y-105549783D01*
X111058554Y-105602885D01*
X111068301Y-105604428D01*
X111295070Y-105622275D01*
X111304930Y-105622275D01*
X111531699Y-105604428D01*
X111541446Y-105602885D01*
X111762627Y-105549783D01*
X111772012Y-105546734D01*
X111982163Y-105459687D01*
X111990958Y-105455205D01*
X112158445Y-105352568D01*
X112167907Y-105342110D01*
X112164124Y-105333334D01*
X111312812Y-104482022D01*
X111298868Y-104474408D01*
X111297035Y-104474539D01*
X111290420Y-104478790D01*
X110438920Y-105330290D01*
X110432160Y-105342670D01*
X108746194Y-105342670D01*
X108746194Y-104114930D01*
X109787725Y-104114930D01*
X109805572Y-104341699D01*
X109807115Y-104351446D01*
X109860217Y-104572627D01*
X109863266Y-104582012D01*
X109950313Y-104792163D01*
X109954795Y-104800958D01*
X110057432Y-104968445D01*
X110067890Y-104977907D01*
X110076666Y-104974124D01*
X110927978Y-104122812D01*
X110934356Y-104111132D01*
X111664408Y-104111132D01*
X111664539Y-104112965D01*
X111668790Y-104119580D01*
X112520290Y-104971080D01*
X112532670Y-104977840D01*
X112540320Y-104972113D01*
X112645205Y-104800958D01*
X112649687Y-104792163D01*
X112736734Y-104582012D01*
X112739783Y-104572627D01*
X112779315Y-104407966D01*
X118048257Y-104407966D01*
X118078565Y-104542446D01*
X118081645Y-104552275D01*
X118161770Y-104749603D01*
X118166413Y-104758794D01*
X118277694Y-104940388D01*
X118283777Y-104948699D01*
X118423213Y-105109667D01*
X118430580Y-105116883D01*
X118594434Y-105252916D01*
X118602881Y-105258831D01*
X118786756Y-105366279D01*
X118796042Y-105370729D01*
X118995001Y-105446703D01*
X119004899Y-105449579D01*
X119108250Y-105470606D01*
X119122299Y-105469410D01*
X119126000Y-105459065D01*
X119126000Y-105458517D01*
X119634000Y-105458517D01*
X119638064Y-105472359D01*
X119651478Y-105474393D01*
X119658184Y-105473534D01*
X119668262Y-105471392D01*
X119872255Y-105410191D01*
X119881842Y-105406433D01*
X120073095Y-105312739D01*
X120081945Y-105307464D01*
X120255328Y-105183792D01*
X120263200Y-105177139D01*
X120340608Y-105100000D01*
X120794318Y-105100000D01*
X120814956Y-105256762D01*
X120875464Y-105402841D01*
X120971718Y-105528282D01*
X121097159Y-105624536D01*
X121243238Y-105685044D01*
X121400000Y-105705682D01*
X121408188Y-105704604D01*
X121548574Y-105686122D01*
X121556762Y-105685044D01*
X121702841Y-105624536D01*
X121828282Y-105528282D01*
X121924536Y-105402841D01*
X121967134Y-105300000D01*
X143194318Y-105300000D01*
X143214956Y-105456762D01*
X143275464Y-105602841D01*
X143371718Y-105728282D01*
X143497159Y-105824536D01*
X143643238Y-105885044D01*
X143800000Y-105905682D01*
X143808188Y-105904604D01*
X143948574Y-105886122D01*
X143956762Y-105885044D01*
X144102841Y-105824536D01*
X144144370Y-105792670D01*
X187262160Y-105792670D01*
X187267887Y-105800320D01*
X187439042Y-105905205D01*
X187447837Y-105909687D01*
X187657988Y-105996734D01*
X187667373Y-105999783D01*
X187888554Y-106052885D01*
X187898301Y-106054428D01*
X188125070Y-106072275D01*
X188134930Y-106072275D01*
X188361699Y-106054428D01*
X188371446Y-106052885D01*
X188592627Y-105999783D01*
X188602012Y-105996734D01*
X188812163Y-105909687D01*
X188820958Y-105905205D01*
X188988445Y-105802568D01*
X188997907Y-105792110D01*
X188994124Y-105783334D01*
X188142812Y-104932022D01*
X188128868Y-104924408D01*
X188127035Y-104924539D01*
X188120420Y-104928790D01*
X187268920Y-105780290D01*
X187262160Y-105792670D01*
X144144370Y-105792670D01*
X144228282Y-105728282D01*
X144324536Y-105602841D01*
X144385044Y-105456762D01*
X144405682Y-105300000D01*
X144389507Y-105177139D01*
X144386122Y-105151426D01*
X144385044Y-105143238D01*
X144324536Y-104997159D01*
X144228282Y-104871718D01*
X144102841Y-104775464D01*
X143956762Y-104714956D01*
X143932927Y-104711818D01*
X143808188Y-104695396D01*
X143800000Y-104694318D01*
X143791812Y-104695396D01*
X143667074Y-104711818D01*
X143643238Y-104714956D01*
X143497159Y-104775464D01*
X143371718Y-104871718D01*
X143275464Y-104997159D01*
X143214956Y-105143238D01*
X143213878Y-105151426D01*
X143210493Y-105177139D01*
X143194318Y-105300000D01*
X121967134Y-105300000D01*
X121985044Y-105256762D01*
X122005682Y-105100000D01*
X121985044Y-104943238D01*
X121924536Y-104797159D01*
X121828282Y-104671718D01*
X121702841Y-104575464D01*
X121556762Y-104514956D01*
X121400000Y-104494318D01*
X121243238Y-104514956D01*
X121097159Y-104575464D01*
X120971718Y-104671718D01*
X120875464Y-104797159D01*
X120814956Y-104943238D01*
X120794318Y-105100000D01*
X120340608Y-105100000D01*
X120414052Y-105026812D01*
X120420730Y-105018965D01*
X120545003Y-104846020D01*
X120550313Y-104837183D01*
X120644670Y-104646267D01*
X120648469Y-104636672D01*
X120710377Y-104432910D01*
X120712555Y-104422837D01*
X120713986Y-104411962D01*
X120711775Y-104397778D01*
X120698617Y-104394000D01*
X119652115Y-104394000D01*
X119636876Y-104398475D01*
X119635671Y-104399865D01*
X119634000Y-104407548D01*
X119634000Y-105458517D01*
X119126000Y-105458517D01*
X119126000Y-104412115D01*
X119121525Y-104396876D01*
X119120135Y-104395671D01*
X119112452Y-104394000D01*
X118063225Y-104394000D01*
X118049694Y-104397973D01*
X118048257Y-104407966D01*
X112779315Y-104407966D01*
X112792885Y-104351446D01*
X112794428Y-104341699D01*
X112805580Y-104200000D01*
X139894318Y-104200000D01*
X139914956Y-104356762D01*
X139975464Y-104502841D01*
X140071718Y-104628282D01*
X140197159Y-104724536D01*
X140343238Y-104785044D01*
X140351426Y-104786122D01*
X140385501Y-104790608D01*
X140500000Y-104805682D01*
X140508188Y-104804604D01*
X140535883Y-104800958D01*
X140614499Y-104790608D01*
X140648574Y-104786122D01*
X140656762Y-104785044D01*
X140802841Y-104724536D01*
X140926043Y-104630000D01*
X173434318Y-104630000D01*
X173454956Y-104786762D01*
X173515464Y-104932841D01*
X173611718Y-105058282D01*
X173737159Y-105154536D01*
X173883238Y-105215044D01*
X174040000Y-105235682D01*
X174048188Y-105234604D01*
X174188574Y-105216122D01*
X174196762Y-105215044D01*
X174342841Y-105154536D01*
X174468282Y-105058282D01*
X174564536Y-104932841D01*
X174625044Y-104786762D01*
X174645682Y-104630000D01*
X174625044Y-104473238D01*
X174564536Y-104327159D01*
X174468282Y-104201718D01*
X174460299Y-104195592D01*
X174368642Y-104125262D01*
X181824520Y-104125262D01*
X181841759Y-104330553D01*
X181843458Y-104336478D01*
X181895542Y-104518116D01*
X181898544Y-104528586D01*
X181901359Y-104534063D01*
X181901360Y-104534066D01*
X181983718Y-104694318D01*
X181992712Y-104711818D01*
X182120677Y-104873270D01*
X182125370Y-104877264D01*
X182125371Y-104877265D01*
X182243547Y-104977840D01*
X182277564Y-105006791D01*
X182282942Y-105009797D01*
X182282944Y-105009798D01*
X182326308Y-105034033D01*
X182457398Y-105107297D01*
X182544533Y-105135609D01*
X182647471Y-105169056D01*
X182647475Y-105169057D01*
X182653329Y-105170959D01*
X182857894Y-105195351D01*
X182864029Y-105194879D01*
X182864031Y-105194879D01*
X182920039Y-105190569D01*
X183063300Y-105179546D01*
X183069230Y-105177890D01*
X183069232Y-105177890D01*
X183255797Y-105125800D01*
X183255796Y-105125800D01*
X183261725Y-105124145D01*
X183267214Y-105121372D01*
X183267220Y-105121370D01*
X183440116Y-105034033D01*
X183445610Y-105031258D01*
X183461345Y-105018965D01*
X183582205Y-104924539D01*
X183607951Y-104904424D01*
X183665992Y-104837183D01*
X183738540Y-104753134D01*
X183738540Y-104753133D01*
X183742564Y-104748472D01*
X183754367Y-104727696D01*
X183789020Y-104666695D01*
X183844323Y-104569344D01*
X183845791Y-104564930D01*
X186617725Y-104564930D01*
X186635572Y-104791699D01*
X186637115Y-104801446D01*
X186690217Y-105022627D01*
X186693266Y-105032012D01*
X186780313Y-105242163D01*
X186784795Y-105250958D01*
X186887432Y-105418445D01*
X186897890Y-105427907D01*
X186906666Y-105424124D01*
X187757978Y-104572812D01*
X187764356Y-104561132D01*
X188494408Y-104561132D01*
X188494539Y-104562965D01*
X188498790Y-104569580D01*
X189350290Y-105421080D01*
X189362670Y-105427840D01*
X189370320Y-105422113D01*
X189475205Y-105250958D01*
X189479687Y-105242163D01*
X189566734Y-105032012D01*
X189569783Y-105022627D01*
X189622885Y-104801446D01*
X189624428Y-104791699D01*
X189642275Y-104564930D01*
X189642275Y-104555070D01*
X189624428Y-104328301D01*
X189622885Y-104318554D01*
X189569783Y-104097373D01*
X189566734Y-104087988D01*
X189479687Y-103877837D01*
X189475205Y-103869042D01*
X189372568Y-103701555D01*
X189362110Y-103692093D01*
X189353334Y-103695876D01*
X188502022Y-104547188D01*
X188494408Y-104561132D01*
X187764356Y-104561132D01*
X187765592Y-104558868D01*
X187765461Y-104557035D01*
X187761210Y-104550420D01*
X186909710Y-103698920D01*
X186897330Y-103692160D01*
X186889680Y-103697887D01*
X186784795Y-103869042D01*
X186780313Y-103877837D01*
X186693266Y-104087988D01*
X186690217Y-104097373D01*
X186637115Y-104318554D01*
X186635572Y-104328301D01*
X186617725Y-104555070D01*
X186617725Y-104564930D01*
X183845791Y-104564930D01*
X183909351Y-104373863D01*
X183935171Y-104169474D01*
X183935583Y-104140000D01*
X183915480Y-103934970D01*
X183855935Y-103737749D01*
X183759218Y-103555849D01*
X183683206Y-103462649D01*
X183632906Y-103400975D01*
X183632903Y-103400972D01*
X183629011Y-103396200D01*
X183611786Y-103381950D01*
X183546439Y-103327890D01*
X187262093Y-103327890D01*
X187265876Y-103336666D01*
X188117188Y-104187978D01*
X188131132Y-104195592D01*
X188132965Y-104195461D01*
X188139580Y-104191210D01*
X188991080Y-103339710D01*
X188997840Y-103327330D01*
X188992113Y-103319680D01*
X188820958Y-103214795D01*
X188812163Y-103210313D01*
X188602012Y-103123266D01*
X188592627Y-103120217D01*
X188371446Y-103067115D01*
X188361699Y-103065572D01*
X188134930Y-103047725D01*
X188125070Y-103047725D01*
X187898301Y-103065572D01*
X187888554Y-103067115D01*
X187667373Y-103120217D01*
X187657988Y-103123266D01*
X187447837Y-103210313D01*
X187439042Y-103214795D01*
X187271555Y-103317432D01*
X187262093Y-103327890D01*
X183546439Y-103327890D01*
X183475025Y-103268811D01*
X183475021Y-103268809D01*
X183470275Y-103264882D01*
X183289055Y-103166897D01*
X183092254Y-103105977D01*
X183086129Y-103105333D01*
X183086128Y-103105333D01*
X182893498Y-103085087D01*
X182893496Y-103085087D01*
X182887369Y-103084443D01*
X182800529Y-103092346D01*
X182688342Y-103102555D01*
X182688339Y-103102556D01*
X182682203Y-103103114D01*
X182484572Y-103161280D01*
X182302002Y-103256726D01*
X182297201Y-103260586D01*
X182297198Y-103260588D01*
X182214188Y-103327330D01*
X182141447Y-103385815D01*
X182009024Y-103543630D01*
X182006056Y-103549028D01*
X182006053Y-103549033D01*
X181981158Y-103594318D01*
X181909776Y-103724162D01*
X181847484Y-103920532D01*
X181846798Y-103926649D01*
X181846797Y-103926653D01*
X181833528Y-104044956D01*
X181824520Y-104125262D01*
X174368642Y-104125262D01*
X174355177Y-104114930D01*
X174342841Y-104105464D01*
X174196762Y-104044956D01*
X174183713Y-104043238D01*
X174048188Y-104025396D01*
X174040000Y-104024318D01*
X174031812Y-104025396D01*
X173896288Y-104043238D01*
X173883238Y-104044956D01*
X173737159Y-104105464D01*
X173724823Y-104114930D01*
X173619702Y-104195592D01*
X173611718Y-104201718D01*
X173515464Y-104327159D01*
X173454956Y-104473238D01*
X173434318Y-104630000D01*
X140926043Y-104630000D01*
X140928282Y-104628282D01*
X141024536Y-104502841D01*
X141085044Y-104356762D01*
X141105682Y-104200000D01*
X141085044Y-104043238D01*
X141024536Y-103897159D01*
X140928282Y-103771718D01*
X140802841Y-103675464D01*
X140656762Y-103614956D01*
X140543159Y-103600000D01*
X159894318Y-103600000D01*
X159914956Y-103756762D01*
X159975464Y-103902841D01*
X160071718Y-104028282D01*
X160197159Y-104124536D01*
X160343238Y-104185044D01*
X160500000Y-104205682D01*
X160508188Y-104204604D01*
X160648574Y-104186122D01*
X160656762Y-104185044D01*
X160802841Y-104124536D01*
X160928282Y-104028282D01*
X161024536Y-103902841D01*
X161085044Y-103756762D01*
X161105682Y-103600000D01*
X161088781Y-103471623D01*
X161086122Y-103451426D01*
X161085044Y-103443238D01*
X161024536Y-103297159D01*
X160928282Y-103171718D01*
X160802841Y-103075464D01*
X160656762Y-103014956D01*
X160500000Y-102994318D01*
X160343238Y-103014956D01*
X160197159Y-103075464D01*
X160071718Y-103171718D01*
X159975464Y-103297159D01*
X159914956Y-103443238D01*
X159913878Y-103451426D01*
X159911219Y-103471623D01*
X159894318Y-103600000D01*
X140543159Y-103600000D01*
X140500000Y-103594318D01*
X140343238Y-103614956D01*
X140197159Y-103675464D01*
X140071718Y-103771718D01*
X139975464Y-103897159D01*
X139914956Y-104043238D01*
X139894318Y-104200000D01*
X112805580Y-104200000D01*
X112812275Y-104114930D01*
X112812275Y-104105070D01*
X112794428Y-103878301D01*
X112793776Y-103874183D01*
X118044389Y-103874183D01*
X118045912Y-103882607D01*
X118058292Y-103886000D01*
X120698344Y-103886000D01*
X120711875Y-103882027D01*
X120713180Y-103872947D01*
X120671214Y-103705875D01*
X120667894Y-103696124D01*
X120582972Y-103500814D01*
X120578105Y-103491739D01*
X120462426Y-103312926D01*
X120456136Y-103304757D01*
X120312806Y-103147240D01*
X120305273Y-103140215D01*
X120138139Y-103008222D01*
X120129552Y-103002517D01*
X119943117Y-102899599D01*
X119933705Y-102895369D01*
X119742031Y-102827493D01*
X119684495Y-102785899D01*
X119658579Y-102719801D01*
X119672513Y-102650185D01*
X119721872Y-102599154D01*
X119750206Y-102587362D01*
X119755790Y-102585803D01*
X119755799Y-102585800D01*
X119761725Y-102584145D01*
X119767214Y-102581372D01*
X119767220Y-102581370D01*
X119940116Y-102494033D01*
X119945610Y-102491258D01*
X120107951Y-102364424D01*
X120139654Y-102327696D01*
X120238540Y-102213134D01*
X120238540Y-102213133D01*
X120242564Y-102208472D01*
X120263387Y-102171818D01*
X120306905Y-102095211D01*
X120344323Y-102029344D01*
X120409351Y-101833863D01*
X120413629Y-101800000D01*
X145694318Y-101800000D01*
X145714956Y-101956762D01*
X145775464Y-102102841D01*
X145780491Y-102109392D01*
X145860095Y-102213134D01*
X145871718Y-102228282D01*
X145997159Y-102324536D01*
X146143238Y-102385044D01*
X146300000Y-102405682D01*
X146308188Y-102404604D01*
X146448574Y-102386122D01*
X146456762Y-102385044D01*
X146602841Y-102324536D01*
X146728282Y-102228282D01*
X146739906Y-102213134D01*
X146819509Y-102109392D01*
X146824536Y-102102841D01*
X146885044Y-101956762D01*
X146888132Y-101933305D01*
X146890522Y-101915153D01*
X146919245Y-101850226D01*
X146978510Y-101811135D01*
X147049502Y-101810290D01*
X147109680Y-101847961D01*
X147115407Y-101854896D01*
X147153549Y-101904604D01*
X147171718Y-101928282D01*
X147297159Y-102024536D01*
X147443238Y-102085044D01*
X147600000Y-102105682D01*
X147608188Y-102104604D01*
X147621580Y-102102841D01*
X147756762Y-102085044D01*
X147902841Y-102024536D01*
X148028282Y-101928282D01*
X148124536Y-101802841D01*
X148133591Y-101780980D01*
X148178139Y-101725699D01*
X148245502Y-101703278D01*
X148314294Y-101720836D01*
X148362672Y-101772798D01*
X148366408Y-101780977D01*
X148375464Y-101802841D01*
X148471718Y-101928282D01*
X148597159Y-102024536D01*
X148743238Y-102085044D01*
X148900000Y-102105682D01*
X148908188Y-102104604D01*
X148921580Y-102102841D01*
X149056762Y-102085044D01*
X149202841Y-102024536D01*
X149328282Y-101928282D01*
X149346451Y-101904604D01*
X149400037Y-101834769D01*
X149457375Y-101792902D01*
X149528246Y-101788680D01*
X149590149Y-101823444D01*
X149599963Y-101834769D01*
X149653549Y-101904604D01*
X149671718Y-101928282D01*
X149797159Y-102024536D01*
X149943238Y-102085044D01*
X150100000Y-102105682D01*
X150108188Y-102104604D01*
X150121580Y-102102841D01*
X150256762Y-102085044D01*
X150402841Y-102024536D01*
X150528282Y-101928282D01*
X150624536Y-101802841D01*
X150633591Y-101780980D01*
X150678139Y-101725699D01*
X150745502Y-101703278D01*
X150814294Y-101720836D01*
X150862672Y-101772798D01*
X150866408Y-101780977D01*
X150875464Y-101802841D01*
X150971718Y-101928282D01*
X151097159Y-102024536D01*
X151243238Y-102085044D01*
X151400000Y-102105682D01*
X151408188Y-102104604D01*
X151421580Y-102102841D01*
X151556762Y-102085044D01*
X151702841Y-102024536D01*
X151828282Y-101928282D01*
X151846451Y-101904604D01*
X151900037Y-101834769D01*
X151957375Y-101792902D01*
X152028246Y-101788680D01*
X152090149Y-101823444D01*
X152099963Y-101834769D01*
X152153549Y-101904604D01*
X152171718Y-101928282D01*
X152297159Y-102024536D01*
X152443238Y-102085044D01*
X152600000Y-102105682D01*
X152608188Y-102104604D01*
X152621580Y-102102841D01*
X152756762Y-102085044D01*
X152902841Y-102024536D01*
X153028282Y-101928282D01*
X153124536Y-101802841D01*
X153133591Y-101780980D01*
X153178139Y-101725699D01*
X153245502Y-101703278D01*
X153314294Y-101720836D01*
X153362672Y-101772798D01*
X153366408Y-101780977D01*
X153375464Y-101802841D01*
X153471718Y-101928282D01*
X153597159Y-102024536D01*
X153743238Y-102085044D01*
X153900000Y-102105682D01*
X153908188Y-102104604D01*
X153921580Y-102102841D01*
X154056762Y-102085044D01*
X154202841Y-102024536D01*
X154328282Y-101928282D01*
X154424536Y-101802841D01*
X154485044Y-101656762D01*
X154505682Y-101500000D01*
X157094318Y-101500000D01*
X157114956Y-101656762D01*
X157175464Y-101802841D01*
X157271718Y-101928282D01*
X157397159Y-102024536D01*
X157543238Y-102085044D01*
X157700000Y-102105682D01*
X157708188Y-102104604D01*
X157721580Y-102102841D01*
X157856762Y-102085044D01*
X158002841Y-102024536D01*
X158128282Y-101928282D01*
X158224536Y-101802841D01*
X158285044Y-101656762D01*
X158305682Y-101500000D01*
X158285044Y-101343238D01*
X158267134Y-101300000D01*
X161994318Y-101300000D01*
X162014956Y-101456762D01*
X162075464Y-101602841D01*
X162171718Y-101728282D01*
X162297159Y-101824536D01*
X162443238Y-101885044D01*
X162600000Y-101905682D01*
X162608188Y-101904604D01*
X162748574Y-101886122D01*
X162756762Y-101885044D01*
X162902841Y-101824536D01*
X163028282Y-101728282D01*
X163124536Y-101602841D01*
X163131817Y-101585262D01*
X181824520Y-101585262D01*
X181825463Y-101596494D01*
X181835905Y-101720836D01*
X181841759Y-101790553D01*
X181843458Y-101796478D01*
X181889419Y-101956762D01*
X181898544Y-101988586D01*
X181901359Y-101994063D01*
X181901360Y-101994066D01*
X181989897Y-102166341D01*
X181992712Y-102171818D01*
X182120677Y-102333270D01*
X182277564Y-102466791D01*
X182457398Y-102567297D01*
X182551046Y-102597725D01*
X182647471Y-102629056D01*
X182647475Y-102629057D01*
X182653329Y-102630959D01*
X182857894Y-102655351D01*
X182864029Y-102654879D01*
X182864031Y-102654879D01*
X182920039Y-102650569D01*
X183063300Y-102639546D01*
X183069230Y-102637890D01*
X183069232Y-102637890D01*
X183193104Y-102603304D01*
X183261725Y-102584145D01*
X183267214Y-102581372D01*
X183267220Y-102581370D01*
X183440116Y-102494033D01*
X183445610Y-102491258D01*
X183607951Y-102364424D01*
X183639654Y-102327696D01*
X183738540Y-102213134D01*
X183738540Y-102213133D01*
X183742564Y-102208472D01*
X183763387Y-102171818D01*
X183806905Y-102095211D01*
X183844323Y-102029344D01*
X183909351Y-101833863D01*
X183935171Y-101629474D01*
X183935583Y-101600000D01*
X183915480Y-101394970D01*
X183855935Y-101197749D01*
X183759218Y-101015849D01*
X183660979Y-100895396D01*
X183632906Y-100860975D01*
X183632903Y-100860972D01*
X183629011Y-100856200D01*
X183622173Y-100850543D01*
X183475025Y-100728811D01*
X183475021Y-100728809D01*
X183470275Y-100724882D01*
X183289055Y-100626897D01*
X183092254Y-100565977D01*
X183086129Y-100565333D01*
X183086128Y-100565333D01*
X182893498Y-100545087D01*
X182893496Y-100545087D01*
X182887369Y-100544443D01*
X182806076Y-100551841D01*
X182688342Y-100562555D01*
X182688339Y-100562556D01*
X182682203Y-100563114D01*
X182484572Y-100621280D01*
X182302002Y-100716726D01*
X182297201Y-100720586D01*
X182297198Y-100720588D01*
X182146254Y-100841950D01*
X182141447Y-100845815D01*
X182009024Y-101003630D01*
X182006056Y-101009028D01*
X182006053Y-101009033D01*
X181932274Y-101143238D01*
X181909776Y-101184162D01*
X181847484Y-101380532D01*
X181846798Y-101386649D01*
X181846797Y-101386653D01*
X181827871Y-101555384D01*
X181824520Y-101585262D01*
X163131817Y-101585262D01*
X163185044Y-101456762D01*
X163205682Y-101300000D01*
X163197654Y-101239022D01*
X163208593Y-101168874D01*
X163255721Y-101115775D01*
X163324075Y-101096585D01*
X163339020Y-101097654D01*
X163400000Y-101105682D01*
X163408188Y-101104604D01*
X163548574Y-101086122D01*
X163556762Y-101085044D01*
X163702841Y-101024536D01*
X163828282Y-100928282D01*
X163834092Y-100920711D01*
X163856059Y-100892082D01*
X163924536Y-100802841D01*
X163979288Y-100670659D01*
X163981884Y-100664391D01*
X163985044Y-100656762D01*
X163986301Y-100647218D01*
X164004604Y-100508188D01*
X164005682Y-100500000D01*
X163997657Y-100439040D01*
X186873970Y-100439040D01*
X186888400Y-100659204D01*
X186889821Y-100664800D01*
X186889822Y-100664805D01*
X186941290Y-100867457D01*
X186942711Y-100873052D01*
X186945128Y-100878294D01*
X186945128Y-100878295D01*
X187006340Y-101011073D01*
X187035083Y-101073421D01*
X187162422Y-101253602D01*
X187320464Y-101407561D01*
X187325260Y-101410766D01*
X187325263Y-101410768D01*
X187455870Y-101498036D01*
X187503917Y-101530140D01*
X187509220Y-101532418D01*
X187509223Y-101532420D01*
X187658360Y-101596494D01*
X187706636Y-101617235D01*
X187776210Y-101632978D01*
X187916195Y-101664654D01*
X187916201Y-101664655D01*
X187921832Y-101665929D01*
X187927603Y-101666156D01*
X187927605Y-101666156D01*
X187995411Y-101668820D01*
X188142298Y-101674591D01*
X188265262Y-101656762D01*
X188354938Y-101643760D01*
X188354943Y-101643759D01*
X188360652Y-101642931D01*
X188366116Y-101641076D01*
X188366121Y-101641075D01*
X188564107Y-101573868D01*
X188564112Y-101573866D01*
X188569579Y-101572010D01*
X188591700Y-101559622D01*
X188650075Y-101526930D01*
X188762084Y-101464202D01*
X188776709Y-101452039D01*
X188927286Y-101326804D01*
X188931718Y-101323118D01*
X189000938Y-101239891D01*
X189069108Y-101157926D01*
X189069110Y-101157923D01*
X189072802Y-101153484D01*
X189152556Y-101011073D01*
X189177786Y-100966022D01*
X189177787Y-100966020D01*
X189180610Y-100960979D01*
X189182466Y-100955512D01*
X189182468Y-100955507D01*
X189249675Y-100757521D01*
X189249676Y-100757516D01*
X189251531Y-100752052D01*
X189252359Y-100746343D01*
X189252360Y-100746338D01*
X189273978Y-100597236D01*
X189283191Y-100533698D01*
X189284843Y-100470600D01*
X189264654Y-100250889D01*
X189204765Y-100038536D01*
X189107180Y-99840653D01*
X189099000Y-99829698D01*
X188978620Y-99668491D01*
X188978620Y-99668490D01*
X188975167Y-99663867D01*
X188877786Y-99573849D01*
X188817389Y-99518018D01*
X188817386Y-99518016D01*
X188813149Y-99514099D01*
X188626550Y-99396364D01*
X188458585Y-99329353D01*
X188426985Y-99316746D01*
X188421621Y-99314606D01*
X188415961Y-99313480D01*
X188415957Y-99313479D01*
X188210891Y-99272689D01*
X188210888Y-99272689D01*
X188205224Y-99271562D01*
X188199449Y-99271486D01*
X188199445Y-99271486D01*
X188088704Y-99270037D01*
X187984606Y-99268674D01*
X187978909Y-99269653D01*
X187978908Y-99269653D01*
X187772854Y-99305059D01*
X187772853Y-99305059D01*
X187767157Y-99306038D01*
X187560157Y-99382404D01*
X187555196Y-99385356D01*
X187555195Y-99385356D01*
X187380408Y-99489344D01*
X187370541Y-99495214D01*
X187204657Y-99640690D01*
X187068063Y-99813960D01*
X186965331Y-100009220D01*
X186920443Y-100153782D01*
X186906975Y-100197159D01*
X186899903Y-100219933D01*
X186873970Y-100439040D01*
X163997657Y-100439040D01*
X163995363Y-100421619D01*
X163986122Y-100351426D01*
X163985044Y-100343238D01*
X163981884Y-100335609D01*
X163981883Y-100335605D01*
X163956443Y-100274189D01*
X163948853Y-100203599D01*
X163980632Y-100140112D01*
X164041690Y-100103884D01*
X164089295Y-100101048D01*
X164116309Y-100104604D01*
X164116312Y-100104604D01*
X164124500Y-100105682D01*
X164132688Y-100104604D01*
X164146080Y-100102841D01*
X164281262Y-100085044D01*
X164427341Y-100024536D01*
X164552782Y-99928282D01*
X164649036Y-99802841D01*
X164650213Y-99800000D01*
X173994318Y-99800000D01*
X174014956Y-99956762D01*
X174075464Y-100102841D01*
X174171718Y-100228282D01*
X174297159Y-100324536D01*
X174443238Y-100385044D01*
X174451426Y-100386122D01*
X174521619Y-100395363D01*
X174600000Y-100405682D01*
X174608188Y-100404604D01*
X174748574Y-100386122D01*
X174756762Y-100385044D01*
X174902841Y-100324536D01*
X175028282Y-100228282D01*
X175124536Y-100102841D01*
X175185044Y-99956762D01*
X175205682Y-99800000D01*
X175185044Y-99643238D01*
X175124536Y-99497159D01*
X175049558Y-99399445D01*
X175033305Y-99378264D01*
X175028282Y-99371718D01*
X174902841Y-99275464D01*
X174756762Y-99214956D01*
X174600000Y-99194318D01*
X174443238Y-99214956D01*
X174297159Y-99275464D01*
X174171718Y-99371718D01*
X174166695Y-99378264D01*
X174150442Y-99399445D01*
X174075464Y-99497159D01*
X174014956Y-99643238D01*
X173994318Y-99800000D01*
X164650213Y-99800000D01*
X164709544Y-99656762D01*
X164730182Y-99500000D01*
X164709544Y-99343238D01*
X164649036Y-99197159D01*
X164552782Y-99071718D01*
X164459317Y-99000000D01*
X178394318Y-99000000D01*
X178414956Y-99156762D01*
X178475464Y-99302841D01*
X178514103Y-99353196D01*
X178562209Y-99415889D01*
X178571718Y-99428282D01*
X178697159Y-99524536D01*
X178843238Y-99585044D01*
X179000000Y-99605682D01*
X179008188Y-99604604D01*
X179148574Y-99586122D01*
X179156762Y-99585044D01*
X179302841Y-99524536D01*
X179428282Y-99428282D01*
X179437792Y-99415889D01*
X179485897Y-99353196D01*
X179524536Y-99302841D01*
X179585044Y-99156762D01*
X179599723Y-99045262D01*
X181824520Y-99045262D01*
X181825036Y-99051406D01*
X181840311Y-99233305D01*
X181841759Y-99250553D01*
X181843458Y-99256478D01*
X181896051Y-99439891D01*
X181898544Y-99448586D01*
X181901359Y-99454063D01*
X181901360Y-99454066D01*
X181978497Y-99604159D01*
X181992712Y-99631818D01*
X182120677Y-99793270D01*
X182125370Y-99797264D01*
X182125371Y-99797265D01*
X182234207Y-99889891D01*
X182277564Y-99926791D01*
X182282942Y-99929797D01*
X182282944Y-99929798D01*
X182314563Y-99947469D01*
X182457398Y-100027297D01*
X182538107Y-100053521D01*
X182647471Y-100089056D01*
X182647475Y-100089057D01*
X182653329Y-100090959D01*
X182857894Y-100115351D01*
X182864029Y-100114879D01*
X182864031Y-100114879D01*
X182933363Y-100109544D01*
X183063300Y-100099546D01*
X183069230Y-100097890D01*
X183069232Y-100097890D01*
X183228144Y-100053521D01*
X183261725Y-100044145D01*
X183267214Y-100041372D01*
X183267220Y-100041370D01*
X183440116Y-99954033D01*
X183445610Y-99951258D01*
X183452137Y-99946159D01*
X183536683Y-99880104D01*
X183607951Y-99824424D01*
X183612573Y-99819070D01*
X183738540Y-99673134D01*
X183738540Y-99673133D01*
X183742564Y-99668472D01*
X183752248Y-99651426D01*
X183811633Y-99546889D01*
X183844323Y-99489344D01*
X183909351Y-99293863D01*
X183935171Y-99089474D01*
X183935419Y-99071718D01*
X183935534Y-99063522D01*
X183935534Y-99063518D01*
X183935583Y-99060000D01*
X183915480Y-98854970D01*
X183855935Y-98657749D01*
X183759218Y-98475849D01*
X183669727Y-98366122D01*
X183632906Y-98320975D01*
X183632903Y-98320972D01*
X183629011Y-98316200D01*
X183622173Y-98310543D01*
X183475025Y-98188811D01*
X183475021Y-98188809D01*
X183470275Y-98184882D01*
X183289055Y-98086897D01*
X183092254Y-98025977D01*
X183086129Y-98025333D01*
X183086128Y-98025333D01*
X182893498Y-98005087D01*
X182893496Y-98005087D01*
X182887369Y-98004443D01*
X182800529Y-98012346D01*
X182688342Y-98022555D01*
X182688339Y-98022556D01*
X182682203Y-98023114D01*
X182484572Y-98081280D01*
X182302002Y-98176726D01*
X182297201Y-98180586D01*
X182297198Y-98180588D01*
X182218807Y-98243616D01*
X182141447Y-98305815D01*
X182009024Y-98463630D01*
X182006056Y-98469028D01*
X182006053Y-98469033D01*
X181914478Y-98635609D01*
X181909776Y-98644162D01*
X181847484Y-98840532D01*
X181846798Y-98846649D01*
X181846797Y-98846653D01*
X181830731Y-98989891D01*
X181824520Y-99045262D01*
X179599723Y-99045262D01*
X179605682Y-99000000D01*
X179585044Y-98843238D01*
X179524536Y-98697159D01*
X179428282Y-98571718D01*
X179302841Y-98475464D01*
X179156762Y-98414956D01*
X179000000Y-98394318D01*
X178843238Y-98414956D01*
X178697159Y-98475464D01*
X178571718Y-98571718D01*
X178475464Y-98697159D01*
X178414956Y-98843238D01*
X178394318Y-99000000D01*
X164459317Y-99000000D01*
X164427341Y-98975464D01*
X164281262Y-98914956D01*
X164124500Y-98894318D01*
X163967738Y-98914956D01*
X163821659Y-98975464D01*
X163696218Y-99071718D01*
X163599964Y-99197159D01*
X163539456Y-99343238D01*
X163518818Y-99500000D01*
X163539456Y-99656762D01*
X163542616Y-99664390D01*
X163542617Y-99664395D01*
X163568057Y-99725811D01*
X163575647Y-99796401D01*
X163543868Y-99859888D01*
X163482810Y-99896116D01*
X163435205Y-99898952D01*
X163408191Y-99895396D01*
X163408188Y-99895396D01*
X163400000Y-99894318D01*
X163243238Y-99914956D01*
X163097159Y-99975464D01*
X162971718Y-100071718D01*
X162966695Y-100078264D01*
X162955972Y-100092238D01*
X162875464Y-100197159D01*
X162814956Y-100343238D01*
X162813878Y-100351426D01*
X162804637Y-100421619D01*
X162794318Y-100500000D01*
X162800612Y-100547804D01*
X162802346Y-100560978D01*
X162791407Y-100631126D01*
X162744279Y-100684225D01*
X162675925Y-100703415D01*
X162660980Y-100702346D01*
X162600000Y-100694318D01*
X162591812Y-100695396D01*
X162451495Y-100713869D01*
X162443238Y-100714956D01*
X162297159Y-100775464D01*
X162271424Y-100795211D01*
X162185719Y-100860975D01*
X162171718Y-100871718D01*
X162166695Y-100878264D01*
X162154376Y-100894318D01*
X162075464Y-100997159D01*
X162014956Y-101143238D01*
X161994318Y-101300000D01*
X158267134Y-101300000D01*
X158224536Y-101197159D01*
X158128282Y-101071718D01*
X158002841Y-100975464D01*
X157856762Y-100914956D01*
X157700000Y-100894318D01*
X157543238Y-100914956D01*
X157397159Y-100975464D01*
X157271718Y-101071718D01*
X157175464Y-101197159D01*
X157114956Y-101343238D01*
X157094318Y-101500000D01*
X154505682Y-101500000D01*
X154485044Y-101343238D01*
X154424536Y-101197159D01*
X154328282Y-101071718D01*
X154202841Y-100975464D01*
X154056762Y-100914956D01*
X153900000Y-100894318D01*
X153743238Y-100914956D01*
X153597159Y-100975464D01*
X153471718Y-101071718D01*
X153375464Y-101197159D01*
X153368539Y-101213878D01*
X153366409Y-101219020D01*
X153321861Y-101274301D01*
X153254498Y-101296722D01*
X153185706Y-101279164D01*
X153137328Y-101227202D01*
X153133591Y-101219020D01*
X153131461Y-101213878D01*
X153124536Y-101197159D01*
X153028282Y-101071718D01*
X152902841Y-100975464D01*
X152756762Y-100914956D01*
X152600000Y-100894318D01*
X152443238Y-100914956D01*
X152297159Y-100975464D01*
X152171718Y-101071718D01*
X152166695Y-101078264D01*
X152099963Y-101165231D01*
X152042625Y-101207098D01*
X151971754Y-101211320D01*
X151909851Y-101176556D01*
X151900037Y-101165231D01*
X151833305Y-101078264D01*
X151828282Y-101071718D01*
X151702841Y-100975464D01*
X151556762Y-100914956D01*
X151400000Y-100894318D01*
X151243238Y-100914956D01*
X151097159Y-100975464D01*
X150971718Y-101071718D01*
X150875464Y-101197159D01*
X150868539Y-101213878D01*
X150866409Y-101219020D01*
X150821861Y-101274301D01*
X150754498Y-101296722D01*
X150685706Y-101279164D01*
X150637328Y-101227202D01*
X150633591Y-101219020D01*
X150631461Y-101213878D01*
X150624536Y-101197159D01*
X150528282Y-101071718D01*
X150402841Y-100975464D01*
X150256762Y-100914956D01*
X150100000Y-100894318D01*
X149943238Y-100914956D01*
X149797159Y-100975464D01*
X149671718Y-101071718D01*
X149666695Y-101078264D01*
X149599963Y-101165231D01*
X149542625Y-101207098D01*
X149471754Y-101211320D01*
X149409851Y-101176556D01*
X149400037Y-101165231D01*
X149333305Y-101078264D01*
X149328282Y-101071718D01*
X149202841Y-100975464D01*
X149056762Y-100914956D01*
X148900000Y-100894318D01*
X148743238Y-100914956D01*
X148597159Y-100975464D01*
X148471718Y-101071718D01*
X148375464Y-101197159D01*
X148368539Y-101213878D01*
X148366409Y-101219020D01*
X148321861Y-101274301D01*
X148254498Y-101296722D01*
X148185706Y-101279164D01*
X148137328Y-101227202D01*
X148133591Y-101219020D01*
X148131461Y-101213878D01*
X148124536Y-101197159D01*
X148028282Y-101071718D01*
X147902841Y-100975464D01*
X147756762Y-100914956D01*
X147600000Y-100894318D01*
X147443238Y-100914956D01*
X147297159Y-100975464D01*
X147171718Y-101071718D01*
X147075464Y-101197159D01*
X147014956Y-101343238D01*
X147013878Y-101351426D01*
X147009478Y-101384847D01*
X146980755Y-101449774D01*
X146921490Y-101488865D01*
X146850498Y-101489710D01*
X146790320Y-101452039D01*
X146784593Y-101445104D01*
X146733305Y-101378264D01*
X146728282Y-101371718D01*
X146602841Y-101275464D01*
X146456762Y-101214956D01*
X146423250Y-101210544D01*
X146326061Y-101197749D01*
X146300000Y-101194318D01*
X146273939Y-101197749D01*
X146176751Y-101210544D01*
X146143238Y-101214956D01*
X145997159Y-101275464D01*
X145871718Y-101371718D01*
X145775464Y-101497159D01*
X145714956Y-101643238D01*
X145694318Y-101800000D01*
X120413629Y-101800000D01*
X120435171Y-101629474D01*
X120435583Y-101600000D01*
X120415480Y-101394970D01*
X120355935Y-101197749D01*
X120259218Y-101015849D01*
X120224679Y-100973500D01*
X121796918Y-100973500D01*
X121817556Y-101130262D01*
X121878064Y-101276341D01*
X121974318Y-101401782D01*
X122099759Y-101498036D01*
X122245838Y-101558544D01*
X122402600Y-101579182D01*
X122410788Y-101578104D01*
X122551174Y-101559622D01*
X122559362Y-101558544D01*
X122705441Y-101498036D01*
X122830882Y-101401782D01*
X122927136Y-101276341D01*
X122987644Y-101130262D01*
X123008282Y-100973500D01*
X123778118Y-100973500D01*
X123798756Y-101130262D01*
X123859264Y-101276341D01*
X123955518Y-101401782D01*
X124080959Y-101498036D01*
X124227038Y-101558544D01*
X124383800Y-101579182D01*
X124391988Y-101578104D01*
X124532374Y-101559622D01*
X124540562Y-101558544D01*
X124686641Y-101498036D01*
X124812082Y-101401782D01*
X124908336Y-101276341D01*
X124968844Y-101130262D01*
X124989482Y-100973500D01*
X124987082Y-100955270D01*
X124998021Y-100885121D01*
X125045150Y-100832023D01*
X125113504Y-100812833D01*
X125160222Y-100822415D01*
X125180667Y-100830884D01*
X125180670Y-100830885D01*
X125188297Y-100834044D01*
X125345059Y-100854682D01*
X125465497Y-100838826D01*
X125535645Y-100849765D01*
X125588744Y-100896893D01*
X125607934Y-100965247D01*
X125606865Y-100980194D01*
X125600611Y-101027696D01*
X125594318Y-101075500D01*
X125614956Y-101232262D01*
X125675464Y-101378341D01*
X125771718Y-101503782D01*
X125897159Y-101600036D01*
X126043238Y-101660544D01*
X126051426Y-101661622D01*
X126121619Y-101670863D01*
X126200000Y-101681182D01*
X126208188Y-101680104D01*
X126348574Y-101661622D01*
X126356762Y-101660544D01*
X126502841Y-101600036D01*
X126628282Y-101503782D01*
X126724536Y-101378341D01*
X126785044Y-101232262D01*
X126805682Y-101075500D01*
X126786308Y-100928341D01*
X126786122Y-100926926D01*
X126785044Y-100918738D01*
X126724536Y-100772659D01*
X126628282Y-100647218D01*
X126607311Y-100631126D01*
X126521567Y-100565333D01*
X126502841Y-100550964D01*
X126356762Y-100490456D01*
X126200000Y-100469818D01*
X126079562Y-100485674D01*
X126009414Y-100474735D01*
X125956315Y-100427607D01*
X125937125Y-100359253D01*
X125938194Y-100344306D01*
X125949663Y-100257188D01*
X125950741Y-100249000D01*
X125930103Y-100092238D01*
X125869595Y-99946159D01*
X125773341Y-99820718D01*
X125647900Y-99724464D01*
X125520112Y-99671532D01*
X125509450Y-99667116D01*
X125501821Y-99663956D01*
X125441321Y-99655991D01*
X125359597Y-99645232D01*
X125345059Y-99643318D01*
X125330521Y-99645232D01*
X125248798Y-99655991D01*
X125188297Y-99663956D01*
X125180668Y-99667116D01*
X125170006Y-99671532D01*
X125042218Y-99724464D01*
X124916777Y-99820718D01*
X124820523Y-99946159D01*
X124760015Y-100092238D01*
X124739377Y-100249000D01*
X124740455Y-100257188D01*
X124741777Y-100267230D01*
X124730838Y-100337379D01*
X124683709Y-100390477D01*
X124615355Y-100409667D01*
X124568637Y-100400085D01*
X124548192Y-100391616D01*
X124548189Y-100391615D01*
X124540562Y-100388456D01*
X124522834Y-100386122D01*
X124391988Y-100368896D01*
X124383800Y-100367818D01*
X124375612Y-100368896D01*
X124244767Y-100386122D01*
X124227038Y-100388456D01*
X124080959Y-100448964D01*
X123955518Y-100545218D01*
X123859264Y-100670659D01*
X123798756Y-100816738D01*
X123797678Y-100824926D01*
X123794078Y-100852271D01*
X123778118Y-100973500D01*
X123008282Y-100973500D01*
X122992322Y-100852271D01*
X122988722Y-100824926D01*
X122987644Y-100816738D01*
X122927136Y-100670659D01*
X122830882Y-100545218D01*
X122705441Y-100448964D01*
X122559362Y-100388456D01*
X122541634Y-100386122D01*
X122410788Y-100368896D01*
X122402600Y-100367818D01*
X122394412Y-100368896D01*
X122263567Y-100386122D01*
X122245838Y-100388456D01*
X122099759Y-100448964D01*
X121974318Y-100545218D01*
X121878064Y-100670659D01*
X121817556Y-100816738D01*
X121816478Y-100824926D01*
X121812878Y-100852271D01*
X121796918Y-100973500D01*
X120224679Y-100973500D01*
X120160979Y-100895396D01*
X120132906Y-100860975D01*
X120132903Y-100860972D01*
X120129011Y-100856200D01*
X120122173Y-100850543D01*
X119975025Y-100728811D01*
X119975021Y-100728809D01*
X119970275Y-100724882D01*
X119789055Y-100626897D01*
X119592254Y-100565977D01*
X119586129Y-100565333D01*
X119586128Y-100565333D01*
X119393498Y-100545087D01*
X119393496Y-100545087D01*
X119387369Y-100544443D01*
X119306076Y-100551841D01*
X119188342Y-100562555D01*
X119188339Y-100562556D01*
X119182203Y-100563114D01*
X118984572Y-100621280D01*
X118802002Y-100716726D01*
X118797201Y-100720586D01*
X118797198Y-100720588D01*
X118646254Y-100841950D01*
X118641447Y-100845815D01*
X118509024Y-101003630D01*
X118506056Y-101009028D01*
X118506053Y-101009033D01*
X118432274Y-101143238D01*
X118409776Y-101184162D01*
X118347484Y-101380532D01*
X118346798Y-101386649D01*
X118346797Y-101386653D01*
X118327871Y-101555384D01*
X118324520Y-101585262D01*
X118325463Y-101596494D01*
X118335905Y-101720836D01*
X118341759Y-101790553D01*
X118343458Y-101796478D01*
X118389419Y-101956762D01*
X118398544Y-101988586D01*
X118401359Y-101994063D01*
X118401360Y-101994066D01*
X118489897Y-102166341D01*
X118492712Y-102171818D01*
X118620677Y-102333270D01*
X118777564Y-102466791D01*
X118957398Y-102567297D01*
X119022437Y-102588429D01*
X119081042Y-102628502D01*
X119108680Y-102693898D01*
X119096574Y-102763855D01*
X119048568Y-102816162D01*
X119022646Y-102828027D01*
X118856868Y-102882212D01*
X118847359Y-102886209D01*
X118658463Y-102984542D01*
X118649738Y-102990036D01*
X118479433Y-103117905D01*
X118471726Y-103124748D01*
X118324590Y-103278717D01*
X118318104Y-103286727D01*
X118198098Y-103462649D01*
X118193000Y-103471623D01*
X118103338Y-103664783D01*
X118099775Y-103674470D01*
X118044389Y-103874183D01*
X112793776Y-103874183D01*
X112792885Y-103868554D01*
X112739783Y-103647373D01*
X112736734Y-103637988D01*
X112649687Y-103427837D01*
X112645205Y-103419042D01*
X112542568Y-103251555D01*
X112532110Y-103242093D01*
X112523334Y-103245876D01*
X111672022Y-104097188D01*
X111664408Y-104111132D01*
X110934356Y-104111132D01*
X110935592Y-104108868D01*
X110935461Y-104107035D01*
X110931210Y-104100420D01*
X110079710Y-103248920D01*
X110067330Y-103242160D01*
X110059680Y-103247887D01*
X109954795Y-103419042D01*
X109950313Y-103427837D01*
X109863266Y-103637988D01*
X109860217Y-103647373D01*
X109807115Y-103868554D01*
X109805572Y-103878301D01*
X109787725Y-104105070D01*
X109787725Y-104114930D01*
X108746194Y-104114930D01*
X108746194Y-102877890D01*
X110432093Y-102877890D01*
X110435876Y-102886666D01*
X111287188Y-103737978D01*
X111301132Y-103745592D01*
X111302965Y-103745461D01*
X111309580Y-103741210D01*
X112161080Y-102889710D01*
X112167840Y-102877330D01*
X112162113Y-102869680D01*
X111990958Y-102764795D01*
X111982163Y-102760313D01*
X111772012Y-102673266D01*
X111762627Y-102670217D01*
X111541446Y-102617115D01*
X111531699Y-102615572D01*
X111304930Y-102597725D01*
X111295070Y-102597725D01*
X111068301Y-102615572D01*
X111058554Y-102617115D01*
X110837373Y-102670217D01*
X110827988Y-102673266D01*
X110617837Y-102760313D01*
X110609042Y-102764795D01*
X110441555Y-102867432D01*
X110432093Y-102877890D01*
X108746194Y-102877890D01*
X108746194Y-99735040D01*
X110094770Y-99735040D01*
X110109200Y-99955204D01*
X110110621Y-99960800D01*
X110110622Y-99960805D01*
X110156161Y-100140112D01*
X110163511Y-100169052D01*
X110165928Y-100174294D01*
X110165928Y-100174295D01*
X110240295Y-100335609D01*
X110255883Y-100369421D01*
X110383222Y-100549602D01*
X110541264Y-100703561D01*
X110546060Y-100706766D01*
X110546063Y-100706768D01*
X110630261Y-100763027D01*
X110724717Y-100826140D01*
X110730020Y-100828418D01*
X110730023Y-100828420D01*
X110889399Y-100896893D01*
X110927436Y-100913235D01*
X110993934Y-100928282D01*
X111136995Y-100960654D01*
X111137001Y-100960655D01*
X111142632Y-100961929D01*
X111148403Y-100962156D01*
X111148405Y-100962156D01*
X111216211Y-100964820D01*
X111363098Y-100970591D01*
X111472275Y-100954761D01*
X111575738Y-100939760D01*
X111575743Y-100939759D01*
X111581452Y-100938931D01*
X111586916Y-100937076D01*
X111586921Y-100937075D01*
X111784907Y-100869868D01*
X111784912Y-100869866D01*
X111790379Y-100868010D01*
X111811468Y-100856200D01*
X111881932Y-100816738D01*
X111982884Y-100760202D01*
X111987811Y-100756105D01*
X112143165Y-100626897D01*
X112152518Y-100619118D01*
X112208536Y-100551764D01*
X112289908Y-100453926D01*
X112289910Y-100453923D01*
X112293602Y-100449484D01*
X112368302Y-100316098D01*
X112398586Y-100262022D01*
X112398587Y-100262020D01*
X112401410Y-100256979D01*
X112403266Y-100251512D01*
X112403268Y-100251507D01*
X112470475Y-100053521D01*
X112470476Y-100053516D01*
X112472331Y-100048052D01*
X112473159Y-100042343D01*
X112473160Y-100042338D01*
X112495263Y-99889891D01*
X112503991Y-99829698D01*
X112505643Y-99766600D01*
X112485454Y-99546889D01*
X112476207Y-99514099D01*
X112443002Y-99396364D01*
X112425565Y-99334536D01*
X112327980Y-99136653D01*
X112320717Y-99126926D01*
X112259735Y-99045262D01*
X118324520Y-99045262D01*
X118325036Y-99051406D01*
X118340311Y-99233305D01*
X118341759Y-99250553D01*
X118343458Y-99256478D01*
X118396051Y-99439891D01*
X118398544Y-99448586D01*
X118401359Y-99454063D01*
X118401360Y-99454066D01*
X118478497Y-99604159D01*
X118492712Y-99631818D01*
X118620677Y-99793270D01*
X118625370Y-99797264D01*
X118625371Y-99797265D01*
X118734207Y-99889891D01*
X118777564Y-99926791D01*
X118782942Y-99929797D01*
X118782944Y-99929798D01*
X118814563Y-99947469D01*
X118957398Y-100027297D01*
X119038107Y-100053521D01*
X119147471Y-100089056D01*
X119147475Y-100089057D01*
X119153329Y-100090959D01*
X119357894Y-100115351D01*
X119364029Y-100114879D01*
X119364031Y-100114879D01*
X119433363Y-100109544D01*
X119563300Y-100099546D01*
X119569230Y-100097890D01*
X119569232Y-100097890D01*
X119728144Y-100053521D01*
X119761725Y-100044145D01*
X119767214Y-100041372D01*
X119767220Y-100041370D01*
X119940116Y-99954033D01*
X119945610Y-99951258D01*
X119952137Y-99946159D01*
X120036683Y-99880104D01*
X120107951Y-99824424D01*
X120112573Y-99819070D01*
X120238540Y-99673134D01*
X120238540Y-99673133D01*
X120242564Y-99668472D01*
X120252248Y-99651426D01*
X120311633Y-99546889D01*
X120344323Y-99489344D01*
X120409351Y-99293863D01*
X120435171Y-99089474D01*
X120435419Y-99071718D01*
X120435534Y-99063522D01*
X120435534Y-99063518D01*
X120435583Y-99060000D01*
X120415480Y-98854970D01*
X120355935Y-98657749D01*
X120259218Y-98475849D01*
X120169727Y-98366122D01*
X120132906Y-98320975D01*
X120132903Y-98320972D01*
X120129011Y-98316200D01*
X120122173Y-98310543D01*
X119975025Y-98188811D01*
X119975021Y-98188809D01*
X119970275Y-98184882D01*
X119789055Y-98086897D01*
X119752237Y-98075500D01*
X126876918Y-98075500D01*
X126897556Y-98232262D01*
X126958064Y-98378341D01*
X127054318Y-98503782D01*
X127179759Y-98600036D01*
X127325838Y-98660544D01*
X127444936Y-98676223D01*
X127489490Y-98695933D01*
X127537664Y-98673933D01*
X127631174Y-98661622D01*
X127639362Y-98660544D01*
X127785441Y-98600036D01*
X127910882Y-98503782D01*
X127912984Y-98501043D01*
X127973345Y-98468082D01*
X128044160Y-98473147D01*
X128100996Y-98515694D01*
X128125807Y-98582214D01*
X128118523Y-98627166D01*
X128120254Y-98627630D01*
X128118116Y-98635609D01*
X128114956Y-98643238D01*
X128094318Y-98800000D01*
X128114956Y-98956762D01*
X128115571Y-98958246D01*
X128113956Y-99026140D01*
X128074163Y-99084937D01*
X128008899Y-99112886D01*
X127938885Y-99101113D01*
X127917235Y-99087740D01*
X127809396Y-99004993D01*
X127809392Y-99004991D01*
X127802841Y-98999964D01*
X127656762Y-98939456D01*
X127537664Y-98923777D01*
X127493110Y-98904067D01*
X127444936Y-98926067D01*
X127351426Y-98938378D01*
X127343238Y-98939456D01*
X127197159Y-98999964D01*
X127071718Y-99096218D01*
X126975464Y-99221659D01*
X126943132Y-99299715D01*
X126920980Y-99353196D01*
X126914956Y-99367738D01*
X126913878Y-99375926D01*
X126909179Y-99411622D01*
X126894318Y-99524500D01*
X126914956Y-99681262D01*
X126975464Y-99827341D01*
X127071718Y-99952782D01*
X127197159Y-100049036D01*
X127204097Y-100051910D01*
X127252852Y-100103041D01*
X127266289Y-100172755D01*
X127240821Y-100237483D01*
X127180497Y-100316098D01*
X127180493Y-100316105D01*
X127175464Y-100322659D01*
X127114956Y-100468738D01*
X127094318Y-100625500D01*
X127095396Y-100633688D01*
X127106837Y-100720588D01*
X127114956Y-100782262D01*
X127175464Y-100928341D01*
X127271718Y-101053782D01*
X127278264Y-101058805D01*
X127303458Y-101078137D01*
X127397159Y-101150036D01*
X127543238Y-101210544D01*
X127551426Y-101211622D01*
X127600753Y-101218116D01*
X127700000Y-101231182D01*
X127708188Y-101230104D01*
X127848574Y-101211622D01*
X127856762Y-101210544D01*
X128002841Y-101150036D01*
X128096542Y-101078137D01*
X128121736Y-101058805D01*
X128128282Y-101053782D01*
X128224536Y-100928341D01*
X128282316Y-100788848D01*
X128326864Y-100733567D01*
X128394228Y-100711146D01*
X128446942Y-100720657D01*
X128543238Y-100760544D01*
X128700000Y-100781182D01*
X128708188Y-100780104D01*
X128848574Y-100761622D01*
X128856762Y-100760544D01*
X129002841Y-100700036D01*
X129098158Y-100626897D01*
X129121736Y-100608805D01*
X129128282Y-100603782D01*
X129207917Y-100500000D01*
X155894318Y-100500000D01*
X155895396Y-100508188D01*
X155913700Y-100647218D01*
X155914956Y-100656762D01*
X155918116Y-100664391D01*
X155920712Y-100670659D01*
X155975464Y-100802841D01*
X156043941Y-100892082D01*
X156065909Y-100920711D01*
X156071718Y-100928282D01*
X156197159Y-101024536D01*
X156343238Y-101085044D01*
X156500000Y-101105682D01*
X156508188Y-101104604D01*
X156648574Y-101086122D01*
X156656762Y-101085044D01*
X156802841Y-101024536D01*
X156928282Y-100928282D01*
X156934092Y-100920711D01*
X156956059Y-100892082D01*
X157024536Y-100802841D01*
X157079288Y-100670659D01*
X157081884Y-100664391D01*
X157085044Y-100656762D01*
X157086301Y-100647218D01*
X157104604Y-100508188D01*
X157105682Y-100500000D01*
X157095363Y-100421619D01*
X157086122Y-100351426D01*
X157085044Y-100343238D01*
X157024536Y-100197159D01*
X156944028Y-100092238D01*
X156933305Y-100078264D01*
X156928282Y-100071718D01*
X156802841Y-99975464D01*
X156656762Y-99914956D01*
X156500000Y-99894318D01*
X156343238Y-99914956D01*
X156197159Y-99975464D01*
X156071718Y-100071718D01*
X156066695Y-100078264D01*
X156055972Y-100092238D01*
X155975464Y-100197159D01*
X155914956Y-100343238D01*
X155913878Y-100351426D01*
X155904637Y-100421619D01*
X155894318Y-100500000D01*
X129207917Y-100500000D01*
X129224536Y-100478341D01*
X129285044Y-100332262D01*
X129295027Y-100256431D01*
X129323749Y-100191505D01*
X129383014Y-100152413D01*
X129454006Y-100151568D01*
X129496652Y-100172915D01*
X129597159Y-100250036D01*
X129743238Y-100310544D01*
X129900000Y-100331182D01*
X129908188Y-100330104D01*
X130048574Y-100311622D01*
X130056762Y-100310544D01*
X130202841Y-100250036D01*
X130292082Y-100181559D01*
X130321736Y-100158805D01*
X130328282Y-100153782D01*
X130424536Y-100028341D01*
X130485044Y-99882262D01*
X130505682Y-99725500D01*
X130485044Y-99568738D01*
X130481264Y-99559611D01*
X130435275Y-99448586D01*
X130424536Y-99422659D01*
X130341624Y-99314606D01*
X130333305Y-99303764D01*
X130328282Y-99297218D01*
X130299979Y-99275500D01*
X130694318Y-99275500D01*
X130714956Y-99432262D01*
X130775464Y-99578341D01*
X130871718Y-99703782D01*
X130878264Y-99708805D01*
X130900427Y-99725811D01*
X130997159Y-99800036D01*
X131143238Y-99860544D01*
X131300000Y-99881182D01*
X131308188Y-99880104D01*
X131448574Y-99861622D01*
X131456762Y-99860544D01*
X131602841Y-99800036D01*
X131699573Y-99725811D01*
X131721736Y-99708805D01*
X131728282Y-99703782D01*
X131824536Y-99578341D01*
X131856986Y-99500000D01*
X154594318Y-99500000D01*
X154614956Y-99656762D01*
X154675464Y-99802841D01*
X154771718Y-99928282D01*
X154897159Y-100024536D01*
X155043238Y-100085044D01*
X155200000Y-100105682D01*
X155208188Y-100104604D01*
X155221580Y-100102841D01*
X155356762Y-100085044D01*
X155502841Y-100024536D01*
X155628282Y-99928282D01*
X155724536Y-99802841D01*
X155785044Y-99656762D01*
X155805682Y-99500000D01*
X155785044Y-99343238D01*
X155724536Y-99197159D01*
X155628282Y-99071718D01*
X155502841Y-98975464D01*
X155356762Y-98914956D01*
X155200000Y-98894318D01*
X155043238Y-98914956D01*
X154897159Y-98975464D01*
X154771718Y-99071718D01*
X154675464Y-99197159D01*
X154614956Y-99343238D01*
X154594318Y-99500000D01*
X131856986Y-99500000D01*
X131885044Y-99432262D01*
X131895027Y-99356431D01*
X131923749Y-99291505D01*
X131983014Y-99252413D01*
X132054006Y-99251568D01*
X132096652Y-99272915D01*
X132197159Y-99350036D01*
X132343238Y-99410544D01*
X132351426Y-99411622D01*
X132385501Y-99416108D01*
X132500000Y-99431182D01*
X132508188Y-99430104D01*
X132648574Y-99411622D01*
X132656762Y-99410544D01*
X132802841Y-99350036D01*
X132893474Y-99280491D01*
X132921736Y-99258805D01*
X132928282Y-99253782D01*
X133024536Y-99128341D01*
X133077712Y-98999964D01*
X133081884Y-98989891D01*
X133085044Y-98982262D01*
X133090680Y-98939456D01*
X133104604Y-98833688D01*
X133105682Y-98825500D01*
X133085044Y-98668738D01*
X133024536Y-98522659D01*
X133007149Y-98500000D01*
X151594318Y-98500000D01*
X151614956Y-98656762D01*
X151618116Y-98664391D01*
X151622068Y-98673933D01*
X151675464Y-98802841D01*
X151771718Y-98928282D01*
X151778264Y-98933305D01*
X151784875Y-98938378D01*
X151897159Y-99024536D01*
X152043238Y-99085044D01*
X152200000Y-99105682D01*
X152208188Y-99104604D01*
X152221580Y-99102841D01*
X152356762Y-99085044D01*
X152502841Y-99024536D01*
X152615125Y-98938378D01*
X152621736Y-98933305D01*
X152628282Y-98928282D01*
X152724536Y-98802841D01*
X152777932Y-98673933D01*
X152781884Y-98664391D01*
X152785044Y-98656762D01*
X152805682Y-98500000D01*
X152785044Y-98343238D01*
X152724536Y-98197159D01*
X152646154Y-98095009D01*
X152633305Y-98078264D01*
X152628282Y-98071718D01*
X152502841Y-97975464D01*
X152356762Y-97914956D01*
X152323250Y-97910544D01*
X152208188Y-97895396D01*
X152200000Y-97894318D01*
X152191812Y-97895396D01*
X152076751Y-97910544D01*
X152043238Y-97914956D01*
X151897159Y-97975464D01*
X151771718Y-98071718D01*
X151766695Y-98078264D01*
X151753846Y-98095009D01*
X151675464Y-98197159D01*
X151614956Y-98343238D01*
X151594318Y-98500000D01*
X133007149Y-98500000D01*
X132928282Y-98397218D01*
X132802841Y-98300964D01*
X132656762Y-98240456D01*
X132500000Y-98219818D01*
X132343238Y-98240456D01*
X132197159Y-98300964D01*
X132071718Y-98397218D01*
X131975464Y-98522659D01*
X131914956Y-98668738D01*
X131913878Y-98676926D01*
X131904973Y-98744568D01*
X131876251Y-98809495D01*
X131816986Y-98848587D01*
X131745994Y-98849432D01*
X131703347Y-98828085D01*
X131699978Y-98825500D01*
X131602841Y-98750964D01*
X131469985Y-98695933D01*
X131464391Y-98693616D01*
X131456762Y-98690456D01*
X131300000Y-98669818D01*
X131143238Y-98690456D01*
X131135609Y-98693616D01*
X131130015Y-98695933D01*
X130997159Y-98750964D01*
X130990608Y-98755991D01*
X130900022Y-98825500D01*
X130871718Y-98847218D01*
X130775464Y-98972659D01*
X130728957Y-99084937D01*
X130720811Y-99104604D01*
X130714956Y-99118738D01*
X130694318Y-99275500D01*
X130299979Y-99275500D01*
X130239755Y-99229289D01*
X130202841Y-99200964D01*
X130056762Y-99140456D01*
X129992730Y-99132026D01*
X129908188Y-99120896D01*
X129900000Y-99119818D01*
X129891812Y-99120896D01*
X129807271Y-99132026D01*
X129743238Y-99140456D01*
X129597159Y-99200964D01*
X129560245Y-99229289D01*
X129500022Y-99275500D01*
X129471718Y-99297218D01*
X129466695Y-99303764D01*
X129458376Y-99314606D01*
X129375464Y-99422659D01*
X129364725Y-99448586D01*
X129318737Y-99559611D01*
X129314956Y-99568738D01*
X129304996Y-99644396D01*
X129304973Y-99644568D01*
X129276251Y-99709495D01*
X129216986Y-99748587D01*
X129145994Y-99749432D01*
X129103347Y-99728085D01*
X129002841Y-99650964D01*
X128889844Y-99604159D01*
X128834563Y-99559611D01*
X128812142Y-99492247D01*
X128829700Y-99423456D01*
X128881662Y-99375078D01*
X128889844Y-99371341D01*
X128925837Y-99356432D01*
X129002841Y-99324536D01*
X129128282Y-99228282D01*
X129224536Y-99102841D01*
X129285044Y-98956762D01*
X129305682Y-98800000D01*
X129285044Y-98643238D01*
X129224536Y-98497159D01*
X129128282Y-98371718D01*
X129002841Y-98275464D01*
X128856762Y-98214956D01*
X128844222Y-98213305D01*
X128756346Y-98201736D01*
X128700000Y-98194318D01*
X128643654Y-98201736D01*
X128555779Y-98213305D01*
X128543238Y-98214956D01*
X128397159Y-98275464D01*
X128271718Y-98371718D01*
X128269616Y-98374457D01*
X128209255Y-98407418D01*
X128138440Y-98402353D01*
X128081604Y-98359806D01*
X128056793Y-98293286D01*
X128064077Y-98248334D01*
X128062346Y-98247870D01*
X128064484Y-98239891D01*
X128067644Y-98232262D01*
X128088282Y-98075500D01*
X128067644Y-97918738D01*
X128007136Y-97772659D01*
X127910882Y-97647218D01*
X127785441Y-97550964D01*
X127639362Y-97490456D01*
X127629830Y-97489201D01*
X127490788Y-97470896D01*
X127482600Y-97469818D01*
X127474412Y-97470896D01*
X127335371Y-97489201D01*
X127325838Y-97490456D01*
X127179759Y-97550964D01*
X127054318Y-97647218D01*
X126958064Y-97772659D01*
X126897556Y-97918738D01*
X126876918Y-98075500D01*
X119752237Y-98075500D01*
X119592254Y-98025977D01*
X119586129Y-98025333D01*
X119586128Y-98025333D01*
X119393498Y-98005087D01*
X119393496Y-98005087D01*
X119387369Y-98004443D01*
X119300529Y-98012346D01*
X119188342Y-98022555D01*
X119188339Y-98022556D01*
X119182203Y-98023114D01*
X118984572Y-98081280D01*
X118802002Y-98176726D01*
X118797201Y-98180586D01*
X118797198Y-98180588D01*
X118718807Y-98243616D01*
X118641447Y-98305815D01*
X118509024Y-98463630D01*
X118506056Y-98469028D01*
X118506053Y-98469033D01*
X118414478Y-98635609D01*
X118409776Y-98644162D01*
X118347484Y-98840532D01*
X118346798Y-98846649D01*
X118346797Y-98846653D01*
X118330731Y-98989891D01*
X118324520Y-99045262D01*
X112259735Y-99045262D01*
X112199420Y-98964491D01*
X112199420Y-98964490D01*
X112195967Y-98959867D01*
X112082490Y-98854970D01*
X112038189Y-98814018D01*
X112038186Y-98814016D01*
X112033949Y-98810099D01*
X111847350Y-98692364D01*
X111642421Y-98610606D01*
X111636761Y-98609480D01*
X111636757Y-98609479D01*
X111431691Y-98568689D01*
X111431688Y-98568689D01*
X111426024Y-98567562D01*
X111420249Y-98567486D01*
X111420245Y-98567486D01*
X111309504Y-98566037D01*
X111205406Y-98564674D01*
X111199709Y-98565653D01*
X111199708Y-98565653D01*
X110993654Y-98601059D01*
X110993653Y-98601059D01*
X110987957Y-98602038D01*
X110780957Y-98678404D01*
X110775996Y-98681356D01*
X110775995Y-98681356D01*
X110669746Y-98744568D01*
X110591341Y-98791214D01*
X110425457Y-98936690D01*
X110288863Y-99109960D01*
X110186131Y-99305220D01*
X110120703Y-99515933D01*
X110094770Y-99735040D01*
X108746194Y-99735040D01*
X108746194Y-96505262D01*
X118324520Y-96505262D01*
X118325036Y-96511406D01*
X118332979Y-96605991D01*
X118341759Y-96710553D01*
X118343458Y-96716478D01*
X118391405Y-96883688D01*
X118398544Y-96908586D01*
X118401359Y-96914063D01*
X118401360Y-96914066D01*
X118489897Y-97086341D01*
X118492712Y-97091818D01*
X118620677Y-97253270D01*
X118625370Y-97257264D01*
X118625371Y-97257265D01*
X118739337Y-97354257D01*
X118777564Y-97386791D01*
X118782942Y-97389797D01*
X118782944Y-97389798D01*
X118863630Y-97434892D01*
X118957398Y-97487297D01*
X119052238Y-97518113D01*
X119147471Y-97549056D01*
X119147475Y-97549057D01*
X119153329Y-97550959D01*
X119357894Y-97575351D01*
X119364029Y-97574879D01*
X119364031Y-97574879D01*
X119420039Y-97570569D01*
X119563300Y-97559546D01*
X119569230Y-97557890D01*
X119569232Y-97557890D01*
X119755797Y-97505800D01*
X119755796Y-97505800D01*
X119761725Y-97504145D01*
X119767214Y-97501372D01*
X119767220Y-97501370D01*
X119911791Y-97428341D01*
X119945610Y-97411258D01*
X120055376Y-97325500D01*
X129315318Y-97325500D01*
X129335956Y-97482262D01*
X129396464Y-97628341D01*
X129492718Y-97753782D01*
X129618159Y-97850036D01*
X129764238Y-97910544D01*
X129772426Y-97911622D01*
X129821753Y-97918116D01*
X129921000Y-97931182D01*
X129929188Y-97930104D01*
X130069574Y-97911622D01*
X130077762Y-97910544D01*
X130223841Y-97850036D01*
X130349282Y-97753782D01*
X130445536Y-97628341D01*
X130498102Y-97501436D01*
X130542651Y-97446155D01*
X130610014Y-97423734D01*
X130662729Y-97433245D01*
X130721005Y-97457384D01*
X130721008Y-97457385D01*
X130728635Y-97460544D01*
X130885397Y-97481182D01*
X130893585Y-97480104D01*
X131033971Y-97461622D01*
X131042159Y-97460544D01*
X131188238Y-97400036D01*
X131277479Y-97331559D01*
X131307133Y-97308805D01*
X131313679Y-97303782D01*
X131325626Y-97288213D01*
X131373767Y-97225473D01*
X131409933Y-97178341D01*
X131470441Y-97032262D01*
X131491079Y-96875500D01*
X131475065Y-96753863D01*
X131471519Y-96726926D01*
X131470441Y-96718738D01*
X131452531Y-96675500D01*
X146104718Y-96675500D01*
X146125356Y-96832262D01*
X146185864Y-96978341D01*
X146282118Y-97103782D01*
X146288664Y-97108805D01*
X146314295Y-97128472D01*
X146407559Y-97200036D01*
X146553638Y-97260544D01*
X146710400Y-97281182D01*
X146718588Y-97280104D01*
X146721156Y-97279766D01*
X146867162Y-97260544D01*
X147013241Y-97200036D01*
X147019861Y-97194956D01*
X147029968Y-97187202D01*
X147096189Y-97161604D01*
X147165737Y-97175870D01*
X147216532Y-97225473D01*
X147231591Y-97270721D01*
X147233110Y-97282262D01*
X147293618Y-97428341D01*
X147389872Y-97553782D01*
X147396418Y-97558805D01*
X147426072Y-97581559D01*
X147515313Y-97650036D01*
X147661392Y-97710544D01*
X147818154Y-97731182D01*
X147826342Y-97730104D01*
X147966728Y-97711622D01*
X147974916Y-97710544D01*
X147982543Y-97707385D01*
X147982546Y-97707384D01*
X148055716Y-97677076D01*
X148126306Y-97669487D01*
X148189793Y-97701267D01*
X148220343Y-97745266D01*
X148275464Y-97878341D01*
X148371718Y-98003782D01*
X148378264Y-98008805D01*
X148396912Y-98023114D01*
X148497159Y-98100036D01*
X148643238Y-98160544D01*
X148800000Y-98181182D01*
X148808188Y-98180104D01*
X148948574Y-98161622D01*
X148956762Y-98160544D01*
X149102841Y-98100036D01*
X149203088Y-98023114D01*
X149221736Y-98008805D01*
X149228282Y-98003782D01*
X149324536Y-97878341D01*
X149365270Y-97780000D01*
X165574318Y-97780000D01*
X165594956Y-97936762D01*
X165655464Y-98082841D01*
X165751718Y-98208282D01*
X165877159Y-98304536D01*
X166023238Y-98365044D01*
X166031426Y-98366122D01*
X166066283Y-98370711D01*
X166180000Y-98385682D01*
X166188188Y-98384604D01*
X166328574Y-98366122D01*
X166336762Y-98365044D01*
X166482841Y-98304536D01*
X166608282Y-98208282D01*
X166704536Y-98082841D01*
X166765044Y-97936762D01*
X166785682Y-97780000D01*
X166765044Y-97623238D01*
X166704536Y-97477159D01*
X166645330Y-97400000D01*
X178394318Y-97400000D01*
X178414956Y-97556762D01*
X178475464Y-97702841D01*
X178571718Y-97828282D01*
X178697159Y-97924536D01*
X178843238Y-97985044D01*
X179000000Y-98005682D01*
X179008188Y-98004604D01*
X179148574Y-97986122D01*
X179156762Y-97985044D01*
X179302841Y-97924536D01*
X179428282Y-97828282D01*
X179524536Y-97702841D01*
X179585044Y-97556762D01*
X179605682Y-97400000D01*
X179585044Y-97243238D01*
X179524536Y-97097159D01*
X179428282Y-96971718D01*
X179302841Y-96875464D01*
X179156762Y-96814956D01*
X179000000Y-96794318D01*
X178843238Y-96814956D01*
X178697159Y-96875464D01*
X178571718Y-96971718D01*
X178475464Y-97097159D01*
X178414956Y-97243238D01*
X178394318Y-97400000D01*
X166645330Y-97400000D01*
X166608282Y-97351718D01*
X166482841Y-97255464D01*
X166336762Y-97194956D01*
X166180000Y-97174318D01*
X166023238Y-97194956D01*
X165877159Y-97255464D01*
X165751718Y-97351718D01*
X165655464Y-97477159D01*
X165594956Y-97623238D01*
X165574318Y-97780000D01*
X149365270Y-97780000D01*
X149385044Y-97732262D01*
X149405682Y-97575500D01*
X149389737Y-97454386D01*
X149386122Y-97426926D01*
X149385044Y-97418738D01*
X149324536Y-97272659D01*
X149228282Y-97147218D01*
X149199979Y-97125500D01*
X149109392Y-97055991D01*
X149102841Y-97050964D01*
X148956762Y-96990456D01*
X148800000Y-96969818D01*
X148643238Y-96990456D01*
X148635611Y-96993615D01*
X148635608Y-96993616D01*
X148562438Y-97023924D01*
X148491848Y-97031513D01*
X148428361Y-96999733D01*
X148397811Y-96955733D01*
X148373573Y-96897218D01*
X148342690Y-96822659D01*
X148246436Y-96697218D01*
X148218133Y-96675500D01*
X148171081Y-96639396D01*
X148120995Y-96600964D01*
X147974916Y-96540456D01*
X147818154Y-96519818D01*
X147661392Y-96540456D01*
X147515313Y-96600964D01*
X147508762Y-96605991D01*
X147508759Y-96605993D01*
X147498586Y-96613798D01*
X147432365Y-96639396D01*
X147362817Y-96625130D01*
X147312022Y-96575527D01*
X147296963Y-96530279D01*
X147295444Y-96518738D01*
X147289862Y-96505262D01*
X181824520Y-96505262D01*
X181825036Y-96511406D01*
X181832979Y-96605991D01*
X181841759Y-96710553D01*
X181843458Y-96716478D01*
X181891405Y-96883688D01*
X181898544Y-96908586D01*
X181901359Y-96914063D01*
X181901360Y-96914066D01*
X181989897Y-97086341D01*
X181992712Y-97091818D01*
X182120677Y-97253270D01*
X182125370Y-97257264D01*
X182125371Y-97257265D01*
X182239337Y-97354257D01*
X182277564Y-97386791D01*
X182282942Y-97389797D01*
X182282944Y-97389798D01*
X182363630Y-97434892D01*
X182457398Y-97487297D01*
X182552238Y-97518113D01*
X182647471Y-97549056D01*
X182647475Y-97549057D01*
X182653329Y-97550959D01*
X182857894Y-97575351D01*
X182864029Y-97574879D01*
X182864031Y-97574879D01*
X182920039Y-97570569D01*
X183063300Y-97559546D01*
X183069230Y-97557890D01*
X183069232Y-97557890D01*
X183255797Y-97505800D01*
X183255796Y-97505800D01*
X183261725Y-97504145D01*
X183267214Y-97501372D01*
X183267220Y-97501370D01*
X183411791Y-97428341D01*
X183445610Y-97411258D01*
X183607951Y-97284424D01*
X183616881Y-97274079D01*
X183738540Y-97133134D01*
X183738540Y-97133133D01*
X183742564Y-97128472D01*
X183753737Y-97108805D01*
X183801870Y-97024074D01*
X183844323Y-96949344D01*
X183909351Y-96753863D01*
X183935171Y-96549474D01*
X183935583Y-96520000D01*
X183916389Y-96324240D01*
X187051770Y-96324240D01*
X187066200Y-96544404D01*
X187067621Y-96550000D01*
X187067622Y-96550005D01*
X187097415Y-96667312D01*
X187120511Y-96758252D01*
X187122928Y-96763494D01*
X187122928Y-96763495D01*
X187161046Y-96846179D01*
X187212883Y-96958621D01*
X187340222Y-97138802D01*
X187498264Y-97292761D01*
X187503060Y-97295966D01*
X187503063Y-97295968D01*
X187596296Y-97358264D01*
X187681717Y-97415340D01*
X187687020Y-97417618D01*
X187687023Y-97417620D01*
X187832459Y-97480104D01*
X187884436Y-97502435D01*
X187964088Y-97520458D01*
X188093995Y-97549854D01*
X188094001Y-97549855D01*
X188099632Y-97551129D01*
X188105403Y-97551356D01*
X188105405Y-97551356D01*
X188167156Y-97553782D01*
X188320098Y-97559791D01*
X188429275Y-97543961D01*
X188532738Y-97528960D01*
X188532743Y-97528959D01*
X188538452Y-97528131D01*
X188543916Y-97526276D01*
X188543921Y-97526275D01*
X188741907Y-97459068D01*
X188741912Y-97459066D01*
X188747379Y-97457210D01*
X188939884Y-97349402D01*
X188988697Y-97308805D01*
X189105086Y-97212004D01*
X189109518Y-97208318D01*
X189175926Y-97128472D01*
X189246908Y-97043126D01*
X189246910Y-97043123D01*
X189250602Y-97038684D01*
X189339194Y-96880491D01*
X189355586Y-96851222D01*
X189355587Y-96851220D01*
X189358410Y-96846179D01*
X189360266Y-96840712D01*
X189360268Y-96840707D01*
X189427475Y-96642721D01*
X189427476Y-96642716D01*
X189429331Y-96637252D01*
X189430159Y-96631543D01*
X189430160Y-96631538D01*
X189453674Y-96469360D01*
X189460991Y-96418898D01*
X189462643Y-96355800D01*
X189442454Y-96136089D01*
X189420824Y-96059392D01*
X189399427Y-95983526D01*
X189382565Y-95923736D01*
X189284980Y-95725853D01*
X189218426Y-95636726D01*
X189156420Y-95553691D01*
X189156420Y-95553690D01*
X189152967Y-95549067D01*
X189035637Y-95440608D01*
X188995189Y-95403218D01*
X188995186Y-95403216D01*
X188990949Y-95399299D01*
X188804350Y-95281564D01*
X188599421Y-95199806D01*
X188593761Y-95198680D01*
X188593757Y-95198679D01*
X188388691Y-95157889D01*
X188388688Y-95157889D01*
X188383024Y-95156762D01*
X188377249Y-95156686D01*
X188377245Y-95156686D01*
X188266504Y-95155237D01*
X188162406Y-95153874D01*
X188156709Y-95154853D01*
X188156708Y-95154853D01*
X187950654Y-95190259D01*
X187950653Y-95190259D01*
X187944957Y-95191238D01*
X187737957Y-95267604D01*
X187732996Y-95270556D01*
X187732995Y-95270556D01*
X187583834Y-95359298D01*
X187548341Y-95380414D01*
X187382457Y-95525890D01*
X187245863Y-95699160D01*
X187143131Y-95894420D01*
X187077703Y-96105133D01*
X187051770Y-96324240D01*
X183916389Y-96324240D01*
X183915480Y-96314970D01*
X183855935Y-96117749D01*
X183759218Y-95935849D01*
X183637476Y-95786579D01*
X183632906Y-95780975D01*
X183632903Y-95780972D01*
X183629011Y-95776200D01*
X183611786Y-95761950D01*
X183475025Y-95648811D01*
X183475021Y-95648809D01*
X183470275Y-95644882D01*
X183289055Y-95546897D01*
X183092254Y-95485977D01*
X183086129Y-95485333D01*
X183086128Y-95485333D01*
X182893498Y-95465087D01*
X182893496Y-95465087D01*
X182887369Y-95464443D01*
X182800529Y-95472346D01*
X182688342Y-95482555D01*
X182688339Y-95482556D01*
X182682203Y-95483114D01*
X182484572Y-95541280D01*
X182479107Y-95544137D01*
X182473828Y-95546897D01*
X182302002Y-95636726D01*
X182297201Y-95640586D01*
X182297198Y-95640588D01*
X182156340Y-95753841D01*
X182141447Y-95765815D01*
X182009024Y-95923630D01*
X182006056Y-95929028D01*
X182006053Y-95929033D01*
X181917311Y-96090456D01*
X181909776Y-96104162D01*
X181847484Y-96300532D01*
X181846798Y-96306649D01*
X181846797Y-96306653D01*
X181834623Y-96415189D01*
X181824520Y-96505262D01*
X147289862Y-96505262D01*
X147234936Y-96372659D01*
X147138682Y-96247218D01*
X147013241Y-96150964D01*
X146867162Y-96090456D01*
X146710400Y-96069818D01*
X146553638Y-96090456D01*
X146407559Y-96150964D01*
X146282118Y-96247218D01*
X146185864Y-96372659D01*
X146125356Y-96518738D01*
X146104718Y-96675500D01*
X131452531Y-96675500D01*
X131409933Y-96572659D01*
X131313679Y-96447218D01*
X131188238Y-96350964D01*
X131042159Y-96290456D01*
X131009133Y-96286108D01*
X130893585Y-96270896D01*
X130885397Y-96269818D01*
X130877209Y-96270896D01*
X130761662Y-96286108D01*
X130728635Y-96290456D01*
X130582556Y-96350964D01*
X130457115Y-96447218D01*
X130360861Y-96572659D01*
X130334106Y-96637252D01*
X130308295Y-96699564D01*
X130263746Y-96754845D01*
X130196383Y-96777266D01*
X130143668Y-96767755D01*
X130085392Y-96743616D01*
X130085389Y-96743615D01*
X130077762Y-96740456D01*
X129921000Y-96719818D01*
X129764238Y-96740456D01*
X129618159Y-96800964D01*
X129552661Y-96851222D01*
X129521022Y-96875500D01*
X129492718Y-96897218D01*
X129396464Y-97022659D01*
X129335956Y-97168738D01*
X129315318Y-97325500D01*
X120055376Y-97325500D01*
X120107951Y-97284424D01*
X120116881Y-97274079D01*
X120238540Y-97133134D01*
X120238540Y-97133133D01*
X120242564Y-97128472D01*
X120253737Y-97108805D01*
X120301870Y-97024074D01*
X120344323Y-96949344D01*
X120409351Y-96753863D01*
X120435171Y-96549474D01*
X120435583Y-96520000D01*
X120415480Y-96314970D01*
X120355935Y-96117749D01*
X120259218Y-95935849D01*
X120137476Y-95786579D01*
X120132906Y-95780975D01*
X120132903Y-95780972D01*
X120129011Y-95776200D01*
X120111786Y-95761950D01*
X120097341Y-95750000D01*
X134714318Y-95750000D01*
X134734956Y-95906762D01*
X134795464Y-96052841D01*
X134891718Y-96178282D01*
X135017159Y-96274536D01*
X135163238Y-96335044D01*
X135320000Y-96355682D01*
X135328188Y-96354604D01*
X135468574Y-96336122D01*
X135476762Y-96335044D01*
X135622841Y-96274536D01*
X135748282Y-96178282D01*
X135844536Y-96052841D01*
X135905044Y-95906762D01*
X135925682Y-95750000D01*
X135910393Y-95633869D01*
X135906122Y-95601426D01*
X135905044Y-95593238D01*
X135846127Y-95451000D01*
X136394318Y-95451000D01*
X136395396Y-95459188D01*
X136412040Y-95585609D01*
X136414956Y-95607762D01*
X136475464Y-95753841D01*
X136571718Y-95879282D01*
X136697159Y-95975536D01*
X136843238Y-96036044D01*
X137000000Y-96056682D01*
X137008188Y-96055604D01*
X137148574Y-96037122D01*
X137156762Y-96036044D01*
X137302841Y-95975536D01*
X137428282Y-95879282D01*
X137524536Y-95753841D01*
X137585044Y-95607762D01*
X137587961Y-95585609D01*
X137604604Y-95459188D01*
X137605682Y-95451000D01*
X144294318Y-95451000D01*
X144295396Y-95459188D01*
X144312040Y-95585609D01*
X144314956Y-95607762D01*
X144375464Y-95753841D01*
X144471718Y-95879282D01*
X144597159Y-95975536D01*
X144743238Y-96036044D01*
X144900000Y-96056682D01*
X144908188Y-96055604D01*
X145048574Y-96037122D01*
X145056762Y-96036044D01*
X145202841Y-95975536D01*
X145328282Y-95879282D01*
X145424536Y-95753841D01*
X145485044Y-95607762D01*
X145487961Y-95585609D01*
X145504604Y-95459188D01*
X145505682Y-95451000D01*
X145505616Y-95450500D01*
X178394318Y-95450500D01*
X178414956Y-95607262D01*
X178475464Y-95753341D01*
X178571718Y-95878782D01*
X178578264Y-95883805D01*
X178598094Y-95899021D01*
X178697159Y-95975036D01*
X178843238Y-96035544D01*
X179000000Y-96056182D01*
X179008188Y-96055104D01*
X179025378Y-96052841D01*
X179156762Y-96035544D01*
X179302841Y-95975036D01*
X179401906Y-95899021D01*
X179421736Y-95883805D01*
X179428282Y-95878782D01*
X179524536Y-95753341D01*
X179585044Y-95607262D01*
X179605682Y-95450500D01*
X179585044Y-95293738D01*
X179524536Y-95147659D01*
X179428282Y-95022218D01*
X179302841Y-94925964D01*
X179167008Y-94869700D01*
X179164391Y-94868616D01*
X179156762Y-94865456D01*
X179000000Y-94844818D01*
X178843238Y-94865456D01*
X178835609Y-94868616D01*
X178832992Y-94869700D01*
X178697159Y-94925964D01*
X178571718Y-95022218D01*
X178475464Y-95147659D01*
X178414956Y-95293738D01*
X178394318Y-95450500D01*
X145505616Y-95450500D01*
X145485044Y-95294238D01*
X145424536Y-95148159D01*
X145337976Y-95035351D01*
X145333305Y-95029264D01*
X145328282Y-95022718D01*
X145202841Y-94926464D01*
X145056762Y-94865956D01*
X144900000Y-94845318D01*
X144743238Y-94865956D01*
X144597159Y-94926464D01*
X144471718Y-95022718D01*
X144466695Y-95029264D01*
X144462024Y-95035351D01*
X144375464Y-95148159D01*
X144314956Y-95294238D01*
X144294318Y-95451000D01*
X137605682Y-95451000D01*
X137604604Y-95442809D01*
X137601048Y-95415795D01*
X137611988Y-95345647D01*
X137659117Y-95292549D01*
X137727471Y-95273360D01*
X137774189Y-95282943D01*
X137835605Y-95308383D01*
X137835610Y-95308384D01*
X137843238Y-95311544D01*
X138000000Y-95332182D01*
X138008188Y-95331104D01*
X138148574Y-95312622D01*
X138156762Y-95311544D01*
X138302841Y-95251036D01*
X138428282Y-95154782D01*
X138524536Y-95029341D01*
X138585044Y-94883262D01*
X138605682Y-94726500D01*
X140394318Y-94726500D01*
X140414956Y-94883262D01*
X140475464Y-95029341D01*
X140571718Y-95154782D01*
X140697159Y-95251036D01*
X140843238Y-95311544D01*
X141000000Y-95332182D01*
X141008188Y-95331104D01*
X141148574Y-95312622D01*
X141156762Y-95311544D01*
X141302841Y-95251036D01*
X141428282Y-95154782D01*
X141524536Y-95029341D01*
X141585044Y-94883262D01*
X141605682Y-94726500D01*
X141585044Y-94569738D01*
X141524536Y-94423659D01*
X141448544Y-94324624D01*
X141433305Y-94304764D01*
X141428282Y-94298218D01*
X141302841Y-94201964D01*
X141156762Y-94141456D01*
X141147268Y-94140206D01*
X141008188Y-94121896D01*
X141000000Y-94120818D01*
X140991812Y-94121896D01*
X140852733Y-94140206D01*
X140843238Y-94141456D01*
X140697159Y-94201964D01*
X140571718Y-94298218D01*
X140566695Y-94304764D01*
X140551456Y-94324624D01*
X140475464Y-94423659D01*
X140414956Y-94569738D01*
X140394318Y-94726500D01*
X138605682Y-94726500D01*
X138585044Y-94569738D01*
X138524536Y-94423659D01*
X138448544Y-94324624D01*
X138433305Y-94304764D01*
X138428282Y-94298218D01*
X138302841Y-94201964D01*
X138156762Y-94141456D01*
X138147268Y-94140206D01*
X138008188Y-94121896D01*
X138000000Y-94120818D01*
X137991812Y-94121896D01*
X137852733Y-94140206D01*
X137843238Y-94141456D01*
X137771122Y-94171327D01*
X137700535Y-94178916D01*
X137637048Y-94147137D01*
X137600820Y-94086079D01*
X137597984Y-94038472D01*
X137601774Y-94009688D01*
X137603049Y-94000000D01*
X143094318Y-94000000D01*
X143114956Y-94156762D01*
X143175464Y-94302841D01*
X143189255Y-94320814D01*
X143261302Y-94414707D01*
X143271718Y-94428282D01*
X143397159Y-94524536D01*
X143543238Y-94585044D01*
X143551426Y-94586122D01*
X143562820Y-94587622D01*
X143700000Y-94605682D01*
X143708188Y-94604604D01*
X143848574Y-94586122D01*
X143856762Y-94585044D01*
X144002841Y-94524536D01*
X144128282Y-94428282D01*
X144138699Y-94414707D01*
X144210745Y-94320814D01*
X144224536Y-94302841D01*
X144285044Y-94156762D01*
X144305485Y-94001500D01*
X151954318Y-94001500D01*
X151955396Y-94009688D01*
X151972431Y-94139079D01*
X151974956Y-94158262D01*
X152035464Y-94304341D01*
X152048104Y-94320814D01*
X152115221Y-94408282D01*
X152131718Y-94429782D01*
X152257159Y-94526036D01*
X152403238Y-94586544D01*
X152411426Y-94587622D01*
X152453294Y-94593134D01*
X152560000Y-94607182D01*
X152568188Y-94606104D01*
X152571394Y-94605682D01*
X152666706Y-94593134D01*
X152708574Y-94587622D01*
X152716762Y-94586544D01*
X152862841Y-94526036D01*
X152988282Y-94429782D01*
X153004780Y-94408282D01*
X153071896Y-94320814D01*
X153084536Y-94304341D01*
X153145044Y-94158262D01*
X153147570Y-94139079D01*
X153164604Y-94009688D01*
X153165682Y-94001500D01*
X153145044Y-93844738D01*
X153118229Y-93780000D01*
X168334318Y-93780000D01*
X168354956Y-93936762D01*
X168415464Y-94082841D01*
X168511718Y-94208282D01*
X168637159Y-94304536D01*
X168783238Y-94365044D01*
X168940000Y-94385682D01*
X168948188Y-94384604D01*
X169088574Y-94366122D01*
X169096762Y-94365044D01*
X169242841Y-94304536D01*
X169368282Y-94208282D01*
X169464536Y-94082841D01*
X169498850Y-94000000D01*
X174694318Y-94000000D01*
X174714956Y-94156762D01*
X174775464Y-94302841D01*
X174789255Y-94320814D01*
X174861302Y-94414707D01*
X174871718Y-94428282D01*
X174997159Y-94524536D01*
X175143238Y-94585044D01*
X175151426Y-94586122D01*
X175162820Y-94587622D01*
X175300000Y-94605682D01*
X175308188Y-94604604D01*
X175448574Y-94586122D01*
X175456762Y-94585044D01*
X175602841Y-94524536D01*
X175728282Y-94428282D01*
X175738699Y-94414707D01*
X175810745Y-94320814D01*
X175824536Y-94302841D01*
X175885044Y-94156762D01*
X175905682Y-94000000D01*
X175901109Y-93965262D01*
X181824520Y-93965262D01*
X181826875Y-93993312D01*
X181841242Y-94164391D01*
X181841759Y-94170553D01*
X181843458Y-94176478D01*
X181891385Y-94343618D01*
X181898544Y-94368586D01*
X181901359Y-94374063D01*
X181901360Y-94374066D01*
X181989897Y-94546341D01*
X181992712Y-94551818D01*
X182120677Y-94713270D01*
X182277564Y-94846791D01*
X182282942Y-94849797D01*
X182282944Y-94849798D01*
X182363031Y-94894557D01*
X182457398Y-94947297D01*
X182552238Y-94978113D01*
X182647471Y-95009056D01*
X182647475Y-95009057D01*
X182653329Y-95010959D01*
X182857894Y-95035351D01*
X182864029Y-95034879D01*
X182864031Y-95034879D01*
X182920039Y-95030569D01*
X183063300Y-95019546D01*
X183069230Y-95017890D01*
X183069232Y-95017890D01*
X183255797Y-94965800D01*
X183255796Y-94965800D01*
X183261725Y-94964145D01*
X183267214Y-94961372D01*
X183267220Y-94961370D01*
X183421846Y-94883262D01*
X183445610Y-94871258D01*
X183452397Y-94865956D01*
X183603101Y-94748213D01*
X183607951Y-94744424D01*
X183616353Y-94734691D01*
X183738540Y-94593134D01*
X183738540Y-94593133D01*
X183742564Y-94588472D01*
X183753207Y-94569738D01*
X183811973Y-94466290D01*
X183844323Y-94409344D01*
X183909351Y-94213863D01*
X183935171Y-94009474D01*
X183935583Y-93980000D01*
X183915480Y-93774970D01*
X183855935Y-93577749D01*
X183759218Y-93395849D01*
X183676422Y-93294331D01*
X183632906Y-93240975D01*
X183632903Y-93240972D01*
X183629011Y-93236200D01*
X183624262Y-93232271D01*
X183475025Y-93108811D01*
X183475021Y-93108809D01*
X183470275Y-93104882D01*
X183289055Y-93006897D01*
X183092254Y-92945977D01*
X183086129Y-92945333D01*
X183086128Y-92945333D01*
X182893498Y-92925087D01*
X182893496Y-92925087D01*
X182887369Y-92924443D01*
X182800529Y-92932346D01*
X182688342Y-92942555D01*
X182688339Y-92942556D01*
X182682203Y-92943114D01*
X182484572Y-93001280D01*
X182302002Y-93096726D01*
X182297201Y-93100586D01*
X182297198Y-93100588D01*
X182204156Y-93175396D01*
X182141447Y-93225815D01*
X182009024Y-93383630D01*
X182006056Y-93389028D01*
X182006053Y-93389033D01*
X181916617Y-93551718D01*
X181909776Y-93564162D01*
X181847484Y-93760532D01*
X181846798Y-93766649D01*
X181846797Y-93766653D01*
X181837120Y-93852926D01*
X181824520Y-93965262D01*
X175901109Y-93965262D01*
X175885044Y-93843238D01*
X175824536Y-93697159D01*
X175728282Y-93571718D01*
X175602841Y-93475464D01*
X175456762Y-93414956D01*
X175300000Y-93394318D01*
X175143238Y-93414956D01*
X174997159Y-93475464D01*
X174871718Y-93571718D01*
X174775464Y-93697159D01*
X174714956Y-93843238D01*
X174694318Y-94000000D01*
X169498850Y-94000000D01*
X169525044Y-93936762D01*
X169545682Y-93780000D01*
X169525044Y-93623238D01*
X169464536Y-93477159D01*
X169368282Y-93351718D01*
X169242841Y-93255464D01*
X169096762Y-93194956D01*
X169078867Y-93192600D01*
X168948188Y-93175396D01*
X168940000Y-93174318D01*
X168931812Y-93175396D01*
X168801134Y-93192600D01*
X168783238Y-93194956D01*
X168637159Y-93255464D01*
X168511718Y-93351718D01*
X168415464Y-93477159D01*
X168354956Y-93623238D01*
X168334318Y-93780000D01*
X153118229Y-93780000D01*
X153084536Y-93698659D01*
X152988282Y-93573218D01*
X152969447Y-93558765D01*
X152887081Y-93495564D01*
X152862841Y-93476964D01*
X152716762Y-93416456D01*
X152705369Y-93414956D01*
X152577455Y-93398116D01*
X152560000Y-93395818D01*
X152542545Y-93398116D01*
X152414632Y-93414956D01*
X152403238Y-93416456D01*
X152257159Y-93476964D01*
X152232919Y-93495564D01*
X152150554Y-93558765D01*
X152131718Y-93573218D01*
X152035464Y-93698659D01*
X151974956Y-93844738D01*
X151954318Y-94001500D01*
X144305485Y-94001500D01*
X144305682Y-94000000D01*
X144285044Y-93843238D01*
X144224536Y-93697159D01*
X144128282Y-93571718D01*
X144002841Y-93475464D01*
X143856762Y-93414956D01*
X143700000Y-93394318D01*
X143543238Y-93414956D01*
X143397159Y-93475464D01*
X143271718Y-93571718D01*
X143175464Y-93697159D01*
X143114956Y-93843238D01*
X143094318Y-94000000D01*
X137603049Y-94000000D01*
X137605682Y-93980000D01*
X137592289Y-93878269D01*
X137603228Y-93808120D01*
X137650357Y-93755022D01*
X137718711Y-93735832D01*
X137765426Y-93745413D01*
X137843238Y-93777644D01*
X137851426Y-93778722D01*
X137869512Y-93781103D01*
X138000000Y-93798282D01*
X138008188Y-93797204D01*
X138148574Y-93778722D01*
X138156762Y-93777644D01*
X138302841Y-93717136D01*
X138428282Y-93620882D01*
X138524536Y-93495441D01*
X138585044Y-93349362D01*
X138605682Y-93192600D01*
X138585044Y-93035838D01*
X138524536Y-92889759D01*
X138428282Y-92764318D01*
X138302841Y-92668064D01*
X138156762Y-92607556D01*
X138000000Y-92586918D01*
X137843238Y-92607556D01*
X137697159Y-92668064D01*
X137571718Y-92764318D01*
X137475464Y-92889759D01*
X137414956Y-93035838D01*
X137394318Y-93192600D01*
X137398691Y-93225815D01*
X137407711Y-93294331D01*
X137396772Y-93364480D01*
X137349643Y-93417578D01*
X137281289Y-93436768D01*
X137234574Y-93427187D01*
X137156762Y-93394956D01*
X137000000Y-93374318D01*
X136843238Y-93394956D01*
X136697159Y-93455464D01*
X136571718Y-93551718D01*
X136566695Y-93558264D01*
X136553773Y-93575105D01*
X136475464Y-93677159D01*
X136414956Y-93823238D01*
X136413878Y-93831426D01*
X136407711Y-93878269D01*
X136394318Y-93980000D01*
X136414956Y-94136762D01*
X136475464Y-94282841D01*
X136571718Y-94408282D01*
X136697159Y-94504536D01*
X136843238Y-94565044D01*
X136851426Y-94566122D01*
X136921619Y-94575363D01*
X137000000Y-94585682D01*
X137008188Y-94584604D01*
X137148574Y-94566122D01*
X137156762Y-94565044D01*
X137228878Y-94535173D01*
X137299465Y-94527584D01*
X137362952Y-94559363D01*
X137399180Y-94620421D01*
X137402016Y-94668028D01*
X137394318Y-94726500D01*
X137395396Y-94734688D01*
X137395396Y-94734691D01*
X137398952Y-94761705D01*
X137388012Y-94831853D01*
X137340883Y-94884951D01*
X137272529Y-94904140D01*
X137225811Y-94894557D01*
X137164395Y-94869117D01*
X137164390Y-94869116D01*
X137156762Y-94865956D01*
X137000000Y-94845318D01*
X136843238Y-94865956D01*
X136697159Y-94926464D01*
X136571718Y-95022718D01*
X136566695Y-95029264D01*
X136562024Y-95035351D01*
X136475464Y-95148159D01*
X136414956Y-95294238D01*
X136394318Y-95451000D01*
X135846127Y-95451000D01*
X135844536Y-95447159D01*
X135748282Y-95321718D01*
X135730904Y-95308383D01*
X135629392Y-95230491D01*
X135622841Y-95225464D01*
X135476762Y-95164956D01*
X135320000Y-95144318D01*
X135163238Y-95164956D01*
X135017159Y-95225464D01*
X135010608Y-95230491D01*
X134909097Y-95308383D01*
X134891718Y-95321718D01*
X134795464Y-95447159D01*
X134734956Y-95593238D01*
X134733878Y-95601426D01*
X134729607Y-95633869D01*
X134714318Y-95750000D01*
X120097341Y-95750000D01*
X119975025Y-95648811D01*
X119975021Y-95648809D01*
X119970275Y-95644882D01*
X119789055Y-95546897D01*
X119592254Y-95485977D01*
X119586129Y-95485333D01*
X119586128Y-95485333D01*
X119393498Y-95465087D01*
X119393496Y-95465087D01*
X119387369Y-95464443D01*
X119300529Y-95472346D01*
X119188342Y-95482555D01*
X119188339Y-95482556D01*
X119182203Y-95483114D01*
X118984572Y-95541280D01*
X118979107Y-95544137D01*
X118973828Y-95546897D01*
X118802002Y-95636726D01*
X118797201Y-95640586D01*
X118797198Y-95640588D01*
X118656340Y-95753841D01*
X118641447Y-95765815D01*
X118509024Y-95923630D01*
X118506056Y-95929028D01*
X118506053Y-95929033D01*
X118417311Y-96090456D01*
X118409776Y-96104162D01*
X118347484Y-96300532D01*
X118346798Y-96306649D01*
X118346797Y-96306653D01*
X118334623Y-96415189D01*
X118324520Y-96505262D01*
X108746194Y-96505262D01*
X108746194Y-95264640D01*
X110094770Y-95264640D01*
X110109200Y-95484804D01*
X110110621Y-95490400D01*
X110110622Y-95490405D01*
X110149855Y-95644882D01*
X110163511Y-95698652D01*
X110165928Y-95703894D01*
X110165928Y-95703895D01*
X110204046Y-95786579D01*
X110255883Y-95899021D01*
X110383222Y-96079202D01*
X110541264Y-96233161D01*
X110546060Y-96236366D01*
X110546063Y-96236368D01*
X110642092Y-96300532D01*
X110724717Y-96355740D01*
X110730020Y-96358018D01*
X110730023Y-96358020D01*
X110922129Y-96440555D01*
X110927436Y-96442835D01*
X111007088Y-96460858D01*
X111136995Y-96490254D01*
X111137001Y-96490255D01*
X111142632Y-96491529D01*
X111148403Y-96491756D01*
X111148405Y-96491756D01*
X111216211Y-96494420D01*
X111363098Y-96500191D01*
X111472275Y-96484361D01*
X111575738Y-96469360D01*
X111575743Y-96469359D01*
X111581452Y-96468531D01*
X111586916Y-96466676D01*
X111586921Y-96466675D01*
X111784907Y-96399468D01*
X111784912Y-96399466D01*
X111790379Y-96397610D01*
X111982884Y-96289802D01*
X112001240Y-96274536D01*
X112148086Y-96152404D01*
X112152518Y-96148718D01*
X112184691Y-96110035D01*
X112289908Y-95983526D01*
X112289910Y-95983523D01*
X112293602Y-95979084D01*
X112401410Y-95786579D01*
X112403266Y-95781112D01*
X112403268Y-95781107D01*
X112470475Y-95583121D01*
X112470476Y-95583116D01*
X112472331Y-95577652D01*
X112473159Y-95571943D01*
X112473160Y-95571938D01*
X112500929Y-95380414D01*
X112503991Y-95359298D01*
X112505643Y-95296200D01*
X112485454Y-95076489D01*
X112473647Y-95034622D01*
X112452987Y-94961370D01*
X112425565Y-94864136D01*
X112327980Y-94666253D01*
X112293756Y-94620421D01*
X112199420Y-94494091D01*
X112199420Y-94494090D01*
X112195967Y-94489467D01*
X112061367Y-94365044D01*
X112038189Y-94343618D01*
X112038186Y-94343616D01*
X112033949Y-94339699D01*
X111847350Y-94221964D01*
X111642421Y-94140206D01*
X111636761Y-94139080D01*
X111636757Y-94139079D01*
X111431691Y-94098289D01*
X111431688Y-94098289D01*
X111426024Y-94097162D01*
X111420249Y-94097086D01*
X111420245Y-94097086D01*
X111309504Y-94095637D01*
X111205406Y-94094274D01*
X111199709Y-94095253D01*
X111199708Y-94095253D01*
X110993654Y-94130659D01*
X110993653Y-94130659D01*
X110987957Y-94131638D01*
X110780957Y-94208004D01*
X110775996Y-94210956D01*
X110775995Y-94210956D01*
X110610540Y-94309392D01*
X110591341Y-94320814D01*
X110425457Y-94466290D01*
X110288863Y-94639560D01*
X110186131Y-94834820D01*
X110120703Y-95045533D01*
X110094770Y-95264640D01*
X108746194Y-95264640D01*
X108746194Y-93965262D01*
X118324520Y-93965262D01*
X118326875Y-93993312D01*
X118341242Y-94164391D01*
X118341759Y-94170553D01*
X118343458Y-94176478D01*
X118391385Y-94343618D01*
X118398544Y-94368586D01*
X118401359Y-94374063D01*
X118401360Y-94374066D01*
X118489897Y-94546341D01*
X118492712Y-94551818D01*
X118620677Y-94713270D01*
X118777564Y-94846791D01*
X118782942Y-94849797D01*
X118782944Y-94849798D01*
X118863031Y-94894557D01*
X118957398Y-94947297D01*
X119052238Y-94978113D01*
X119147471Y-95009056D01*
X119147475Y-95009057D01*
X119153329Y-95010959D01*
X119357894Y-95035351D01*
X119364029Y-95034879D01*
X119364031Y-95034879D01*
X119420039Y-95030569D01*
X119563300Y-95019546D01*
X119569230Y-95017890D01*
X119569232Y-95017890D01*
X119755797Y-94965800D01*
X119755796Y-94965800D01*
X119761725Y-94964145D01*
X119767214Y-94961372D01*
X119767220Y-94961370D01*
X119921846Y-94883262D01*
X119945610Y-94871258D01*
X119952397Y-94865956D01*
X120103101Y-94748213D01*
X120107951Y-94744424D01*
X120116353Y-94734691D01*
X120238540Y-94593134D01*
X120238540Y-94593133D01*
X120242564Y-94588472D01*
X120253207Y-94569738D01*
X120311973Y-94466290D01*
X120344323Y-94409344D01*
X120409351Y-94213863D01*
X120435171Y-94009474D01*
X120435583Y-93980000D01*
X122394318Y-93980000D01*
X122414956Y-94136762D01*
X122475464Y-94282841D01*
X122571718Y-94408282D01*
X122697159Y-94504536D01*
X122843238Y-94565044D01*
X122851426Y-94566122D01*
X122921619Y-94575363D01*
X123000000Y-94585682D01*
X123008188Y-94584604D01*
X123148574Y-94566122D01*
X123156762Y-94565044D01*
X123302841Y-94504536D01*
X123428282Y-94408282D01*
X123524536Y-94282841D01*
X123585044Y-94136762D01*
X123605682Y-93980000D01*
X124294318Y-93980000D01*
X124314956Y-94136762D01*
X124375464Y-94282841D01*
X124471718Y-94408282D01*
X124597159Y-94504536D01*
X124743238Y-94565044D01*
X124751426Y-94566122D01*
X124821619Y-94575363D01*
X124900000Y-94585682D01*
X124908188Y-94584604D01*
X125048574Y-94566122D01*
X125056762Y-94565044D01*
X125202841Y-94504536D01*
X125328282Y-94408282D01*
X125424536Y-94282841D01*
X125485044Y-94136762D01*
X125505682Y-93980000D01*
X125492289Y-93878269D01*
X125486122Y-93831426D01*
X125485044Y-93823238D01*
X125424536Y-93677159D01*
X125346227Y-93575105D01*
X125333305Y-93558264D01*
X125328282Y-93551718D01*
X125202841Y-93455464D01*
X125056762Y-93394956D01*
X124900000Y-93374318D01*
X124743238Y-93394956D01*
X124597159Y-93455464D01*
X124471718Y-93551718D01*
X124466695Y-93558264D01*
X124453773Y-93575105D01*
X124375464Y-93677159D01*
X124314956Y-93823238D01*
X124313878Y-93831426D01*
X124307711Y-93878269D01*
X124294318Y-93980000D01*
X123605682Y-93980000D01*
X123592289Y-93878269D01*
X123586122Y-93831426D01*
X123585044Y-93823238D01*
X123524536Y-93677159D01*
X123446227Y-93575105D01*
X123433305Y-93558264D01*
X123428282Y-93551718D01*
X123302841Y-93455464D01*
X123156762Y-93394956D01*
X123000000Y-93374318D01*
X122843238Y-93394956D01*
X122697159Y-93455464D01*
X122571718Y-93551718D01*
X122566695Y-93558264D01*
X122553773Y-93575105D01*
X122475464Y-93677159D01*
X122414956Y-93823238D01*
X122413878Y-93831426D01*
X122407711Y-93878269D01*
X122394318Y-93980000D01*
X120435583Y-93980000D01*
X120415480Y-93774970D01*
X120355935Y-93577749D01*
X120259218Y-93395849D01*
X120176422Y-93294331D01*
X120132906Y-93240975D01*
X120132903Y-93240972D01*
X120129011Y-93236200D01*
X120124262Y-93232271D01*
X120014902Y-93141800D01*
X131931518Y-93141800D01*
X131952156Y-93298562D01*
X132012664Y-93444641D01*
X132108918Y-93570082D01*
X132234359Y-93666336D01*
X132380438Y-93726844D01*
X132537200Y-93747482D01*
X132545388Y-93746404D01*
X132685774Y-93727922D01*
X132693962Y-93726844D01*
X132840041Y-93666336D01*
X132965482Y-93570082D01*
X133061736Y-93444641D01*
X133122244Y-93298562D01*
X133142882Y-93141800D01*
X133122244Y-92985038D01*
X133061736Y-92838959D01*
X132965482Y-92713518D01*
X132840041Y-92617264D01*
X132693962Y-92556756D01*
X132537200Y-92536118D01*
X132380438Y-92556756D01*
X132234359Y-92617264D01*
X132108918Y-92713518D01*
X132012664Y-92838959D01*
X131952156Y-92985038D01*
X131931518Y-93141800D01*
X120014902Y-93141800D01*
X119975025Y-93108811D01*
X119975021Y-93108809D01*
X119970275Y-93104882D01*
X119789055Y-93006897D01*
X119592254Y-92945977D01*
X119586129Y-92945333D01*
X119586128Y-92945333D01*
X119393498Y-92925087D01*
X119393496Y-92925087D01*
X119387369Y-92924443D01*
X119300529Y-92932346D01*
X119188342Y-92942555D01*
X119188339Y-92942556D01*
X119182203Y-92943114D01*
X118984572Y-93001280D01*
X118802002Y-93096726D01*
X118797201Y-93100586D01*
X118797198Y-93100588D01*
X118704156Y-93175396D01*
X118641447Y-93225815D01*
X118509024Y-93383630D01*
X118506056Y-93389028D01*
X118506053Y-93389033D01*
X118416617Y-93551718D01*
X118409776Y-93564162D01*
X118347484Y-93760532D01*
X118346798Y-93766649D01*
X118346797Y-93766653D01*
X118337120Y-93852926D01*
X118324520Y-93965262D01*
X108746194Y-93965262D01*
X108746194Y-90246840D01*
X110214170Y-90246840D01*
X110228600Y-90467004D01*
X110230021Y-90472600D01*
X110230022Y-90472605D01*
X110254456Y-90568811D01*
X110282911Y-90680852D01*
X110285328Y-90686094D01*
X110285328Y-90686095D01*
X110323446Y-90768779D01*
X110375283Y-90881221D01*
X110502622Y-91061402D01*
X110660664Y-91215361D01*
X110665460Y-91218566D01*
X110665463Y-91218568D01*
X110749661Y-91274827D01*
X110844117Y-91337940D01*
X110849420Y-91340218D01*
X110849423Y-91340220D01*
X111019713Y-91413382D01*
X111046836Y-91425035D01*
X111112972Y-91440000D01*
X111256395Y-91472454D01*
X111256401Y-91472455D01*
X111262032Y-91473729D01*
X111267803Y-91473956D01*
X111267805Y-91473956D01*
X111335611Y-91476620D01*
X111482498Y-91482391D01*
X111595896Y-91465949D01*
X111695138Y-91451560D01*
X111695143Y-91451559D01*
X111700852Y-91450731D01*
X111706316Y-91448876D01*
X111706321Y-91448875D01*
X111775883Y-91425262D01*
X118324520Y-91425262D01*
X118325036Y-91431406D01*
X118340299Y-91613161D01*
X118341759Y-91630553D01*
X118343458Y-91636478D01*
X118360274Y-91695121D01*
X118398544Y-91828586D01*
X118401359Y-91834063D01*
X118401360Y-91834066D01*
X118422247Y-91874707D01*
X118492712Y-92011818D01*
X118620677Y-92173270D01*
X118625370Y-92177264D01*
X118625371Y-92177265D01*
X118759950Y-92291800D01*
X118777564Y-92306791D01*
X118957398Y-92407297D01*
X119052238Y-92438113D01*
X119147471Y-92469056D01*
X119147475Y-92469057D01*
X119153329Y-92470959D01*
X119357894Y-92495351D01*
X119364029Y-92494879D01*
X119364031Y-92494879D01*
X119420039Y-92490569D01*
X119563300Y-92479546D01*
X119569230Y-92477890D01*
X119569232Y-92477890D01*
X119755797Y-92425800D01*
X119755796Y-92425800D01*
X119761725Y-92424145D01*
X119767214Y-92421372D01*
X119767220Y-92421370D01*
X119940116Y-92334033D01*
X119945610Y-92331258D01*
X120107951Y-92204424D01*
X120198087Y-92100000D01*
X163518818Y-92100000D01*
X163539456Y-92256762D01*
X163599964Y-92402841D01*
X163696218Y-92528282D01*
X163821659Y-92624536D01*
X163967738Y-92685044D01*
X163975926Y-92686122D01*
X164037680Y-92694252D01*
X164124500Y-92705682D01*
X164132688Y-92704604D01*
X164273074Y-92686122D01*
X164281262Y-92685044D01*
X164427341Y-92624536D01*
X164552782Y-92528282D01*
X164649036Y-92402841D01*
X164709544Y-92256762D01*
X164730182Y-92100000D01*
X164709544Y-91943238D01*
X164649036Y-91797159D01*
X164552782Y-91671718D01*
X164427341Y-91575464D01*
X164281262Y-91514956D01*
X164124500Y-91494318D01*
X163967738Y-91514956D01*
X163821659Y-91575464D01*
X163696218Y-91671718D01*
X163599964Y-91797159D01*
X163539456Y-91943238D01*
X163518818Y-92100000D01*
X120198087Y-92100000D01*
X120242564Y-92048472D01*
X120263387Y-92011818D01*
X120341276Y-91874707D01*
X120344323Y-91869344D01*
X120409351Y-91673863D01*
X120435171Y-91469474D01*
X120435583Y-91440000D01*
X120415480Y-91234970D01*
X120355935Y-91037749D01*
X120259218Y-90855849D01*
X120154699Y-90727696D01*
X120132906Y-90700975D01*
X120132903Y-90700972D01*
X120129011Y-90696200D01*
X120122173Y-90690543D01*
X119975025Y-90568811D01*
X119975021Y-90568809D01*
X119970275Y-90564882D01*
X119789055Y-90466897D01*
X119592254Y-90405977D01*
X119586129Y-90405333D01*
X119586128Y-90405333D01*
X119393498Y-90385087D01*
X119393496Y-90385087D01*
X119387369Y-90384443D01*
X119300529Y-90392346D01*
X119188342Y-90402555D01*
X119188339Y-90402556D01*
X119182203Y-90403114D01*
X118984572Y-90461280D01*
X118802002Y-90556726D01*
X118797201Y-90560586D01*
X118797198Y-90560588D01*
X118653700Y-90675963D01*
X118641447Y-90685815D01*
X118509024Y-90843630D01*
X118506056Y-90849028D01*
X118506053Y-90849033D01*
X118447117Y-90956239D01*
X118409776Y-91024162D01*
X118347484Y-91220532D01*
X118346798Y-91226649D01*
X118346797Y-91226653D01*
X118329200Y-91383539D01*
X118324520Y-91425262D01*
X111775883Y-91425262D01*
X111904307Y-91381668D01*
X111904312Y-91381666D01*
X111909779Y-91379810D01*
X112102284Y-91272002D01*
X112111722Y-91264153D01*
X112267486Y-91134604D01*
X112271918Y-91130918D01*
X112344499Y-91043649D01*
X112409308Y-90965726D01*
X112409310Y-90965723D01*
X112413002Y-90961284D01*
X112500747Y-90804604D01*
X112517986Y-90773822D01*
X112517987Y-90773820D01*
X112520810Y-90768779D01*
X112522666Y-90763312D01*
X112522668Y-90763307D01*
X112589875Y-90565321D01*
X112589876Y-90565316D01*
X112591731Y-90559852D01*
X112592559Y-90554143D01*
X112592560Y-90554138D01*
X112619009Y-90371718D01*
X112623391Y-90341498D01*
X112625043Y-90278400D01*
X112604854Y-90058689D01*
X112600497Y-90043238D01*
X112554845Y-89881370D01*
X112544965Y-89846336D01*
X112447380Y-89648453D01*
X112439026Y-89637265D01*
X112318820Y-89476291D01*
X112318820Y-89476290D01*
X112315367Y-89471667D01*
X112161403Y-89329344D01*
X112157589Y-89325818D01*
X112157586Y-89325816D01*
X112153349Y-89321899D01*
X111966750Y-89204164D01*
X111761821Y-89122406D01*
X111756161Y-89121280D01*
X111756157Y-89121279D01*
X111551091Y-89080489D01*
X111551088Y-89080489D01*
X111545424Y-89079362D01*
X111539649Y-89079286D01*
X111539645Y-89079286D01*
X111428904Y-89077837D01*
X111324806Y-89076474D01*
X111319109Y-89077453D01*
X111319108Y-89077453D01*
X111113054Y-89112859D01*
X111113053Y-89112859D01*
X111107357Y-89113838D01*
X110900357Y-89190204D01*
X110895396Y-89193156D01*
X110895395Y-89193156D01*
X110744950Y-89282662D01*
X110710741Y-89303014D01*
X110544857Y-89448490D01*
X110408263Y-89621760D01*
X110305531Y-89817020D01*
X110240103Y-90027733D01*
X110214170Y-90246840D01*
X108746194Y-90246840D01*
X108746194Y-88885262D01*
X118324520Y-88885262D01*
X118325036Y-88891406D01*
X118336262Y-89025086D01*
X118341759Y-89090553D01*
X118343458Y-89096478D01*
X118382700Y-89233330D01*
X118398544Y-89288586D01*
X118401359Y-89294063D01*
X118401360Y-89294066D01*
X118445607Y-89380162D01*
X118492712Y-89471818D01*
X118620677Y-89633270D01*
X118625370Y-89637264D01*
X118625371Y-89637265D01*
X118709425Y-89708800D01*
X118777564Y-89766791D01*
X118782942Y-89769797D01*
X118782944Y-89769798D01*
X118790987Y-89774293D01*
X118957398Y-89867297D01*
X119029142Y-89890608D01*
X119147471Y-89929056D01*
X119147475Y-89929057D01*
X119153329Y-89930959D01*
X119357894Y-89955351D01*
X119364029Y-89954879D01*
X119364031Y-89954879D01*
X119420039Y-89950569D01*
X119563300Y-89939546D01*
X119569230Y-89937890D01*
X119569232Y-89937890D01*
X119755797Y-89885800D01*
X119755796Y-89885800D01*
X119761725Y-89884145D01*
X119767214Y-89881372D01*
X119767220Y-89881370D01*
X119940116Y-89794033D01*
X119945610Y-89791258D01*
X119965780Y-89775500D01*
X120059975Y-89701907D01*
X120107951Y-89664424D01*
X120117613Y-89653231D01*
X120168094Y-89594748D01*
X121044500Y-89594748D01*
X121045707Y-89600816D01*
X121052163Y-89633270D01*
X121056133Y-89653231D01*
X121063026Y-89663547D01*
X121066144Y-89668213D01*
X121100448Y-89719552D01*
X121166769Y-89763867D01*
X121178938Y-89766288D01*
X121178939Y-89766288D01*
X121219184Y-89774293D01*
X121225252Y-89775500D01*
X122614748Y-89775500D01*
X122620816Y-89774293D01*
X122661061Y-89766288D01*
X122661062Y-89766288D01*
X122673231Y-89763867D01*
X122739552Y-89719552D01*
X122773856Y-89668213D01*
X122776974Y-89663547D01*
X122783867Y-89653231D01*
X122787838Y-89633270D01*
X122794293Y-89600816D01*
X122795500Y-89594748D01*
X131204500Y-89594748D01*
X131205707Y-89600816D01*
X131212163Y-89633270D01*
X131216133Y-89653231D01*
X131223026Y-89663547D01*
X131226144Y-89668213D01*
X131260448Y-89719552D01*
X131326769Y-89763867D01*
X131338938Y-89766288D01*
X131338939Y-89766288D01*
X131379184Y-89774293D01*
X131385252Y-89775500D01*
X132774748Y-89775500D01*
X132780816Y-89774293D01*
X132821061Y-89766288D01*
X132821062Y-89766288D01*
X132833231Y-89763867D01*
X132899552Y-89719552D01*
X132933856Y-89668213D01*
X132936974Y-89663547D01*
X132943867Y-89653231D01*
X132947838Y-89633270D01*
X132954293Y-89600816D01*
X132955500Y-89594748D01*
X141364500Y-89594748D01*
X141365707Y-89600816D01*
X141372163Y-89633270D01*
X141376133Y-89653231D01*
X141383026Y-89663547D01*
X141386144Y-89668213D01*
X141420448Y-89719552D01*
X141486769Y-89763867D01*
X141498938Y-89766288D01*
X141498939Y-89766288D01*
X141539184Y-89774293D01*
X141545252Y-89775500D01*
X142934748Y-89775500D01*
X142940816Y-89774293D01*
X142981061Y-89766288D01*
X142981062Y-89766288D01*
X142993231Y-89763867D01*
X143059552Y-89719552D01*
X143093856Y-89668213D01*
X143096974Y-89663547D01*
X143103867Y-89653231D01*
X143107838Y-89633270D01*
X143114293Y-89600816D01*
X143115500Y-89594748D01*
X143115500Y-89010000D01*
X149484318Y-89010000D01*
X149504956Y-89166762D01*
X149565464Y-89312841D01*
X149661718Y-89438282D01*
X149668263Y-89443304D01*
X149668268Y-89443309D01*
X149753715Y-89508875D01*
X149795582Y-89566213D01*
X149799804Y-89637084D01*
X149765040Y-89698986D01*
X149753718Y-89708797D01*
X149671718Y-89771718D01*
X149575464Y-89897159D01*
X149514956Y-90043238D01*
X149494318Y-90200000D01*
X149514956Y-90356762D01*
X149575464Y-90502841D01*
X149671718Y-90628282D01*
X149797159Y-90724536D01*
X149943238Y-90785044D01*
X150100000Y-90805682D01*
X150108188Y-90804604D01*
X150143159Y-90800000D01*
X162794318Y-90800000D01*
X162814956Y-90956762D01*
X162875464Y-91102841D01*
X162971718Y-91228282D01*
X163097159Y-91324536D01*
X163243238Y-91385044D01*
X163400000Y-91405682D01*
X163408188Y-91404604D01*
X163548574Y-91386122D01*
X163556762Y-91385044D01*
X163702841Y-91324536D01*
X163828282Y-91228282D01*
X163924536Y-91102841D01*
X163985044Y-90956762D01*
X164005682Y-90800000D01*
X163989352Y-90675963D01*
X176394757Y-90675963D01*
X176411175Y-90871483D01*
X176465258Y-91060091D01*
X176468076Y-91065574D01*
X176552123Y-91229113D01*
X176552126Y-91229117D01*
X176554944Y-91234601D01*
X176676818Y-91388369D01*
X176681511Y-91392363D01*
X176681512Y-91392364D01*
X176802575Y-91495396D01*
X176826238Y-91515535D01*
X176831616Y-91518541D01*
X176831618Y-91518542D01*
X176867932Y-91538837D01*
X176997513Y-91611257D01*
X177184118Y-91671889D01*
X177378946Y-91695121D01*
X177385081Y-91694649D01*
X177385083Y-91694649D01*
X177568434Y-91680541D01*
X177568438Y-91680540D01*
X177574576Y-91680068D01*
X177763556Y-91627303D01*
X177938689Y-91538837D01*
X177968515Y-91515535D01*
X178084059Y-91425262D01*
X181824520Y-91425262D01*
X181825036Y-91431406D01*
X181840299Y-91613161D01*
X181841759Y-91630553D01*
X181843458Y-91636478D01*
X181860274Y-91695121D01*
X181898544Y-91828586D01*
X181901359Y-91834063D01*
X181901360Y-91834066D01*
X181922247Y-91874707D01*
X181992712Y-92011818D01*
X182120677Y-92173270D01*
X182125370Y-92177264D01*
X182125371Y-92177265D01*
X182259950Y-92291800D01*
X182277564Y-92306791D01*
X182457398Y-92407297D01*
X182552238Y-92438113D01*
X182647471Y-92469056D01*
X182647475Y-92469057D01*
X182653329Y-92470959D01*
X182857894Y-92495351D01*
X182864029Y-92494879D01*
X182864031Y-92494879D01*
X182920039Y-92490569D01*
X183063300Y-92479546D01*
X183069230Y-92477890D01*
X183069232Y-92477890D01*
X183255797Y-92425800D01*
X183255796Y-92425800D01*
X183261725Y-92424145D01*
X183267214Y-92421372D01*
X183267220Y-92421370D01*
X183440116Y-92334033D01*
X183445610Y-92331258D01*
X183536509Y-92260240D01*
X187102570Y-92260240D01*
X187117000Y-92480404D01*
X187118421Y-92486000D01*
X187118422Y-92486005D01*
X187153035Y-92622291D01*
X187171311Y-92694252D01*
X187173728Y-92699494D01*
X187173728Y-92699495D01*
X187211846Y-92782179D01*
X187263683Y-92894621D01*
X187391022Y-93074802D01*
X187549064Y-93228761D01*
X187553860Y-93231966D01*
X187553863Y-93231968D01*
X187700026Y-93329630D01*
X187732517Y-93351340D01*
X187737820Y-93353618D01*
X187737823Y-93353620D01*
X187909053Y-93427186D01*
X187935236Y-93438435D01*
X187962663Y-93444641D01*
X188144795Y-93485854D01*
X188144801Y-93485855D01*
X188150432Y-93487129D01*
X188156203Y-93487356D01*
X188156205Y-93487356D01*
X188224011Y-93490020D01*
X188370898Y-93495791D01*
X188480075Y-93479961D01*
X188583538Y-93464960D01*
X188583543Y-93464959D01*
X188589252Y-93464131D01*
X188594716Y-93462276D01*
X188594721Y-93462275D01*
X188792707Y-93395068D01*
X188792712Y-93395066D01*
X188798179Y-93393210D01*
X188815286Y-93383630D01*
X188891096Y-93341174D01*
X188990684Y-93285402D01*
X189026681Y-93255464D01*
X189155886Y-93148004D01*
X189160318Y-93144318D01*
X189193117Y-93104882D01*
X189297708Y-92979126D01*
X189297710Y-92979123D01*
X189301402Y-92974684D01*
X189409210Y-92782179D01*
X189411066Y-92776712D01*
X189411068Y-92776707D01*
X189478275Y-92578721D01*
X189478276Y-92578716D01*
X189480131Y-92573252D01*
X189480959Y-92567543D01*
X189480960Y-92567538D01*
X189504629Y-92404290D01*
X189511791Y-92354898D01*
X189513443Y-92291800D01*
X189493254Y-92072089D01*
X189486594Y-92048472D01*
X189434934Y-91865300D01*
X189433365Y-91859736D01*
X189335780Y-91661853D01*
X189316832Y-91636478D01*
X189207220Y-91489691D01*
X189207220Y-91489690D01*
X189203767Y-91485067D01*
X189041749Y-91335299D01*
X188855150Y-91217564D01*
X188650221Y-91135806D01*
X188644561Y-91134680D01*
X188644557Y-91134679D01*
X188439491Y-91093889D01*
X188439488Y-91093889D01*
X188433824Y-91092762D01*
X188428049Y-91092686D01*
X188428045Y-91092686D01*
X188317304Y-91091237D01*
X188213206Y-91089874D01*
X188207509Y-91090853D01*
X188207508Y-91090853D01*
X188001454Y-91126259D01*
X188001453Y-91126259D01*
X187995757Y-91127238D01*
X187788757Y-91203604D01*
X187783796Y-91206556D01*
X187783795Y-91206556D01*
X187670142Y-91274173D01*
X187599141Y-91316414D01*
X187433257Y-91461890D01*
X187296663Y-91635160D01*
X187193931Y-91830420D01*
X187128503Y-92041133D01*
X187102570Y-92260240D01*
X183536509Y-92260240D01*
X183607951Y-92204424D01*
X183742564Y-92048472D01*
X183763387Y-92011818D01*
X183841276Y-91874707D01*
X183844323Y-91869344D01*
X183909351Y-91673863D01*
X183935171Y-91469474D01*
X183935583Y-91440000D01*
X183915480Y-91234970D01*
X183855935Y-91037749D01*
X183759218Y-90855849D01*
X183654699Y-90727696D01*
X183632906Y-90700975D01*
X183632903Y-90700972D01*
X183629011Y-90696200D01*
X183622173Y-90690543D01*
X183475025Y-90568811D01*
X183475021Y-90568809D01*
X183470275Y-90564882D01*
X183289055Y-90466897D01*
X183092254Y-90405977D01*
X183086129Y-90405333D01*
X183086128Y-90405333D01*
X182893498Y-90385087D01*
X182893496Y-90385087D01*
X182887369Y-90384443D01*
X182800529Y-90392346D01*
X182688342Y-90402555D01*
X182688339Y-90402556D01*
X182682203Y-90403114D01*
X182484572Y-90461280D01*
X182302002Y-90556726D01*
X182297201Y-90560586D01*
X182297198Y-90560588D01*
X182153700Y-90675963D01*
X182141447Y-90685815D01*
X182009024Y-90843630D01*
X182006056Y-90849028D01*
X182006053Y-90849033D01*
X181947117Y-90956239D01*
X181909776Y-91024162D01*
X181847484Y-91220532D01*
X181846798Y-91226649D01*
X181846797Y-91226653D01*
X181829200Y-91383539D01*
X181824520Y-91425262D01*
X178084059Y-91425262D01*
X178093303Y-91418040D01*
X178121785Y-91385044D01*
X178217485Y-91274173D01*
X178217485Y-91274172D01*
X178221509Y-91269511D01*
X178244931Y-91228282D01*
X178297464Y-91135806D01*
X178318425Y-91098909D01*
X178380358Y-90912732D01*
X178404949Y-90718071D01*
X178405188Y-90700975D01*
X178405292Y-90693523D01*
X178405292Y-90693519D01*
X178405341Y-90690000D01*
X178386194Y-90494728D01*
X178384413Y-90488829D01*
X178384412Y-90488824D01*
X178331265Y-90312793D01*
X178329484Y-90306894D01*
X178237370Y-90133653D01*
X178113361Y-89981602D01*
X177962180Y-89856535D01*
X177789585Y-89763213D01*
X177648539Y-89719552D01*
X177608039Y-89707015D01*
X177608036Y-89707014D01*
X177602152Y-89705193D01*
X177596027Y-89704549D01*
X177596026Y-89704549D01*
X177413147Y-89685327D01*
X177413146Y-89685327D01*
X177407019Y-89684683D01*
X177284383Y-89695844D01*
X177217759Y-89701907D01*
X177217758Y-89701907D01*
X177211618Y-89702466D01*
X177205704Y-89704207D01*
X177205702Y-89704207D01*
X177076734Y-89742165D01*
X177023393Y-89757864D01*
X177017928Y-89760721D01*
X176854972Y-89845912D01*
X176854968Y-89845915D01*
X176849512Y-89848767D01*
X176844712Y-89852627D01*
X176844711Y-89852627D01*
X176830205Y-89864290D01*
X176696600Y-89971711D01*
X176570480Y-90122016D01*
X176567516Y-90127408D01*
X176567513Y-90127412D01*
X176492208Y-90264391D01*
X176475956Y-90293954D01*
X176474095Y-90299821D01*
X176474094Y-90299823D01*
X176458629Y-90348574D01*
X176416628Y-90480978D01*
X176394757Y-90675963D01*
X163989352Y-90675963D01*
X163985044Y-90643238D01*
X163924536Y-90497159D01*
X163828282Y-90371718D01*
X163702841Y-90275464D01*
X163556762Y-90214956D01*
X163400000Y-90194318D01*
X163243238Y-90214956D01*
X163097159Y-90275464D01*
X162971718Y-90371718D01*
X162875464Y-90497159D01*
X162814956Y-90643238D01*
X162794318Y-90800000D01*
X150143159Y-90800000D01*
X150248574Y-90786122D01*
X150256762Y-90785044D01*
X150402841Y-90724536D01*
X150528282Y-90628282D01*
X150624536Y-90502841D01*
X150685044Y-90356762D01*
X150705682Y-90200000D01*
X150692517Y-90100000D01*
X153694318Y-90100000D01*
X153714956Y-90256762D01*
X153775464Y-90402841D01*
X153871718Y-90528282D01*
X153997159Y-90624536D01*
X154143238Y-90685044D01*
X154300000Y-90705682D01*
X154308188Y-90704604D01*
X154448574Y-90686122D01*
X154456762Y-90685044D01*
X154602841Y-90624536D01*
X154728282Y-90528282D01*
X154824536Y-90402841D01*
X154885044Y-90256762D01*
X154905682Y-90100000D01*
X154888793Y-89971711D01*
X154886122Y-89951426D01*
X154885044Y-89943238D01*
X154824536Y-89797159D01*
X154728282Y-89671718D01*
X154627972Y-89594748D01*
X161684500Y-89594748D01*
X161685707Y-89600816D01*
X161692163Y-89633270D01*
X161696133Y-89653231D01*
X161703026Y-89663547D01*
X161706144Y-89668213D01*
X161740448Y-89719552D01*
X161806769Y-89763867D01*
X161818938Y-89766288D01*
X161818939Y-89766288D01*
X161859184Y-89774293D01*
X161865252Y-89775500D01*
X163254748Y-89775500D01*
X163260816Y-89774293D01*
X163301061Y-89766288D01*
X163301062Y-89766288D01*
X163313231Y-89763867D01*
X163379552Y-89719552D01*
X163413856Y-89668213D01*
X163416974Y-89663547D01*
X163423867Y-89653231D01*
X163427838Y-89633270D01*
X163434293Y-89600816D01*
X163435500Y-89594748D01*
X171844500Y-89594748D01*
X171845707Y-89600816D01*
X171852163Y-89633270D01*
X171856133Y-89653231D01*
X171863026Y-89663547D01*
X171866144Y-89668213D01*
X171900448Y-89719552D01*
X171966769Y-89763867D01*
X171978938Y-89766288D01*
X171978939Y-89766288D01*
X172019184Y-89774293D01*
X172025252Y-89775500D01*
X173414748Y-89775500D01*
X173420816Y-89774293D01*
X173461061Y-89766288D01*
X173461062Y-89766288D01*
X173473231Y-89763867D01*
X173539552Y-89719552D01*
X173573856Y-89668213D01*
X173576974Y-89663547D01*
X173583867Y-89653231D01*
X173587838Y-89633270D01*
X173594293Y-89600816D01*
X173595500Y-89594748D01*
X173595500Y-88885262D01*
X181824520Y-88885262D01*
X181825036Y-88891406D01*
X181836262Y-89025086D01*
X181841759Y-89090553D01*
X181843458Y-89096478D01*
X181882700Y-89233330D01*
X181898544Y-89288586D01*
X181901359Y-89294063D01*
X181901360Y-89294066D01*
X181945607Y-89380162D01*
X181992712Y-89471818D01*
X182120677Y-89633270D01*
X182125370Y-89637264D01*
X182125371Y-89637265D01*
X182209425Y-89708800D01*
X182277564Y-89766791D01*
X182282942Y-89769797D01*
X182282944Y-89769798D01*
X182290987Y-89774293D01*
X182457398Y-89867297D01*
X182529142Y-89890608D01*
X182647471Y-89929056D01*
X182647475Y-89929057D01*
X182653329Y-89930959D01*
X182857894Y-89955351D01*
X182864029Y-89954879D01*
X182864031Y-89954879D01*
X182920039Y-89950569D01*
X183063300Y-89939546D01*
X183069230Y-89937890D01*
X183069232Y-89937890D01*
X183255797Y-89885800D01*
X183255796Y-89885800D01*
X183261725Y-89884145D01*
X183267214Y-89881372D01*
X183267220Y-89881370D01*
X183440116Y-89794033D01*
X183445610Y-89791258D01*
X183465780Y-89775500D01*
X183559975Y-89701907D01*
X183607951Y-89664424D01*
X183617613Y-89653231D01*
X183738540Y-89513134D01*
X183738540Y-89513133D01*
X183742564Y-89508472D01*
X183760846Y-89476291D01*
X183832498Y-89350160D01*
X183844323Y-89329344D01*
X183909351Y-89133863D01*
X183935171Y-88929474D01*
X183935583Y-88900000D01*
X183915480Y-88694970D01*
X183855935Y-88497749D01*
X183759218Y-88315849D01*
X183675769Y-88213531D01*
X183632906Y-88160975D01*
X183632903Y-88160972D01*
X183629011Y-88156200D01*
X183624262Y-88152271D01*
X183616005Y-88145440D01*
X187077170Y-88145440D01*
X187091600Y-88365604D01*
X187093021Y-88371200D01*
X187093022Y-88371205D01*
X187125161Y-88497749D01*
X187145911Y-88579452D01*
X187148328Y-88584694D01*
X187148328Y-88584695D01*
X187186446Y-88667379D01*
X187238283Y-88779821D01*
X187365622Y-88960002D01*
X187523664Y-89113961D01*
X187528460Y-89117166D01*
X187528463Y-89117168D01*
X187655460Y-89202024D01*
X187707117Y-89236540D01*
X187712420Y-89238818D01*
X187712423Y-89238820D01*
X187861839Y-89303014D01*
X187909836Y-89323635D01*
X187989488Y-89341658D01*
X188119395Y-89371054D01*
X188119401Y-89371055D01*
X188125032Y-89372329D01*
X188130803Y-89372556D01*
X188130805Y-89372556D01*
X188198611Y-89375220D01*
X188345498Y-89380991D01*
X188454675Y-89365161D01*
X188558138Y-89350160D01*
X188558143Y-89350159D01*
X188563852Y-89349331D01*
X188569316Y-89347476D01*
X188569321Y-89347475D01*
X188767307Y-89280268D01*
X188767312Y-89280266D01*
X188772779Y-89278410D01*
X188965284Y-89170602D01*
X188969902Y-89166762D01*
X189130486Y-89033204D01*
X189134918Y-89029518D01*
X189235828Y-88908188D01*
X189272308Y-88864326D01*
X189272310Y-88864323D01*
X189276002Y-88859884D01*
X189383810Y-88667379D01*
X189385666Y-88661912D01*
X189385668Y-88661907D01*
X189452875Y-88463921D01*
X189452876Y-88463916D01*
X189454731Y-88458452D01*
X189455559Y-88452743D01*
X189455560Y-88452738D01*
X189478529Y-88294318D01*
X189486391Y-88240098D01*
X189488043Y-88177000D01*
X189467854Y-87957289D01*
X189407965Y-87744936D01*
X189310380Y-87547053D01*
X189233167Y-87443652D01*
X189181820Y-87374891D01*
X189181820Y-87374890D01*
X189178367Y-87370267D01*
X189032919Y-87235816D01*
X189020589Y-87224418D01*
X189020586Y-87224416D01*
X189016349Y-87220499D01*
X188829750Y-87102764D01*
X188624821Y-87021006D01*
X188619161Y-87019880D01*
X188619157Y-87019879D01*
X188414091Y-86979089D01*
X188414088Y-86979089D01*
X188408424Y-86977962D01*
X188402649Y-86977886D01*
X188402645Y-86977886D01*
X188291904Y-86976437D01*
X188187806Y-86975074D01*
X188182109Y-86976053D01*
X188182108Y-86976053D01*
X187976054Y-87011459D01*
X187976053Y-87011459D01*
X187970357Y-87012438D01*
X187763357Y-87088804D01*
X187758396Y-87091756D01*
X187758395Y-87091756D01*
X187697001Y-87128282D01*
X187573741Y-87201614D01*
X187407857Y-87347090D01*
X187271263Y-87520360D01*
X187168531Y-87715620D01*
X187103103Y-87926333D01*
X187077170Y-88145440D01*
X183616005Y-88145440D01*
X183475025Y-88028811D01*
X183475021Y-88028809D01*
X183470275Y-88024882D01*
X183289055Y-87926897D01*
X183092254Y-87865977D01*
X183086129Y-87865333D01*
X183086128Y-87865333D01*
X182893498Y-87845087D01*
X182893496Y-87845087D01*
X182887369Y-87844443D01*
X182800529Y-87852346D01*
X182688342Y-87862555D01*
X182688339Y-87862556D01*
X182682203Y-87863114D01*
X182484572Y-87921280D01*
X182479107Y-87924137D01*
X182415694Y-87957289D01*
X182302002Y-88016726D01*
X182297201Y-88020586D01*
X182297198Y-88020588D01*
X182146254Y-88141950D01*
X182141447Y-88145815D01*
X182009024Y-88303630D01*
X182006056Y-88309028D01*
X182006053Y-88309033D01*
X181916617Y-88471718D01*
X181909776Y-88484162D01*
X181847484Y-88680532D01*
X181846798Y-88686649D01*
X181846797Y-88686653D01*
X181844497Y-88707159D01*
X181824520Y-88885262D01*
X173595500Y-88885262D01*
X173595500Y-88205252D01*
X173583867Y-88146769D01*
X173539552Y-88080448D01*
X173473231Y-88036133D01*
X173461062Y-88033712D01*
X173461061Y-88033712D01*
X173420816Y-88025707D01*
X173414748Y-88024500D01*
X172025252Y-88024500D01*
X172019184Y-88025707D01*
X171978939Y-88033712D01*
X171978938Y-88033712D01*
X171966769Y-88036133D01*
X171900448Y-88080448D01*
X171856133Y-88146769D01*
X171844500Y-88205252D01*
X171844500Y-89594748D01*
X163435500Y-89594748D01*
X163435500Y-88205252D01*
X163423867Y-88146769D01*
X163379552Y-88080448D01*
X163313231Y-88036133D01*
X163301062Y-88033712D01*
X163301061Y-88033712D01*
X163260816Y-88025707D01*
X163254748Y-88024500D01*
X161865252Y-88024500D01*
X161859184Y-88025707D01*
X161818939Y-88033712D01*
X161818938Y-88033712D01*
X161806769Y-88036133D01*
X161740448Y-88080448D01*
X161696133Y-88146769D01*
X161684500Y-88205252D01*
X161684500Y-89594748D01*
X154627972Y-89594748D01*
X154602841Y-89575464D01*
X154456762Y-89514956D01*
X154442923Y-89513134D01*
X154308188Y-89495396D01*
X154300000Y-89494318D01*
X154291812Y-89495396D01*
X154157078Y-89513134D01*
X154143238Y-89514956D01*
X153997159Y-89575464D01*
X153871718Y-89671718D01*
X153775464Y-89797159D01*
X153714956Y-89943238D01*
X153713878Y-89951426D01*
X153711207Y-89971711D01*
X153694318Y-90100000D01*
X150692517Y-90100000D01*
X150685044Y-90043238D01*
X150624536Y-89897159D01*
X150528282Y-89771718D01*
X150521736Y-89766695D01*
X150521732Y-89766691D01*
X150436285Y-89701125D01*
X150394418Y-89643787D01*
X150391497Y-89594748D01*
X151524500Y-89594748D01*
X151525707Y-89600816D01*
X151532163Y-89633270D01*
X151536133Y-89653231D01*
X151543026Y-89663547D01*
X151546144Y-89668213D01*
X151580448Y-89719552D01*
X151646769Y-89763867D01*
X151658938Y-89766288D01*
X151658939Y-89766288D01*
X151699184Y-89774293D01*
X151705252Y-89775500D01*
X153094748Y-89775500D01*
X153100816Y-89774293D01*
X153141061Y-89766288D01*
X153141062Y-89766288D01*
X153153231Y-89763867D01*
X153219552Y-89719552D01*
X153253856Y-89668213D01*
X153256974Y-89663547D01*
X153263867Y-89653231D01*
X153267838Y-89633270D01*
X153274293Y-89600816D01*
X153275500Y-89594748D01*
X153275500Y-88900000D01*
X158294318Y-88900000D01*
X158314956Y-89056762D01*
X158375464Y-89202841D01*
X158471718Y-89328282D01*
X158597159Y-89424536D01*
X158743238Y-89485044D01*
X158900000Y-89505682D01*
X158908188Y-89504604D01*
X159048574Y-89486122D01*
X159056762Y-89485044D01*
X159202841Y-89424536D01*
X159328282Y-89328282D01*
X159424536Y-89202841D01*
X159485044Y-89056762D01*
X159505682Y-88900000D01*
X159485044Y-88743238D01*
X159424536Y-88597159D01*
X159328282Y-88471718D01*
X159202841Y-88375464D01*
X159056762Y-88314956D01*
X158900000Y-88294318D01*
X158743238Y-88314956D01*
X158597159Y-88375464D01*
X158471718Y-88471718D01*
X158375464Y-88597159D01*
X158314956Y-88743238D01*
X158294318Y-88900000D01*
X153275500Y-88900000D01*
X153275500Y-88205252D01*
X153263867Y-88146769D01*
X153219552Y-88080448D01*
X153153231Y-88036133D01*
X153141062Y-88033712D01*
X153141061Y-88033712D01*
X153100816Y-88025707D01*
X153094748Y-88024500D01*
X151705252Y-88024500D01*
X151699184Y-88025707D01*
X151658939Y-88033712D01*
X151658938Y-88033712D01*
X151646769Y-88036133D01*
X151580448Y-88080448D01*
X151536133Y-88146769D01*
X151524500Y-88205252D01*
X151524500Y-89594748D01*
X150391497Y-89594748D01*
X150390196Y-89572916D01*
X150424960Y-89511014D01*
X150436285Y-89501200D01*
X150455936Y-89486122D01*
X150518282Y-89438282D01*
X150614536Y-89312841D01*
X150675044Y-89166762D01*
X150695682Y-89010000D01*
X150675044Y-88853238D01*
X150614536Y-88707159D01*
X150518282Y-88581718D01*
X150392841Y-88485464D01*
X150246762Y-88424956D01*
X150090000Y-88404318D01*
X149933238Y-88424956D01*
X149787159Y-88485464D01*
X149661718Y-88581718D01*
X149565464Y-88707159D01*
X149504956Y-88853238D01*
X149484318Y-89010000D01*
X143115500Y-89010000D01*
X143115500Y-88205252D01*
X143103867Y-88146769D01*
X143059552Y-88080448D01*
X142993231Y-88036133D01*
X142981062Y-88033712D01*
X142981061Y-88033712D01*
X142940816Y-88025707D01*
X142934748Y-88024500D01*
X141545252Y-88024500D01*
X141539184Y-88025707D01*
X141498939Y-88033712D01*
X141498938Y-88033712D01*
X141486769Y-88036133D01*
X141420448Y-88080448D01*
X141376133Y-88146769D01*
X141364500Y-88205252D01*
X141364500Y-89594748D01*
X132955500Y-89594748D01*
X132955500Y-88205252D01*
X132943867Y-88146769D01*
X132899552Y-88080448D01*
X132833231Y-88036133D01*
X132821062Y-88033712D01*
X132821061Y-88033712D01*
X132780816Y-88025707D01*
X132774748Y-88024500D01*
X131385252Y-88024500D01*
X131379184Y-88025707D01*
X131338939Y-88033712D01*
X131338938Y-88033712D01*
X131326769Y-88036133D01*
X131260448Y-88080448D01*
X131216133Y-88146769D01*
X131204500Y-88205252D01*
X131204500Y-89594748D01*
X122795500Y-89594748D01*
X122795500Y-88205252D01*
X122783867Y-88146769D01*
X122739552Y-88080448D01*
X122673231Y-88036133D01*
X122661062Y-88033712D01*
X122661061Y-88033712D01*
X122620816Y-88025707D01*
X122614748Y-88024500D01*
X121225252Y-88024500D01*
X121219184Y-88025707D01*
X121178939Y-88033712D01*
X121178938Y-88033712D01*
X121166769Y-88036133D01*
X121100448Y-88080448D01*
X121056133Y-88146769D01*
X121044500Y-88205252D01*
X121044500Y-89594748D01*
X120168094Y-89594748D01*
X120238540Y-89513134D01*
X120238540Y-89513133D01*
X120242564Y-89508472D01*
X120260846Y-89476291D01*
X120332498Y-89350160D01*
X120344323Y-89329344D01*
X120409351Y-89133863D01*
X120435171Y-88929474D01*
X120435583Y-88900000D01*
X120415480Y-88694970D01*
X120355935Y-88497749D01*
X120259218Y-88315849D01*
X120175769Y-88213531D01*
X120132906Y-88160975D01*
X120132903Y-88160972D01*
X120129011Y-88156200D01*
X120124262Y-88152271D01*
X119975025Y-88028811D01*
X119975021Y-88028809D01*
X119970275Y-88024882D01*
X119789055Y-87926897D01*
X119592254Y-87865977D01*
X119586129Y-87865333D01*
X119586128Y-87865333D01*
X119393498Y-87845087D01*
X119393496Y-87845087D01*
X119387369Y-87844443D01*
X119300529Y-87852346D01*
X119188342Y-87862555D01*
X119188339Y-87862556D01*
X119182203Y-87863114D01*
X118984572Y-87921280D01*
X118979107Y-87924137D01*
X118915694Y-87957289D01*
X118802002Y-88016726D01*
X118797201Y-88020586D01*
X118797198Y-88020588D01*
X118646254Y-88141950D01*
X118641447Y-88145815D01*
X118509024Y-88303630D01*
X118506056Y-88309028D01*
X118506053Y-88309033D01*
X118416617Y-88471718D01*
X118409776Y-88484162D01*
X118347484Y-88680532D01*
X118346798Y-88686649D01*
X118346797Y-88686653D01*
X118344497Y-88707159D01*
X118324520Y-88885262D01*
X108746194Y-88885262D01*
X108746194Y-87009640D01*
X110196370Y-87009640D01*
X110210800Y-87229804D01*
X110212221Y-87235400D01*
X110212222Y-87235405D01*
X110242482Y-87354552D01*
X110265111Y-87443652D01*
X110267528Y-87448894D01*
X110267528Y-87448895D01*
X110305646Y-87531579D01*
X110357483Y-87644021D01*
X110484822Y-87824202D01*
X110642864Y-87978161D01*
X110647660Y-87981366D01*
X110647663Y-87981368D01*
X110785635Y-88073557D01*
X110826317Y-88100740D01*
X110831620Y-88103018D01*
X110831623Y-88103020D01*
X111003817Y-88177000D01*
X111029036Y-88187835D01*
X111106008Y-88205252D01*
X111238595Y-88235254D01*
X111238601Y-88235255D01*
X111244232Y-88236529D01*
X111250003Y-88236756D01*
X111250005Y-88236756D01*
X111317811Y-88239420D01*
X111464698Y-88245191D01*
X111573875Y-88229361D01*
X111677338Y-88214360D01*
X111677343Y-88214359D01*
X111683052Y-88213531D01*
X111688516Y-88211676D01*
X111688521Y-88211675D01*
X111886507Y-88144468D01*
X111886512Y-88144466D01*
X111891979Y-88142610D01*
X111897167Y-88139705D01*
X112015282Y-88073557D01*
X112084484Y-88034802D01*
X112091688Y-88028811D01*
X112249686Y-87897404D01*
X112254118Y-87893718D01*
X112373232Y-87750500D01*
X112391508Y-87728526D01*
X112391510Y-87728523D01*
X112395202Y-87724084D01*
X112494344Y-87547053D01*
X112500186Y-87536622D01*
X112500187Y-87536620D01*
X112503010Y-87531579D01*
X112504866Y-87526112D01*
X112504868Y-87526107D01*
X112572075Y-87328121D01*
X112572076Y-87328116D01*
X112573931Y-87322652D01*
X112574759Y-87316943D01*
X112574760Y-87316938D01*
X112587402Y-87229748D01*
X118329500Y-87229748D01*
X118341133Y-87288231D01*
X118385448Y-87354552D01*
X118451769Y-87398867D01*
X118463938Y-87401288D01*
X118463939Y-87401288D01*
X118504184Y-87409293D01*
X118510252Y-87410500D01*
X120249748Y-87410500D01*
X120255816Y-87409293D01*
X120296061Y-87401288D01*
X120296062Y-87401288D01*
X120308231Y-87398867D01*
X120374552Y-87354552D01*
X120418867Y-87288231D01*
X120430500Y-87229748D01*
X120430500Y-87054428D01*
X120450502Y-86986307D01*
X120504158Y-86939814D01*
X120574432Y-86929710D01*
X120639012Y-86959204D01*
X120665620Y-86991429D01*
X120667804Y-86995211D01*
X120670964Y-87002841D01*
X120686545Y-87023146D01*
X120750002Y-87105845D01*
X120767218Y-87128282D01*
X120892659Y-87224536D01*
X121038738Y-87285044D01*
X121195500Y-87305682D01*
X121203688Y-87304604D01*
X121344074Y-87286122D01*
X121352262Y-87285044D01*
X121485758Y-87229748D01*
X181829500Y-87229748D01*
X181841133Y-87288231D01*
X181885448Y-87354552D01*
X181951769Y-87398867D01*
X181963938Y-87401288D01*
X181963939Y-87401288D01*
X182004184Y-87409293D01*
X182010252Y-87410500D01*
X183749748Y-87410500D01*
X183755816Y-87409293D01*
X183796061Y-87401288D01*
X183796062Y-87401288D01*
X183808231Y-87398867D01*
X183874552Y-87354552D01*
X183918867Y-87288231D01*
X183930500Y-87229748D01*
X183930500Y-85490252D01*
X183918867Y-85431769D01*
X183874552Y-85365448D01*
X183808231Y-85321133D01*
X183796062Y-85318712D01*
X183796061Y-85318712D01*
X183755816Y-85310707D01*
X183749748Y-85309500D01*
X182010252Y-85309500D01*
X182004184Y-85310707D01*
X181963939Y-85318712D01*
X181963938Y-85318712D01*
X181951769Y-85321133D01*
X181885448Y-85365448D01*
X181841133Y-85431769D01*
X181829500Y-85490252D01*
X181829500Y-87229748D01*
X121485758Y-87229748D01*
X121498341Y-87224536D01*
X121623782Y-87128282D01*
X121640999Y-87105845D01*
X121704455Y-87023146D01*
X121720036Y-87002841D01*
X121780544Y-86856762D01*
X121801182Y-86700000D01*
X121780544Y-86543238D01*
X121720036Y-86397159D01*
X121651559Y-86307918D01*
X121628805Y-86278264D01*
X121623782Y-86271718D01*
X121498341Y-86175464D01*
X121352262Y-86114956D01*
X121195500Y-86094318D01*
X121038738Y-86114956D01*
X120892659Y-86175464D01*
X120767218Y-86271718D01*
X120762195Y-86278264D01*
X120739441Y-86307918D01*
X120670964Y-86397159D01*
X120667804Y-86404789D01*
X120665620Y-86408571D01*
X120614238Y-86457565D01*
X120544524Y-86471002D01*
X120478613Y-86444615D01*
X120437430Y-86386784D01*
X120430500Y-86345572D01*
X120430500Y-85900000D01*
X123394318Y-85900000D01*
X123414956Y-86056762D01*
X123475464Y-86202841D01*
X123499834Y-86234601D01*
X123550017Y-86300000D01*
X123571718Y-86328282D01*
X123697159Y-86424536D01*
X123843238Y-86485044D01*
X124000000Y-86505682D01*
X124008188Y-86504604D01*
X124148574Y-86486122D01*
X124156762Y-86485044D01*
X124302841Y-86424536D01*
X124428282Y-86328282D01*
X124449984Y-86300000D01*
X154494318Y-86300000D01*
X154495396Y-86308188D01*
X154508356Y-86406626D01*
X154514956Y-86456762D01*
X154575464Y-86602841D01*
X154595506Y-86628960D01*
X154650017Y-86700000D01*
X154671718Y-86728282D01*
X154797159Y-86824536D01*
X154943238Y-86885044D01*
X155100000Y-86905682D01*
X155108188Y-86904604D01*
X155248574Y-86886122D01*
X155256762Y-86885044D01*
X155402841Y-86824536D01*
X155528282Y-86728282D01*
X155549984Y-86700000D01*
X155604494Y-86628960D01*
X155624536Y-86602841D01*
X155685044Y-86456762D01*
X155691645Y-86406626D01*
X155704604Y-86308188D01*
X155705682Y-86300000D01*
X155685044Y-86143238D01*
X155624536Y-85997159D01*
X155550011Y-85900036D01*
X155533305Y-85878264D01*
X155528282Y-85871718D01*
X155402841Y-85775464D01*
X155256762Y-85714956D01*
X155100000Y-85694318D01*
X154943238Y-85714956D01*
X154797159Y-85775464D01*
X154671718Y-85871718D01*
X154666695Y-85878264D01*
X154649989Y-85900036D01*
X154575464Y-85997159D01*
X154514956Y-86143238D01*
X154494318Y-86300000D01*
X124449984Y-86300000D01*
X124500166Y-86234601D01*
X124524536Y-86202841D01*
X124585044Y-86056762D01*
X124605682Y-85900000D01*
X124585044Y-85743238D01*
X124524536Y-85597159D01*
X124440083Y-85487097D01*
X124433305Y-85478264D01*
X124428282Y-85471718D01*
X124302888Y-85375500D01*
X131494318Y-85375500D01*
X131514956Y-85532262D01*
X131575464Y-85678341D01*
X131671718Y-85803782D01*
X131797159Y-85900036D01*
X131943238Y-85960544D01*
X132100000Y-85981182D01*
X132108188Y-85980104D01*
X132248574Y-85961622D01*
X132256762Y-85960544D01*
X132402841Y-85900036D01*
X132528282Y-85803782D01*
X132624536Y-85678341D01*
X132685044Y-85532262D01*
X132702457Y-85400000D01*
X155694318Y-85400000D01*
X155714956Y-85556762D01*
X155775464Y-85702841D01*
X155871718Y-85828282D01*
X155878264Y-85833305D01*
X155901515Y-85851146D01*
X155997159Y-85924536D01*
X156143238Y-85985044D01*
X156300000Y-86005682D01*
X156308188Y-86004604D01*
X156448574Y-85986122D01*
X156456762Y-85985044D01*
X156602841Y-85924536D01*
X156698485Y-85851146D01*
X156721736Y-85833305D01*
X156728282Y-85828282D01*
X156740344Y-85812563D01*
X161580157Y-85812563D01*
X161596575Y-86008083D01*
X161650658Y-86196691D01*
X161658161Y-86211290D01*
X161737523Y-86365713D01*
X161737526Y-86365717D01*
X161740344Y-86371201D01*
X161862218Y-86524969D01*
X161866911Y-86528963D01*
X161866912Y-86528964D01*
X161965844Y-86613161D01*
X162011638Y-86652135D01*
X162017016Y-86655141D01*
X162017018Y-86655142D01*
X162048288Y-86672618D01*
X162182913Y-86747857D01*
X162369518Y-86808489D01*
X162564346Y-86831721D01*
X162570481Y-86831249D01*
X162570483Y-86831249D01*
X162753834Y-86817141D01*
X162753838Y-86817140D01*
X162759976Y-86816668D01*
X162948956Y-86763903D01*
X163124089Y-86675437D01*
X163131068Y-86669985D01*
X163273853Y-86558429D01*
X163278703Y-86554640D01*
X163289949Y-86541612D01*
X163402885Y-86410773D01*
X163402885Y-86410772D01*
X163406909Y-86406111D01*
X163411995Y-86397159D01*
X163471840Y-86291812D01*
X163503825Y-86235509D01*
X163565758Y-86049332D01*
X163590349Y-85854671D01*
X163590564Y-85839274D01*
X163590692Y-85830123D01*
X163590692Y-85830119D01*
X163590741Y-85826600D01*
X163589365Y-85812563D01*
X171740157Y-85812563D01*
X171756575Y-86008083D01*
X171810658Y-86196691D01*
X171818161Y-86211290D01*
X171897523Y-86365713D01*
X171897526Y-86365717D01*
X171900344Y-86371201D01*
X172022218Y-86524969D01*
X172026911Y-86528963D01*
X172026912Y-86528964D01*
X172125844Y-86613161D01*
X172171638Y-86652135D01*
X172177016Y-86655141D01*
X172177018Y-86655142D01*
X172208288Y-86672618D01*
X172342913Y-86747857D01*
X172529518Y-86808489D01*
X172724346Y-86831721D01*
X172730481Y-86831249D01*
X172730483Y-86831249D01*
X172913834Y-86817141D01*
X172913838Y-86817140D01*
X172919976Y-86816668D01*
X173108956Y-86763903D01*
X173284089Y-86675437D01*
X173291068Y-86669985D01*
X173433853Y-86558429D01*
X173438703Y-86554640D01*
X173449949Y-86541612D01*
X173562885Y-86410773D01*
X173562885Y-86410772D01*
X173566909Y-86406111D01*
X173571995Y-86397159D01*
X173631840Y-86291812D01*
X173663825Y-86235509D01*
X173725758Y-86049332D01*
X173750349Y-85854671D01*
X173750564Y-85839274D01*
X173750692Y-85830123D01*
X173750692Y-85830119D01*
X173750741Y-85826600D01*
X173735971Y-85675963D01*
X176394757Y-85675963D01*
X176411175Y-85871483D01*
X176465258Y-86060091D01*
X176468076Y-86065574D01*
X176552123Y-86229113D01*
X176552126Y-86229117D01*
X176554944Y-86234601D01*
X176676818Y-86388369D01*
X176826238Y-86515535D01*
X176831616Y-86518541D01*
X176831618Y-86518542D01*
X176862156Y-86535609D01*
X176997513Y-86611257D01*
X177184118Y-86671889D01*
X177378946Y-86695121D01*
X177385081Y-86694649D01*
X177385083Y-86694649D01*
X177568434Y-86680541D01*
X177568438Y-86680540D01*
X177574576Y-86680068D01*
X177763556Y-86627303D01*
X177938689Y-86538837D01*
X177956440Y-86524969D01*
X178088453Y-86421829D01*
X178093303Y-86418040D01*
X178099162Y-86411253D01*
X178217485Y-86274173D01*
X178217485Y-86274172D01*
X178221509Y-86269511D01*
X178243642Y-86230551D01*
X178262877Y-86196691D01*
X178318425Y-86098909D01*
X178380358Y-85912732D01*
X178404949Y-85718071D01*
X178405341Y-85690000D01*
X178386194Y-85494728D01*
X178384413Y-85488829D01*
X178384412Y-85488824D01*
X178331265Y-85312793D01*
X178329484Y-85306894D01*
X178237370Y-85133653D01*
X178113361Y-84981602D01*
X177962180Y-84856535D01*
X177789585Y-84763213D01*
X177695868Y-84734203D01*
X177608039Y-84707015D01*
X177608036Y-84707014D01*
X177602152Y-84705193D01*
X177596027Y-84704549D01*
X177596026Y-84704549D01*
X177413147Y-84685327D01*
X177413146Y-84685327D01*
X177407019Y-84684683D01*
X177284383Y-84695844D01*
X177217759Y-84701907D01*
X177217758Y-84701907D01*
X177211618Y-84702466D01*
X177205704Y-84704207D01*
X177205702Y-84704207D01*
X177192176Y-84708188D01*
X177023393Y-84757864D01*
X177017928Y-84760721D01*
X176854972Y-84845912D01*
X176854968Y-84845915D01*
X176849512Y-84848767D01*
X176844712Y-84852627D01*
X176844711Y-84852627D01*
X176810326Y-84880273D01*
X176696600Y-84971711D01*
X176570480Y-85122016D01*
X176567516Y-85127408D01*
X176567513Y-85127412D01*
X176503837Y-85243238D01*
X176475956Y-85293954D01*
X176474095Y-85299821D01*
X176474094Y-85299823D01*
X176453277Y-85365448D01*
X176416628Y-85480978D01*
X176394757Y-85675963D01*
X173735971Y-85675963D01*
X173731594Y-85631328D01*
X173729813Y-85625429D01*
X173729812Y-85625424D01*
X173676665Y-85449393D01*
X173674884Y-85443494D01*
X173582770Y-85270253D01*
X173458761Y-85118202D01*
X173307580Y-84993135D01*
X173134985Y-84899813D01*
X173007872Y-84860465D01*
X172953439Y-84843615D01*
X172953436Y-84843614D01*
X172947552Y-84841793D01*
X172941427Y-84841149D01*
X172941426Y-84841149D01*
X172758547Y-84821927D01*
X172758546Y-84821927D01*
X172752419Y-84821283D01*
X172631781Y-84832262D01*
X172563159Y-84838507D01*
X172563158Y-84838507D01*
X172557018Y-84839066D01*
X172551104Y-84840807D01*
X172551102Y-84840807D01*
X172444086Y-84872304D01*
X172368793Y-84894464D01*
X172363328Y-84897321D01*
X172200372Y-84982512D01*
X172200368Y-84982515D01*
X172194912Y-84985367D01*
X172190112Y-84989227D01*
X172190111Y-84989227D01*
X172173179Y-85002841D01*
X172042000Y-85108311D01*
X171915880Y-85258616D01*
X171912916Y-85264008D01*
X171912913Y-85264012D01*
X171883169Y-85318116D01*
X171821356Y-85430554D01*
X171819495Y-85436421D01*
X171819494Y-85436423D01*
X171800999Y-85494728D01*
X171762028Y-85617578D01*
X171740157Y-85812563D01*
X163589365Y-85812563D01*
X163571594Y-85631328D01*
X163569813Y-85625429D01*
X163569812Y-85625424D01*
X163516665Y-85449393D01*
X163514884Y-85443494D01*
X163422770Y-85270253D01*
X163298761Y-85118202D01*
X163147580Y-84993135D01*
X162974985Y-84899813D01*
X162847872Y-84860465D01*
X162793439Y-84843615D01*
X162793436Y-84843614D01*
X162787552Y-84841793D01*
X162781427Y-84841149D01*
X162781426Y-84841149D01*
X162598547Y-84821927D01*
X162598546Y-84821927D01*
X162592419Y-84821283D01*
X162471781Y-84832262D01*
X162403159Y-84838507D01*
X162403158Y-84838507D01*
X162397018Y-84839066D01*
X162391104Y-84840807D01*
X162391102Y-84840807D01*
X162284086Y-84872304D01*
X162208793Y-84894464D01*
X162203328Y-84897321D01*
X162040372Y-84982512D01*
X162040368Y-84982515D01*
X162034912Y-84985367D01*
X162030112Y-84989227D01*
X162030111Y-84989227D01*
X162013179Y-85002841D01*
X161882000Y-85108311D01*
X161755880Y-85258616D01*
X161752916Y-85264008D01*
X161752913Y-85264012D01*
X161723169Y-85318116D01*
X161661356Y-85430554D01*
X161659495Y-85436421D01*
X161659494Y-85436423D01*
X161640999Y-85494728D01*
X161602028Y-85617578D01*
X161580157Y-85812563D01*
X156740344Y-85812563D01*
X156824536Y-85702841D01*
X156885044Y-85556762D01*
X156905682Y-85400000D01*
X156885044Y-85243238D01*
X156824536Y-85097159D01*
X156741717Y-84989227D01*
X156733305Y-84978264D01*
X156728282Y-84971718D01*
X156602841Y-84875464D01*
X156456762Y-84814956D01*
X156300000Y-84794318D01*
X156143238Y-84814956D01*
X155997159Y-84875464D01*
X155871718Y-84971718D01*
X155866695Y-84978264D01*
X155858283Y-84989227D01*
X155775464Y-85097159D01*
X155714956Y-85243238D01*
X155694318Y-85400000D01*
X132702457Y-85400000D01*
X132705682Y-85375500D01*
X132685044Y-85218738D01*
X132624536Y-85072659D01*
X132528282Y-84947218D01*
X132402841Y-84850964D01*
X132256762Y-84790456D01*
X132100000Y-84769818D01*
X131943238Y-84790456D01*
X131797159Y-84850964D01*
X131671718Y-84947218D01*
X131575464Y-85072659D01*
X131514956Y-85218738D01*
X131494318Y-85375500D01*
X124302888Y-85375500D01*
X124302841Y-85375464D01*
X124156762Y-85314956D01*
X124140333Y-85312793D01*
X124008188Y-85295396D01*
X124000000Y-85294318D01*
X123991812Y-85295396D01*
X123859668Y-85312793D01*
X123843238Y-85314956D01*
X123697159Y-85375464D01*
X123571718Y-85471718D01*
X123566695Y-85478264D01*
X123559917Y-85487097D01*
X123475464Y-85597159D01*
X123414956Y-85743238D01*
X123394318Y-85900000D01*
X120430500Y-85900000D01*
X120430500Y-85490252D01*
X120418867Y-85431769D01*
X120374552Y-85365448D01*
X120308231Y-85321133D01*
X120296062Y-85318712D01*
X120296061Y-85318712D01*
X120255816Y-85310707D01*
X120249748Y-85309500D01*
X118510252Y-85309500D01*
X118504184Y-85310707D01*
X118463939Y-85318712D01*
X118463938Y-85318712D01*
X118451769Y-85321133D01*
X118385448Y-85365448D01*
X118341133Y-85431769D01*
X118329500Y-85490252D01*
X118329500Y-87229748D01*
X112587402Y-87229748D01*
X112602113Y-87128282D01*
X112605591Y-87104298D01*
X112607243Y-87041200D01*
X112587054Y-86821489D01*
X112527165Y-86609136D01*
X112429580Y-86411253D01*
X112419056Y-86397159D01*
X112301020Y-86239091D01*
X112301020Y-86239090D01*
X112297567Y-86234467D01*
X112156723Y-86104272D01*
X112139789Y-86088618D01*
X112139786Y-86088616D01*
X112135549Y-86084699D01*
X111948950Y-85966964D01*
X111744021Y-85885206D01*
X111738361Y-85884080D01*
X111738357Y-85884079D01*
X111533291Y-85843289D01*
X111533288Y-85843289D01*
X111527624Y-85842162D01*
X111521849Y-85842086D01*
X111521845Y-85842086D01*
X111411104Y-85840637D01*
X111307006Y-85839274D01*
X111301309Y-85840253D01*
X111301308Y-85840253D01*
X111095254Y-85875659D01*
X111095253Y-85875659D01*
X111089557Y-85876638D01*
X110882557Y-85953004D01*
X110877596Y-85955956D01*
X110877595Y-85955956D01*
X110720645Y-86049332D01*
X110692941Y-86065814D01*
X110527057Y-86211290D01*
X110390463Y-86384560D01*
X110287731Y-86579820D01*
X110222303Y-86790533D01*
X110196370Y-87009640D01*
X108746194Y-87009640D01*
X108746194Y-84057954D01*
X108766196Y-83989833D01*
X108819852Y-83943340D01*
X108872194Y-83931954D01*
X141911394Y-83931954D01*
X141979515Y-83951956D01*
G37*
G04 #@! TD.AperFunction*
M02*
