G04 #@! TF.GenerationSoftware,KiCad,Pcbnew,6.0.9-8da3e8f707~116~ubuntu20.04.1*
G04 #@! TF.CreationDate,2022-11-05T19:19:53+00:00*
G04 #@! TF.ProjectId,slrm,736c726d-2e6b-4696-9361-645f70636258,rev?*
G04 #@! TF.SameCoordinates,Original*
G04 #@! TF.FileFunction,Legend,Bot*
G04 #@! TF.FilePolarity,Positive*
%FSLAX46Y46*%
G04 Gerber Fmt 4.6, Leading zero omitted, Abs format (unit mm)*
G04 Created by KiCad (PCBNEW 6.0.9-8da3e8f707~116~ubuntu20.04.1) date 2022-11-05 19:19:53*
%MOMM*%
%LPD*%
G01*
G04 APERTURE LIST*
%ADD10C,2.000000*%
%ADD11R,1.350000X1.350000*%
%ADD12C,1.600000*%
%ADD13R,1.700000X1.700000*%
%ADD14O,1.700000X1.700000*%
%ADD15O,1.600000X1.600000*%
G04 APERTURE END LIST*
%LPC*%
D10*
X111940000Y-114290000D03*
X122100000Y-114290000D03*
X119560000Y-119370000D03*
X114480000Y-114290000D03*
X127180000Y-114290000D03*
X111940000Y-119370000D03*
X117020000Y-116830000D03*
X132260000Y-114290000D03*
X122100000Y-116830000D03*
X119560000Y-114290000D03*
X117020000Y-114290000D03*
X119560000Y-116830000D03*
X129720000Y-116830000D03*
X132260000Y-116830000D03*
X117020000Y-119370000D03*
X114480000Y-116830000D03*
X127180000Y-116830000D03*
X124640000Y-116830000D03*
X129720000Y-114290000D03*
X114480000Y-119370000D03*
X124640000Y-119370000D03*
X111940000Y-116830000D03*
X129720000Y-119370000D03*
X127180000Y-119370000D03*
X122100000Y-119370000D03*
X124640000Y-114290000D03*
X132260000Y-119370000D03*
X140020000Y-114360000D03*
X150180000Y-114360000D03*
X147640000Y-119440000D03*
X142560000Y-114360000D03*
X155260000Y-114360000D03*
X140020000Y-119440000D03*
X134940000Y-116900000D03*
X145100000Y-116900000D03*
X160340000Y-114360000D03*
X150180000Y-116900000D03*
X147640000Y-114360000D03*
X145100000Y-114360000D03*
X137480000Y-116900000D03*
X147640000Y-116900000D03*
X157800000Y-116900000D03*
X160340000Y-116900000D03*
X145100000Y-119440000D03*
X134940000Y-119440000D03*
X142560000Y-116900000D03*
X155260000Y-116900000D03*
X152720000Y-116900000D03*
X157800000Y-114360000D03*
X137480000Y-114360000D03*
X134940000Y-114360000D03*
X142560000Y-119440000D03*
X152720000Y-119440000D03*
X140020000Y-116900000D03*
X157800000Y-119440000D03*
X155260000Y-119440000D03*
X150180000Y-119440000D03*
X137480000Y-119440000D03*
X152720000Y-114360000D03*
X160340000Y-119440000D03*
X188930000Y-117940000D03*
X186390000Y-117940000D03*
X183850000Y-117940000D03*
X181310000Y-117940000D03*
X178770000Y-117940000D03*
X176230000Y-117940000D03*
X173690000Y-117940000D03*
X171150000Y-117940000D03*
X168610000Y-117940000D03*
X166070000Y-117940000D03*
X163530000Y-117940000D03*
X188930000Y-115400000D03*
X186390000Y-115400000D03*
X183850000Y-115400000D03*
X181310000Y-115400000D03*
X178770000Y-115400000D03*
X176230000Y-115400000D03*
X173690000Y-115400000D03*
X171150000Y-115400000D03*
X168610000Y-115400000D03*
X166070000Y-115400000D03*
X163530000Y-115400000D03*
X188930000Y-112860000D03*
X186390000Y-112860000D03*
X183850000Y-112860000D03*
X181310000Y-112860000D03*
X178770000Y-112860000D03*
X176230000Y-112860000D03*
X173690000Y-112860000D03*
X171150000Y-112860000D03*
X168610000Y-112860000D03*
X166070000Y-112860000D03*
X163530000Y-112860000D03*
X188930000Y-110320000D03*
X186390000Y-110320000D03*
X183850000Y-110320000D03*
X181310000Y-110320000D03*
X178770000Y-110320000D03*
X176230000Y-110320000D03*
X173690000Y-110320000D03*
X171150000Y-110320000D03*
X168610000Y-110320000D03*
X166070000Y-110320000D03*
X163530000Y-110320000D03*
X188930000Y-107780000D03*
X186390000Y-107780000D03*
X183850000Y-107780000D03*
X181310000Y-107780000D03*
X178770000Y-107780000D03*
X176230000Y-107780000D03*
X173690000Y-107780000D03*
X171150000Y-107780000D03*
X168610000Y-107780000D03*
X166070000Y-107780000D03*
X163530000Y-107780000D03*
X134700000Y-109620000D03*
X177400000Y-82440000D03*
X140390000Y-109590000D03*
X149964998Y-109590000D03*
X143581666Y-109590000D03*
X146773332Y-109590000D03*
X153156664Y-109590000D03*
X156348330Y-109590000D03*
X159540000Y-109590000D03*
X123930000Y-91990000D03*
X126440000Y-91990000D03*
X128980000Y-91990000D03*
X134600000Y-91920000D03*
X134520000Y-88460000D03*
X137120000Y-88460000D03*
X139660000Y-88460000D03*
X147520000Y-82190000D03*
X144327142Y-82190000D03*
X141134285Y-82190000D03*
X137941428Y-82190000D03*
X134748571Y-82190000D03*
X131555714Y-82190000D03*
X128362857Y-82190000D03*
X125170000Y-82190000D03*
D11*
X121920000Y-88900000D03*
X162560000Y-88900000D03*
D10*
X187629800Y-100660200D03*
X111480600Y-104241600D03*
D12*
X177400000Y-85690000D03*
X177400000Y-90690000D03*
D11*
X142240000Y-88900000D03*
D10*
X111480600Y-99898200D03*
X111480600Y-95427800D03*
X111582200Y-87172800D03*
D13*
X119380000Y-86360000D03*
D14*
X119380000Y-88900000D03*
X119380000Y-91440000D03*
X119380000Y-93980000D03*
X119380000Y-96520000D03*
X119380000Y-99060000D03*
X119380000Y-101600000D03*
X119380000Y-104140000D03*
D12*
X162585400Y-85826600D03*
D15*
X172745400Y-85826600D03*
D13*
X182880000Y-86360000D03*
D14*
X182880000Y-88900000D03*
X182880000Y-91440000D03*
X182880000Y-93980000D03*
X182880000Y-96520000D03*
X182880000Y-99060000D03*
X182880000Y-101600000D03*
X182880000Y-104140000D03*
D11*
X132080000Y-88900000D03*
X172720000Y-88900000D03*
D10*
X187680600Y-104749600D03*
X187807600Y-96545400D03*
X187858400Y-92481400D03*
X111600000Y-90410000D03*
D11*
X152400000Y-88900000D03*
D10*
X187833000Y-88366600D03*
M02*
