G04 #@! TF.GenerationSoftware,KiCad,Pcbnew,6.0.9-8da3e8f707~116~ubuntu20.04.1*
G04 #@! TF.CreationDate,2022-11-05T19:19:53+00:00*
G04 #@! TF.ProjectId,slrm,736c726d-2e6b-4696-9361-645f70636258,rev?*
G04 #@! TF.SameCoordinates,Original*
G04 #@! TF.FileFunction,Soldermask,Top*
G04 #@! TF.FilePolarity,Negative*
%FSLAX46Y46*%
G04 Gerber Fmt 4.6, Leading zero omitted, Abs format (unit mm)*
G04 Created by KiCad (PCBNEW 6.0.9-8da3e8f707~116~ubuntu20.04.1) date 2022-11-05 19:19:53*
%MOMM*%
%LPD*%
G01*
G04 APERTURE LIST*
G04 Aperture macros list*
%AMRoundRect*
0 Rectangle with rounded corners*
0 $1 Rounding radius*
0 $2 $3 $4 $5 $6 $7 $8 $9 X,Y pos of 4 corners*
0 Add a 4 corners polygon primitive as box body*
4,1,4,$2,$3,$4,$5,$6,$7,$8,$9,$2,$3,0*
0 Add four circle primitives for the rounded corners*
1,1,$1+$1,$2,$3*
1,1,$1+$1,$4,$5*
1,1,$1+$1,$6,$7*
1,1,$1+$1,$8,$9*
0 Add four rect primitives between the rounded corners*
20,1,$1+$1,$2,$3,$4,$5,0*
20,1,$1+$1,$4,$5,$6,$7,0*
20,1,$1+$1,$6,$7,$8,$9,0*
20,1,$1+$1,$8,$9,$2,$3,0*%
G04 Aperture macros list end*
%ADD10C,2.000000*%
%ADD11R,1.350000X1.350000*%
%ADD12C,1.600000*%
%ADD13O,0.600000X2.250000*%
%ADD14R,1.700000X1.700000*%
%ADD15O,1.700000X1.700000*%
%ADD16RoundRect,0.250000X0.650000X-0.325000X0.650000X0.325000X-0.650000X0.325000X-0.650000X-0.325000X0*%
%ADD17O,1.600000X1.600000*%
%ADD18RoundRect,0.150000X-0.150000X0.837500X-0.150000X-0.837500X0.150000X-0.837500X0.150000X0.837500X0*%
%ADD19RoundRect,0.150000X-0.150000X0.825000X-0.150000X-0.825000X0.150000X-0.825000X0.150000X0.825000X0*%
%ADD20RoundRect,0.250000X-0.650000X0.325000X-0.650000X-0.325000X0.650000X-0.325000X0.650000X0.325000X0*%
G04 APERTURE END LIST*
D10*
X111940000Y-114290000D03*
X122100000Y-114290000D03*
X119560000Y-119370000D03*
X114480000Y-114290000D03*
X127180000Y-114290000D03*
X111940000Y-119370000D03*
X117020000Y-116830000D03*
X132260000Y-114290000D03*
X122100000Y-116830000D03*
X119560000Y-114290000D03*
X117020000Y-114290000D03*
X119560000Y-116830000D03*
X129720000Y-116830000D03*
X132260000Y-116830000D03*
X117020000Y-119370000D03*
X114480000Y-116830000D03*
X127180000Y-116830000D03*
X124640000Y-116830000D03*
X129720000Y-114290000D03*
X114480000Y-119370000D03*
X124640000Y-119370000D03*
X111940000Y-116830000D03*
X129720000Y-119370000D03*
X127180000Y-119370000D03*
X122100000Y-119370000D03*
X124640000Y-114290000D03*
X132260000Y-119370000D03*
X140020000Y-114360000D03*
X150180000Y-114360000D03*
X147640000Y-119440000D03*
X142560000Y-114360000D03*
X155260000Y-114360000D03*
X140020000Y-119440000D03*
X134940000Y-116900000D03*
X145100000Y-116900000D03*
X160340000Y-114360000D03*
X150180000Y-116900000D03*
X147640000Y-114360000D03*
X145100000Y-114360000D03*
X137480000Y-116900000D03*
X147640000Y-116900000D03*
X157800000Y-116900000D03*
X160340000Y-116900000D03*
X145100000Y-119440000D03*
X134940000Y-119440000D03*
X142560000Y-116900000D03*
X155260000Y-116900000D03*
X152720000Y-116900000D03*
X157800000Y-114360000D03*
X137480000Y-114360000D03*
X134940000Y-114360000D03*
X142560000Y-119440000D03*
X152720000Y-119440000D03*
X140020000Y-116900000D03*
X157800000Y-119440000D03*
X155260000Y-119440000D03*
X150180000Y-119440000D03*
X137480000Y-119440000D03*
X152720000Y-114360000D03*
X160340000Y-119440000D03*
X188930000Y-117940000D03*
X186390000Y-117940000D03*
X183850000Y-117940000D03*
X181310000Y-117940000D03*
X178770000Y-117940000D03*
X176230000Y-117940000D03*
X173690000Y-117940000D03*
X171150000Y-117940000D03*
X168610000Y-117940000D03*
X166070000Y-117940000D03*
X163530000Y-117940000D03*
X188930000Y-115400000D03*
X186390000Y-115400000D03*
X183850000Y-115400000D03*
X181310000Y-115400000D03*
X178770000Y-115400000D03*
X176230000Y-115400000D03*
X173690000Y-115400000D03*
X171150000Y-115400000D03*
X168610000Y-115400000D03*
X166070000Y-115400000D03*
X163530000Y-115400000D03*
X188930000Y-112860000D03*
X186390000Y-112860000D03*
X183850000Y-112860000D03*
X181310000Y-112860000D03*
X178770000Y-112860000D03*
X176230000Y-112860000D03*
X173690000Y-112860000D03*
X171150000Y-112860000D03*
X168610000Y-112860000D03*
X166070000Y-112860000D03*
X163530000Y-112860000D03*
X188930000Y-110320000D03*
X186390000Y-110320000D03*
X183850000Y-110320000D03*
X181310000Y-110320000D03*
X178770000Y-110320000D03*
X176230000Y-110320000D03*
X173690000Y-110320000D03*
X171150000Y-110320000D03*
X168610000Y-110320000D03*
X166070000Y-110320000D03*
X163530000Y-110320000D03*
X188930000Y-107780000D03*
X186390000Y-107780000D03*
X183850000Y-107780000D03*
X181310000Y-107780000D03*
X178770000Y-107780000D03*
X176230000Y-107780000D03*
X173690000Y-107780000D03*
X171150000Y-107780000D03*
X168610000Y-107780000D03*
X166070000Y-107780000D03*
X163530000Y-107780000D03*
X134700000Y-109620000D03*
X177400000Y-82440000D03*
X140390000Y-109590000D03*
X149964998Y-109590000D03*
X143581666Y-109590000D03*
X146773332Y-109590000D03*
X153156664Y-109590000D03*
X156348330Y-109590000D03*
X159540000Y-109590000D03*
X123930000Y-91990000D03*
X126440000Y-91990000D03*
X128980000Y-91990000D03*
X134600000Y-91920000D03*
X134520000Y-88460000D03*
X137120000Y-88460000D03*
X139660000Y-88460000D03*
X147520000Y-82190000D03*
X144327142Y-82190000D03*
X141134285Y-82190000D03*
X137941428Y-82190000D03*
X134748571Y-82190000D03*
X131555714Y-82190000D03*
X128362857Y-82190000D03*
X125170000Y-82190000D03*
D11*
X121920000Y-88900000D03*
X162560000Y-88900000D03*
D10*
X187629800Y-100660200D03*
X111480600Y-104241600D03*
D12*
X177400000Y-85690000D03*
X177400000Y-90690000D03*
D11*
X142240000Y-88900000D03*
D10*
X111480600Y-99898200D03*
D13*
X142493809Y-103550000D03*
X143763809Y-103550000D03*
X145033809Y-103550000D03*
X146303809Y-103550000D03*
X147573809Y-103550000D03*
X148843809Y-103550000D03*
X150113809Y-103550000D03*
X151383809Y-103550000D03*
X152653809Y-103550000D03*
X153923809Y-103550000D03*
X155193809Y-103550000D03*
X156463809Y-103550000D03*
X157733809Y-103550000D03*
X159003809Y-103550000D03*
X158943809Y-92450000D03*
X157673809Y-92450000D03*
X156403809Y-92450000D03*
X155133809Y-92450000D03*
X153863809Y-92450000D03*
X152593809Y-92450000D03*
X151323809Y-92450000D03*
X150053809Y-92450000D03*
X148783809Y-92450000D03*
X147513809Y-92450000D03*
X146243809Y-92450000D03*
X144973809Y-92450000D03*
X143703809Y-92450000D03*
X142433809Y-92450000D03*
D10*
X111480600Y-95427800D03*
X111582200Y-87172800D03*
D14*
X119380000Y-86360000D03*
D15*
X119380000Y-88900000D03*
X119380000Y-91440000D03*
X119380000Y-93980000D03*
X119380000Y-96520000D03*
X119380000Y-99060000D03*
X119380000Y-101600000D03*
X119380000Y-104140000D03*
D16*
X179000000Y-103475000D03*
X179000000Y-100525000D03*
D12*
X162585400Y-85826600D03*
D17*
X172745400Y-85826600D03*
D16*
X136300000Y-104150000D03*
X136300000Y-101200000D03*
D14*
X182880000Y-86360000D03*
D15*
X182880000Y-88900000D03*
X182880000Y-91440000D03*
X182880000Y-93980000D03*
X182880000Y-96520000D03*
X182880000Y-99060000D03*
X182880000Y-101600000D03*
X182880000Y-104140000D03*
D11*
X132080000Y-88900000D03*
X172720000Y-88900000D03*
D10*
X187680600Y-104749600D03*
D18*
X133815000Y-95577500D03*
X132545000Y-95577500D03*
X131275000Y-95577500D03*
X130005000Y-95577500D03*
X128735000Y-95577500D03*
X127465000Y-95577500D03*
X126195000Y-95577500D03*
X124925000Y-95577500D03*
X123655000Y-95577500D03*
X122385000Y-95577500D03*
X122385000Y-102502500D03*
X123655000Y-102502500D03*
X124925000Y-102502500D03*
X126195000Y-102502500D03*
X127465000Y-102502500D03*
X128735000Y-102502500D03*
X130005000Y-102502500D03*
X131275000Y-102502500D03*
X132545000Y-102502500D03*
X133815000Y-102502500D03*
D10*
X187807600Y-96545400D03*
D19*
X175285000Y-97715000D03*
X174015000Y-97715000D03*
X172745000Y-97715000D03*
X171475000Y-97715000D03*
X170205000Y-97715000D03*
X168935000Y-97715000D03*
X167665000Y-97715000D03*
X167665000Y-102665000D03*
X168935000Y-102665000D03*
X170205000Y-102665000D03*
X171475000Y-102665000D03*
X172745000Y-102665000D03*
X174015000Y-102665000D03*
X175285000Y-102665000D03*
D10*
X187858400Y-92481400D03*
X111600000Y-90410000D03*
D11*
X152400000Y-88900000D03*
D20*
X139900000Y-96789583D03*
X139900000Y-99739583D03*
D10*
X187833000Y-88366600D03*
M02*
