G04 #@! TF.GenerationSoftware,KiCad,Pcbnew,6.0.9-8da3e8f707~116~ubuntu20.04.1*
G04 #@! TF.CreationDate,2022-11-05T19:19:53+00:00*
G04 #@! TF.ProjectId,slrm,736c726d-2e6b-4696-9361-645f70636258,rev?*
G04 #@! TF.SameCoordinates,Original*
G04 #@! TF.FileFunction,Legend,Top*
G04 #@! TF.FilePolarity,Positive*
%FSLAX46Y46*%
G04 Gerber Fmt 4.6, Leading zero omitted, Abs format (unit mm)*
G04 Created by KiCad (PCBNEW 6.0.9-8da3e8f707~116~ubuntu20.04.1) date 2022-11-05 19:19:53*
%MOMM*%
%LPD*%
G01*
G04 APERTURE LIST*
G04 Aperture macros list*
%AMRoundRect*
0 Rectangle with rounded corners*
0 $1 Rounding radius*
0 $2 $3 $4 $5 $6 $7 $8 $9 X,Y pos of 4 corners*
0 Add a 4 corners polygon primitive as box body*
4,1,4,$2,$3,$4,$5,$6,$7,$8,$9,$2,$3,0*
0 Add four circle primitives for the rounded corners*
1,1,$1+$1,$2,$3*
1,1,$1+$1,$4,$5*
1,1,$1+$1,$6,$7*
1,1,$1+$1,$8,$9*
0 Add four rect primitives between the rounded corners*
20,1,$1+$1,$2,$3,$4,$5,0*
20,1,$1+$1,$4,$5,$6,$7,0*
20,1,$1+$1,$6,$7,$8,$9,0*
20,1,$1+$1,$8,$9,$2,$3,0*%
G04 Aperture macros list end*
%ADD10C,0.150000*%
%ADD11C,0.125000*%
%ADD12C,0.250000*%
%ADD13C,0.120000*%
%ADD14C,0.200000*%
%ADD15C,0.223606*%
%ADD16C,2.000000*%
%ADD17R,1.350000X1.350000*%
%ADD18C,1.600000*%
%ADD19O,0.600000X2.250000*%
%ADD20R,1.700000X1.700000*%
%ADD21O,1.700000X1.700000*%
%ADD22RoundRect,0.250000X0.650000X-0.325000X0.650000X0.325000X-0.650000X0.325000X-0.650000X-0.325000X0*%
%ADD23O,1.600000X1.600000*%
%ADD24RoundRect,0.150000X-0.150000X0.837500X-0.150000X-0.837500X0.150000X-0.837500X0.150000X0.837500X0*%
%ADD25RoundRect,0.150000X-0.150000X0.825000X-0.150000X-0.825000X0.150000X-0.825000X0.150000X0.825000X0*%
%ADD26RoundRect,0.250000X-0.650000X0.325000X-0.650000X-0.325000X0.650000X-0.325000X0.650000X0.325000X0*%
G04 APERTURE END LIST*
D10*
X122844285Y-111182380D02*
X122510952Y-110706190D01*
X122272857Y-111182380D02*
X122272857Y-110182380D01*
X122653809Y-110182380D01*
X122749047Y-110230000D01*
X122796666Y-110277619D01*
X122844285Y-110372857D01*
X122844285Y-110515714D01*
X122796666Y-110610952D01*
X122749047Y-110658571D01*
X122653809Y-110706190D01*
X122272857Y-110706190D01*
X123225238Y-110896666D02*
X123701428Y-110896666D01*
X123130000Y-111182380D02*
X123463333Y-110182380D01*
X123796666Y-111182380D01*
X124082380Y-111134761D02*
X124225238Y-111182380D01*
X124463333Y-111182380D01*
X124558571Y-111134761D01*
X124606190Y-111087142D01*
X124653809Y-110991904D01*
X124653809Y-110896666D01*
X124606190Y-110801428D01*
X124558571Y-110753809D01*
X124463333Y-110706190D01*
X124272857Y-110658571D01*
X124177619Y-110610952D01*
X124130000Y-110563333D01*
X124082380Y-110468095D01*
X124082380Y-110372857D01*
X124130000Y-110277619D01*
X124177619Y-110230000D01*
X124272857Y-110182380D01*
X124510952Y-110182380D01*
X124653809Y-110230000D01*
X126320476Y-111182380D02*
X125844285Y-111182380D01*
X125844285Y-110182380D01*
X127082380Y-111182380D02*
X127082380Y-110658571D01*
X127034761Y-110563333D01*
X126939523Y-110515714D01*
X126749047Y-110515714D01*
X126653809Y-110563333D01*
X127082380Y-111134761D02*
X126987142Y-111182380D01*
X126749047Y-111182380D01*
X126653809Y-111134761D01*
X126606190Y-111039523D01*
X126606190Y-110944285D01*
X126653809Y-110849047D01*
X126749047Y-110801428D01*
X126987142Y-110801428D01*
X127082380Y-110753809D01*
X127415714Y-110515714D02*
X127796666Y-110515714D01*
X127558571Y-110182380D02*
X127558571Y-111039523D01*
X127606190Y-111134761D01*
X127701428Y-111182380D01*
X127796666Y-111182380D01*
X128558571Y-111134761D02*
X128463333Y-111182380D01*
X128272857Y-111182380D01*
X128177619Y-111134761D01*
X128130000Y-111087142D01*
X128082380Y-110991904D01*
X128082380Y-110706190D01*
X128130000Y-110610952D01*
X128177619Y-110563333D01*
X128272857Y-110515714D01*
X128463333Y-110515714D01*
X128558571Y-110563333D01*
X128987142Y-111182380D02*
X128987142Y-110182380D01*
X129415714Y-111182380D02*
X129415714Y-110658571D01*
X129368095Y-110563333D01*
X129272857Y-110515714D01*
X129130000Y-110515714D01*
X129034761Y-110563333D01*
X128987142Y-110610952D01*
X131225238Y-111087142D02*
X131177619Y-111134761D01*
X131034761Y-111182380D01*
X130939523Y-111182380D01*
X130796666Y-111134761D01*
X130701428Y-111039523D01*
X130653809Y-110944285D01*
X130606190Y-110753809D01*
X130606190Y-110610952D01*
X130653809Y-110420476D01*
X130701428Y-110325238D01*
X130796666Y-110230000D01*
X130939523Y-110182380D01*
X131034761Y-110182380D01*
X131177619Y-110230000D01*
X131225238Y-110277619D01*
X132130000Y-111182380D02*
X131653809Y-111182380D01*
X131653809Y-110182380D01*
X132463333Y-111182380D02*
X132463333Y-110182380D01*
X133034761Y-111182380D02*
X132606190Y-110610952D01*
X133034761Y-110182380D02*
X132463333Y-110753809D01*
X179367619Y-81622380D02*
X179034285Y-81146190D01*
X178796190Y-81622380D02*
X178796190Y-80622380D01*
X179177142Y-80622380D01*
X179272380Y-80670000D01*
X179320000Y-80717619D01*
X179367619Y-80812857D01*
X179367619Y-80955714D01*
X179320000Y-81050952D01*
X179272380Y-81098571D01*
X179177142Y-81146190D01*
X178796190Y-81146190D01*
X180367619Y-81527142D02*
X180320000Y-81574761D01*
X180177142Y-81622380D01*
X180081904Y-81622380D01*
X179939047Y-81574761D01*
X179843809Y-81479523D01*
X179796190Y-81384285D01*
X179748571Y-81193809D01*
X179748571Y-81050952D01*
X179796190Y-80860476D01*
X179843809Y-80765238D01*
X179939047Y-80670000D01*
X180081904Y-80622380D01*
X180177142Y-80622380D01*
X180320000Y-80670000D01*
X180367619Y-80717619D01*
X181700952Y-81622380D02*
X181605714Y-81574761D01*
X181558095Y-81527142D01*
X181510476Y-81431904D01*
X181510476Y-81146190D01*
X181558095Y-81050952D01*
X181605714Y-81003333D01*
X181700952Y-80955714D01*
X181843809Y-80955714D01*
X181939047Y-81003333D01*
X181986666Y-81050952D01*
X182034285Y-81146190D01*
X182034285Y-81431904D01*
X181986666Y-81527142D01*
X181939047Y-81574761D01*
X181843809Y-81622380D01*
X181700952Y-81622380D01*
X182891428Y-80955714D02*
X182891428Y-81622380D01*
X182462857Y-80955714D02*
X182462857Y-81479523D01*
X182510476Y-81574761D01*
X182605714Y-81622380D01*
X182748571Y-81622380D01*
X182843809Y-81574761D01*
X182891428Y-81527142D01*
X183224761Y-80955714D02*
X183605714Y-80955714D01*
X183367619Y-80622380D02*
X183367619Y-81479523D01*
X183415238Y-81574761D01*
X183510476Y-81622380D01*
X183605714Y-81622380D01*
X183939047Y-80955714D02*
X183939047Y-81955714D01*
X183939047Y-81003333D02*
X184034285Y-80955714D01*
X184224761Y-80955714D01*
X184320000Y-81003333D01*
X184367619Y-81050952D01*
X184415238Y-81146190D01*
X184415238Y-81431904D01*
X184367619Y-81527142D01*
X184320000Y-81574761D01*
X184224761Y-81622380D01*
X184034285Y-81622380D01*
X183939047Y-81574761D01*
X185272380Y-80955714D02*
X185272380Y-81622380D01*
X184843809Y-80955714D02*
X184843809Y-81479523D01*
X184891428Y-81574761D01*
X184986666Y-81622380D01*
X185129523Y-81622380D01*
X185224761Y-81574761D01*
X185272380Y-81527142D01*
X185605714Y-80955714D02*
X185986666Y-80955714D01*
X185748571Y-80622380D02*
X185748571Y-81479523D01*
X185796190Y-81574761D01*
X185891428Y-81622380D01*
X185986666Y-81622380D01*
X124760000Y-89280000D02*
X128760000Y-89280000D01*
X127850000Y-86620000D02*
X126820000Y-89210000D01*
X131040000Y-86620000D02*
X127850000Y-86620000D01*
X134610000Y-85540000D02*
X131040000Y-86620000D01*
D11*
X135031428Y-85546666D02*
X135269523Y-85546666D01*
X134983809Y-85832380D02*
X135150476Y-84832380D01*
X135317142Y-85832380D01*
X135483809Y-85832380D02*
X135483809Y-84832380D01*
X135483809Y-85213333D02*
X135531428Y-85165714D01*
X135626666Y-85165714D01*
X135674285Y-85213333D01*
X135698095Y-85260952D01*
X135721904Y-85356190D01*
X135721904Y-85641904D01*
X135698095Y-85737142D01*
X135674285Y-85784761D01*
X135626666Y-85832380D01*
X135531428Y-85832380D01*
X135483809Y-85784761D01*
X136150476Y-85165714D02*
X136150476Y-85832380D01*
X135936190Y-85165714D02*
X135936190Y-85689523D01*
X135960000Y-85784761D01*
X136007619Y-85832380D01*
X136079047Y-85832380D01*
X136126666Y-85784761D01*
X136150476Y-85737142D01*
X136364761Y-85784761D02*
X136412380Y-85832380D01*
X136507619Y-85832380D01*
X136555238Y-85784761D01*
X136579047Y-85689523D01*
X136579047Y-85641904D01*
X136555238Y-85546666D01*
X136507619Y-85499047D01*
X136436190Y-85499047D01*
X136388571Y-85451428D01*
X136364761Y-85356190D01*
X136364761Y-85308571D01*
X136388571Y-85213333D01*
X136436190Y-85165714D01*
X136507619Y-85165714D01*
X136555238Y-85213333D01*
X137483809Y-85356190D02*
X137460000Y-85308571D01*
X137412380Y-85260952D01*
X137364761Y-85260952D01*
X137317142Y-85308571D01*
X137293333Y-85356190D01*
X137269523Y-85451428D01*
X137269523Y-85546666D01*
X137293333Y-85641904D01*
X137317142Y-85689523D01*
X137364761Y-85737142D01*
X137412380Y-85737142D01*
X137460000Y-85689523D01*
X137483809Y-85641904D01*
X137483809Y-85260952D02*
X137483809Y-85641904D01*
X137507619Y-85689523D01*
X137531428Y-85689523D01*
X137579047Y-85641904D01*
X137602857Y-85546666D01*
X137602857Y-85308571D01*
X137555238Y-85165714D01*
X137483809Y-85070476D01*
X137388571Y-85022857D01*
X137293333Y-85070476D01*
X137221904Y-85165714D01*
X137174285Y-85308571D01*
X137150476Y-85499047D01*
X137174285Y-85689523D01*
X137221904Y-85832380D01*
X137293333Y-85927619D01*
X137388571Y-85975238D01*
X137483809Y-85927619D01*
X137555238Y-85832380D01*
X138483809Y-85737142D02*
X138460000Y-85784761D01*
X138388571Y-85832380D01*
X138340952Y-85832380D01*
X138269523Y-85784761D01*
X138221904Y-85689523D01*
X138198095Y-85594285D01*
X138174285Y-85403809D01*
X138174285Y-85260952D01*
X138198095Y-85070476D01*
X138221904Y-84975238D01*
X138269523Y-84880000D01*
X138340952Y-84832380D01*
X138388571Y-84832380D01*
X138460000Y-84880000D01*
X138483809Y-84927619D01*
X138674285Y-85546666D02*
X138912380Y-85546666D01*
X138626666Y-85832380D02*
X138793333Y-84832380D01*
X138960000Y-85832380D01*
X139102857Y-85784761D02*
X139174285Y-85832380D01*
X139293333Y-85832380D01*
X139340952Y-85784761D01*
X139364761Y-85737142D01*
X139388571Y-85641904D01*
X139388571Y-85546666D01*
X139364761Y-85451428D01*
X139340952Y-85403809D01*
X139293333Y-85356190D01*
X139198095Y-85308571D01*
X139150476Y-85260952D01*
X139126666Y-85213333D01*
X139102857Y-85118095D01*
X139102857Y-85022857D01*
X139126666Y-84927619D01*
X139150476Y-84880000D01*
X139198095Y-84832380D01*
X139317142Y-84832380D01*
X139388571Y-84880000D01*
X124082857Y-90426666D02*
X124320952Y-90426666D01*
X124035238Y-90712380D02*
X124201904Y-89712380D01*
X124368571Y-90712380D01*
X124749523Y-89712380D02*
X124654285Y-89712380D01*
X124606666Y-89760000D01*
X124582857Y-89807619D01*
X124535238Y-89950476D01*
X124511428Y-90140952D01*
X124511428Y-90521904D01*
X124535238Y-90617142D01*
X124559047Y-90664761D01*
X124606666Y-90712380D01*
X124701904Y-90712380D01*
X124749523Y-90664761D01*
X124773333Y-90617142D01*
X124797142Y-90521904D01*
X124797142Y-90283809D01*
X124773333Y-90188571D01*
X124749523Y-90140952D01*
X124701904Y-90093333D01*
X124606666Y-90093333D01*
X124559047Y-90140952D01*
X124535238Y-90188571D01*
X124511428Y-90283809D01*
X128502857Y-90386666D02*
X128740952Y-90386666D01*
X128455238Y-90672380D02*
X128621904Y-89672380D01*
X128788571Y-90672380D01*
X129169523Y-90005714D02*
X129169523Y-90672380D01*
X129050476Y-89624761D02*
X128931428Y-90339047D01*
X129240952Y-90339047D01*
X126112857Y-90416666D02*
X126350952Y-90416666D01*
X126065238Y-90702380D02*
X126231904Y-89702380D01*
X126398571Y-90702380D01*
X126803333Y-89702380D02*
X126565238Y-89702380D01*
X126541428Y-90178571D01*
X126565238Y-90130952D01*
X126612857Y-90083333D01*
X126731904Y-90083333D01*
X126779523Y-90130952D01*
X126803333Y-90178571D01*
X126827142Y-90273809D01*
X126827142Y-90511904D01*
X126803333Y-90607142D01*
X126779523Y-90654761D01*
X126731904Y-90702380D01*
X126612857Y-90702380D01*
X126565238Y-90654761D01*
X126541428Y-90607142D01*
D10*
X136144285Y-91955000D02*
X136501428Y-91955000D01*
X136072857Y-92169285D02*
X136322857Y-91419285D01*
X136572857Y-92169285D01*
X136751428Y-91419285D02*
X137215714Y-91419285D01*
X136965714Y-91705000D01*
X137072857Y-91705000D01*
X137144285Y-91740714D01*
X137180000Y-91776428D01*
X137215714Y-91847857D01*
X137215714Y-92026428D01*
X137180000Y-92097857D01*
X137144285Y-92133571D01*
X137072857Y-92169285D01*
X136858571Y-92169285D01*
X136787142Y-92133571D01*
X136751428Y-92097857D01*
D11*
X134432857Y-86896666D02*
X134670952Y-86896666D01*
X134385238Y-87182380D02*
X134551904Y-86182380D01*
X134718571Y-87182380D01*
X134861428Y-86277619D02*
X134885238Y-86230000D01*
X134932857Y-86182380D01*
X135051904Y-86182380D01*
X135099523Y-86230000D01*
X135123333Y-86277619D01*
X135147142Y-86372857D01*
X135147142Y-86468095D01*
X135123333Y-86610952D01*
X134837619Y-87182380D01*
X135147142Y-87182380D01*
X137062857Y-86856666D02*
X137300952Y-86856666D01*
X137015238Y-87142380D02*
X137181904Y-86142380D01*
X137348571Y-87142380D01*
X137777142Y-87142380D02*
X137491428Y-87142380D01*
X137634285Y-87142380D02*
X137634285Y-86142380D01*
X137586666Y-86285238D01*
X137539047Y-86380476D01*
X137491428Y-86428095D01*
X139482857Y-86886666D02*
X139720952Y-86886666D01*
X139435238Y-87172380D02*
X139601904Y-86172380D01*
X139768571Y-87172380D01*
X140030476Y-86172380D02*
X140078095Y-86172380D01*
X140125714Y-86220000D01*
X140149523Y-86267619D01*
X140173333Y-86362857D01*
X140197142Y-86553333D01*
X140197142Y-86791428D01*
X140173333Y-86981904D01*
X140149523Y-87077142D01*
X140125714Y-87124761D01*
X140078095Y-87172380D01*
X140030476Y-87172380D01*
X139982857Y-87124761D01*
X139959047Y-87077142D01*
X139935238Y-86981904D01*
X139911428Y-86791428D01*
X139911428Y-86553333D01*
X139935238Y-86362857D01*
X139959047Y-86267619D01*
X139982857Y-86220000D01*
X140030476Y-86172380D01*
D12*
X126347619Y-80292380D02*
X126347619Y-79292380D01*
X126585714Y-79292380D01*
X126728571Y-79340000D01*
X126823809Y-79435238D01*
X126871428Y-79530476D01*
X126919047Y-79720952D01*
X126919047Y-79863809D01*
X126871428Y-80054285D01*
X126823809Y-80149523D01*
X126728571Y-80244761D01*
X126585714Y-80292380D01*
X126347619Y-80292380D01*
X127252380Y-79292380D02*
X127919047Y-79292380D01*
X127490476Y-80292380D01*
X129061904Y-80197142D02*
X129109523Y-80244761D01*
X129061904Y-80292380D01*
X129014285Y-80244761D01*
X129061904Y-80197142D01*
X129061904Y-80292380D01*
X129538095Y-80197142D02*
X129585714Y-80244761D01*
X129538095Y-80292380D01*
X129490476Y-80244761D01*
X129538095Y-80197142D01*
X129538095Y-80292380D01*
X130014285Y-80197142D02*
X130061904Y-80244761D01*
X130014285Y-80292380D01*
X129966666Y-80244761D01*
X130014285Y-80197142D01*
X130014285Y-80292380D01*
X130490476Y-80197142D02*
X130538095Y-80244761D01*
X130490476Y-80292380D01*
X130442857Y-80244761D01*
X130490476Y-80197142D01*
X130490476Y-80292380D01*
X130966666Y-80197142D02*
X131014285Y-80244761D01*
X130966666Y-80292380D01*
X130919047Y-80244761D01*
X130966666Y-80197142D01*
X130966666Y-80292380D01*
X131442857Y-80197142D02*
X131490476Y-80244761D01*
X131442857Y-80292380D01*
X131395238Y-80244761D01*
X131442857Y-80197142D01*
X131442857Y-80292380D01*
X131919047Y-80197142D02*
X131966666Y-80244761D01*
X131919047Y-80292380D01*
X131871428Y-80244761D01*
X131919047Y-80197142D01*
X131919047Y-80292380D01*
X133157142Y-80292380D02*
X133157142Y-79292380D01*
X133395238Y-79292380D01*
X133538095Y-79340000D01*
X133633333Y-79435238D01*
X133680952Y-79530476D01*
X133728571Y-79720952D01*
X133728571Y-79863809D01*
X133680952Y-80054285D01*
X133633333Y-80149523D01*
X133538095Y-80244761D01*
X133395238Y-80292380D01*
X133157142Y-80292380D01*
X134585714Y-80292380D02*
X134585714Y-79768571D01*
X134538095Y-79673333D01*
X134442857Y-79625714D01*
X134252380Y-79625714D01*
X134157142Y-79673333D01*
X134585714Y-80244761D02*
X134490476Y-80292380D01*
X134252380Y-80292380D01*
X134157142Y-80244761D01*
X134109523Y-80149523D01*
X134109523Y-80054285D01*
X134157142Y-79959047D01*
X134252380Y-79911428D01*
X134490476Y-79911428D01*
X134585714Y-79863809D01*
X134919047Y-79625714D02*
X135300000Y-79625714D01*
X135061904Y-79292380D02*
X135061904Y-80149523D01*
X135109523Y-80244761D01*
X135204761Y-80292380D01*
X135300000Y-80292380D01*
X136061904Y-80292380D02*
X136061904Y-79768571D01*
X136014285Y-79673333D01*
X135919047Y-79625714D01*
X135728571Y-79625714D01*
X135633333Y-79673333D01*
X136061904Y-80244761D02*
X135966666Y-80292380D01*
X135728571Y-80292380D01*
X135633333Y-80244761D01*
X135585714Y-80149523D01*
X135585714Y-80054285D01*
X135633333Y-79959047D01*
X135728571Y-79911428D01*
X135966666Y-79911428D01*
X136061904Y-79863809D01*
X137300000Y-80292380D02*
X137300000Y-79292380D01*
X137300000Y-79673333D02*
X137395238Y-79625714D01*
X137585714Y-79625714D01*
X137680952Y-79673333D01*
X137728571Y-79720952D01*
X137776190Y-79816190D01*
X137776190Y-80101904D01*
X137728571Y-80197142D01*
X137680952Y-80244761D01*
X137585714Y-80292380D01*
X137395238Y-80292380D01*
X137300000Y-80244761D01*
X138633333Y-79625714D02*
X138633333Y-80292380D01*
X138204761Y-79625714D02*
X138204761Y-80149523D01*
X138252380Y-80244761D01*
X138347619Y-80292380D01*
X138490476Y-80292380D01*
X138585714Y-80244761D01*
X138633333Y-80197142D01*
X139061904Y-80244761D02*
X139157142Y-80292380D01*
X139347619Y-80292380D01*
X139442857Y-80244761D01*
X139490476Y-80149523D01*
X139490476Y-80101904D01*
X139442857Y-80006666D01*
X139347619Y-79959047D01*
X139204761Y-79959047D01*
X139109523Y-79911428D01*
X139061904Y-79816190D01*
X139061904Y-79768571D01*
X139109523Y-79673333D01*
X139204761Y-79625714D01*
X139347619Y-79625714D01*
X139442857Y-79673333D01*
X140680952Y-80197142D02*
X140728571Y-80244761D01*
X140680952Y-80292380D01*
X140633333Y-80244761D01*
X140680952Y-80197142D01*
X140680952Y-80292380D01*
X141157142Y-80197142D02*
X141204761Y-80244761D01*
X141157142Y-80292380D01*
X141109523Y-80244761D01*
X141157142Y-80197142D01*
X141157142Y-80292380D01*
X141633333Y-80197142D02*
X141680952Y-80244761D01*
X141633333Y-80292380D01*
X141585714Y-80244761D01*
X141633333Y-80197142D01*
X141633333Y-80292380D01*
X142109523Y-80197142D02*
X142157142Y-80244761D01*
X142109523Y-80292380D01*
X142061904Y-80244761D01*
X142109523Y-80197142D01*
X142109523Y-80292380D01*
X142585714Y-80197142D02*
X142633333Y-80244761D01*
X142585714Y-80292380D01*
X142538095Y-80244761D01*
X142585714Y-80197142D01*
X142585714Y-80292380D01*
X143061904Y-80197142D02*
X143109523Y-80244761D01*
X143061904Y-80292380D01*
X143014285Y-80244761D01*
X143061904Y-80197142D01*
X143061904Y-80292380D01*
X143538095Y-80197142D02*
X143585714Y-80244761D01*
X143538095Y-80292380D01*
X143490476Y-80244761D01*
X143538095Y-80197142D01*
X143538095Y-80292380D01*
X144776190Y-80292380D02*
X144776190Y-79292380D01*
X145014285Y-79292380D01*
X145157142Y-79340000D01*
X145252380Y-79435238D01*
X145300000Y-79530476D01*
X145347619Y-79720952D01*
X145347619Y-79863809D01*
X145300000Y-80054285D01*
X145252380Y-80149523D01*
X145157142Y-80244761D01*
X145014285Y-80292380D01*
X144776190Y-80292380D01*
X145966666Y-79292380D02*
X146061904Y-79292380D01*
X146157142Y-79340000D01*
X146204761Y-79387619D01*
X146252380Y-79482857D01*
X146300000Y-79673333D01*
X146300000Y-79911428D01*
X146252380Y-80101904D01*
X146204761Y-80197142D01*
X146157142Y-80244761D01*
X146061904Y-80292380D01*
X145966666Y-80292380D01*
X145871428Y-80244761D01*
X145823809Y-80197142D01*
X145776190Y-80101904D01*
X145728571Y-79911428D01*
X145728571Y-79673333D01*
X145776190Y-79482857D01*
X145823809Y-79387619D01*
X145871428Y-79340000D01*
X145966666Y-79292380D01*
X139439047Y-112366666D02*
X139915238Y-112366666D01*
X139343809Y-112652380D02*
X139677142Y-111652380D01*
X140010476Y-112652380D01*
X140772380Y-111652380D02*
X140581904Y-111652380D01*
X140486666Y-111700000D01*
X140439047Y-111747619D01*
X140343809Y-111890476D01*
X140296190Y-112080952D01*
X140296190Y-112461904D01*
X140343809Y-112557142D01*
X140391428Y-112604761D01*
X140486666Y-112652380D01*
X140677142Y-112652380D01*
X140772380Y-112604761D01*
X140820000Y-112557142D01*
X140867619Y-112461904D01*
X140867619Y-112223809D01*
X140820000Y-112128571D01*
X140772380Y-112080952D01*
X140677142Y-112033333D01*
X140486666Y-112033333D01*
X140391428Y-112080952D01*
X140343809Y-112128571D01*
X140296190Y-112223809D01*
X142058095Y-112557142D02*
X142105714Y-112604761D01*
X142058095Y-112652380D01*
X142010476Y-112604761D01*
X142058095Y-112557142D01*
X142058095Y-112652380D01*
X142534285Y-112557142D02*
X142581904Y-112604761D01*
X142534285Y-112652380D01*
X142486666Y-112604761D01*
X142534285Y-112557142D01*
X142534285Y-112652380D01*
X143010476Y-112557142D02*
X143058095Y-112604761D01*
X143010476Y-112652380D01*
X142962857Y-112604761D01*
X143010476Y-112557142D01*
X143010476Y-112652380D01*
X144724761Y-112652380D02*
X144248571Y-112652380D01*
X144248571Y-111652380D01*
X145486666Y-112652380D02*
X145486666Y-112128571D01*
X145439047Y-112033333D01*
X145343809Y-111985714D01*
X145153333Y-111985714D01*
X145058095Y-112033333D01*
X145486666Y-112604761D02*
X145391428Y-112652380D01*
X145153333Y-112652380D01*
X145058095Y-112604761D01*
X145010476Y-112509523D01*
X145010476Y-112414285D01*
X145058095Y-112319047D01*
X145153333Y-112271428D01*
X145391428Y-112271428D01*
X145486666Y-112223809D01*
X145820000Y-111985714D02*
X146200952Y-111985714D01*
X145962857Y-111652380D02*
X145962857Y-112509523D01*
X146010476Y-112604761D01*
X146105714Y-112652380D01*
X146200952Y-112652380D01*
X146962857Y-112604761D02*
X146867619Y-112652380D01*
X146677142Y-112652380D01*
X146581904Y-112604761D01*
X146534285Y-112557142D01*
X146486666Y-112461904D01*
X146486666Y-112176190D01*
X146534285Y-112080952D01*
X146581904Y-112033333D01*
X146677142Y-111985714D01*
X146867619Y-111985714D01*
X146962857Y-112033333D01*
X147391428Y-112652380D02*
X147391428Y-111652380D01*
X147820000Y-112652380D02*
X147820000Y-112128571D01*
X147772380Y-112033333D01*
X147677142Y-111985714D01*
X147534285Y-111985714D01*
X147439047Y-112033333D01*
X147391428Y-112080952D01*
X148677142Y-112604761D02*
X148581904Y-112652380D01*
X148391428Y-112652380D01*
X148296190Y-112604761D01*
X148248571Y-112509523D01*
X148248571Y-112128571D01*
X148296190Y-112033333D01*
X148391428Y-111985714D01*
X148581904Y-111985714D01*
X148677142Y-112033333D01*
X148724761Y-112128571D01*
X148724761Y-112223809D01*
X148248571Y-112319047D01*
X149581904Y-112652380D02*
X149581904Y-111652380D01*
X149581904Y-112604761D02*
X149486666Y-112652380D01*
X149296190Y-112652380D01*
X149200952Y-112604761D01*
X149153333Y-112557142D01*
X149105714Y-112461904D01*
X149105714Y-112176190D01*
X149153333Y-112080952D01*
X149200952Y-112033333D01*
X149296190Y-111985714D01*
X149486666Y-111985714D01*
X149581904Y-112033333D01*
X151248571Y-112652380D02*
X151248571Y-112128571D01*
X151200952Y-112033333D01*
X151105714Y-111985714D01*
X150915238Y-111985714D01*
X150820000Y-112033333D01*
X151248571Y-112604761D02*
X151153333Y-112652380D01*
X150915238Y-112652380D01*
X150820000Y-112604761D01*
X150772380Y-112509523D01*
X150772380Y-112414285D01*
X150820000Y-112319047D01*
X150915238Y-112271428D01*
X151153333Y-112271428D01*
X151248571Y-112223809D01*
X151581904Y-111985714D02*
X151962857Y-111985714D01*
X151724761Y-111652380D02*
X151724761Y-112509523D01*
X151772380Y-112604761D01*
X151867619Y-112652380D01*
X151962857Y-112652380D01*
X153629523Y-112652380D02*
X153296190Y-112176190D01*
X153058095Y-112652380D02*
X153058095Y-111652380D01*
X153439047Y-111652380D01*
X153534285Y-111700000D01*
X153581904Y-111747619D01*
X153629523Y-111842857D01*
X153629523Y-111985714D01*
X153581904Y-112080952D01*
X153534285Y-112128571D01*
X153439047Y-112176190D01*
X153058095Y-112176190D01*
X154010476Y-112366666D02*
X154486666Y-112366666D01*
X153915238Y-112652380D02*
X154248571Y-111652380D01*
X154581904Y-112652380D01*
X154867619Y-112604761D02*
X155010476Y-112652380D01*
X155248571Y-112652380D01*
X155343809Y-112604761D01*
X155391428Y-112557142D01*
X155439047Y-112461904D01*
X155439047Y-112366666D01*
X155391428Y-112271428D01*
X155343809Y-112223809D01*
X155248571Y-112176190D01*
X155058095Y-112128571D01*
X154962857Y-112080952D01*
X154915238Y-112033333D01*
X154867619Y-111938095D01*
X154867619Y-111842857D01*
X154915238Y-111747619D01*
X154962857Y-111700000D01*
X155058095Y-111652380D01*
X155296190Y-111652380D01*
X155439047Y-111700000D01*
X156629523Y-112557142D02*
X156677142Y-112604761D01*
X156629523Y-112652380D01*
X156581904Y-112604761D01*
X156629523Y-112557142D01*
X156629523Y-112652380D01*
X157105714Y-112557142D02*
X157153333Y-112604761D01*
X157105714Y-112652380D01*
X157058095Y-112604761D01*
X157105714Y-112557142D01*
X157105714Y-112652380D01*
X157581904Y-112557142D02*
X157629523Y-112604761D01*
X157581904Y-112652380D01*
X157534285Y-112604761D01*
X157581904Y-112557142D01*
X157581904Y-112652380D01*
X158772380Y-112366666D02*
X159248571Y-112366666D01*
X158677142Y-112652380D02*
X159010476Y-111652380D01*
X159343809Y-112652380D01*
X159867619Y-111652380D02*
X159962857Y-111652380D01*
X160058095Y-111700000D01*
X160105714Y-111747619D01*
X160153333Y-111842857D01*
X160200952Y-112033333D01*
X160200952Y-112271428D01*
X160153333Y-112461904D01*
X160105714Y-112557142D01*
X160058095Y-112604761D01*
X159962857Y-112652380D01*
X159867619Y-112652380D01*
X159772380Y-112604761D01*
X159724761Y-112557142D01*
X159677142Y-112461904D01*
X159629523Y-112271428D01*
X159629523Y-112033333D01*
X159677142Y-111842857D01*
X159724761Y-111747619D01*
X159772380Y-111700000D01*
X159867619Y-111652380D01*
D10*
X135140000Y-93320000D02*
G75*
G03*
X135140000Y-93320000I-100000J0D01*
G01*
X176580000Y-96820000D02*
G75*
G03*
X176580000Y-96820000I-100000J0D01*
G01*
D11*
X163197142Y-119995714D02*
X163197142Y-120805238D01*
X163173333Y-120900476D01*
X163149523Y-120948095D01*
X163101904Y-120995714D01*
X163030476Y-120995714D01*
X162982857Y-120948095D01*
X163197142Y-120614761D02*
X163149523Y-120662380D01*
X163054285Y-120662380D01*
X163006666Y-120614761D01*
X162982857Y-120567142D01*
X162959047Y-120471904D01*
X162959047Y-120186190D01*
X162982857Y-120090952D01*
X163006666Y-120043333D01*
X163054285Y-119995714D01*
X163149523Y-119995714D01*
X163197142Y-120043333D01*
X163435238Y-120662380D02*
X163435238Y-119995714D01*
X163435238Y-119662380D02*
X163411428Y-119710000D01*
X163435238Y-119757619D01*
X163459047Y-119710000D01*
X163435238Y-119662380D01*
X163435238Y-119757619D01*
X163601904Y-119995714D02*
X163792380Y-119995714D01*
X163673333Y-119662380D02*
X163673333Y-120519523D01*
X163697142Y-120614761D01*
X163744761Y-120662380D01*
X163792380Y-120662380D01*
X163959047Y-120662380D02*
X163959047Y-119662380D01*
X164173333Y-120662380D02*
X164173333Y-120138571D01*
X164149523Y-120043333D01*
X164101904Y-119995714D01*
X164030476Y-119995714D01*
X163982857Y-120043333D01*
X163959047Y-120090952D01*
X164625714Y-119995714D02*
X164625714Y-120662380D01*
X164411428Y-119995714D02*
X164411428Y-120519523D01*
X164435238Y-120614761D01*
X164482857Y-120662380D01*
X164554285Y-120662380D01*
X164601904Y-120614761D01*
X164625714Y-120567142D01*
X164863809Y-120662380D02*
X164863809Y-119662380D01*
X164863809Y-120043333D02*
X164911428Y-119995714D01*
X165006666Y-119995714D01*
X165054285Y-120043333D01*
X165078095Y-120090952D01*
X165101904Y-120186190D01*
X165101904Y-120471904D01*
X165078095Y-120567142D01*
X165054285Y-120614761D01*
X165006666Y-120662380D01*
X164911428Y-120662380D01*
X164863809Y-120614761D01*
X165316190Y-120567142D02*
X165340000Y-120614761D01*
X165316190Y-120662380D01*
X165292380Y-120614761D01*
X165316190Y-120567142D01*
X165316190Y-120662380D01*
X165768571Y-120614761D02*
X165720952Y-120662380D01*
X165625714Y-120662380D01*
X165578095Y-120614761D01*
X165554285Y-120567142D01*
X165530476Y-120471904D01*
X165530476Y-120186190D01*
X165554285Y-120090952D01*
X165578095Y-120043333D01*
X165625714Y-119995714D01*
X165720952Y-119995714D01*
X165768571Y-120043333D01*
X166054285Y-120662380D02*
X166006666Y-120614761D01*
X165982857Y-120567142D01*
X165959047Y-120471904D01*
X165959047Y-120186190D01*
X165982857Y-120090952D01*
X166006666Y-120043333D01*
X166054285Y-119995714D01*
X166125714Y-119995714D01*
X166173333Y-120043333D01*
X166197142Y-120090952D01*
X166220952Y-120186190D01*
X166220952Y-120471904D01*
X166197142Y-120567142D01*
X166173333Y-120614761D01*
X166125714Y-120662380D01*
X166054285Y-120662380D01*
X166435238Y-120662380D02*
X166435238Y-119995714D01*
X166435238Y-120090952D02*
X166459047Y-120043333D01*
X166506666Y-119995714D01*
X166578095Y-119995714D01*
X166625714Y-120043333D01*
X166649523Y-120138571D01*
X166649523Y-120662380D01*
X166649523Y-120138571D02*
X166673333Y-120043333D01*
X166720952Y-119995714D01*
X166792380Y-119995714D01*
X166840000Y-120043333D01*
X166863809Y-120138571D01*
X166863809Y-120662380D01*
X167459047Y-119614761D02*
X167030476Y-120900476D01*
X167840000Y-120662380D02*
X167840000Y-119662380D01*
X167840000Y-120614761D02*
X167792380Y-120662380D01*
X167697142Y-120662380D01*
X167649523Y-120614761D01*
X167625714Y-120567142D01*
X167601904Y-120471904D01*
X167601904Y-120186190D01*
X167625714Y-120090952D01*
X167649523Y-120043333D01*
X167697142Y-119995714D01*
X167792380Y-119995714D01*
X167840000Y-120043333D01*
X168268571Y-120614761D02*
X168220952Y-120662380D01*
X168125714Y-120662380D01*
X168078095Y-120614761D01*
X168054285Y-120519523D01*
X168054285Y-120138571D01*
X168078095Y-120043333D01*
X168125714Y-119995714D01*
X168220952Y-119995714D01*
X168268571Y-120043333D01*
X168292380Y-120138571D01*
X168292380Y-120233809D01*
X168054285Y-120329047D01*
X168506666Y-120662380D02*
X168506666Y-119995714D01*
X168506666Y-120186190D02*
X168530476Y-120090952D01*
X168554285Y-120043333D01*
X168601904Y-119995714D01*
X168649523Y-119995714D01*
X169006666Y-120614761D02*
X168959047Y-120662380D01*
X168863809Y-120662380D01*
X168816190Y-120614761D01*
X168792380Y-120519523D01*
X168792380Y-120138571D01*
X168816190Y-120043333D01*
X168863809Y-119995714D01*
X168959047Y-119995714D01*
X169006666Y-120043333D01*
X169030476Y-120138571D01*
X169030476Y-120233809D01*
X168792380Y-120329047D01*
X169244761Y-120662380D02*
X169244761Y-119662380D01*
X169292380Y-120281428D02*
X169435238Y-120662380D01*
X169435238Y-119995714D02*
X169244761Y-120376666D01*
X169578095Y-119995714D02*
X169768571Y-119995714D01*
X169649523Y-120662380D02*
X169649523Y-119805238D01*
X169673333Y-119710000D01*
X169720952Y-119662380D01*
X169768571Y-119662380D01*
X170006666Y-120662380D02*
X169959047Y-120614761D01*
X169935238Y-120567142D01*
X169911428Y-120471904D01*
X169911428Y-120186190D01*
X169935238Y-120090952D01*
X169959047Y-120043333D01*
X170006666Y-119995714D01*
X170078095Y-119995714D01*
X170125714Y-120043333D01*
X170149523Y-120090952D01*
X170173333Y-120186190D01*
X170173333Y-120471904D01*
X170149523Y-120567142D01*
X170125714Y-120614761D01*
X170078095Y-120662380D01*
X170006666Y-120662380D01*
X170601904Y-119995714D02*
X170601904Y-120662380D01*
X170387619Y-119995714D02*
X170387619Y-120519523D01*
X170411428Y-120614761D01*
X170459047Y-120662380D01*
X170530476Y-120662380D01*
X170578095Y-120614761D01*
X170601904Y-120567142D01*
X170840000Y-119995714D02*
X170840000Y-120662380D01*
X170840000Y-120090952D02*
X170863809Y-120043333D01*
X170911428Y-119995714D01*
X170982857Y-119995714D01*
X171030476Y-120043333D01*
X171054285Y-120138571D01*
X171054285Y-120662380D01*
X171220952Y-119995714D02*
X171411428Y-119995714D01*
X171292380Y-119662380D02*
X171292380Y-120519523D01*
X171316190Y-120614761D01*
X171363809Y-120662380D01*
X171411428Y-120662380D01*
X171792380Y-120662380D02*
X171792380Y-120138571D01*
X171768571Y-120043333D01*
X171720952Y-119995714D01*
X171625714Y-119995714D01*
X171578095Y-120043333D01*
X171792380Y-120614761D02*
X171744761Y-120662380D01*
X171625714Y-120662380D01*
X171578095Y-120614761D01*
X171554285Y-120519523D01*
X171554285Y-120424285D01*
X171578095Y-120329047D01*
X171625714Y-120281428D01*
X171744761Y-120281428D01*
X171792380Y-120233809D01*
X172030476Y-120662380D02*
X172030476Y-119995714D01*
X172030476Y-119662380D02*
X172006666Y-119710000D01*
X172030476Y-119757619D01*
X172054285Y-119710000D01*
X172030476Y-119662380D01*
X172030476Y-119757619D01*
X172268571Y-119995714D02*
X172268571Y-120662380D01*
X172268571Y-120090952D02*
X172292380Y-120043333D01*
X172340000Y-119995714D01*
X172411428Y-119995714D01*
X172459047Y-120043333D01*
X172482857Y-120138571D01*
X172482857Y-120662380D01*
X173078095Y-119614761D02*
X172649523Y-120900476D01*
X173197142Y-119995714D02*
X173459047Y-119995714D01*
X173197142Y-120662380D01*
X173459047Y-120662380D01*
X173601904Y-120662380D02*
X173863809Y-119995714D01*
X173601904Y-119995714D02*
X173863809Y-120662380D01*
X174054285Y-120281428D02*
X174435238Y-120281428D01*
X174649523Y-120614761D02*
X174697142Y-120662380D01*
X174792380Y-120662380D01*
X174840000Y-120614761D01*
X174863809Y-120519523D01*
X174863809Y-120471904D01*
X174840000Y-120376666D01*
X174792380Y-120329047D01*
X174720952Y-120329047D01*
X174673333Y-120281428D01*
X174649523Y-120186190D01*
X174649523Y-120138571D01*
X174673333Y-120043333D01*
X174720952Y-119995714D01*
X174792380Y-119995714D01*
X174840000Y-120043333D01*
X175078095Y-119995714D02*
X175078095Y-120995714D01*
X175078095Y-120043333D02*
X175125714Y-119995714D01*
X175220952Y-119995714D01*
X175268571Y-120043333D01*
X175292380Y-120090952D01*
X175316190Y-120186190D01*
X175316190Y-120471904D01*
X175292380Y-120567142D01*
X175268571Y-120614761D01*
X175220952Y-120662380D01*
X175125714Y-120662380D01*
X175078095Y-120614761D01*
X175720952Y-120614761D02*
X175673333Y-120662380D01*
X175578095Y-120662380D01*
X175530476Y-120614761D01*
X175506666Y-120519523D01*
X175506666Y-120138571D01*
X175530476Y-120043333D01*
X175578095Y-119995714D01*
X175673333Y-119995714D01*
X175720952Y-120043333D01*
X175744761Y-120138571D01*
X175744761Y-120233809D01*
X175506666Y-120329047D01*
X176173333Y-120614761D02*
X176125714Y-120662380D01*
X176030476Y-120662380D01*
X175982857Y-120614761D01*
X175959047Y-120567142D01*
X175935238Y-120471904D01*
X175935238Y-120186190D01*
X175959047Y-120090952D01*
X175982857Y-120043333D01*
X176030476Y-119995714D01*
X176125714Y-119995714D01*
X176173333Y-120043333D01*
X176316190Y-119995714D02*
X176506666Y-119995714D01*
X176387619Y-119662380D02*
X176387619Y-120519523D01*
X176411428Y-120614761D01*
X176459047Y-120662380D01*
X176506666Y-120662380D01*
X176673333Y-120662380D02*
X176673333Y-119995714D01*
X176673333Y-120186190D02*
X176697142Y-120090952D01*
X176720952Y-120043333D01*
X176768571Y-119995714D01*
X176816190Y-119995714D01*
X177197142Y-119995714D02*
X177197142Y-120662380D01*
X176982857Y-119995714D02*
X176982857Y-120519523D01*
X177006666Y-120614761D01*
X177054285Y-120662380D01*
X177125714Y-120662380D01*
X177173333Y-120614761D01*
X177197142Y-120567142D01*
X177435238Y-120662380D02*
X177435238Y-119995714D01*
X177435238Y-120090952D02*
X177459047Y-120043333D01*
X177506666Y-119995714D01*
X177578095Y-119995714D01*
X177625714Y-120043333D01*
X177649523Y-120138571D01*
X177649523Y-120662380D01*
X177649523Y-120138571D02*
X177673333Y-120043333D01*
X177720952Y-119995714D01*
X177792380Y-119995714D01*
X177840000Y-120043333D01*
X177863809Y-120138571D01*
X177863809Y-120662380D01*
X178101904Y-120281428D02*
X178482857Y-120281428D01*
X178792380Y-120662380D02*
X178744761Y-120614761D01*
X178720952Y-120519523D01*
X178720952Y-119662380D01*
X179054285Y-120662380D02*
X179006666Y-120614761D01*
X178982857Y-120567142D01*
X178959047Y-120471904D01*
X178959047Y-120186190D01*
X178982857Y-120090952D01*
X179006666Y-120043333D01*
X179054285Y-119995714D01*
X179125714Y-119995714D01*
X179173333Y-120043333D01*
X179197142Y-120090952D01*
X179220952Y-120186190D01*
X179220952Y-120471904D01*
X179197142Y-120567142D01*
X179173333Y-120614761D01*
X179125714Y-120662380D01*
X179054285Y-120662380D01*
X179387619Y-119995714D02*
X179482857Y-120662380D01*
X179578095Y-120186190D01*
X179673333Y-120662380D01*
X179768571Y-119995714D01*
X180149523Y-120614761D02*
X180101904Y-120662380D01*
X180006666Y-120662380D01*
X179959047Y-120614761D01*
X179935238Y-120519523D01*
X179935238Y-120138571D01*
X179959047Y-120043333D01*
X180006666Y-119995714D01*
X180101904Y-119995714D01*
X180149523Y-120043333D01*
X180173333Y-120138571D01*
X180173333Y-120233809D01*
X179935238Y-120329047D01*
X180387619Y-120662380D02*
X180387619Y-119995714D01*
X180387619Y-120186190D02*
X180411428Y-120090952D01*
X180435238Y-120043333D01*
X180482857Y-119995714D01*
X180530476Y-119995714D01*
X180697142Y-120281428D02*
X181078095Y-120281428D01*
X181316190Y-120662380D02*
X181316190Y-119995714D01*
X181316190Y-120186190D02*
X181340000Y-120090952D01*
X181363809Y-120043333D01*
X181411428Y-119995714D01*
X181459047Y-119995714D01*
X181840000Y-120662380D02*
X181840000Y-120138571D01*
X181816190Y-120043333D01*
X181768571Y-119995714D01*
X181673333Y-119995714D01*
X181625714Y-120043333D01*
X181840000Y-120614761D02*
X181792380Y-120662380D01*
X181673333Y-120662380D01*
X181625714Y-120614761D01*
X181601904Y-120519523D01*
X181601904Y-120424285D01*
X181625714Y-120329047D01*
X181673333Y-120281428D01*
X181792380Y-120281428D01*
X181840000Y-120233809D01*
X182078095Y-120662380D02*
X182078095Y-119995714D01*
X182078095Y-120090952D02*
X182101904Y-120043333D01*
X182149523Y-119995714D01*
X182220952Y-119995714D01*
X182268571Y-120043333D01*
X182292380Y-120138571D01*
X182292380Y-120662380D01*
X182292380Y-120138571D02*
X182316190Y-120043333D01*
X182363809Y-119995714D01*
X182435238Y-119995714D01*
X182482857Y-120043333D01*
X182506666Y-120138571D01*
X182506666Y-120662380D01*
X183078095Y-119995714D02*
X183197142Y-120662380D01*
X183316190Y-119995714D01*
X183768571Y-120662380D02*
X183482857Y-120662380D01*
X183625714Y-120662380D02*
X183625714Y-119662380D01*
X183578095Y-119805238D01*
X183530476Y-119900476D01*
X183482857Y-119948095D01*
X183982857Y-120567142D02*
X184006666Y-120614761D01*
X183982857Y-120662380D01*
X183959047Y-120614761D01*
X183982857Y-120567142D01*
X183982857Y-120662380D01*
X184482857Y-120662380D02*
X184197142Y-120662380D01*
X184340000Y-120662380D02*
X184340000Y-119662380D01*
X184292380Y-119805238D01*
X184244761Y-119900476D01*
X184197142Y-119948095D01*
X184911428Y-120662380D02*
X184911428Y-119662380D01*
X184911428Y-120614761D02*
X184863809Y-120662380D01*
X184768571Y-120662380D01*
X184720952Y-120614761D01*
X184697142Y-120567142D01*
X184673333Y-120471904D01*
X184673333Y-120186190D01*
X184697142Y-120090952D01*
X184720952Y-120043333D01*
X184768571Y-119995714D01*
X184863809Y-119995714D01*
X184911428Y-120043333D01*
X185340000Y-120614761D02*
X185292380Y-120662380D01*
X185197142Y-120662380D01*
X185149523Y-120614761D01*
X185125714Y-120519523D01*
X185125714Y-120138571D01*
X185149523Y-120043333D01*
X185197142Y-119995714D01*
X185292380Y-119995714D01*
X185340000Y-120043333D01*
X185363809Y-120138571D01*
X185363809Y-120233809D01*
X185125714Y-120329047D01*
X185578095Y-120662380D02*
X185578095Y-119662380D01*
X185578095Y-120043333D02*
X185625714Y-119995714D01*
X185720952Y-119995714D01*
X185768571Y-120043333D01*
X185792380Y-120090952D01*
X185816190Y-120186190D01*
X185816190Y-120471904D01*
X185792380Y-120567142D01*
X185768571Y-120614761D01*
X185720952Y-120662380D01*
X185625714Y-120662380D01*
X185578095Y-120614761D01*
X186244761Y-119995714D02*
X186244761Y-120662380D01*
X186030476Y-119995714D02*
X186030476Y-120519523D01*
X186054285Y-120614761D01*
X186101904Y-120662380D01*
X186173333Y-120662380D01*
X186220952Y-120614761D01*
X186244761Y-120567142D01*
X186697142Y-119995714D02*
X186697142Y-120805238D01*
X186673333Y-120900476D01*
X186649523Y-120948095D01*
X186601904Y-120995714D01*
X186530476Y-120995714D01*
X186482857Y-120948095D01*
X186697142Y-120614761D02*
X186649523Y-120662380D01*
X186554285Y-120662380D01*
X186506666Y-120614761D01*
X186482857Y-120567142D01*
X186459047Y-120471904D01*
X186459047Y-120186190D01*
X186482857Y-120090952D01*
X186506666Y-120043333D01*
X186554285Y-119995714D01*
X186649523Y-119995714D01*
X186697142Y-120043333D01*
D10*
X109301304Y-93898980D02*
X109301304Y-92898980D01*
X109777495Y-93898980D02*
X109777495Y-92898980D01*
X110348923Y-93898980D01*
X110348923Y-92898980D01*
X110682257Y-92898980D02*
X111015590Y-93898980D01*
X111348923Y-92898980D01*
X111444161Y-93994219D02*
X112206066Y-93994219D01*
X113015590Y-93898980D02*
X112682257Y-93422790D01*
X112444161Y-93898980D02*
X112444161Y-92898980D01*
X112825114Y-92898980D01*
X112920352Y-92946600D01*
X112967971Y-92994219D01*
X113015590Y-93089457D01*
X113015590Y-93232314D01*
X112967971Y-93327552D01*
X112920352Y-93375171D01*
X112825114Y-93422790D01*
X112444161Y-93422790D01*
X113396542Y-93613266D02*
X113872733Y-93613266D01*
X113301304Y-93898980D02*
X113634638Y-92898980D01*
X113967971Y-93898980D01*
X114253685Y-93851361D02*
X114396542Y-93898980D01*
X114634638Y-93898980D01*
X114729876Y-93851361D01*
X114777495Y-93803742D01*
X114825114Y-93708504D01*
X114825114Y-93613266D01*
X114777495Y-93518028D01*
X114729876Y-93470409D01*
X114634638Y-93422790D01*
X114444161Y-93375171D01*
X114348923Y-93327552D01*
X114301304Y-93279933D01*
X114253685Y-93184695D01*
X114253685Y-93089457D01*
X114301304Y-92994219D01*
X114348923Y-92946600D01*
X114444161Y-92898980D01*
X114682257Y-92898980D01*
X114825114Y-92946600D01*
X113295238Y-90942380D02*
X113295238Y-89942380D01*
X113533333Y-89942380D01*
X113676190Y-89990000D01*
X113771428Y-90085238D01*
X113819047Y-90180476D01*
X113866666Y-90370952D01*
X113866666Y-90513809D01*
X113819047Y-90704285D01*
X113771428Y-90799523D01*
X113676190Y-90894761D01*
X113533333Y-90942380D01*
X113295238Y-90942380D01*
X114342857Y-89942380D02*
X114247619Y-90132857D01*
X115342857Y-90847142D02*
X115295238Y-90894761D01*
X115152380Y-90942380D01*
X115057142Y-90942380D01*
X114914285Y-90894761D01*
X114819047Y-90799523D01*
X114771428Y-90704285D01*
X114723809Y-90513809D01*
X114723809Y-90370952D01*
X114771428Y-90180476D01*
X114819047Y-90085238D01*
X114914285Y-89990000D01*
X115057142Y-89942380D01*
X115152380Y-89942380D01*
X115295238Y-89990000D01*
X115342857Y-90037619D01*
X115723809Y-90656666D02*
X116200000Y-90656666D01*
X115628571Y-90942380D02*
X115961904Y-89942380D01*
X116295238Y-90942380D01*
X116580952Y-90894761D02*
X116723809Y-90942380D01*
X116961904Y-90942380D01*
X117057142Y-90894761D01*
X117104761Y-90847142D01*
X117152380Y-90751904D01*
X117152380Y-90656666D01*
X117104761Y-90561428D01*
X117057142Y-90513809D01*
X116961904Y-90466190D01*
X116771428Y-90418571D01*
X116676190Y-90370952D01*
X116628571Y-90323333D01*
X116580952Y-90228095D01*
X116580952Y-90132857D01*
X116628571Y-90037619D01*
X116676190Y-89990000D01*
X116771428Y-89942380D01*
X117009523Y-89942380D01*
X117152380Y-89990000D01*
X187194914Y-94832466D02*
X187671104Y-94832466D01*
X187099676Y-95118180D02*
X187433009Y-94118180D01*
X187766342Y-95118180D01*
X188290152Y-94118180D02*
X188385390Y-94118180D01*
X188480628Y-94165800D01*
X188528247Y-94213419D01*
X188575866Y-94308657D01*
X188623485Y-94499133D01*
X188623485Y-94737228D01*
X188575866Y-94927704D01*
X188528247Y-95022942D01*
X188480628Y-95070561D01*
X188385390Y-95118180D01*
X188290152Y-95118180D01*
X188194914Y-95070561D01*
X188147295Y-95022942D01*
X188099676Y-94927704D01*
X188052057Y-94737228D01*
X188052057Y-94499133D01*
X188099676Y-94308657D01*
X188147295Y-94213419D01*
X188194914Y-94165800D01*
X188290152Y-94118180D01*
X123271904Y-88502380D02*
X123271904Y-87502380D01*
X123510000Y-87502380D01*
X123652857Y-87550000D01*
X123748095Y-87645238D01*
X123795714Y-87740476D01*
X123843333Y-87930952D01*
X123843333Y-88073809D01*
X123795714Y-88264285D01*
X123748095Y-88359523D01*
X123652857Y-88454761D01*
X123510000Y-88502380D01*
X123271904Y-88502380D01*
X124700476Y-87502380D02*
X124510000Y-87502380D01*
X124414761Y-87550000D01*
X124367142Y-87597619D01*
X124271904Y-87740476D01*
X124224285Y-87930952D01*
X124224285Y-88311904D01*
X124271904Y-88407142D01*
X124319523Y-88454761D01*
X124414761Y-88502380D01*
X124605238Y-88502380D01*
X124700476Y-88454761D01*
X124748095Y-88407142D01*
X124795714Y-88311904D01*
X124795714Y-88073809D01*
X124748095Y-87978571D01*
X124700476Y-87930952D01*
X124605238Y-87883333D01*
X124414761Y-87883333D01*
X124319523Y-87930952D01*
X124271904Y-87978571D01*
X124224285Y-88073809D01*
X164381904Y-89872380D02*
X164381904Y-88872380D01*
X164620000Y-88872380D01*
X164762857Y-88920000D01*
X164858095Y-89015238D01*
X164905714Y-89110476D01*
X164953333Y-89300952D01*
X164953333Y-89443809D01*
X164905714Y-89634285D01*
X164858095Y-89729523D01*
X164762857Y-89824761D01*
X164620000Y-89872380D01*
X164381904Y-89872380D01*
X165334285Y-88967619D02*
X165381904Y-88920000D01*
X165477142Y-88872380D01*
X165715238Y-88872380D01*
X165810476Y-88920000D01*
X165858095Y-88967619D01*
X165905714Y-89062857D01*
X165905714Y-89158095D01*
X165858095Y-89300952D01*
X165286666Y-89872380D01*
X165905714Y-89872380D01*
X186867895Y-98162200D02*
X186772657Y-98114580D01*
X186629800Y-98114580D01*
X186486942Y-98162200D01*
X186391704Y-98257438D01*
X186344085Y-98352676D01*
X186296466Y-98543152D01*
X186296466Y-98686009D01*
X186344085Y-98876485D01*
X186391704Y-98971723D01*
X186486942Y-99066961D01*
X186629800Y-99114580D01*
X186725038Y-99114580D01*
X186867895Y-99066961D01*
X186915514Y-99019342D01*
X186915514Y-98686009D01*
X186725038Y-98686009D01*
X187344085Y-99114580D02*
X187344085Y-98114580D01*
X187915514Y-99114580D01*
X187915514Y-98114580D01*
X188391704Y-99114580D02*
X188391704Y-98114580D01*
X188629800Y-98114580D01*
X188772657Y-98162200D01*
X188867895Y-98257438D01*
X188915514Y-98352676D01*
X188963133Y-98543152D01*
X188963133Y-98686009D01*
X188915514Y-98876485D01*
X188867895Y-98971723D01*
X188772657Y-99066961D01*
X188629800Y-99114580D01*
X188391704Y-99114580D01*
X110194885Y-102315028D02*
X110956790Y-102315028D01*
X110575838Y-102695980D02*
X110575838Y-101934076D01*
X111909171Y-101695980D02*
X111432980Y-101695980D01*
X111385361Y-102172171D01*
X111432980Y-102124552D01*
X111528219Y-102076933D01*
X111766314Y-102076933D01*
X111861552Y-102124552D01*
X111909171Y-102172171D01*
X111956790Y-102267409D01*
X111956790Y-102505504D01*
X111909171Y-102600742D01*
X111861552Y-102648361D01*
X111766314Y-102695980D01*
X111528219Y-102695980D01*
X111432980Y-102648361D01*
X111385361Y-102600742D01*
X112242504Y-101695980D02*
X112575838Y-102695980D01*
X112909171Y-101695980D01*
X179957142Y-88356666D02*
X180004761Y-88404285D01*
X180052380Y-88547142D01*
X180052380Y-88642380D01*
X180004761Y-88785238D01*
X179909523Y-88880476D01*
X179814285Y-88928095D01*
X179623809Y-88975714D01*
X179480952Y-88975714D01*
X179290476Y-88928095D01*
X179195238Y-88880476D01*
X179100000Y-88785238D01*
X179052380Y-88642380D01*
X179052380Y-88547142D01*
X179100000Y-88404285D01*
X179147619Y-88356666D01*
X179385714Y-87499523D02*
X180052380Y-87499523D01*
X179004761Y-87737619D02*
X179719047Y-87975714D01*
X179719047Y-87356666D01*
X144151904Y-89382380D02*
X144151904Y-88382380D01*
X144390000Y-88382380D01*
X144532857Y-88430000D01*
X144628095Y-88525238D01*
X144675714Y-88620476D01*
X144723333Y-88810952D01*
X144723333Y-88953809D01*
X144675714Y-89144285D01*
X144628095Y-89239523D01*
X144532857Y-89334761D01*
X144390000Y-89382380D01*
X144151904Y-89382380D01*
X145580476Y-88715714D02*
X145580476Y-89382380D01*
X145342380Y-88334761D02*
X145104285Y-89049047D01*
X145723333Y-89049047D01*
X110718695Y-97400200D02*
X110623457Y-97352580D01*
X110480600Y-97352580D01*
X110337742Y-97400200D01*
X110242504Y-97495438D01*
X110194885Y-97590676D01*
X110147266Y-97781152D01*
X110147266Y-97924009D01*
X110194885Y-98114485D01*
X110242504Y-98209723D01*
X110337742Y-98304961D01*
X110480600Y-98352580D01*
X110575838Y-98352580D01*
X110718695Y-98304961D01*
X110766314Y-98257342D01*
X110766314Y-97924009D01*
X110575838Y-97924009D01*
X111194885Y-98352580D02*
X111194885Y-97352580D01*
X111766314Y-98352580D01*
X111766314Y-97352580D01*
X112242504Y-98352580D02*
X112242504Y-97352580D01*
X112480600Y-97352580D01*
X112623457Y-97400200D01*
X112718695Y-97495438D01*
X112766314Y-97590676D01*
X112813933Y-97781152D01*
X112813933Y-97924009D01*
X112766314Y-98114485D01*
X112718695Y-98209723D01*
X112623457Y-98304961D01*
X112480600Y-98352580D01*
X112242504Y-98352580D01*
X161405316Y-100265003D02*
X161453000Y-100121950D01*
X161453000Y-99883529D01*
X161405316Y-99788160D01*
X161357632Y-99740476D01*
X161262263Y-99692792D01*
X161166895Y-99692792D01*
X161071526Y-99740476D01*
X161023842Y-99788160D01*
X160976157Y-99883529D01*
X160928473Y-100074266D01*
X160880789Y-100169635D01*
X160833105Y-100217319D01*
X160737736Y-100265003D01*
X160642367Y-100265003D01*
X160546999Y-100217319D01*
X160499315Y-100169635D01*
X160451630Y-100074266D01*
X160451630Y-99835845D01*
X160499315Y-99692792D01*
X161453000Y-98691422D02*
X160976157Y-99025212D01*
X161453000Y-99263633D02*
X160451630Y-99263633D01*
X160451630Y-98882159D01*
X160499315Y-98786790D01*
X160546999Y-98739106D01*
X160642367Y-98691422D01*
X160785420Y-98691422D01*
X160880789Y-98739106D01*
X160928473Y-98786790D01*
X160976157Y-98882159D01*
X160976157Y-99263633D01*
X161166895Y-98309947D02*
X161166895Y-97833105D01*
X161453000Y-98405316D02*
X160451630Y-98071526D01*
X161453000Y-97737736D01*
X161453000Y-97403946D02*
X160451630Y-97403946D01*
X161166895Y-97070156D01*
X160451630Y-96736366D01*
X161453000Y-96736366D01*
X161453000Y-95734996D02*
X161453000Y-96307207D01*
X161453000Y-96021102D02*
X160451630Y-96021102D01*
X160594683Y-96116470D01*
X160690052Y-96211839D01*
X160737736Y-96307207D01*
X109354761Y-84762380D02*
X110021428Y-84762380D01*
X109354761Y-85762380D01*
X110021428Y-85762380D01*
X110307142Y-84762380D02*
X110973809Y-85762380D01*
X110973809Y-84762380D02*
X110307142Y-85762380D01*
X112688095Y-85667142D02*
X112640476Y-85714761D01*
X112497619Y-85762380D01*
X112402380Y-85762380D01*
X112259523Y-85714761D01*
X112164285Y-85619523D01*
X112116666Y-85524285D01*
X112069047Y-85333809D01*
X112069047Y-85190952D01*
X112116666Y-85000476D01*
X112164285Y-84905238D01*
X112259523Y-84810000D01*
X112402380Y-84762380D01*
X112497619Y-84762380D01*
X112640476Y-84810000D01*
X112688095Y-84857619D01*
X113069047Y-85476666D02*
X113545238Y-85476666D01*
X112973809Y-85762380D02*
X113307142Y-84762380D01*
X113640476Y-85762380D01*
X113926190Y-85714761D02*
X114069047Y-85762380D01*
X114307142Y-85762380D01*
X114402380Y-85714761D01*
X114450000Y-85667142D01*
X114497619Y-85571904D01*
X114497619Y-85476666D01*
X114450000Y-85381428D01*
X114402380Y-85333809D01*
X114307142Y-85286190D01*
X114116666Y-85238571D01*
X114021428Y-85190952D01*
X113973809Y-85143333D01*
X113926190Y-85048095D01*
X113926190Y-84952857D01*
X113973809Y-84857619D01*
X114021428Y-84810000D01*
X114116666Y-84762380D01*
X114354761Y-84762380D01*
X114497619Y-84810000D01*
X116666666Y-94452380D02*
X116666666Y-95166666D01*
X116619047Y-95309523D01*
X116523809Y-95404761D01*
X116380952Y-95452380D01*
X116285714Y-95452380D01*
X117666666Y-95452380D02*
X117095238Y-95452380D01*
X117380952Y-95452380D02*
X117380952Y-94452380D01*
X117285714Y-94595238D01*
X117190476Y-94690476D01*
X117095238Y-94738095D01*
X177507142Y-102166666D02*
X177554761Y-102214285D01*
X177602380Y-102357142D01*
X177602380Y-102452380D01*
X177554761Y-102595238D01*
X177459523Y-102690476D01*
X177364285Y-102738095D01*
X177173809Y-102785714D01*
X177030952Y-102785714D01*
X176840476Y-102738095D01*
X176745238Y-102690476D01*
X176650000Y-102595238D01*
X176602380Y-102452380D01*
X176602380Y-102357142D01*
X176650000Y-102214285D01*
X176697619Y-102166666D01*
X177602380Y-101214285D02*
X177602380Y-101785714D01*
X177602380Y-101500000D02*
X176602380Y-101500000D01*
X176745238Y-101595238D01*
X176840476Y-101690476D01*
X176888095Y-101785714D01*
X167573333Y-88522380D02*
X167240000Y-88046190D01*
X167001904Y-88522380D02*
X167001904Y-87522380D01*
X167382857Y-87522380D01*
X167478095Y-87570000D01*
X167525714Y-87617619D01*
X167573333Y-87712857D01*
X167573333Y-87855714D01*
X167525714Y-87950952D01*
X167478095Y-87998571D01*
X167382857Y-88046190D01*
X167001904Y-88046190D01*
X168525714Y-88522380D02*
X167954285Y-88522380D01*
X168240000Y-88522380D02*
X168240000Y-87522380D01*
X168144761Y-87665238D01*
X168049523Y-87760476D01*
X167954285Y-87808095D01*
X138316968Y-102841666D02*
X138364587Y-102889285D01*
X138412206Y-103032142D01*
X138412206Y-103127380D01*
X138364587Y-103270238D01*
X138269349Y-103365476D01*
X138174111Y-103413095D01*
X137983635Y-103460714D01*
X137840778Y-103460714D01*
X137650302Y-103413095D01*
X137555064Y-103365476D01*
X137459826Y-103270238D01*
X137412206Y-103127380D01*
X137412206Y-103032142D01*
X137459826Y-102889285D01*
X137507445Y-102841666D01*
X137507445Y-102460714D02*
X137459826Y-102413095D01*
X137412206Y-102317857D01*
X137412206Y-102079761D01*
X137459826Y-101984523D01*
X137507445Y-101936904D01*
X137602683Y-101889285D01*
X137697921Y-101889285D01*
X137840778Y-101936904D01*
X138412206Y-102508333D01*
X138412206Y-101889285D01*
X185315266Y-84567780D02*
X185315266Y-85282066D01*
X185267647Y-85424923D01*
X185172409Y-85520161D01*
X185029552Y-85567780D01*
X184934314Y-85567780D01*
X185934314Y-84996352D02*
X185839076Y-84948733D01*
X185791457Y-84901114D01*
X185743838Y-84805876D01*
X185743838Y-84758257D01*
X185791457Y-84663019D01*
X185839076Y-84615400D01*
X185934314Y-84567780D01*
X186124790Y-84567780D01*
X186220028Y-84615400D01*
X186267647Y-84663019D01*
X186315266Y-84758257D01*
X186315266Y-84805876D01*
X186267647Y-84901114D01*
X186220028Y-84948733D01*
X186124790Y-84996352D01*
X185934314Y-84996352D01*
X185839076Y-85043971D01*
X185791457Y-85091590D01*
X185743838Y-85186828D01*
X185743838Y-85377304D01*
X185791457Y-85472542D01*
X185839076Y-85520161D01*
X185934314Y-85567780D01*
X186124790Y-85567780D01*
X186220028Y-85520161D01*
X186267647Y-85472542D01*
X186315266Y-85377304D01*
X186315266Y-85186828D01*
X186267647Y-85091590D01*
X186220028Y-85043971D01*
X186124790Y-84996352D01*
X129021904Y-88072380D02*
X129021904Y-87072380D01*
X129260000Y-87072380D01*
X129402857Y-87120000D01*
X129498095Y-87215238D01*
X129545714Y-87310476D01*
X129593333Y-87500952D01*
X129593333Y-87643809D01*
X129545714Y-87834285D01*
X129498095Y-87929523D01*
X129402857Y-88024761D01*
X129260000Y-88072380D01*
X129021904Y-88072380D01*
X130498095Y-87072380D02*
X130021904Y-87072380D01*
X129974285Y-87548571D01*
X130021904Y-87500952D01*
X130117142Y-87453333D01*
X130355238Y-87453333D01*
X130450476Y-87500952D01*
X130498095Y-87548571D01*
X130545714Y-87643809D01*
X130545714Y-87881904D01*
X130498095Y-87977142D01*
X130450476Y-88024761D01*
X130355238Y-88072380D01*
X130117142Y-88072380D01*
X130021904Y-88024761D01*
X129974285Y-87977142D01*
X174091904Y-88062380D02*
X174091904Y-87062380D01*
X174330000Y-87062380D01*
X174472857Y-87110000D01*
X174568095Y-87205238D01*
X174615714Y-87300476D01*
X174663333Y-87490952D01*
X174663333Y-87633809D01*
X174615714Y-87824285D01*
X174568095Y-87919523D01*
X174472857Y-88014761D01*
X174330000Y-88062380D01*
X174091904Y-88062380D01*
X175615714Y-88062380D02*
X175044285Y-88062380D01*
X175330000Y-88062380D02*
X175330000Y-87062380D01*
X175234761Y-87205238D01*
X175139523Y-87300476D01*
X175044285Y-87348095D01*
X186394885Y-102823028D02*
X187156790Y-102823028D01*
X186775838Y-103203980D02*
X186775838Y-102442076D01*
X188109171Y-102203980D02*
X187632980Y-102203980D01*
X187585361Y-102680171D01*
X187632980Y-102632552D01*
X187728219Y-102584933D01*
X187966314Y-102584933D01*
X188061552Y-102632552D01*
X188109171Y-102680171D01*
X188156790Y-102775409D01*
X188156790Y-103013504D01*
X188109171Y-103108742D01*
X188061552Y-103156361D01*
X187966314Y-103203980D01*
X187728219Y-103203980D01*
X187632980Y-103156361D01*
X187585361Y-103108742D01*
X188442504Y-102203980D02*
X188775838Y-103203980D01*
X189109171Y-102203980D01*
X126130000Y-105312380D02*
X125653809Y-105312380D01*
X125653809Y-104312380D01*
X126415714Y-105026666D02*
X126891904Y-105026666D01*
X126320476Y-105312380D02*
X126653809Y-104312380D01*
X126987142Y-105312380D01*
X127177619Y-104312380D02*
X127749047Y-104312380D01*
X127463333Y-105312380D02*
X127463333Y-104312380D01*
X128653809Y-105217142D02*
X128606190Y-105264761D01*
X128463333Y-105312380D01*
X128368095Y-105312380D01*
X128225238Y-105264761D01*
X128130000Y-105169523D01*
X128082380Y-105074285D01*
X128034761Y-104883809D01*
X128034761Y-104740952D01*
X128082380Y-104550476D01*
X128130000Y-104455238D01*
X128225238Y-104360000D01*
X128368095Y-104312380D01*
X128463333Y-104312380D01*
X128606190Y-104360000D01*
X128653809Y-104407619D01*
X129082380Y-105312380D02*
X129082380Y-104312380D01*
X129082380Y-104788571D02*
X129653809Y-104788571D01*
X129653809Y-105312380D02*
X129653809Y-104312380D01*
X130653809Y-105312380D02*
X130082380Y-105312380D01*
X130368095Y-105312380D02*
X130368095Y-104312380D01*
X130272857Y-104455238D01*
X130177619Y-104550476D01*
X130082380Y-104598095D01*
X170072228Y-95930980D02*
X170072228Y-94930980D01*
X170548419Y-95930980D02*
X170548419Y-94930980D01*
X171119847Y-95930980D01*
X171119847Y-94930980D01*
X171453180Y-94930980D02*
X171786514Y-95930980D01*
X172119847Y-94930980D01*
X172976990Y-95930980D02*
X172405561Y-95930980D01*
X172691276Y-95930980D02*
X172691276Y-94930980D01*
X172596038Y-95073838D01*
X172500800Y-95169076D01*
X172405561Y-95216695D01*
X187263161Y-90935780D02*
X186929828Y-90459590D01*
X186691733Y-90935780D02*
X186691733Y-89935780D01*
X187072685Y-89935780D01*
X187167923Y-89983400D01*
X187215542Y-90031019D01*
X187263161Y-90126257D01*
X187263161Y-90269114D01*
X187215542Y-90364352D01*
X187167923Y-90411971D01*
X187072685Y-90459590D01*
X186691733Y-90459590D01*
X187644114Y-90650066D02*
X188120304Y-90650066D01*
X187548876Y-90935780D02*
X187882209Y-89935780D01*
X188215542Y-90935780D01*
X188501257Y-90888161D02*
X188644114Y-90935780D01*
X188882209Y-90935780D01*
X188977447Y-90888161D01*
X189025066Y-90840542D01*
X189072685Y-90745304D01*
X189072685Y-90650066D01*
X189025066Y-90554828D01*
X188977447Y-90507209D01*
X188882209Y-90459590D01*
X188691733Y-90411971D01*
X188596495Y-90364352D01*
X188548876Y-90316733D01*
X188501257Y-90221495D01*
X188501257Y-90126257D01*
X188548876Y-90031019D01*
X188596495Y-89983400D01*
X188691733Y-89935780D01*
X188929828Y-89935780D01*
X189072685Y-89983400D01*
X151661904Y-87292380D02*
X151661904Y-86292380D01*
X151900000Y-86292380D01*
X152042857Y-86340000D01*
X152138095Y-86435238D01*
X152185714Y-86530476D01*
X152233333Y-86720952D01*
X152233333Y-86863809D01*
X152185714Y-87054285D01*
X152138095Y-87149523D01*
X152042857Y-87244761D01*
X151900000Y-87292380D01*
X151661904Y-87292380D01*
X152566666Y-86292380D02*
X153185714Y-86292380D01*
X152852380Y-86673333D01*
X152995238Y-86673333D01*
X153090476Y-86720952D01*
X153138095Y-86768571D01*
X153185714Y-86863809D01*
X153185714Y-87101904D01*
X153138095Y-87197142D01*
X153090476Y-87244761D01*
X152995238Y-87292380D01*
X152709523Y-87292380D01*
X152614285Y-87244761D01*
X152566666Y-87197142D01*
X139257142Y-94906249D02*
X139304761Y-94953868D01*
X139352380Y-95096725D01*
X139352380Y-95191963D01*
X139304761Y-95334821D01*
X139209523Y-95430059D01*
X139114285Y-95477678D01*
X138923809Y-95525297D01*
X138780952Y-95525297D01*
X138590476Y-95477678D01*
X138495238Y-95430059D01*
X138400000Y-95334821D01*
X138352380Y-95191963D01*
X138352380Y-95096725D01*
X138400000Y-94953868D01*
X138447619Y-94906249D01*
X138352380Y-94572916D02*
X138352380Y-93953868D01*
X138733333Y-94287202D01*
X138733333Y-94144344D01*
X138780952Y-94049106D01*
X138828571Y-94001487D01*
X138923809Y-93953868D01*
X139161904Y-93953868D01*
X139257142Y-94001487D01*
X139304761Y-94049106D01*
X139352380Y-94144344D01*
X139352380Y-94430059D01*
X139304761Y-94525297D01*
X139257142Y-94572916D01*
X186904428Y-85820980D02*
X187142523Y-86820980D01*
X187333000Y-86106695D01*
X187523476Y-86820980D01*
X187761571Y-85820980D01*
X188713952Y-86820980D02*
X188380619Y-86344790D01*
X188142523Y-86820980D02*
X188142523Y-85820980D01*
X188523476Y-85820980D01*
X188618714Y-85868600D01*
X188666333Y-85916219D01*
X188713952Y-86011457D01*
X188713952Y-86154314D01*
X188666333Y-86249552D01*
X188618714Y-86297171D01*
X188523476Y-86344790D01*
X188142523Y-86344790D01*
D13*
X120860000Y-88900000D02*
X120860000Y-87840000D01*
X122980000Y-89900000D02*
X122980000Y-89960000D01*
X120860000Y-89900000D02*
X120860000Y-89960000D01*
X120860000Y-87840000D02*
X121920000Y-87840000D01*
X120860000Y-89960000D02*
X122980000Y-89960000D01*
X120860000Y-89900000D02*
X122980000Y-89900000D01*
X161500000Y-89900000D02*
X163620000Y-89900000D01*
X161500000Y-89960000D02*
X163620000Y-89960000D01*
X161500000Y-87840000D02*
X162560000Y-87840000D01*
X161500000Y-89900000D02*
X161500000Y-89960000D01*
X161500000Y-88900000D02*
X161500000Y-87840000D01*
X163620000Y-89900000D02*
X163620000Y-89960000D01*
X188829800Y-100660200D02*
G75*
G03*
X188829800Y-100660200I-1200000J0D01*
G01*
X112680600Y-104241600D02*
G75*
G03*
X112680600Y-104241600I-1200000J0D01*
G01*
X178470000Y-85920000D02*
X178455000Y-85920000D01*
X178470000Y-85920000D02*
X178470000Y-90460000D01*
X176345000Y-85920000D02*
X176330000Y-85920000D01*
X176330000Y-85920000D02*
X176330000Y-90460000D01*
X178470000Y-90460000D02*
X178455000Y-90460000D01*
X176345000Y-90460000D02*
X176330000Y-90460000D01*
X141180000Y-89900000D02*
X143300000Y-89900000D01*
X141180000Y-88900000D02*
X141180000Y-87840000D01*
X141180000Y-87840000D02*
X142240000Y-87840000D01*
X141180000Y-89900000D02*
X141180000Y-89960000D01*
X141180000Y-89960000D02*
X143300000Y-89960000D01*
X143300000Y-89900000D02*
X143300000Y-89960000D01*
X112680600Y-99898200D02*
G75*
G03*
X112680600Y-99898200I-1200000J0D01*
G01*
D14*
X141618809Y-93900000D02*
X159818809Y-93900000D01*
X159818809Y-93900000D02*
X159818809Y-102100000D01*
X141618809Y-102100000D02*
X141618809Y-93900000D01*
X159818809Y-102100000D02*
X141618809Y-102100000D01*
D15*
X141630612Y-103700000D02*
G75*
G03*
X141630612Y-103700000I-111803J0D01*
G01*
D13*
X112782200Y-87172800D02*
G75*
G03*
X112782200Y-87172800I-1200000J0D01*
G01*
X118050000Y-86360000D02*
X118050000Y-85030000D01*
X118050000Y-105470000D02*
X120710000Y-105470000D01*
X120710000Y-87630000D02*
X120710000Y-105470000D01*
X118050000Y-87630000D02*
X118050000Y-105470000D01*
X118050000Y-85030000D02*
X119380000Y-85030000D01*
X118050000Y-87630000D02*
X120710000Y-87630000D01*
X178090000Y-102711252D02*
X178090000Y-101288748D01*
X179910000Y-102711252D02*
X179910000Y-101288748D01*
X164395400Y-84456600D02*
X164395400Y-87196600D01*
X170935400Y-87196600D02*
X170935400Y-84456600D01*
X171705400Y-85826600D02*
X170935400Y-85826600D01*
X163625400Y-85826600D02*
X164395400Y-85826600D01*
X170935400Y-84456600D02*
X164395400Y-84456600D01*
X164395400Y-87196600D02*
X170935400Y-87196600D01*
X137210000Y-103386252D02*
X137210000Y-101963748D01*
X135390000Y-103386252D02*
X135390000Y-101963748D01*
X181550000Y-86360000D02*
X181550000Y-85030000D01*
X181550000Y-87630000D02*
X181550000Y-105470000D01*
X184210000Y-87630000D02*
X184210000Y-105470000D01*
X181550000Y-87630000D02*
X184210000Y-87630000D01*
X181550000Y-105470000D02*
X184210000Y-105470000D01*
X181550000Y-85030000D02*
X182880000Y-85030000D01*
X133140000Y-89900000D02*
X133140000Y-89960000D01*
X131020000Y-89960000D02*
X133140000Y-89960000D01*
X131020000Y-87840000D02*
X132080000Y-87840000D01*
X131020000Y-89900000D02*
X131020000Y-89960000D01*
X131020000Y-88900000D02*
X131020000Y-87840000D01*
X131020000Y-89900000D02*
X133140000Y-89900000D01*
X171660000Y-89960000D02*
X173780000Y-89960000D01*
X171660000Y-88900000D02*
X171660000Y-87840000D01*
X171660000Y-87840000D02*
X172720000Y-87840000D01*
X171660000Y-89900000D02*
X171660000Y-89960000D01*
X171660000Y-89900000D02*
X173780000Y-89900000D01*
X173780000Y-89900000D02*
X173780000Y-89960000D01*
X188880600Y-104749600D02*
G75*
G03*
X188880600Y-104749600I-1200000J0D01*
G01*
X121690000Y-99040000D02*
X121690000Y-96390000D01*
X134510000Y-99040000D02*
X134510000Y-101690000D01*
X134510000Y-99040000D02*
X134510000Y-94590000D01*
X121690000Y-99040000D02*
X121690000Y-101690000D01*
X175910000Y-100190000D02*
X175910000Y-102140000D01*
X167040000Y-100190000D02*
X167040000Y-98240000D01*
X167040000Y-100190000D02*
X167040000Y-102140000D01*
X175910000Y-100190000D02*
X175910000Y-96740000D01*
X189058400Y-92481400D02*
G75*
G03*
X189058400Y-92481400I-1200000J0D01*
G01*
X151340000Y-89960000D02*
X153460000Y-89960000D01*
X151340000Y-88900000D02*
X151340000Y-87840000D01*
X153460000Y-89900000D02*
X153460000Y-89960000D01*
X151340000Y-89900000D02*
X153460000Y-89900000D01*
X151340000Y-89900000D02*
X151340000Y-89960000D01*
X151340000Y-87840000D02*
X152400000Y-87840000D01*
X140810000Y-97553331D02*
X140810000Y-98975835D01*
X138990000Y-97553331D02*
X138990000Y-98975835D01*
X189033000Y-88366600D02*
G75*
G03*
X189033000Y-88366600I-1200000J0D01*
G01*
%LPC*%
D16*
X111940000Y-114290000D03*
X122100000Y-114290000D03*
X119560000Y-119370000D03*
X114480000Y-114290000D03*
X127180000Y-114290000D03*
X111940000Y-119370000D03*
X117020000Y-116830000D03*
X132260000Y-114290000D03*
X122100000Y-116830000D03*
X119560000Y-114290000D03*
X117020000Y-114290000D03*
X119560000Y-116830000D03*
X129720000Y-116830000D03*
X132260000Y-116830000D03*
X117020000Y-119370000D03*
X114480000Y-116830000D03*
X127180000Y-116830000D03*
X124640000Y-116830000D03*
X129720000Y-114290000D03*
X114480000Y-119370000D03*
X124640000Y-119370000D03*
X111940000Y-116830000D03*
X129720000Y-119370000D03*
X127180000Y-119370000D03*
X122100000Y-119370000D03*
X124640000Y-114290000D03*
X132260000Y-119370000D03*
X140020000Y-114360000D03*
X150180000Y-114360000D03*
X147640000Y-119440000D03*
X142560000Y-114360000D03*
X155260000Y-114360000D03*
X140020000Y-119440000D03*
X134940000Y-116900000D03*
X145100000Y-116900000D03*
X160340000Y-114360000D03*
X150180000Y-116900000D03*
X147640000Y-114360000D03*
X145100000Y-114360000D03*
X137480000Y-116900000D03*
X147640000Y-116900000D03*
X157800000Y-116900000D03*
X160340000Y-116900000D03*
X145100000Y-119440000D03*
X134940000Y-119440000D03*
X142560000Y-116900000D03*
X155260000Y-116900000D03*
X152720000Y-116900000D03*
X157800000Y-114360000D03*
X137480000Y-114360000D03*
X134940000Y-114360000D03*
X142560000Y-119440000D03*
X152720000Y-119440000D03*
X140020000Y-116900000D03*
X157800000Y-119440000D03*
X155260000Y-119440000D03*
X150180000Y-119440000D03*
X137480000Y-119440000D03*
X152720000Y-114360000D03*
X160340000Y-119440000D03*
X188930000Y-117940000D03*
X186390000Y-117940000D03*
X183850000Y-117940000D03*
X181310000Y-117940000D03*
X178770000Y-117940000D03*
X176230000Y-117940000D03*
X173690000Y-117940000D03*
X171150000Y-117940000D03*
X168610000Y-117940000D03*
X166070000Y-117940000D03*
X163530000Y-117940000D03*
X188930000Y-115400000D03*
X186390000Y-115400000D03*
X183850000Y-115400000D03*
X181310000Y-115400000D03*
X178770000Y-115400000D03*
X176230000Y-115400000D03*
X173690000Y-115400000D03*
X171150000Y-115400000D03*
X168610000Y-115400000D03*
X166070000Y-115400000D03*
X163530000Y-115400000D03*
X188930000Y-112860000D03*
X186390000Y-112860000D03*
X183850000Y-112860000D03*
X181310000Y-112860000D03*
X178770000Y-112860000D03*
X176230000Y-112860000D03*
X173690000Y-112860000D03*
X171150000Y-112860000D03*
X168610000Y-112860000D03*
X166070000Y-112860000D03*
X163530000Y-112860000D03*
X188930000Y-110320000D03*
X186390000Y-110320000D03*
X183850000Y-110320000D03*
X181310000Y-110320000D03*
X178770000Y-110320000D03*
X176230000Y-110320000D03*
X173690000Y-110320000D03*
X171150000Y-110320000D03*
X168610000Y-110320000D03*
X166070000Y-110320000D03*
X163530000Y-110320000D03*
X188930000Y-107780000D03*
X186390000Y-107780000D03*
X183850000Y-107780000D03*
X181310000Y-107780000D03*
X178770000Y-107780000D03*
X176230000Y-107780000D03*
X173690000Y-107780000D03*
X171150000Y-107780000D03*
X168610000Y-107780000D03*
X166070000Y-107780000D03*
X163530000Y-107780000D03*
X134700000Y-109620000D03*
X177400000Y-82440000D03*
X140390000Y-109590000D03*
X149964998Y-109590000D03*
X143581666Y-109590000D03*
X146773332Y-109590000D03*
X153156664Y-109590000D03*
X156348330Y-109590000D03*
X159540000Y-109590000D03*
X123930000Y-91990000D03*
X126440000Y-91990000D03*
X128980000Y-91990000D03*
X134600000Y-91920000D03*
X134520000Y-88460000D03*
X137120000Y-88460000D03*
X139660000Y-88460000D03*
X147520000Y-82190000D03*
X144327142Y-82190000D03*
X141134285Y-82190000D03*
X137941428Y-82190000D03*
X134748571Y-82190000D03*
X131555714Y-82190000D03*
X128362857Y-82190000D03*
X125170000Y-82190000D03*
D17*
X121920000Y-88900000D03*
X162560000Y-88900000D03*
D16*
X187629800Y-100660200D03*
X111480600Y-104241600D03*
D18*
X177400000Y-85690000D03*
X177400000Y-90690000D03*
D17*
X142240000Y-88900000D03*
D16*
X111480600Y-99898200D03*
D19*
X142493809Y-103550000D03*
X143763809Y-103550000D03*
X145033809Y-103550000D03*
X146303809Y-103550000D03*
X147573809Y-103550000D03*
X148843809Y-103550000D03*
X150113809Y-103550000D03*
X151383809Y-103550000D03*
X152653809Y-103550000D03*
X153923809Y-103550000D03*
X155193809Y-103550000D03*
X156463809Y-103550000D03*
X157733809Y-103550000D03*
X159003809Y-103550000D03*
X158943809Y-92450000D03*
X157673809Y-92450000D03*
X156403809Y-92450000D03*
X155133809Y-92450000D03*
X153863809Y-92450000D03*
X152593809Y-92450000D03*
X151323809Y-92450000D03*
X150053809Y-92450000D03*
X148783809Y-92450000D03*
X147513809Y-92450000D03*
X146243809Y-92450000D03*
X144973809Y-92450000D03*
X143703809Y-92450000D03*
X142433809Y-92450000D03*
D16*
X111480600Y-95427800D03*
X111582200Y-87172800D03*
D20*
X119380000Y-86360000D03*
D21*
X119380000Y-88900000D03*
X119380000Y-91440000D03*
X119380000Y-93980000D03*
X119380000Y-96520000D03*
X119380000Y-99060000D03*
X119380000Y-101600000D03*
X119380000Y-104140000D03*
D22*
X179000000Y-103475000D03*
X179000000Y-100525000D03*
D18*
X162585400Y-85826600D03*
D23*
X172745400Y-85826600D03*
D22*
X136300000Y-104150000D03*
X136300000Y-101200000D03*
D20*
X182880000Y-86360000D03*
D21*
X182880000Y-88900000D03*
X182880000Y-91440000D03*
X182880000Y-93980000D03*
X182880000Y-96520000D03*
X182880000Y-99060000D03*
X182880000Y-101600000D03*
X182880000Y-104140000D03*
D17*
X132080000Y-88900000D03*
X172720000Y-88900000D03*
D16*
X187680600Y-104749600D03*
D24*
X133815000Y-95577500D03*
X132545000Y-95577500D03*
X131275000Y-95577500D03*
X130005000Y-95577500D03*
X128735000Y-95577500D03*
X127465000Y-95577500D03*
X126195000Y-95577500D03*
X124925000Y-95577500D03*
X123655000Y-95577500D03*
X122385000Y-95577500D03*
X122385000Y-102502500D03*
X123655000Y-102502500D03*
X124925000Y-102502500D03*
X126195000Y-102502500D03*
X127465000Y-102502500D03*
X128735000Y-102502500D03*
X130005000Y-102502500D03*
X131275000Y-102502500D03*
X132545000Y-102502500D03*
X133815000Y-102502500D03*
D16*
X187807600Y-96545400D03*
D25*
X175285000Y-97715000D03*
X174015000Y-97715000D03*
X172745000Y-97715000D03*
X171475000Y-97715000D03*
X170205000Y-97715000D03*
X168935000Y-97715000D03*
X167665000Y-97715000D03*
X167665000Y-102665000D03*
X168935000Y-102665000D03*
X170205000Y-102665000D03*
X171475000Y-102665000D03*
X172745000Y-102665000D03*
X174015000Y-102665000D03*
X175285000Y-102665000D03*
D16*
X187858400Y-92481400D03*
X111600000Y-90410000D03*
D17*
X152400000Y-88900000D03*
D26*
X139900000Y-96789583D03*
X139900000Y-99739583D03*
D16*
X187833000Y-88366600D03*
M02*
