M48
; DRILL file {KiCad 6.0.9-8da3e8f707~116~ubuntu20.04.1} date Sat 05 Nov 2022 19:21:00 GMT
; FORMAT={-:-/ absolute / metric / decimal}
; #@! TF.CreationDate,2022-11-05T19:21:00+00:00
; #@! TF.GenerationSoftware,Kicad,Pcbnew,6.0.9-8da3e8f707~116~ubuntu20.04.1
; #@! TF.FileFunction,Plated,1,4,PTH
FMAT,2
METRIC
; #@! TA.AperFunction,Plated,PTH,ViaDrill
T1C0.400
; #@! TA.AperFunction,Plated,PTH,ComponentDrill
T2C0.800
; #@! TA.AperFunction,Plated,PTH,ComponentDrill
T3C1.000
%
G90
G05
T1
X121.195Y-86.7
X121.4Y-105.1
X122.403Y-100.974
X123.0Y-93.98
X124.0Y-85.9
X124.384Y-100.974
X124.75Y-84.42
X124.9Y-93.98
X125.345Y-100.249
X126.2Y-101.075
X127.483Y-98.075
X127.5Y-99.524
X127.7Y-100.626
X128.12Y-85.15
X128.7Y-98.8
X128.7Y-100.175
X129.9Y-99.725
X129.921Y-97.325
X130.75Y-91.249
X130.885Y-96.876
X131.3Y-99.275
X132.1Y-85.376
X132.5Y-98.825
X132.537Y-93.142
X135.32Y-95.75
X137.0Y-93.98
X137.0Y-95.451
X138.0Y-93.193
X138.0Y-94.727
X138.586Y-104.206
X139.27Y-83.84
X140.35Y-92.65
X140.5Y-104.2
X141.0Y-94.727
X142.3Y-84.675
X143.7Y-94.0
X143.8Y-105.3
X144.9Y-95.451
X146.06Y-83.9
X146.3Y-101.8
X146.71Y-96.675
X147.6Y-101.5
X147.818Y-97.126
X148.8Y-97.575
X148.9Y-101.5
X150.09Y-89.01
X150.1Y-90.2
X150.1Y-101.5
X151.4Y-101.5
X152.2Y-98.5
X152.56Y-94.001
X152.6Y-101.5
X153.9Y-101.5
X154.3Y-90.1
X155.1Y-86.3
X155.2Y-99.5
X156.3Y-85.4
X156.5Y-100.5
X157.7Y-84.7
X157.7Y-101.5
X158.27Y-80.82
X158.9Y-88.9
X159.57Y-82.21
X160.47Y-90.71
X160.5Y-103.6
X162.6Y-101.3
X163.4Y-90.8
X163.4Y-100.5
X163.91Y-80.91
X164.124Y-92.1
X164.124Y-99.5
X165.24Y-97.82
X168.93Y-104.6
X168.94Y-93.78
X171.48Y-104.63
X174.04Y-104.63
X174.6Y-99.8
X175.3Y-94.0
X176.7Y-103.5
X179.0Y-95.45
X179.0Y-97.4
X179.0Y-99.0
T2
X121.92Y-88.9
X132.08Y-88.9
X142.24Y-88.9
X152.4Y-88.9
X162.56Y-88.9
X162.585Y-85.827
X172.72Y-88.9
X172.745Y-85.827
X177.4Y-85.69
X177.4Y-90.69
T3
X111.481Y-95.428
X111.481Y-99.898
X111.481Y-104.242
X111.582Y-87.173
X111.6Y-90.41
X111.94Y-114.29
X111.94Y-116.83
X111.94Y-119.37
X114.48Y-114.29
X114.48Y-116.83
X114.48Y-119.37
X117.02Y-114.29
X117.02Y-116.83
X117.02Y-119.37
X119.38Y-86.36
X119.38Y-88.9
X119.38Y-91.44
X119.38Y-93.98
X119.38Y-96.52
X119.38Y-99.06
X119.38Y-101.6
X119.38Y-104.14
X119.56Y-114.29
X119.56Y-116.83
X119.56Y-119.37
X122.1Y-114.29
X122.1Y-116.83
X122.1Y-119.37
X123.93Y-91.99
X124.64Y-114.29
X124.64Y-116.83
X124.64Y-119.37
X125.17Y-82.19
X126.44Y-91.99
X127.18Y-114.29
X127.18Y-116.83
X127.18Y-119.37
X128.363Y-82.19
X128.98Y-91.99
X129.72Y-114.29
X129.72Y-116.83
X129.72Y-119.37
X131.556Y-82.19
X132.26Y-114.29
X132.26Y-116.83
X132.26Y-119.37
X134.52Y-88.46
X134.6Y-91.92
X134.7Y-109.62
X134.749Y-82.19
X134.94Y-114.36
X134.94Y-116.9
X134.94Y-119.44
X137.12Y-88.46
X137.48Y-114.36
X137.48Y-116.9
X137.48Y-119.44
X137.941Y-82.19
X139.66Y-88.46
X140.02Y-114.36
X140.02Y-116.9
X140.02Y-119.44
X140.39Y-109.59
X141.134Y-82.19
X142.56Y-114.36
X142.56Y-116.9
X142.56Y-119.44
X143.582Y-109.59
X144.327Y-82.19
X145.1Y-114.36
X145.1Y-116.9
X145.1Y-119.44
X146.773Y-109.59
X147.52Y-82.19
X147.64Y-114.36
X147.64Y-116.9
X147.64Y-119.44
X149.965Y-109.59
X150.18Y-114.36
X150.18Y-116.9
X150.18Y-119.44
X152.72Y-114.36
X152.72Y-116.9
X152.72Y-119.44
X153.157Y-109.59
X155.26Y-114.36
X155.26Y-116.9
X155.26Y-119.44
X156.348Y-109.59
X157.8Y-114.36
X157.8Y-116.9
X157.8Y-119.44
X159.54Y-109.59
X160.34Y-114.36
X160.34Y-116.9
X160.34Y-119.44
X163.53Y-107.78
X163.53Y-110.32
X163.53Y-112.86
X163.53Y-115.4
X163.53Y-117.94
X166.07Y-107.78
X166.07Y-110.32
X166.07Y-112.86
X166.07Y-115.4
X166.07Y-117.94
X168.61Y-107.78
X168.61Y-110.32
X168.61Y-112.86
X168.61Y-115.4
X168.61Y-117.94
X171.15Y-107.78
X171.15Y-110.32
X171.15Y-112.86
X171.15Y-115.4
X171.15Y-117.94
X173.69Y-107.78
X173.69Y-110.32
X173.69Y-112.86
X173.69Y-115.4
X173.69Y-117.94
X176.23Y-107.78
X176.23Y-110.32
X176.23Y-112.86
X176.23Y-115.4
X176.23Y-117.94
X177.4Y-82.44
X178.77Y-107.78
X178.77Y-110.32
X178.77Y-112.86
X178.77Y-115.4
X178.77Y-117.94
X181.31Y-107.78
X181.31Y-110.32
X181.31Y-112.86
X181.31Y-115.4
X181.31Y-117.94
X182.88Y-86.36
X182.88Y-88.9
X182.88Y-91.44
X182.88Y-93.98
X182.88Y-96.52
X182.88Y-99.06
X182.88Y-101.6
X182.88Y-104.14
X183.85Y-107.78
X183.85Y-110.32
X183.85Y-112.86
X183.85Y-115.4
X183.85Y-117.94
X186.39Y-107.78
X186.39Y-110.32
X186.39Y-112.86
X186.39Y-115.4
X186.39Y-117.94
X187.63Y-100.66
X187.681Y-104.75
X187.808Y-96.545
X187.833Y-88.367
X187.858Y-92.481
X188.93Y-107.78
X188.93Y-110.32
X188.93Y-112.86
X188.93Y-115.4
X188.93Y-117.94
T0
M30
