G04 #@! TF.GenerationSoftware,KiCad,Pcbnew,6.0.8-f2edbf62ab~116~ubuntu20.04.1*
G04 #@! TF.CreationDate,2022-10-06T15:54:13+01:00*
G04 #@! TF.ProjectId,slrm,736c726d-2e6b-4696-9361-645f70636258,rev?*
G04 #@! TF.SameCoordinates,Original*
G04 #@! TF.FileFunction,Legend,Top*
G04 #@! TF.FilePolarity,Positive*
%FSLAX46Y46*%
G04 Gerber Fmt 4.6, Leading zero omitted, Abs format (unit mm)*
G04 Created by KiCad (PCBNEW 6.0.8-f2edbf62ab~116~ubuntu20.04.1) date 2022-10-06 15:54:13*
%MOMM*%
%LPD*%
G01*
G04 APERTURE LIST*
G04 Aperture macros list*
%AMRoundRect*
0 Rectangle with rounded corners*
0 $1 Rounding radius*
0 $2 $3 $4 $5 $6 $7 $8 $9 X,Y pos of 4 corners*
0 Add a 4 corners polygon primitive as box body*
4,1,4,$2,$3,$4,$5,$6,$7,$8,$9,$2,$3,0*
0 Add four circle primitives for the rounded corners*
1,1,$1+$1,$2,$3*
1,1,$1+$1,$4,$5*
1,1,$1+$1,$6,$7*
1,1,$1+$1,$8,$9*
0 Add four rect primitives between the rounded corners*
20,1,$1+$1,$2,$3,$4,$5,0*
20,1,$1+$1,$4,$5,$6,$7,0*
20,1,$1+$1,$6,$7,$8,$9,0*
20,1,$1+$1,$8,$9,$2,$3,0*%
G04 Aperture macros list end*
%ADD10C,0.150000*%
%ADD11C,0.125000*%
%ADD12C,0.120000*%
%ADD13C,0.223606*%
%ADD14C,0.200000*%
%ADD15C,2.000000*%
%ADD16R,1.350000X1.350000*%
%ADD17O,0.600000X2.250000*%
%ADD18R,1.700000X1.700000*%
%ADD19O,1.700000X1.700000*%
%ADD20RoundRect,0.250000X0.650000X-0.325000X0.650000X0.325000X-0.650000X0.325000X-0.650000X-0.325000X0*%
%ADD21RoundRect,0.150000X-0.150000X0.875000X-0.150000X-0.875000X0.150000X-0.875000X0.150000X0.875000X0*%
%ADD22RoundRect,0.150000X-0.150000X0.825000X-0.150000X-0.825000X0.150000X-0.825000X0.150000X0.825000X0*%
%ADD23RoundRect,0.250000X-0.650000X0.325000X-0.650000X-0.325000X0.650000X-0.325000X0.650000X0.325000X0*%
G04 APERTURE END LIST*
D10*
X176580000Y-96820000D02*
G75*
G03*
X176580000Y-96820000I-100000J0D01*
G01*
X135140000Y-93320000D02*
G75*
G03*
X135140000Y-93320000I-100000J0D01*
G01*
D11*
X159066190Y-84915714D02*
X159066190Y-85725238D01*
X159042380Y-85820476D01*
X159018571Y-85868095D01*
X158970952Y-85915714D01*
X158899523Y-85915714D01*
X158851904Y-85868095D01*
X159066190Y-85534761D02*
X159018571Y-85582380D01*
X158923333Y-85582380D01*
X158875714Y-85534761D01*
X158851904Y-85487142D01*
X158828095Y-85391904D01*
X158828095Y-85106190D01*
X158851904Y-85010952D01*
X158875714Y-84963333D01*
X158923333Y-84915714D01*
X159018571Y-84915714D01*
X159066190Y-84963333D01*
X159304285Y-85582380D02*
X159304285Y-84915714D01*
X159304285Y-84582380D02*
X159280476Y-84630000D01*
X159304285Y-84677619D01*
X159328095Y-84630000D01*
X159304285Y-84582380D01*
X159304285Y-84677619D01*
X159470952Y-84915714D02*
X159661428Y-84915714D01*
X159542380Y-84582380D02*
X159542380Y-85439523D01*
X159566190Y-85534761D01*
X159613809Y-85582380D01*
X159661428Y-85582380D01*
X159828095Y-85582380D02*
X159828095Y-84582380D01*
X160042380Y-85582380D02*
X160042380Y-85058571D01*
X160018571Y-84963333D01*
X159970952Y-84915714D01*
X159899523Y-84915714D01*
X159851904Y-84963333D01*
X159828095Y-85010952D01*
X160494761Y-84915714D02*
X160494761Y-85582380D01*
X160280476Y-84915714D02*
X160280476Y-85439523D01*
X160304285Y-85534761D01*
X160351904Y-85582380D01*
X160423333Y-85582380D01*
X160470952Y-85534761D01*
X160494761Y-85487142D01*
X160732857Y-85582380D02*
X160732857Y-84582380D01*
X160732857Y-84963333D02*
X160780476Y-84915714D01*
X160875714Y-84915714D01*
X160923333Y-84963333D01*
X160947142Y-85010952D01*
X160970952Y-85106190D01*
X160970952Y-85391904D01*
X160947142Y-85487142D01*
X160923333Y-85534761D01*
X160875714Y-85582380D01*
X160780476Y-85582380D01*
X160732857Y-85534761D01*
X161185238Y-85487142D02*
X161209047Y-85534761D01*
X161185238Y-85582380D01*
X161161428Y-85534761D01*
X161185238Y-85487142D01*
X161185238Y-85582380D01*
X161637619Y-85534761D02*
X161590000Y-85582380D01*
X161494761Y-85582380D01*
X161447142Y-85534761D01*
X161423333Y-85487142D01*
X161399523Y-85391904D01*
X161399523Y-85106190D01*
X161423333Y-85010952D01*
X161447142Y-84963333D01*
X161494761Y-84915714D01*
X161590000Y-84915714D01*
X161637619Y-84963333D01*
X161923333Y-85582380D02*
X161875714Y-85534761D01*
X161851904Y-85487142D01*
X161828095Y-85391904D01*
X161828095Y-85106190D01*
X161851904Y-85010952D01*
X161875714Y-84963333D01*
X161923333Y-84915714D01*
X161994761Y-84915714D01*
X162042380Y-84963333D01*
X162066190Y-85010952D01*
X162090000Y-85106190D01*
X162090000Y-85391904D01*
X162066190Y-85487142D01*
X162042380Y-85534761D01*
X161994761Y-85582380D01*
X161923333Y-85582380D01*
X162304285Y-85582380D02*
X162304285Y-84915714D01*
X162304285Y-85010952D02*
X162328095Y-84963333D01*
X162375714Y-84915714D01*
X162447142Y-84915714D01*
X162494761Y-84963333D01*
X162518571Y-85058571D01*
X162518571Y-85582380D01*
X162518571Y-85058571D02*
X162542380Y-84963333D01*
X162590000Y-84915714D01*
X162661428Y-84915714D01*
X162709047Y-84963333D01*
X162732857Y-85058571D01*
X162732857Y-85582380D01*
X163328095Y-84534761D02*
X162899523Y-85820476D01*
X163709047Y-85582380D02*
X163709047Y-84582380D01*
X163709047Y-85534761D02*
X163661428Y-85582380D01*
X163566190Y-85582380D01*
X163518571Y-85534761D01*
X163494761Y-85487142D01*
X163470952Y-85391904D01*
X163470952Y-85106190D01*
X163494761Y-85010952D01*
X163518571Y-84963333D01*
X163566190Y-84915714D01*
X163661428Y-84915714D01*
X163709047Y-84963333D01*
X164137619Y-85534761D02*
X164090000Y-85582380D01*
X163994761Y-85582380D01*
X163947142Y-85534761D01*
X163923333Y-85439523D01*
X163923333Y-85058571D01*
X163947142Y-84963333D01*
X163994761Y-84915714D01*
X164090000Y-84915714D01*
X164137619Y-84963333D01*
X164161428Y-85058571D01*
X164161428Y-85153809D01*
X163923333Y-85249047D01*
X164375714Y-85582380D02*
X164375714Y-84915714D01*
X164375714Y-85106190D02*
X164399523Y-85010952D01*
X164423333Y-84963333D01*
X164470952Y-84915714D01*
X164518571Y-84915714D01*
X164875714Y-85534761D02*
X164828095Y-85582380D01*
X164732857Y-85582380D01*
X164685238Y-85534761D01*
X164661428Y-85439523D01*
X164661428Y-85058571D01*
X164685238Y-84963333D01*
X164732857Y-84915714D01*
X164828095Y-84915714D01*
X164875714Y-84963333D01*
X164899523Y-85058571D01*
X164899523Y-85153809D01*
X164661428Y-85249047D01*
X165113809Y-85582380D02*
X165113809Y-84582380D01*
X165161428Y-85201428D02*
X165304285Y-85582380D01*
X165304285Y-84915714D02*
X165113809Y-85296666D01*
X165447142Y-84915714D02*
X165637619Y-84915714D01*
X165518571Y-85582380D02*
X165518571Y-84725238D01*
X165542380Y-84630000D01*
X165590000Y-84582380D01*
X165637619Y-84582380D01*
X165875714Y-85582380D02*
X165828095Y-85534761D01*
X165804285Y-85487142D01*
X165780476Y-85391904D01*
X165780476Y-85106190D01*
X165804285Y-85010952D01*
X165828095Y-84963333D01*
X165875714Y-84915714D01*
X165947142Y-84915714D01*
X165994761Y-84963333D01*
X166018571Y-85010952D01*
X166042380Y-85106190D01*
X166042380Y-85391904D01*
X166018571Y-85487142D01*
X165994761Y-85534761D01*
X165947142Y-85582380D01*
X165875714Y-85582380D01*
X166470952Y-84915714D02*
X166470952Y-85582380D01*
X166256666Y-84915714D02*
X166256666Y-85439523D01*
X166280476Y-85534761D01*
X166328095Y-85582380D01*
X166399523Y-85582380D01*
X166447142Y-85534761D01*
X166470952Y-85487142D01*
X166709047Y-84915714D02*
X166709047Y-85582380D01*
X166709047Y-85010952D02*
X166732857Y-84963333D01*
X166780476Y-84915714D01*
X166851904Y-84915714D01*
X166899523Y-84963333D01*
X166923333Y-85058571D01*
X166923333Y-85582380D01*
X167090000Y-84915714D02*
X167280476Y-84915714D01*
X167161428Y-84582380D02*
X167161428Y-85439523D01*
X167185238Y-85534761D01*
X167232857Y-85582380D01*
X167280476Y-85582380D01*
X167661428Y-85582380D02*
X167661428Y-85058571D01*
X167637619Y-84963333D01*
X167590000Y-84915714D01*
X167494761Y-84915714D01*
X167447142Y-84963333D01*
X167661428Y-85534761D02*
X167613809Y-85582380D01*
X167494761Y-85582380D01*
X167447142Y-85534761D01*
X167423333Y-85439523D01*
X167423333Y-85344285D01*
X167447142Y-85249047D01*
X167494761Y-85201428D01*
X167613809Y-85201428D01*
X167661428Y-85153809D01*
X167899523Y-85582380D02*
X167899523Y-84915714D01*
X167899523Y-84582380D02*
X167875714Y-84630000D01*
X167899523Y-84677619D01*
X167923333Y-84630000D01*
X167899523Y-84582380D01*
X167899523Y-84677619D01*
X168137619Y-84915714D02*
X168137619Y-85582380D01*
X168137619Y-85010952D02*
X168161428Y-84963333D01*
X168209047Y-84915714D01*
X168280476Y-84915714D01*
X168328095Y-84963333D01*
X168351904Y-85058571D01*
X168351904Y-85582380D01*
X168947142Y-84534761D02*
X168518571Y-85820476D01*
X169066190Y-84915714D02*
X169328095Y-84915714D01*
X169066190Y-85582380D01*
X169328095Y-85582380D01*
X169470952Y-85582380D02*
X169732857Y-84915714D01*
X169470952Y-84915714D02*
X169732857Y-85582380D01*
X169923333Y-85201428D02*
X170304285Y-85201428D01*
X170518571Y-85534761D02*
X170566190Y-85582380D01*
X170661428Y-85582380D01*
X170709047Y-85534761D01*
X170732857Y-85439523D01*
X170732857Y-85391904D01*
X170709047Y-85296666D01*
X170661428Y-85249047D01*
X170590000Y-85249047D01*
X170542380Y-85201428D01*
X170518571Y-85106190D01*
X170518571Y-85058571D01*
X170542380Y-84963333D01*
X170590000Y-84915714D01*
X170661428Y-84915714D01*
X170709047Y-84963333D01*
X170947142Y-84915714D02*
X170947142Y-85915714D01*
X170947142Y-84963333D02*
X170994761Y-84915714D01*
X171090000Y-84915714D01*
X171137619Y-84963333D01*
X171161428Y-85010952D01*
X171185238Y-85106190D01*
X171185238Y-85391904D01*
X171161428Y-85487142D01*
X171137619Y-85534761D01*
X171090000Y-85582380D01*
X170994761Y-85582380D01*
X170947142Y-85534761D01*
X171590000Y-85534761D02*
X171542380Y-85582380D01*
X171447142Y-85582380D01*
X171399523Y-85534761D01*
X171375714Y-85439523D01*
X171375714Y-85058571D01*
X171399523Y-84963333D01*
X171447142Y-84915714D01*
X171542380Y-84915714D01*
X171590000Y-84963333D01*
X171613809Y-85058571D01*
X171613809Y-85153809D01*
X171375714Y-85249047D01*
X172042380Y-85534761D02*
X171994761Y-85582380D01*
X171899523Y-85582380D01*
X171851904Y-85534761D01*
X171828095Y-85487142D01*
X171804285Y-85391904D01*
X171804285Y-85106190D01*
X171828095Y-85010952D01*
X171851904Y-84963333D01*
X171899523Y-84915714D01*
X171994761Y-84915714D01*
X172042380Y-84963333D01*
X172185238Y-84915714D02*
X172375714Y-84915714D01*
X172256666Y-84582380D02*
X172256666Y-85439523D01*
X172280476Y-85534761D01*
X172328095Y-85582380D01*
X172375714Y-85582380D01*
X172542380Y-85582380D02*
X172542380Y-84915714D01*
X172542380Y-85106190D02*
X172566190Y-85010952D01*
X172590000Y-84963333D01*
X172637619Y-84915714D01*
X172685238Y-84915714D01*
X173066190Y-84915714D02*
X173066190Y-85582380D01*
X172851904Y-84915714D02*
X172851904Y-85439523D01*
X172875714Y-85534761D01*
X172923333Y-85582380D01*
X172994761Y-85582380D01*
X173042380Y-85534761D01*
X173066190Y-85487142D01*
X173304285Y-85582380D02*
X173304285Y-84915714D01*
X173304285Y-85010952D02*
X173328095Y-84963333D01*
X173375714Y-84915714D01*
X173447142Y-84915714D01*
X173494761Y-84963333D01*
X173518571Y-85058571D01*
X173518571Y-85582380D01*
X173518571Y-85058571D02*
X173542380Y-84963333D01*
X173590000Y-84915714D01*
X173661428Y-84915714D01*
X173709047Y-84963333D01*
X173732857Y-85058571D01*
X173732857Y-85582380D01*
X173970952Y-85201428D02*
X174351904Y-85201428D01*
X174661428Y-85582380D02*
X174613809Y-85534761D01*
X174590000Y-85439523D01*
X174590000Y-84582380D01*
X174923333Y-85582380D02*
X174875714Y-85534761D01*
X174851904Y-85487142D01*
X174828095Y-85391904D01*
X174828095Y-85106190D01*
X174851904Y-85010952D01*
X174875714Y-84963333D01*
X174923333Y-84915714D01*
X174994761Y-84915714D01*
X175042380Y-84963333D01*
X175066190Y-85010952D01*
X175090000Y-85106190D01*
X175090000Y-85391904D01*
X175066190Y-85487142D01*
X175042380Y-85534761D01*
X174994761Y-85582380D01*
X174923333Y-85582380D01*
X175256666Y-84915714D02*
X175351904Y-85582380D01*
X175447142Y-85106190D01*
X175542380Y-85582380D01*
X175637619Y-84915714D01*
X176018571Y-85534761D02*
X175970952Y-85582380D01*
X175875714Y-85582380D01*
X175828095Y-85534761D01*
X175804285Y-85439523D01*
X175804285Y-85058571D01*
X175828095Y-84963333D01*
X175875714Y-84915714D01*
X175970952Y-84915714D01*
X176018571Y-84963333D01*
X176042380Y-85058571D01*
X176042380Y-85153809D01*
X175804285Y-85249047D01*
X176256666Y-85582380D02*
X176256666Y-84915714D01*
X176256666Y-85106190D02*
X176280476Y-85010952D01*
X176304285Y-84963333D01*
X176351904Y-84915714D01*
X176399523Y-84915714D01*
X176566190Y-85201428D02*
X176947142Y-85201428D01*
X177185238Y-85582380D02*
X177185238Y-84915714D01*
X177185238Y-85106190D02*
X177209047Y-85010952D01*
X177232857Y-84963333D01*
X177280476Y-84915714D01*
X177328095Y-84915714D01*
X177709047Y-85582380D02*
X177709047Y-85058571D01*
X177685238Y-84963333D01*
X177637619Y-84915714D01*
X177542380Y-84915714D01*
X177494761Y-84963333D01*
X177709047Y-85534761D02*
X177661428Y-85582380D01*
X177542380Y-85582380D01*
X177494761Y-85534761D01*
X177470952Y-85439523D01*
X177470952Y-85344285D01*
X177494761Y-85249047D01*
X177542380Y-85201428D01*
X177661428Y-85201428D01*
X177709047Y-85153809D01*
X177947142Y-85582380D02*
X177947142Y-84915714D01*
X177947142Y-85010952D02*
X177970952Y-84963333D01*
X178018571Y-84915714D01*
X178090000Y-84915714D01*
X178137619Y-84963333D01*
X178161428Y-85058571D01*
X178161428Y-85582380D01*
X178161428Y-85058571D02*
X178185238Y-84963333D01*
X178232857Y-84915714D01*
X178304285Y-84915714D01*
X178351904Y-84963333D01*
X178375714Y-85058571D01*
X178375714Y-85582380D01*
X178947142Y-84915714D02*
X179066190Y-85582380D01*
X179185238Y-84915714D01*
X179637619Y-85582380D02*
X179351904Y-85582380D01*
X179494761Y-85582380D02*
X179494761Y-84582380D01*
X179447142Y-84725238D01*
X179399523Y-84820476D01*
X179351904Y-84868095D01*
X179851904Y-85487142D02*
X179875714Y-85534761D01*
X179851904Y-85582380D01*
X179828095Y-85534761D01*
X179851904Y-85487142D01*
X179851904Y-85582380D01*
X180185238Y-84582380D02*
X180232857Y-84582380D01*
X180280476Y-84630000D01*
X180304285Y-84677619D01*
X180328095Y-84772857D01*
X180351904Y-84963333D01*
X180351904Y-85201428D01*
X180328095Y-85391904D01*
X180304285Y-85487142D01*
X180280476Y-85534761D01*
X180232857Y-85582380D01*
X180185238Y-85582380D01*
X180137619Y-85534761D01*
X180113809Y-85487142D01*
X180090000Y-85391904D01*
X180066190Y-85201428D01*
X180066190Y-84963333D01*
X180090000Y-84772857D01*
X180113809Y-84677619D01*
X180137619Y-84630000D01*
X180185238Y-84582380D01*
D10*
G04 #@! TO.C,GND*
X113538095Y-96562000D02*
X113442857Y-96514380D01*
X113300000Y-96514380D01*
X113157142Y-96562000D01*
X113061904Y-96657238D01*
X113014285Y-96752476D01*
X112966666Y-96942952D01*
X112966666Y-97085809D01*
X113014285Y-97276285D01*
X113061904Y-97371523D01*
X113157142Y-97466761D01*
X113300000Y-97514380D01*
X113395238Y-97514380D01*
X113538095Y-97466761D01*
X113585714Y-97419142D01*
X113585714Y-97085809D01*
X113395238Y-97085809D01*
X114014285Y-97514380D02*
X114014285Y-96514380D01*
X114585714Y-97514380D01*
X114585714Y-96514380D01*
X115061904Y-97514380D02*
X115061904Y-96514380D01*
X115300000Y-96514380D01*
X115442857Y-96562000D01*
X115538095Y-96657238D01*
X115585714Y-96752476D01*
X115633333Y-96942952D01*
X115633333Y-97085809D01*
X115585714Y-97276285D01*
X115538095Y-97371523D01*
X115442857Y-97466761D01*
X115300000Y-97514380D01*
X115061904Y-97514380D01*
G04 #@! TO.C,RAS*
X187364761Y-94974380D02*
X187031428Y-94498190D01*
X186793333Y-94974380D02*
X186793333Y-93974380D01*
X187174285Y-93974380D01*
X187269523Y-94022000D01*
X187317142Y-94069619D01*
X187364761Y-94164857D01*
X187364761Y-94307714D01*
X187317142Y-94402952D01*
X187269523Y-94450571D01*
X187174285Y-94498190D01*
X186793333Y-94498190D01*
X187745714Y-94688666D02*
X188221904Y-94688666D01*
X187650476Y-94974380D02*
X187983809Y-93974380D01*
X188317142Y-94974380D01*
X188602857Y-94926761D02*
X188745714Y-94974380D01*
X188983809Y-94974380D01*
X189079047Y-94926761D01*
X189126666Y-94879142D01*
X189174285Y-94783904D01*
X189174285Y-94688666D01*
X189126666Y-94593428D01*
X189079047Y-94545809D01*
X188983809Y-94498190D01*
X188793333Y-94450571D01*
X188698095Y-94402952D01*
X188650476Y-94355333D01*
X188602857Y-94260095D01*
X188602857Y-94164857D01*
X188650476Y-94069619D01*
X188698095Y-94022000D01*
X188793333Y-93974380D01*
X189031428Y-93974380D01*
X189174285Y-94022000D01*
G04 #@! TO.C,WR*
X187031428Y-88894380D02*
X187269523Y-89894380D01*
X187460000Y-89180095D01*
X187650476Y-89894380D01*
X187888571Y-88894380D01*
X188840952Y-89894380D02*
X188507619Y-89418190D01*
X188269523Y-89894380D02*
X188269523Y-88894380D01*
X188650476Y-88894380D01*
X188745714Y-88942000D01*
X188793333Y-88989619D01*
X188840952Y-89084857D01*
X188840952Y-89227714D01*
X188793333Y-89322952D01*
X188745714Y-89370571D01*
X188650476Y-89418190D01*
X188269523Y-89418190D01*
G04 #@! TO.C,+5V*
X113014285Y-102213428D02*
X113776190Y-102213428D01*
X113395238Y-102594380D02*
X113395238Y-101832476D01*
X114728571Y-101594380D02*
X114252380Y-101594380D01*
X114204761Y-102070571D01*
X114252380Y-102022952D01*
X114347619Y-101975333D01*
X114585714Y-101975333D01*
X114680952Y-102022952D01*
X114728571Y-102070571D01*
X114776190Y-102165809D01*
X114776190Y-102403904D01*
X114728571Y-102499142D01*
X114680952Y-102546761D01*
X114585714Y-102594380D01*
X114347619Y-102594380D01*
X114252380Y-102546761D01*
X114204761Y-102499142D01*
X115061904Y-101594380D02*
X115395238Y-102594380D01*
X115728571Y-101594380D01*
G04 #@! TO.C,CAS*
X113704761Y-87259142D02*
X113657142Y-87306761D01*
X113514285Y-87354380D01*
X113419047Y-87354380D01*
X113276190Y-87306761D01*
X113180952Y-87211523D01*
X113133333Y-87116285D01*
X113085714Y-86925809D01*
X113085714Y-86782952D01*
X113133333Y-86592476D01*
X113180952Y-86497238D01*
X113276190Y-86402000D01*
X113419047Y-86354380D01*
X113514285Y-86354380D01*
X113657142Y-86402000D01*
X113704761Y-86449619D01*
X114085714Y-87068666D02*
X114561904Y-87068666D01*
X113990476Y-87354380D02*
X114323809Y-86354380D01*
X114657142Y-87354380D01*
X114942857Y-87306761D02*
X115085714Y-87354380D01*
X115323809Y-87354380D01*
X115419047Y-87306761D01*
X115466666Y-87259142D01*
X115514285Y-87163904D01*
X115514285Y-87068666D01*
X115466666Y-86973428D01*
X115419047Y-86925809D01*
X115323809Y-86878190D01*
X115133333Y-86830571D01*
X115038095Y-86782952D01*
X114990476Y-86735333D01*
X114942857Y-86640095D01*
X114942857Y-86544857D01*
X114990476Y-86449619D01*
X115038095Y-86402000D01*
X115133333Y-86354380D01*
X115371428Y-86354380D01*
X115514285Y-86402000D01*
G04 #@! TO.C,D6*
X123861904Y-89322380D02*
X123861904Y-88322380D01*
X124100000Y-88322380D01*
X124242857Y-88370000D01*
X124338095Y-88465238D01*
X124385714Y-88560476D01*
X124433333Y-88750952D01*
X124433333Y-88893809D01*
X124385714Y-89084285D01*
X124338095Y-89179523D01*
X124242857Y-89274761D01*
X124100000Y-89322380D01*
X123861904Y-89322380D01*
X125290476Y-88322380D02*
X125100000Y-88322380D01*
X125004761Y-88370000D01*
X124957142Y-88417619D01*
X124861904Y-88560476D01*
X124814285Y-88750952D01*
X124814285Y-89131904D01*
X124861904Y-89227142D01*
X124909523Y-89274761D01*
X125004761Y-89322380D01*
X125195238Y-89322380D01*
X125290476Y-89274761D01*
X125338095Y-89227142D01*
X125385714Y-89131904D01*
X125385714Y-88893809D01*
X125338095Y-88798571D01*
X125290476Y-88750952D01*
X125195238Y-88703333D01*
X125004761Y-88703333D01*
X124909523Y-88750952D01*
X124861904Y-88798571D01*
X124814285Y-88893809D01*
G04 #@! TO.C,D2*
X161821904Y-87292380D02*
X161821904Y-86292380D01*
X162060000Y-86292380D01*
X162202857Y-86340000D01*
X162298095Y-86435238D01*
X162345714Y-86530476D01*
X162393333Y-86720952D01*
X162393333Y-86863809D01*
X162345714Y-87054285D01*
X162298095Y-87149523D01*
X162202857Y-87244761D01*
X162060000Y-87292380D01*
X161821904Y-87292380D01*
X162774285Y-86387619D02*
X162821904Y-86340000D01*
X162917142Y-86292380D01*
X163155238Y-86292380D01*
X163250476Y-86340000D01*
X163298095Y-86387619D01*
X163345714Y-86482857D01*
X163345714Y-86578095D01*
X163298095Y-86720952D01*
X162726666Y-87292380D01*
X163345714Y-87292380D01*
G04 #@! TO.C,D4*
X144151904Y-89382380D02*
X144151904Y-88382380D01*
X144390000Y-88382380D01*
X144532857Y-88430000D01*
X144628095Y-88525238D01*
X144675714Y-88620476D01*
X144723333Y-88810952D01*
X144723333Y-88953809D01*
X144675714Y-89144285D01*
X144628095Y-89239523D01*
X144532857Y-89334761D01*
X144390000Y-89382380D01*
X144151904Y-89382380D01*
X145580476Y-88715714D02*
X145580476Y-89382380D01*
X145342380Y-88334761D02*
X145104285Y-89049047D01*
X145723333Y-89049047D01*
G04 #@! TO.C,SRAM*
X161405316Y-99788160D02*
X161453000Y-99645107D01*
X161453000Y-99406686D01*
X161405316Y-99311317D01*
X161357632Y-99263633D01*
X161262263Y-99215949D01*
X161166895Y-99215949D01*
X161071526Y-99263633D01*
X161023842Y-99311317D01*
X160976157Y-99406686D01*
X160928473Y-99597423D01*
X160880789Y-99692792D01*
X160833105Y-99740476D01*
X160737736Y-99788160D01*
X160642367Y-99788160D01*
X160546999Y-99740476D01*
X160499315Y-99692792D01*
X160451630Y-99597423D01*
X160451630Y-99359002D01*
X160499315Y-99215949D01*
X161453000Y-98214579D02*
X160976157Y-98548369D01*
X161453000Y-98786790D02*
X160451630Y-98786790D01*
X160451630Y-98405316D01*
X160499315Y-98309947D01*
X160546999Y-98262263D01*
X160642367Y-98214579D01*
X160785420Y-98214579D01*
X160880789Y-98262263D01*
X160928473Y-98309947D01*
X160976157Y-98405316D01*
X160976157Y-98786790D01*
X161166895Y-97833105D02*
X161166895Y-97356262D01*
X161453000Y-97928473D02*
X160451630Y-97594683D01*
X161453000Y-97260893D01*
X161453000Y-96927103D02*
X160451630Y-96927103D01*
X161166895Y-96593313D01*
X160451630Y-96259523D01*
X161453000Y-96259523D01*
G04 #@! TO.C,J1*
X116666666Y-94452380D02*
X116666666Y-95166666D01*
X116619047Y-95309523D01*
X116523809Y-95404761D01*
X116380952Y-95452380D01*
X116285714Y-95452380D01*
X117666666Y-95452380D02*
X117095238Y-95452380D01*
X117380952Y-95452380D02*
X117380952Y-94452380D01*
X117285714Y-94595238D01*
X117190476Y-94690476D01*
X117095238Y-94738095D01*
G04 #@! TO.C,C1*
X177507142Y-102166666D02*
X177554761Y-102214285D01*
X177602380Y-102357142D01*
X177602380Y-102452380D01*
X177554761Y-102595238D01*
X177459523Y-102690476D01*
X177364285Y-102738095D01*
X177173809Y-102785714D01*
X177030952Y-102785714D01*
X176840476Y-102738095D01*
X176745238Y-102690476D01*
X176650000Y-102595238D01*
X176602380Y-102452380D01*
X176602380Y-102357142D01*
X176650000Y-102214285D01*
X176697619Y-102166666D01*
X177602380Y-101214285D02*
X177602380Y-101785714D01*
X177602380Y-101500000D02*
X176602380Y-101500000D01*
X176745238Y-101595238D01*
X176840476Y-101690476D01*
X176888095Y-101785714D01*
G04 #@! TO.C,C2*
X138316968Y-102841666D02*
X138364587Y-102889285D01*
X138412206Y-103032142D01*
X138412206Y-103127380D01*
X138364587Y-103270238D01*
X138269349Y-103365476D01*
X138174111Y-103413095D01*
X137983635Y-103460714D01*
X137840778Y-103460714D01*
X137650302Y-103413095D01*
X137555064Y-103365476D01*
X137459826Y-103270238D01*
X137412206Y-103127380D01*
X137412206Y-103032142D01*
X137459826Y-102889285D01*
X137507445Y-102841666D01*
X137507445Y-102460714D02*
X137459826Y-102413095D01*
X137412206Y-102317857D01*
X137412206Y-102079761D01*
X137459826Y-101984523D01*
X137507445Y-101936904D01*
X137602683Y-101889285D01*
X137697921Y-101889285D01*
X137840778Y-101936904D01*
X138412206Y-102508333D01*
X138412206Y-101889285D01*
G04 #@! TO.C,J8*
X185766666Y-85812380D02*
X185766666Y-86526666D01*
X185719047Y-86669523D01*
X185623809Y-86764761D01*
X185480952Y-86812380D01*
X185385714Y-86812380D01*
X186385714Y-86240952D02*
X186290476Y-86193333D01*
X186242857Y-86145714D01*
X186195238Y-86050476D01*
X186195238Y-86002857D01*
X186242857Y-85907619D01*
X186290476Y-85860000D01*
X186385714Y-85812380D01*
X186576190Y-85812380D01*
X186671428Y-85860000D01*
X186719047Y-85907619D01*
X186766666Y-86002857D01*
X186766666Y-86050476D01*
X186719047Y-86145714D01*
X186671428Y-86193333D01*
X186576190Y-86240952D01*
X186385714Y-86240952D01*
X186290476Y-86288571D01*
X186242857Y-86336190D01*
X186195238Y-86431428D01*
X186195238Y-86621904D01*
X186242857Y-86717142D01*
X186290476Y-86764761D01*
X186385714Y-86812380D01*
X186576190Y-86812380D01*
X186671428Y-86764761D01*
X186719047Y-86717142D01*
X186766666Y-86621904D01*
X186766666Y-86431428D01*
X186719047Y-86336190D01*
X186671428Y-86288571D01*
X186576190Y-86240952D01*
G04 #@! TO.C,D5*
X133941904Y-89342380D02*
X133941904Y-88342380D01*
X134180000Y-88342380D01*
X134322857Y-88390000D01*
X134418095Y-88485238D01*
X134465714Y-88580476D01*
X134513333Y-88770952D01*
X134513333Y-88913809D01*
X134465714Y-89104285D01*
X134418095Y-89199523D01*
X134322857Y-89294761D01*
X134180000Y-89342380D01*
X133941904Y-89342380D01*
X135418095Y-88342380D02*
X134941904Y-88342380D01*
X134894285Y-88818571D01*
X134941904Y-88770952D01*
X135037142Y-88723333D01*
X135275238Y-88723333D01*
X135370476Y-88770952D01*
X135418095Y-88818571D01*
X135465714Y-88913809D01*
X135465714Y-89151904D01*
X135418095Y-89247142D01*
X135370476Y-89294761D01*
X135275238Y-89342380D01*
X135037142Y-89342380D01*
X134941904Y-89294761D01*
X134894285Y-89247142D01*
G04 #@! TO.C,D1*
X171981904Y-87292380D02*
X171981904Y-86292380D01*
X172220000Y-86292380D01*
X172362857Y-86340000D01*
X172458095Y-86435238D01*
X172505714Y-86530476D01*
X172553333Y-86720952D01*
X172553333Y-86863809D01*
X172505714Y-87054285D01*
X172458095Y-87149523D01*
X172362857Y-87244761D01*
X172220000Y-87292380D01*
X171981904Y-87292380D01*
X173505714Y-87292380D02*
X172934285Y-87292380D01*
X173220000Y-87292380D02*
X173220000Y-86292380D01*
X173124761Y-86435238D01*
X173029523Y-86530476D01*
X172934285Y-86578095D01*
G04 #@! TO.C,LATCH*
X126646190Y-92512380D02*
X126170000Y-92512380D01*
X126170000Y-91512380D01*
X126931904Y-92226666D02*
X127408095Y-92226666D01*
X126836666Y-92512380D02*
X127170000Y-91512380D01*
X127503333Y-92512380D01*
X127693809Y-91512380D02*
X128265238Y-91512380D01*
X127979523Y-92512380D02*
X127979523Y-91512380D01*
X129170000Y-92417142D02*
X129122380Y-92464761D01*
X128979523Y-92512380D01*
X128884285Y-92512380D01*
X128741428Y-92464761D01*
X128646190Y-92369523D01*
X128598571Y-92274285D01*
X128550952Y-92083809D01*
X128550952Y-91940952D01*
X128598571Y-91750476D01*
X128646190Y-91655238D01*
X128741428Y-91560000D01*
X128884285Y-91512380D01*
X128979523Y-91512380D01*
X129122380Y-91560000D01*
X129170000Y-91607619D01*
X129598571Y-92512380D02*
X129598571Y-91512380D01*
X129598571Y-91988571D02*
X130170000Y-91988571D01*
X130170000Y-92512380D02*
X130170000Y-91512380D01*
G04 #@! TO.C,INV*
X176297619Y-98872380D02*
X176297619Y-97872380D01*
X176773809Y-98872380D02*
X176773809Y-97872380D01*
X177345238Y-98872380D01*
X177345238Y-97872380D01*
X177678571Y-97872380D02*
X178011904Y-98872380D01*
X178345238Y-97872380D01*
G04 #@! TO.C,D3*
X151661904Y-87292380D02*
X151661904Y-86292380D01*
X151900000Y-86292380D01*
X152042857Y-86340000D01*
X152138095Y-86435238D01*
X152185714Y-86530476D01*
X152233333Y-86720952D01*
X152233333Y-86863809D01*
X152185714Y-87054285D01*
X152138095Y-87149523D01*
X152042857Y-87244761D01*
X151900000Y-87292380D01*
X151661904Y-87292380D01*
X152566666Y-86292380D02*
X153185714Y-86292380D01*
X152852380Y-86673333D01*
X152995238Y-86673333D01*
X153090476Y-86720952D01*
X153138095Y-86768571D01*
X153185714Y-86863809D01*
X153185714Y-87101904D01*
X153138095Y-87197142D01*
X153090476Y-87244761D01*
X152995238Y-87292380D01*
X152709523Y-87292380D01*
X152614285Y-87244761D01*
X152566666Y-87197142D01*
G04 #@! TO.C,C3*
X139257142Y-94906249D02*
X139304761Y-94953868D01*
X139352380Y-95096725D01*
X139352380Y-95191963D01*
X139304761Y-95334821D01*
X139209523Y-95430059D01*
X139114285Y-95477678D01*
X138923809Y-95525297D01*
X138780952Y-95525297D01*
X138590476Y-95477678D01*
X138495238Y-95430059D01*
X138400000Y-95334821D01*
X138352380Y-95191963D01*
X138352380Y-95096725D01*
X138400000Y-94953868D01*
X138447619Y-94906249D01*
X138352380Y-94572916D02*
X138352380Y-93953868D01*
X138733333Y-94287202D01*
X138733333Y-94144344D01*
X138780952Y-94049106D01*
X138828571Y-94001487D01*
X138923809Y-93953868D01*
X139161904Y-93953868D01*
X139257142Y-94001487D01*
X139304761Y-94049106D01*
X139352380Y-94144344D01*
X139352380Y-94430059D01*
X139304761Y-94525297D01*
X139257142Y-94572916D01*
D12*
G04 #@! TO.C,GND*
X115500000Y-99060000D02*
G75*
G03*
X115500000Y-99060000I-1200000J0D01*
G01*
G04 #@! TO.C,RAS*
X189160000Y-96520000D02*
G75*
G03*
X189160000Y-96520000I-1200000J0D01*
G01*
G04 #@! TO.C,WR*
X189160000Y-91440000D02*
G75*
G03*
X189160000Y-91440000I-1200000J0D01*
G01*
G04 #@! TO.C,+5V*
X115500000Y-104140000D02*
G75*
G03*
X115500000Y-104140000I-1200000J0D01*
G01*
G04 #@! TO.C,CAS*
X115500000Y-88900000D02*
G75*
G03*
X115500000Y-88900000I-1200000J0D01*
G01*
G04 #@! TO.C,D6*
X120860000Y-88900000D02*
X120860000Y-87840000D01*
X122980000Y-89900000D02*
X122980000Y-89960000D01*
X120860000Y-89900000D02*
X120860000Y-89960000D01*
X120860000Y-87840000D02*
X121920000Y-87840000D01*
X120860000Y-89960000D02*
X122980000Y-89960000D01*
X120860000Y-89900000D02*
X122980000Y-89900000D01*
G04 #@! TO.C,D2*
X161500000Y-89900000D02*
X163620000Y-89900000D01*
X161500000Y-89960000D02*
X163620000Y-89960000D01*
X161500000Y-87840000D02*
X162560000Y-87840000D01*
X161500000Y-89900000D02*
X161500000Y-89960000D01*
X161500000Y-88900000D02*
X161500000Y-87840000D01*
X163620000Y-89900000D02*
X163620000Y-89960000D01*
G04 #@! TO.C,D4*
X141180000Y-89900000D02*
X143300000Y-89900000D01*
X141180000Y-88900000D02*
X141180000Y-87840000D01*
X141180000Y-87840000D02*
X142240000Y-87840000D01*
X141180000Y-89900000D02*
X141180000Y-89960000D01*
X141180000Y-89960000D02*
X143300000Y-89960000D01*
X143300000Y-89900000D02*
X143300000Y-89960000D01*
G04 #@! TO.C,SRAM*
D13*
X141630612Y-103700000D02*
G75*
G03*
X141630612Y-103700000I-111803J0D01*
G01*
D14*
X159818809Y-102100000D02*
X141618809Y-102100000D01*
X141618809Y-102100000D02*
X141618809Y-93900000D01*
X159818809Y-93900000D02*
X159818809Y-102100000D01*
X141618809Y-93900000D02*
X159818809Y-93900000D01*
D12*
G04 #@! TO.C,J1*
X118050000Y-86360000D02*
X118050000Y-85030000D01*
X118050000Y-105470000D02*
X120710000Y-105470000D01*
X120710000Y-87630000D02*
X120710000Y-105470000D01*
X118050000Y-87630000D02*
X118050000Y-105470000D01*
X118050000Y-85030000D02*
X119380000Y-85030000D01*
X118050000Y-87630000D02*
X120710000Y-87630000D01*
G04 #@! TO.C,C1*
X178090000Y-102711252D02*
X178090000Y-101288748D01*
X179910000Y-102711252D02*
X179910000Y-101288748D01*
G04 #@! TO.C,C2*
X137210000Y-103386252D02*
X137210000Y-101963748D01*
X135390000Y-103386252D02*
X135390000Y-101963748D01*
G04 #@! TO.C,J8*
X181550000Y-86360000D02*
X181550000Y-85030000D01*
X181550000Y-87630000D02*
X181550000Y-105470000D01*
X184210000Y-87630000D02*
X184210000Y-105470000D01*
X181550000Y-87630000D02*
X184210000Y-87630000D01*
X181550000Y-105470000D02*
X184210000Y-105470000D01*
X181550000Y-85030000D02*
X182880000Y-85030000D01*
G04 #@! TO.C,D5*
X133140000Y-89900000D02*
X133140000Y-89960000D01*
X131020000Y-89960000D02*
X133140000Y-89960000D01*
X131020000Y-87840000D02*
X132080000Y-87840000D01*
X131020000Y-89900000D02*
X131020000Y-89960000D01*
X131020000Y-88900000D02*
X131020000Y-87840000D01*
X131020000Y-89900000D02*
X133140000Y-89900000D01*
G04 #@! TO.C,D1*
X171660000Y-89960000D02*
X173780000Y-89960000D01*
X171660000Y-88900000D02*
X171660000Y-87840000D01*
X171660000Y-87840000D02*
X172720000Y-87840000D01*
X171660000Y-89900000D02*
X171660000Y-89960000D01*
X171660000Y-89900000D02*
X173780000Y-89900000D01*
X173780000Y-89900000D02*
X173780000Y-89960000D01*
G04 #@! TO.C,LATCH*
X121590000Y-99040000D02*
X121590000Y-102900000D01*
X121590000Y-102900000D02*
X121825000Y-102900000D01*
X134610000Y-95180000D02*
X134375000Y-95180000D01*
X134610000Y-99040000D02*
X134610000Y-102900000D01*
X121590000Y-99040000D02*
X121590000Y-95180000D01*
X121590000Y-95180000D02*
X121825000Y-95180000D01*
X134610000Y-99040000D02*
X134610000Y-95180000D01*
X134610000Y-102900000D02*
X134375000Y-102900000D01*
X134375000Y-95180000D02*
X134375000Y-93365000D01*
G04 #@! TO.C,INV*
X175910000Y-100190000D02*
X175910000Y-102140000D01*
X167040000Y-100190000D02*
X167040000Y-98240000D01*
X167040000Y-100190000D02*
X167040000Y-102140000D01*
X175910000Y-100190000D02*
X175910000Y-96740000D01*
G04 #@! TO.C,D3*
X151340000Y-89960000D02*
X153460000Y-89960000D01*
X151340000Y-88900000D02*
X151340000Y-87840000D01*
X153460000Y-89900000D02*
X153460000Y-89960000D01*
X151340000Y-89900000D02*
X153460000Y-89900000D01*
X151340000Y-89900000D02*
X151340000Y-89960000D01*
X151340000Y-87840000D02*
X152400000Y-87840000D01*
G04 #@! TO.C,C3*
X140810000Y-97553331D02*
X140810000Y-98975835D01*
X138990000Y-97553331D02*
X138990000Y-98975835D01*
G04 #@! TD*
%LPC*%
D15*
G04 #@! TO.C,GND*
X114300000Y-99060000D03*
G04 #@! TD*
G04 #@! TO.C,RAS*
X187960000Y-96520000D03*
G04 #@! TD*
G04 #@! TO.C,WR*
X187960000Y-91440000D03*
G04 #@! TD*
G04 #@! TO.C,+5V*
X114300000Y-104140000D03*
G04 #@! TD*
G04 #@! TO.C,CAS*
X114300000Y-88900000D03*
G04 #@! TD*
D16*
G04 #@! TO.C,D6*
X121920000Y-88900000D03*
G04 #@! TD*
G04 #@! TO.C,D2*
X162560000Y-88900000D03*
G04 #@! TD*
G04 #@! TO.C,D4*
X142240000Y-88900000D03*
G04 #@! TD*
D17*
G04 #@! TO.C,SRAM*
X142433809Y-92450000D03*
X143703809Y-92450000D03*
X144973809Y-92450000D03*
X146243809Y-92450000D03*
X147513809Y-92450000D03*
X148783809Y-92450000D03*
X150053809Y-92450000D03*
X151323809Y-92450000D03*
X152593809Y-92450000D03*
X153863809Y-92450000D03*
X155133809Y-92450000D03*
X156403809Y-92450000D03*
X157673809Y-92450000D03*
X158943809Y-92450000D03*
X159003809Y-103550000D03*
X157733809Y-103550000D03*
X156463809Y-103550000D03*
X155193809Y-103550000D03*
X153923809Y-103550000D03*
X152653809Y-103550000D03*
X151383809Y-103550000D03*
X150113809Y-103550000D03*
X148843809Y-103550000D03*
X147573809Y-103550000D03*
X146303809Y-103550000D03*
X145033809Y-103550000D03*
X143763809Y-103550000D03*
X142493809Y-103550000D03*
G04 #@! TD*
D18*
G04 #@! TO.C,J1*
X119380000Y-86360000D03*
D19*
X119380000Y-88900000D03*
X119380000Y-91440000D03*
X119380000Y-93980000D03*
X119380000Y-96520000D03*
X119380000Y-99060000D03*
X119380000Y-101600000D03*
X119380000Y-104140000D03*
G04 #@! TD*
D20*
G04 #@! TO.C,C1*
X179000000Y-103475000D03*
X179000000Y-100525000D03*
G04 #@! TD*
G04 #@! TO.C,C2*
X136300000Y-104150000D03*
X136300000Y-101200000D03*
G04 #@! TD*
D18*
G04 #@! TO.C,J8*
X182880000Y-86360000D03*
D19*
X182880000Y-88900000D03*
X182880000Y-91440000D03*
X182880000Y-93980000D03*
X182880000Y-96520000D03*
X182880000Y-99060000D03*
X182880000Y-101600000D03*
X182880000Y-104140000D03*
G04 #@! TD*
D16*
G04 #@! TO.C,D5*
X132080000Y-88900000D03*
G04 #@! TD*
G04 #@! TO.C,D1*
X172720000Y-88900000D03*
G04 #@! TD*
D21*
G04 #@! TO.C,LATCH*
X133815000Y-94390000D03*
X132545000Y-94390000D03*
X131275000Y-94390000D03*
X130005000Y-94390000D03*
X128735000Y-94390000D03*
X127465000Y-94390000D03*
X126195000Y-94390000D03*
X124925000Y-94390000D03*
X123655000Y-94390000D03*
X122385000Y-94390000D03*
X122385000Y-103690000D03*
X123655000Y-103690000D03*
X124925000Y-103690000D03*
X126195000Y-103690000D03*
X127465000Y-103690000D03*
X128735000Y-103690000D03*
X130005000Y-103690000D03*
X131275000Y-103690000D03*
X132545000Y-103690000D03*
X133815000Y-103690000D03*
G04 #@! TD*
D22*
G04 #@! TO.C,INV*
X175285000Y-97715000D03*
X174015000Y-97715000D03*
X172745000Y-97715000D03*
X171475000Y-97715000D03*
X170205000Y-97715000D03*
X168935000Y-97715000D03*
X167665000Y-97715000D03*
X167665000Y-102665000D03*
X168935000Y-102665000D03*
X170205000Y-102665000D03*
X171475000Y-102665000D03*
X172745000Y-102665000D03*
X174015000Y-102665000D03*
X175285000Y-102665000D03*
G04 #@! TD*
D16*
G04 #@! TO.C,D3*
X152400000Y-88900000D03*
G04 #@! TD*
D23*
G04 #@! TO.C,C3*
X139900000Y-96789583D03*
X139900000Y-99739583D03*
G04 #@! TD*
M02*
