M48
; DRILL file {KiCad 6.0.8-f2edbf62ab~116~ubuntu20.04.1} date Thu 06 Oct 2022 15:55:52 BST
; FORMAT={-:-/ absolute / metric / decimal}
; #@! TF.CreationDate,2022-10-06T15:55:52+01:00
; #@! TF.GenerationSoftware,Kicad,Pcbnew,6.0.8-f2edbf62ab~116~ubuntu20.04.1
; #@! TF.FileFunction,Plated,1,4,PTH
FMAT,2
METRIC
; #@! TA.AperFunction,Plated,PTH,ViaDrill
T1C0.400
; #@! TA.AperFunction,Plated,PTH,ComponentDrill
T2C0.800
; #@! TA.AperFunction,Plated,PTH,ComponentDrill
T3C1.000
%
G90
G05
T1
X121.195Y-86.7
X121.4Y-105.1
X122.4Y-101.8
X123.0Y-92.8
X124.0Y-85.9
X124.9Y-92.7
X125.1Y-101.9
X125.345Y-100.249
X126.2Y-101.075
X127.5Y-97.6
X127.5Y-99.524
X127.7Y-100.626
X128.7Y-98.8
X128.7Y-100.175
X129.9Y-99.725
X130.3Y-96.9
X131.3Y-96.175
X131.3Y-99.275
X132.1Y-85.376
X132.5Y-91.975
X132.5Y-98.825
X135.5Y-94.4
X137.0Y-92.7
X137.0Y-95.451
X138.0Y-91.9
X138.0Y-94.727
X138.586Y-104.206
X140.35Y-92.65
X140.5Y-104.2
X141.0Y-94.727
X142.3Y-84.675
X143.7Y-94.0
X143.8Y-105.3
X144.9Y-95.451
X146.2Y-96.175
X146.3Y-101.8
X147.5Y-96.925
X147.6Y-101.5
X148.8Y-97.575
X148.9Y-101.5
X150.1Y-89.1
X150.1Y-90.2
X150.1Y-101.5
X151.4Y-101.5
X152.2Y-98.5
X152.6Y-101.5
X153.9Y-101.5
X154.3Y-90.1
X155.1Y-86.3
X155.2Y-99.5
X156.3Y-85.4
X156.5Y-100.5
X157.7Y-84.7
X157.7Y-101.5
X158.9Y-88.9
X160.5Y-103.6
X162.6Y-101.3
X163.4Y-90.8
X163.4Y-100.5
X164.124Y-92.1
X164.124Y-99.5
X169.8Y-100.2
X174.6Y-99.8
X175.3Y-94.0
X176.7Y-103.5
X179.0Y-95.45
X179.0Y-97.4
X179.0Y-99.0
T2
X121.92Y-88.9
X132.08Y-88.9
X142.24Y-88.9
X152.4Y-88.9
X162.56Y-88.9
X172.72Y-88.9
T3
X114.3Y-88.9
X114.3Y-99.06
X114.3Y-104.14
X119.38Y-86.36
X119.38Y-88.9
X119.38Y-91.44
X119.38Y-93.98
X119.38Y-96.52
X119.38Y-99.06
X119.38Y-101.6
X119.38Y-104.14
X182.88Y-86.36
X182.88Y-88.9
X182.88Y-91.44
X182.88Y-93.98
X182.88Y-96.52
X182.88Y-99.06
X182.88Y-101.6
X182.88Y-104.14
X187.96Y-91.44
X187.96Y-96.52
T0
M30
