G04 #@! TF.GenerationSoftware,KiCad,Pcbnew,6.0.8-f2edbf62ab~116~ubuntu20.04.1*
G04 #@! TF.CreationDate,2022-10-06T15:54:13+01:00*
G04 #@! TF.ProjectId,slrm,736c726d-2e6b-4696-9361-645f70636258,rev?*
G04 #@! TF.SameCoordinates,Original*
G04 #@! TF.FileFunction,Copper,L4,Bot*
G04 #@! TF.FilePolarity,Positive*
%FSLAX46Y46*%
G04 Gerber Fmt 4.6, Leading zero omitted, Abs format (unit mm)*
G04 Created by KiCad (PCBNEW 6.0.8-f2edbf62ab~116~ubuntu20.04.1) date 2022-10-06 15:54:13*
%MOMM*%
%LPD*%
G01*
G04 APERTURE LIST*
G04 #@! TA.AperFunction,ComponentPad*
%ADD10C,2.000000*%
G04 #@! TD*
G04 #@! TA.AperFunction,ComponentPad*
%ADD11R,1.350000X1.350000*%
G04 #@! TD*
G04 #@! TA.AperFunction,ComponentPad*
%ADD12R,1.700000X1.700000*%
G04 #@! TD*
G04 #@! TA.AperFunction,ComponentPad*
%ADD13O,1.700000X1.700000*%
G04 #@! TD*
G04 #@! TA.AperFunction,ViaPad*
%ADD14C,0.800000*%
G04 #@! TD*
G04 #@! TA.AperFunction,Conductor*
%ADD15C,0.250000*%
G04 #@! TD*
G04 APERTURE END LIST*
D10*
G04 #@! TO.P,GND,1*
G04 #@! TO.N,GND*
X114300000Y-99060000D03*
G04 #@! TD*
G04 #@! TO.P,RAS,1*
G04 #@! TO.N,ZX_RAS*
X187960000Y-96520000D03*
G04 #@! TD*
G04 #@! TO.P,WR,1*
G04 #@! TO.N,ZX_WRITE*
X187960000Y-91440000D03*
G04 #@! TD*
G04 #@! TO.P,+5V,1*
G04 #@! TO.N,+5V*
X114300000Y-104140000D03*
G04 #@! TD*
G04 #@! TO.P,CAS,1*
G04 #@! TO.N,ZX_CAS*
X114300000Y-88900000D03*
G04 #@! TD*
D11*
G04 #@! TO.P,D6,1,Pin_1*
G04 #@! TO.N,ZX_D6*
X121920000Y-88900000D03*
G04 #@! TD*
G04 #@! TO.P,D2,1,Pin_1*
G04 #@! TO.N,ZX_D2*
X162560000Y-88900000D03*
G04 #@! TD*
G04 #@! TO.P,D4,1,Pin_1*
G04 #@! TO.N,ZX_D4*
X142240000Y-88900000D03*
G04 #@! TD*
D12*
G04 #@! TO.P,J1,1,Pin_1*
G04 #@! TO.N,GND*
X119380000Y-86360000D03*
D13*
G04 #@! TO.P,J1,2,Pin_2*
G04 #@! TO.N,ZX_CAS*
X119380000Y-88900000D03*
G04 #@! TO.P,J1,3,Pin_3*
G04 #@! TO.N,ZX_D7*
X119380000Y-91440000D03*
G04 #@! TO.P,J1,4,Pin_4*
G04 #@! TO.N,ZX_A6*
X119380000Y-93980000D03*
G04 #@! TO.P,J1,5,Pin_5*
G04 #@! TO.N,ZX_A3*
X119380000Y-96520000D03*
G04 #@! TO.P,J1,6,Pin_6*
G04 #@! TO.N,ZX_A4*
X119380000Y-99060000D03*
G04 #@! TO.P,J1,7,Pin_7*
G04 #@! TO.N,ZX_A5*
X119380000Y-101600000D03*
G04 #@! TO.P,J1,8,Pin_8*
G04 #@! TO.N,+5V*
X119380000Y-104140000D03*
G04 #@! TD*
D12*
G04 #@! TO.P,J8,1,Pin_1*
G04 #@! TO.N,unconnected-(J8-Pad1)*
X182880000Y-86360000D03*
D13*
G04 #@! TO.P,J8,2,Pin_2*
G04 #@! TO.N,ZX_D0*
X182880000Y-88900000D03*
G04 #@! TO.P,J8,3,Pin_3*
G04 #@! TO.N,ZX_WRITE*
X182880000Y-91440000D03*
G04 #@! TO.P,J8,4,Pin_4*
G04 #@! TO.N,ZX_RAS*
X182880000Y-93980000D03*
G04 #@! TO.P,J8,5,Pin_5*
G04 #@! TO.N,ZX_A0*
X182880000Y-96520000D03*
G04 #@! TO.P,J8,6,Pin_6*
G04 #@! TO.N,ZX_A2*
X182880000Y-99060000D03*
G04 #@! TO.P,J8,7,Pin_7*
G04 #@! TO.N,ZX_A1*
X182880000Y-101600000D03*
G04 #@! TO.P,J8,8,Pin_8*
G04 #@! TO.N,unconnected-(J8-Pad8)*
X182880000Y-104140000D03*
G04 #@! TD*
D11*
G04 #@! TO.P,D5,1,Pin_1*
G04 #@! TO.N,ZX_D5*
X132080000Y-88900000D03*
G04 #@! TD*
G04 #@! TO.P,D1,1,Pin_1*
G04 #@! TO.N,ZX_D1*
X172720000Y-88900000D03*
G04 #@! TD*
G04 #@! TO.P,D3,1,Pin_1*
G04 #@! TO.N,ZX_D3*
X152400000Y-88900000D03*
G04 #@! TD*
D14*
G04 #@! TO.N,+5V*
X138585685Y-104205946D03*
X176700000Y-103500000D03*
X140350000Y-92650000D03*
G04 #@! TO.N,GND*
X135500000Y-94400000D03*
X179000000Y-99000000D03*
X150100000Y-90200000D03*
X140500000Y-104200000D03*
X123000000Y-92800000D03*
X169800000Y-100200000D03*
X160500000Y-103600000D03*
G04 #@! TO.N,ZX_CAS*
X150100000Y-89100000D03*
X121195500Y-86700000D03*
G04 #@! TO.N,ZX_D7*
X154300000Y-90100000D03*
G04 #@! TO.N,ZX_A6*
X137000000Y-95451000D03*
X144900000Y-95451000D03*
X137000000Y-92700000D03*
X124900000Y-92700000D03*
G04 #@! TO.N,ZX_A3*
X128700000Y-98800000D03*
X152200000Y-98500000D03*
G04 #@! TO.N,ZX_A4*
X127500000Y-97600000D03*
X148800000Y-97575500D03*
X127500000Y-99524500D03*
G04 #@! TO.N,ZX_A5*
X121400000Y-105100000D03*
X125345059Y-100249000D03*
X143800000Y-105300000D03*
G04 #@! TO.N,ZX_D6*
X155100000Y-86300000D03*
X124000000Y-85900000D03*
G04 #@! TO.N,ZX_D5*
X156300000Y-85400000D03*
X132100000Y-85375500D03*
G04 #@! TO.N,ZX_D4*
X157700000Y-84700000D03*
X142300000Y-84675500D03*
G04 #@! TO.N,ZX_D3*
X158900000Y-88900000D03*
G04 #@! TO.N,ZX_D2*
X162600000Y-101300000D03*
X157700000Y-101500000D03*
G04 #@! TO.N,ZX_D1*
X163400000Y-90800000D03*
X156500000Y-100500000D03*
X163400000Y-100500000D03*
G04 #@! TO.N,ZX_D0*
X155200000Y-99500000D03*
X164124500Y-99500000D03*
X164124500Y-92100000D03*
G04 #@! TO.N,ZX_WRITE*
X143700000Y-94000000D03*
G04 #@! TO.N,ZX_RAS*
X175300000Y-94000000D03*
G04 #@! TO.N,ZX_A0*
X138000000Y-91900000D03*
X138000000Y-94726500D03*
X132500000Y-91975500D03*
X141000000Y-94726500D03*
G04 #@! TO.N,ZX_A2*
X130300000Y-96900000D03*
X147500000Y-96925500D03*
G04 #@! TO.N,ZX_A1*
X131300000Y-96175500D03*
X146200000Y-96175500D03*
X179000000Y-97400000D03*
X179000000Y-95450500D03*
G04 #@! TO.N,RAS_INV*
X174600000Y-99800000D03*
X122400000Y-101800000D03*
G04 #@! TO.N,RAS_A6*
X146300000Y-101800000D03*
X125100000Y-101900000D03*
G04 #@! TO.N,RAS_A5*
X126200000Y-101075500D03*
X147600000Y-101500000D03*
G04 #@! TO.N,RAS_A4*
X148900000Y-101500000D03*
X127700000Y-100625500D03*
G04 #@! TO.N,RAS_A3*
X150100000Y-101500000D03*
X128700000Y-100175500D03*
G04 #@! TO.N,RAS_A2*
X129900000Y-99725500D03*
X151400000Y-101500000D03*
G04 #@! TO.N,RAS_A1*
X152600000Y-101500000D03*
X131300000Y-99275500D03*
G04 #@! TO.N,RAS_A0*
X153900000Y-101500000D03*
X132500000Y-98825500D03*
G04 #@! TD*
D15*
G04 #@! TO.N,ZX_D7*
X119380000Y-91440000D02*
X119960000Y-91440000D01*
X119960000Y-91440000D02*
X120400000Y-91000000D01*
G04 #@! TO.N,RAS_INV*
X162400000Y-102800000D02*
X165725000Y-99475000D01*
X123400000Y-102800000D02*
X162400000Y-102800000D01*
G04 #@! TO.N,ZX_CAS*
X147700000Y-86700000D02*
X150100000Y-89100000D01*
X121195500Y-86700000D02*
X147700000Y-86700000D01*
G04 #@! TO.N,ZX_D7*
X154300000Y-90100000D02*
X153400000Y-91000000D01*
X153400000Y-91000000D02*
X120400000Y-91000000D01*
G04 #@! TO.N,ZX_A6*
X137000000Y-92700000D02*
X124900000Y-92700000D01*
X124900000Y-92700000D02*
X124275000Y-92075000D01*
X144900000Y-95451000D02*
X137000000Y-95451000D01*
X121285000Y-92075000D02*
X119380000Y-93980000D01*
X124275000Y-92075000D02*
X121285000Y-92075000D01*
G04 #@! TO.N,ZX_A3*
X132199695Y-98100500D02*
X132800305Y-98100500D01*
X132800305Y-98100500D02*
X132999805Y-98300000D01*
X128700000Y-98800000D02*
X129000000Y-98500000D01*
X151536396Y-98500000D02*
X152200000Y-98500000D01*
X132999805Y-98300000D02*
X151336396Y-98300000D01*
X128700000Y-98800000D02*
X121660000Y-98800000D01*
X129000000Y-98500000D02*
X131800195Y-98500000D01*
X121660000Y-98800000D02*
X119380000Y-96520000D01*
X151336396Y-98300000D02*
X151536396Y-98500000D01*
X131800195Y-98500000D02*
X132199695Y-98100500D01*
G04 #@! TO.N,ZX_A4*
X119844500Y-99524500D02*
X119380000Y-99060000D01*
X148725500Y-97650000D02*
X148800000Y-97575500D01*
X127500000Y-99524500D02*
X119844500Y-99524500D01*
X127500000Y-97600000D02*
X127550000Y-97650000D01*
X127550000Y-97650000D02*
X148725500Y-97650000D01*
G04 #@! TO.N,ZX_A5*
X120731000Y-100249000D02*
X119380000Y-101600000D01*
X121600000Y-105300000D02*
X121400000Y-105100000D01*
X125345059Y-100249000D02*
X120731000Y-100249000D01*
X143800000Y-105300000D02*
X121600000Y-105300000D01*
G04 #@! TO.N,ZX_D6*
X124200000Y-86100000D02*
X154900000Y-86100000D01*
X124000000Y-85900000D02*
X124200000Y-86100000D01*
X154900000Y-86100000D02*
X155100000Y-86300000D01*
G04 #@! TO.N,ZX_D5*
X132100000Y-85375500D02*
X132124500Y-85400000D01*
X132124500Y-85400000D02*
X156300000Y-85400000D01*
G04 #@! TO.N,ZX_D4*
X142300500Y-84675000D02*
X142300000Y-84675500D01*
X157700000Y-84700000D02*
X157675000Y-84675000D01*
X157675000Y-84675000D02*
X142300500Y-84675000D01*
G04 #@! TO.N,ZX_D3*
X158900000Y-88900000D02*
X152400000Y-88900000D01*
G04 #@! TO.N,ZX_D2*
X162400000Y-101500000D02*
X162600000Y-101300000D01*
X157700000Y-101500000D02*
X162400000Y-101500000D01*
G04 #@! TO.N,ZX_D1*
X172720000Y-88900000D02*
X172720000Y-90680000D01*
X156500000Y-100500000D02*
X163400000Y-100500000D01*
X172600000Y-90800000D02*
X163400000Y-90800000D01*
X172720000Y-90680000D02*
X172600000Y-90800000D01*
G04 #@! TO.N,ZX_D0*
X155200000Y-99500000D02*
X164124500Y-99500000D01*
X164124500Y-92100000D02*
X179680000Y-92100000D01*
X182880000Y-88900000D02*
X179680000Y-92100000D01*
G04 #@! TO.N,ZX_WRITE*
X182880000Y-91440000D02*
X181495000Y-92825000D01*
X144875000Y-92825000D02*
X143700000Y-94000000D01*
X181495000Y-92825000D02*
X144875000Y-92825000D01*
G04 #@! TO.N,ZX_RAS*
X175320000Y-93980000D02*
X175300000Y-94000000D01*
X182880000Y-93980000D02*
X175320000Y-93980000D01*
G04 #@! TO.N,ZX_A0*
X132575500Y-91900000D02*
X132500000Y-91975500D01*
X182880000Y-96520000D02*
X181086000Y-94726000D01*
X141000500Y-94726000D02*
X141000000Y-94726500D01*
X138000000Y-91900000D02*
X132575500Y-91900000D01*
X181086000Y-94726000D02*
X141000500Y-94726000D01*
X141000000Y-94726500D02*
X138000000Y-94726500D01*
G04 #@! TO.N,ZX_A2*
X148225500Y-96200000D02*
X147500000Y-96925500D01*
X180020000Y-96200000D02*
X148225500Y-96200000D01*
X147474500Y-96900000D02*
X130300000Y-96900000D01*
X147500000Y-96925500D02*
X147474500Y-96900000D01*
X182880000Y-99060000D02*
X180020000Y-96200000D01*
G04 #@! TO.N,ZX_A1*
X146925000Y-95450500D02*
X146200000Y-96175500D01*
X146200000Y-96175500D02*
X131300000Y-96175500D01*
X179000000Y-95450500D02*
X146925000Y-95450500D01*
X182880000Y-101600000D02*
X179000000Y-97720000D01*
X179000000Y-97720000D02*
X179000000Y-97400000D01*
G04 #@! TO.N,RAS_INV*
X174600000Y-99800000D02*
X174275000Y-99475000D01*
X174275000Y-99475000D02*
X165725000Y-99475000D01*
X123400000Y-102800000D02*
X122400000Y-101800000D01*
G04 #@! TO.N,RAS_A6*
X125100000Y-101900000D02*
X125200000Y-101800000D01*
X125200000Y-101800000D02*
X146300000Y-101800000D01*
G04 #@! TO.N,RAS_A5*
X145999695Y-101075000D02*
X145724695Y-101350000D01*
X145724695Y-101350000D02*
X126474500Y-101350000D01*
X147025000Y-101500000D02*
X147025000Y-101499695D01*
X146600305Y-101075000D02*
X145999695Y-101075000D01*
X126474500Y-101350000D02*
X126200000Y-101075500D01*
X147025000Y-101499695D02*
X146600305Y-101075000D01*
X147600000Y-101500000D02*
X147025000Y-101500000D01*
G04 #@! TO.N,RAS_A4*
X127974500Y-100900000D02*
X127700000Y-100625500D01*
X145813299Y-100625000D02*
X145538299Y-100900000D01*
X145538299Y-100900000D02*
X127974500Y-100900000D01*
X148900000Y-101500000D02*
X148025000Y-100625000D01*
X148025000Y-100625000D02*
X145813299Y-100625000D01*
G04 #@! TO.N,RAS_A3*
X145351903Y-100450000D02*
X128974500Y-100450000D01*
X145701903Y-100100000D02*
X145351903Y-100450000D01*
X148700000Y-100100000D02*
X145701903Y-100100000D01*
X150100000Y-101500000D02*
X148700000Y-100100000D01*
X128974500Y-100450000D02*
X128700000Y-100175500D01*
G04 #@! TO.N,RAS_A2*
X129900000Y-99725500D02*
X130174500Y-100000000D01*
X130174500Y-100000000D02*
X145165507Y-100000000D01*
X149450000Y-99650000D02*
X151300000Y-101500000D01*
X151300000Y-101500000D02*
X151400000Y-101500000D01*
X145515507Y-99650000D02*
X149450000Y-99650000D01*
X145165507Y-100000000D02*
X145515507Y-99650000D01*
G04 #@! TO.N,RAS_A1*
X144979111Y-99550000D02*
X145329111Y-99200000D01*
X131574500Y-99550000D02*
X144979111Y-99550000D01*
X131300000Y-99275500D02*
X131574500Y-99550000D01*
X150300000Y-99200000D02*
X152600000Y-101500000D01*
X145329111Y-99200000D02*
X150300000Y-99200000D01*
G04 #@! TO.N,RAS_A0*
X151150000Y-98750000D02*
X153900000Y-101500000D01*
X132575500Y-98750000D02*
X151150000Y-98750000D01*
X132500000Y-98825500D02*
X132575500Y-98750000D01*
G04 #@! TD*
M02*
