G04 #@! TF.GenerationSoftware,KiCad,Pcbnew,6.0.8-f2edbf62ab~116~ubuntu20.04.1*
G04 #@! TF.CreationDate,2022-10-06T15:54:12+01:00*
G04 #@! TF.ProjectId,slrm,736c726d-2e6b-4696-9361-645f70636258,rev?*
G04 #@! TF.SameCoordinates,Original*
G04 #@! TF.FileFunction,Copper,L2,Inr*
G04 #@! TF.FilePolarity,Positive*
%FSLAX46Y46*%
G04 Gerber Fmt 4.6, Leading zero omitted, Abs format (unit mm)*
G04 Created by KiCad (PCBNEW 6.0.8-f2edbf62ab~116~ubuntu20.04.1) date 2022-10-06 15:54:12*
%MOMM*%
%LPD*%
G01*
G04 APERTURE LIST*
G04 #@! TA.AperFunction,ComponentPad*
%ADD10C,2.000000*%
G04 #@! TD*
G04 #@! TA.AperFunction,ComponentPad*
%ADD11R,1.350000X1.350000*%
G04 #@! TD*
G04 #@! TA.AperFunction,ComponentPad*
%ADD12R,1.700000X1.700000*%
G04 #@! TD*
G04 #@! TA.AperFunction,ComponentPad*
%ADD13O,1.700000X1.700000*%
G04 #@! TD*
G04 #@! TA.AperFunction,ViaPad*
%ADD14C,0.800000*%
G04 #@! TD*
G04 APERTURE END LIST*
D10*
G04 #@! TO.N,GND*
G04 #@! TO.C,GND*
X114300000Y-99060000D03*
G04 #@! TD*
G04 #@! TO.N,ZX_RAS*
G04 #@! TO.C,RAS*
X187960000Y-96520000D03*
G04 #@! TD*
G04 #@! TO.N,ZX_WRITE*
G04 #@! TO.C,WR*
X187960000Y-91440000D03*
G04 #@! TD*
G04 #@! TO.N,+5V*
G04 #@! TO.C,+5V*
X114300000Y-104140000D03*
G04 #@! TD*
G04 #@! TO.N,ZX_CAS*
G04 #@! TO.C,CAS*
X114300000Y-88900000D03*
G04 #@! TD*
D11*
G04 #@! TO.N,ZX_D6*
G04 #@! TO.C,D6*
X121920000Y-88900000D03*
G04 #@! TD*
G04 #@! TO.N,ZX_D2*
G04 #@! TO.C,D2*
X162560000Y-88900000D03*
G04 #@! TD*
G04 #@! TO.N,ZX_D4*
G04 #@! TO.C,D4*
X142240000Y-88900000D03*
G04 #@! TD*
D12*
G04 #@! TO.N,GND*
G04 #@! TO.C,J1*
X119380000Y-86360000D03*
D13*
G04 #@! TO.N,ZX_CAS*
X119380000Y-88900000D03*
G04 #@! TO.N,ZX_D7*
X119380000Y-91440000D03*
G04 #@! TO.N,ZX_A6*
X119380000Y-93980000D03*
G04 #@! TO.N,ZX_A3*
X119380000Y-96520000D03*
G04 #@! TO.N,ZX_A4*
X119380000Y-99060000D03*
G04 #@! TO.N,ZX_A5*
X119380000Y-101600000D03*
G04 #@! TO.N,+5V*
X119380000Y-104140000D03*
G04 #@! TD*
D12*
G04 #@! TO.N,unconnected-(J8-Pad1)*
G04 #@! TO.C,J8*
X182880000Y-86360000D03*
D13*
G04 #@! TO.N,ZX_D0*
X182880000Y-88900000D03*
G04 #@! TO.N,ZX_WRITE*
X182880000Y-91440000D03*
G04 #@! TO.N,ZX_RAS*
X182880000Y-93980000D03*
G04 #@! TO.N,ZX_A0*
X182880000Y-96520000D03*
G04 #@! TO.N,ZX_A2*
X182880000Y-99060000D03*
G04 #@! TO.N,ZX_A1*
X182880000Y-101600000D03*
G04 #@! TO.N,unconnected-(J8-Pad8)*
X182880000Y-104140000D03*
G04 #@! TD*
D11*
G04 #@! TO.N,ZX_D5*
G04 #@! TO.C,D5*
X132080000Y-88900000D03*
G04 #@! TD*
G04 #@! TO.N,ZX_D1*
G04 #@! TO.C,D1*
X172720000Y-88900000D03*
G04 #@! TD*
G04 #@! TO.N,ZX_D3*
G04 #@! TO.C,D3*
X152400000Y-88900000D03*
G04 #@! TD*
D14*
G04 #@! TO.N,+5V*
X138585685Y-104205946D03*
X176700000Y-103500000D03*
X140350000Y-92650000D03*
G04 #@! TO.N,GND*
X135500000Y-94400000D03*
X179000000Y-99000000D03*
X150100000Y-90200000D03*
X140500000Y-104200000D03*
X123000000Y-92800000D03*
X169800000Y-100200000D03*
X160500000Y-103600000D03*
G04 #@! TO.N,ZX_CAS*
X150100000Y-89100000D03*
X121195500Y-86700000D03*
G04 #@! TO.N,ZX_D7*
X154300000Y-90100000D03*
G04 #@! TO.N,ZX_A6*
X137000000Y-95451000D03*
X144900000Y-95451000D03*
X137000000Y-92700000D03*
X124900000Y-92700000D03*
G04 #@! TO.N,ZX_A3*
X128700000Y-98800000D03*
X152200000Y-98500000D03*
G04 #@! TO.N,ZX_A4*
X127500000Y-97600000D03*
X148800000Y-97575500D03*
X127500000Y-99524500D03*
G04 #@! TO.N,ZX_A5*
X121400000Y-105100000D03*
X125345059Y-100249000D03*
X143800000Y-105300000D03*
G04 #@! TO.N,ZX_D6*
X155100000Y-86300000D03*
X124000000Y-85900000D03*
G04 #@! TO.N,ZX_D5*
X156300000Y-85400000D03*
X132100000Y-85375500D03*
G04 #@! TO.N,ZX_D4*
X157700000Y-84700000D03*
X142300000Y-84675500D03*
G04 #@! TO.N,ZX_D3*
X158900000Y-88900000D03*
G04 #@! TO.N,ZX_D2*
X162600000Y-101300000D03*
X157700000Y-101500000D03*
G04 #@! TO.N,ZX_D1*
X163400000Y-90800000D03*
X156500000Y-100500000D03*
X163400000Y-100500000D03*
G04 #@! TO.N,ZX_D0*
X155200000Y-99500000D03*
X164124500Y-99500000D03*
X164124500Y-92100000D03*
G04 #@! TO.N,ZX_WRITE*
X143700000Y-94000000D03*
G04 #@! TO.N,ZX_RAS*
X175300000Y-94000000D03*
G04 #@! TO.N,ZX_A0*
X138000000Y-91900000D03*
X138000000Y-94726500D03*
X132500000Y-91975500D03*
X141000000Y-94726500D03*
G04 #@! TO.N,ZX_A2*
X130300000Y-96900000D03*
X147500000Y-96925500D03*
G04 #@! TO.N,ZX_A1*
X131300000Y-96175500D03*
X146200000Y-96175500D03*
X179000000Y-97400000D03*
X179000000Y-95450500D03*
G04 #@! TO.N,RAS_INV*
X174600000Y-99800000D03*
X122400000Y-101800000D03*
G04 #@! TO.N,RAS_A6*
X146300000Y-101800000D03*
X125100000Y-101900000D03*
G04 #@! TO.N,RAS_A5*
X126200000Y-101075500D03*
X147600000Y-101500000D03*
G04 #@! TO.N,RAS_A4*
X148900000Y-101500000D03*
X127700000Y-100625500D03*
G04 #@! TO.N,RAS_A3*
X150100000Y-101500000D03*
X128700000Y-100175500D03*
G04 #@! TO.N,RAS_A2*
X129900000Y-99725500D03*
X151400000Y-101500000D03*
G04 #@! TO.N,RAS_A1*
X152600000Y-101500000D03*
X131300000Y-99275500D03*
G04 #@! TO.N,RAS_A0*
X153900000Y-101500000D03*
X132500000Y-98825500D03*
G04 #@! TD*
G04 #@! TA.AperFunction,Conductor*
G04 #@! TO.N,+5V*
G36*
X141979515Y-83951956D02*
G01*
X142026008Y-84005612D01*
X142036112Y-84075886D01*
X142006618Y-84140466D01*
X141988100Y-84157916D01*
X141871718Y-84247218D01*
X141775464Y-84372659D01*
X141714956Y-84518738D01*
X141694318Y-84675500D01*
X141714956Y-84832262D01*
X141775464Y-84978341D01*
X141871718Y-85103782D01*
X141997159Y-85200036D01*
X142143238Y-85260544D01*
X142300000Y-85281182D01*
X142308188Y-85280104D01*
X142448574Y-85261622D01*
X142456762Y-85260544D01*
X142602841Y-85200036D01*
X142728282Y-85103782D01*
X142824536Y-84978341D01*
X142885044Y-84832262D01*
X142905682Y-84675500D01*
X142885044Y-84518738D01*
X142824536Y-84372659D01*
X142728282Y-84247218D01*
X142611902Y-84157916D01*
X142570035Y-84100579D01*
X142565813Y-84029708D01*
X142600577Y-83967805D01*
X142663289Y-83934524D01*
X142688606Y-83931954D01*
X157351599Y-83931954D01*
X157419720Y-83951956D01*
X157466213Y-84005612D01*
X157476317Y-84075886D01*
X157446823Y-84140466D01*
X157410899Y-84166372D01*
X157411940Y-84168175D01*
X157404789Y-84172303D01*
X157397159Y-84175464D01*
X157271718Y-84271718D01*
X157175464Y-84397159D01*
X157114956Y-84543238D01*
X157094318Y-84700000D01*
X157114956Y-84856762D01*
X157175464Y-85002841D01*
X157271718Y-85128282D01*
X157397159Y-85224536D01*
X157543238Y-85285044D01*
X157700000Y-85305682D01*
X157708188Y-85304604D01*
X157848574Y-85286122D01*
X157856762Y-85285044D01*
X158002841Y-85224536D01*
X158128282Y-85128282D01*
X158224536Y-85002841D01*
X158285044Y-84856762D01*
X158305682Y-84700000D01*
X158285044Y-84543238D01*
X158224536Y-84397159D01*
X158128282Y-84271718D01*
X158002841Y-84175464D01*
X157995211Y-84172303D01*
X157988060Y-84168175D01*
X157989471Y-84165731D01*
X157944902Y-84129814D01*
X157922481Y-84062450D01*
X157940040Y-83993659D01*
X157992002Y-83945281D01*
X158048401Y-83931954D01*
X190651515Y-83931954D01*
X190719636Y-83951956D01*
X190766129Y-84005612D01*
X190777515Y-84057954D01*
X190777515Y-106271596D01*
X190757513Y-106339717D01*
X190703857Y-106386210D01*
X190651515Y-106397596D01*
X108872194Y-106397596D01*
X108804073Y-106377594D01*
X108757580Y-106323938D01*
X108746194Y-106271596D01*
X108746194Y-105372670D01*
X113432160Y-105372670D01*
X113437887Y-105380320D01*
X113609042Y-105485205D01*
X113617837Y-105489687D01*
X113827988Y-105576734D01*
X113837373Y-105579783D01*
X114058554Y-105632885D01*
X114068301Y-105634428D01*
X114295070Y-105652275D01*
X114304930Y-105652275D01*
X114531699Y-105634428D01*
X114541446Y-105632885D01*
X114762627Y-105579783D01*
X114772012Y-105576734D01*
X114982163Y-105489687D01*
X114990958Y-105485205D01*
X115158445Y-105382568D01*
X115167907Y-105372110D01*
X115164124Y-105363334D01*
X114312812Y-104512022D01*
X114298868Y-104504408D01*
X114297035Y-104504539D01*
X114290420Y-104508790D01*
X113438920Y-105360290D01*
X113432160Y-105372670D01*
X108746194Y-105372670D01*
X108746194Y-104144930D01*
X112787725Y-104144930D01*
X112805572Y-104371699D01*
X112807115Y-104381446D01*
X112860217Y-104602627D01*
X112863266Y-104612012D01*
X112950313Y-104822163D01*
X112954795Y-104830958D01*
X113057432Y-104998445D01*
X113067890Y-105007907D01*
X113076666Y-105004124D01*
X113927978Y-104152812D01*
X113934356Y-104141132D01*
X114664408Y-104141132D01*
X114664539Y-104142965D01*
X114668790Y-104149580D01*
X115520290Y-105001080D01*
X115532670Y-105007840D01*
X115540320Y-105002113D01*
X115645205Y-104830958D01*
X115649687Y-104822163D01*
X115736734Y-104612012D01*
X115739783Y-104602627D01*
X115786518Y-104407966D01*
X118048257Y-104407966D01*
X118078565Y-104542446D01*
X118081645Y-104552275D01*
X118161770Y-104749603D01*
X118166413Y-104758794D01*
X118277694Y-104940388D01*
X118283777Y-104948699D01*
X118423213Y-105109667D01*
X118430580Y-105116883D01*
X118594434Y-105252916D01*
X118602881Y-105258831D01*
X118786756Y-105366279D01*
X118796042Y-105370729D01*
X118995001Y-105446703D01*
X119004899Y-105449579D01*
X119108250Y-105470606D01*
X119122299Y-105469410D01*
X119126000Y-105459065D01*
X119126000Y-105458517D01*
X119634000Y-105458517D01*
X119638064Y-105472359D01*
X119651478Y-105474393D01*
X119658184Y-105473534D01*
X119668262Y-105471392D01*
X119872255Y-105410191D01*
X119881842Y-105406433D01*
X120073095Y-105312739D01*
X120081945Y-105307464D01*
X120255328Y-105183792D01*
X120263200Y-105177139D01*
X120340608Y-105100000D01*
X120794318Y-105100000D01*
X120814956Y-105256762D01*
X120875464Y-105402841D01*
X120971718Y-105528282D01*
X121097159Y-105624536D01*
X121243238Y-105685044D01*
X121400000Y-105705682D01*
X121408188Y-105704604D01*
X121548574Y-105686122D01*
X121556762Y-105685044D01*
X121702841Y-105624536D01*
X121828282Y-105528282D01*
X121924536Y-105402841D01*
X121967134Y-105300000D01*
X143194318Y-105300000D01*
X143214956Y-105456762D01*
X143275464Y-105602841D01*
X143371718Y-105728282D01*
X143497159Y-105824536D01*
X143643238Y-105885044D01*
X143800000Y-105905682D01*
X143808188Y-105904604D01*
X143948574Y-105886122D01*
X143956762Y-105885044D01*
X144102841Y-105824536D01*
X144228282Y-105728282D01*
X144324536Y-105602841D01*
X144385044Y-105456762D01*
X144405682Y-105300000D01*
X144389507Y-105177139D01*
X144386122Y-105151426D01*
X144385044Y-105143238D01*
X144324536Y-104997159D01*
X144228282Y-104871718D01*
X144102841Y-104775464D01*
X143956762Y-104714956D01*
X143932927Y-104711818D01*
X143808188Y-104695396D01*
X143800000Y-104694318D01*
X143791812Y-104695396D01*
X143667074Y-104711818D01*
X143643238Y-104714956D01*
X143497159Y-104775464D01*
X143371718Y-104871718D01*
X143275464Y-104997159D01*
X143214956Y-105143238D01*
X143213878Y-105151426D01*
X143210493Y-105177139D01*
X143194318Y-105300000D01*
X121967134Y-105300000D01*
X121985044Y-105256762D01*
X122005682Y-105100000D01*
X121985044Y-104943238D01*
X121924536Y-104797159D01*
X121828282Y-104671718D01*
X121702841Y-104575464D01*
X121556762Y-104514956D01*
X121400000Y-104494318D01*
X121243238Y-104514956D01*
X121097159Y-104575464D01*
X120971718Y-104671718D01*
X120875464Y-104797159D01*
X120814956Y-104943238D01*
X120794318Y-105100000D01*
X120340608Y-105100000D01*
X120414052Y-105026812D01*
X120420730Y-105018965D01*
X120545003Y-104846020D01*
X120550313Y-104837183D01*
X120644670Y-104646267D01*
X120648469Y-104636672D01*
X120710377Y-104432910D01*
X120712555Y-104422837D01*
X120713986Y-104411962D01*
X120711775Y-104397778D01*
X120698617Y-104394000D01*
X119652115Y-104394000D01*
X119636876Y-104398475D01*
X119635671Y-104399865D01*
X119634000Y-104407548D01*
X119634000Y-105458517D01*
X119126000Y-105458517D01*
X119126000Y-104412115D01*
X119121525Y-104396876D01*
X119120135Y-104395671D01*
X119112452Y-104394000D01*
X118063225Y-104394000D01*
X118049694Y-104397973D01*
X118048257Y-104407966D01*
X115786518Y-104407966D01*
X115792885Y-104381446D01*
X115794428Y-104371699D01*
X115807941Y-104200000D01*
X139894318Y-104200000D01*
X139914956Y-104356762D01*
X139975464Y-104502841D01*
X140071718Y-104628282D01*
X140197159Y-104724536D01*
X140343238Y-104785044D01*
X140500000Y-104805682D01*
X140508188Y-104804604D01*
X140648574Y-104786122D01*
X140656762Y-104785044D01*
X140802841Y-104724536D01*
X140928282Y-104628282D01*
X141024536Y-104502841D01*
X141085044Y-104356762D01*
X141105682Y-104200000D01*
X141085044Y-104043238D01*
X141024536Y-103897159D01*
X140928282Y-103771718D01*
X140802841Y-103675464D01*
X140656762Y-103614956D01*
X140543159Y-103600000D01*
X159894318Y-103600000D01*
X159914956Y-103756762D01*
X159975464Y-103902841D01*
X160071718Y-104028282D01*
X160197159Y-104124536D01*
X160343238Y-104185044D01*
X160500000Y-104205682D01*
X160508188Y-104204604D01*
X160648574Y-104186122D01*
X160656762Y-104185044D01*
X160801088Y-104125262D01*
X181824520Y-104125262D01*
X181841759Y-104330553D01*
X181843458Y-104336478D01*
X181895542Y-104518116D01*
X181898544Y-104528586D01*
X181901359Y-104534063D01*
X181901360Y-104534066D01*
X181983718Y-104694318D01*
X181992712Y-104711818D01*
X182120677Y-104873270D01*
X182125370Y-104877264D01*
X182125371Y-104877265D01*
X182270854Y-105001080D01*
X182277564Y-105006791D01*
X182282942Y-105009797D01*
X182282944Y-105009798D01*
X182313387Y-105026812D01*
X182457398Y-105107297D01*
X182544533Y-105135609D01*
X182647471Y-105169056D01*
X182647475Y-105169057D01*
X182653329Y-105170959D01*
X182857894Y-105195351D01*
X182864029Y-105194879D01*
X182864031Y-105194879D01*
X182920039Y-105190569D01*
X183063300Y-105179546D01*
X183069230Y-105177890D01*
X183069232Y-105177890D01*
X183255797Y-105125800D01*
X183255796Y-105125800D01*
X183261725Y-105124145D01*
X183267214Y-105121372D01*
X183267220Y-105121370D01*
X183440116Y-105034033D01*
X183445610Y-105031258D01*
X183461345Y-105018965D01*
X183603101Y-104908213D01*
X183607951Y-104904424D01*
X183665992Y-104837183D01*
X183738540Y-104753134D01*
X183738540Y-104753133D01*
X183742564Y-104748472D01*
X183754367Y-104727696D01*
X183789020Y-104666695D01*
X183844323Y-104569344D01*
X183909351Y-104373863D01*
X183935171Y-104169474D01*
X183935583Y-104140000D01*
X183915480Y-103934970D01*
X183855935Y-103737749D01*
X183759218Y-103555849D01*
X183679281Y-103457837D01*
X183632906Y-103400975D01*
X183632903Y-103400972D01*
X183629011Y-103396200D01*
X183611786Y-103381950D01*
X183475025Y-103268811D01*
X183475021Y-103268809D01*
X183470275Y-103264882D01*
X183289055Y-103166897D01*
X183092254Y-103105977D01*
X183086129Y-103105333D01*
X183086128Y-103105333D01*
X182893498Y-103085087D01*
X182893496Y-103085087D01*
X182887369Y-103084443D01*
X182800529Y-103092346D01*
X182688342Y-103102555D01*
X182688339Y-103102556D01*
X182682203Y-103103114D01*
X182484572Y-103161280D01*
X182302002Y-103256726D01*
X182297201Y-103260586D01*
X182297198Y-103260588D01*
X182264688Y-103286727D01*
X182141447Y-103385815D01*
X182009024Y-103543630D01*
X182006056Y-103549028D01*
X182006053Y-103549033D01*
X181981158Y-103594318D01*
X181909776Y-103724162D01*
X181847484Y-103920532D01*
X181846798Y-103926649D01*
X181846797Y-103926653D01*
X181834576Y-104035609D01*
X181824520Y-104125262D01*
X160801088Y-104125262D01*
X160802841Y-104124536D01*
X160928282Y-104028282D01*
X161024536Y-103902841D01*
X161085044Y-103756762D01*
X161105682Y-103600000D01*
X161088781Y-103471623D01*
X161086122Y-103451426D01*
X161085044Y-103443238D01*
X161024536Y-103297159D01*
X160928282Y-103171718D01*
X160802841Y-103075464D01*
X160656762Y-103014956D01*
X160500000Y-102994318D01*
X160343238Y-103014956D01*
X160197159Y-103075464D01*
X160071718Y-103171718D01*
X159975464Y-103297159D01*
X159914956Y-103443238D01*
X159913878Y-103451426D01*
X159911219Y-103471623D01*
X159894318Y-103600000D01*
X140543159Y-103600000D01*
X140500000Y-103594318D01*
X140343238Y-103614956D01*
X140197159Y-103675464D01*
X140071718Y-103771718D01*
X139975464Y-103897159D01*
X139914956Y-104043238D01*
X139894318Y-104200000D01*
X115807941Y-104200000D01*
X115812275Y-104144930D01*
X115812275Y-104135070D01*
X115794428Y-103908301D01*
X115792884Y-103898552D01*
X115787033Y-103874183D01*
X118044389Y-103874183D01*
X118045912Y-103882607D01*
X118058292Y-103886000D01*
X120698344Y-103886000D01*
X120711875Y-103882027D01*
X120713180Y-103872947D01*
X120671214Y-103705875D01*
X120667894Y-103696124D01*
X120582972Y-103500814D01*
X120578105Y-103491739D01*
X120462426Y-103312926D01*
X120456136Y-103304757D01*
X120312806Y-103147240D01*
X120305273Y-103140215D01*
X120138139Y-103008222D01*
X120129552Y-103002517D01*
X119943117Y-102899599D01*
X119933705Y-102895369D01*
X119742031Y-102827493D01*
X119684495Y-102785899D01*
X119658579Y-102719801D01*
X119672513Y-102650185D01*
X119721872Y-102599154D01*
X119750206Y-102587362D01*
X119755790Y-102585803D01*
X119755799Y-102585800D01*
X119761725Y-102584145D01*
X119767214Y-102581372D01*
X119767220Y-102581370D01*
X119940116Y-102494033D01*
X119945610Y-102491258D01*
X120107951Y-102364424D01*
X120139654Y-102327696D01*
X120238540Y-102213134D01*
X120238540Y-102213133D01*
X120242564Y-102208472D01*
X120250098Y-102195211D01*
X120306905Y-102095211D01*
X120344323Y-102029344D01*
X120409351Y-101833863D01*
X120413629Y-101800000D01*
X121794318Y-101800000D01*
X121814956Y-101956762D01*
X121875464Y-102102841D01*
X121880491Y-102109392D01*
X121960095Y-102213134D01*
X121971718Y-102228282D01*
X122097159Y-102324536D01*
X122243238Y-102385044D01*
X122400000Y-102405682D01*
X122408188Y-102404604D01*
X122548574Y-102386122D01*
X122556762Y-102385044D01*
X122702841Y-102324536D01*
X122828282Y-102228282D01*
X122839906Y-102213134D01*
X122919509Y-102109392D01*
X122924536Y-102102841D01*
X122985044Y-101956762D01*
X122992517Y-101900000D01*
X124494318Y-101900000D01*
X124514956Y-102056762D01*
X124575464Y-102202841D01*
X124671718Y-102328282D01*
X124797159Y-102424536D01*
X124943238Y-102485044D01*
X125100000Y-102505682D01*
X125108188Y-102504604D01*
X125248574Y-102486122D01*
X125256762Y-102485044D01*
X125402841Y-102424536D01*
X125528282Y-102328282D01*
X125624536Y-102202841D01*
X125685044Y-102056762D01*
X125705682Y-101900000D01*
X125692517Y-101800000D01*
X145694318Y-101800000D01*
X145714956Y-101956762D01*
X145775464Y-102102841D01*
X145780491Y-102109392D01*
X145860095Y-102213134D01*
X145871718Y-102228282D01*
X145997159Y-102324536D01*
X146143238Y-102385044D01*
X146300000Y-102405682D01*
X146308188Y-102404604D01*
X146448574Y-102386122D01*
X146456762Y-102385044D01*
X146602841Y-102324536D01*
X146728282Y-102228282D01*
X146739906Y-102213134D01*
X146819509Y-102109392D01*
X146824536Y-102102841D01*
X146885044Y-101956762D01*
X146888132Y-101933305D01*
X146890522Y-101915153D01*
X146919245Y-101850226D01*
X146978510Y-101811135D01*
X147049502Y-101810290D01*
X147109680Y-101847961D01*
X147115407Y-101854896D01*
X147153549Y-101904604D01*
X147171718Y-101928282D01*
X147297159Y-102024536D01*
X147443238Y-102085044D01*
X147600000Y-102105682D01*
X147608188Y-102104604D01*
X147621580Y-102102841D01*
X147756762Y-102085044D01*
X147902841Y-102024536D01*
X148028282Y-101928282D01*
X148049984Y-101900000D01*
X148119509Y-101809392D01*
X148124536Y-101802841D01*
X148133591Y-101780980D01*
X148178139Y-101725699D01*
X148245502Y-101703278D01*
X148314294Y-101720836D01*
X148362672Y-101772798D01*
X148366408Y-101780977D01*
X148375464Y-101802841D01*
X148380491Y-101809392D01*
X148450017Y-101900000D01*
X148471718Y-101928282D01*
X148597159Y-102024536D01*
X148743238Y-102085044D01*
X148900000Y-102105682D01*
X148908188Y-102104604D01*
X148921580Y-102102841D01*
X149056762Y-102085044D01*
X149202841Y-102024536D01*
X149328282Y-101928282D01*
X149346451Y-101904604D01*
X149400037Y-101834769D01*
X149457375Y-101792902D01*
X149528246Y-101788680D01*
X149590149Y-101823444D01*
X149599963Y-101834769D01*
X149653549Y-101904604D01*
X149671718Y-101928282D01*
X149797159Y-102024536D01*
X149943238Y-102085044D01*
X150100000Y-102105682D01*
X150108188Y-102104604D01*
X150121580Y-102102841D01*
X150256762Y-102085044D01*
X150402841Y-102024536D01*
X150528282Y-101928282D01*
X150549984Y-101900000D01*
X150619509Y-101809392D01*
X150624536Y-101802841D01*
X150633591Y-101780980D01*
X150678139Y-101725699D01*
X150745502Y-101703278D01*
X150814294Y-101720836D01*
X150862672Y-101772798D01*
X150866408Y-101780977D01*
X150875464Y-101802841D01*
X150880491Y-101809392D01*
X150950017Y-101900000D01*
X150971718Y-101928282D01*
X151097159Y-102024536D01*
X151243238Y-102085044D01*
X151400000Y-102105682D01*
X151408188Y-102104604D01*
X151421580Y-102102841D01*
X151556762Y-102085044D01*
X151702841Y-102024536D01*
X151828282Y-101928282D01*
X151846451Y-101904604D01*
X151900037Y-101834769D01*
X151957375Y-101792902D01*
X152028246Y-101788680D01*
X152090149Y-101823444D01*
X152099963Y-101834769D01*
X152153549Y-101904604D01*
X152171718Y-101928282D01*
X152297159Y-102024536D01*
X152443238Y-102085044D01*
X152600000Y-102105682D01*
X152608188Y-102104604D01*
X152621580Y-102102841D01*
X152756762Y-102085044D01*
X152902841Y-102024536D01*
X153028282Y-101928282D01*
X153049984Y-101900000D01*
X153119509Y-101809392D01*
X153124536Y-101802841D01*
X153133591Y-101780980D01*
X153178139Y-101725699D01*
X153245502Y-101703278D01*
X153314294Y-101720836D01*
X153362672Y-101772798D01*
X153366408Y-101780977D01*
X153375464Y-101802841D01*
X153380491Y-101809392D01*
X153450017Y-101900000D01*
X153471718Y-101928282D01*
X153597159Y-102024536D01*
X153743238Y-102085044D01*
X153900000Y-102105682D01*
X153908188Y-102104604D01*
X153921580Y-102102841D01*
X154056762Y-102085044D01*
X154202841Y-102024536D01*
X154328282Y-101928282D01*
X154349984Y-101900000D01*
X154419509Y-101809392D01*
X154424536Y-101802841D01*
X154485044Y-101656762D01*
X154505682Y-101500000D01*
X157094318Y-101500000D01*
X157114956Y-101656762D01*
X157175464Y-101802841D01*
X157180491Y-101809392D01*
X157250017Y-101900000D01*
X157271718Y-101928282D01*
X157397159Y-102024536D01*
X157543238Y-102085044D01*
X157700000Y-102105682D01*
X157708188Y-102104604D01*
X157721580Y-102102841D01*
X157856762Y-102085044D01*
X158002841Y-102024536D01*
X158128282Y-101928282D01*
X158149984Y-101900000D01*
X158219509Y-101809392D01*
X158224536Y-101802841D01*
X158285044Y-101656762D01*
X158305682Y-101500000D01*
X158285044Y-101343238D01*
X158267134Y-101300000D01*
X161994318Y-101300000D01*
X162014956Y-101456762D01*
X162075464Y-101602841D01*
X162171718Y-101728282D01*
X162297159Y-101824536D01*
X162443238Y-101885044D01*
X162600000Y-101905682D01*
X162608188Y-101904604D01*
X162748574Y-101886122D01*
X162756762Y-101885044D01*
X162902841Y-101824536D01*
X163028282Y-101728282D01*
X163124536Y-101602841D01*
X163131817Y-101585262D01*
X181824520Y-101585262D01*
X181825463Y-101596494D01*
X181835905Y-101720836D01*
X181841759Y-101790553D01*
X181843458Y-101796478D01*
X181889419Y-101956762D01*
X181898544Y-101988586D01*
X181901359Y-101994063D01*
X181901360Y-101994066D01*
X181989897Y-102166341D01*
X181992712Y-102171818D01*
X182120677Y-102333270D01*
X182277564Y-102466791D01*
X182282942Y-102469797D01*
X182282944Y-102469798D01*
X182314563Y-102487469D01*
X182457398Y-102567297D01*
X182552238Y-102598113D01*
X182647471Y-102629056D01*
X182647475Y-102629057D01*
X182653329Y-102630959D01*
X182857894Y-102655351D01*
X182864029Y-102654879D01*
X182864031Y-102654879D01*
X182920039Y-102650569D01*
X183063300Y-102639546D01*
X183069230Y-102637890D01*
X183069232Y-102637890D01*
X183193104Y-102603304D01*
X183261725Y-102584145D01*
X183267214Y-102581372D01*
X183267220Y-102581370D01*
X183440116Y-102494033D01*
X183445610Y-102491258D01*
X183607951Y-102364424D01*
X183639654Y-102327696D01*
X183738540Y-102213134D01*
X183738540Y-102213133D01*
X183742564Y-102208472D01*
X183750098Y-102195211D01*
X183806905Y-102095211D01*
X183844323Y-102029344D01*
X183909351Y-101833863D01*
X183935171Y-101629474D01*
X183935583Y-101600000D01*
X183915480Y-101394970D01*
X183855935Y-101197749D01*
X183759218Y-101015849D01*
X183660979Y-100895396D01*
X183632906Y-100860975D01*
X183632903Y-100860972D01*
X183629011Y-100856200D01*
X183622173Y-100850543D01*
X183475025Y-100728811D01*
X183475021Y-100728809D01*
X183470275Y-100724882D01*
X183289055Y-100626897D01*
X183092254Y-100565977D01*
X183086129Y-100565333D01*
X183086128Y-100565333D01*
X182893498Y-100545087D01*
X182893496Y-100545087D01*
X182887369Y-100544443D01*
X182806076Y-100551841D01*
X182688342Y-100562555D01*
X182688339Y-100562556D01*
X182682203Y-100563114D01*
X182484572Y-100621280D01*
X182479107Y-100624137D01*
X182468954Y-100629445D01*
X182302002Y-100716726D01*
X182297201Y-100720586D01*
X182297198Y-100720588D01*
X182146254Y-100841950D01*
X182141447Y-100845815D01*
X182009024Y-101003630D01*
X182006056Y-101009028D01*
X182006053Y-101009033D01*
X181947372Y-101115775D01*
X181909776Y-101184162D01*
X181907914Y-101190031D01*
X181907913Y-101190034D01*
X181874070Y-101296722D01*
X181847484Y-101380532D01*
X181846798Y-101386649D01*
X181846797Y-101386653D01*
X181827197Y-101561393D01*
X181824520Y-101585262D01*
X163131817Y-101585262D01*
X163185044Y-101456762D01*
X163205682Y-101300000D01*
X163197654Y-101239022D01*
X163208593Y-101168874D01*
X163255721Y-101115775D01*
X163324075Y-101096585D01*
X163339020Y-101097654D01*
X163400000Y-101105682D01*
X163408188Y-101104604D01*
X163548574Y-101086122D01*
X163556762Y-101085044D01*
X163702841Y-101024536D01*
X163828282Y-100928282D01*
X163834092Y-100920711D01*
X163919509Y-100809392D01*
X163924536Y-100802841D01*
X163985044Y-100656762D01*
X163986301Y-100647218D01*
X163999862Y-100544211D01*
X164005682Y-100500000D01*
X163985044Y-100343238D01*
X163981884Y-100335609D01*
X163981883Y-100335605D01*
X163956443Y-100274189D01*
X163948853Y-100203599D01*
X163950655Y-100200000D01*
X169194318Y-100200000D01*
X169195396Y-100208188D01*
X169209603Y-100316098D01*
X169214956Y-100356762D01*
X169275464Y-100502841D01*
X169371718Y-100628282D01*
X169497159Y-100724536D01*
X169643238Y-100785044D01*
X169800000Y-100805682D01*
X169808188Y-100804604D01*
X169821580Y-100802841D01*
X169956762Y-100785044D01*
X170102841Y-100724536D01*
X170228282Y-100628282D01*
X170324536Y-100502841D01*
X170385044Y-100356762D01*
X170390398Y-100316098D01*
X170404604Y-100208188D01*
X170405682Y-100200000D01*
X170385044Y-100043238D01*
X170324536Y-99897159D01*
X170250011Y-99800036D01*
X170249983Y-99800000D01*
X173994318Y-99800000D01*
X174014956Y-99956762D01*
X174075464Y-100102841D01*
X174121831Y-100163268D01*
X174150017Y-100200000D01*
X174171718Y-100228282D01*
X174297159Y-100324536D01*
X174443238Y-100385044D01*
X174600000Y-100405682D01*
X174608188Y-100404604D01*
X174748574Y-100386122D01*
X174756762Y-100385044D01*
X174902841Y-100324536D01*
X175028282Y-100228282D01*
X175049984Y-100200000D01*
X175078169Y-100163268D01*
X175124536Y-100102841D01*
X175185044Y-99956762D01*
X175205682Y-99800000D01*
X175185044Y-99643238D01*
X175124536Y-99497159D01*
X175028282Y-99371718D01*
X174902841Y-99275464D01*
X174756762Y-99214956D01*
X174600000Y-99194318D01*
X174443238Y-99214956D01*
X174297159Y-99275464D01*
X174171718Y-99371718D01*
X174075464Y-99497159D01*
X174014956Y-99643238D01*
X173994318Y-99800000D01*
X170249983Y-99800000D01*
X170233305Y-99778264D01*
X170228282Y-99771718D01*
X170102841Y-99675464D01*
X169956762Y-99614956D01*
X169937173Y-99612377D01*
X169808188Y-99595396D01*
X169800000Y-99594318D01*
X169791812Y-99595396D01*
X169662828Y-99612377D01*
X169643238Y-99614956D01*
X169497159Y-99675464D01*
X169371718Y-99771718D01*
X169366695Y-99778264D01*
X169349989Y-99800036D01*
X169275464Y-99897159D01*
X169214956Y-100043238D01*
X169194318Y-100200000D01*
X163950655Y-100200000D01*
X163980632Y-100140112D01*
X164041690Y-100103884D01*
X164089295Y-100101048D01*
X164116309Y-100104604D01*
X164116312Y-100104604D01*
X164124500Y-100105682D01*
X164132688Y-100104604D01*
X164146080Y-100102841D01*
X164281262Y-100085044D01*
X164427341Y-100024536D01*
X164552782Y-99928282D01*
X164649036Y-99802841D01*
X164709544Y-99656762D01*
X164730182Y-99500000D01*
X164709544Y-99343238D01*
X164649036Y-99197159D01*
X164552782Y-99071718D01*
X164459317Y-99000000D01*
X178394318Y-99000000D01*
X178414956Y-99156762D01*
X178475464Y-99302841D01*
X178514103Y-99353196D01*
X178562209Y-99415889D01*
X178571718Y-99428282D01*
X178697159Y-99524536D01*
X178843238Y-99585044D01*
X179000000Y-99605682D01*
X179008188Y-99604604D01*
X179148574Y-99586122D01*
X179156762Y-99585044D01*
X179302841Y-99524536D01*
X179428282Y-99428282D01*
X179437792Y-99415889D01*
X179485897Y-99353196D01*
X179524536Y-99302841D01*
X179585044Y-99156762D01*
X179599723Y-99045262D01*
X181824520Y-99045262D01*
X181825036Y-99051406D01*
X181840311Y-99233305D01*
X181841759Y-99250553D01*
X181843458Y-99256478D01*
X181896051Y-99439891D01*
X181898544Y-99448586D01*
X181901359Y-99454063D01*
X181901360Y-99454066D01*
X181978497Y-99604159D01*
X181992712Y-99631818D01*
X182120677Y-99793270D01*
X182125370Y-99797264D01*
X182125371Y-99797265D01*
X182255586Y-99908086D01*
X182277564Y-99926791D01*
X182282942Y-99929797D01*
X182282944Y-99929798D01*
X182314563Y-99947469D01*
X182457398Y-100027297D01*
X182538356Y-100053602D01*
X182647471Y-100089056D01*
X182647475Y-100089057D01*
X182653329Y-100090959D01*
X182857894Y-100115351D01*
X182864029Y-100114879D01*
X182864031Y-100114879D01*
X182933363Y-100109544D01*
X183063300Y-100099546D01*
X183069230Y-100097890D01*
X183069232Y-100097890D01*
X183193104Y-100063304D01*
X183261725Y-100044145D01*
X183267214Y-100041372D01*
X183267220Y-100041370D01*
X183440116Y-99954033D01*
X183445610Y-99951258D01*
X183452137Y-99946159D01*
X183536683Y-99880104D01*
X183607951Y-99824424D01*
X183620927Y-99809392D01*
X183738540Y-99673134D01*
X183738540Y-99673133D01*
X183742564Y-99668472D01*
X183752248Y-99651426D01*
X183824331Y-99524536D01*
X183844323Y-99489344D01*
X183909351Y-99293863D01*
X183935171Y-99089474D01*
X183935419Y-99071718D01*
X183935534Y-99063522D01*
X183935534Y-99063518D01*
X183935583Y-99060000D01*
X183915480Y-98854970D01*
X183855935Y-98657749D01*
X183759218Y-98475849D01*
X183644841Y-98335609D01*
X183632906Y-98320975D01*
X183632903Y-98320972D01*
X183629011Y-98316200D01*
X183622173Y-98310543D01*
X183475025Y-98188811D01*
X183475021Y-98188809D01*
X183470275Y-98184882D01*
X183289055Y-98086897D01*
X183092254Y-98025977D01*
X183086129Y-98025333D01*
X183086128Y-98025333D01*
X182893498Y-98005087D01*
X182893496Y-98005087D01*
X182887369Y-98004443D01*
X182800529Y-98012346D01*
X182688342Y-98022555D01*
X182688339Y-98022556D01*
X182682203Y-98023114D01*
X182484572Y-98081280D01*
X182302002Y-98176726D01*
X182297201Y-98180586D01*
X182297198Y-98180588D01*
X182183126Y-98272304D01*
X182141447Y-98305815D01*
X182009024Y-98463630D01*
X182006056Y-98469028D01*
X182006053Y-98469033D01*
X181937625Y-98593504D01*
X181909776Y-98644162D01*
X181847484Y-98840532D01*
X181846798Y-98846649D01*
X181846797Y-98846653D01*
X181830731Y-98989891D01*
X181824520Y-99045262D01*
X179599723Y-99045262D01*
X179605682Y-99000000D01*
X179585044Y-98843238D01*
X179524536Y-98697159D01*
X179428282Y-98571718D01*
X179302841Y-98475464D01*
X179156762Y-98414956D01*
X179000000Y-98394318D01*
X178843238Y-98414956D01*
X178697159Y-98475464D01*
X178571718Y-98571718D01*
X178475464Y-98697159D01*
X178414956Y-98843238D01*
X178394318Y-99000000D01*
X164459317Y-99000000D01*
X164427341Y-98975464D01*
X164281262Y-98914956D01*
X164124500Y-98894318D01*
X163967738Y-98914956D01*
X163821659Y-98975464D01*
X163696218Y-99071718D01*
X163599964Y-99197159D01*
X163539456Y-99343238D01*
X163518818Y-99500000D01*
X163539456Y-99656762D01*
X163542616Y-99664390D01*
X163542617Y-99664395D01*
X163568057Y-99725811D01*
X163575647Y-99796401D01*
X163543868Y-99859888D01*
X163482810Y-99896116D01*
X163435205Y-99898952D01*
X163408191Y-99895396D01*
X163408188Y-99895396D01*
X163400000Y-99894318D01*
X163364801Y-99898952D01*
X163261757Y-99912518D01*
X163243238Y-99914956D01*
X163097159Y-99975464D01*
X162971718Y-100071718D01*
X162966695Y-100078264D01*
X162955972Y-100092238D01*
X162875464Y-100197159D01*
X162814956Y-100343238D01*
X162794318Y-100500000D01*
X162802006Y-100558392D01*
X162802346Y-100560978D01*
X162791407Y-100631126D01*
X162744279Y-100684225D01*
X162675925Y-100703415D01*
X162660980Y-100702346D01*
X162600000Y-100694318D01*
X162591812Y-100695396D01*
X162451495Y-100713869D01*
X162443238Y-100714956D01*
X162297159Y-100775464D01*
X162271424Y-100795211D01*
X162185719Y-100860975D01*
X162171718Y-100871718D01*
X162075464Y-100997159D01*
X162014956Y-101143238D01*
X161994318Y-101300000D01*
X158267134Y-101300000D01*
X158224536Y-101197159D01*
X158128282Y-101071718D01*
X158002841Y-100975464D01*
X157856762Y-100914956D01*
X157700000Y-100894318D01*
X157543238Y-100914956D01*
X157397159Y-100975464D01*
X157271718Y-101071718D01*
X157175464Y-101197159D01*
X157114956Y-101343238D01*
X157094318Y-101500000D01*
X154505682Y-101500000D01*
X154485044Y-101343238D01*
X154424536Y-101197159D01*
X154328282Y-101071718D01*
X154202841Y-100975464D01*
X154056762Y-100914956D01*
X153900000Y-100894318D01*
X153743238Y-100914956D01*
X153597159Y-100975464D01*
X153471718Y-101071718D01*
X153375464Y-101197159D01*
X153368539Y-101213878D01*
X153366409Y-101219020D01*
X153321861Y-101274301D01*
X153254498Y-101296722D01*
X153185706Y-101279164D01*
X153137328Y-101227202D01*
X153133591Y-101219020D01*
X153131461Y-101213878D01*
X153124536Y-101197159D01*
X153028282Y-101071718D01*
X152902841Y-100975464D01*
X152756762Y-100914956D01*
X152600000Y-100894318D01*
X152443238Y-100914956D01*
X152297159Y-100975464D01*
X152171718Y-101071718D01*
X152166695Y-101078264D01*
X152099963Y-101165231D01*
X152042625Y-101207098D01*
X151971754Y-101211320D01*
X151909851Y-101176556D01*
X151900037Y-101165231D01*
X151833305Y-101078264D01*
X151828282Y-101071718D01*
X151702841Y-100975464D01*
X151556762Y-100914956D01*
X151400000Y-100894318D01*
X151243238Y-100914956D01*
X151097159Y-100975464D01*
X150971718Y-101071718D01*
X150875464Y-101197159D01*
X150868539Y-101213878D01*
X150866409Y-101219020D01*
X150821861Y-101274301D01*
X150754498Y-101296722D01*
X150685706Y-101279164D01*
X150637328Y-101227202D01*
X150633591Y-101219020D01*
X150631461Y-101213878D01*
X150624536Y-101197159D01*
X150528282Y-101071718D01*
X150402841Y-100975464D01*
X150256762Y-100914956D01*
X150100000Y-100894318D01*
X149943238Y-100914956D01*
X149797159Y-100975464D01*
X149671718Y-101071718D01*
X149666695Y-101078264D01*
X149599963Y-101165231D01*
X149542625Y-101207098D01*
X149471754Y-101211320D01*
X149409851Y-101176556D01*
X149400037Y-101165231D01*
X149333305Y-101078264D01*
X149328282Y-101071718D01*
X149202841Y-100975464D01*
X149056762Y-100914956D01*
X148900000Y-100894318D01*
X148743238Y-100914956D01*
X148597159Y-100975464D01*
X148471718Y-101071718D01*
X148375464Y-101197159D01*
X148368539Y-101213878D01*
X148366409Y-101219020D01*
X148321861Y-101274301D01*
X148254498Y-101296722D01*
X148185706Y-101279164D01*
X148137328Y-101227202D01*
X148133591Y-101219020D01*
X148131461Y-101213878D01*
X148124536Y-101197159D01*
X148028282Y-101071718D01*
X147902841Y-100975464D01*
X147756762Y-100914956D01*
X147600000Y-100894318D01*
X147443238Y-100914956D01*
X147297159Y-100975464D01*
X147171718Y-101071718D01*
X147075464Y-101197159D01*
X147014956Y-101343238D01*
X147013878Y-101351426D01*
X147009478Y-101384847D01*
X146980755Y-101449774D01*
X146921490Y-101488865D01*
X146850498Y-101489710D01*
X146790320Y-101452039D01*
X146784593Y-101445104D01*
X146733305Y-101378264D01*
X146728282Y-101371718D01*
X146602841Y-101275464D01*
X146456762Y-101214956D01*
X146423250Y-101210544D01*
X146326061Y-101197749D01*
X146300000Y-101194318D01*
X146273939Y-101197749D01*
X146176751Y-101210544D01*
X146143238Y-101214956D01*
X145997159Y-101275464D01*
X145871718Y-101371718D01*
X145775464Y-101497159D01*
X145714956Y-101643238D01*
X145694318Y-101800000D01*
X125692517Y-101800000D01*
X125691027Y-101788680D01*
X125686122Y-101751426D01*
X125685044Y-101743238D01*
X125679214Y-101729163D01*
X125671625Y-101658573D01*
X125703405Y-101595086D01*
X125764463Y-101558859D01*
X125835414Y-101561393D01*
X125872326Y-101580982D01*
X125890604Y-101595007D01*
X125890608Y-101595009D01*
X125897159Y-101600036D01*
X126043238Y-101660544D01*
X126200000Y-101681182D01*
X126208188Y-101680104D01*
X126348574Y-101661622D01*
X126356762Y-101660544D01*
X126502841Y-101600036D01*
X126628282Y-101503782D01*
X126724536Y-101378341D01*
X126785044Y-101232262D01*
X126805682Y-101075500D01*
X126786308Y-100928341D01*
X126786122Y-100926926D01*
X126785044Y-100918738D01*
X126724536Y-100772659D01*
X126628282Y-100647218D01*
X126607311Y-100631126D01*
X126521567Y-100565333D01*
X126502841Y-100550964D01*
X126356762Y-100490456D01*
X126200000Y-100469818D01*
X126079562Y-100485674D01*
X126009414Y-100474735D01*
X125956315Y-100427607D01*
X125937125Y-100359253D01*
X125938194Y-100344306D01*
X125949663Y-100257188D01*
X125950741Y-100249000D01*
X125930103Y-100092238D01*
X125869595Y-99946159D01*
X125773341Y-99820718D01*
X125647900Y-99724464D01*
X125501821Y-99663956D01*
X125441321Y-99655991D01*
X125379134Y-99647804D01*
X125345059Y-99643318D01*
X125310984Y-99647804D01*
X125248798Y-99655991D01*
X125188297Y-99663956D01*
X125042218Y-99724464D01*
X124916777Y-99820718D01*
X124820523Y-99946159D01*
X124760015Y-100092238D01*
X124739377Y-100249000D01*
X124760015Y-100405762D01*
X124820523Y-100551841D01*
X124916777Y-100677282D01*
X125042218Y-100773536D01*
X125188297Y-100834044D01*
X125345059Y-100854682D01*
X125465497Y-100838826D01*
X125535645Y-100849765D01*
X125588744Y-100896893D01*
X125607934Y-100965247D01*
X125606865Y-100980194D01*
X125600611Y-101027696D01*
X125594318Y-101075500D01*
X125614956Y-101232262D01*
X125618115Y-101239889D01*
X125618116Y-101239892D01*
X125620786Y-101246337D01*
X125628375Y-101316927D01*
X125596595Y-101380414D01*
X125535537Y-101416641D01*
X125464586Y-101414107D01*
X125427674Y-101394518D01*
X125409396Y-101380493D01*
X125409392Y-101380491D01*
X125402841Y-101375464D01*
X125256762Y-101314956D01*
X125100000Y-101294318D01*
X124943238Y-101314956D01*
X124797159Y-101375464D01*
X124671718Y-101471718D01*
X124666695Y-101478264D01*
X124647114Y-101503782D01*
X124575464Y-101597159D01*
X124514956Y-101743238D01*
X124513878Y-101751426D01*
X124508973Y-101788680D01*
X124494318Y-101900000D01*
X122992517Y-101900000D01*
X123005682Y-101800000D01*
X122985044Y-101643238D01*
X122924536Y-101497159D01*
X122828282Y-101371718D01*
X122702841Y-101275464D01*
X122556762Y-101214956D01*
X122523250Y-101210544D01*
X122426061Y-101197749D01*
X122400000Y-101194318D01*
X122373939Y-101197749D01*
X122276751Y-101210544D01*
X122243238Y-101214956D01*
X122097159Y-101275464D01*
X121971718Y-101371718D01*
X121875464Y-101497159D01*
X121814956Y-101643238D01*
X121794318Y-101800000D01*
X120413629Y-101800000D01*
X120435171Y-101629474D01*
X120435583Y-101600000D01*
X120415480Y-101394970D01*
X120355935Y-101197749D01*
X120259218Y-101015849D01*
X120160979Y-100895396D01*
X120132906Y-100860975D01*
X120132903Y-100860972D01*
X120129011Y-100856200D01*
X120122173Y-100850543D01*
X119975025Y-100728811D01*
X119975021Y-100728809D01*
X119970275Y-100724882D01*
X119789055Y-100626897D01*
X119592254Y-100565977D01*
X119586129Y-100565333D01*
X119586128Y-100565333D01*
X119393498Y-100545087D01*
X119393496Y-100545087D01*
X119387369Y-100544443D01*
X119306076Y-100551841D01*
X119188342Y-100562555D01*
X119188339Y-100562556D01*
X119182203Y-100563114D01*
X118984572Y-100621280D01*
X118979107Y-100624137D01*
X118968954Y-100629445D01*
X118802002Y-100716726D01*
X118797201Y-100720586D01*
X118797198Y-100720588D01*
X118646254Y-100841950D01*
X118641447Y-100845815D01*
X118509024Y-101003630D01*
X118506056Y-101009028D01*
X118506053Y-101009033D01*
X118447372Y-101115775D01*
X118409776Y-101184162D01*
X118407914Y-101190031D01*
X118407913Y-101190034D01*
X118374070Y-101296722D01*
X118347484Y-101380532D01*
X118346798Y-101386649D01*
X118346797Y-101386653D01*
X118327197Y-101561393D01*
X118324520Y-101585262D01*
X118325463Y-101596494D01*
X118335905Y-101720836D01*
X118341759Y-101790553D01*
X118343458Y-101796478D01*
X118389419Y-101956762D01*
X118398544Y-101988586D01*
X118401359Y-101994063D01*
X118401360Y-101994066D01*
X118489897Y-102166341D01*
X118492712Y-102171818D01*
X118620677Y-102333270D01*
X118777564Y-102466791D01*
X118782942Y-102469797D01*
X118782944Y-102469798D01*
X118814563Y-102487469D01*
X118957398Y-102567297D01*
X119022437Y-102588429D01*
X119081042Y-102628502D01*
X119108680Y-102693898D01*
X119096574Y-102763855D01*
X119048568Y-102816162D01*
X119022646Y-102828027D01*
X118856868Y-102882212D01*
X118847359Y-102886209D01*
X118658463Y-102984542D01*
X118649738Y-102990036D01*
X118479433Y-103117905D01*
X118471726Y-103124748D01*
X118324590Y-103278717D01*
X118318104Y-103286727D01*
X118198098Y-103462649D01*
X118193000Y-103471623D01*
X118103338Y-103664783D01*
X118099775Y-103674470D01*
X118044389Y-103874183D01*
X115787033Y-103874183D01*
X115739783Y-103677373D01*
X115736734Y-103667988D01*
X115649687Y-103457837D01*
X115645205Y-103449042D01*
X115542568Y-103281555D01*
X115532110Y-103272093D01*
X115523334Y-103275876D01*
X114672022Y-104127188D01*
X114664408Y-104141132D01*
X113934356Y-104141132D01*
X113935592Y-104138868D01*
X113935461Y-104137035D01*
X113931210Y-104130420D01*
X113079710Y-103278920D01*
X113067330Y-103272160D01*
X113059680Y-103277887D01*
X112954795Y-103449042D01*
X112950313Y-103457837D01*
X112863266Y-103667988D01*
X112860217Y-103677373D01*
X112807116Y-103898552D01*
X112805572Y-103908301D01*
X112787725Y-104135070D01*
X112787725Y-104144930D01*
X108746194Y-104144930D01*
X108746194Y-102907890D01*
X113432093Y-102907890D01*
X113435876Y-102916666D01*
X114287188Y-103767978D01*
X114301132Y-103775592D01*
X114302965Y-103775461D01*
X114309580Y-103771210D01*
X115161080Y-102919710D01*
X115167840Y-102907330D01*
X115162113Y-102899680D01*
X114990958Y-102794795D01*
X114982163Y-102790313D01*
X114772012Y-102703266D01*
X114762627Y-102700217D01*
X114541446Y-102647115D01*
X114531699Y-102645572D01*
X114304930Y-102627725D01*
X114295070Y-102627725D01*
X114068301Y-102645572D01*
X114058554Y-102647115D01*
X113837373Y-102700217D01*
X113827988Y-102703266D01*
X113617837Y-102790313D01*
X113609042Y-102794795D01*
X113441555Y-102897432D01*
X113432093Y-102907890D01*
X108746194Y-102907890D01*
X108746194Y-99028440D01*
X113094770Y-99028440D01*
X113109200Y-99248604D01*
X113110621Y-99254200D01*
X113110622Y-99254205D01*
X113157781Y-99439891D01*
X113163511Y-99462452D01*
X113165928Y-99467694D01*
X113165928Y-99467695D01*
X113204046Y-99550379D01*
X113255883Y-99662821D01*
X113383222Y-99843002D01*
X113541264Y-99996961D01*
X113546060Y-100000166D01*
X113546063Y-100000168D01*
X113653146Y-100071718D01*
X113724717Y-100119540D01*
X113730020Y-100121818D01*
X113730023Y-100121820D01*
X113922129Y-100204355D01*
X113927436Y-100206635D01*
X113994173Y-100221736D01*
X114136995Y-100254054D01*
X114137001Y-100254055D01*
X114142632Y-100255329D01*
X114148403Y-100255556D01*
X114148405Y-100255556D01*
X114216211Y-100258220D01*
X114363098Y-100263991D01*
X114472275Y-100248161D01*
X114575738Y-100233160D01*
X114575743Y-100233159D01*
X114581452Y-100232331D01*
X114586916Y-100230476D01*
X114586921Y-100230475D01*
X114784907Y-100163268D01*
X114784912Y-100163266D01*
X114790379Y-100161410D01*
X114806445Y-100152413D01*
X114913894Y-100092238D01*
X114982884Y-100053602D01*
X114994419Y-100044009D01*
X115121397Y-99938402D01*
X115152518Y-99912518D01*
X115222634Y-99828213D01*
X115289908Y-99747326D01*
X115289910Y-99747323D01*
X115293602Y-99742884D01*
X115390524Y-99569818D01*
X115398586Y-99555422D01*
X115398587Y-99555420D01*
X115401410Y-99550379D01*
X115403266Y-99544912D01*
X115403268Y-99544907D01*
X115470475Y-99346921D01*
X115470476Y-99346916D01*
X115472331Y-99341452D01*
X115473159Y-99335743D01*
X115473160Y-99335738D01*
X115493508Y-99195396D01*
X115503991Y-99123098D01*
X115505643Y-99060000D01*
X115504289Y-99045262D01*
X118324520Y-99045262D01*
X118325036Y-99051406D01*
X118340311Y-99233305D01*
X118341759Y-99250553D01*
X118343458Y-99256478D01*
X118396051Y-99439891D01*
X118398544Y-99448586D01*
X118401359Y-99454063D01*
X118401360Y-99454066D01*
X118478497Y-99604159D01*
X118492712Y-99631818D01*
X118620677Y-99793270D01*
X118625370Y-99797264D01*
X118625371Y-99797265D01*
X118755586Y-99908086D01*
X118777564Y-99926791D01*
X118782942Y-99929797D01*
X118782944Y-99929798D01*
X118814563Y-99947469D01*
X118957398Y-100027297D01*
X119038356Y-100053602D01*
X119147471Y-100089056D01*
X119147475Y-100089057D01*
X119153329Y-100090959D01*
X119357894Y-100115351D01*
X119364029Y-100114879D01*
X119364031Y-100114879D01*
X119433363Y-100109544D01*
X119563300Y-100099546D01*
X119569230Y-100097890D01*
X119569232Y-100097890D01*
X119693104Y-100063304D01*
X119761725Y-100044145D01*
X119767214Y-100041372D01*
X119767220Y-100041370D01*
X119940116Y-99954033D01*
X119945610Y-99951258D01*
X119952137Y-99946159D01*
X120036683Y-99880104D01*
X120107951Y-99824424D01*
X120120927Y-99809392D01*
X120238540Y-99673134D01*
X120238540Y-99673133D01*
X120242564Y-99668472D01*
X120252248Y-99651426D01*
X120324331Y-99524536D01*
X120324351Y-99524500D01*
X126894318Y-99524500D01*
X126914956Y-99681262D01*
X126975464Y-99827341D01*
X127071718Y-99952782D01*
X127197159Y-100049036D01*
X127204097Y-100051910D01*
X127252852Y-100103041D01*
X127266289Y-100172755D01*
X127240821Y-100237483D01*
X127180497Y-100316098D01*
X127180493Y-100316105D01*
X127175464Y-100322659D01*
X127114956Y-100468738D01*
X127094318Y-100625500D01*
X127095396Y-100633688D01*
X127106837Y-100720588D01*
X127114956Y-100782262D01*
X127175464Y-100928341D01*
X127271718Y-101053782D01*
X127278264Y-101058805D01*
X127303624Y-101078264D01*
X127397159Y-101150036D01*
X127543238Y-101210544D01*
X127551426Y-101211622D01*
X127600753Y-101218116D01*
X127700000Y-101231182D01*
X127708188Y-101230104D01*
X127848574Y-101211622D01*
X127856762Y-101210544D01*
X128002841Y-101150036D01*
X128096376Y-101078264D01*
X128121736Y-101058805D01*
X128128282Y-101053782D01*
X128224536Y-100928341D01*
X128282316Y-100788848D01*
X128326864Y-100733567D01*
X128394228Y-100711146D01*
X128446942Y-100720657D01*
X128543238Y-100760544D01*
X128551426Y-100761622D01*
X128621619Y-100770863D01*
X128700000Y-100781182D01*
X128708188Y-100780104D01*
X128848574Y-100761622D01*
X128856762Y-100760544D01*
X129002841Y-100700036D01*
X129098158Y-100626897D01*
X129121736Y-100608805D01*
X129128282Y-100603782D01*
X129207917Y-100500000D01*
X155894318Y-100500000D01*
X155900138Y-100544211D01*
X155913700Y-100647218D01*
X155914956Y-100656762D01*
X155975464Y-100802841D01*
X155980491Y-100809392D01*
X156065909Y-100920711D01*
X156071718Y-100928282D01*
X156197159Y-101024536D01*
X156343238Y-101085044D01*
X156500000Y-101105682D01*
X156508188Y-101104604D01*
X156648574Y-101086122D01*
X156656762Y-101085044D01*
X156802841Y-101024536D01*
X156928282Y-100928282D01*
X156934092Y-100920711D01*
X157019509Y-100809392D01*
X157024536Y-100802841D01*
X157085044Y-100656762D01*
X157086301Y-100647218D01*
X157099862Y-100544211D01*
X157105682Y-100500000D01*
X157085044Y-100343238D01*
X157024536Y-100197159D01*
X156944028Y-100092238D01*
X156933305Y-100078264D01*
X156928282Y-100071718D01*
X156802841Y-99975464D01*
X156656762Y-99914956D01*
X156638244Y-99912518D01*
X156535199Y-99898952D01*
X156500000Y-99894318D01*
X156464801Y-99898952D01*
X156361757Y-99912518D01*
X156343238Y-99914956D01*
X156197159Y-99975464D01*
X156071718Y-100071718D01*
X156066695Y-100078264D01*
X156055972Y-100092238D01*
X155975464Y-100197159D01*
X155914956Y-100343238D01*
X155894318Y-100500000D01*
X129207917Y-100500000D01*
X129224536Y-100478341D01*
X129285044Y-100332262D01*
X129295027Y-100256431D01*
X129323749Y-100191505D01*
X129383014Y-100152413D01*
X129454006Y-100151568D01*
X129496652Y-100172915D01*
X129597159Y-100250036D01*
X129743238Y-100310544D01*
X129900000Y-100331182D01*
X129908188Y-100330104D01*
X130048574Y-100311622D01*
X130056762Y-100310544D01*
X130202841Y-100250036D01*
X130292082Y-100181559D01*
X130321736Y-100158805D01*
X130328282Y-100153782D01*
X130424536Y-100028341D01*
X130485044Y-99882262D01*
X130489683Y-99847029D01*
X130504604Y-99733688D01*
X130505682Y-99725500D01*
X130485044Y-99568738D01*
X130481264Y-99559611D01*
X130449635Y-99483253D01*
X130424536Y-99422659D01*
X130328282Y-99297218D01*
X130299979Y-99275500D01*
X130694318Y-99275500D01*
X130714956Y-99432262D01*
X130775464Y-99578341D01*
X130871718Y-99703782D01*
X130878264Y-99708805D01*
X130900427Y-99725811D01*
X130997159Y-99800036D01*
X131143238Y-99860544D01*
X131300000Y-99881182D01*
X131308188Y-99880104D01*
X131448574Y-99861622D01*
X131456762Y-99860544D01*
X131602841Y-99800036D01*
X131699573Y-99725811D01*
X131721736Y-99708805D01*
X131728282Y-99703782D01*
X131824536Y-99578341D01*
X131856986Y-99500000D01*
X154594318Y-99500000D01*
X154614956Y-99656762D01*
X154675464Y-99802841D01*
X154771718Y-99928282D01*
X154897159Y-100024536D01*
X155043238Y-100085044D01*
X155200000Y-100105682D01*
X155208188Y-100104604D01*
X155221580Y-100102841D01*
X155356762Y-100085044D01*
X155502841Y-100024536D01*
X155628282Y-99928282D01*
X155724536Y-99802841D01*
X155785044Y-99656762D01*
X155805682Y-99500000D01*
X155785044Y-99343238D01*
X155724536Y-99197159D01*
X155628282Y-99071718D01*
X155502841Y-98975464D01*
X155356762Y-98914956D01*
X155200000Y-98894318D01*
X155043238Y-98914956D01*
X154897159Y-98975464D01*
X154771718Y-99071718D01*
X154675464Y-99197159D01*
X154614956Y-99343238D01*
X154594318Y-99500000D01*
X131856986Y-99500000D01*
X131885044Y-99432262D01*
X131895027Y-99356431D01*
X131923749Y-99291505D01*
X131983014Y-99252413D01*
X132054006Y-99251568D01*
X132096652Y-99272915D01*
X132197159Y-99350036D01*
X132343238Y-99410544D01*
X132351426Y-99411622D01*
X132385501Y-99416108D01*
X132500000Y-99431182D01*
X132508188Y-99430104D01*
X132648574Y-99411622D01*
X132656762Y-99410544D01*
X132802841Y-99350036D01*
X132893474Y-99280491D01*
X132921736Y-99258805D01*
X132928282Y-99253782D01*
X133024536Y-99128341D01*
X133077712Y-98999964D01*
X133081884Y-98989891D01*
X133085044Y-98982262D01*
X133090680Y-98939456D01*
X133104351Y-98835609D01*
X133105682Y-98825500D01*
X133085044Y-98668738D01*
X133024536Y-98522659D01*
X133007149Y-98500000D01*
X151594318Y-98500000D01*
X151595396Y-98508188D01*
X151611894Y-98633500D01*
X151614956Y-98656762D01*
X151618116Y-98664391D01*
X151622532Y-98675053D01*
X151675464Y-98802841D01*
X151771718Y-98928282D01*
X151897159Y-99024536D01*
X152043238Y-99085044D01*
X152200000Y-99105682D01*
X152208188Y-99104604D01*
X152221580Y-99102841D01*
X152356762Y-99085044D01*
X152502841Y-99024536D01*
X152628282Y-98928282D01*
X152724536Y-98802841D01*
X152777468Y-98675053D01*
X152781884Y-98664391D01*
X152785044Y-98656762D01*
X152788107Y-98633500D01*
X152804604Y-98508188D01*
X152805682Y-98500000D01*
X152785044Y-98343238D01*
X152724536Y-98197159D01*
X152646154Y-98095009D01*
X152633305Y-98078264D01*
X152628282Y-98071718D01*
X152502841Y-97975464D01*
X152356762Y-97914956D01*
X152200000Y-97894318D01*
X152043238Y-97914956D01*
X151897159Y-97975464D01*
X151771718Y-98071718D01*
X151766695Y-98078264D01*
X151753846Y-98095009D01*
X151675464Y-98197159D01*
X151614956Y-98343238D01*
X151594318Y-98500000D01*
X133007149Y-98500000D01*
X132928282Y-98397218D01*
X132802841Y-98300964D01*
X132656762Y-98240456D01*
X132500000Y-98219818D01*
X132343238Y-98240456D01*
X132197159Y-98300964D01*
X132071718Y-98397218D01*
X131975464Y-98522659D01*
X131914956Y-98668738D01*
X131913878Y-98676926D01*
X131904973Y-98744568D01*
X131876251Y-98809495D01*
X131816986Y-98848587D01*
X131745994Y-98849432D01*
X131703347Y-98828085D01*
X131699978Y-98825500D01*
X131602841Y-98750964D01*
X131456762Y-98690456D01*
X131300000Y-98669818D01*
X131143238Y-98690456D01*
X130997159Y-98750964D01*
X130990608Y-98755991D01*
X130900022Y-98825500D01*
X130871718Y-98847218D01*
X130775464Y-98972659D01*
X130728957Y-99084937D01*
X130720811Y-99104604D01*
X130714956Y-99118738D01*
X130694318Y-99275500D01*
X130299979Y-99275500D01*
X130239755Y-99229289D01*
X130202841Y-99200964D01*
X130056762Y-99140456D01*
X129900000Y-99119818D01*
X129743238Y-99140456D01*
X129597159Y-99200964D01*
X129560245Y-99229289D01*
X129500022Y-99275500D01*
X129471718Y-99297218D01*
X129375464Y-99422659D01*
X129350365Y-99483253D01*
X129318737Y-99559611D01*
X129314956Y-99568738D01*
X129304996Y-99644396D01*
X129304973Y-99644568D01*
X129276251Y-99709495D01*
X129216986Y-99748587D01*
X129145994Y-99749432D01*
X129103347Y-99728085D01*
X129002841Y-99650964D01*
X128889844Y-99604159D01*
X128834563Y-99559611D01*
X128812142Y-99492247D01*
X128829700Y-99423456D01*
X128881662Y-99375078D01*
X128889844Y-99371341D01*
X128925837Y-99356432D01*
X129002841Y-99324536D01*
X129128282Y-99228282D01*
X129224536Y-99102841D01*
X129285044Y-98956762D01*
X129305682Y-98800000D01*
X129285044Y-98643238D01*
X129224536Y-98497159D01*
X129128282Y-98371718D01*
X129002841Y-98275464D01*
X128856762Y-98214956D01*
X128700000Y-98194318D01*
X128543238Y-98214956D01*
X128397159Y-98275464D01*
X128271718Y-98371718D01*
X128175464Y-98497159D01*
X128114956Y-98643238D01*
X128094318Y-98800000D01*
X128114956Y-98956762D01*
X128115571Y-98958246D01*
X128113956Y-99026140D01*
X128074163Y-99084937D01*
X128008899Y-99112886D01*
X127938885Y-99101113D01*
X127917235Y-99087740D01*
X127809396Y-99004993D01*
X127809392Y-99004991D01*
X127802841Y-98999964D01*
X127656762Y-98939456D01*
X127500000Y-98918818D01*
X127343238Y-98939456D01*
X127197159Y-98999964D01*
X127071718Y-99096218D01*
X126975464Y-99221659D01*
X126943132Y-99299715D01*
X126920980Y-99353196D01*
X126914956Y-99367738D01*
X126913878Y-99375926D01*
X126909179Y-99411622D01*
X126894318Y-99524500D01*
X120324351Y-99524500D01*
X120344323Y-99489344D01*
X120409351Y-99293863D01*
X120435171Y-99089474D01*
X120435419Y-99071718D01*
X120435534Y-99063522D01*
X120435534Y-99063518D01*
X120435583Y-99060000D01*
X120415480Y-98854970D01*
X120355935Y-98657749D01*
X120259218Y-98475849D01*
X120144841Y-98335609D01*
X120132906Y-98320975D01*
X120132903Y-98320972D01*
X120129011Y-98316200D01*
X120122173Y-98310543D01*
X119975025Y-98188811D01*
X119975021Y-98188809D01*
X119970275Y-98184882D01*
X119789055Y-98086897D01*
X119592254Y-98025977D01*
X119586129Y-98025333D01*
X119586128Y-98025333D01*
X119393498Y-98005087D01*
X119393496Y-98005087D01*
X119387369Y-98004443D01*
X119300529Y-98012346D01*
X119188342Y-98022555D01*
X119188339Y-98022556D01*
X119182203Y-98023114D01*
X118984572Y-98081280D01*
X118802002Y-98176726D01*
X118797201Y-98180586D01*
X118797198Y-98180588D01*
X118683126Y-98272304D01*
X118641447Y-98305815D01*
X118509024Y-98463630D01*
X118506056Y-98469028D01*
X118506053Y-98469033D01*
X118437625Y-98593504D01*
X118409776Y-98644162D01*
X118347484Y-98840532D01*
X118346798Y-98846649D01*
X118346797Y-98846653D01*
X118330731Y-98989891D01*
X118324520Y-99045262D01*
X115504289Y-99045262D01*
X115485454Y-98840289D01*
X115483593Y-98833688D01*
X115455510Y-98734113D01*
X115425565Y-98627936D01*
X115327980Y-98430053D01*
X115316707Y-98414956D01*
X115199420Y-98257891D01*
X115199420Y-98257890D01*
X115195967Y-98253267D01*
X115033949Y-98103499D01*
X114847350Y-97985764D01*
X114642421Y-97904006D01*
X114636761Y-97902880D01*
X114636757Y-97902879D01*
X114431691Y-97862089D01*
X114431688Y-97862089D01*
X114426024Y-97860962D01*
X114420249Y-97860886D01*
X114420245Y-97860886D01*
X114309504Y-97859437D01*
X114205406Y-97858074D01*
X114199709Y-97859053D01*
X114199708Y-97859053D01*
X113993654Y-97894459D01*
X113993653Y-97894459D01*
X113987957Y-97895438D01*
X113780957Y-97971804D01*
X113775996Y-97974756D01*
X113775995Y-97974756D01*
X113599870Y-98079540D01*
X113591341Y-98084614D01*
X113425457Y-98230090D01*
X113288863Y-98403360D01*
X113186131Y-98598620D01*
X113120703Y-98809333D01*
X113094770Y-99028440D01*
X108746194Y-99028440D01*
X108746194Y-97600000D01*
X126894318Y-97600000D01*
X126914956Y-97756762D01*
X126975464Y-97902841D01*
X127071718Y-98028282D01*
X127197159Y-98124536D01*
X127343238Y-98185044D01*
X127500000Y-98205682D01*
X127508188Y-98204604D01*
X127648574Y-98186122D01*
X127656762Y-98185044D01*
X127802841Y-98124536D01*
X127928282Y-98028282D01*
X128024536Y-97902841D01*
X128085044Y-97756762D01*
X128105682Y-97600000D01*
X128102457Y-97575500D01*
X148194318Y-97575500D01*
X148214956Y-97732262D01*
X148275464Y-97878341D01*
X148371718Y-98003782D01*
X148378264Y-98008805D01*
X148396912Y-98023114D01*
X148497159Y-98100036D01*
X148643238Y-98160544D01*
X148800000Y-98181182D01*
X148808188Y-98180104D01*
X148948574Y-98161622D01*
X148956762Y-98160544D01*
X149102841Y-98100036D01*
X149203088Y-98023114D01*
X149221736Y-98008805D01*
X149228282Y-98003782D01*
X149324536Y-97878341D01*
X149385044Y-97732262D01*
X149405682Y-97575500D01*
X149385044Y-97418738D01*
X149377282Y-97400000D01*
X178394318Y-97400000D01*
X178414956Y-97556762D01*
X178475464Y-97702841D01*
X178571718Y-97828282D01*
X178697159Y-97924536D01*
X178843238Y-97985044D01*
X178851426Y-97986122D01*
X178921619Y-97995363D01*
X179000000Y-98005682D01*
X179008188Y-98004604D01*
X179148574Y-97986122D01*
X179156762Y-97985044D01*
X179302841Y-97924536D01*
X179428282Y-97828282D01*
X179524536Y-97702841D01*
X179585044Y-97556762D01*
X179605682Y-97400000D01*
X179585044Y-97243238D01*
X179524536Y-97097159D01*
X179428282Y-96971718D01*
X179302841Y-96875464D01*
X179156762Y-96814956D01*
X179000000Y-96794318D01*
X178843238Y-96814956D01*
X178697159Y-96875464D01*
X178571718Y-96971718D01*
X178475464Y-97097159D01*
X178414956Y-97243238D01*
X178394318Y-97400000D01*
X149377282Y-97400000D01*
X149324536Y-97272659D01*
X149228282Y-97147218D01*
X149102841Y-97050964D01*
X148956762Y-96990456D01*
X148800000Y-96969818D01*
X148643238Y-96990456D01*
X148497159Y-97050964D01*
X148371718Y-97147218D01*
X148275464Y-97272659D01*
X148274445Y-97271877D01*
X148249560Y-97295605D01*
X148251084Y-97327585D01*
X148245044Y-97346099D01*
X148219624Y-97407469D01*
X148214956Y-97418738D01*
X148194318Y-97575500D01*
X128102457Y-97575500D01*
X128086355Y-97453196D01*
X128086122Y-97451426D01*
X128085044Y-97443238D01*
X128024536Y-97297159D01*
X127928282Y-97171718D01*
X127802841Y-97075464D01*
X127656762Y-97014956D01*
X127500000Y-96994318D01*
X127343238Y-97014956D01*
X127197159Y-97075464D01*
X127071718Y-97171718D01*
X126975464Y-97297159D01*
X126914956Y-97443238D01*
X126913878Y-97451426D01*
X126913645Y-97453196D01*
X126894318Y-97600000D01*
X108746194Y-97600000D01*
X108746194Y-96505262D01*
X118324520Y-96505262D01*
X118325036Y-96511406D01*
X118340454Y-96695009D01*
X118341759Y-96710553D01*
X118343458Y-96716478D01*
X118365873Y-96794647D01*
X118398544Y-96908586D01*
X118401359Y-96914063D01*
X118401360Y-96914066D01*
X118482683Y-97072304D01*
X118492712Y-97091818D01*
X118620677Y-97253270D01*
X118625370Y-97257264D01*
X118625371Y-97257265D01*
X118755586Y-97368086D01*
X118777564Y-97386791D01*
X118782942Y-97389797D01*
X118782944Y-97389798D01*
X118814563Y-97407469D01*
X118957398Y-97487297D01*
X119038356Y-97513602D01*
X119147471Y-97549056D01*
X119147475Y-97549057D01*
X119153329Y-97550959D01*
X119357894Y-97575351D01*
X119364029Y-97574879D01*
X119364031Y-97574879D01*
X119420039Y-97570569D01*
X119563300Y-97559546D01*
X119569230Y-97557890D01*
X119569232Y-97557890D01*
X119693104Y-97523304D01*
X119761725Y-97504145D01*
X119767214Y-97501372D01*
X119767220Y-97501370D01*
X119913068Y-97427696D01*
X119945610Y-97411258D01*
X120107951Y-97284424D01*
X120118107Y-97272659D01*
X120238540Y-97133134D01*
X120238540Y-97133133D01*
X120242564Y-97128472D01*
X120263387Y-97091818D01*
X120307050Y-97014956D01*
X120344323Y-96949344D01*
X120360738Y-96900000D01*
X129694318Y-96900000D01*
X129695396Y-96908188D01*
X129709514Y-97015422D01*
X129714956Y-97056762D01*
X129775464Y-97202841D01*
X129871718Y-97328282D01*
X129997159Y-97424536D01*
X130143238Y-97485044D01*
X130300000Y-97505682D01*
X130308188Y-97504604D01*
X130311675Y-97504145D01*
X130456762Y-97485044D01*
X130602841Y-97424536D01*
X130728282Y-97328282D01*
X130824536Y-97202841D01*
X130885044Y-97056762D01*
X130890487Y-97015422D01*
X130902325Y-96925500D01*
X146894318Y-96925500D01*
X146914956Y-97082262D01*
X146975464Y-97228341D01*
X147071718Y-97353782D01*
X147197159Y-97450036D01*
X147343238Y-97510544D01*
X147500000Y-97531182D01*
X147508188Y-97530104D01*
X147648574Y-97511622D01*
X147656762Y-97510544D01*
X147802841Y-97450036D01*
X147928282Y-97353782D01*
X148024536Y-97228341D01*
X148025555Y-97229123D01*
X148050440Y-97205395D01*
X148048916Y-97173415D01*
X148054956Y-97154901D01*
X148081884Y-97089892D01*
X148081885Y-97089889D01*
X148085044Y-97082262D01*
X148105682Y-96925500D01*
X148085044Y-96768738D01*
X148024536Y-96622659D01*
X147934454Y-96505262D01*
X181824520Y-96505262D01*
X181825036Y-96511406D01*
X181840454Y-96695009D01*
X181841759Y-96710553D01*
X181843458Y-96716478D01*
X181865873Y-96794647D01*
X181898544Y-96908586D01*
X181901359Y-96914063D01*
X181901360Y-96914066D01*
X181982683Y-97072304D01*
X181992712Y-97091818D01*
X182120677Y-97253270D01*
X182125370Y-97257264D01*
X182125371Y-97257265D01*
X182255586Y-97368086D01*
X182277564Y-97386791D01*
X182282942Y-97389797D01*
X182282944Y-97389798D01*
X182314563Y-97407469D01*
X182457398Y-97487297D01*
X182538356Y-97513602D01*
X182647471Y-97549056D01*
X182647475Y-97549057D01*
X182653329Y-97550959D01*
X182857894Y-97575351D01*
X182864029Y-97574879D01*
X182864031Y-97574879D01*
X182920039Y-97570569D01*
X183063300Y-97559546D01*
X183069230Y-97557890D01*
X183069232Y-97557890D01*
X183193104Y-97523304D01*
X183261725Y-97504145D01*
X183267214Y-97501372D01*
X183267220Y-97501370D01*
X183413068Y-97427696D01*
X183445610Y-97411258D01*
X183607951Y-97284424D01*
X183618107Y-97272659D01*
X183738540Y-97133134D01*
X183738540Y-97133133D01*
X183742564Y-97128472D01*
X183763387Y-97091818D01*
X183807050Y-97014956D01*
X183844323Y-96949344D01*
X183909351Y-96753863D01*
X183935171Y-96549474D01*
X183935583Y-96520000D01*
X183932489Y-96488440D01*
X186754770Y-96488440D01*
X186769200Y-96708604D01*
X186770621Y-96714200D01*
X186770622Y-96714205D01*
X186795936Y-96813878D01*
X186823511Y-96922452D01*
X186825928Y-96927694D01*
X186825928Y-96927695D01*
X186901590Y-97091818D01*
X186915883Y-97122821D01*
X187043222Y-97303002D01*
X187201264Y-97456961D01*
X187206060Y-97460166D01*
X187206063Y-97460168D01*
X187312344Y-97531182D01*
X187384717Y-97579540D01*
X187390020Y-97581818D01*
X187390023Y-97581820D01*
X187582129Y-97664355D01*
X187587436Y-97666635D01*
X187667088Y-97684658D01*
X187796995Y-97714054D01*
X187797001Y-97714055D01*
X187802632Y-97715329D01*
X187808403Y-97715556D01*
X187808405Y-97715556D01*
X187876211Y-97718220D01*
X188023098Y-97723991D01*
X188132275Y-97708161D01*
X188235738Y-97693160D01*
X188235743Y-97693159D01*
X188241452Y-97692331D01*
X188246916Y-97690476D01*
X188246921Y-97690475D01*
X188444907Y-97623268D01*
X188444912Y-97623266D01*
X188450379Y-97621410D01*
X188488610Y-97600000D01*
X188565816Y-97556762D01*
X188642884Y-97513602D01*
X188650361Y-97507384D01*
X188808086Y-97376204D01*
X188812518Y-97372518D01*
X188882634Y-97288213D01*
X188949908Y-97207326D01*
X188949910Y-97207323D01*
X188953602Y-97202884D01*
X189061410Y-97010379D01*
X189063266Y-97004912D01*
X189063268Y-97004907D01*
X189130475Y-96806921D01*
X189130476Y-96806916D01*
X189132331Y-96801452D01*
X189133159Y-96795743D01*
X189133160Y-96795738D01*
X189152346Y-96663413D01*
X189163991Y-96583098D01*
X189165643Y-96520000D01*
X189145454Y-96300289D01*
X189085565Y-96087936D01*
X188987980Y-95890053D01*
X188983315Y-95883805D01*
X188859420Y-95717891D01*
X188859420Y-95717890D01*
X188855967Y-95713267D01*
X188749545Y-95614891D01*
X188698189Y-95567418D01*
X188698186Y-95567416D01*
X188693949Y-95563499D01*
X188507350Y-95445764D01*
X188302421Y-95364006D01*
X188296761Y-95362880D01*
X188296757Y-95362879D01*
X188091691Y-95322089D01*
X188091688Y-95322089D01*
X188086024Y-95320962D01*
X188080249Y-95320886D01*
X188080245Y-95320886D01*
X187969504Y-95319437D01*
X187865406Y-95318074D01*
X187859709Y-95319053D01*
X187859708Y-95319053D01*
X187653654Y-95354459D01*
X187653653Y-95354459D01*
X187647957Y-95355438D01*
X187440957Y-95431804D01*
X187435996Y-95434756D01*
X187435995Y-95434756D01*
X187259870Y-95539540D01*
X187251341Y-95544614D01*
X187085457Y-95690090D01*
X186948863Y-95863360D01*
X186846131Y-96058620D01*
X186780703Y-96269333D01*
X186754770Y-96488440D01*
X183932489Y-96488440D01*
X183915480Y-96314970D01*
X183855935Y-96117749D01*
X183759218Y-95935849D01*
X183685859Y-95845902D01*
X183632906Y-95780975D01*
X183632903Y-95780972D01*
X183629011Y-95776200D01*
X183611786Y-95761950D01*
X183475025Y-95648811D01*
X183475021Y-95648809D01*
X183470275Y-95644882D01*
X183289055Y-95546897D01*
X183092254Y-95485977D01*
X183086129Y-95485333D01*
X183086128Y-95485333D01*
X182893498Y-95465087D01*
X182893496Y-95465087D01*
X182887369Y-95464443D01*
X182800529Y-95472346D01*
X182688342Y-95482555D01*
X182688339Y-95482556D01*
X182682203Y-95483114D01*
X182484572Y-95541280D01*
X182302002Y-95636726D01*
X182297201Y-95640586D01*
X182297198Y-95640588D01*
X182156435Y-95753764D01*
X182141447Y-95765815D01*
X182009024Y-95923630D01*
X182006056Y-95929028D01*
X182006053Y-95929033D01*
X181949236Y-96032384D01*
X181909776Y-96104162D01*
X181847484Y-96300532D01*
X181846798Y-96306649D01*
X181846797Y-96306653D01*
X181827548Y-96478264D01*
X181824520Y-96505262D01*
X147934454Y-96505262D01*
X147928282Y-96497218D01*
X147802841Y-96400964D01*
X147656762Y-96340456D01*
X147500000Y-96319818D01*
X147343238Y-96340456D01*
X147197159Y-96400964D01*
X147071718Y-96497218D01*
X146975464Y-96622659D01*
X146914956Y-96768738D01*
X146894318Y-96925500D01*
X130902325Y-96925500D01*
X130904604Y-96908188D01*
X130905682Y-96900000D01*
X130902036Y-96872304D01*
X130901048Y-96864795D01*
X130911988Y-96794647D01*
X130959117Y-96741549D01*
X131027471Y-96722360D01*
X131074189Y-96731943D01*
X131135605Y-96757383D01*
X131135610Y-96757384D01*
X131143238Y-96760544D01*
X131300000Y-96781182D01*
X131308188Y-96780104D01*
X131448574Y-96761622D01*
X131456762Y-96760544D01*
X131602841Y-96700036D01*
X131728282Y-96603782D01*
X131824536Y-96478341D01*
X131885044Y-96332262D01*
X131905682Y-96175500D01*
X145594318Y-96175500D01*
X145614956Y-96332262D01*
X145675464Y-96478341D01*
X145771718Y-96603782D01*
X145897159Y-96700036D01*
X146043238Y-96760544D01*
X146200000Y-96781182D01*
X146208188Y-96780104D01*
X146348574Y-96761622D01*
X146356762Y-96760544D01*
X146502841Y-96700036D01*
X146628282Y-96603782D01*
X146724536Y-96478341D01*
X146785044Y-96332262D01*
X146805682Y-96175500D01*
X146785044Y-96018738D01*
X146724536Y-95872659D01*
X146628282Y-95747218D01*
X146502841Y-95650964D01*
X146356762Y-95590456D01*
X146200000Y-95569818D01*
X146043238Y-95590456D01*
X145897159Y-95650964D01*
X145771718Y-95747218D01*
X145675464Y-95872659D01*
X145614956Y-96018738D01*
X145594318Y-96175500D01*
X131905682Y-96175500D01*
X131885044Y-96018738D01*
X131824536Y-95872659D01*
X131728282Y-95747218D01*
X131602841Y-95650964D01*
X131456762Y-95590456D01*
X131300000Y-95569818D01*
X131143238Y-95590456D01*
X130997159Y-95650964D01*
X130871718Y-95747218D01*
X130775464Y-95872659D01*
X130714956Y-96018738D01*
X130694318Y-96175500D01*
X130695396Y-96183688D01*
X130695396Y-96183691D01*
X130698952Y-96210705D01*
X130688012Y-96280853D01*
X130640883Y-96333951D01*
X130572529Y-96353140D01*
X130525811Y-96343557D01*
X130464395Y-96318117D01*
X130464390Y-96318116D01*
X130456762Y-96314956D01*
X130389084Y-96306046D01*
X130308188Y-96295396D01*
X130300000Y-96294318D01*
X130291812Y-96295396D01*
X130210917Y-96306046D01*
X130143238Y-96314956D01*
X129997159Y-96375464D01*
X129871718Y-96471718D01*
X129775464Y-96597159D01*
X129714956Y-96743238D01*
X129694318Y-96900000D01*
X120360738Y-96900000D01*
X120409351Y-96753863D01*
X120435171Y-96549474D01*
X120435583Y-96520000D01*
X120415480Y-96314970D01*
X120355935Y-96117749D01*
X120259218Y-95935849D01*
X120185859Y-95845902D01*
X120132906Y-95780975D01*
X120132903Y-95780972D01*
X120129011Y-95776200D01*
X120111786Y-95761950D01*
X119975025Y-95648811D01*
X119975021Y-95648809D01*
X119970275Y-95644882D01*
X119789055Y-95546897D01*
X119592254Y-95485977D01*
X119586129Y-95485333D01*
X119586128Y-95485333D01*
X119393498Y-95465087D01*
X119393496Y-95465087D01*
X119387369Y-95464443D01*
X119300529Y-95472346D01*
X119188342Y-95482555D01*
X119188339Y-95482556D01*
X119182203Y-95483114D01*
X118984572Y-95541280D01*
X118802002Y-95636726D01*
X118797201Y-95640586D01*
X118797198Y-95640588D01*
X118656435Y-95753764D01*
X118641447Y-95765815D01*
X118509024Y-95923630D01*
X118506056Y-95929028D01*
X118506053Y-95929033D01*
X118449236Y-96032384D01*
X118409776Y-96104162D01*
X118347484Y-96300532D01*
X118346798Y-96306649D01*
X118346797Y-96306653D01*
X118327548Y-96478264D01*
X118324520Y-96505262D01*
X108746194Y-96505262D01*
X108746194Y-95451000D01*
X136394318Y-95451000D01*
X136414956Y-95607762D01*
X136475464Y-95753841D01*
X136571718Y-95879282D01*
X136697159Y-95975536D01*
X136843238Y-96036044D01*
X137000000Y-96056682D01*
X137008188Y-96055604D01*
X137148574Y-96037122D01*
X137156762Y-96036044D01*
X137302841Y-95975536D01*
X137428282Y-95879282D01*
X137524536Y-95753841D01*
X137585044Y-95607762D01*
X137605682Y-95451000D01*
X144294318Y-95451000D01*
X144314956Y-95607762D01*
X144375464Y-95753841D01*
X144471718Y-95879282D01*
X144597159Y-95975536D01*
X144743238Y-96036044D01*
X144900000Y-96056682D01*
X144908188Y-96055604D01*
X145048574Y-96037122D01*
X145056762Y-96036044D01*
X145202841Y-95975536D01*
X145328282Y-95879282D01*
X145424536Y-95753841D01*
X145485044Y-95607762D01*
X145505682Y-95451000D01*
X145505616Y-95450500D01*
X178394318Y-95450500D01*
X178414956Y-95607262D01*
X178475464Y-95753341D01*
X178571718Y-95878782D01*
X178697159Y-95975036D01*
X178843238Y-96035544D01*
X179000000Y-96056182D01*
X179008188Y-96055104D01*
X179020342Y-96053504D01*
X179156762Y-96035544D01*
X179302841Y-95975036D01*
X179428282Y-95878782D01*
X179524536Y-95753341D01*
X179585044Y-95607262D01*
X179605682Y-95450500D01*
X179585044Y-95293738D01*
X179524536Y-95147659D01*
X179428282Y-95022218D01*
X179302841Y-94925964D01*
X179170769Y-94871258D01*
X179164391Y-94868616D01*
X179156762Y-94865456D01*
X179000000Y-94844818D01*
X178843238Y-94865456D01*
X178835609Y-94868616D01*
X178829231Y-94871258D01*
X178697159Y-94925964D01*
X178571718Y-95022218D01*
X178475464Y-95147659D01*
X178414956Y-95293738D01*
X178394318Y-95450500D01*
X145505616Y-95450500D01*
X145485044Y-95294238D01*
X145424536Y-95148159D01*
X145337976Y-95035351D01*
X145333305Y-95029264D01*
X145328282Y-95022718D01*
X145202841Y-94926464D01*
X145056762Y-94865956D01*
X144900000Y-94845318D01*
X144743238Y-94865956D01*
X144597159Y-94926464D01*
X144471718Y-95022718D01*
X144466695Y-95029264D01*
X144462024Y-95035351D01*
X144375464Y-95148159D01*
X144314956Y-95294238D01*
X144294318Y-95451000D01*
X137605682Y-95451000D01*
X137604604Y-95442809D01*
X137601048Y-95415795D01*
X137611988Y-95345647D01*
X137659117Y-95292549D01*
X137727471Y-95273360D01*
X137774189Y-95282943D01*
X137835605Y-95308383D01*
X137835610Y-95308384D01*
X137843238Y-95311544D01*
X137851426Y-95312622D01*
X137893416Y-95318150D01*
X138000000Y-95332182D01*
X138008188Y-95331104D01*
X138148574Y-95312622D01*
X138156762Y-95311544D01*
X138302841Y-95251036D01*
X138428282Y-95154782D01*
X138524536Y-95029341D01*
X138585044Y-94883262D01*
X138605682Y-94726500D01*
X140394318Y-94726500D01*
X140414956Y-94883262D01*
X140475464Y-95029341D01*
X140571718Y-95154782D01*
X140697159Y-95251036D01*
X140843238Y-95311544D01*
X140851426Y-95312622D01*
X140893416Y-95318150D01*
X141000000Y-95332182D01*
X141008188Y-95331104D01*
X141148574Y-95312622D01*
X141156762Y-95311544D01*
X141302841Y-95251036D01*
X141428282Y-95154782D01*
X141524536Y-95029341D01*
X141585044Y-94883262D01*
X141605682Y-94726500D01*
X141585044Y-94569738D01*
X141524536Y-94423659D01*
X141428282Y-94298218D01*
X141302841Y-94201964D01*
X141156762Y-94141456D01*
X141000000Y-94120818D01*
X140843238Y-94141456D01*
X140697159Y-94201964D01*
X140571718Y-94298218D01*
X140475464Y-94423659D01*
X140414956Y-94569738D01*
X140394318Y-94726500D01*
X138605682Y-94726500D01*
X138585044Y-94569738D01*
X138524536Y-94423659D01*
X138428282Y-94298218D01*
X138302841Y-94201964D01*
X138156762Y-94141456D01*
X138000000Y-94120818D01*
X137843238Y-94141456D01*
X137697159Y-94201964D01*
X137571718Y-94298218D01*
X137475464Y-94423659D01*
X137414956Y-94569738D01*
X137394318Y-94726500D01*
X137395396Y-94734688D01*
X137395396Y-94734691D01*
X137398952Y-94761705D01*
X137388012Y-94831853D01*
X137340883Y-94884951D01*
X137272529Y-94904140D01*
X137225811Y-94894557D01*
X137164395Y-94869117D01*
X137164390Y-94869116D01*
X137156762Y-94865956D01*
X137000000Y-94845318D01*
X136843238Y-94865956D01*
X136697159Y-94926464D01*
X136571718Y-95022718D01*
X136566695Y-95029264D01*
X136562024Y-95035351D01*
X136475464Y-95148159D01*
X136414956Y-95294238D01*
X136394318Y-95451000D01*
X108746194Y-95451000D01*
X108746194Y-93965262D01*
X118324520Y-93965262D01*
X118327437Y-94000000D01*
X118341242Y-94164391D01*
X118341759Y-94170553D01*
X118398544Y-94368586D01*
X118401359Y-94374063D01*
X118401360Y-94374066D01*
X118478691Y-94524536D01*
X118492712Y-94551818D01*
X118620677Y-94713270D01*
X118777564Y-94846791D01*
X118782942Y-94849797D01*
X118782944Y-94849798D01*
X118863031Y-94894557D01*
X118957398Y-94947297D01*
X119052238Y-94978113D01*
X119147471Y-95009056D01*
X119147475Y-95009057D01*
X119153329Y-95010959D01*
X119357894Y-95035351D01*
X119364029Y-95034879D01*
X119364031Y-95034879D01*
X119420039Y-95030569D01*
X119563300Y-95019546D01*
X119569230Y-95017890D01*
X119569232Y-95017890D01*
X119755797Y-94965800D01*
X119755796Y-94965800D01*
X119761725Y-94964145D01*
X119767214Y-94961372D01*
X119767220Y-94961370D01*
X119921846Y-94883262D01*
X119945610Y-94871258D01*
X119952397Y-94865956D01*
X120103101Y-94748213D01*
X120107951Y-94744424D01*
X120116353Y-94734691D01*
X120238540Y-94593134D01*
X120238540Y-94593133D01*
X120242564Y-94588472D01*
X120253207Y-94569738D01*
X120331856Y-94431289D01*
X120344323Y-94409344D01*
X120347431Y-94400000D01*
X134894318Y-94400000D01*
X134914956Y-94556762D01*
X134975464Y-94702841D01*
X135071718Y-94828282D01*
X135197159Y-94924536D01*
X135343238Y-94985044D01*
X135500000Y-95005682D01*
X135508188Y-95004604D01*
X135648574Y-94986122D01*
X135656762Y-94985044D01*
X135802841Y-94924536D01*
X135928282Y-94828282D01*
X136024536Y-94702841D01*
X136085044Y-94556762D01*
X136105682Y-94400000D01*
X136085044Y-94243238D01*
X136024536Y-94097159D01*
X135954548Y-94005949D01*
X135949983Y-94000000D01*
X143094318Y-94000000D01*
X143114956Y-94156762D01*
X143175464Y-94302841D01*
X143180491Y-94309392D01*
X143261302Y-94414707D01*
X143271718Y-94428282D01*
X143397159Y-94524536D01*
X143543238Y-94585044D01*
X143700000Y-94605682D01*
X143708188Y-94604604D01*
X143848574Y-94586122D01*
X143856762Y-94585044D01*
X144002841Y-94524536D01*
X144128282Y-94428282D01*
X144138699Y-94414707D01*
X144219509Y-94309392D01*
X144224536Y-94302841D01*
X144285044Y-94156762D01*
X144305682Y-94000000D01*
X174694318Y-94000000D01*
X174714956Y-94156762D01*
X174775464Y-94302841D01*
X174780491Y-94309392D01*
X174861302Y-94414707D01*
X174871718Y-94428282D01*
X174997159Y-94524536D01*
X175143238Y-94585044D01*
X175300000Y-94605682D01*
X175308188Y-94604604D01*
X175448574Y-94586122D01*
X175456762Y-94585044D01*
X175602841Y-94524536D01*
X175728282Y-94428282D01*
X175738699Y-94414707D01*
X175819509Y-94309392D01*
X175824536Y-94302841D01*
X175885044Y-94156762D01*
X175905682Y-94000000D01*
X175901109Y-93965262D01*
X181824520Y-93965262D01*
X181827437Y-94000000D01*
X181841242Y-94164391D01*
X181841759Y-94170553D01*
X181898544Y-94368586D01*
X181901359Y-94374063D01*
X181901360Y-94374066D01*
X181978691Y-94524536D01*
X181992712Y-94551818D01*
X182120677Y-94713270D01*
X182277564Y-94846791D01*
X182282942Y-94849797D01*
X182282944Y-94849798D01*
X182363031Y-94894557D01*
X182457398Y-94947297D01*
X182552238Y-94978113D01*
X182647471Y-95009056D01*
X182647475Y-95009057D01*
X182653329Y-95010959D01*
X182857894Y-95035351D01*
X182864029Y-95034879D01*
X182864031Y-95034879D01*
X182920039Y-95030569D01*
X183063300Y-95019546D01*
X183069230Y-95017890D01*
X183069232Y-95017890D01*
X183255797Y-94965800D01*
X183255796Y-94965800D01*
X183261725Y-94964145D01*
X183267214Y-94961372D01*
X183267220Y-94961370D01*
X183421846Y-94883262D01*
X183445610Y-94871258D01*
X183452397Y-94865956D01*
X183603101Y-94748213D01*
X183607951Y-94744424D01*
X183616353Y-94734691D01*
X183738540Y-94593134D01*
X183738540Y-94593133D01*
X183742564Y-94588472D01*
X183753207Y-94569738D01*
X183831856Y-94431289D01*
X183844323Y-94409344D01*
X183909351Y-94213863D01*
X183935171Y-94009474D01*
X183935583Y-93980000D01*
X183915480Y-93774970D01*
X183855935Y-93577749D01*
X183759218Y-93395849D01*
X183669727Y-93286122D01*
X183632906Y-93240975D01*
X183632903Y-93240972D01*
X183629011Y-93236200D01*
X183619440Y-93228282D01*
X183475025Y-93108811D01*
X183475021Y-93108809D01*
X183470275Y-93104882D01*
X183289055Y-93006897D01*
X183092254Y-92945977D01*
X183086129Y-92945333D01*
X183086128Y-92945333D01*
X182893498Y-92925087D01*
X182893496Y-92925087D01*
X182887369Y-92924443D01*
X182800529Y-92932346D01*
X182688342Y-92942555D01*
X182688339Y-92942556D01*
X182682203Y-92943114D01*
X182484572Y-93001280D01*
X182302002Y-93096726D01*
X182297201Y-93100586D01*
X182297198Y-93100588D01*
X182149290Y-93219509D01*
X182141447Y-93225815D01*
X182009024Y-93383630D01*
X182006056Y-93389028D01*
X182006053Y-93389033D01*
X181991802Y-93414956D01*
X181909776Y-93564162D01*
X181847484Y-93760532D01*
X181846798Y-93766649D01*
X181846797Y-93766653D01*
X181825207Y-93959137D01*
X181824520Y-93965262D01*
X175901109Y-93965262D01*
X175885044Y-93843238D01*
X175824536Y-93697159D01*
X175728282Y-93571718D01*
X175602841Y-93475464D01*
X175456762Y-93414956D01*
X175300000Y-93394318D01*
X175143238Y-93414956D01*
X174997159Y-93475464D01*
X174871718Y-93571718D01*
X174775464Y-93697159D01*
X174714956Y-93843238D01*
X174694318Y-94000000D01*
X144305682Y-94000000D01*
X144285044Y-93843238D01*
X144224536Y-93697159D01*
X144128282Y-93571718D01*
X144002841Y-93475464D01*
X143856762Y-93414956D01*
X143700000Y-93394318D01*
X143543238Y-93414956D01*
X143397159Y-93475464D01*
X143271718Y-93571718D01*
X143175464Y-93697159D01*
X143114956Y-93843238D01*
X143094318Y-94000000D01*
X135949983Y-94000000D01*
X135933305Y-93978264D01*
X135928282Y-93971718D01*
X135802841Y-93875464D01*
X135656762Y-93814956D01*
X135500000Y-93794318D01*
X135343238Y-93814956D01*
X135197159Y-93875464D01*
X135071718Y-93971718D01*
X135066695Y-93978264D01*
X135045452Y-94005949D01*
X134975464Y-94097159D01*
X134914956Y-94243238D01*
X134894318Y-94400000D01*
X120347431Y-94400000D01*
X120409351Y-94213863D01*
X120435171Y-94009474D01*
X120435583Y-93980000D01*
X120415480Y-93774970D01*
X120355935Y-93577749D01*
X120259218Y-93395849D01*
X120169727Y-93286122D01*
X120132906Y-93240975D01*
X120132903Y-93240972D01*
X120129011Y-93236200D01*
X120119440Y-93228282D01*
X119975025Y-93108811D01*
X119975021Y-93108809D01*
X119970275Y-93104882D01*
X119789055Y-93006897D01*
X119592254Y-92945977D01*
X119586129Y-92945333D01*
X119586128Y-92945333D01*
X119393498Y-92925087D01*
X119393496Y-92925087D01*
X119387369Y-92924443D01*
X119300529Y-92932346D01*
X119188342Y-92942555D01*
X119188339Y-92942556D01*
X119182203Y-92943114D01*
X118984572Y-93001280D01*
X118802002Y-93096726D01*
X118797201Y-93100586D01*
X118797198Y-93100588D01*
X118649290Y-93219509D01*
X118641447Y-93225815D01*
X118509024Y-93383630D01*
X118506056Y-93389028D01*
X118506053Y-93389033D01*
X118491802Y-93414956D01*
X118409776Y-93564162D01*
X118347484Y-93760532D01*
X118346798Y-93766649D01*
X118346797Y-93766653D01*
X118325207Y-93959137D01*
X118324520Y-93965262D01*
X108746194Y-93965262D01*
X108746194Y-92800000D01*
X122394318Y-92800000D01*
X122414956Y-92956762D01*
X122475464Y-93102841D01*
X122571718Y-93228282D01*
X122697159Y-93324536D01*
X122843238Y-93385044D01*
X122851426Y-93386122D01*
X122889033Y-93391073D01*
X123000000Y-93405682D01*
X123008188Y-93404604D01*
X123148574Y-93386122D01*
X123156762Y-93385044D01*
X123302841Y-93324536D01*
X123428282Y-93228282D01*
X123524536Y-93102841D01*
X123585044Y-92956762D01*
X123605682Y-92800000D01*
X123592517Y-92700000D01*
X124294318Y-92700000D01*
X124314956Y-92856762D01*
X124375464Y-93002841D01*
X124471718Y-93128282D01*
X124597159Y-93224536D01*
X124743238Y-93285044D01*
X124900000Y-93305682D01*
X124908188Y-93304604D01*
X125048574Y-93286122D01*
X125056762Y-93285044D01*
X125202841Y-93224536D01*
X125328282Y-93128282D01*
X125424536Y-93002841D01*
X125485044Y-92856762D01*
X125505682Y-92700000D01*
X136394318Y-92700000D01*
X136414956Y-92856762D01*
X136475464Y-93002841D01*
X136571718Y-93128282D01*
X136697159Y-93224536D01*
X136843238Y-93285044D01*
X137000000Y-93305682D01*
X137008188Y-93304604D01*
X137148574Y-93286122D01*
X137156762Y-93285044D01*
X137302841Y-93224536D01*
X137428282Y-93128282D01*
X137524536Y-93002841D01*
X137585044Y-92856762D01*
X137605682Y-92700000D01*
X137590534Y-92584942D01*
X137601473Y-92514795D01*
X137648601Y-92461696D01*
X137716955Y-92442506D01*
X137763674Y-92452088D01*
X137835608Y-92481884D01*
X137835611Y-92481885D01*
X137843238Y-92485044D01*
X137851426Y-92486122D01*
X137917943Y-92494879D01*
X138000000Y-92505682D01*
X138008188Y-92504604D01*
X138148574Y-92486122D01*
X138156762Y-92485044D01*
X138302841Y-92424536D01*
X138428282Y-92328282D01*
X138524536Y-92202841D01*
X138567134Y-92100000D01*
X163518818Y-92100000D01*
X163539456Y-92256762D01*
X163599964Y-92402841D01*
X163696218Y-92528282D01*
X163821659Y-92624536D01*
X163967738Y-92685044D01*
X164124500Y-92705682D01*
X164132688Y-92704604D01*
X164273074Y-92686122D01*
X164281262Y-92685044D01*
X164427341Y-92624536D01*
X164552782Y-92528282D01*
X164649036Y-92402841D01*
X164709544Y-92256762D01*
X164730182Y-92100000D01*
X164709544Y-91943238D01*
X164649036Y-91797159D01*
X164552782Y-91671718D01*
X164427341Y-91575464D01*
X164281262Y-91514956D01*
X164124500Y-91494318D01*
X163967738Y-91514956D01*
X163821659Y-91575464D01*
X163696218Y-91671718D01*
X163599964Y-91797159D01*
X163539456Y-91943238D01*
X163518818Y-92100000D01*
X138567134Y-92100000D01*
X138585044Y-92056762D01*
X138586259Y-92047537D01*
X138604604Y-91908188D01*
X138604604Y-91908187D01*
X138605682Y-91900000D01*
X138585044Y-91743238D01*
X138524536Y-91597159D01*
X138428282Y-91471718D01*
X138367739Y-91425262D01*
X181824520Y-91425262D01*
X181825036Y-91431406D01*
X181839596Y-91604789D01*
X181841759Y-91630553D01*
X181843458Y-91636478D01*
X181893533Y-91811109D01*
X181898544Y-91828586D01*
X181901359Y-91834063D01*
X181901360Y-91834066D01*
X181948046Y-91924907D01*
X181992712Y-92011818D01*
X182120677Y-92173270D01*
X182125370Y-92177264D01*
X182125371Y-92177265D01*
X182255586Y-92288086D01*
X182277564Y-92306791D01*
X182282942Y-92309797D01*
X182282944Y-92309798D01*
X182321342Y-92331258D01*
X182457398Y-92407297D01*
X182538356Y-92433602D01*
X182647471Y-92469056D01*
X182647475Y-92469057D01*
X182653329Y-92470959D01*
X182857894Y-92495351D01*
X182864029Y-92494879D01*
X182864031Y-92494879D01*
X182920039Y-92490569D01*
X183063300Y-92479546D01*
X183069230Y-92477890D01*
X183069232Y-92477890D01*
X183195963Y-92442506D01*
X183261725Y-92424145D01*
X183267214Y-92421372D01*
X183267220Y-92421370D01*
X183440116Y-92334033D01*
X183445610Y-92331258D01*
X183607951Y-92204424D01*
X183615904Y-92195211D01*
X183738540Y-92053134D01*
X183738540Y-92053133D01*
X183742564Y-92048472D01*
X183763387Y-92011818D01*
X183812759Y-91924907D01*
X183844323Y-91869344D01*
X183909351Y-91673863D01*
X183935171Y-91469474D01*
X183935583Y-91440000D01*
X183932489Y-91408440D01*
X186754770Y-91408440D01*
X186769200Y-91628604D01*
X186770621Y-91634200D01*
X186770622Y-91634205D01*
X186800393Y-91751426D01*
X186823511Y-91842452D01*
X186825928Y-91847694D01*
X186825928Y-91847695D01*
X186864046Y-91930379D01*
X186915883Y-92042821D01*
X187043222Y-92223002D01*
X187201264Y-92376961D01*
X187206060Y-92380166D01*
X187206063Y-92380168D01*
X187290261Y-92436427D01*
X187384717Y-92499540D01*
X187390020Y-92501818D01*
X187390023Y-92501820D01*
X187574744Y-92581182D01*
X187587436Y-92586635D01*
X187667088Y-92604658D01*
X187796995Y-92634054D01*
X187797001Y-92634055D01*
X187802632Y-92635329D01*
X187808403Y-92635556D01*
X187808405Y-92635556D01*
X187876211Y-92638220D01*
X188023098Y-92643991D01*
X188135482Y-92627696D01*
X188235738Y-92613160D01*
X188235743Y-92613159D01*
X188241452Y-92612331D01*
X188246916Y-92610476D01*
X188246921Y-92610475D01*
X188444907Y-92543268D01*
X188444912Y-92543266D01*
X188450379Y-92541410D01*
X188460738Y-92535609D01*
X188563802Y-92477890D01*
X188642884Y-92433602D01*
X188649986Y-92427696D01*
X188808086Y-92296204D01*
X188812518Y-92292518D01*
X188882634Y-92208213D01*
X188949908Y-92127326D01*
X188949910Y-92127323D01*
X188953602Y-92122884D01*
X189061410Y-91930379D01*
X189063266Y-91924912D01*
X189063268Y-91924907D01*
X189130475Y-91726921D01*
X189130476Y-91726916D01*
X189132331Y-91721452D01*
X189133159Y-91715743D01*
X189133160Y-91715738D01*
X189161813Y-91518116D01*
X189163991Y-91503098D01*
X189165643Y-91440000D01*
X189145454Y-91220289D01*
X189085565Y-91007936D01*
X188987980Y-90810053D01*
X188892321Y-90681950D01*
X188859420Y-90637891D01*
X188859420Y-90637890D01*
X188855967Y-90633267D01*
X188721960Y-90509392D01*
X188698189Y-90487418D01*
X188698186Y-90487416D01*
X188693949Y-90483499D01*
X188507350Y-90365764D01*
X188302421Y-90284006D01*
X188296761Y-90282880D01*
X188296757Y-90282879D01*
X188091691Y-90242089D01*
X188091688Y-90242089D01*
X188086024Y-90240962D01*
X188080249Y-90240886D01*
X188080245Y-90240886D01*
X187969504Y-90239437D01*
X187865406Y-90238074D01*
X187859709Y-90239053D01*
X187859708Y-90239053D01*
X187653654Y-90274459D01*
X187653653Y-90274459D01*
X187647957Y-90275438D01*
X187440957Y-90351804D01*
X187435996Y-90354756D01*
X187435995Y-90354756D01*
X187259870Y-90459540D01*
X187251341Y-90464614D01*
X187085457Y-90610090D01*
X186948863Y-90783360D01*
X186846131Y-90978620D01*
X186780703Y-91189333D01*
X186754770Y-91408440D01*
X183932489Y-91408440D01*
X183915480Y-91234970D01*
X183855935Y-91037749D01*
X183759218Y-90855849D01*
X183654699Y-90727696D01*
X183632906Y-90700975D01*
X183632903Y-90700972D01*
X183629011Y-90696200D01*
X183558528Y-90637891D01*
X183475025Y-90568811D01*
X183475021Y-90568809D01*
X183470275Y-90564882D01*
X183289055Y-90466897D01*
X183092254Y-90405977D01*
X183086129Y-90405333D01*
X183086128Y-90405333D01*
X182893498Y-90385087D01*
X182893496Y-90385087D01*
X182887369Y-90384443D01*
X182800529Y-90392346D01*
X182688342Y-90402555D01*
X182688339Y-90402556D01*
X182682203Y-90403114D01*
X182484572Y-90461280D01*
X182302002Y-90556726D01*
X182297201Y-90560586D01*
X182297198Y-90560588D01*
X182194402Y-90643238D01*
X182141447Y-90685815D01*
X182009024Y-90843630D01*
X182006056Y-90849028D01*
X182006053Y-90849033D01*
X181946829Y-90956762D01*
X181909776Y-91024162D01*
X181847484Y-91220532D01*
X181846798Y-91226649D01*
X181846797Y-91226653D01*
X181829031Y-91385044D01*
X181824520Y-91425262D01*
X138367739Y-91425262D01*
X138302841Y-91375464D01*
X138156762Y-91314956D01*
X138000000Y-91294318D01*
X137843238Y-91314956D01*
X137697159Y-91375464D01*
X137571718Y-91471718D01*
X137475464Y-91597159D01*
X137414956Y-91743238D01*
X137394318Y-91900000D01*
X137409466Y-92015058D01*
X137398527Y-92085205D01*
X137351399Y-92138304D01*
X137283045Y-92157494D01*
X137236326Y-92147912D01*
X137164392Y-92118116D01*
X137164389Y-92118115D01*
X137156762Y-92114956D01*
X137000000Y-92094318D01*
X136843238Y-92114956D01*
X136697159Y-92175464D01*
X136571718Y-92271718D01*
X136475464Y-92397159D01*
X136414956Y-92543238D01*
X136394318Y-92700000D01*
X125505682Y-92700000D01*
X125485044Y-92543238D01*
X125424536Y-92397159D01*
X125328282Y-92271718D01*
X125202841Y-92175464D01*
X125056762Y-92114956D01*
X124900000Y-92094318D01*
X124743238Y-92114956D01*
X124597159Y-92175464D01*
X124471718Y-92271718D01*
X124375464Y-92397159D01*
X124314956Y-92543238D01*
X124294318Y-92700000D01*
X123592517Y-92700000D01*
X123585044Y-92643238D01*
X123524536Y-92497159D01*
X123428282Y-92371718D01*
X123302841Y-92275464D01*
X123156762Y-92214956D01*
X123000000Y-92194318D01*
X122843238Y-92214956D01*
X122697159Y-92275464D01*
X122571718Y-92371718D01*
X122475464Y-92497159D01*
X122414956Y-92643238D01*
X122394318Y-92800000D01*
X108746194Y-92800000D01*
X108746194Y-91425262D01*
X118324520Y-91425262D01*
X118325036Y-91431406D01*
X118339596Y-91604789D01*
X118341759Y-91630553D01*
X118343458Y-91636478D01*
X118393533Y-91811109D01*
X118398544Y-91828586D01*
X118401359Y-91834063D01*
X118401360Y-91834066D01*
X118448046Y-91924907D01*
X118492712Y-92011818D01*
X118620677Y-92173270D01*
X118625370Y-92177264D01*
X118625371Y-92177265D01*
X118755586Y-92288086D01*
X118777564Y-92306791D01*
X118782942Y-92309797D01*
X118782944Y-92309798D01*
X118821342Y-92331258D01*
X118957398Y-92407297D01*
X119038356Y-92433602D01*
X119147471Y-92469056D01*
X119147475Y-92469057D01*
X119153329Y-92470959D01*
X119357894Y-92495351D01*
X119364029Y-92494879D01*
X119364031Y-92494879D01*
X119420039Y-92490569D01*
X119563300Y-92479546D01*
X119569230Y-92477890D01*
X119569232Y-92477890D01*
X119695963Y-92442506D01*
X119761725Y-92424145D01*
X119767214Y-92421372D01*
X119767220Y-92421370D01*
X119940116Y-92334033D01*
X119945610Y-92331258D01*
X120107951Y-92204424D01*
X120115904Y-92195211D01*
X120238540Y-92053134D01*
X120238540Y-92053133D01*
X120242564Y-92048472D01*
X120263387Y-92011818D01*
X120284018Y-91975500D01*
X131894318Y-91975500D01*
X131914956Y-92132262D01*
X131975464Y-92278341D01*
X132071718Y-92403782D01*
X132078264Y-92408805D01*
X132173503Y-92481884D01*
X132197159Y-92500036D01*
X132343238Y-92560544D01*
X132500000Y-92581182D01*
X132508188Y-92580104D01*
X132648574Y-92561622D01*
X132656762Y-92560544D01*
X132802841Y-92500036D01*
X132826498Y-92481884D01*
X132921736Y-92408805D01*
X132928282Y-92403782D01*
X133024536Y-92278341D01*
X133085044Y-92132262D01*
X133105682Y-91975500D01*
X133085044Y-91818738D01*
X133024536Y-91672659D01*
X132928282Y-91547218D01*
X132802841Y-91450964D01*
X132656762Y-91390456D01*
X132500000Y-91369818D01*
X132343238Y-91390456D01*
X132197159Y-91450964D01*
X132071718Y-91547218D01*
X131975464Y-91672659D01*
X131914956Y-91818738D01*
X131894318Y-91975500D01*
X120284018Y-91975500D01*
X120312759Y-91924907D01*
X120344323Y-91869344D01*
X120409351Y-91673863D01*
X120435171Y-91469474D01*
X120435583Y-91440000D01*
X120415480Y-91234970D01*
X120355935Y-91037749D01*
X120259218Y-90855849D01*
X120154699Y-90727696D01*
X120132906Y-90700975D01*
X120132903Y-90700972D01*
X120129011Y-90696200D01*
X120058528Y-90637891D01*
X119975025Y-90568811D01*
X119975021Y-90568809D01*
X119970275Y-90564882D01*
X119789055Y-90466897D01*
X119592254Y-90405977D01*
X119586129Y-90405333D01*
X119586128Y-90405333D01*
X119393498Y-90385087D01*
X119393496Y-90385087D01*
X119387369Y-90384443D01*
X119300529Y-90392346D01*
X119188342Y-90402555D01*
X119188339Y-90402556D01*
X119182203Y-90403114D01*
X118984572Y-90461280D01*
X118802002Y-90556726D01*
X118797201Y-90560586D01*
X118797198Y-90560588D01*
X118694402Y-90643238D01*
X118641447Y-90685815D01*
X118509024Y-90843630D01*
X118506056Y-90849028D01*
X118506053Y-90849033D01*
X118446829Y-90956762D01*
X118409776Y-91024162D01*
X118347484Y-91220532D01*
X118346798Y-91226649D01*
X118346797Y-91226653D01*
X118329031Y-91385044D01*
X118324520Y-91425262D01*
X108746194Y-91425262D01*
X108746194Y-90200000D01*
X149494318Y-90200000D01*
X149514956Y-90356762D01*
X149575464Y-90502841D01*
X149671718Y-90628282D01*
X149797159Y-90724536D01*
X149943238Y-90785044D01*
X150100000Y-90805682D01*
X150108188Y-90804604D01*
X150143159Y-90800000D01*
X162794318Y-90800000D01*
X162814956Y-90956762D01*
X162875464Y-91102841D01*
X162971718Y-91228282D01*
X163097159Y-91324536D01*
X163243238Y-91385044D01*
X163400000Y-91405682D01*
X163408188Y-91404604D01*
X163422613Y-91402705D01*
X163556762Y-91385044D01*
X163702841Y-91324536D01*
X163828282Y-91228282D01*
X163924536Y-91102841D01*
X163985044Y-90956762D01*
X164005682Y-90800000D01*
X163985044Y-90643238D01*
X163924536Y-90497159D01*
X163828282Y-90371718D01*
X163802330Y-90351804D01*
X163709392Y-90280491D01*
X163702841Y-90275464D01*
X163556762Y-90214956D01*
X163400000Y-90194318D01*
X163243238Y-90214956D01*
X163097159Y-90275464D01*
X163090608Y-90280491D01*
X162997671Y-90351804D01*
X162971718Y-90371718D01*
X162875464Y-90497159D01*
X162814956Y-90643238D01*
X162794318Y-90800000D01*
X150143159Y-90800000D01*
X150248574Y-90786122D01*
X150256762Y-90785044D01*
X150402841Y-90724536D01*
X150528282Y-90628282D01*
X150624536Y-90502841D01*
X150685044Y-90356762D01*
X150705682Y-90200000D01*
X150692517Y-90100000D01*
X153694318Y-90100000D01*
X153714956Y-90256762D01*
X153775464Y-90402841D01*
X153871718Y-90528282D01*
X153997159Y-90624536D01*
X154143238Y-90685044D01*
X154300000Y-90705682D01*
X154308188Y-90704604D01*
X154448574Y-90686122D01*
X154456762Y-90685044D01*
X154602841Y-90624536D01*
X154728282Y-90528282D01*
X154824536Y-90402841D01*
X154885044Y-90256762D01*
X154905682Y-90100000D01*
X154885044Y-89943238D01*
X154824536Y-89797159D01*
X154756059Y-89707918D01*
X154733305Y-89678264D01*
X154728282Y-89671718D01*
X154699979Y-89650000D01*
X154678175Y-89633270D01*
X154627972Y-89594748D01*
X161684500Y-89594748D01*
X161685707Y-89600816D01*
X161692163Y-89633270D01*
X161696133Y-89653231D01*
X161703026Y-89663547D01*
X161706144Y-89668213D01*
X161740448Y-89719552D01*
X161750761Y-89726443D01*
X161785961Y-89749963D01*
X161806769Y-89763867D01*
X161818938Y-89766288D01*
X161818939Y-89766288D01*
X161859184Y-89774293D01*
X161865252Y-89775500D01*
X163254748Y-89775500D01*
X163260816Y-89774293D01*
X163301061Y-89766288D01*
X163301062Y-89766288D01*
X163313231Y-89763867D01*
X163334040Y-89749963D01*
X163369239Y-89726443D01*
X163379552Y-89719552D01*
X163413856Y-89668213D01*
X163416974Y-89663547D01*
X163423867Y-89653231D01*
X163427838Y-89633270D01*
X163434293Y-89600816D01*
X163435500Y-89594748D01*
X171844500Y-89594748D01*
X171845707Y-89600816D01*
X171852163Y-89633270D01*
X171856133Y-89653231D01*
X171863026Y-89663547D01*
X171866144Y-89668213D01*
X171900448Y-89719552D01*
X171910761Y-89726443D01*
X171945961Y-89749963D01*
X171966769Y-89763867D01*
X171978938Y-89766288D01*
X171978939Y-89766288D01*
X172019184Y-89774293D01*
X172025252Y-89775500D01*
X173414748Y-89775500D01*
X173420816Y-89774293D01*
X173461061Y-89766288D01*
X173461062Y-89766288D01*
X173473231Y-89763867D01*
X173494040Y-89749963D01*
X173529239Y-89726443D01*
X173539552Y-89719552D01*
X173573856Y-89668213D01*
X173576974Y-89663547D01*
X173583867Y-89653231D01*
X173587838Y-89633270D01*
X173594293Y-89600816D01*
X173595500Y-89594748D01*
X173595500Y-88885262D01*
X181824520Y-88885262D01*
X181841759Y-89090553D01*
X181843458Y-89096478D01*
X181889419Y-89256762D01*
X181898544Y-89288586D01*
X181901359Y-89294063D01*
X181901360Y-89294066D01*
X181965829Y-89419509D01*
X181992712Y-89471818D01*
X182120677Y-89633270D01*
X182125370Y-89637264D01*
X182125371Y-89637265D01*
X182255586Y-89748086D01*
X182277564Y-89766791D01*
X182282942Y-89769797D01*
X182282944Y-89769798D01*
X182290987Y-89774293D01*
X182457398Y-89867297D01*
X182529142Y-89890608D01*
X182647471Y-89929056D01*
X182647475Y-89929057D01*
X182653329Y-89930959D01*
X182857894Y-89955351D01*
X182864029Y-89954879D01*
X182864031Y-89954879D01*
X182920039Y-89950569D01*
X183063300Y-89939546D01*
X183069230Y-89937890D01*
X183069232Y-89937890D01*
X183215114Y-89897159D01*
X183261725Y-89884145D01*
X183267214Y-89881372D01*
X183267220Y-89881370D01*
X183440116Y-89794033D01*
X183445610Y-89791258D01*
X183465780Y-89775500D01*
X183590207Y-89678287D01*
X183607951Y-89664424D01*
X183617613Y-89653231D01*
X183738540Y-89513134D01*
X183738540Y-89513133D01*
X183742564Y-89508472D01*
X183763387Y-89471818D01*
X183841276Y-89334707D01*
X183844323Y-89329344D01*
X183909351Y-89133863D01*
X183935171Y-88929474D01*
X183935583Y-88900000D01*
X183915480Y-88694970D01*
X183855935Y-88497749D01*
X183759218Y-88315849D01*
X183664068Y-88199184D01*
X183632906Y-88160975D01*
X183632903Y-88160972D01*
X183629011Y-88156200D01*
X183558528Y-88097891D01*
X183475025Y-88028811D01*
X183475021Y-88028809D01*
X183470275Y-88024882D01*
X183289055Y-87926897D01*
X183092254Y-87865977D01*
X183086129Y-87865333D01*
X183086128Y-87865333D01*
X182893498Y-87845087D01*
X182893496Y-87845087D01*
X182887369Y-87844443D01*
X182800529Y-87852346D01*
X182688342Y-87862555D01*
X182688339Y-87862556D01*
X182682203Y-87863114D01*
X182484572Y-87921280D01*
X182302002Y-88016726D01*
X182297201Y-88020586D01*
X182297198Y-88020588D01*
X182153091Y-88136453D01*
X182141447Y-88145815D01*
X182009024Y-88303630D01*
X182006056Y-88309028D01*
X182006053Y-88309033D01*
X181918696Y-88467936D01*
X181909776Y-88484162D01*
X181847484Y-88680532D01*
X181846798Y-88686649D01*
X181846797Y-88686653D01*
X181841306Y-88735609D01*
X181824520Y-88885262D01*
X173595500Y-88885262D01*
X173595500Y-88205252D01*
X173583867Y-88146769D01*
X173539552Y-88080448D01*
X173473231Y-88036133D01*
X173461062Y-88033712D01*
X173461061Y-88033712D01*
X173420816Y-88025707D01*
X173414748Y-88024500D01*
X172025252Y-88024500D01*
X172019184Y-88025707D01*
X171978939Y-88033712D01*
X171978938Y-88033712D01*
X171966769Y-88036133D01*
X171900448Y-88080448D01*
X171856133Y-88146769D01*
X171844500Y-88205252D01*
X171844500Y-89594748D01*
X163435500Y-89594748D01*
X163435500Y-88205252D01*
X163423867Y-88146769D01*
X163379552Y-88080448D01*
X163313231Y-88036133D01*
X163301062Y-88033712D01*
X163301061Y-88033712D01*
X163260816Y-88025707D01*
X163254748Y-88024500D01*
X161865252Y-88024500D01*
X161859184Y-88025707D01*
X161818939Y-88033712D01*
X161818938Y-88033712D01*
X161806769Y-88036133D01*
X161740448Y-88080448D01*
X161696133Y-88146769D01*
X161684500Y-88205252D01*
X161684500Y-89594748D01*
X154627972Y-89594748D01*
X154602841Y-89575464D01*
X154456762Y-89514956D01*
X154442923Y-89513134D01*
X154308188Y-89495396D01*
X154300000Y-89494318D01*
X154291812Y-89495396D01*
X154157078Y-89513134D01*
X154143238Y-89514956D01*
X153997159Y-89575464D01*
X153921825Y-89633270D01*
X153900022Y-89650000D01*
X153871718Y-89671718D01*
X153866695Y-89678264D01*
X153843941Y-89707918D01*
X153775464Y-89797159D01*
X153714956Y-89943238D01*
X153694318Y-90100000D01*
X150692517Y-90100000D01*
X150685044Y-90043238D01*
X150624536Y-89897159D01*
X150528282Y-89771718D01*
X150521736Y-89766695D01*
X150521733Y-89766692D01*
X150499931Y-89749963D01*
X150458063Y-89692625D01*
X150453841Y-89621754D01*
X150469007Y-89594748D01*
X151524500Y-89594748D01*
X151525707Y-89600816D01*
X151532163Y-89633270D01*
X151536133Y-89653231D01*
X151543026Y-89663547D01*
X151546144Y-89668213D01*
X151580448Y-89719552D01*
X151590761Y-89726443D01*
X151625961Y-89749963D01*
X151646769Y-89763867D01*
X151658938Y-89766288D01*
X151658939Y-89766288D01*
X151699184Y-89774293D01*
X151705252Y-89775500D01*
X153094748Y-89775500D01*
X153100816Y-89774293D01*
X153141061Y-89766288D01*
X153141062Y-89766288D01*
X153153231Y-89763867D01*
X153174040Y-89749963D01*
X153209239Y-89726443D01*
X153219552Y-89719552D01*
X153253856Y-89668213D01*
X153256974Y-89663547D01*
X153263867Y-89653231D01*
X153267838Y-89633270D01*
X153274293Y-89600816D01*
X153275500Y-89594748D01*
X153275500Y-88900000D01*
X158294318Y-88900000D01*
X158314956Y-89056762D01*
X158375464Y-89202841D01*
X158471718Y-89328282D01*
X158597159Y-89424536D01*
X158743238Y-89485044D01*
X158900000Y-89505682D01*
X158908188Y-89504604D01*
X158921732Y-89502821D01*
X159056762Y-89485044D01*
X159202841Y-89424536D01*
X159328282Y-89328282D01*
X159424536Y-89202841D01*
X159485044Y-89056762D01*
X159505682Y-88900000D01*
X159485044Y-88743238D01*
X159424536Y-88597159D01*
X159328282Y-88471718D01*
X159202841Y-88375464D01*
X159056762Y-88314956D01*
X158900000Y-88294318D01*
X158743238Y-88314956D01*
X158597159Y-88375464D01*
X158471718Y-88471718D01*
X158375464Y-88597159D01*
X158314956Y-88743238D01*
X158294318Y-88900000D01*
X153275500Y-88900000D01*
X153275500Y-88205252D01*
X153263867Y-88146769D01*
X153219552Y-88080448D01*
X153153231Y-88036133D01*
X153141062Y-88033712D01*
X153141061Y-88033712D01*
X153100816Y-88025707D01*
X153094748Y-88024500D01*
X151705252Y-88024500D01*
X151699184Y-88025707D01*
X151658939Y-88033712D01*
X151658938Y-88033712D01*
X151646769Y-88036133D01*
X151580448Y-88080448D01*
X151536133Y-88146769D01*
X151524500Y-88205252D01*
X151524500Y-89594748D01*
X150469007Y-89594748D01*
X150488605Y-89559851D01*
X150499931Y-89550037D01*
X150521733Y-89533308D01*
X150521736Y-89533305D01*
X150528282Y-89528282D01*
X150539906Y-89513134D01*
X150619509Y-89409392D01*
X150624536Y-89402841D01*
X150685044Y-89256762D01*
X150705682Y-89100000D01*
X150685044Y-88943238D01*
X150624536Y-88797159D01*
X150528282Y-88671718D01*
X150402841Y-88575464D01*
X150256762Y-88514956D01*
X150100000Y-88494318D01*
X149943238Y-88514956D01*
X149797159Y-88575464D01*
X149671718Y-88671718D01*
X149575464Y-88797159D01*
X149514956Y-88943238D01*
X149494318Y-89100000D01*
X149514956Y-89256762D01*
X149575464Y-89402841D01*
X149580491Y-89409392D01*
X149660095Y-89513134D01*
X149671718Y-89528282D01*
X149678264Y-89533305D01*
X149678267Y-89533308D01*
X149700069Y-89550037D01*
X149741937Y-89607375D01*
X149746159Y-89678246D01*
X149711395Y-89740149D01*
X149700069Y-89749963D01*
X149678267Y-89766692D01*
X149678264Y-89766695D01*
X149671718Y-89771718D01*
X149575464Y-89897159D01*
X149514956Y-90043238D01*
X149494318Y-90200000D01*
X108746194Y-90200000D01*
X108746194Y-88868440D01*
X113094770Y-88868440D01*
X113109200Y-89088604D01*
X113110621Y-89094200D01*
X113110622Y-89094205D01*
X113151907Y-89256762D01*
X113163511Y-89302452D01*
X113165928Y-89307694D01*
X113165928Y-89307695D01*
X113204046Y-89390379D01*
X113255883Y-89502821D01*
X113383222Y-89683002D01*
X113541264Y-89836961D01*
X113546060Y-89840166D01*
X113546063Y-89840168D01*
X113630261Y-89896427D01*
X113724717Y-89959540D01*
X113730020Y-89961818D01*
X113730023Y-89961820D01*
X113901772Y-90035609D01*
X113927436Y-90046635D01*
X114007088Y-90064658D01*
X114136995Y-90094054D01*
X114137001Y-90094055D01*
X114142632Y-90095329D01*
X114148403Y-90095556D01*
X114148405Y-90095556D01*
X114216211Y-90098220D01*
X114363098Y-90103991D01*
X114472275Y-90088161D01*
X114575738Y-90073160D01*
X114575743Y-90073159D01*
X114581452Y-90072331D01*
X114586916Y-90070476D01*
X114586921Y-90070475D01*
X114784907Y-90003268D01*
X114784912Y-90003266D01*
X114790379Y-90001410D01*
X114982884Y-89893602D01*
X114997592Y-89881370D01*
X115148086Y-89756204D01*
X115152518Y-89752518D01*
X115223897Y-89666695D01*
X115289908Y-89587326D01*
X115289910Y-89587323D01*
X115293602Y-89582884D01*
X115358869Y-89466341D01*
X115398586Y-89395422D01*
X115398587Y-89395420D01*
X115401410Y-89390379D01*
X115403266Y-89384912D01*
X115403268Y-89384907D01*
X115470475Y-89186921D01*
X115470476Y-89186916D01*
X115472331Y-89181452D01*
X115473159Y-89175743D01*
X115473160Y-89175738D01*
X115503458Y-88966772D01*
X115503991Y-88963098D01*
X115505643Y-88900000D01*
X115504289Y-88885262D01*
X118324520Y-88885262D01*
X118341759Y-89090553D01*
X118343458Y-89096478D01*
X118389419Y-89256762D01*
X118398544Y-89288586D01*
X118401359Y-89294063D01*
X118401360Y-89294066D01*
X118465829Y-89419509D01*
X118492712Y-89471818D01*
X118620677Y-89633270D01*
X118625370Y-89637264D01*
X118625371Y-89637265D01*
X118755586Y-89748086D01*
X118777564Y-89766791D01*
X118782942Y-89769797D01*
X118782944Y-89769798D01*
X118790987Y-89774293D01*
X118957398Y-89867297D01*
X119029142Y-89890608D01*
X119147471Y-89929056D01*
X119147475Y-89929057D01*
X119153329Y-89930959D01*
X119357894Y-89955351D01*
X119364029Y-89954879D01*
X119364031Y-89954879D01*
X119420039Y-89950569D01*
X119563300Y-89939546D01*
X119569230Y-89937890D01*
X119569232Y-89937890D01*
X119715114Y-89897159D01*
X119761725Y-89884145D01*
X119767214Y-89881372D01*
X119767220Y-89881370D01*
X119940116Y-89794033D01*
X119945610Y-89791258D01*
X119965780Y-89775500D01*
X120090207Y-89678287D01*
X120107951Y-89664424D01*
X120117613Y-89653231D01*
X120168094Y-89594748D01*
X121044500Y-89594748D01*
X121045707Y-89600816D01*
X121052163Y-89633270D01*
X121056133Y-89653231D01*
X121063026Y-89663547D01*
X121066144Y-89668213D01*
X121100448Y-89719552D01*
X121110761Y-89726443D01*
X121145961Y-89749963D01*
X121166769Y-89763867D01*
X121178938Y-89766288D01*
X121178939Y-89766288D01*
X121219184Y-89774293D01*
X121225252Y-89775500D01*
X122614748Y-89775500D01*
X122620816Y-89774293D01*
X122661061Y-89766288D01*
X122661062Y-89766288D01*
X122673231Y-89763867D01*
X122694040Y-89749963D01*
X122729239Y-89726443D01*
X122739552Y-89719552D01*
X122773856Y-89668213D01*
X122776974Y-89663547D01*
X122783867Y-89653231D01*
X122787838Y-89633270D01*
X122794293Y-89600816D01*
X122795500Y-89594748D01*
X131204500Y-89594748D01*
X131205707Y-89600816D01*
X131212163Y-89633270D01*
X131216133Y-89653231D01*
X131223026Y-89663547D01*
X131226144Y-89668213D01*
X131260448Y-89719552D01*
X131270761Y-89726443D01*
X131305961Y-89749963D01*
X131326769Y-89763867D01*
X131338938Y-89766288D01*
X131338939Y-89766288D01*
X131379184Y-89774293D01*
X131385252Y-89775500D01*
X132774748Y-89775500D01*
X132780816Y-89774293D01*
X132821061Y-89766288D01*
X132821062Y-89766288D01*
X132833231Y-89763867D01*
X132854040Y-89749963D01*
X132889239Y-89726443D01*
X132899552Y-89719552D01*
X132933856Y-89668213D01*
X132936974Y-89663547D01*
X132943867Y-89653231D01*
X132947838Y-89633270D01*
X132954293Y-89600816D01*
X132955500Y-89594748D01*
X141364500Y-89594748D01*
X141365707Y-89600816D01*
X141372163Y-89633270D01*
X141376133Y-89653231D01*
X141383026Y-89663547D01*
X141386144Y-89668213D01*
X141420448Y-89719552D01*
X141430761Y-89726443D01*
X141465961Y-89749963D01*
X141486769Y-89763867D01*
X141498938Y-89766288D01*
X141498939Y-89766288D01*
X141539184Y-89774293D01*
X141545252Y-89775500D01*
X142934748Y-89775500D01*
X142940816Y-89774293D01*
X142981061Y-89766288D01*
X142981062Y-89766288D01*
X142993231Y-89763867D01*
X143014040Y-89749963D01*
X143049239Y-89726443D01*
X143059552Y-89719552D01*
X143093856Y-89668213D01*
X143096974Y-89663547D01*
X143103867Y-89653231D01*
X143107838Y-89633270D01*
X143114293Y-89600816D01*
X143115500Y-89594748D01*
X143115500Y-88205252D01*
X143103867Y-88146769D01*
X143059552Y-88080448D01*
X142993231Y-88036133D01*
X142981062Y-88033712D01*
X142981061Y-88033712D01*
X142940816Y-88025707D01*
X142934748Y-88024500D01*
X141545252Y-88024500D01*
X141539184Y-88025707D01*
X141498939Y-88033712D01*
X141498938Y-88033712D01*
X141486769Y-88036133D01*
X141420448Y-88080448D01*
X141376133Y-88146769D01*
X141364500Y-88205252D01*
X141364500Y-89594748D01*
X132955500Y-89594748D01*
X132955500Y-88205252D01*
X132943867Y-88146769D01*
X132899552Y-88080448D01*
X132833231Y-88036133D01*
X132821062Y-88033712D01*
X132821061Y-88033712D01*
X132780816Y-88025707D01*
X132774748Y-88024500D01*
X131385252Y-88024500D01*
X131379184Y-88025707D01*
X131338939Y-88033712D01*
X131338938Y-88033712D01*
X131326769Y-88036133D01*
X131260448Y-88080448D01*
X131216133Y-88146769D01*
X131204500Y-88205252D01*
X131204500Y-89594748D01*
X122795500Y-89594748D01*
X122795500Y-88205252D01*
X122783867Y-88146769D01*
X122739552Y-88080448D01*
X122673231Y-88036133D01*
X122661062Y-88033712D01*
X122661061Y-88033712D01*
X122620816Y-88025707D01*
X122614748Y-88024500D01*
X121225252Y-88024500D01*
X121219184Y-88025707D01*
X121178939Y-88033712D01*
X121178938Y-88033712D01*
X121166769Y-88036133D01*
X121100448Y-88080448D01*
X121056133Y-88146769D01*
X121044500Y-88205252D01*
X121044500Y-89594748D01*
X120168094Y-89594748D01*
X120238540Y-89513134D01*
X120238540Y-89513133D01*
X120242564Y-89508472D01*
X120263387Y-89471818D01*
X120341276Y-89334707D01*
X120344323Y-89329344D01*
X120409351Y-89133863D01*
X120435171Y-88929474D01*
X120435583Y-88900000D01*
X120415480Y-88694970D01*
X120355935Y-88497749D01*
X120259218Y-88315849D01*
X120164068Y-88199184D01*
X120132906Y-88160975D01*
X120132903Y-88160972D01*
X120129011Y-88156200D01*
X120058528Y-88097891D01*
X119975025Y-88028811D01*
X119975021Y-88028809D01*
X119970275Y-88024882D01*
X119789055Y-87926897D01*
X119592254Y-87865977D01*
X119586129Y-87865333D01*
X119586128Y-87865333D01*
X119393498Y-87845087D01*
X119393496Y-87845087D01*
X119387369Y-87844443D01*
X119300529Y-87852346D01*
X119188342Y-87862555D01*
X119188339Y-87862556D01*
X119182203Y-87863114D01*
X118984572Y-87921280D01*
X118802002Y-88016726D01*
X118797201Y-88020586D01*
X118797198Y-88020588D01*
X118653091Y-88136453D01*
X118641447Y-88145815D01*
X118509024Y-88303630D01*
X118506056Y-88309028D01*
X118506053Y-88309033D01*
X118418696Y-88467936D01*
X118409776Y-88484162D01*
X118347484Y-88680532D01*
X118346798Y-88686649D01*
X118346797Y-88686653D01*
X118341306Y-88735609D01*
X118324520Y-88885262D01*
X115504289Y-88885262D01*
X115485454Y-88680289D01*
X115425565Y-88467936D01*
X115327980Y-88270053D01*
X115232321Y-88141950D01*
X115199420Y-88097891D01*
X115199420Y-88097890D01*
X115195967Y-88093267D01*
X115033949Y-87943499D01*
X114847350Y-87825764D01*
X114642421Y-87744006D01*
X114636761Y-87742880D01*
X114636757Y-87742879D01*
X114431691Y-87702089D01*
X114431688Y-87702089D01*
X114426024Y-87700962D01*
X114420249Y-87700886D01*
X114420245Y-87700886D01*
X114309504Y-87699437D01*
X114205406Y-87698074D01*
X114199709Y-87699053D01*
X114199708Y-87699053D01*
X113993654Y-87734459D01*
X113993653Y-87734459D01*
X113987957Y-87735438D01*
X113780957Y-87811804D01*
X113775996Y-87814756D01*
X113775995Y-87814756D01*
X113599870Y-87919540D01*
X113591341Y-87924614D01*
X113425457Y-88070090D01*
X113288863Y-88243360D01*
X113186131Y-88438620D01*
X113120703Y-88649333D01*
X113094770Y-88868440D01*
X108746194Y-88868440D01*
X108746194Y-87229748D01*
X118329500Y-87229748D01*
X118341133Y-87288231D01*
X118385448Y-87354552D01*
X118451769Y-87398867D01*
X118463938Y-87401288D01*
X118463939Y-87401288D01*
X118504184Y-87409293D01*
X118510252Y-87410500D01*
X120249748Y-87410500D01*
X120255816Y-87409293D01*
X120296061Y-87401288D01*
X120296062Y-87401288D01*
X120308231Y-87398867D01*
X120374552Y-87354552D01*
X120418867Y-87288231D01*
X120430500Y-87229748D01*
X120430500Y-87054428D01*
X120450502Y-86986307D01*
X120504158Y-86939814D01*
X120574432Y-86929710D01*
X120639012Y-86959204D01*
X120665620Y-86991429D01*
X120667804Y-86995211D01*
X120670964Y-87002841D01*
X120767218Y-87128282D01*
X120892659Y-87224536D01*
X121038738Y-87285044D01*
X121195500Y-87305682D01*
X121203688Y-87304604D01*
X121344074Y-87286122D01*
X121352262Y-87285044D01*
X121485758Y-87229748D01*
X181829500Y-87229748D01*
X181841133Y-87288231D01*
X181885448Y-87354552D01*
X181951769Y-87398867D01*
X181963938Y-87401288D01*
X181963939Y-87401288D01*
X182004184Y-87409293D01*
X182010252Y-87410500D01*
X183749748Y-87410500D01*
X183755816Y-87409293D01*
X183796061Y-87401288D01*
X183796062Y-87401288D01*
X183808231Y-87398867D01*
X183874552Y-87354552D01*
X183918867Y-87288231D01*
X183930500Y-87229748D01*
X183930500Y-85490252D01*
X183918867Y-85431769D01*
X183874552Y-85365448D01*
X183808231Y-85321133D01*
X183796062Y-85318712D01*
X183796061Y-85318712D01*
X183755816Y-85310707D01*
X183749748Y-85309500D01*
X182010252Y-85309500D01*
X182004184Y-85310707D01*
X181963939Y-85318712D01*
X181963938Y-85318712D01*
X181951769Y-85321133D01*
X181885448Y-85365448D01*
X181841133Y-85431769D01*
X181829500Y-85490252D01*
X181829500Y-87229748D01*
X121485758Y-87229748D01*
X121498341Y-87224536D01*
X121623782Y-87128282D01*
X121720036Y-87002841D01*
X121780544Y-86856762D01*
X121801182Y-86700000D01*
X121780544Y-86543238D01*
X121720036Y-86397159D01*
X121651559Y-86307918D01*
X121628805Y-86278264D01*
X121623782Y-86271718D01*
X121498341Y-86175464D01*
X121352262Y-86114956D01*
X121195500Y-86094318D01*
X121038738Y-86114956D01*
X120892659Y-86175464D01*
X120767218Y-86271718D01*
X120762195Y-86278264D01*
X120739441Y-86307918D01*
X120670964Y-86397159D01*
X120667804Y-86404789D01*
X120665620Y-86408571D01*
X120614238Y-86457565D01*
X120544524Y-86471002D01*
X120478613Y-86444615D01*
X120437430Y-86386784D01*
X120430500Y-86345572D01*
X120430500Y-85900000D01*
X123394318Y-85900000D01*
X123414956Y-86056762D01*
X123475464Y-86202841D01*
X123480491Y-86209392D01*
X123550017Y-86300000D01*
X123571718Y-86328282D01*
X123697159Y-86424536D01*
X123843238Y-86485044D01*
X124000000Y-86505682D01*
X124008188Y-86504604D01*
X124148574Y-86486122D01*
X124156762Y-86485044D01*
X124302841Y-86424536D01*
X124428282Y-86328282D01*
X124449984Y-86300000D01*
X154494318Y-86300000D01*
X154514956Y-86456762D01*
X154575464Y-86602841D01*
X154580491Y-86609392D01*
X154650017Y-86700000D01*
X154671718Y-86728282D01*
X154797159Y-86824536D01*
X154943238Y-86885044D01*
X155100000Y-86905682D01*
X155108188Y-86904604D01*
X155248574Y-86886122D01*
X155256762Y-86885044D01*
X155402841Y-86824536D01*
X155528282Y-86728282D01*
X155549984Y-86700000D01*
X155619509Y-86609392D01*
X155624536Y-86602841D01*
X155685044Y-86456762D01*
X155705682Y-86300000D01*
X155685044Y-86143238D01*
X155624536Y-85997159D01*
X155550011Y-85900036D01*
X155533305Y-85878264D01*
X155528282Y-85871718D01*
X155402841Y-85775464D01*
X155256762Y-85714956D01*
X155100000Y-85694318D01*
X154943238Y-85714956D01*
X154797159Y-85775464D01*
X154671718Y-85871718D01*
X154666695Y-85878264D01*
X154649989Y-85900036D01*
X154575464Y-85997159D01*
X154514956Y-86143238D01*
X154494318Y-86300000D01*
X124449984Y-86300000D01*
X124519509Y-86209392D01*
X124524536Y-86202841D01*
X124585044Y-86056762D01*
X124605682Y-85900000D01*
X124585044Y-85743238D01*
X124524536Y-85597159D01*
X124442504Y-85490252D01*
X124433305Y-85478264D01*
X124428282Y-85471718D01*
X124302888Y-85375500D01*
X131494318Y-85375500D01*
X131514956Y-85532262D01*
X131575464Y-85678341D01*
X131671718Y-85803782D01*
X131797159Y-85900036D01*
X131943238Y-85960544D01*
X132100000Y-85981182D01*
X132108188Y-85980104D01*
X132248574Y-85961622D01*
X132256762Y-85960544D01*
X132402841Y-85900036D01*
X132528282Y-85803782D01*
X132624536Y-85678341D01*
X132685044Y-85532262D01*
X132702457Y-85400000D01*
X155694318Y-85400000D01*
X155714956Y-85556762D01*
X155775464Y-85702841D01*
X155871718Y-85828282D01*
X155997159Y-85924536D01*
X156143238Y-85985044D01*
X156300000Y-86005682D01*
X156308188Y-86004604D01*
X156448574Y-85986122D01*
X156456762Y-85985044D01*
X156602841Y-85924536D01*
X156728282Y-85828282D01*
X156824536Y-85702841D01*
X156885044Y-85556762D01*
X156905682Y-85400000D01*
X156885044Y-85243238D01*
X156824536Y-85097159D01*
X156728282Y-84971718D01*
X156602841Y-84875464D01*
X156456762Y-84814956D01*
X156300000Y-84794318D01*
X156143238Y-84814956D01*
X155997159Y-84875464D01*
X155871718Y-84971718D01*
X155775464Y-85097159D01*
X155714956Y-85243238D01*
X155694318Y-85400000D01*
X132702457Y-85400000D01*
X132705682Y-85375500D01*
X132685044Y-85218738D01*
X132624536Y-85072659D01*
X132528282Y-84947218D01*
X132402841Y-84850964D01*
X132256762Y-84790456D01*
X132100000Y-84769818D01*
X131943238Y-84790456D01*
X131797159Y-84850964D01*
X131671718Y-84947218D01*
X131575464Y-85072659D01*
X131514956Y-85218738D01*
X131494318Y-85375500D01*
X124302888Y-85375500D01*
X124302841Y-85375464D01*
X124156762Y-85314956D01*
X124124488Y-85310707D01*
X124008188Y-85295396D01*
X124000000Y-85294318D01*
X123991812Y-85295396D01*
X123875513Y-85310707D01*
X123843238Y-85314956D01*
X123697159Y-85375464D01*
X123571718Y-85471718D01*
X123566695Y-85478264D01*
X123557496Y-85490252D01*
X123475464Y-85597159D01*
X123414956Y-85743238D01*
X123394318Y-85900000D01*
X120430500Y-85900000D01*
X120430500Y-85490252D01*
X120418867Y-85431769D01*
X120374552Y-85365448D01*
X120308231Y-85321133D01*
X120296062Y-85318712D01*
X120296061Y-85318712D01*
X120255816Y-85310707D01*
X120249748Y-85309500D01*
X118510252Y-85309500D01*
X118504184Y-85310707D01*
X118463939Y-85318712D01*
X118463938Y-85318712D01*
X118451769Y-85321133D01*
X118385448Y-85365448D01*
X118341133Y-85431769D01*
X118329500Y-85490252D01*
X118329500Y-87229748D01*
X108746194Y-87229748D01*
X108746194Y-84057954D01*
X108766196Y-83989833D01*
X108819852Y-83943340D01*
X108872194Y-83931954D01*
X141911394Y-83931954D01*
X141979515Y-83951956D01*
G37*
G04 #@! TD.AperFunction*
G04 #@! TD*
M02*
