G04 #@! TF.GenerationSoftware,KiCad,Pcbnew,6.0.8-f2edbf62ab~116~ubuntu20.04.1*
G04 #@! TF.CreationDate,2022-10-06T15:54:12+01:00*
G04 #@! TF.ProjectId,slrm,736c726d-2e6b-4696-9361-645f70636258,rev?*
G04 #@! TF.SameCoordinates,Original*
G04 #@! TF.FileFunction,Copper,L3,Inr*
G04 #@! TF.FilePolarity,Positive*
%FSLAX46Y46*%
G04 Gerber Fmt 4.6, Leading zero omitted, Abs format (unit mm)*
G04 Created by KiCad (PCBNEW 6.0.8-f2edbf62ab~116~ubuntu20.04.1) date 2022-10-06 15:54:12*
%MOMM*%
%LPD*%
G01*
G04 APERTURE LIST*
G04 #@! TA.AperFunction,ComponentPad*
%ADD10C,2.000000*%
G04 #@! TD*
G04 #@! TA.AperFunction,ComponentPad*
%ADD11R,1.350000X1.350000*%
G04 #@! TD*
G04 #@! TA.AperFunction,ComponentPad*
%ADD12R,1.700000X1.700000*%
G04 #@! TD*
G04 #@! TA.AperFunction,ComponentPad*
%ADD13O,1.700000X1.700000*%
G04 #@! TD*
G04 #@! TA.AperFunction,ViaPad*
%ADD14C,0.800000*%
G04 #@! TD*
G04 APERTURE END LIST*
D10*
G04 #@! TO.N,GND*
G04 #@! TO.C,GND*
X114300000Y-99060000D03*
G04 #@! TD*
G04 #@! TO.N,ZX_RAS*
G04 #@! TO.C,RAS*
X187960000Y-96520000D03*
G04 #@! TD*
G04 #@! TO.N,ZX_WRITE*
G04 #@! TO.C,WR*
X187960000Y-91440000D03*
G04 #@! TD*
G04 #@! TO.N,+5V*
G04 #@! TO.C,+5V*
X114300000Y-104140000D03*
G04 #@! TD*
G04 #@! TO.N,ZX_CAS*
G04 #@! TO.C,CAS*
X114300000Y-88900000D03*
G04 #@! TD*
D11*
G04 #@! TO.N,ZX_D6*
G04 #@! TO.C,D6*
X121920000Y-88900000D03*
G04 #@! TD*
G04 #@! TO.N,ZX_D2*
G04 #@! TO.C,D2*
X162560000Y-88900000D03*
G04 #@! TD*
G04 #@! TO.N,ZX_D4*
G04 #@! TO.C,D4*
X142240000Y-88900000D03*
G04 #@! TD*
D12*
G04 #@! TO.N,GND*
G04 #@! TO.C,J1*
X119380000Y-86360000D03*
D13*
G04 #@! TO.N,ZX_CAS*
X119380000Y-88900000D03*
G04 #@! TO.N,ZX_D7*
X119380000Y-91440000D03*
G04 #@! TO.N,ZX_A6*
X119380000Y-93980000D03*
G04 #@! TO.N,ZX_A3*
X119380000Y-96520000D03*
G04 #@! TO.N,ZX_A4*
X119380000Y-99060000D03*
G04 #@! TO.N,ZX_A5*
X119380000Y-101600000D03*
G04 #@! TO.N,+5V*
X119380000Y-104140000D03*
G04 #@! TD*
D12*
G04 #@! TO.N,unconnected-(J8-Pad1)*
G04 #@! TO.C,J8*
X182880000Y-86360000D03*
D13*
G04 #@! TO.N,ZX_D0*
X182880000Y-88900000D03*
G04 #@! TO.N,ZX_WRITE*
X182880000Y-91440000D03*
G04 #@! TO.N,ZX_RAS*
X182880000Y-93980000D03*
G04 #@! TO.N,ZX_A0*
X182880000Y-96520000D03*
G04 #@! TO.N,ZX_A2*
X182880000Y-99060000D03*
G04 #@! TO.N,ZX_A1*
X182880000Y-101600000D03*
G04 #@! TO.N,unconnected-(J8-Pad8)*
X182880000Y-104140000D03*
G04 #@! TD*
D11*
G04 #@! TO.N,ZX_D5*
G04 #@! TO.C,D5*
X132080000Y-88900000D03*
G04 #@! TD*
G04 #@! TO.N,ZX_D1*
G04 #@! TO.C,D1*
X172720000Y-88900000D03*
G04 #@! TD*
G04 #@! TO.N,ZX_D3*
G04 #@! TO.C,D3*
X152400000Y-88900000D03*
G04 #@! TD*
D14*
G04 #@! TO.N,+5V*
X138585685Y-104205946D03*
X176700000Y-103500000D03*
X140350000Y-92650000D03*
G04 #@! TO.N,GND*
X135500000Y-94400000D03*
X179000000Y-99000000D03*
X150100000Y-90200000D03*
X140500000Y-104200000D03*
X123000000Y-92800000D03*
X169800000Y-100200000D03*
X160500000Y-103600000D03*
G04 #@! TO.N,ZX_CAS*
X150100000Y-89100000D03*
X121195500Y-86700000D03*
G04 #@! TO.N,ZX_D7*
X154300000Y-90100000D03*
G04 #@! TO.N,ZX_A6*
X137000000Y-95451000D03*
X144900000Y-95451000D03*
X137000000Y-92700000D03*
X124900000Y-92700000D03*
G04 #@! TO.N,ZX_A3*
X128700000Y-98800000D03*
X152200000Y-98500000D03*
G04 #@! TO.N,ZX_A4*
X127500000Y-97600000D03*
X148800000Y-97575500D03*
X127500000Y-99524500D03*
G04 #@! TO.N,ZX_A5*
X121400000Y-105100000D03*
X125345059Y-100249000D03*
X143800000Y-105300000D03*
G04 #@! TO.N,ZX_D6*
X155100000Y-86300000D03*
X124000000Y-85900000D03*
G04 #@! TO.N,ZX_D5*
X156300000Y-85400000D03*
X132100000Y-85375500D03*
G04 #@! TO.N,ZX_D4*
X157700000Y-84700000D03*
X142300000Y-84675500D03*
G04 #@! TO.N,ZX_D3*
X158900000Y-88900000D03*
G04 #@! TO.N,ZX_D2*
X162600000Y-101300000D03*
X157700000Y-101500000D03*
G04 #@! TO.N,ZX_D1*
X163400000Y-90800000D03*
X156500000Y-100500000D03*
X163400000Y-100500000D03*
G04 #@! TO.N,ZX_D0*
X155200000Y-99500000D03*
X164124500Y-99500000D03*
X164124500Y-92100000D03*
G04 #@! TO.N,ZX_WRITE*
X143700000Y-94000000D03*
G04 #@! TO.N,ZX_RAS*
X175300000Y-94000000D03*
G04 #@! TO.N,ZX_A0*
X138000000Y-91900000D03*
X138000000Y-94726500D03*
X132500000Y-91975500D03*
X141000000Y-94726500D03*
G04 #@! TO.N,ZX_A2*
X130300000Y-96900000D03*
X147500000Y-96925500D03*
G04 #@! TO.N,ZX_A1*
X131300000Y-96175500D03*
X146200000Y-96175500D03*
X179000000Y-97400000D03*
X179000000Y-95450500D03*
G04 #@! TO.N,RAS_INV*
X174600000Y-99800000D03*
X122400000Y-101800000D03*
G04 #@! TO.N,RAS_A6*
X146300000Y-101800000D03*
X125100000Y-101900000D03*
G04 #@! TO.N,RAS_A5*
X126200000Y-101075500D03*
X147600000Y-101500000D03*
G04 #@! TO.N,RAS_A4*
X148900000Y-101500000D03*
X127700000Y-100625500D03*
G04 #@! TO.N,RAS_A3*
X150100000Y-101500000D03*
X128700000Y-100175500D03*
G04 #@! TO.N,RAS_A2*
X129900000Y-99725500D03*
X151400000Y-101500000D03*
G04 #@! TO.N,RAS_A1*
X152600000Y-101500000D03*
X131300000Y-99275500D03*
G04 #@! TO.N,RAS_A0*
X153900000Y-101500000D03*
X132500000Y-98825500D03*
G04 #@! TD*
G04 #@! TA.AperFunction,Conductor*
G04 #@! TO.N,GND*
G36*
X131536133Y-84449956D02*
G01*
X131582626Y-84503612D01*
X131592730Y-84573886D01*
X131563236Y-84638466D01*
X131542073Y-84657890D01*
X131488747Y-84696634D01*
X131360960Y-84838556D01*
X131331300Y-84889928D01*
X131272658Y-84991500D01*
X131265473Y-85003944D01*
X131206458Y-85185572D01*
X131205768Y-85192133D01*
X131205768Y-85192135D01*
X131200543Y-85241852D01*
X131186496Y-85375500D01*
X131187186Y-85382065D01*
X131205757Y-85558754D01*
X131206458Y-85565428D01*
X131265473Y-85747056D01*
X131268776Y-85752778D01*
X131268777Y-85752779D01*
X131275991Y-85765274D01*
X131360960Y-85912444D01*
X131365378Y-85917351D01*
X131365379Y-85917352D01*
X131458825Y-86021134D01*
X131488747Y-86054366D01*
X131643248Y-86166618D01*
X131649276Y-86169302D01*
X131649278Y-86169303D01*
X131811681Y-86241609D01*
X131817712Y-86244294D01*
X131911112Y-86264147D01*
X131998056Y-86282628D01*
X131998061Y-86282628D01*
X132004513Y-86284000D01*
X132195487Y-86284000D01*
X132201939Y-86282628D01*
X132201944Y-86282628D01*
X132288888Y-86264147D01*
X132382288Y-86244294D01*
X132388319Y-86241609D01*
X132550722Y-86169303D01*
X132550724Y-86169302D01*
X132556752Y-86166618D01*
X132711253Y-86054366D01*
X132741175Y-86021134D01*
X132834621Y-85917352D01*
X132834622Y-85917351D01*
X132839040Y-85912444D01*
X132924009Y-85765274D01*
X132931223Y-85752779D01*
X132931224Y-85752778D01*
X132934527Y-85747056D01*
X132993542Y-85565428D01*
X132994244Y-85558754D01*
X133012814Y-85382065D01*
X133013504Y-85375500D01*
X132999457Y-85241852D01*
X132994232Y-85192135D01*
X132994232Y-85192133D01*
X132993542Y-85185572D01*
X132934527Y-85003944D01*
X132927343Y-84991500D01*
X132868700Y-84889928D01*
X132839040Y-84838556D01*
X132711253Y-84696634D01*
X132657927Y-84657890D01*
X132614573Y-84601667D01*
X132608498Y-84530931D01*
X132641630Y-84468139D01*
X132703450Y-84433228D01*
X132731988Y-84429954D01*
X141272366Y-84429954D01*
X141340487Y-84449956D01*
X141386980Y-84503612D01*
X141397676Y-84569124D01*
X141390708Y-84635424D01*
X141386496Y-84675500D01*
X141387186Y-84682065D01*
X141404235Y-84844274D01*
X141406458Y-84865428D01*
X141465473Y-85047056D01*
X141468776Y-85052778D01*
X141468777Y-85052779D01*
X141475989Y-85065271D01*
X141560960Y-85212444D01*
X141565378Y-85217351D01*
X141565379Y-85217352D01*
X141573206Y-85226045D01*
X141688747Y-85354366D01*
X141843248Y-85466618D01*
X141849276Y-85469302D01*
X141849278Y-85469303D01*
X142010740Y-85541190D01*
X142017712Y-85544294D01*
X142085741Y-85558754D01*
X142198056Y-85582628D01*
X142198061Y-85582628D01*
X142204513Y-85584000D01*
X142395487Y-85584000D01*
X142401939Y-85582628D01*
X142401944Y-85582628D01*
X142514259Y-85558754D01*
X142582288Y-85544294D01*
X142589260Y-85541190D01*
X142750722Y-85469303D01*
X142750724Y-85469302D01*
X142756752Y-85466618D01*
X142911253Y-85354366D01*
X143026794Y-85226045D01*
X143034621Y-85217352D01*
X143034622Y-85217351D01*
X143039040Y-85212444D01*
X143124011Y-85065271D01*
X143131223Y-85052779D01*
X143131224Y-85052778D01*
X143134527Y-85047056D01*
X143193542Y-84865428D01*
X143195766Y-84844274D01*
X143212814Y-84682065D01*
X143213504Y-84675500D01*
X143209292Y-84635424D01*
X143202324Y-84569124D01*
X143215096Y-84499286D01*
X143263599Y-84447439D01*
X143327634Y-84429954D01*
X155701734Y-84429954D01*
X155769855Y-84449956D01*
X155816348Y-84503612D01*
X155826452Y-84573886D01*
X155796958Y-84638466D01*
X155775797Y-84657888D01*
X155688747Y-84721134D01*
X155560960Y-84863056D01*
X155541821Y-84896206D01*
X155472919Y-85015548D01*
X155465473Y-85028444D01*
X155406458Y-85210072D01*
X155405768Y-85216633D01*
X155405768Y-85216635D01*
X155397823Y-85292228D01*
X155370810Y-85357885D01*
X155312588Y-85398514D01*
X155246316Y-85402304D01*
X155201944Y-85392872D01*
X155201939Y-85392872D01*
X155195487Y-85391500D01*
X155004513Y-85391500D01*
X154998061Y-85392872D01*
X154998056Y-85392872D01*
X154929051Y-85407540D01*
X154817712Y-85431206D01*
X154811682Y-85433891D01*
X154811681Y-85433891D01*
X154649278Y-85506197D01*
X154649276Y-85506198D01*
X154643248Y-85508882D01*
X154488747Y-85621134D01*
X154484326Y-85626044D01*
X154484325Y-85626045D01*
X154402758Y-85716635D01*
X154360960Y-85763056D01*
X154320063Y-85833891D01*
X154274711Y-85912444D01*
X154265473Y-85928444D01*
X154206458Y-86110072D01*
X154205768Y-86116633D01*
X154205768Y-86116635D01*
X154198348Y-86187237D01*
X154186496Y-86300000D01*
X154206458Y-86489928D01*
X154265473Y-86671556D01*
X154360960Y-86836944D01*
X154365378Y-86841851D01*
X154365379Y-86841852D01*
X154408667Y-86889928D01*
X154488747Y-86978866D01*
X154643248Y-87091118D01*
X154649276Y-87093802D01*
X154649278Y-87093803D01*
X154811681Y-87166109D01*
X154817712Y-87168794D01*
X154911113Y-87188647D01*
X154998056Y-87207128D01*
X154998061Y-87207128D01*
X155004513Y-87208500D01*
X155195487Y-87208500D01*
X155201939Y-87207128D01*
X155201944Y-87207128D01*
X155288887Y-87188647D01*
X155382288Y-87168794D01*
X155388319Y-87166109D01*
X155550722Y-87093803D01*
X155550724Y-87093802D01*
X155556752Y-87091118D01*
X155711253Y-86978866D01*
X155791333Y-86889928D01*
X155834621Y-86841852D01*
X155834622Y-86841851D01*
X155839040Y-86836944D01*
X155934527Y-86671556D01*
X155993542Y-86489928D01*
X156002177Y-86407772D01*
X156029190Y-86342115D01*
X156087412Y-86301486D01*
X156153684Y-86297696D01*
X156198056Y-86307128D01*
X156198061Y-86307128D01*
X156204513Y-86308500D01*
X156395487Y-86308500D01*
X156401939Y-86307128D01*
X156401944Y-86307128D01*
X156488888Y-86288647D01*
X156582288Y-86268794D01*
X156588319Y-86266109D01*
X156750722Y-86193803D01*
X156750724Y-86193802D01*
X156756752Y-86191118D01*
X156911253Y-86078866D01*
X157039040Y-85936944D01*
X157134527Y-85771556D01*
X157184629Y-85617359D01*
X157224703Y-85558754D01*
X157290100Y-85531117D01*
X157355711Y-85541190D01*
X157411673Y-85566106D01*
X157411679Y-85566108D01*
X157417712Y-85568794D01*
X157511112Y-85588647D01*
X157598056Y-85607128D01*
X157598061Y-85607128D01*
X157604513Y-85608500D01*
X157795487Y-85608500D01*
X157801939Y-85607128D01*
X157801944Y-85607128D01*
X157888887Y-85588647D01*
X157982288Y-85568794D01*
X157988319Y-85566109D01*
X158150722Y-85493803D01*
X158150724Y-85493802D01*
X158156752Y-85491118D01*
X158311253Y-85378866D01*
X158407743Y-85271703D01*
X158434621Y-85241852D01*
X158434622Y-85241851D01*
X158439040Y-85236944D01*
X158534527Y-85071556D01*
X158593542Y-84889928D01*
X158595766Y-84868774D01*
X158612814Y-84706565D01*
X158613504Y-84700000D01*
X158606717Y-84635424D01*
X158599749Y-84569124D01*
X158612521Y-84499286D01*
X158661024Y-84447439D01*
X158725059Y-84429954D01*
X189874000Y-84429954D01*
X189942121Y-84449956D01*
X189988614Y-84503612D01*
X190000000Y-84555954D01*
X190000000Y-105773596D01*
X189979998Y-105841717D01*
X189926342Y-105888210D01*
X189874000Y-105899596D01*
X144721106Y-105899596D01*
X144652985Y-105879594D01*
X144606492Y-105825938D01*
X144596388Y-105755664D01*
X144611986Y-105710598D01*
X144634527Y-105671556D01*
X144693542Y-105489928D01*
X144694872Y-105477279D01*
X144712814Y-105306565D01*
X144713504Y-105300000D01*
X144704379Y-105213177D01*
X144694232Y-105116635D01*
X144694232Y-105116633D01*
X144693542Y-105110072D01*
X144634527Y-104928444D01*
X144539040Y-104763056D01*
X144527131Y-104749829D01*
X144415675Y-104626045D01*
X144415674Y-104626044D01*
X144411253Y-104621134D01*
X144256752Y-104508882D01*
X144250724Y-104506198D01*
X144250722Y-104506197D01*
X144088319Y-104433891D01*
X144088318Y-104433891D01*
X144082288Y-104431206D01*
X143988887Y-104411353D01*
X143901944Y-104392872D01*
X143901939Y-104392872D01*
X143895487Y-104391500D01*
X143704513Y-104391500D01*
X143698061Y-104392872D01*
X143698056Y-104392872D01*
X143611113Y-104411353D01*
X143517712Y-104431206D01*
X143511682Y-104433891D01*
X143511681Y-104433891D01*
X143349278Y-104506197D01*
X143349276Y-104506198D01*
X143343248Y-104508882D01*
X143188747Y-104621134D01*
X143184326Y-104626044D01*
X143184325Y-104626045D01*
X143072870Y-104749829D01*
X143060960Y-104763056D01*
X142965473Y-104928444D01*
X142906458Y-105110072D01*
X142905768Y-105116633D01*
X142905768Y-105116635D01*
X142895621Y-105213177D01*
X142886496Y-105300000D01*
X142887186Y-105306565D01*
X142905129Y-105477279D01*
X142906458Y-105489928D01*
X142965473Y-105671556D01*
X142988014Y-105710597D01*
X143004751Y-105779591D01*
X142981531Y-105846683D01*
X142925724Y-105890570D01*
X142878894Y-105899596D01*
X122185547Y-105899596D01*
X122117426Y-105879594D01*
X122070933Y-105825938D01*
X122060829Y-105755664D01*
X122091910Y-105689287D01*
X122139040Y-105636944D01*
X122217202Y-105501564D01*
X122231223Y-105477279D01*
X122231224Y-105477278D01*
X122234527Y-105471556D01*
X122293542Y-105289928D01*
X122304973Y-105181173D01*
X122312814Y-105106565D01*
X122313504Y-105100000D01*
X122310567Y-105072055D01*
X122294232Y-104916635D01*
X122294232Y-104916633D01*
X122293542Y-104910072D01*
X122234527Y-104728444D01*
X122139040Y-104563056D01*
X122125159Y-104547639D01*
X122015675Y-104426045D01*
X122015674Y-104426044D01*
X122011253Y-104421134D01*
X121892380Y-104334767D01*
X121862094Y-104312763D01*
X121862093Y-104312762D01*
X121856752Y-104308882D01*
X121850724Y-104306198D01*
X121850722Y-104306197D01*
X121688319Y-104233891D01*
X121688318Y-104233891D01*
X121682288Y-104231206D01*
X121588888Y-104211353D01*
X121563451Y-104205946D01*
X137672181Y-104205946D01*
X137672871Y-104212511D01*
X137689015Y-104366109D01*
X137692143Y-104395874D01*
X137751158Y-104577502D01*
X137846645Y-104742890D01*
X137851063Y-104747797D01*
X137851064Y-104747798D01*
X137926144Y-104831183D01*
X137974432Y-104884812D01*
X138128933Y-104997064D01*
X138134961Y-104999748D01*
X138134963Y-104999749D01*
X138192132Y-105025202D01*
X138303397Y-105074740D01*
X138391350Y-105093435D01*
X138483741Y-105113074D01*
X138483746Y-105113074D01*
X138490198Y-105114446D01*
X138681172Y-105114446D01*
X138687624Y-105113074D01*
X138687629Y-105113074D01*
X138780020Y-105093435D01*
X138867973Y-105074740D01*
X138979238Y-105025202D01*
X139036407Y-104999749D01*
X139036409Y-104999748D01*
X139042437Y-104997064D01*
X139196938Y-104884812D01*
X139245226Y-104831183D01*
X139320306Y-104747798D01*
X139320307Y-104747797D01*
X139324725Y-104742890D01*
X139420212Y-104577502D01*
X139479227Y-104395874D01*
X139482356Y-104366109D01*
X139498499Y-104212511D01*
X139499189Y-104205946D01*
X139489299Y-104111851D01*
X139479917Y-104022581D01*
X139479917Y-104022579D01*
X139479227Y-104016018D01*
X139420212Y-103834390D01*
X139324725Y-103669002D01*
X139196938Y-103527080D01*
X139159666Y-103500000D01*
X175786496Y-103500000D01*
X175787186Y-103506565D01*
X175804860Y-103674720D01*
X175806458Y-103689928D01*
X175865473Y-103871556D01*
X175868776Y-103877278D01*
X175868777Y-103877279D01*
X175881015Y-103898476D01*
X175960960Y-104036944D01*
X176088747Y-104178866D01*
X176243248Y-104291118D01*
X176249276Y-104293802D01*
X176249278Y-104293803D01*
X176411681Y-104366109D01*
X176417712Y-104368794D01*
X176477602Y-104381524D01*
X176598056Y-104407128D01*
X176598061Y-104407128D01*
X176604513Y-104408500D01*
X176795487Y-104408500D01*
X176801939Y-104407128D01*
X176801944Y-104407128D01*
X176922398Y-104381524D01*
X176982288Y-104368794D01*
X176988319Y-104366109D01*
X177150722Y-104293803D01*
X177150724Y-104293802D01*
X177156752Y-104291118D01*
X177311253Y-104178866D01*
X177376236Y-104106695D01*
X181517251Y-104106695D01*
X181517548Y-104111848D01*
X181517548Y-104111851D01*
X181528039Y-104293803D01*
X181530110Y-104329715D01*
X181531247Y-104334761D01*
X181531248Y-104334767D01*
X181547556Y-104407128D01*
X181579222Y-104547639D01*
X181617461Y-104641811D01*
X181660498Y-104747798D01*
X181663266Y-104754616D01*
X181665965Y-104759020D01*
X181769788Y-104928444D01*
X181779987Y-104945088D01*
X181926250Y-105113938D01*
X182098126Y-105256632D01*
X182291000Y-105369338D01*
X182499692Y-105449030D01*
X182504760Y-105450061D01*
X182504763Y-105450062D01*
X182610410Y-105471556D01*
X182718597Y-105493567D01*
X182723772Y-105493757D01*
X182723774Y-105493757D01*
X182936673Y-105501564D01*
X182936677Y-105501564D01*
X182941837Y-105501753D01*
X182946957Y-105501097D01*
X182946959Y-105501097D01*
X183158288Y-105474025D01*
X183158289Y-105474025D01*
X183163416Y-105473368D01*
X183169456Y-105471556D01*
X183372429Y-105410661D01*
X183372434Y-105410659D01*
X183377384Y-105409174D01*
X183577994Y-105310896D01*
X183759860Y-105181173D01*
X183918096Y-105023489D01*
X183977594Y-104940689D01*
X184045435Y-104846277D01*
X184048453Y-104842077D01*
X184058184Y-104822389D01*
X184145136Y-104646453D01*
X184145137Y-104646451D01*
X184147430Y-104641811D01*
X184212370Y-104428069D01*
X184241529Y-104206590D01*
X184242112Y-104182749D01*
X184243074Y-104143365D01*
X184243074Y-104143361D01*
X184243156Y-104140000D01*
X184224852Y-103917361D01*
X184170431Y-103700702D01*
X184081354Y-103495840D01*
X183978694Y-103337152D01*
X183962822Y-103312617D01*
X183962820Y-103312614D01*
X183960014Y-103308277D01*
X183809670Y-103143051D01*
X183805619Y-103139852D01*
X183805615Y-103139848D01*
X183638414Y-103007800D01*
X183638410Y-103007798D01*
X183634359Y-103004598D01*
X183593053Y-102981796D01*
X183543084Y-102931364D01*
X183528312Y-102861921D01*
X183553428Y-102795516D01*
X183580780Y-102768909D01*
X183624603Y-102737650D01*
X183759860Y-102641173D01*
X183767168Y-102633891D01*
X183914435Y-102487137D01*
X183918096Y-102483489D01*
X183977594Y-102400689D01*
X184045435Y-102306277D01*
X184048453Y-102302077D01*
X184052543Y-102293803D01*
X184145136Y-102106453D01*
X184145137Y-102106451D01*
X184147430Y-102101811D01*
X184194871Y-101945666D01*
X184210865Y-101893023D01*
X184210865Y-101893021D01*
X184212370Y-101888069D01*
X184241529Y-101666590D01*
X184242992Y-101606726D01*
X184243074Y-101603365D01*
X184243074Y-101603361D01*
X184243156Y-101600000D01*
X184224852Y-101377361D01*
X184170431Y-101160702D01*
X184081354Y-100955840D01*
X184018220Y-100858249D01*
X183962822Y-100772617D01*
X183962820Y-100772614D01*
X183960014Y-100768277D01*
X183809670Y-100603051D01*
X183805619Y-100599852D01*
X183805615Y-100599848D01*
X183638414Y-100467800D01*
X183638410Y-100467798D01*
X183634359Y-100464598D01*
X183593053Y-100441796D01*
X183543084Y-100391364D01*
X183528312Y-100321921D01*
X183553428Y-100255516D01*
X183580780Y-100228909D01*
X183645494Y-100182749D01*
X183759860Y-100101173D01*
X183763992Y-100097056D01*
X183892722Y-99968774D01*
X183918096Y-99943489D01*
X183934199Y-99921080D01*
X184045435Y-99766277D01*
X184048453Y-99762077D01*
X184053520Y-99751826D01*
X184145136Y-99566453D01*
X184145137Y-99566451D01*
X184147430Y-99561811D01*
X184194010Y-99408500D01*
X184210865Y-99353023D01*
X184210865Y-99353021D01*
X184212370Y-99348069D01*
X184241529Y-99126590D01*
X184243156Y-99060000D01*
X184224852Y-98837361D01*
X184170431Y-98620702D01*
X184081354Y-98415840D01*
X184008868Y-98303794D01*
X183962822Y-98232617D01*
X183962820Y-98232614D01*
X183960014Y-98228277D01*
X183809670Y-98063051D01*
X183805619Y-98059852D01*
X183805615Y-98059848D01*
X183638414Y-97927800D01*
X183638410Y-97927798D01*
X183634359Y-97924598D01*
X183593053Y-97901796D01*
X183543084Y-97851364D01*
X183528312Y-97781921D01*
X183553428Y-97715516D01*
X183580780Y-97688909D01*
X183624603Y-97657650D01*
X183759860Y-97561173D01*
X183918096Y-97403489D01*
X183925321Y-97393435D01*
X184045435Y-97226277D01*
X184048453Y-97222077D01*
X184058184Y-97202389D01*
X184145136Y-97026453D01*
X184145137Y-97026451D01*
X184147430Y-97021811D01*
X184212370Y-96808069D01*
X184241529Y-96586590D01*
X184242355Y-96552779D01*
X184243074Y-96523365D01*
X184243074Y-96523361D01*
X184243156Y-96520000D01*
X186446835Y-96520000D01*
X186465465Y-96756711D01*
X186466619Y-96761518D01*
X186466620Y-96761524D01*
X186501442Y-96906565D01*
X186520895Y-96987594D01*
X186522788Y-96992165D01*
X186522789Y-96992167D01*
X186580751Y-97132099D01*
X186611760Y-97206963D01*
X186614346Y-97211183D01*
X186733241Y-97405202D01*
X186733245Y-97405208D01*
X186735824Y-97409416D01*
X186785306Y-97467352D01*
X186883865Y-97582749D01*
X186890031Y-97589969D01*
X187070584Y-97744176D01*
X187074792Y-97746755D01*
X187074798Y-97746759D01*
X187245498Y-97851364D01*
X187273037Y-97868240D01*
X187277607Y-97870133D01*
X187277611Y-97870135D01*
X187486614Y-97956706D01*
X187492406Y-97959105D01*
X187568106Y-97977279D01*
X187718476Y-98013380D01*
X187718482Y-98013381D01*
X187723289Y-98014535D01*
X187960000Y-98033165D01*
X188196711Y-98014535D01*
X188201518Y-98013381D01*
X188201524Y-98013380D01*
X188351894Y-97977279D01*
X188427594Y-97959105D01*
X188433386Y-97956706D01*
X188642389Y-97870135D01*
X188642393Y-97870133D01*
X188646963Y-97868240D01*
X188674502Y-97851364D01*
X188845202Y-97746759D01*
X188845208Y-97746755D01*
X188849416Y-97744176D01*
X189029969Y-97589969D01*
X189036136Y-97582749D01*
X189134694Y-97467352D01*
X189184176Y-97409416D01*
X189186755Y-97405208D01*
X189186759Y-97405202D01*
X189305654Y-97211183D01*
X189308240Y-97206963D01*
X189339250Y-97132099D01*
X189397211Y-96992167D01*
X189397212Y-96992165D01*
X189399105Y-96987594D01*
X189418558Y-96906565D01*
X189453380Y-96761524D01*
X189453381Y-96761518D01*
X189454535Y-96756711D01*
X189473165Y-96520000D01*
X189454535Y-96283289D01*
X189451275Y-96269707D01*
X189400260Y-96057218D01*
X189399105Y-96052406D01*
X189390324Y-96031206D01*
X189310135Y-95837611D01*
X189310133Y-95837607D01*
X189308240Y-95833037D01*
X189286905Y-95798221D01*
X189186759Y-95634798D01*
X189186755Y-95634792D01*
X189184176Y-95630584D01*
X189029969Y-95450031D01*
X188849416Y-95295824D01*
X188845208Y-95293245D01*
X188845202Y-95293241D01*
X188651183Y-95174346D01*
X188646963Y-95171760D01*
X188642393Y-95169867D01*
X188642389Y-95169865D01*
X188432167Y-95082789D01*
X188432165Y-95082788D01*
X188427594Y-95080895D01*
X188347391Y-95061640D01*
X188201524Y-95026620D01*
X188201518Y-95026619D01*
X188196711Y-95025465D01*
X187960000Y-95006835D01*
X187723289Y-95025465D01*
X187718482Y-95026619D01*
X187718476Y-95026620D01*
X187572609Y-95061640D01*
X187492406Y-95080895D01*
X187487835Y-95082788D01*
X187487833Y-95082789D01*
X187277611Y-95169865D01*
X187277607Y-95169867D01*
X187273037Y-95171760D01*
X187268817Y-95174346D01*
X187074798Y-95293241D01*
X187074792Y-95293245D01*
X187070584Y-95295824D01*
X186890031Y-95450031D01*
X186735824Y-95630584D01*
X186733245Y-95634792D01*
X186733241Y-95634798D01*
X186633095Y-95798221D01*
X186611760Y-95833037D01*
X186609867Y-95837607D01*
X186609865Y-95837611D01*
X186529676Y-96031206D01*
X186520895Y-96052406D01*
X186519740Y-96057218D01*
X186468726Y-96269707D01*
X186465465Y-96283289D01*
X186446835Y-96520000D01*
X184243156Y-96520000D01*
X184224852Y-96297361D01*
X184170431Y-96080702D01*
X184081354Y-95875840D01*
X183960014Y-95688277D01*
X183809670Y-95523051D01*
X183805619Y-95519852D01*
X183805615Y-95519848D01*
X183638414Y-95387800D01*
X183638410Y-95387798D01*
X183634359Y-95384598D01*
X183593053Y-95361796D01*
X183543084Y-95311364D01*
X183528312Y-95241921D01*
X183553428Y-95175516D01*
X183580780Y-95148909D01*
X183644050Y-95103779D01*
X183759860Y-95021173D01*
X183918096Y-94863489D01*
X183977594Y-94780689D01*
X184045435Y-94686277D01*
X184048453Y-94682077D01*
X184057505Y-94663763D01*
X184145136Y-94486453D01*
X184145137Y-94486451D01*
X184147430Y-94481811D01*
X184212370Y-94268069D01*
X184241529Y-94046590D01*
X184242507Y-94006565D01*
X184243074Y-93983365D01*
X184243074Y-93983361D01*
X184243156Y-93980000D01*
X184224852Y-93757361D01*
X184170431Y-93540702D01*
X184081354Y-93335840D01*
X183960014Y-93148277D01*
X183809670Y-92983051D01*
X183805619Y-92979852D01*
X183805615Y-92979848D01*
X183638414Y-92847800D01*
X183638410Y-92847798D01*
X183634359Y-92844598D01*
X183593053Y-92821796D01*
X183543084Y-92771364D01*
X183528312Y-92701921D01*
X183553428Y-92635516D01*
X183580780Y-92608909D01*
X183629784Y-92573955D01*
X183759860Y-92481173D01*
X183918096Y-92323489D01*
X183955414Y-92271556D01*
X184045435Y-92146277D01*
X184048453Y-92142077D01*
X184058184Y-92122389D01*
X184145136Y-91946453D01*
X184145137Y-91946451D01*
X184147430Y-91941811D01*
X184201744Y-91763042D01*
X184210865Y-91733023D01*
X184210865Y-91733021D01*
X184212370Y-91728069D01*
X184241529Y-91506590D01*
X184242112Y-91482749D01*
X184243074Y-91443365D01*
X184243074Y-91443361D01*
X184243156Y-91440000D01*
X186446835Y-91440000D01*
X186465465Y-91676711D01*
X186466619Y-91681518D01*
X186466620Y-91681524D01*
X186491600Y-91785572D01*
X186520895Y-91907594D01*
X186522788Y-91912165D01*
X186522789Y-91912167D01*
X186606000Y-92113056D01*
X186611760Y-92126963D01*
X186614346Y-92131183D01*
X186733241Y-92325202D01*
X186733245Y-92325208D01*
X186735824Y-92329416D01*
X186890031Y-92509969D01*
X187070584Y-92664176D01*
X187074792Y-92666755D01*
X187074798Y-92666759D01*
X187268817Y-92785654D01*
X187273037Y-92788240D01*
X187277607Y-92790133D01*
X187277611Y-92790135D01*
X187487833Y-92877211D01*
X187492406Y-92879105D01*
X187542444Y-92891118D01*
X187718476Y-92933380D01*
X187718482Y-92933381D01*
X187723289Y-92934535D01*
X187960000Y-92953165D01*
X188196711Y-92934535D01*
X188201518Y-92933381D01*
X188201524Y-92933380D01*
X188377556Y-92891118D01*
X188427594Y-92879105D01*
X188432167Y-92877211D01*
X188642389Y-92790135D01*
X188642393Y-92790133D01*
X188646963Y-92788240D01*
X188651183Y-92785654D01*
X188845202Y-92666759D01*
X188845208Y-92666755D01*
X188849416Y-92664176D01*
X189029969Y-92509969D01*
X189184176Y-92329416D01*
X189186755Y-92325208D01*
X189186759Y-92325202D01*
X189305654Y-92131183D01*
X189308240Y-92126963D01*
X189314001Y-92113056D01*
X189397211Y-91912167D01*
X189397212Y-91912165D01*
X189399105Y-91907594D01*
X189428400Y-91785572D01*
X189453380Y-91681524D01*
X189453381Y-91681518D01*
X189454535Y-91676711D01*
X189473165Y-91440000D01*
X189454535Y-91203289D01*
X189451843Y-91192073D01*
X189403689Y-90991500D01*
X189399105Y-90972406D01*
X189327693Y-90800000D01*
X189310135Y-90757611D01*
X189310133Y-90757607D01*
X189308240Y-90753037D01*
X189305654Y-90748817D01*
X189186759Y-90554798D01*
X189186755Y-90554792D01*
X189184176Y-90550584D01*
X189029969Y-90370031D01*
X188849416Y-90215824D01*
X188845208Y-90213245D01*
X188845202Y-90213241D01*
X188651183Y-90094346D01*
X188646963Y-90091760D01*
X188642393Y-90089867D01*
X188642389Y-90089865D01*
X188432167Y-90002789D01*
X188432165Y-90002788D01*
X188427594Y-90000895D01*
X188347391Y-89981640D01*
X188201524Y-89946620D01*
X188201518Y-89946619D01*
X188196711Y-89945465D01*
X187960000Y-89926835D01*
X187723289Y-89945465D01*
X187718482Y-89946619D01*
X187718476Y-89946620D01*
X187572609Y-89981640D01*
X187492406Y-90000895D01*
X187487835Y-90002788D01*
X187487833Y-90002789D01*
X187277611Y-90089865D01*
X187277607Y-90089867D01*
X187273037Y-90091760D01*
X187268817Y-90094346D01*
X187074798Y-90213241D01*
X187074792Y-90213245D01*
X187070584Y-90215824D01*
X186890031Y-90370031D01*
X186735824Y-90550584D01*
X186733245Y-90554792D01*
X186733241Y-90554798D01*
X186614346Y-90748817D01*
X186611760Y-90753037D01*
X186609867Y-90757607D01*
X186609865Y-90757611D01*
X186592307Y-90800000D01*
X186520895Y-90972406D01*
X186516311Y-90991500D01*
X186468158Y-91192073D01*
X186465465Y-91203289D01*
X186446835Y-91440000D01*
X184243156Y-91440000D01*
X184224852Y-91217361D01*
X184170431Y-91000702D01*
X184081354Y-90795840D01*
X183978560Y-90636944D01*
X183962822Y-90612617D01*
X183962820Y-90612614D01*
X183960014Y-90608277D01*
X183809670Y-90443051D01*
X183805619Y-90439852D01*
X183805615Y-90439848D01*
X183638414Y-90307800D01*
X183638410Y-90307798D01*
X183634359Y-90304598D01*
X183593053Y-90281796D01*
X183543084Y-90231364D01*
X183528312Y-90161921D01*
X183553428Y-90095516D01*
X183580780Y-90068909D01*
X183649027Y-90020229D01*
X183759860Y-89941173D01*
X183769988Y-89931081D01*
X183914435Y-89787137D01*
X183918096Y-89783489D01*
X183927670Y-89770166D01*
X184045435Y-89606277D01*
X184048453Y-89602077D01*
X184058006Y-89582749D01*
X184145136Y-89406453D01*
X184145137Y-89406451D01*
X184147430Y-89401811D01*
X184212370Y-89188069D01*
X184241529Y-88966590D01*
X184243036Y-88904930D01*
X184243074Y-88903365D01*
X184243074Y-88903361D01*
X184243156Y-88900000D01*
X184224852Y-88677361D01*
X184170431Y-88460702D01*
X184081354Y-88255840D01*
X184015777Y-88154473D01*
X183962822Y-88072617D01*
X183962820Y-88072614D01*
X183960014Y-88068277D01*
X183956532Y-88064450D01*
X183812798Y-87906488D01*
X183781746Y-87842642D01*
X183790141Y-87772143D01*
X183835317Y-87717375D01*
X183861761Y-87703706D01*
X183968297Y-87663767D01*
X183976705Y-87660615D01*
X184093261Y-87573261D01*
X184180615Y-87456705D01*
X184231745Y-87320316D01*
X184238500Y-87258134D01*
X184238500Y-85461866D01*
X184231745Y-85399684D01*
X184180615Y-85263295D01*
X184093261Y-85146739D01*
X183976705Y-85059385D01*
X183840316Y-85008255D01*
X183778134Y-85001500D01*
X181981866Y-85001500D01*
X181919684Y-85008255D01*
X181783295Y-85059385D01*
X181666739Y-85146739D01*
X181579385Y-85263295D01*
X181528255Y-85399684D01*
X181521500Y-85461866D01*
X181521500Y-87258134D01*
X181528255Y-87320316D01*
X181579385Y-87456705D01*
X181666739Y-87573261D01*
X181783295Y-87660615D01*
X181791704Y-87663767D01*
X181791705Y-87663768D01*
X181900451Y-87704535D01*
X181957216Y-87747176D01*
X181981916Y-87813738D01*
X181966709Y-87883087D01*
X181947316Y-87909568D01*
X181820629Y-88042138D01*
X181694743Y-88226680D01*
X181600688Y-88429305D01*
X181540989Y-88644570D01*
X181517251Y-88866695D01*
X181517548Y-88871848D01*
X181517548Y-88871851D01*
X181523011Y-88966590D01*
X181530110Y-89089715D01*
X181531247Y-89094761D01*
X181531248Y-89094767D01*
X181533907Y-89106565D01*
X181579222Y-89307639D01*
X181663266Y-89514616D01*
X181665965Y-89519020D01*
X181773072Y-89693803D01*
X181779987Y-89705088D01*
X181926250Y-89873938D01*
X182098126Y-90016632D01*
X182104282Y-90020229D01*
X182171445Y-90059476D01*
X182220169Y-90111114D01*
X182233240Y-90180897D01*
X182206509Y-90246669D01*
X182166055Y-90280027D01*
X182153607Y-90286507D01*
X182149474Y-90289610D01*
X182149471Y-90289612D01*
X181984914Y-90413165D01*
X181974965Y-90420635D01*
X181820629Y-90582138D01*
X181694743Y-90766680D01*
X181679003Y-90800590D01*
X181638783Y-90887237D01*
X181600688Y-90969305D01*
X181540989Y-91184570D01*
X181517251Y-91406695D01*
X181517548Y-91411848D01*
X181517548Y-91411851D01*
X181528039Y-91593803D01*
X181530110Y-91629715D01*
X181531247Y-91634761D01*
X181531248Y-91634767D01*
X181551070Y-91722721D01*
X181579222Y-91847639D01*
X181617461Y-91941811D01*
X181651665Y-92026045D01*
X181663266Y-92054616D01*
X181779987Y-92245088D01*
X181926250Y-92413938D01*
X182098126Y-92556632D01*
X182127771Y-92573955D01*
X182171445Y-92599476D01*
X182220169Y-92651114D01*
X182233240Y-92720897D01*
X182206509Y-92786669D01*
X182166055Y-92820027D01*
X182153607Y-92826507D01*
X182149474Y-92829610D01*
X182149471Y-92829612D01*
X181984914Y-92953165D01*
X181974965Y-92960635D01*
X181971393Y-92964373D01*
X181874970Y-93065274D01*
X181820629Y-93122138D01*
X181694743Y-93306680D01*
X181679003Y-93340590D01*
X181607884Y-93493803D01*
X181600688Y-93509305D01*
X181540989Y-93724570D01*
X181517251Y-93946695D01*
X181517548Y-93951848D01*
X181517548Y-93951851D01*
X181522847Y-94043751D01*
X181530110Y-94169715D01*
X181531247Y-94174761D01*
X181531248Y-94174767D01*
X181533186Y-94183365D01*
X181579222Y-94387639D01*
X181663266Y-94594616D01*
X181779987Y-94785088D01*
X181926250Y-94953938D01*
X182098126Y-95096632D01*
X182110357Y-95103779D01*
X182171445Y-95139476D01*
X182220169Y-95191114D01*
X182233240Y-95260897D01*
X182206509Y-95326669D01*
X182166055Y-95360027D01*
X182153607Y-95366507D01*
X182149474Y-95369610D01*
X182149471Y-95369612D01*
X181979100Y-95497530D01*
X181974965Y-95500635D01*
X181958736Y-95517618D01*
X181841376Y-95640428D01*
X181820629Y-95662138D01*
X181694743Y-95846680D01*
X181679003Y-95880590D01*
X181615047Y-96018372D01*
X181600688Y-96049305D01*
X181540989Y-96264570D01*
X181517251Y-96486695D01*
X181517548Y-96491848D01*
X181517548Y-96491851D01*
X181523011Y-96586590D01*
X181530110Y-96709715D01*
X181531247Y-96714761D01*
X181531248Y-96714767D01*
X181541786Y-96761524D01*
X181579222Y-96927639D01*
X181630203Y-97053191D01*
X181655475Y-97115428D01*
X181663266Y-97134616D01*
X181779987Y-97325088D01*
X181926250Y-97493938D01*
X182098126Y-97636632D01*
X182168595Y-97677811D01*
X182171445Y-97679476D01*
X182220169Y-97731114D01*
X182233240Y-97800897D01*
X182206509Y-97866669D01*
X182166055Y-97900027D01*
X182153607Y-97906507D01*
X182149474Y-97909610D01*
X182149471Y-97909612D01*
X181984914Y-98033165D01*
X181974965Y-98040635D01*
X181820629Y-98202138D01*
X181817715Y-98206410D01*
X181817714Y-98206411D01*
X181776991Y-98266109D01*
X181694743Y-98386680D01*
X181600688Y-98589305D01*
X181540989Y-98804570D01*
X181517251Y-99026695D01*
X181517548Y-99031848D01*
X181517548Y-99031851D01*
X181522979Y-99126045D01*
X181530110Y-99249715D01*
X181531247Y-99254761D01*
X181531248Y-99254767D01*
X181550713Y-99341135D01*
X181579222Y-99467639D01*
X181663266Y-99674616D01*
X181704659Y-99742163D01*
X181750673Y-99817251D01*
X181779987Y-99865088D01*
X181926250Y-100033938D01*
X182098126Y-100176632D01*
X182108387Y-100182628D01*
X182171445Y-100219476D01*
X182220169Y-100271114D01*
X182233240Y-100340897D01*
X182206509Y-100406669D01*
X182166055Y-100440027D01*
X182153607Y-100446507D01*
X182149474Y-100449610D01*
X182149471Y-100449612D01*
X181986099Y-100572275D01*
X181974965Y-100580635D01*
X181820629Y-100742138D01*
X181817715Y-100746410D01*
X181817714Y-100746411D01*
X181747422Y-100849455D01*
X181694743Y-100926680D01*
X181675204Y-100968774D01*
X181608367Y-101112763D01*
X181600688Y-101129305D01*
X181540989Y-101344570D01*
X181517251Y-101566695D01*
X181517548Y-101571848D01*
X181517548Y-101571851D01*
X181522935Y-101665271D01*
X181530110Y-101789715D01*
X181531247Y-101794761D01*
X181531248Y-101794767D01*
X181547441Y-101866618D01*
X181579222Y-102007639D01*
X181617461Y-102101811D01*
X181660783Y-102208500D01*
X181663266Y-102214616D01*
X181694307Y-102265271D01*
X181739577Y-102339144D01*
X181779987Y-102405088D01*
X181926250Y-102573938D01*
X182098126Y-102716632D01*
X182168595Y-102757811D01*
X182171445Y-102759476D01*
X182220169Y-102811114D01*
X182233240Y-102880897D01*
X182206509Y-102946669D01*
X182166055Y-102980027D01*
X182153607Y-102986507D01*
X182149474Y-102989610D01*
X182149471Y-102989612D01*
X181979100Y-103117530D01*
X181974965Y-103120635D01*
X181820629Y-103282138D01*
X181817715Y-103286410D01*
X181817714Y-103286411D01*
X181809251Y-103298818D01*
X181694743Y-103466680D01*
X181600688Y-103669305D01*
X181540989Y-103884570D01*
X181517251Y-104106695D01*
X177376236Y-104106695D01*
X177439040Y-104036944D01*
X177518985Y-103898476D01*
X177531223Y-103877279D01*
X177531224Y-103877278D01*
X177534527Y-103871556D01*
X177593542Y-103689928D01*
X177595141Y-103674720D01*
X177612814Y-103506565D01*
X177613504Y-103500000D01*
X177604270Y-103412143D01*
X177594232Y-103316635D01*
X177594232Y-103316633D01*
X177593542Y-103310072D01*
X177534527Y-103128444D01*
X177530019Y-103120635D01*
X177442341Y-102968774D01*
X177439040Y-102963056D01*
X177410505Y-102931364D01*
X177315675Y-102826045D01*
X177315674Y-102826044D01*
X177311253Y-102821134D01*
X177156752Y-102708882D01*
X177150724Y-102706198D01*
X177150722Y-102706197D01*
X176988319Y-102633891D01*
X176988318Y-102633891D01*
X176982288Y-102631206D01*
X176888888Y-102611353D01*
X176801944Y-102592872D01*
X176801939Y-102592872D01*
X176795487Y-102591500D01*
X176604513Y-102591500D01*
X176598061Y-102592872D01*
X176598056Y-102592872D01*
X176511113Y-102611353D01*
X176417712Y-102631206D01*
X176411682Y-102633891D01*
X176411681Y-102633891D01*
X176249278Y-102706197D01*
X176249276Y-102706198D01*
X176243248Y-102708882D01*
X176088747Y-102821134D01*
X176084326Y-102826044D01*
X176084325Y-102826045D01*
X175989496Y-102931364D01*
X175960960Y-102963056D01*
X175957659Y-102968774D01*
X175869982Y-103120635D01*
X175865473Y-103128444D01*
X175806458Y-103310072D01*
X175805768Y-103316633D01*
X175805768Y-103316635D01*
X175795730Y-103412143D01*
X175786496Y-103500000D01*
X139159666Y-103500000D01*
X139042437Y-103414828D01*
X139036409Y-103412144D01*
X139036407Y-103412143D01*
X138874004Y-103339837D01*
X138874003Y-103339837D01*
X138867973Y-103337152D01*
X138752546Y-103312617D01*
X138687629Y-103298818D01*
X138687624Y-103298818D01*
X138681172Y-103297446D01*
X138490198Y-103297446D01*
X138483746Y-103298818D01*
X138483741Y-103298818D01*
X138418824Y-103312617D01*
X138303397Y-103337152D01*
X138297367Y-103339837D01*
X138297366Y-103339837D01*
X138134963Y-103412143D01*
X138134961Y-103412144D01*
X138128933Y-103414828D01*
X137974432Y-103527080D01*
X137846645Y-103669002D01*
X137751158Y-103834390D01*
X137692143Y-104016018D01*
X137691453Y-104022579D01*
X137691453Y-104022581D01*
X137682071Y-104111851D01*
X137672181Y-104205946D01*
X121563451Y-104205946D01*
X121501944Y-104192872D01*
X121501939Y-104192872D01*
X121495487Y-104191500D01*
X121304513Y-104191500D01*
X121298061Y-104192872D01*
X121298056Y-104192872D01*
X121211112Y-104211353D01*
X121117712Y-104231206D01*
X121111682Y-104233891D01*
X121111681Y-104233891D01*
X120949278Y-104306197D01*
X120949276Y-104306198D01*
X120943248Y-104308882D01*
X120937907Y-104312763D01*
X120932189Y-104316064D01*
X120930935Y-104313892D01*
X120874705Y-104333946D01*
X120805555Y-104317857D01*
X120756082Y-104266936D01*
X120741566Y-104205073D01*
X120743074Y-104143365D01*
X120743074Y-104143361D01*
X120743156Y-104140000D01*
X120724852Y-103917361D01*
X120670431Y-103700702D01*
X120581354Y-103495840D01*
X120478694Y-103337152D01*
X120462822Y-103312617D01*
X120462820Y-103312614D01*
X120460014Y-103308277D01*
X120309670Y-103143051D01*
X120305619Y-103139852D01*
X120305615Y-103139848D01*
X120138414Y-103007800D01*
X120138410Y-103007798D01*
X120134359Y-103004598D01*
X120093053Y-102981796D01*
X120043084Y-102931364D01*
X120028312Y-102861921D01*
X120053428Y-102795516D01*
X120080780Y-102768909D01*
X120124603Y-102737650D01*
X120259860Y-102641173D01*
X120267168Y-102633891D01*
X120414435Y-102487137D01*
X120418096Y-102483489D01*
X120477594Y-102400689D01*
X120545435Y-102306277D01*
X120548453Y-102302077D01*
X120552543Y-102293803D01*
X120645136Y-102106453D01*
X120645137Y-102106451D01*
X120647430Y-102101811D01*
X120694871Y-101945666D01*
X120710865Y-101893023D01*
X120710865Y-101893021D01*
X120712370Y-101888069D01*
X120723965Y-101800000D01*
X121486496Y-101800000D01*
X121487186Y-101806565D01*
X121501380Y-101941609D01*
X121506458Y-101989928D01*
X121565473Y-102171556D01*
X121568776Y-102177278D01*
X121568777Y-102177279D01*
X121592876Y-102219020D01*
X121660960Y-102336944D01*
X121788747Y-102478866D01*
X121887843Y-102550864D01*
X121926385Y-102578866D01*
X121943248Y-102591118D01*
X121949276Y-102593802D01*
X121949278Y-102593803D01*
X122064442Y-102645077D01*
X122117712Y-102668794D01*
X122204479Y-102687237D01*
X122298056Y-102707128D01*
X122298061Y-102707128D01*
X122304513Y-102708500D01*
X122495487Y-102708500D01*
X122501939Y-102707128D01*
X122501944Y-102707128D01*
X122595521Y-102687237D01*
X122682288Y-102668794D01*
X122735558Y-102645077D01*
X122850722Y-102593803D01*
X122850724Y-102593802D01*
X122856752Y-102591118D01*
X122873616Y-102578866D01*
X122912157Y-102550864D01*
X123011253Y-102478866D01*
X123139040Y-102336944D01*
X123207124Y-102219020D01*
X123231223Y-102177279D01*
X123231224Y-102177278D01*
X123234527Y-102171556D01*
X123293542Y-101989928D01*
X123298621Y-101941609D01*
X123302994Y-101900000D01*
X124186496Y-101900000D01*
X124187186Y-101906565D01*
X124196608Y-101996206D01*
X124206458Y-102089928D01*
X124265473Y-102271556D01*
X124360960Y-102436944D01*
X124488747Y-102578866D01*
X124643248Y-102691118D01*
X124649276Y-102693802D01*
X124649278Y-102693803D01*
X124796783Y-102759476D01*
X124817712Y-102768794D01*
X124911113Y-102788647D01*
X124998056Y-102807128D01*
X124998061Y-102807128D01*
X125004513Y-102808500D01*
X125195487Y-102808500D01*
X125201939Y-102807128D01*
X125201944Y-102807128D01*
X125288887Y-102788647D01*
X125382288Y-102768794D01*
X125403217Y-102759476D01*
X125550722Y-102693803D01*
X125550724Y-102693802D01*
X125556752Y-102691118D01*
X125711253Y-102578866D01*
X125839040Y-102436944D01*
X125934527Y-102271556D01*
X125959766Y-102193880D01*
X125991502Y-102096207D01*
X125991502Y-102096205D01*
X125993542Y-102089928D01*
X125994197Y-102083693D01*
X126027868Y-102021328D01*
X126090018Y-101987008D01*
X126117385Y-101984000D01*
X126295487Y-101984000D01*
X126301939Y-101982628D01*
X126301944Y-101982628D01*
X126393145Y-101963242D01*
X126482288Y-101944294D01*
X126488319Y-101941609D01*
X126650722Y-101869303D01*
X126650724Y-101869302D01*
X126656752Y-101866618D01*
X126748443Y-101800000D01*
X145386496Y-101800000D01*
X145387186Y-101806565D01*
X145401380Y-101941609D01*
X145406458Y-101989928D01*
X145465473Y-102171556D01*
X145468776Y-102177278D01*
X145468777Y-102177279D01*
X145492876Y-102219020D01*
X145560960Y-102336944D01*
X145688747Y-102478866D01*
X145787843Y-102550864D01*
X145826385Y-102578866D01*
X145843248Y-102591118D01*
X145849276Y-102593802D01*
X145849278Y-102593803D01*
X145964442Y-102645077D01*
X146017712Y-102668794D01*
X146104479Y-102687237D01*
X146198056Y-102707128D01*
X146198061Y-102707128D01*
X146204513Y-102708500D01*
X146395487Y-102708500D01*
X146401939Y-102707128D01*
X146401944Y-102707128D01*
X146495521Y-102687237D01*
X146582288Y-102668794D01*
X146635558Y-102645077D01*
X146750722Y-102593803D01*
X146750724Y-102593802D01*
X146756752Y-102591118D01*
X146773616Y-102578866D01*
X146812157Y-102550864D01*
X146911253Y-102478866D01*
X147037059Y-102339144D01*
X147097505Y-102301904D01*
X147168488Y-102303256D01*
X147181943Y-102308347D01*
X147311677Y-102366108D01*
X147311685Y-102366111D01*
X147317712Y-102368794D01*
X147411113Y-102388647D01*
X147498056Y-102407128D01*
X147498061Y-102407128D01*
X147504513Y-102408500D01*
X147695487Y-102408500D01*
X147701939Y-102407128D01*
X147701944Y-102407128D01*
X147788887Y-102388647D01*
X147882288Y-102368794D01*
X147942801Y-102341852D01*
X148050722Y-102293803D01*
X148050724Y-102293802D01*
X148056752Y-102291118D01*
X148175940Y-102204523D01*
X148242806Y-102180665D01*
X148311958Y-102196745D01*
X148324058Y-102204521D01*
X148443248Y-102291118D01*
X148449276Y-102293802D01*
X148449278Y-102293803D01*
X148557199Y-102341852D01*
X148617712Y-102368794D01*
X148711113Y-102388647D01*
X148798056Y-102407128D01*
X148798061Y-102407128D01*
X148804513Y-102408500D01*
X148995487Y-102408500D01*
X149001939Y-102407128D01*
X149001944Y-102407128D01*
X149088887Y-102388647D01*
X149182288Y-102368794D01*
X149242801Y-102341852D01*
X149350722Y-102293803D01*
X149350724Y-102293802D01*
X149356752Y-102291118D01*
X149383677Y-102271556D01*
X149425939Y-102240851D01*
X149492807Y-102216992D01*
X149561959Y-102233073D01*
X149574061Y-102240851D01*
X149616323Y-102271556D01*
X149643248Y-102291118D01*
X149649276Y-102293802D01*
X149649278Y-102293803D01*
X149757199Y-102341852D01*
X149817712Y-102368794D01*
X149911113Y-102388647D01*
X149998056Y-102407128D01*
X149998061Y-102407128D01*
X150004513Y-102408500D01*
X150195487Y-102408500D01*
X150201939Y-102407128D01*
X150201944Y-102407128D01*
X150288887Y-102388647D01*
X150382288Y-102368794D01*
X150442801Y-102341852D01*
X150550722Y-102293803D01*
X150550724Y-102293802D01*
X150556752Y-102291118D01*
X150675940Y-102204523D01*
X150742806Y-102180665D01*
X150811958Y-102196745D01*
X150824058Y-102204521D01*
X150943248Y-102291118D01*
X150949276Y-102293802D01*
X150949278Y-102293803D01*
X151057199Y-102341852D01*
X151117712Y-102368794D01*
X151211113Y-102388647D01*
X151298056Y-102407128D01*
X151298061Y-102407128D01*
X151304513Y-102408500D01*
X151495487Y-102408500D01*
X151501939Y-102407128D01*
X151501944Y-102407128D01*
X151588887Y-102388647D01*
X151682288Y-102368794D01*
X151742801Y-102341852D01*
X151850722Y-102293803D01*
X151850724Y-102293802D01*
X151856752Y-102291118D01*
X151883677Y-102271556D01*
X151925939Y-102240851D01*
X151992807Y-102216992D01*
X152061959Y-102233073D01*
X152074061Y-102240851D01*
X152116323Y-102271556D01*
X152143248Y-102291118D01*
X152149276Y-102293802D01*
X152149278Y-102293803D01*
X152257199Y-102341852D01*
X152317712Y-102368794D01*
X152411113Y-102388647D01*
X152498056Y-102407128D01*
X152498061Y-102407128D01*
X152504513Y-102408500D01*
X152695487Y-102408500D01*
X152701939Y-102407128D01*
X152701944Y-102407128D01*
X152788887Y-102388647D01*
X152882288Y-102368794D01*
X152942801Y-102341852D01*
X153050722Y-102293803D01*
X153050724Y-102293802D01*
X153056752Y-102291118D01*
X153175940Y-102204523D01*
X153242806Y-102180665D01*
X153311958Y-102196745D01*
X153324058Y-102204521D01*
X153443248Y-102291118D01*
X153449276Y-102293802D01*
X153449278Y-102293803D01*
X153557199Y-102341852D01*
X153617712Y-102368794D01*
X153711113Y-102388647D01*
X153798056Y-102407128D01*
X153798061Y-102407128D01*
X153804513Y-102408500D01*
X153995487Y-102408500D01*
X154001939Y-102407128D01*
X154001944Y-102407128D01*
X154088887Y-102388647D01*
X154182288Y-102368794D01*
X154242801Y-102341852D01*
X154350722Y-102293803D01*
X154350724Y-102293802D01*
X154356752Y-102291118D01*
X154511253Y-102178866D01*
X154520322Y-102168794D01*
X154634621Y-102041852D01*
X154634622Y-102041851D01*
X154639040Y-102036944D01*
X154734527Y-101871556D01*
X154793542Y-101689928D01*
X154794872Y-101677279D01*
X154812814Y-101506565D01*
X154813504Y-101500000D01*
X154793542Y-101310072D01*
X154734527Y-101128444D01*
X154639040Y-100963056D01*
X154544672Y-100858249D01*
X154515675Y-100826045D01*
X154515674Y-100826044D01*
X154511253Y-100821134D01*
X154356752Y-100708882D01*
X154350724Y-100706198D01*
X154350722Y-100706197D01*
X154188319Y-100633891D01*
X154188318Y-100633891D01*
X154182288Y-100631206D01*
X154067797Y-100606870D01*
X154001944Y-100592872D01*
X154001939Y-100592872D01*
X153995487Y-100591500D01*
X153804513Y-100591500D01*
X153798061Y-100592872D01*
X153798056Y-100592872D01*
X153732203Y-100606870D01*
X153617712Y-100631206D01*
X153611682Y-100633891D01*
X153611681Y-100633891D01*
X153449278Y-100706197D01*
X153449276Y-100706198D01*
X153443248Y-100708882D01*
X153330427Y-100790852D01*
X153324061Y-100795477D01*
X153257194Y-100819335D01*
X153188042Y-100803255D01*
X153175939Y-100795477D01*
X153169574Y-100790852D01*
X153056752Y-100708882D01*
X153050724Y-100706198D01*
X153050722Y-100706197D01*
X152888319Y-100633891D01*
X152888318Y-100633891D01*
X152882288Y-100631206D01*
X152767797Y-100606870D01*
X152701944Y-100592872D01*
X152701939Y-100592872D01*
X152695487Y-100591500D01*
X152504513Y-100591500D01*
X152498061Y-100592872D01*
X152498056Y-100592872D01*
X152432203Y-100606870D01*
X152317712Y-100631206D01*
X152311682Y-100633891D01*
X152311681Y-100633891D01*
X152149278Y-100706197D01*
X152149276Y-100706198D01*
X152143248Y-100708882D01*
X152137907Y-100712762D01*
X152137906Y-100712763D01*
X152074061Y-100759149D01*
X152007193Y-100783008D01*
X151938041Y-100766927D01*
X151925939Y-100759149D01*
X151862094Y-100712763D01*
X151862093Y-100712762D01*
X151856752Y-100708882D01*
X151850724Y-100706198D01*
X151850722Y-100706197D01*
X151688319Y-100633891D01*
X151688318Y-100633891D01*
X151682288Y-100631206D01*
X151567797Y-100606870D01*
X151501944Y-100592872D01*
X151501939Y-100592872D01*
X151495487Y-100591500D01*
X151304513Y-100591500D01*
X151298061Y-100592872D01*
X151298056Y-100592872D01*
X151232203Y-100606870D01*
X151117712Y-100631206D01*
X151111682Y-100633891D01*
X151111681Y-100633891D01*
X150949278Y-100706197D01*
X150949276Y-100706198D01*
X150943248Y-100708882D01*
X150830427Y-100790852D01*
X150824061Y-100795477D01*
X150757194Y-100819335D01*
X150688042Y-100803255D01*
X150675939Y-100795477D01*
X150669574Y-100790852D01*
X150556752Y-100708882D01*
X150550724Y-100706198D01*
X150550722Y-100706197D01*
X150388319Y-100633891D01*
X150388318Y-100633891D01*
X150382288Y-100631206D01*
X150267797Y-100606870D01*
X150201944Y-100592872D01*
X150201939Y-100592872D01*
X150195487Y-100591500D01*
X150004513Y-100591500D01*
X149998061Y-100592872D01*
X149998056Y-100592872D01*
X149932203Y-100606870D01*
X149817712Y-100631206D01*
X149811682Y-100633891D01*
X149811681Y-100633891D01*
X149649278Y-100706197D01*
X149649276Y-100706198D01*
X149643248Y-100708882D01*
X149637907Y-100712762D01*
X149637906Y-100712763D01*
X149574061Y-100759149D01*
X149507193Y-100783008D01*
X149438041Y-100766927D01*
X149425939Y-100759149D01*
X149362094Y-100712763D01*
X149362093Y-100712762D01*
X149356752Y-100708882D01*
X149350724Y-100706198D01*
X149350722Y-100706197D01*
X149188319Y-100633891D01*
X149188318Y-100633891D01*
X149182288Y-100631206D01*
X149067797Y-100606870D01*
X149001944Y-100592872D01*
X149001939Y-100592872D01*
X148995487Y-100591500D01*
X148804513Y-100591500D01*
X148798061Y-100592872D01*
X148798056Y-100592872D01*
X148732203Y-100606870D01*
X148617712Y-100631206D01*
X148611682Y-100633891D01*
X148611681Y-100633891D01*
X148449278Y-100706197D01*
X148449276Y-100706198D01*
X148443248Y-100708882D01*
X148330427Y-100790852D01*
X148324061Y-100795477D01*
X148257194Y-100819335D01*
X148188042Y-100803255D01*
X148175939Y-100795477D01*
X148169574Y-100790852D01*
X148056752Y-100708882D01*
X148050724Y-100706198D01*
X148050722Y-100706197D01*
X147888319Y-100633891D01*
X147888318Y-100633891D01*
X147882288Y-100631206D01*
X147767797Y-100606870D01*
X147701944Y-100592872D01*
X147701939Y-100592872D01*
X147695487Y-100591500D01*
X147504513Y-100591500D01*
X147498061Y-100592872D01*
X147498056Y-100592872D01*
X147432203Y-100606870D01*
X147317712Y-100631206D01*
X147311682Y-100633891D01*
X147311681Y-100633891D01*
X147149278Y-100706197D01*
X147149276Y-100706198D01*
X147143248Y-100708882D01*
X146988747Y-100821134D01*
X146984326Y-100826044D01*
X146984325Y-100826045D01*
X146950000Y-100864167D01*
X146863181Y-100960590D01*
X146862941Y-100960856D01*
X146802495Y-100998096D01*
X146731512Y-100996744D01*
X146718057Y-100991653D01*
X146588323Y-100933892D01*
X146588315Y-100933889D01*
X146582288Y-100931206D01*
X146488887Y-100911353D01*
X146401944Y-100892872D01*
X146401939Y-100892872D01*
X146395487Y-100891500D01*
X146204513Y-100891500D01*
X146198061Y-100892872D01*
X146198056Y-100892872D01*
X146111113Y-100911353D01*
X146017712Y-100931206D01*
X146011682Y-100933891D01*
X146011681Y-100933891D01*
X145849278Y-101006197D01*
X145849276Y-101006198D01*
X145843248Y-101008882D01*
X145837907Y-101012762D01*
X145837906Y-101012763D01*
X145804624Y-101036944D01*
X145688747Y-101121134D01*
X145684326Y-101126044D01*
X145684325Y-101126045D01*
X145648602Y-101165720D01*
X145560960Y-101263056D01*
X145504766Y-101360387D01*
X145470751Y-101419303D01*
X145465473Y-101428444D01*
X145406458Y-101610072D01*
X145405768Y-101616633D01*
X145405768Y-101616635D01*
X145395948Y-101710072D01*
X145386496Y-101800000D01*
X126748443Y-101800000D01*
X126811253Y-101754366D01*
X126845226Y-101716635D01*
X126934621Y-101617352D01*
X126934622Y-101617351D01*
X126939040Y-101612444D01*
X127034527Y-101447056D01*
X127035147Y-101447414D01*
X127077906Y-101397109D01*
X127145834Y-101376462D01*
X127214142Y-101395816D01*
X127221091Y-101400520D01*
X127232075Y-101408500D01*
X127243248Y-101416618D01*
X127249276Y-101419302D01*
X127249278Y-101419303D01*
X127411681Y-101491609D01*
X127417712Y-101494294D01*
X127491405Y-101509958D01*
X127598056Y-101532628D01*
X127598061Y-101532628D01*
X127604513Y-101534000D01*
X127795487Y-101534000D01*
X127801939Y-101532628D01*
X127801944Y-101532628D01*
X127908595Y-101509958D01*
X127982288Y-101494294D01*
X127988319Y-101491609D01*
X128150722Y-101419303D01*
X128150724Y-101419302D01*
X128156752Y-101416618D01*
X128167926Y-101408500D01*
X128303399Y-101310072D01*
X128311253Y-101304366D01*
X128315675Y-101299455D01*
X128434621Y-101167352D01*
X128434622Y-101167351D01*
X128439040Y-101162444D01*
X128451696Y-101140524D01*
X128503080Y-101091531D01*
X128572794Y-101078097D01*
X128586999Y-101080277D01*
X128604513Y-101084000D01*
X128795487Y-101084000D01*
X128801939Y-101082628D01*
X128801944Y-101082628D01*
X128888887Y-101064147D01*
X128982288Y-101044294D01*
X128988319Y-101041609D01*
X129150722Y-100969303D01*
X129150724Y-100969302D01*
X129156752Y-100966618D01*
X129311253Y-100854366D01*
X129342795Y-100819335D01*
X129434621Y-100717352D01*
X129434622Y-100717351D01*
X129439040Y-100712444D01*
X129474039Y-100651824D01*
X129525420Y-100602832D01*
X129595133Y-100589395D01*
X129616822Y-100593898D01*
X129617712Y-100594294D01*
X129624170Y-100595667D01*
X129624171Y-100595667D01*
X129798056Y-100632628D01*
X129798061Y-100632628D01*
X129804513Y-100634000D01*
X129995487Y-100634000D01*
X130001939Y-100632628D01*
X130001944Y-100632628D01*
X130088887Y-100614147D01*
X130182288Y-100594294D01*
X130188319Y-100591609D01*
X130350722Y-100519303D01*
X130350724Y-100519302D01*
X130356752Y-100516618D01*
X130403369Y-100482749D01*
X130462170Y-100440027D01*
X130511253Y-100404366D01*
X130529366Y-100384250D01*
X130634621Y-100267352D01*
X130634622Y-100267351D01*
X130639040Y-100262444D01*
X130714015Y-100132585D01*
X130765395Y-100083593D01*
X130835109Y-100070156D01*
X130874380Y-100080479D01*
X130881375Y-100083593D01*
X130996229Y-100134729D01*
X131017712Y-100144294D01*
X131111112Y-100164147D01*
X131198056Y-100182628D01*
X131198061Y-100182628D01*
X131204513Y-100184000D01*
X131395487Y-100184000D01*
X131401939Y-100182628D01*
X131401944Y-100182628D01*
X131488888Y-100164147D01*
X131582288Y-100144294D01*
X131588319Y-100141609D01*
X131750722Y-100069303D01*
X131750724Y-100069302D01*
X131756752Y-100066618D01*
X131763874Y-100061444D01*
X131899292Y-99963056D01*
X131911253Y-99954366D01*
X131941224Y-99921080D01*
X132034621Y-99817352D01*
X132034622Y-99817351D01*
X132039040Y-99812444D01*
X132074039Y-99751824D01*
X132125420Y-99702832D01*
X132195133Y-99689395D01*
X132216822Y-99693898D01*
X132217712Y-99694294D01*
X132224170Y-99695667D01*
X132224171Y-99695667D01*
X132398056Y-99732628D01*
X132398061Y-99732628D01*
X132404513Y-99734000D01*
X132595487Y-99734000D01*
X132601939Y-99732628D01*
X132601944Y-99732628D01*
X132713657Y-99708882D01*
X132782288Y-99694294D01*
X132788319Y-99691609D01*
X132950722Y-99619303D01*
X132950724Y-99619302D01*
X132956752Y-99616618D01*
X132967315Y-99608944D01*
X133032187Y-99561811D01*
X133111253Y-99504366D01*
X133115184Y-99500000D01*
X154286496Y-99500000D01*
X154287186Y-99506565D01*
X154305312Y-99679020D01*
X154306458Y-99689928D01*
X154365473Y-99871556D01*
X154460960Y-100036944D01*
X154465378Y-100041851D01*
X154465379Y-100041852D01*
X154576506Y-100165271D01*
X154588747Y-100178866D01*
X154630761Y-100209391D01*
X154733977Y-100284382D01*
X154743248Y-100291118D01*
X154749276Y-100293802D01*
X154749278Y-100293803D01*
X154846175Y-100336944D01*
X154917712Y-100368794D01*
X155011113Y-100388647D01*
X155098056Y-100407128D01*
X155098061Y-100407128D01*
X155104513Y-100408500D01*
X155295487Y-100408500D01*
X155301939Y-100407128D01*
X155301944Y-100407128D01*
X155434989Y-100378848D01*
X155505780Y-100384250D01*
X155562413Y-100427067D01*
X155586906Y-100493705D01*
X155586967Y-100495522D01*
X155586496Y-100500000D01*
X155587186Y-100506565D01*
X155603955Y-100666109D01*
X155606458Y-100689928D01*
X155665473Y-100871556D01*
X155760960Y-101036944D01*
X155765378Y-101041851D01*
X155765379Y-101041852D01*
X155876910Y-101165720D01*
X155888747Y-101178866D01*
X156043248Y-101291118D01*
X156049276Y-101293802D01*
X156049278Y-101293803D01*
X156198829Y-101360387D01*
X156217712Y-101368794D01*
X156311113Y-101388647D01*
X156398056Y-101407128D01*
X156398061Y-101407128D01*
X156404513Y-101408500D01*
X156595487Y-101408500D01*
X156601939Y-101407128D01*
X156601944Y-101407128D01*
X156636036Y-101399881D01*
X156706827Y-101405283D01*
X156763459Y-101448100D01*
X156787542Y-101509957D01*
X156793506Y-101566695D01*
X156805129Y-101677279D01*
X156806458Y-101689928D01*
X156865473Y-101871556D01*
X156960960Y-102036944D01*
X156965378Y-102041851D01*
X156965379Y-102041852D01*
X157079678Y-102168794D01*
X157088747Y-102178866D01*
X157243248Y-102291118D01*
X157249276Y-102293802D01*
X157249278Y-102293803D01*
X157357199Y-102341852D01*
X157417712Y-102368794D01*
X157511113Y-102388647D01*
X157598056Y-102407128D01*
X157598061Y-102407128D01*
X157604513Y-102408500D01*
X157795487Y-102408500D01*
X157801939Y-102407128D01*
X157801944Y-102407128D01*
X157888887Y-102388647D01*
X157982288Y-102368794D01*
X158042801Y-102341852D01*
X158150722Y-102293803D01*
X158150724Y-102293802D01*
X158156752Y-102291118D01*
X158311253Y-102178866D01*
X158320322Y-102168794D01*
X158434621Y-102041852D01*
X158434622Y-102041851D01*
X158439040Y-102036944D01*
X158534527Y-101871556D01*
X158593542Y-101689928D01*
X158594872Y-101677279D01*
X158612814Y-101506565D01*
X158613504Y-101500000D01*
X158593542Y-101310072D01*
X158590269Y-101300000D01*
X161686496Y-101300000D01*
X161687186Y-101306565D01*
X161701990Y-101447414D01*
X161706458Y-101489928D01*
X161765473Y-101671556D01*
X161860960Y-101836944D01*
X161865378Y-101841851D01*
X161865379Y-101841852D01*
X161974679Y-101963242D01*
X161988747Y-101978866D01*
X162143248Y-102091118D01*
X162149276Y-102093802D01*
X162149278Y-102093803D01*
X162177691Y-102106453D01*
X162317712Y-102168794D01*
X162383365Y-102182749D01*
X162498056Y-102207128D01*
X162498061Y-102207128D01*
X162504513Y-102208500D01*
X162695487Y-102208500D01*
X162701939Y-102207128D01*
X162701944Y-102207128D01*
X162816635Y-102182749D01*
X162882288Y-102168794D01*
X163022309Y-102106453D01*
X163050722Y-102093803D01*
X163050724Y-102093802D01*
X163056752Y-102091118D01*
X163211253Y-101978866D01*
X163225321Y-101963242D01*
X163334621Y-101841852D01*
X163334622Y-101841851D01*
X163339040Y-101836944D01*
X163434527Y-101671556D01*
X163488136Y-101506565D01*
X163491500Y-101496213D01*
X163491500Y-101496212D01*
X163493542Y-101489928D01*
X163494081Y-101484800D01*
X163527553Y-101422801D01*
X163590875Y-101388224D01*
X163623819Y-101381222D01*
X163675830Y-101370167D01*
X163675833Y-101370166D01*
X163682288Y-101368794D01*
X163701171Y-101360387D01*
X163850722Y-101293803D01*
X163850724Y-101293802D01*
X163856752Y-101291118D01*
X164011253Y-101178866D01*
X164023090Y-101165720D01*
X164134621Y-101041852D01*
X164134622Y-101041851D01*
X164139040Y-101036944D01*
X164234527Y-100871556D01*
X164293542Y-100689928D01*
X164296046Y-100666109D01*
X164312814Y-100506565D01*
X164313504Y-100500000D01*
X164312814Y-100493435D01*
X164312814Y-100490147D01*
X164332816Y-100422026D01*
X164386472Y-100375533D01*
X164399877Y-100370314D01*
X164400331Y-100370166D01*
X164406788Y-100368794D01*
X164478325Y-100336944D01*
X164575222Y-100293803D01*
X164575224Y-100293802D01*
X164581252Y-100291118D01*
X164590524Y-100284382D01*
X164693739Y-100209391D01*
X164735753Y-100178866D01*
X164747994Y-100165271D01*
X164859121Y-100041852D01*
X164859122Y-100041851D01*
X164863540Y-100036944D01*
X164959027Y-99871556D01*
X164982277Y-99800000D01*
X173686496Y-99800000D01*
X173687186Y-99806565D01*
X173704235Y-99968774D01*
X173706458Y-99989928D01*
X173765473Y-100171556D01*
X173768776Y-100177278D01*
X173768777Y-100177279D01*
X173784747Y-100204940D01*
X173860960Y-100336944D01*
X173865378Y-100341851D01*
X173865379Y-100341852D01*
X173973654Y-100462104D01*
X173988747Y-100478866D01*
X174143248Y-100591118D01*
X174149276Y-100593802D01*
X174149278Y-100593803D01*
X174236481Y-100632628D01*
X174317712Y-100668794D01*
X174386263Y-100683365D01*
X174498056Y-100707128D01*
X174498061Y-100707128D01*
X174504513Y-100708500D01*
X174695487Y-100708500D01*
X174701939Y-100707128D01*
X174701944Y-100707128D01*
X174813737Y-100683365D01*
X174882288Y-100668794D01*
X174963519Y-100632628D01*
X175050722Y-100593803D01*
X175050724Y-100593802D01*
X175056752Y-100591118D01*
X175211253Y-100478866D01*
X175226346Y-100462104D01*
X175334621Y-100341852D01*
X175334622Y-100341851D01*
X175339040Y-100336944D01*
X175415253Y-100204940D01*
X175431223Y-100177279D01*
X175431224Y-100177278D01*
X175434527Y-100171556D01*
X175493542Y-99989928D01*
X175495766Y-99968774D01*
X175512814Y-99806565D01*
X175513504Y-99800000D01*
X175502538Y-99695666D01*
X175494232Y-99616635D01*
X175494232Y-99616633D01*
X175493542Y-99610072D01*
X175434527Y-99428444D01*
X175339040Y-99263056D01*
X175322375Y-99244547D01*
X175215675Y-99126045D01*
X175215674Y-99126044D01*
X175211253Y-99121134D01*
X175087506Y-99031226D01*
X175062094Y-99012763D01*
X175062093Y-99012762D01*
X175056752Y-99008882D01*
X175050724Y-99006198D01*
X175050722Y-99006197D01*
X174888319Y-98933891D01*
X174888318Y-98933891D01*
X174882288Y-98931206D01*
X174788887Y-98911353D01*
X174701944Y-98892872D01*
X174701939Y-98892872D01*
X174695487Y-98891500D01*
X174504513Y-98891500D01*
X174498061Y-98892872D01*
X174498056Y-98892872D01*
X174411112Y-98911353D01*
X174317712Y-98931206D01*
X174311682Y-98933891D01*
X174311681Y-98933891D01*
X174149278Y-99006197D01*
X174149276Y-99006198D01*
X174143248Y-99008882D01*
X174137907Y-99012762D01*
X174137906Y-99012763D01*
X174112494Y-99031226D01*
X173988747Y-99121134D01*
X173984326Y-99126044D01*
X173984325Y-99126045D01*
X173877626Y-99244547D01*
X173860960Y-99263056D01*
X173765473Y-99428444D01*
X173706458Y-99610072D01*
X173705768Y-99616633D01*
X173705768Y-99616635D01*
X173697462Y-99695666D01*
X173686496Y-99800000D01*
X164982277Y-99800000D01*
X165018042Y-99689928D01*
X165019189Y-99679020D01*
X165037314Y-99506565D01*
X165038004Y-99500000D01*
X165028243Y-99407128D01*
X165018732Y-99316635D01*
X165018732Y-99316633D01*
X165018042Y-99310072D01*
X164959027Y-99128444D01*
X164863540Y-98963056D01*
X164825242Y-98920521D01*
X164740175Y-98826045D01*
X164740174Y-98826044D01*
X164735753Y-98821134D01*
X164611278Y-98730697D01*
X164586594Y-98712763D01*
X164586593Y-98712762D01*
X164581252Y-98708882D01*
X164575224Y-98706198D01*
X164575222Y-98706197D01*
X164412819Y-98633891D01*
X164412818Y-98633891D01*
X164406788Y-98631206D01*
X164307361Y-98610072D01*
X164226444Y-98592872D01*
X164226439Y-98592872D01*
X164219987Y-98591500D01*
X164029013Y-98591500D01*
X164022561Y-98592872D01*
X164022556Y-98592872D01*
X163941639Y-98610072D01*
X163842212Y-98631206D01*
X163836182Y-98633891D01*
X163836181Y-98633891D01*
X163673778Y-98706197D01*
X163673776Y-98706198D01*
X163667748Y-98708882D01*
X163662407Y-98712762D01*
X163662406Y-98712763D01*
X163637722Y-98730697D01*
X163513247Y-98821134D01*
X163508826Y-98826044D01*
X163508825Y-98826045D01*
X163423759Y-98920521D01*
X163385460Y-98963056D01*
X163289973Y-99128444D01*
X163230958Y-99310072D01*
X163230268Y-99316633D01*
X163230268Y-99316635D01*
X163220757Y-99407128D01*
X163210996Y-99500000D01*
X163211686Y-99506565D01*
X163211686Y-99509853D01*
X163191684Y-99577974D01*
X163138028Y-99624467D01*
X163124623Y-99629686D01*
X163124169Y-99629834D01*
X163117712Y-99631206D01*
X163111682Y-99633891D01*
X163111681Y-99633891D01*
X162949278Y-99706197D01*
X162949276Y-99706198D01*
X162943248Y-99708882D01*
X162937907Y-99712762D01*
X162937906Y-99712763D01*
X162908676Y-99734000D01*
X162788747Y-99821134D01*
X162784326Y-99826044D01*
X162784325Y-99826045D01*
X162668785Y-99954366D01*
X162660960Y-99963056D01*
X162565473Y-100128444D01*
X162549978Y-100176132D01*
X162512617Y-100291118D01*
X162506458Y-100310072D01*
X162505919Y-100315200D01*
X162472447Y-100377199D01*
X162409125Y-100411776D01*
X162376181Y-100418778D01*
X162324170Y-100429833D01*
X162324167Y-100429834D01*
X162317712Y-100431206D01*
X162311682Y-100433891D01*
X162311681Y-100433891D01*
X162149278Y-100506197D01*
X162149276Y-100506198D01*
X162143248Y-100508882D01*
X161988747Y-100621134D01*
X161984326Y-100626044D01*
X161984325Y-100626045D01*
X161879795Y-100742138D01*
X161860960Y-100763056D01*
X161828467Y-100819335D01*
X161786011Y-100892872D01*
X161765473Y-100928444D01*
X161706458Y-101110072D01*
X161705768Y-101116633D01*
X161705768Y-101116635D01*
X161698819Y-101182749D01*
X161686496Y-101300000D01*
X158590269Y-101300000D01*
X158534527Y-101128444D01*
X158439040Y-100963056D01*
X158344672Y-100858249D01*
X158315675Y-100826045D01*
X158315674Y-100826044D01*
X158311253Y-100821134D01*
X158156752Y-100708882D01*
X158150724Y-100706198D01*
X158150722Y-100706197D01*
X157988319Y-100633891D01*
X157988318Y-100633891D01*
X157982288Y-100631206D01*
X157867797Y-100606870D01*
X157801944Y-100592872D01*
X157801939Y-100592872D01*
X157795487Y-100591500D01*
X157604513Y-100591500D01*
X157598061Y-100592872D01*
X157598056Y-100592872D01*
X157563964Y-100600119D01*
X157493173Y-100594717D01*
X157436541Y-100551900D01*
X157412457Y-100490042D01*
X157411283Y-100478866D01*
X157396366Y-100336944D01*
X157394232Y-100316635D01*
X157394232Y-100316633D01*
X157393542Y-100310072D01*
X157334527Y-100128444D01*
X157239040Y-99963056D01*
X157231216Y-99954366D01*
X157115675Y-99826045D01*
X157115674Y-99826044D01*
X157111253Y-99821134D01*
X156991324Y-99734000D01*
X156962094Y-99712763D01*
X156962093Y-99712762D01*
X156956752Y-99708882D01*
X156950724Y-99706198D01*
X156950722Y-99706197D01*
X156788319Y-99633891D01*
X156788318Y-99633891D01*
X156782288Y-99631206D01*
X156677554Y-99608944D01*
X156601944Y-99592872D01*
X156601939Y-99592872D01*
X156595487Y-99591500D01*
X156404513Y-99591500D01*
X156398061Y-99592872D01*
X156398056Y-99592872D01*
X156265011Y-99621152D01*
X156194220Y-99615750D01*
X156137587Y-99572933D01*
X156113094Y-99506295D01*
X156113033Y-99504478D01*
X156113504Y-99500000D01*
X156103743Y-99407128D01*
X156094232Y-99316635D01*
X156094232Y-99316633D01*
X156093542Y-99310072D01*
X156034527Y-99128444D01*
X155939040Y-98963056D01*
X155900742Y-98920521D01*
X155815675Y-98826045D01*
X155815674Y-98826044D01*
X155811253Y-98821134D01*
X155686778Y-98730697D01*
X155662094Y-98712763D01*
X155662093Y-98712762D01*
X155656752Y-98708882D01*
X155650724Y-98706198D01*
X155650722Y-98706197D01*
X155488319Y-98633891D01*
X155488318Y-98633891D01*
X155482288Y-98631206D01*
X155382861Y-98610072D01*
X155301944Y-98592872D01*
X155301939Y-98592872D01*
X155295487Y-98591500D01*
X155104513Y-98591500D01*
X155098061Y-98592872D01*
X155098056Y-98592872D01*
X155017139Y-98610072D01*
X154917712Y-98631206D01*
X154911682Y-98633891D01*
X154911681Y-98633891D01*
X154749278Y-98706197D01*
X154749276Y-98706198D01*
X154743248Y-98708882D01*
X154737907Y-98712762D01*
X154737906Y-98712763D01*
X154713222Y-98730697D01*
X154588747Y-98821134D01*
X154584326Y-98826044D01*
X154584325Y-98826045D01*
X154499259Y-98920521D01*
X154460960Y-98963056D01*
X154365473Y-99128444D01*
X154306458Y-99310072D01*
X154305768Y-99316633D01*
X154305768Y-99316635D01*
X154296257Y-99407128D01*
X154286496Y-99500000D01*
X133115184Y-99500000D01*
X133155525Y-99455197D01*
X133234621Y-99367352D01*
X133234622Y-99367351D01*
X133239040Y-99362444D01*
X133334527Y-99197056D01*
X133393542Y-99015428D01*
X133395871Y-98993274D01*
X133412814Y-98832065D01*
X133413504Y-98825500D01*
X133393542Y-98635572D01*
X133349492Y-98500000D01*
X151286496Y-98500000D01*
X151287186Y-98506565D01*
X151299710Y-98625720D01*
X151306458Y-98689928D01*
X151365473Y-98871556D01*
X151460960Y-99036944D01*
X151465378Y-99041851D01*
X151465379Y-99041852D01*
X151543347Y-99128444D01*
X151588747Y-99178866D01*
X151743248Y-99291118D01*
X151749276Y-99293802D01*
X151749278Y-99293803D01*
X151911681Y-99366109D01*
X151917712Y-99368794D01*
X152011113Y-99388647D01*
X152098056Y-99407128D01*
X152098061Y-99407128D01*
X152104513Y-99408500D01*
X152295487Y-99408500D01*
X152301939Y-99407128D01*
X152301944Y-99407128D01*
X152388887Y-99388647D01*
X152482288Y-99368794D01*
X152488319Y-99366109D01*
X152650722Y-99293803D01*
X152650724Y-99293802D01*
X152656752Y-99291118D01*
X152811253Y-99178866D01*
X152856653Y-99128444D01*
X152934621Y-99041852D01*
X152934622Y-99041851D01*
X152939040Y-99036944D01*
X153034527Y-98871556D01*
X153093542Y-98689928D01*
X153100291Y-98625720D01*
X153112814Y-98506565D01*
X153113504Y-98500000D01*
X153104659Y-98415840D01*
X153094232Y-98316635D01*
X153094232Y-98316633D01*
X153093542Y-98310072D01*
X153034527Y-98128444D01*
X153025290Y-98112444D01*
X152980220Y-98034382D01*
X152939040Y-97963056D01*
X152933323Y-97956706D01*
X152815675Y-97826045D01*
X152815674Y-97826044D01*
X152811253Y-97821134D01*
X152656752Y-97708882D01*
X152650724Y-97706198D01*
X152650722Y-97706197D01*
X152488319Y-97633891D01*
X152488318Y-97633891D01*
X152482288Y-97631206D01*
X152388887Y-97611353D01*
X152301944Y-97592872D01*
X152301939Y-97592872D01*
X152295487Y-97591500D01*
X152104513Y-97591500D01*
X152098061Y-97592872D01*
X152098056Y-97592872D01*
X152011112Y-97611353D01*
X151917712Y-97631206D01*
X151911682Y-97633891D01*
X151911681Y-97633891D01*
X151749278Y-97706197D01*
X151749276Y-97706198D01*
X151743248Y-97708882D01*
X151588747Y-97821134D01*
X151584326Y-97826044D01*
X151584325Y-97826045D01*
X151466678Y-97956706D01*
X151460960Y-97963056D01*
X151419780Y-98034382D01*
X151374711Y-98112444D01*
X151365473Y-98128444D01*
X151306458Y-98310072D01*
X151305768Y-98316633D01*
X151305768Y-98316635D01*
X151295341Y-98415840D01*
X151286496Y-98500000D01*
X133349492Y-98500000D01*
X133334527Y-98453944D01*
X133330601Y-98447143D01*
X133293222Y-98382401D01*
X133239040Y-98288556D01*
X133233812Y-98282749D01*
X133115675Y-98151545D01*
X133115674Y-98151544D01*
X133111253Y-98146634D01*
X132991803Y-98059848D01*
X132962094Y-98038263D01*
X132962093Y-98038262D01*
X132956752Y-98034382D01*
X132950724Y-98031698D01*
X132950722Y-98031697D01*
X132788319Y-97959391D01*
X132788318Y-97959391D01*
X132782288Y-97956706D01*
X132688887Y-97936853D01*
X132601944Y-97918372D01*
X132601939Y-97918372D01*
X132595487Y-97917000D01*
X132404513Y-97917000D01*
X132398061Y-97918372D01*
X132398056Y-97918372D01*
X132311112Y-97936853D01*
X132217712Y-97956706D01*
X132211682Y-97959391D01*
X132211681Y-97959391D01*
X132049278Y-98031697D01*
X132049276Y-98031698D01*
X132043248Y-98034382D01*
X132037907Y-98038262D01*
X132037906Y-98038263D01*
X132008197Y-98059848D01*
X131888747Y-98146634D01*
X131884326Y-98151544D01*
X131884325Y-98151545D01*
X131766189Y-98282749D01*
X131760960Y-98288556D01*
X131725961Y-98349176D01*
X131674580Y-98398168D01*
X131604867Y-98411605D01*
X131583178Y-98407102D01*
X131582288Y-98406706D01*
X131575829Y-98405333D01*
X131401944Y-98368372D01*
X131401939Y-98368372D01*
X131395487Y-98367000D01*
X131204513Y-98367000D01*
X131198061Y-98368372D01*
X131198056Y-98368372D01*
X131132057Y-98382401D01*
X131017712Y-98406706D01*
X131011682Y-98409391D01*
X131011681Y-98409391D01*
X130849278Y-98481697D01*
X130849276Y-98481698D01*
X130843248Y-98484382D01*
X130837907Y-98488262D01*
X130837906Y-98488263D01*
X130787843Y-98524636D01*
X130688747Y-98596634D01*
X130684326Y-98601544D01*
X130684325Y-98601545D01*
X130587679Y-98708882D01*
X130560960Y-98738556D01*
X130485985Y-98868415D01*
X130434605Y-98917407D01*
X130364891Y-98930844D01*
X130325620Y-98920521D01*
X130208585Y-98868414D01*
X130188319Y-98859391D01*
X130188318Y-98859391D01*
X130182288Y-98856706D01*
X130088888Y-98836853D01*
X130001944Y-98818372D01*
X130001939Y-98818372D01*
X129995487Y-98817000D01*
X129804513Y-98817000D01*
X129798061Y-98818372D01*
X129798056Y-98818372D01*
X129756305Y-98827247D01*
X129685514Y-98821845D01*
X129628882Y-98779028D01*
X129604798Y-98717170D01*
X129602517Y-98695461D01*
X129596222Y-98635572D01*
X129594232Y-98616635D01*
X129594232Y-98616633D01*
X129593542Y-98610072D01*
X129534527Y-98428444D01*
X129529993Y-98420590D01*
X129448168Y-98278866D01*
X129439040Y-98263056D01*
X129431216Y-98254366D01*
X129315675Y-98126045D01*
X129315674Y-98126044D01*
X129311253Y-98121134D01*
X129197191Y-98038263D01*
X129162094Y-98012763D01*
X129162093Y-98012762D01*
X129156752Y-98008882D01*
X129150724Y-98006198D01*
X129150722Y-98006197D01*
X128988319Y-97933891D01*
X128988318Y-97933891D01*
X128982288Y-97931206D01*
X128880697Y-97909612D01*
X128801944Y-97892872D01*
X128801939Y-97892872D01*
X128795487Y-97891500D01*
X128604513Y-97891500D01*
X128598061Y-97892872D01*
X128598056Y-97892872D01*
X128547436Y-97903632D01*
X128476645Y-97898230D01*
X128420012Y-97855413D01*
X128395519Y-97788775D01*
X128395929Y-97767214D01*
X128396134Y-97765271D01*
X128413504Y-97600000D01*
X128399562Y-97467352D01*
X128394232Y-97416635D01*
X128394232Y-97416633D01*
X128393542Y-97410072D01*
X128334527Y-97228444D01*
X128239040Y-97063056D01*
X128148713Y-96962737D01*
X128115675Y-96926045D01*
X128115674Y-96926044D01*
X128111253Y-96921134D01*
X128082165Y-96900000D01*
X129386496Y-96900000D01*
X129387186Y-96906565D01*
X129404235Y-97068774D01*
X129406458Y-97089928D01*
X129465473Y-97271556D01*
X129468776Y-97277278D01*
X129468777Y-97277279D01*
X129480195Y-97297056D01*
X129560960Y-97436944D01*
X129565378Y-97441851D01*
X129565379Y-97441852D01*
X129676777Y-97565572D01*
X129688747Y-97578866D01*
X129843248Y-97691118D01*
X129849276Y-97693802D01*
X129849278Y-97693803D01*
X130011681Y-97766109D01*
X130017712Y-97768794D01*
X130086263Y-97783365D01*
X130198056Y-97807128D01*
X130198061Y-97807128D01*
X130204513Y-97808500D01*
X130395487Y-97808500D01*
X130401939Y-97807128D01*
X130401944Y-97807128D01*
X130513737Y-97783365D01*
X130582288Y-97768794D01*
X130588319Y-97766109D01*
X130750722Y-97693803D01*
X130750724Y-97693802D01*
X130756752Y-97691118D01*
X130911253Y-97578866D01*
X130923223Y-97565572D01*
X131034621Y-97441852D01*
X131034622Y-97441851D01*
X131039040Y-97436944D01*
X131119805Y-97297056D01*
X131131223Y-97277279D01*
X131131224Y-97277278D01*
X131134527Y-97271556D01*
X131167179Y-97171064D01*
X131207253Y-97112458D01*
X131272649Y-97084821D01*
X131287012Y-97084000D01*
X131395487Y-97084000D01*
X131401939Y-97082628D01*
X131401944Y-97082628D01*
X131517110Y-97058148D01*
X131582288Y-97044294D01*
X131595176Y-97038556D01*
X131750722Y-96969303D01*
X131750724Y-96969302D01*
X131756752Y-96966618D01*
X131911253Y-96854366D01*
X131948478Y-96813023D01*
X132034621Y-96717352D01*
X132034622Y-96717351D01*
X132039040Y-96712444D01*
X132134527Y-96547056D01*
X132193542Y-96365428D01*
X132198621Y-96317109D01*
X132212814Y-96182065D01*
X132213504Y-96175500D01*
X132204068Y-96085720D01*
X132194232Y-95992135D01*
X132194232Y-95992133D01*
X132193542Y-95985572D01*
X132134527Y-95803944D01*
X132039040Y-95638556D01*
X132033902Y-95632849D01*
X131915675Y-95501545D01*
X131915674Y-95501544D01*
X131911253Y-95496634D01*
X131848443Y-95451000D01*
X136086496Y-95451000D01*
X136087186Y-95457565D01*
X136105716Y-95633865D01*
X136106458Y-95640928D01*
X136165473Y-95822556D01*
X136168776Y-95828278D01*
X136168777Y-95828279D01*
X136179401Y-95846680D01*
X136260960Y-95987944D01*
X136265378Y-95992851D01*
X136265379Y-95992852D01*
X136348998Y-96085720D01*
X136388747Y-96129866D01*
X136487843Y-96201864D01*
X136521126Y-96226045D01*
X136543248Y-96242118D01*
X136549276Y-96244802D01*
X136549278Y-96244803D01*
X136635720Y-96283289D01*
X136717712Y-96319794D01*
X136811112Y-96339647D01*
X136898056Y-96358128D01*
X136898061Y-96358128D01*
X136904513Y-96359500D01*
X137095487Y-96359500D01*
X137101939Y-96358128D01*
X137101944Y-96358128D01*
X137188888Y-96339647D01*
X137282288Y-96319794D01*
X137364280Y-96283289D01*
X137450722Y-96244803D01*
X137450724Y-96244802D01*
X137456752Y-96242118D01*
X137478875Y-96226045D01*
X137512157Y-96201864D01*
X137611253Y-96129866D01*
X137651002Y-96085720D01*
X137734621Y-95992852D01*
X137734622Y-95992851D01*
X137739040Y-95987944D01*
X137820599Y-95846680D01*
X137831223Y-95828279D01*
X137831224Y-95828278D01*
X137834527Y-95822556D01*
X137867179Y-95722064D01*
X137907253Y-95663458D01*
X137972649Y-95635821D01*
X137987012Y-95635000D01*
X138095487Y-95635000D01*
X138101939Y-95633628D01*
X138101944Y-95633628D01*
X138188888Y-95615147D01*
X138282288Y-95595294D01*
X138435972Y-95526870D01*
X138450722Y-95520303D01*
X138450724Y-95520302D01*
X138456752Y-95517618D01*
X138478875Y-95501545D01*
X138512157Y-95477364D01*
X138611253Y-95405366D01*
X138626653Y-95388263D01*
X138734621Y-95268352D01*
X138734622Y-95268351D01*
X138739040Y-95263444D01*
X138834527Y-95098056D01*
X138893542Y-94916428D01*
X138894520Y-94907128D01*
X138912814Y-94733065D01*
X138913504Y-94726500D01*
X140086496Y-94726500D01*
X140087186Y-94733065D01*
X140105481Y-94907128D01*
X140106458Y-94916428D01*
X140165473Y-95098056D01*
X140260960Y-95263444D01*
X140265378Y-95268351D01*
X140265379Y-95268352D01*
X140373347Y-95388263D01*
X140388747Y-95405366D01*
X140487843Y-95477364D01*
X140521126Y-95501545D01*
X140543248Y-95517618D01*
X140549276Y-95520302D01*
X140549278Y-95520303D01*
X140564028Y-95526870D01*
X140717712Y-95595294D01*
X140811112Y-95615147D01*
X140898056Y-95633628D01*
X140898061Y-95633628D01*
X140904513Y-95635000D01*
X141095487Y-95635000D01*
X141101939Y-95633628D01*
X141101944Y-95633628D01*
X141188888Y-95615147D01*
X141282288Y-95595294D01*
X141435972Y-95526870D01*
X141450722Y-95520303D01*
X141450724Y-95520302D01*
X141456752Y-95517618D01*
X141478875Y-95501545D01*
X141512157Y-95477364D01*
X141611253Y-95405366D01*
X141626653Y-95388263D01*
X141734621Y-95268352D01*
X141734622Y-95268351D01*
X141739040Y-95263444D01*
X141834527Y-95098056D01*
X141893542Y-94916428D01*
X141894520Y-94907128D01*
X141912814Y-94733065D01*
X141913504Y-94726500D01*
X141906220Y-94657197D01*
X141894232Y-94543135D01*
X141894232Y-94543133D01*
X141893542Y-94536572D01*
X141834527Y-94354944D01*
X141739040Y-94189556D01*
X141611253Y-94047634D01*
X141545691Y-94000000D01*
X142786496Y-94000000D01*
X142787186Y-94006565D01*
X142804865Y-94174767D01*
X142806458Y-94189928D01*
X142865473Y-94371556D01*
X142868776Y-94377277D01*
X142868777Y-94377279D01*
X142877522Y-94392425D01*
X142960960Y-94536944D01*
X142965378Y-94541851D01*
X142965379Y-94541852D01*
X143071654Y-94659882D01*
X143088747Y-94678866D01*
X143243248Y-94791118D01*
X143249276Y-94793802D01*
X143249278Y-94793803D01*
X143411681Y-94866109D01*
X143417712Y-94868794D01*
X143486489Y-94883413D01*
X143598056Y-94907128D01*
X143598061Y-94907128D01*
X143604513Y-94908500D01*
X143795487Y-94908500D01*
X143801939Y-94907128D01*
X143801944Y-94907128D01*
X143913511Y-94883413D01*
X143938925Y-94878011D01*
X144009716Y-94883413D01*
X144066348Y-94926230D01*
X144090842Y-94992867D01*
X144074240Y-95064259D01*
X144065473Y-95079444D01*
X144006458Y-95261072D01*
X144005768Y-95267633D01*
X144005768Y-95267635D01*
X143993090Y-95388263D01*
X143986496Y-95451000D01*
X143987186Y-95457565D01*
X144005716Y-95633865D01*
X144006458Y-95640928D01*
X144065473Y-95822556D01*
X144068776Y-95828278D01*
X144068777Y-95828279D01*
X144079401Y-95846680D01*
X144160960Y-95987944D01*
X144165378Y-95992851D01*
X144165379Y-95992852D01*
X144248998Y-96085720D01*
X144288747Y-96129866D01*
X144387843Y-96201864D01*
X144421126Y-96226045D01*
X144443248Y-96242118D01*
X144449276Y-96244802D01*
X144449278Y-96244803D01*
X144535720Y-96283289D01*
X144617712Y-96319794D01*
X144711112Y-96339647D01*
X144798056Y-96358128D01*
X144798061Y-96358128D01*
X144804513Y-96359500D01*
X144995487Y-96359500D01*
X145001939Y-96358128D01*
X145001944Y-96358128D01*
X145173595Y-96321642D01*
X145244386Y-96327044D01*
X145301018Y-96369861D01*
X145319625Y-96405952D01*
X145326285Y-96426450D01*
X145365473Y-96547056D01*
X145460960Y-96712444D01*
X145465378Y-96717351D01*
X145465379Y-96717352D01*
X145551522Y-96813023D01*
X145588747Y-96854366D01*
X145743248Y-96966618D01*
X145749276Y-96969302D01*
X145749278Y-96969303D01*
X145904824Y-97038556D01*
X145917712Y-97044294D01*
X145982890Y-97058148D01*
X146098056Y-97082628D01*
X146098061Y-97082628D01*
X146104513Y-97084000D01*
X146295487Y-97084000D01*
X146301939Y-97082628D01*
X146301944Y-97082628D01*
X146465845Y-97047789D01*
X146536636Y-97053191D01*
X146593268Y-97096008D01*
X146611874Y-97132098D01*
X146665473Y-97297056D01*
X146668776Y-97302778D01*
X146668777Y-97302779D01*
X146681657Y-97325088D01*
X146760960Y-97462444D01*
X146888747Y-97604366D01*
X147043248Y-97716618D01*
X147049276Y-97719302D01*
X147049278Y-97719303D01*
X147211681Y-97791609D01*
X147217712Y-97794294D01*
X147284546Y-97808500D01*
X147398056Y-97832628D01*
X147398061Y-97832628D01*
X147404513Y-97834000D01*
X147595487Y-97834000D01*
X147601939Y-97832628D01*
X147601944Y-97832628D01*
X147775829Y-97795667D01*
X147775830Y-97795667D01*
X147782288Y-97794294D01*
X147784564Y-97793280D01*
X147854008Y-97791298D01*
X147914805Y-97827961D01*
X147941807Y-97874220D01*
X147965473Y-97947056D01*
X147968776Y-97952778D01*
X147968777Y-97952779D01*
X147975989Y-97965271D01*
X148060960Y-98112444D01*
X148065378Y-98117351D01*
X148065379Y-98117352D01*
X148134216Y-98193803D01*
X148188747Y-98254366D01*
X148343248Y-98366618D01*
X148349276Y-98369302D01*
X148349278Y-98369303D01*
X148511681Y-98441609D01*
X148517712Y-98444294D01*
X148592680Y-98460229D01*
X148698056Y-98482628D01*
X148698061Y-98482628D01*
X148704513Y-98484000D01*
X148895487Y-98484000D01*
X148901939Y-98482628D01*
X148901944Y-98482628D01*
X149007320Y-98460229D01*
X149082288Y-98444294D01*
X149088319Y-98441609D01*
X149250722Y-98369303D01*
X149250724Y-98369302D01*
X149256752Y-98366618D01*
X149411253Y-98254366D01*
X149465784Y-98193803D01*
X149534621Y-98117352D01*
X149534622Y-98117351D01*
X149539040Y-98112444D01*
X149624011Y-97965271D01*
X149631223Y-97952779D01*
X149631224Y-97952778D01*
X149634527Y-97947056D01*
X149693542Y-97765428D01*
X149696195Y-97740191D01*
X149712814Y-97582065D01*
X149713504Y-97575500D01*
X149702137Y-97467352D01*
X149695059Y-97400000D01*
X178086496Y-97400000D01*
X178087186Y-97406565D01*
X178105632Y-97582065D01*
X178106458Y-97589928D01*
X178165473Y-97771556D01*
X178168776Y-97777278D01*
X178168777Y-97777279D01*
X178200733Y-97832628D01*
X178260960Y-97936944D01*
X178265378Y-97941851D01*
X178265379Y-97941852D01*
X178346276Y-98031697D01*
X178388747Y-98078866D01*
X178543248Y-98191118D01*
X178549276Y-98193802D01*
X178549278Y-98193803D01*
X178694027Y-98258249D01*
X178717712Y-98268794D01*
X178810684Y-98288556D01*
X178898056Y-98307128D01*
X178898061Y-98307128D01*
X178904513Y-98308500D01*
X179095487Y-98308500D01*
X179101939Y-98307128D01*
X179101944Y-98307128D01*
X179189316Y-98288556D01*
X179282288Y-98268794D01*
X179305973Y-98258249D01*
X179450722Y-98193803D01*
X179450724Y-98193802D01*
X179456752Y-98191118D01*
X179611253Y-98078866D01*
X179653724Y-98031697D01*
X179734621Y-97941852D01*
X179734622Y-97941851D01*
X179739040Y-97936944D01*
X179799267Y-97832628D01*
X179831223Y-97777279D01*
X179831224Y-97777278D01*
X179834527Y-97771556D01*
X179893542Y-97589928D01*
X179894369Y-97582065D01*
X179912814Y-97406565D01*
X179913504Y-97400000D01*
X179895245Y-97226277D01*
X179894232Y-97216635D01*
X179894232Y-97216633D01*
X179893542Y-97210072D01*
X179834527Y-97028444D01*
X179830698Y-97021811D01*
X179775407Y-96926045D01*
X179739040Y-96863056D01*
X179731216Y-96854366D01*
X179615675Y-96726045D01*
X179615674Y-96726044D01*
X179611253Y-96721134D01*
X179456752Y-96608882D01*
X179450724Y-96606198D01*
X179450722Y-96606197D01*
X179302842Y-96540357D01*
X179248746Y-96494377D01*
X179228097Y-96426450D01*
X179247449Y-96358142D01*
X179302842Y-96310143D01*
X179450722Y-96244303D01*
X179450724Y-96244302D01*
X179456752Y-96241618D01*
X179478187Y-96226045D01*
X179605220Y-96133749D01*
X179611253Y-96129366D01*
X179615675Y-96124455D01*
X179734621Y-95992352D01*
X179734622Y-95992351D01*
X179739040Y-95987444D01*
X179834527Y-95822056D01*
X179893542Y-95640428D01*
X179906168Y-95520303D01*
X179912814Y-95457065D01*
X179913504Y-95450500D01*
X179906273Y-95381697D01*
X179894232Y-95267135D01*
X179894232Y-95267133D01*
X179893542Y-95260572D01*
X179834527Y-95078944D01*
X179739040Y-94913556D01*
X179628797Y-94791118D01*
X179615675Y-94776545D01*
X179615674Y-94776544D01*
X179611253Y-94771634D01*
X179456752Y-94659382D01*
X179450724Y-94656698D01*
X179450722Y-94656697D01*
X179288319Y-94584391D01*
X179288318Y-94584391D01*
X179282288Y-94581706D01*
X179188888Y-94561853D01*
X179101944Y-94543372D01*
X179101939Y-94543372D01*
X179095487Y-94542000D01*
X178904513Y-94542000D01*
X178898061Y-94543372D01*
X178898056Y-94543372D01*
X178811112Y-94561853D01*
X178717712Y-94581706D01*
X178711682Y-94584391D01*
X178711681Y-94584391D01*
X178549278Y-94656697D01*
X178549276Y-94656698D01*
X178543248Y-94659382D01*
X178388747Y-94771634D01*
X178384326Y-94776544D01*
X178384325Y-94776545D01*
X178371204Y-94791118D01*
X178260960Y-94913556D01*
X178165473Y-95078944D01*
X178106458Y-95260572D01*
X178105768Y-95267133D01*
X178105768Y-95267135D01*
X178093727Y-95381697D01*
X178086496Y-95450500D01*
X178087186Y-95457065D01*
X178093833Y-95520303D01*
X178106458Y-95640428D01*
X178165473Y-95822056D01*
X178260960Y-95987444D01*
X178265378Y-95992351D01*
X178265379Y-95992352D01*
X178384325Y-96124455D01*
X178388747Y-96129366D01*
X178394780Y-96133749D01*
X178521814Y-96226045D01*
X178543248Y-96241618D01*
X178549276Y-96244302D01*
X178549278Y-96244303D01*
X178697158Y-96310143D01*
X178751254Y-96356123D01*
X178771903Y-96424050D01*
X178752551Y-96492358D01*
X178697158Y-96540357D01*
X178549278Y-96606197D01*
X178549276Y-96606198D01*
X178543248Y-96608882D01*
X178388747Y-96721134D01*
X178384326Y-96726044D01*
X178384325Y-96726045D01*
X178268785Y-96854366D01*
X178260960Y-96863056D01*
X178224593Y-96926045D01*
X178169303Y-97021811D01*
X178165473Y-97028444D01*
X178106458Y-97210072D01*
X178105768Y-97216633D01*
X178105768Y-97216635D01*
X178104755Y-97226277D01*
X178086496Y-97400000D01*
X149695059Y-97400000D01*
X149694232Y-97392135D01*
X149694232Y-97392133D01*
X149693542Y-97385572D01*
X149634527Y-97203944D01*
X149539040Y-97038556D01*
X149528143Y-97026453D01*
X149415675Y-96901545D01*
X149415674Y-96901544D01*
X149411253Y-96896634D01*
X149286778Y-96806197D01*
X149262094Y-96788263D01*
X149262093Y-96788262D01*
X149256752Y-96784382D01*
X149250724Y-96781698D01*
X149250722Y-96781697D01*
X149088319Y-96709391D01*
X149088318Y-96709391D01*
X149082288Y-96706706D01*
X148988888Y-96686853D01*
X148901944Y-96668372D01*
X148901939Y-96668372D01*
X148895487Y-96667000D01*
X148704513Y-96667000D01*
X148698061Y-96668372D01*
X148698056Y-96668372D01*
X148527869Y-96704547D01*
X148517712Y-96706706D01*
X148515436Y-96707720D01*
X148445992Y-96709702D01*
X148385195Y-96673039D01*
X148358192Y-96626778D01*
X148353639Y-96612763D01*
X148334527Y-96553944D01*
X148239040Y-96388556D01*
X148218216Y-96365428D01*
X148115675Y-96251545D01*
X148115674Y-96251544D01*
X148111253Y-96246634D01*
X147956752Y-96134382D01*
X147950724Y-96131698D01*
X147950722Y-96131697D01*
X147788319Y-96059391D01*
X147788318Y-96059391D01*
X147782288Y-96056706D01*
X147688888Y-96036853D01*
X147601944Y-96018372D01*
X147601939Y-96018372D01*
X147595487Y-96017000D01*
X147404513Y-96017000D01*
X147398061Y-96018372D01*
X147398056Y-96018372D01*
X147234155Y-96053211D01*
X147163364Y-96047809D01*
X147106732Y-96004992D01*
X147088125Y-95968901D01*
X147057888Y-95875840D01*
X147034527Y-95803944D01*
X146939040Y-95638556D01*
X146933902Y-95632849D01*
X146815675Y-95501545D01*
X146815674Y-95501544D01*
X146811253Y-95496634D01*
X146685634Y-95405366D01*
X146662094Y-95388263D01*
X146662093Y-95388262D01*
X146656752Y-95384382D01*
X146650724Y-95381698D01*
X146650722Y-95381697D01*
X146488319Y-95309391D01*
X146488318Y-95309391D01*
X146482288Y-95306706D01*
X146388887Y-95286853D01*
X146301944Y-95268372D01*
X146301939Y-95268372D01*
X146295487Y-95267000D01*
X146104513Y-95267000D01*
X146098061Y-95268372D01*
X146098056Y-95268372D01*
X145926405Y-95304858D01*
X145855614Y-95299456D01*
X145798982Y-95256639D01*
X145780375Y-95220548D01*
X145736568Y-95085726D01*
X145734527Y-95079444D01*
X145725761Y-95064260D01*
X145659810Y-94950031D01*
X145639040Y-94914056D01*
X145634038Y-94908500D01*
X145515675Y-94777045D01*
X145515674Y-94777044D01*
X145511253Y-94772134D01*
X145412157Y-94700136D01*
X145362094Y-94663763D01*
X145362093Y-94663762D01*
X145356752Y-94659882D01*
X145350724Y-94657198D01*
X145350722Y-94657197D01*
X145188319Y-94584891D01*
X145188318Y-94584891D01*
X145182288Y-94582206D01*
X145088887Y-94562353D01*
X145001944Y-94543872D01*
X145001939Y-94543872D01*
X144995487Y-94542500D01*
X144804513Y-94542500D01*
X144798061Y-94543872D01*
X144798056Y-94543872D01*
X144692020Y-94566411D01*
X144661075Y-94572989D01*
X144590284Y-94567587D01*
X144533652Y-94524770D01*
X144509158Y-94458133D01*
X144525760Y-94386740D01*
X144531224Y-94377277D01*
X144534527Y-94371556D01*
X144593542Y-94189928D01*
X144595136Y-94174767D01*
X144612814Y-94006565D01*
X144613504Y-94000000D01*
X174386496Y-94000000D01*
X174387186Y-94006565D01*
X174404865Y-94174767D01*
X174406458Y-94189928D01*
X174465473Y-94371556D01*
X174468776Y-94377277D01*
X174468777Y-94377279D01*
X174477522Y-94392425D01*
X174560960Y-94536944D01*
X174565378Y-94541851D01*
X174565379Y-94541852D01*
X174671654Y-94659882D01*
X174688747Y-94678866D01*
X174843248Y-94791118D01*
X174849276Y-94793802D01*
X174849278Y-94793803D01*
X175011681Y-94866109D01*
X175017712Y-94868794D01*
X175086489Y-94883413D01*
X175198056Y-94907128D01*
X175198061Y-94907128D01*
X175204513Y-94908500D01*
X175395487Y-94908500D01*
X175401939Y-94907128D01*
X175401944Y-94907128D01*
X175513511Y-94883413D01*
X175582288Y-94868794D01*
X175588319Y-94866109D01*
X175750722Y-94793803D01*
X175750724Y-94793802D01*
X175756752Y-94791118D01*
X175911253Y-94678866D01*
X175928346Y-94659882D01*
X176034621Y-94541852D01*
X176034622Y-94541851D01*
X176039040Y-94536944D01*
X176122478Y-94392425D01*
X176131223Y-94377279D01*
X176131224Y-94377277D01*
X176134527Y-94371556D01*
X176193542Y-94189928D01*
X176195136Y-94174767D01*
X176212814Y-94006565D01*
X176213504Y-94000000D01*
X176208443Y-93951851D01*
X176194232Y-93816635D01*
X176194232Y-93816633D01*
X176193542Y-93810072D01*
X176134527Y-93628444D01*
X176039040Y-93463056D01*
X176015793Y-93437237D01*
X175915675Y-93326045D01*
X175915674Y-93326044D01*
X175911253Y-93321134D01*
X175756752Y-93208882D01*
X175750724Y-93206198D01*
X175750722Y-93206197D01*
X175588319Y-93133891D01*
X175588318Y-93133891D01*
X175582288Y-93131206D01*
X175488888Y-93111353D01*
X175401944Y-93092872D01*
X175401939Y-93092872D01*
X175395487Y-93091500D01*
X175204513Y-93091500D01*
X175198061Y-93092872D01*
X175198056Y-93092872D01*
X175111112Y-93111353D01*
X175017712Y-93131206D01*
X175011682Y-93133891D01*
X175011681Y-93133891D01*
X174849278Y-93206197D01*
X174849276Y-93206198D01*
X174843248Y-93208882D01*
X174688747Y-93321134D01*
X174684326Y-93326044D01*
X174684325Y-93326045D01*
X174584208Y-93437237D01*
X174560960Y-93463056D01*
X174465473Y-93628444D01*
X174406458Y-93810072D01*
X174405768Y-93816633D01*
X174405768Y-93816635D01*
X174391557Y-93951851D01*
X174386496Y-94000000D01*
X144613504Y-94000000D01*
X144608443Y-93951851D01*
X144594232Y-93816635D01*
X144594232Y-93816633D01*
X144593542Y-93810072D01*
X144534527Y-93628444D01*
X144439040Y-93463056D01*
X144415793Y-93437237D01*
X144315675Y-93326045D01*
X144315674Y-93326044D01*
X144311253Y-93321134D01*
X144156752Y-93208882D01*
X144150724Y-93206198D01*
X144150722Y-93206197D01*
X143988319Y-93133891D01*
X143988318Y-93133891D01*
X143982288Y-93131206D01*
X143888888Y-93111353D01*
X143801944Y-93092872D01*
X143801939Y-93092872D01*
X143795487Y-93091500D01*
X143604513Y-93091500D01*
X143598061Y-93092872D01*
X143598056Y-93092872D01*
X143511112Y-93111353D01*
X143417712Y-93131206D01*
X143411682Y-93133891D01*
X143411681Y-93133891D01*
X143249278Y-93206197D01*
X143249276Y-93206198D01*
X143243248Y-93208882D01*
X143088747Y-93321134D01*
X143084326Y-93326044D01*
X143084325Y-93326045D01*
X142984208Y-93437237D01*
X142960960Y-93463056D01*
X142865473Y-93628444D01*
X142806458Y-93810072D01*
X142805768Y-93816633D01*
X142805768Y-93816635D01*
X142791557Y-93951851D01*
X142786496Y-94000000D01*
X141545691Y-94000000D01*
X141456752Y-93935382D01*
X141450724Y-93932698D01*
X141450722Y-93932697D01*
X141288319Y-93860391D01*
X141288318Y-93860391D01*
X141282288Y-93857706D01*
X141188888Y-93837853D01*
X141101944Y-93819372D01*
X141101939Y-93819372D01*
X141095487Y-93818000D01*
X140904513Y-93818000D01*
X140898061Y-93819372D01*
X140898056Y-93819372D01*
X140811112Y-93837853D01*
X140717712Y-93857706D01*
X140711682Y-93860391D01*
X140711681Y-93860391D01*
X140549278Y-93932697D01*
X140549276Y-93932698D01*
X140543248Y-93935382D01*
X140388747Y-94047634D01*
X140260960Y-94189556D01*
X140165473Y-94354944D01*
X140106458Y-94536572D01*
X140105768Y-94543133D01*
X140105768Y-94543135D01*
X140093780Y-94657197D01*
X140086496Y-94726500D01*
X138913504Y-94726500D01*
X138906220Y-94657197D01*
X138894232Y-94543135D01*
X138894232Y-94543133D01*
X138893542Y-94536572D01*
X138834527Y-94354944D01*
X138739040Y-94189556D01*
X138611253Y-94047634D01*
X138456752Y-93935382D01*
X138450724Y-93932698D01*
X138450722Y-93932697D01*
X138288319Y-93860391D01*
X138288318Y-93860391D01*
X138282288Y-93857706D01*
X138188888Y-93837853D01*
X138101944Y-93819372D01*
X138101939Y-93819372D01*
X138095487Y-93818000D01*
X137904513Y-93818000D01*
X137898061Y-93819372D01*
X137898056Y-93819372D01*
X137811112Y-93837853D01*
X137717712Y-93857706D01*
X137711682Y-93860391D01*
X137711681Y-93860391D01*
X137549278Y-93932697D01*
X137549276Y-93932698D01*
X137543248Y-93935382D01*
X137388747Y-94047634D01*
X137260960Y-94189556D01*
X137165473Y-94354944D01*
X137158217Y-94377277D01*
X137132821Y-94455436D01*
X137092747Y-94514042D01*
X137027351Y-94541679D01*
X137012988Y-94542500D01*
X136904513Y-94542500D01*
X136898061Y-94543872D01*
X136898056Y-94543872D01*
X136811113Y-94562353D01*
X136717712Y-94582206D01*
X136711682Y-94584891D01*
X136711681Y-94584891D01*
X136549278Y-94657197D01*
X136549276Y-94657198D01*
X136543248Y-94659882D01*
X136537907Y-94663762D01*
X136537906Y-94663763D01*
X136487843Y-94700136D01*
X136388747Y-94772134D01*
X136384326Y-94777044D01*
X136384325Y-94777045D01*
X136265963Y-94908500D01*
X136260960Y-94914056D01*
X136240190Y-94950031D01*
X136174240Y-95064260D01*
X136165473Y-95079444D01*
X136106458Y-95261072D01*
X136105768Y-95267633D01*
X136105768Y-95267635D01*
X136093090Y-95388263D01*
X136086496Y-95451000D01*
X131848443Y-95451000D01*
X131785634Y-95405366D01*
X131762094Y-95388263D01*
X131762093Y-95388262D01*
X131756752Y-95384382D01*
X131750724Y-95381698D01*
X131750722Y-95381697D01*
X131588319Y-95309391D01*
X131588318Y-95309391D01*
X131582288Y-95306706D01*
X131488887Y-95286853D01*
X131401944Y-95268372D01*
X131401939Y-95268372D01*
X131395487Y-95267000D01*
X131204513Y-95267000D01*
X131198061Y-95268372D01*
X131198056Y-95268372D01*
X131111113Y-95286853D01*
X131017712Y-95306706D01*
X131011682Y-95309391D01*
X131011681Y-95309391D01*
X130849278Y-95381697D01*
X130849276Y-95381698D01*
X130843248Y-95384382D01*
X130837907Y-95388262D01*
X130837906Y-95388263D01*
X130814366Y-95405366D01*
X130688747Y-95496634D01*
X130684326Y-95501544D01*
X130684325Y-95501545D01*
X130566099Y-95632849D01*
X130560960Y-95638556D01*
X130465473Y-95803944D01*
X130451587Y-95846680D01*
X130432821Y-95904436D01*
X130392747Y-95963042D01*
X130327351Y-95990679D01*
X130312988Y-95991500D01*
X130204513Y-95991500D01*
X130198061Y-95992872D01*
X130198056Y-95992872D01*
X130141038Y-96004992D01*
X130017712Y-96031206D01*
X130011682Y-96033891D01*
X130011681Y-96033891D01*
X129849278Y-96106197D01*
X129849276Y-96106198D01*
X129843248Y-96108882D01*
X129837907Y-96112762D01*
X129837906Y-96112763D01*
X129815054Y-96129366D01*
X129688747Y-96221134D01*
X129684326Y-96226044D01*
X129684325Y-96226045D01*
X129565385Y-96358142D01*
X129560960Y-96363056D01*
X129557659Y-96368774D01*
X129472285Y-96516646D01*
X129465473Y-96528444D01*
X129406458Y-96710072D01*
X129405768Y-96716633D01*
X129405768Y-96716635D01*
X129391808Y-96849455D01*
X129386496Y-96900000D01*
X128082165Y-96900000D01*
X127956752Y-96808882D01*
X127950724Y-96806198D01*
X127950722Y-96806197D01*
X127788319Y-96733891D01*
X127788318Y-96733891D01*
X127782288Y-96731206D01*
X127682861Y-96710072D01*
X127601944Y-96692872D01*
X127601939Y-96692872D01*
X127595487Y-96691500D01*
X127404513Y-96691500D01*
X127398061Y-96692872D01*
X127398056Y-96692872D01*
X127317139Y-96710072D01*
X127217712Y-96731206D01*
X127211682Y-96733891D01*
X127211681Y-96733891D01*
X127049278Y-96806197D01*
X127049276Y-96806198D01*
X127043248Y-96808882D01*
X126888747Y-96921134D01*
X126884326Y-96926044D01*
X126884325Y-96926045D01*
X126851288Y-96962737D01*
X126760960Y-97063056D01*
X126665473Y-97228444D01*
X126606458Y-97410072D01*
X126605768Y-97416633D01*
X126605768Y-97416635D01*
X126600438Y-97467352D01*
X126586496Y-97600000D01*
X126587186Y-97606564D01*
X126587186Y-97606565D01*
X126605129Y-97777279D01*
X126606458Y-97789928D01*
X126665473Y-97971556D01*
X126760960Y-98136944D01*
X126765378Y-98141851D01*
X126765379Y-98141852D01*
X126879660Y-98268774D01*
X126888747Y-98278866D01*
X126985517Y-98349174D01*
X127037140Y-98386680D01*
X127043248Y-98391118D01*
X127049276Y-98393802D01*
X127049278Y-98393803D01*
X127114230Y-98422721D01*
X127165766Y-98445666D01*
X127169083Y-98447143D01*
X127223178Y-98493123D01*
X127243828Y-98561050D01*
X127224476Y-98629358D01*
X127169083Y-98677357D01*
X127049278Y-98730697D01*
X127049276Y-98730698D01*
X127043248Y-98733382D01*
X127037907Y-98737262D01*
X127037906Y-98737263D01*
X126987843Y-98773636D01*
X126888747Y-98845634D01*
X126884326Y-98850544D01*
X126884325Y-98850545D01*
X126821319Y-98920521D01*
X126760960Y-98987556D01*
X126724665Y-99050420D01*
X126680689Y-99126590D01*
X126665473Y-99152944D01*
X126606458Y-99334572D01*
X126605768Y-99341133D01*
X126605768Y-99341135D01*
X126598832Y-99407128D01*
X126586496Y-99524500D01*
X126587186Y-99531065D01*
X126604060Y-99691609D01*
X126606458Y-99714428D01*
X126665473Y-99896056D01*
X126668776Y-99901778D01*
X126668777Y-99901779D01*
X126694965Y-99947137D01*
X126760960Y-100061444D01*
X126765378Y-100066351D01*
X126765379Y-100066352D01*
X126769094Y-100070478D01*
X126799809Y-100134486D01*
X126791043Y-100204940D01*
X126745578Y-100259469D01*
X126677850Y-100280762D01*
X126624207Y-100269892D01*
X126482288Y-100206706D01*
X126338447Y-100176131D01*
X126275975Y-100142404D01*
X126241653Y-100080254D01*
X126239335Y-100066055D01*
X126239291Y-100065636D01*
X126239291Y-100065635D01*
X126238601Y-100059072D01*
X126230435Y-100033938D01*
X126181628Y-99883729D01*
X126179586Y-99877444D01*
X126169913Y-99860689D01*
X126131083Y-99793435D01*
X126084099Y-99712056D01*
X126069342Y-99695666D01*
X125960734Y-99575045D01*
X125960733Y-99575044D01*
X125956312Y-99570134D01*
X125821828Y-99472425D01*
X125807153Y-99461763D01*
X125807152Y-99461762D01*
X125801811Y-99457882D01*
X125795783Y-99455198D01*
X125795781Y-99455197D01*
X125633378Y-99382891D01*
X125633377Y-99382891D01*
X125627347Y-99380206D01*
X125516883Y-99356726D01*
X125447003Y-99341872D01*
X125446998Y-99341872D01*
X125440546Y-99340500D01*
X125249572Y-99340500D01*
X125243120Y-99341872D01*
X125243115Y-99341872D01*
X125173235Y-99356726D01*
X125062771Y-99380206D01*
X125056741Y-99382891D01*
X125056740Y-99382891D01*
X124894337Y-99455197D01*
X124894335Y-99455198D01*
X124888307Y-99457882D01*
X124882966Y-99461762D01*
X124882965Y-99461763D01*
X124868290Y-99472425D01*
X124733806Y-99570134D01*
X124729385Y-99575044D01*
X124729384Y-99575045D01*
X124620777Y-99695666D01*
X124606019Y-99712056D01*
X124559035Y-99793435D01*
X124520206Y-99860689D01*
X124510532Y-99877444D01*
X124451517Y-100059072D01*
X124450827Y-100065633D01*
X124450827Y-100065635D01*
X124442560Y-100144294D01*
X124431555Y-100249000D01*
X124432245Y-100255565D01*
X124449741Y-100422026D01*
X124451517Y-100438928D01*
X124510532Y-100620556D01*
X124513835Y-100626278D01*
X124513836Y-100626279D01*
X124528586Y-100651826D01*
X124606019Y-100785944D01*
X124610437Y-100790851D01*
X124610438Y-100790852D01*
X124708194Y-100899421D01*
X124738912Y-100963428D01*
X124730147Y-101033882D01*
X124684684Y-101088413D01*
X124665807Y-101098838D01*
X124649278Y-101106197D01*
X124649276Y-101106198D01*
X124643248Y-101108882D01*
X124637907Y-101112762D01*
X124637906Y-101112763D01*
X124624200Y-101122721D01*
X124488747Y-101221134D01*
X124484326Y-101226044D01*
X124484325Y-101226045D01*
X124382091Y-101339588D01*
X124360960Y-101363056D01*
X124312256Y-101447414D01*
X124285190Y-101494294D01*
X124265473Y-101528444D01*
X124206458Y-101710072D01*
X124205768Y-101716633D01*
X124205768Y-101716635D01*
X124190412Y-101862737D01*
X124186496Y-101900000D01*
X123302994Y-101900000D01*
X123312814Y-101806565D01*
X123313504Y-101800000D01*
X123304052Y-101710072D01*
X123294232Y-101616635D01*
X123294232Y-101616633D01*
X123293542Y-101610072D01*
X123234527Y-101428444D01*
X123229250Y-101419303D01*
X123195234Y-101360387D01*
X123139040Y-101263056D01*
X123051399Y-101165720D01*
X123015675Y-101126045D01*
X123015674Y-101126044D01*
X123011253Y-101121134D01*
X122895376Y-101036944D01*
X122862094Y-101012763D01*
X122862093Y-101012762D01*
X122856752Y-101008882D01*
X122850724Y-101006198D01*
X122850722Y-101006197D01*
X122688319Y-100933891D01*
X122688318Y-100933891D01*
X122682288Y-100931206D01*
X122588887Y-100911353D01*
X122501944Y-100892872D01*
X122501939Y-100892872D01*
X122495487Y-100891500D01*
X122304513Y-100891500D01*
X122298061Y-100892872D01*
X122298056Y-100892872D01*
X122211113Y-100911353D01*
X122117712Y-100931206D01*
X122111682Y-100933891D01*
X122111681Y-100933891D01*
X121949278Y-101006197D01*
X121949276Y-101006198D01*
X121943248Y-101008882D01*
X121937907Y-101012762D01*
X121937906Y-101012763D01*
X121904624Y-101036944D01*
X121788747Y-101121134D01*
X121784326Y-101126044D01*
X121784325Y-101126045D01*
X121748602Y-101165720D01*
X121660960Y-101263056D01*
X121604766Y-101360387D01*
X121570751Y-101419303D01*
X121565473Y-101428444D01*
X121506458Y-101610072D01*
X121505768Y-101616633D01*
X121505768Y-101616635D01*
X121495948Y-101710072D01*
X121486496Y-101800000D01*
X120723965Y-101800000D01*
X120741529Y-101666590D01*
X120742992Y-101606726D01*
X120743074Y-101603365D01*
X120743074Y-101603361D01*
X120743156Y-101600000D01*
X120724852Y-101377361D01*
X120670431Y-101160702D01*
X120581354Y-100955840D01*
X120518220Y-100858249D01*
X120462822Y-100772617D01*
X120462820Y-100772614D01*
X120460014Y-100768277D01*
X120309670Y-100603051D01*
X120305619Y-100599852D01*
X120305615Y-100599848D01*
X120138414Y-100467800D01*
X120138410Y-100467798D01*
X120134359Y-100464598D01*
X120093053Y-100441796D01*
X120043084Y-100391364D01*
X120028312Y-100321921D01*
X120053428Y-100255516D01*
X120080780Y-100228909D01*
X120145494Y-100182749D01*
X120259860Y-100101173D01*
X120263992Y-100097056D01*
X120392722Y-99968774D01*
X120418096Y-99943489D01*
X120434199Y-99921080D01*
X120545435Y-99766277D01*
X120548453Y-99762077D01*
X120553520Y-99751826D01*
X120645136Y-99566453D01*
X120645137Y-99566451D01*
X120647430Y-99561811D01*
X120694010Y-99408500D01*
X120710865Y-99353023D01*
X120710865Y-99353021D01*
X120712370Y-99348069D01*
X120741529Y-99126590D01*
X120743156Y-99060000D01*
X120724852Y-98837361D01*
X120670431Y-98620702D01*
X120581354Y-98415840D01*
X120508868Y-98303794D01*
X120462822Y-98232617D01*
X120462820Y-98232614D01*
X120460014Y-98228277D01*
X120309670Y-98063051D01*
X120305619Y-98059852D01*
X120305615Y-98059848D01*
X120138414Y-97927800D01*
X120138410Y-97927798D01*
X120134359Y-97924598D01*
X120093053Y-97901796D01*
X120043084Y-97851364D01*
X120028312Y-97781921D01*
X120053428Y-97715516D01*
X120080780Y-97688909D01*
X120124603Y-97657650D01*
X120259860Y-97561173D01*
X120418096Y-97403489D01*
X120425321Y-97393435D01*
X120545435Y-97226277D01*
X120548453Y-97222077D01*
X120558184Y-97202389D01*
X120645136Y-97026453D01*
X120645137Y-97026451D01*
X120647430Y-97021811D01*
X120712370Y-96808069D01*
X120741529Y-96586590D01*
X120742355Y-96552779D01*
X120743074Y-96523365D01*
X120743074Y-96523361D01*
X120743156Y-96520000D01*
X120724852Y-96297361D01*
X120670431Y-96080702D01*
X120581354Y-95875840D01*
X120460014Y-95688277D01*
X120309670Y-95523051D01*
X120305619Y-95519852D01*
X120305615Y-95519848D01*
X120138414Y-95387800D01*
X120138410Y-95387798D01*
X120134359Y-95384598D01*
X120093053Y-95361796D01*
X120043084Y-95311364D01*
X120028312Y-95241921D01*
X120053428Y-95175516D01*
X120080780Y-95148909D01*
X120144050Y-95103779D01*
X120259860Y-95021173D01*
X120418096Y-94863489D01*
X120477594Y-94780689D01*
X120545435Y-94686277D01*
X120548453Y-94682077D01*
X120557505Y-94663763D01*
X120645136Y-94486453D01*
X120645137Y-94486451D01*
X120647430Y-94481811D01*
X120712370Y-94268069D01*
X120741529Y-94046590D01*
X120742507Y-94006565D01*
X120743074Y-93983365D01*
X120743074Y-93983361D01*
X120743156Y-93980000D01*
X120724852Y-93757361D01*
X120670431Y-93540702D01*
X120581354Y-93335840D01*
X120460014Y-93148277D01*
X120309670Y-92983051D01*
X120305619Y-92979852D01*
X120305615Y-92979848D01*
X120138414Y-92847800D01*
X120138410Y-92847798D01*
X120134359Y-92844598D01*
X120093053Y-92821796D01*
X120043084Y-92771364D01*
X120028312Y-92701921D01*
X120029039Y-92700000D01*
X123986496Y-92700000D01*
X123987186Y-92706565D01*
X124001432Y-92842104D01*
X124006458Y-92889928D01*
X124065473Y-93071556D01*
X124160960Y-93236944D01*
X124165378Y-93241851D01*
X124165379Y-93241852D01*
X124227978Y-93311375D01*
X124288747Y-93378866D01*
X124443248Y-93491118D01*
X124449276Y-93493802D01*
X124449278Y-93493803D01*
X124594591Y-93558500D01*
X124617712Y-93568794D01*
X124711112Y-93588647D01*
X124798056Y-93607128D01*
X124798061Y-93607128D01*
X124804513Y-93608500D01*
X124995487Y-93608500D01*
X125001939Y-93607128D01*
X125001944Y-93607128D01*
X125088887Y-93588647D01*
X125182288Y-93568794D01*
X125205409Y-93558500D01*
X125350722Y-93493803D01*
X125350724Y-93493802D01*
X125356752Y-93491118D01*
X125511253Y-93378866D01*
X125572022Y-93311375D01*
X125634621Y-93241852D01*
X125634622Y-93241851D01*
X125639040Y-93236944D01*
X125734527Y-93071556D01*
X125793542Y-92889928D01*
X125798569Y-92842104D01*
X125812814Y-92706565D01*
X125813504Y-92700000D01*
X125807559Y-92643435D01*
X125794232Y-92516635D01*
X125794232Y-92516633D01*
X125793542Y-92510072D01*
X125734527Y-92328444D01*
X125639040Y-92163056D01*
X125620151Y-92142077D01*
X125515675Y-92026045D01*
X125515674Y-92026044D01*
X125511253Y-92021134D01*
X125448443Y-91975500D01*
X131586496Y-91975500D01*
X131587186Y-91982065D01*
X131601555Y-92118774D01*
X131606458Y-92165428D01*
X131665473Y-92347056D01*
X131760960Y-92512444D01*
X131765378Y-92517351D01*
X131765379Y-92517352D01*
X131824263Y-92582749D01*
X131888747Y-92654366D01*
X132043248Y-92766618D01*
X132049276Y-92769302D01*
X132049278Y-92769303D01*
X132211681Y-92841609D01*
X132217712Y-92844294D01*
X132311113Y-92864147D01*
X132398056Y-92882628D01*
X132398061Y-92882628D01*
X132404513Y-92884000D01*
X132595487Y-92884000D01*
X132601939Y-92882628D01*
X132601944Y-92882628D01*
X132688887Y-92864147D01*
X132782288Y-92844294D01*
X132788319Y-92841609D01*
X132950722Y-92769303D01*
X132950724Y-92769302D01*
X132956752Y-92766618D01*
X133048443Y-92700000D01*
X136086496Y-92700000D01*
X136087186Y-92706565D01*
X136101432Y-92842104D01*
X136106458Y-92889928D01*
X136165473Y-93071556D01*
X136260960Y-93236944D01*
X136265378Y-93241851D01*
X136265379Y-93241852D01*
X136327978Y-93311375D01*
X136388747Y-93378866D01*
X136543248Y-93491118D01*
X136549276Y-93493802D01*
X136549278Y-93493803D01*
X136694591Y-93558500D01*
X136717712Y-93568794D01*
X136811112Y-93588647D01*
X136898056Y-93607128D01*
X136898061Y-93607128D01*
X136904513Y-93608500D01*
X137095487Y-93608500D01*
X137101939Y-93607128D01*
X137101944Y-93607128D01*
X137188887Y-93588647D01*
X137282288Y-93568794D01*
X137305409Y-93558500D01*
X137450722Y-93493803D01*
X137450724Y-93493802D01*
X137456752Y-93491118D01*
X137611253Y-93378866D01*
X137672022Y-93311375D01*
X137734621Y-93241852D01*
X137734622Y-93241851D01*
X137739040Y-93236944D01*
X137834527Y-93071556D01*
X137891711Y-92895563D01*
X137931785Y-92836958D01*
X137997182Y-92809321D01*
X138011544Y-92808500D01*
X138095487Y-92808500D01*
X138101939Y-92807128D01*
X138101944Y-92807128D01*
X138216635Y-92782749D01*
X138282288Y-92768794D01*
X138288319Y-92766109D01*
X138450722Y-92693803D01*
X138450724Y-92693802D01*
X138456752Y-92691118D01*
X138486730Y-92669338D01*
X138513346Y-92650000D01*
X139436496Y-92650000D01*
X139437186Y-92656565D01*
X139453011Y-92807128D01*
X139456458Y-92839928D01*
X139515473Y-93021556D01*
X139610960Y-93186944D01*
X139615378Y-93191851D01*
X139615379Y-93191852D01*
X139655980Y-93236944D01*
X139738747Y-93328866D01*
X139893248Y-93441118D01*
X139899276Y-93443802D01*
X139899278Y-93443803D01*
X140061681Y-93516109D01*
X140067712Y-93518794D01*
X140148443Y-93535954D01*
X140248056Y-93557128D01*
X140248061Y-93557128D01*
X140254513Y-93558500D01*
X140445487Y-93558500D01*
X140451939Y-93557128D01*
X140451944Y-93557128D01*
X140551557Y-93535954D01*
X140632288Y-93518794D01*
X140638319Y-93516109D01*
X140800722Y-93443803D01*
X140800724Y-93443802D01*
X140806752Y-93441118D01*
X140961253Y-93328866D01*
X141044020Y-93236944D01*
X141084621Y-93191852D01*
X141084622Y-93191851D01*
X141089040Y-93186944D01*
X141184527Y-93021556D01*
X141243542Y-92839928D01*
X141246990Y-92807128D01*
X141262814Y-92656565D01*
X141263504Y-92650000D01*
X141256028Y-92578866D01*
X141244232Y-92466635D01*
X141244232Y-92466633D01*
X141243542Y-92460072D01*
X141184527Y-92278444D01*
X141089040Y-92113056D01*
X141083196Y-92106565D01*
X140965675Y-91976045D01*
X140965674Y-91976044D01*
X140961253Y-91971134D01*
X140806752Y-91858882D01*
X140800724Y-91856198D01*
X140800722Y-91856197D01*
X140638319Y-91783891D01*
X140638318Y-91783891D01*
X140632288Y-91781206D01*
X140538888Y-91761353D01*
X140451944Y-91742872D01*
X140451939Y-91742872D01*
X140445487Y-91741500D01*
X140254513Y-91741500D01*
X140248061Y-91742872D01*
X140248056Y-91742872D01*
X140161112Y-91761353D01*
X140067712Y-91781206D01*
X140061682Y-91783891D01*
X140061681Y-91783891D01*
X139899278Y-91856197D01*
X139899276Y-91856198D01*
X139893248Y-91858882D01*
X139738747Y-91971134D01*
X139734326Y-91976044D01*
X139734325Y-91976045D01*
X139616805Y-92106565D01*
X139610960Y-92113056D01*
X139515473Y-92278444D01*
X139456458Y-92460072D01*
X139455768Y-92466633D01*
X139455768Y-92466635D01*
X139443972Y-92578866D01*
X139436496Y-92650000D01*
X138513346Y-92650000D01*
X138522382Y-92643435D01*
X138611253Y-92578866D01*
X138631273Y-92556632D01*
X138734621Y-92441852D01*
X138734622Y-92441851D01*
X138739040Y-92436944D01*
X138834527Y-92271556D01*
X138893542Y-92089928D01*
X138897254Y-92054616D01*
X138912814Y-91906565D01*
X138913504Y-91900000D01*
X138907471Y-91842596D01*
X138894232Y-91716635D01*
X138894232Y-91716633D01*
X138893542Y-91710072D01*
X138834527Y-91528444D01*
X138819976Y-91503240D01*
X138785931Y-91444274D01*
X138739040Y-91363056D01*
X138679234Y-91296634D01*
X138615675Y-91226045D01*
X138615674Y-91226044D01*
X138611253Y-91221134D01*
X138512157Y-91149136D01*
X138462094Y-91112763D01*
X138462093Y-91112762D01*
X138456752Y-91108882D01*
X138450724Y-91106198D01*
X138450722Y-91106197D01*
X138288319Y-91033891D01*
X138288318Y-91033891D01*
X138282288Y-91031206D01*
X138188888Y-91011353D01*
X138101944Y-90992872D01*
X138101939Y-90992872D01*
X138095487Y-90991500D01*
X137904513Y-90991500D01*
X137898061Y-90992872D01*
X137898056Y-90992872D01*
X137811113Y-91011353D01*
X137717712Y-91031206D01*
X137711682Y-91033891D01*
X137711681Y-91033891D01*
X137549278Y-91106197D01*
X137549276Y-91106198D01*
X137543248Y-91108882D01*
X137537907Y-91112762D01*
X137537906Y-91112763D01*
X137487843Y-91149136D01*
X137388747Y-91221134D01*
X137384326Y-91226044D01*
X137384325Y-91226045D01*
X137320767Y-91296634D01*
X137260960Y-91363056D01*
X137214069Y-91444274D01*
X137180025Y-91503240D01*
X137165473Y-91528444D01*
X137142801Y-91598221D01*
X137108289Y-91704437D01*
X137068215Y-91763042D01*
X137002818Y-91790679D01*
X136988456Y-91791500D01*
X136904513Y-91791500D01*
X136898061Y-91792872D01*
X136898056Y-91792872D01*
X136811112Y-91811353D01*
X136717712Y-91831206D01*
X136711682Y-91833891D01*
X136711681Y-91833891D01*
X136549278Y-91906197D01*
X136549276Y-91906198D01*
X136543248Y-91908882D01*
X136388747Y-92021134D01*
X136384326Y-92026044D01*
X136384325Y-92026045D01*
X136279850Y-92142077D01*
X136260960Y-92163056D01*
X136165473Y-92328444D01*
X136106458Y-92510072D01*
X136105768Y-92516633D01*
X136105768Y-92516635D01*
X136092441Y-92643435D01*
X136086496Y-92700000D01*
X133048443Y-92700000D01*
X133111253Y-92654366D01*
X133175737Y-92582749D01*
X133234621Y-92517352D01*
X133234622Y-92517351D01*
X133239040Y-92512444D01*
X133334527Y-92347056D01*
X133393542Y-92165428D01*
X133398446Y-92118774D01*
X133412814Y-91982065D01*
X133413504Y-91975500D01*
X133405968Y-91903798D01*
X133394232Y-91792135D01*
X133394232Y-91792133D01*
X133393542Y-91785572D01*
X133334527Y-91603944D01*
X133239040Y-91438556D01*
X133205731Y-91401562D01*
X133115675Y-91301545D01*
X133115674Y-91301544D01*
X133111253Y-91296634D01*
X133001992Y-91217251D01*
X132962094Y-91188263D01*
X132962093Y-91188262D01*
X132956752Y-91184382D01*
X132950724Y-91181698D01*
X132950722Y-91181697D01*
X132788319Y-91109391D01*
X132788318Y-91109391D01*
X132782288Y-91106706D01*
X132688887Y-91086853D01*
X132601944Y-91068372D01*
X132601939Y-91068372D01*
X132595487Y-91067000D01*
X132404513Y-91067000D01*
X132398061Y-91068372D01*
X132398056Y-91068372D01*
X132311112Y-91086853D01*
X132217712Y-91106706D01*
X132211682Y-91109391D01*
X132211681Y-91109391D01*
X132049278Y-91181697D01*
X132049276Y-91181698D01*
X132043248Y-91184382D01*
X132037907Y-91188262D01*
X132037906Y-91188263D01*
X131998008Y-91217251D01*
X131888747Y-91296634D01*
X131884326Y-91301544D01*
X131884325Y-91301545D01*
X131794270Y-91401562D01*
X131760960Y-91438556D01*
X131665473Y-91603944D01*
X131606458Y-91785572D01*
X131605768Y-91792133D01*
X131605768Y-91792135D01*
X131594032Y-91903798D01*
X131586496Y-91975500D01*
X125448443Y-91975500D01*
X125356752Y-91908882D01*
X125350724Y-91906198D01*
X125350722Y-91906197D01*
X125188319Y-91833891D01*
X125188318Y-91833891D01*
X125182288Y-91831206D01*
X125088888Y-91811353D01*
X125001944Y-91792872D01*
X125001939Y-91792872D01*
X124995487Y-91791500D01*
X124804513Y-91791500D01*
X124798061Y-91792872D01*
X124798056Y-91792872D01*
X124711112Y-91811353D01*
X124617712Y-91831206D01*
X124611682Y-91833891D01*
X124611681Y-91833891D01*
X124449278Y-91906197D01*
X124449276Y-91906198D01*
X124443248Y-91908882D01*
X124288747Y-92021134D01*
X124284326Y-92026044D01*
X124284325Y-92026045D01*
X124179850Y-92142077D01*
X124160960Y-92163056D01*
X124065473Y-92328444D01*
X124006458Y-92510072D01*
X124005768Y-92516633D01*
X124005768Y-92516635D01*
X123992441Y-92643435D01*
X123986496Y-92700000D01*
X120029039Y-92700000D01*
X120053428Y-92635516D01*
X120080780Y-92608909D01*
X120129784Y-92573955D01*
X120259860Y-92481173D01*
X120418096Y-92323489D01*
X120455414Y-92271556D01*
X120545435Y-92146277D01*
X120548453Y-92142077D01*
X120558184Y-92122389D01*
X120645136Y-91946453D01*
X120645137Y-91946451D01*
X120647430Y-91941811D01*
X120701744Y-91763042D01*
X120710865Y-91733023D01*
X120710865Y-91733021D01*
X120712370Y-91728069D01*
X120741529Y-91506590D01*
X120742112Y-91482749D01*
X120743074Y-91443365D01*
X120743074Y-91443361D01*
X120743156Y-91440000D01*
X120724852Y-91217361D01*
X120670431Y-91000702D01*
X120581354Y-90795840D01*
X120478560Y-90636944D01*
X120462822Y-90612617D01*
X120462820Y-90612614D01*
X120460014Y-90608277D01*
X120309670Y-90443051D01*
X120305619Y-90439852D01*
X120305615Y-90439848D01*
X120138414Y-90307800D01*
X120138410Y-90307798D01*
X120134359Y-90304598D01*
X120093053Y-90281796D01*
X120043084Y-90231364D01*
X120028312Y-90161921D01*
X120053428Y-90095516D01*
X120080780Y-90068909D01*
X120149027Y-90020229D01*
X120259860Y-89941173D01*
X120269988Y-89931081D01*
X120414435Y-89787137D01*
X120418096Y-89783489D01*
X120424947Y-89773955D01*
X120519654Y-89642156D01*
X120575649Y-89598508D01*
X120646352Y-89592062D01*
X120709317Y-89624865D01*
X120743113Y-89684006D01*
X120743255Y-89685316D01*
X120746027Y-89692709D01*
X120746027Y-89692711D01*
X120775064Y-89770166D01*
X120794385Y-89821705D01*
X120881739Y-89938261D01*
X120998295Y-90025615D01*
X121134684Y-90076745D01*
X121196866Y-90083500D01*
X122643134Y-90083500D01*
X122705316Y-90076745D01*
X122841705Y-90025615D01*
X122958261Y-89938261D01*
X123045615Y-89821705D01*
X123096745Y-89685316D01*
X123103500Y-89623134D01*
X130896500Y-89623134D01*
X130903255Y-89685316D01*
X130954385Y-89821705D01*
X131041739Y-89938261D01*
X131158295Y-90025615D01*
X131294684Y-90076745D01*
X131356866Y-90083500D01*
X132803134Y-90083500D01*
X132865316Y-90076745D01*
X133001705Y-90025615D01*
X133118261Y-89938261D01*
X133205615Y-89821705D01*
X133256745Y-89685316D01*
X133263500Y-89623134D01*
X141056500Y-89623134D01*
X141063255Y-89685316D01*
X141114385Y-89821705D01*
X141201739Y-89938261D01*
X141318295Y-90025615D01*
X141454684Y-90076745D01*
X141516866Y-90083500D01*
X142963134Y-90083500D01*
X143025316Y-90076745D01*
X143161705Y-90025615D01*
X143278261Y-89938261D01*
X143365615Y-89821705D01*
X143416745Y-89685316D01*
X143423500Y-89623134D01*
X143423500Y-89100000D01*
X149186496Y-89100000D01*
X149187186Y-89106565D01*
X149205129Y-89277279D01*
X149206458Y-89289928D01*
X149265473Y-89471556D01*
X149360960Y-89636944D01*
X149365378Y-89641851D01*
X149365379Y-89641852D01*
X149479678Y-89768794D01*
X149488747Y-89778866D01*
X149527646Y-89807128D01*
X149624147Y-89877240D01*
X149643248Y-89891118D01*
X149649276Y-89893802D01*
X149649278Y-89893803D01*
X149764442Y-89945077D01*
X149817712Y-89968794D01*
X149911113Y-89988647D01*
X149998056Y-90007128D01*
X149998061Y-90007128D01*
X150004513Y-90008500D01*
X150195487Y-90008500D01*
X150201939Y-90007128D01*
X150201944Y-90007128D01*
X150288887Y-89988647D01*
X150382288Y-89968794D01*
X150435558Y-89945077D01*
X150550722Y-89893803D01*
X150550724Y-89893802D01*
X150556752Y-89891118D01*
X150575854Y-89877240D01*
X150672354Y-89807128D01*
X150711253Y-89778866D01*
X150720322Y-89768794D01*
X150834621Y-89641852D01*
X150834622Y-89641851D01*
X150839040Y-89636944D01*
X150934527Y-89471556D01*
X150970667Y-89360329D01*
X151010741Y-89301723D01*
X151076137Y-89274086D01*
X151146094Y-89286193D01*
X151198400Y-89334199D01*
X151216500Y-89399265D01*
X151216500Y-89623134D01*
X151223255Y-89685316D01*
X151274385Y-89821705D01*
X151361739Y-89938261D01*
X151478295Y-90025615D01*
X151614684Y-90076745D01*
X151676866Y-90083500D01*
X153123134Y-90083500D01*
X153185316Y-90076745D01*
X153192714Y-90073972D01*
X153192721Y-90073970D01*
X153224006Y-90062242D01*
X153294813Y-90057059D01*
X153357182Y-90090981D01*
X153391310Y-90153237D01*
X153393543Y-90167047D01*
X153406458Y-90289928D01*
X153465473Y-90471556D01*
X153560960Y-90636944D01*
X153688747Y-90778866D01*
X153843248Y-90891118D01*
X153849276Y-90893802D01*
X153849278Y-90893803D01*
X154011681Y-90966109D01*
X154017712Y-90968794D01*
X154086263Y-90983365D01*
X154198056Y-91007128D01*
X154198061Y-91007128D01*
X154204513Y-91008500D01*
X154395487Y-91008500D01*
X154401939Y-91007128D01*
X154401944Y-91007128D01*
X154513737Y-90983365D01*
X154582288Y-90968794D01*
X154588319Y-90966109D01*
X154750722Y-90893803D01*
X154750724Y-90893802D01*
X154756752Y-90891118D01*
X154911253Y-90778866D01*
X155039040Y-90636944D01*
X155134527Y-90471556D01*
X155193542Y-90289928D01*
X155195766Y-90268774D01*
X155212814Y-90106565D01*
X155213504Y-90100000D01*
X155211731Y-90083131D01*
X155194232Y-89916635D01*
X155194232Y-89916633D01*
X155193542Y-89910072D01*
X155134527Y-89728444D01*
X155121043Y-89705088D01*
X155075687Y-89626531D01*
X155039040Y-89563056D01*
X154995425Y-89514616D01*
X154915675Y-89426045D01*
X154915674Y-89426044D01*
X154911253Y-89421134D01*
X154756752Y-89308882D01*
X154750724Y-89306198D01*
X154750722Y-89306197D01*
X154588319Y-89233891D01*
X154588318Y-89233891D01*
X154582288Y-89231206D01*
X154488888Y-89211353D01*
X154401944Y-89192872D01*
X154401939Y-89192872D01*
X154395487Y-89191500D01*
X154204513Y-89191500D01*
X154198061Y-89192872D01*
X154198056Y-89192872D01*
X154111113Y-89211353D01*
X154017712Y-89231206D01*
X154011682Y-89233891D01*
X154011681Y-89233891D01*
X153849278Y-89306197D01*
X153849276Y-89306198D01*
X153843248Y-89308882D01*
X153837907Y-89312762D01*
X153837906Y-89312763D01*
X153783561Y-89352247D01*
X153716693Y-89376106D01*
X153647541Y-89360025D01*
X153598061Y-89309111D01*
X153583500Y-89250311D01*
X153583500Y-88900000D01*
X157986496Y-88900000D01*
X157987186Y-88906565D01*
X157997510Y-89004788D01*
X158006458Y-89089928D01*
X158065473Y-89271556D01*
X158068776Y-89277278D01*
X158068777Y-89277279D01*
X158087023Y-89308882D01*
X158160960Y-89436944D01*
X158288747Y-89578866D01*
X158375858Y-89642156D01*
X158436946Y-89686539D01*
X158443248Y-89691118D01*
X158449276Y-89693802D01*
X158449278Y-89693803D01*
X158541200Y-89734729D01*
X158617712Y-89768794D01*
X158704009Y-89787137D01*
X158798056Y-89807128D01*
X158798061Y-89807128D01*
X158804513Y-89808500D01*
X158995487Y-89808500D01*
X159001939Y-89807128D01*
X159001944Y-89807128D01*
X159095991Y-89787137D01*
X159182288Y-89768794D01*
X159258800Y-89734729D01*
X159350722Y-89693803D01*
X159350724Y-89693802D01*
X159356752Y-89691118D01*
X159363055Y-89686539D01*
X159424142Y-89642156D01*
X159450323Y-89623134D01*
X161376500Y-89623134D01*
X161383255Y-89685316D01*
X161434385Y-89821705D01*
X161521739Y-89938261D01*
X161638295Y-90025615D01*
X161774684Y-90076745D01*
X161836866Y-90083500D01*
X162546388Y-90083500D01*
X162614509Y-90103502D01*
X162661002Y-90157158D01*
X162671106Y-90227432D01*
X162655507Y-90272500D01*
X162568777Y-90422721D01*
X162565473Y-90428444D01*
X162506458Y-90610072D01*
X162505768Y-90616633D01*
X162505768Y-90616635D01*
X162503118Y-90641852D01*
X162486496Y-90800000D01*
X162487186Y-90806565D01*
X162503955Y-90966109D01*
X162506458Y-90989928D01*
X162565473Y-91171556D01*
X162568776Y-91177278D01*
X162568777Y-91177279D01*
X162581015Y-91198476D01*
X162660960Y-91336944D01*
X162665378Y-91341851D01*
X162665379Y-91341852D01*
X162749313Y-91435070D01*
X162788747Y-91478866D01*
X162943248Y-91591118D01*
X162949276Y-91593802D01*
X162949278Y-91593803D01*
X163111681Y-91666109D01*
X163117712Y-91668794D01*
X163124173Y-91670167D01*
X163124178Y-91670169D01*
X163160095Y-91677804D01*
X163222569Y-91711532D01*
X163256890Y-91773682D01*
X163253731Y-91839984D01*
X163230958Y-91910072D01*
X163210996Y-92100000D01*
X163211686Y-92106565D01*
X163229629Y-92277279D01*
X163230958Y-92289928D01*
X163289973Y-92471556D01*
X163293276Y-92477278D01*
X163293277Y-92477279D01*
X163295525Y-92481173D01*
X163385460Y-92636944D01*
X163389878Y-92641851D01*
X163389879Y-92641852D01*
X163502219Y-92766618D01*
X163513247Y-92778866D01*
X163597291Y-92839928D01*
X163656063Y-92882628D01*
X163667748Y-92891118D01*
X163673776Y-92893802D01*
X163673778Y-92893803D01*
X163823886Y-92960635D01*
X163842212Y-92968794D01*
X163935612Y-92988647D01*
X164022556Y-93007128D01*
X164022561Y-93007128D01*
X164029013Y-93008500D01*
X164219987Y-93008500D01*
X164226439Y-93007128D01*
X164226444Y-93007128D01*
X164313388Y-92988647D01*
X164406788Y-92968794D01*
X164425114Y-92960635D01*
X164575222Y-92893803D01*
X164575224Y-92893802D01*
X164581252Y-92891118D01*
X164592938Y-92882628D01*
X164651709Y-92839928D01*
X164735753Y-92778866D01*
X164746781Y-92766618D01*
X164859121Y-92641852D01*
X164859122Y-92641851D01*
X164863540Y-92636944D01*
X164953475Y-92481173D01*
X164955723Y-92477279D01*
X164955724Y-92477278D01*
X164959027Y-92471556D01*
X165018042Y-92289928D01*
X165019372Y-92277279D01*
X165037314Y-92106565D01*
X165038004Y-92100000D01*
X165018042Y-91910072D01*
X164959027Y-91728444D01*
X164947182Y-91707927D01*
X164887147Y-91603944D01*
X164863540Y-91563056D01*
X164815686Y-91509908D01*
X164740175Y-91426045D01*
X164740174Y-91426044D01*
X164735753Y-91421134D01*
X164581252Y-91308882D01*
X164575224Y-91306198D01*
X164575222Y-91306197D01*
X164412819Y-91233891D01*
X164412818Y-91233891D01*
X164406788Y-91231206D01*
X164400327Y-91229833D01*
X164400322Y-91229831D01*
X164364405Y-91222196D01*
X164301931Y-91188468D01*
X164267610Y-91126318D01*
X164270769Y-91060016D01*
X164293542Y-90989928D01*
X164296046Y-90966109D01*
X164312814Y-90806565D01*
X164313504Y-90800000D01*
X164296882Y-90641852D01*
X164294232Y-90616635D01*
X164294232Y-90616633D01*
X164293542Y-90610072D01*
X164234527Y-90428444D01*
X164230019Y-90420635D01*
X164158179Y-90296206D01*
X164139040Y-90263056D01*
X164110505Y-90231364D01*
X164015675Y-90126045D01*
X164015674Y-90126044D01*
X164011253Y-90121134D01*
X163856752Y-90008882D01*
X163850724Y-90006198D01*
X163850722Y-90006197D01*
X163758337Y-89965065D01*
X163704241Y-89919085D01*
X163683592Y-89851158D01*
X163691604Y-89805731D01*
X163736745Y-89685316D01*
X163743500Y-89623134D01*
X171536500Y-89623134D01*
X171543255Y-89685316D01*
X171594385Y-89821705D01*
X171681739Y-89938261D01*
X171798295Y-90025615D01*
X171934684Y-90076745D01*
X171996866Y-90083500D01*
X173443134Y-90083500D01*
X173505316Y-90076745D01*
X173641705Y-90025615D01*
X173758261Y-89938261D01*
X173845615Y-89821705D01*
X173896745Y-89685316D01*
X173903500Y-89623134D01*
X173903500Y-88176866D01*
X173896745Y-88114684D01*
X173845615Y-87978295D01*
X173758261Y-87861739D01*
X173641705Y-87774385D01*
X173505316Y-87723255D01*
X173443134Y-87716500D01*
X171996866Y-87716500D01*
X171934684Y-87723255D01*
X171798295Y-87774385D01*
X171681739Y-87861739D01*
X171594385Y-87978295D01*
X171543255Y-88114684D01*
X171536500Y-88176866D01*
X171536500Y-89623134D01*
X163743500Y-89623134D01*
X163743500Y-88176866D01*
X163736745Y-88114684D01*
X163685615Y-87978295D01*
X163598261Y-87861739D01*
X163481705Y-87774385D01*
X163345316Y-87723255D01*
X163283134Y-87716500D01*
X161836866Y-87716500D01*
X161774684Y-87723255D01*
X161638295Y-87774385D01*
X161521739Y-87861739D01*
X161434385Y-87978295D01*
X161383255Y-88114684D01*
X161376500Y-88176866D01*
X161376500Y-89623134D01*
X159450323Y-89623134D01*
X159511253Y-89578866D01*
X159639040Y-89436944D01*
X159712977Y-89308882D01*
X159731223Y-89277279D01*
X159731224Y-89277278D01*
X159734527Y-89271556D01*
X159793542Y-89089928D01*
X159802491Y-89004788D01*
X159812814Y-88906565D01*
X159813504Y-88900000D01*
X159795473Y-88728444D01*
X159794232Y-88716635D01*
X159794232Y-88716633D01*
X159793542Y-88710072D01*
X159734527Y-88528444D01*
X159639040Y-88363056D01*
X159542503Y-88255840D01*
X159515675Y-88226045D01*
X159515674Y-88226044D01*
X159511253Y-88221134D01*
X159356752Y-88108882D01*
X159350724Y-88106198D01*
X159350722Y-88106197D01*
X159188319Y-88033891D01*
X159188318Y-88033891D01*
X159182288Y-88031206D01*
X159085270Y-88010584D01*
X159001944Y-87992872D01*
X159001939Y-87992872D01*
X158995487Y-87991500D01*
X158804513Y-87991500D01*
X158798061Y-87992872D01*
X158798056Y-87992872D01*
X158714730Y-88010584D01*
X158617712Y-88031206D01*
X158611682Y-88033891D01*
X158611681Y-88033891D01*
X158449278Y-88106197D01*
X158449276Y-88106198D01*
X158443248Y-88108882D01*
X158288747Y-88221134D01*
X158284326Y-88226044D01*
X158284325Y-88226045D01*
X158257498Y-88255840D01*
X158160960Y-88363056D01*
X158065473Y-88528444D01*
X158006458Y-88710072D01*
X158005768Y-88716633D01*
X158005768Y-88716635D01*
X158004527Y-88728444D01*
X157986496Y-88900000D01*
X153583500Y-88900000D01*
X153583500Y-88176866D01*
X153576745Y-88114684D01*
X153525615Y-87978295D01*
X153438261Y-87861739D01*
X153321705Y-87774385D01*
X153185316Y-87723255D01*
X153123134Y-87716500D01*
X151676866Y-87716500D01*
X151614684Y-87723255D01*
X151478295Y-87774385D01*
X151361739Y-87861739D01*
X151274385Y-87978295D01*
X151223255Y-88114684D01*
X151216500Y-88176866D01*
X151216500Y-88800735D01*
X151196498Y-88868856D01*
X151142842Y-88915349D01*
X151072568Y-88925453D01*
X151007988Y-88895959D01*
X150970667Y-88839671D01*
X150936569Y-88734729D01*
X150934527Y-88728444D01*
X150839040Y-88563056D01*
X150751399Y-88465720D01*
X150715675Y-88426045D01*
X150715674Y-88426044D01*
X150711253Y-88421134D01*
X150556752Y-88308882D01*
X150550724Y-88306198D01*
X150550722Y-88306197D01*
X150388319Y-88233891D01*
X150388318Y-88233891D01*
X150382288Y-88231206D01*
X150276957Y-88208817D01*
X150201944Y-88192872D01*
X150201939Y-88192872D01*
X150195487Y-88191500D01*
X150004513Y-88191500D01*
X149998061Y-88192872D01*
X149998056Y-88192872D01*
X149923043Y-88208817D01*
X149817712Y-88231206D01*
X149811682Y-88233891D01*
X149811681Y-88233891D01*
X149649278Y-88306197D01*
X149649276Y-88306198D01*
X149643248Y-88308882D01*
X149488747Y-88421134D01*
X149484326Y-88426044D01*
X149484325Y-88426045D01*
X149448602Y-88465720D01*
X149360960Y-88563056D01*
X149265473Y-88728444D01*
X149206458Y-88910072D01*
X149186496Y-89100000D01*
X143423500Y-89100000D01*
X143423500Y-88176866D01*
X143416745Y-88114684D01*
X143365615Y-87978295D01*
X143278261Y-87861739D01*
X143161705Y-87774385D01*
X143025316Y-87723255D01*
X142963134Y-87716500D01*
X141516866Y-87716500D01*
X141454684Y-87723255D01*
X141318295Y-87774385D01*
X141201739Y-87861739D01*
X141114385Y-87978295D01*
X141063255Y-88114684D01*
X141056500Y-88176866D01*
X141056500Y-89623134D01*
X133263500Y-89623134D01*
X133263500Y-88176866D01*
X133256745Y-88114684D01*
X133205615Y-87978295D01*
X133118261Y-87861739D01*
X133001705Y-87774385D01*
X132865316Y-87723255D01*
X132803134Y-87716500D01*
X131356866Y-87716500D01*
X131294684Y-87723255D01*
X131158295Y-87774385D01*
X131041739Y-87861739D01*
X130954385Y-87978295D01*
X130903255Y-88114684D01*
X130896500Y-88176866D01*
X130896500Y-89623134D01*
X123103500Y-89623134D01*
X123103500Y-88176866D01*
X123096745Y-88114684D01*
X123045615Y-87978295D01*
X122958261Y-87861739D01*
X122841705Y-87774385D01*
X122705316Y-87723255D01*
X122643134Y-87716500D01*
X121729828Y-87716500D01*
X121661707Y-87696498D01*
X121615214Y-87642842D01*
X121605110Y-87572568D01*
X121634604Y-87507988D01*
X121655767Y-87488564D01*
X121801409Y-87382749D01*
X121801411Y-87382747D01*
X121806753Y-87378866D01*
X121852810Y-87327715D01*
X121930121Y-87241852D01*
X121930122Y-87241851D01*
X121934540Y-87236944D01*
X122030027Y-87071556D01*
X122089042Y-86889928D01*
X122109004Y-86700000D01*
X122100582Y-86619865D01*
X122089732Y-86516635D01*
X122089732Y-86516633D01*
X122089042Y-86510072D01*
X122030027Y-86328444D01*
X121934540Y-86163056D01*
X121892743Y-86116635D01*
X121811175Y-86026045D01*
X121811174Y-86026044D01*
X121806753Y-86021134D01*
X121652252Y-85908882D01*
X121646224Y-85906198D01*
X121646222Y-85906197D01*
X121632303Y-85900000D01*
X123086496Y-85900000D01*
X123087186Y-85906565D01*
X123099228Y-86021134D01*
X123106458Y-86089928D01*
X123165473Y-86271556D01*
X123168776Y-86277278D01*
X123168777Y-86277279D01*
X123186803Y-86308500D01*
X123260960Y-86436944D01*
X123265378Y-86441851D01*
X123265379Y-86441852D01*
X123306931Y-86488000D01*
X123388747Y-86578866D01*
X123543248Y-86691118D01*
X123549276Y-86693802D01*
X123549278Y-86693803D01*
X123711681Y-86766109D01*
X123717712Y-86768794D01*
X123811112Y-86788647D01*
X123898056Y-86807128D01*
X123898061Y-86807128D01*
X123904513Y-86808500D01*
X124095487Y-86808500D01*
X124101939Y-86807128D01*
X124101944Y-86807128D01*
X124188888Y-86788647D01*
X124282288Y-86768794D01*
X124288319Y-86766109D01*
X124450722Y-86693803D01*
X124450724Y-86693802D01*
X124456752Y-86691118D01*
X124611253Y-86578866D01*
X124693069Y-86488000D01*
X124734621Y-86441852D01*
X124734622Y-86441851D01*
X124739040Y-86436944D01*
X124813197Y-86308500D01*
X124831223Y-86277279D01*
X124831224Y-86277278D01*
X124834527Y-86271556D01*
X124893542Y-86089928D01*
X124900773Y-86021134D01*
X124912814Y-85906565D01*
X124913504Y-85900000D01*
X124893542Y-85710072D01*
X124834527Y-85528444D01*
X124739040Y-85363056D01*
X124731216Y-85354366D01*
X124615675Y-85226045D01*
X124615674Y-85226044D01*
X124611253Y-85221134D01*
X124456752Y-85108882D01*
X124450724Y-85106198D01*
X124450722Y-85106197D01*
X124288319Y-85033891D01*
X124288318Y-85033891D01*
X124282288Y-85031206D01*
X124170300Y-85007402D01*
X124101944Y-84992872D01*
X124101939Y-84992872D01*
X124095487Y-84991500D01*
X123904513Y-84991500D01*
X123898061Y-84992872D01*
X123898056Y-84992872D01*
X123829700Y-85007402D01*
X123717712Y-85031206D01*
X123711682Y-85033891D01*
X123711681Y-85033891D01*
X123549278Y-85106197D01*
X123549276Y-85106198D01*
X123543248Y-85108882D01*
X123388747Y-85221134D01*
X123384326Y-85226044D01*
X123384325Y-85226045D01*
X123268785Y-85354366D01*
X123260960Y-85363056D01*
X123165473Y-85528444D01*
X123106458Y-85710072D01*
X123086496Y-85900000D01*
X121632303Y-85900000D01*
X121483819Y-85833891D01*
X121483818Y-85833891D01*
X121477788Y-85831206D01*
X121384388Y-85811353D01*
X121297444Y-85792872D01*
X121297439Y-85792872D01*
X121290987Y-85791500D01*
X121100013Y-85791500D01*
X121093561Y-85792872D01*
X121093556Y-85792872D01*
X120982238Y-85816534D01*
X120913212Y-85831206D01*
X120907183Y-85833890D01*
X120902933Y-85835271D01*
X120831966Y-85837297D01*
X120771168Y-85800634D01*
X120739844Y-85736921D01*
X120737999Y-85715437D01*
X120737999Y-85465331D01*
X120737629Y-85458510D01*
X120732105Y-85407648D01*
X120728479Y-85392396D01*
X120683324Y-85271946D01*
X120674786Y-85256351D01*
X120598285Y-85154276D01*
X120585724Y-85141715D01*
X120483649Y-85065214D01*
X120468054Y-85056676D01*
X120347606Y-85011522D01*
X120332351Y-85007895D01*
X120281486Y-85002369D01*
X120274672Y-85002000D01*
X119652115Y-85002000D01*
X119636876Y-85006475D01*
X119635671Y-85007865D01*
X119634000Y-85015548D01*
X119634000Y-86488000D01*
X119613998Y-86556121D01*
X119560342Y-86602614D01*
X119508000Y-86614000D01*
X118040116Y-86614000D01*
X118024877Y-86618475D01*
X118023672Y-86619865D01*
X118022001Y-86627548D01*
X118022001Y-87254669D01*
X118022371Y-87261490D01*
X118027895Y-87312352D01*
X118031521Y-87327604D01*
X118076676Y-87448054D01*
X118085214Y-87463649D01*
X118161715Y-87565724D01*
X118174276Y-87578285D01*
X118276351Y-87654786D01*
X118291946Y-87663324D01*
X118400827Y-87704142D01*
X118457591Y-87746784D01*
X118482291Y-87813345D01*
X118467083Y-87882694D01*
X118447691Y-87909175D01*
X118346756Y-88014798D01*
X118320629Y-88042138D01*
X118194743Y-88226680D01*
X118100688Y-88429305D01*
X118040989Y-88644570D01*
X118017251Y-88866695D01*
X118017548Y-88871848D01*
X118017548Y-88871851D01*
X118023011Y-88966590D01*
X118030110Y-89089715D01*
X118031247Y-89094761D01*
X118031248Y-89094767D01*
X118033907Y-89106565D01*
X118079222Y-89307639D01*
X118163266Y-89514616D01*
X118165965Y-89519020D01*
X118273072Y-89693803D01*
X118279987Y-89705088D01*
X118426250Y-89873938D01*
X118598126Y-90016632D01*
X118604282Y-90020229D01*
X118671445Y-90059476D01*
X118720169Y-90111114D01*
X118733240Y-90180897D01*
X118706509Y-90246669D01*
X118666055Y-90280027D01*
X118653607Y-90286507D01*
X118649474Y-90289610D01*
X118649471Y-90289612D01*
X118484914Y-90413165D01*
X118474965Y-90420635D01*
X118320629Y-90582138D01*
X118194743Y-90766680D01*
X118179003Y-90800590D01*
X118138783Y-90887237D01*
X118100688Y-90969305D01*
X118040989Y-91184570D01*
X118017251Y-91406695D01*
X118017548Y-91411848D01*
X118017548Y-91411851D01*
X118028039Y-91593803D01*
X118030110Y-91629715D01*
X118031247Y-91634761D01*
X118031248Y-91634767D01*
X118051070Y-91722721D01*
X118079222Y-91847639D01*
X118117461Y-91941811D01*
X118151665Y-92026045D01*
X118163266Y-92054616D01*
X118279987Y-92245088D01*
X118426250Y-92413938D01*
X118598126Y-92556632D01*
X118627771Y-92573955D01*
X118671445Y-92599476D01*
X118720169Y-92651114D01*
X118733240Y-92720897D01*
X118706509Y-92786669D01*
X118666055Y-92820027D01*
X118653607Y-92826507D01*
X118649474Y-92829610D01*
X118649471Y-92829612D01*
X118484914Y-92953165D01*
X118474965Y-92960635D01*
X118471393Y-92964373D01*
X118374970Y-93065274D01*
X118320629Y-93122138D01*
X118194743Y-93306680D01*
X118179003Y-93340590D01*
X118107884Y-93493803D01*
X118100688Y-93509305D01*
X118040989Y-93724570D01*
X118017251Y-93946695D01*
X118017548Y-93951848D01*
X118017548Y-93951851D01*
X118022847Y-94043751D01*
X118030110Y-94169715D01*
X118031247Y-94174761D01*
X118031248Y-94174767D01*
X118033186Y-94183365D01*
X118079222Y-94387639D01*
X118163266Y-94594616D01*
X118279987Y-94785088D01*
X118426250Y-94953938D01*
X118598126Y-95096632D01*
X118610357Y-95103779D01*
X118671445Y-95139476D01*
X118720169Y-95191114D01*
X118733240Y-95260897D01*
X118706509Y-95326669D01*
X118666055Y-95360027D01*
X118653607Y-95366507D01*
X118649474Y-95369610D01*
X118649471Y-95369612D01*
X118479100Y-95497530D01*
X118474965Y-95500635D01*
X118458736Y-95517618D01*
X118341376Y-95640428D01*
X118320629Y-95662138D01*
X118194743Y-95846680D01*
X118179003Y-95880590D01*
X118115047Y-96018372D01*
X118100688Y-96049305D01*
X118040989Y-96264570D01*
X118017251Y-96486695D01*
X118017548Y-96491848D01*
X118017548Y-96491851D01*
X118023011Y-96586590D01*
X118030110Y-96709715D01*
X118031247Y-96714761D01*
X118031248Y-96714767D01*
X118041786Y-96761524D01*
X118079222Y-96927639D01*
X118130203Y-97053191D01*
X118155475Y-97115428D01*
X118163266Y-97134616D01*
X118279987Y-97325088D01*
X118426250Y-97493938D01*
X118598126Y-97636632D01*
X118668595Y-97677811D01*
X118671445Y-97679476D01*
X118720169Y-97731114D01*
X118733240Y-97800897D01*
X118706509Y-97866669D01*
X118666055Y-97900027D01*
X118653607Y-97906507D01*
X118649474Y-97909610D01*
X118649471Y-97909612D01*
X118484914Y-98033165D01*
X118474965Y-98040635D01*
X118320629Y-98202138D01*
X118317715Y-98206410D01*
X118317714Y-98206411D01*
X118276991Y-98266109D01*
X118194743Y-98386680D01*
X118100688Y-98589305D01*
X118040989Y-98804570D01*
X118017251Y-99026695D01*
X118017548Y-99031848D01*
X118017548Y-99031851D01*
X118022979Y-99126045D01*
X118030110Y-99249715D01*
X118031247Y-99254761D01*
X118031248Y-99254767D01*
X118050713Y-99341135D01*
X118079222Y-99467639D01*
X118163266Y-99674616D01*
X118204659Y-99742163D01*
X118250673Y-99817251D01*
X118279987Y-99865088D01*
X118426250Y-100033938D01*
X118598126Y-100176632D01*
X118608387Y-100182628D01*
X118671445Y-100219476D01*
X118720169Y-100271114D01*
X118733240Y-100340897D01*
X118706509Y-100406669D01*
X118666055Y-100440027D01*
X118653607Y-100446507D01*
X118649474Y-100449610D01*
X118649471Y-100449612D01*
X118486099Y-100572275D01*
X118474965Y-100580635D01*
X118320629Y-100742138D01*
X118317715Y-100746410D01*
X118317714Y-100746411D01*
X118247422Y-100849455D01*
X118194743Y-100926680D01*
X118175204Y-100968774D01*
X118108367Y-101112763D01*
X118100688Y-101129305D01*
X118040989Y-101344570D01*
X118017251Y-101566695D01*
X118017548Y-101571848D01*
X118017548Y-101571851D01*
X118022935Y-101665271D01*
X118030110Y-101789715D01*
X118031247Y-101794761D01*
X118031248Y-101794767D01*
X118047441Y-101866618D01*
X118079222Y-102007639D01*
X118117461Y-102101811D01*
X118160783Y-102208500D01*
X118163266Y-102214616D01*
X118194307Y-102265271D01*
X118239577Y-102339144D01*
X118279987Y-102405088D01*
X118426250Y-102573938D01*
X118598126Y-102716632D01*
X118668595Y-102757811D01*
X118671445Y-102759476D01*
X118720169Y-102811114D01*
X118733240Y-102880897D01*
X118706509Y-102946669D01*
X118666055Y-102980027D01*
X118653607Y-102986507D01*
X118649474Y-102989610D01*
X118649471Y-102989612D01*
X118479100Y-103117530D01*
X118474965Y-103120635D01*
X118320629Y-103282138D01*
X118317715Y-103286410D01*
X118317714Y-103286411D01*
X118309251Y-103298818D01*
X118194743Y-103466680D01*
X118100688Y-103669305D01*
X118040989Y-103884570D01*
X118017251Y-104106695D01*
X118017548Y-104111848D01*
X118017548Y-104111851D01*
X118028039Y-104293803D01*
X118030110Y-104329715D01*
X118031247Y-104334761D01*
X118031248Y-104334767D01*
X118047556Y-104407128D01*
X118079222Y-104547639D01*
X118117461Y-104641811D01*
X118160498Y-104747798D01*
X118163266Y-104754616D01*
X118165965Y-104759020D01*
X118269788Y-104928444D01*
X118279987Y-104945088D01*
X118426250Y-105113938D01*
X118598126Y-105256632D01*
X118791000Y-105369338D01*
X118999692Y-105449030D01*
X119004760Y-105450061D01*
X119004763Y-105450062D01*
X119110410Y-105471556D01*
X119218597Y-105493567D01*
X119223772Y-105493757D01*
X119223774Y-105493757D01*
X119436673Y-105501564D01*
X119436677Y-105501564D01*
X119441837Y-105501753D01*
X119446957Y-105501097D01*
X119446959Y-105501097D01*
X119658288Y-105474025D01*
X119658289Y-105474025D01*
X119663416Y-105473368D01*
X119669456Y-105471556D01*
X119872429Y-105410661D01*
X119872434Y-105410659D01*
X119877384Y-105409174D01*
X120077994Y-105310896D01*
X120259860Y-105181173D01*
X120263517Y-105177529D01*
X120263524Y-105177523D01*
X120286035Y-105155091D01*
X120348407Y-105121176D01*
X120419213Y-105126365D01*
X120475974Y-105169012D01*
X120500283Y-105231172D01*
X120506458Y-105289928D01*
X120565473Y-105471556D01*
X120568776Y-105477278D01*
X120568777Y-105477279D01*
X120582798Y-105501564D01*
X120660960Y-105636944D01*
X120708090Y-105689287D01*
X120738806Y-105753293D01*
X120730042Y-105823747D01*
X120684580Y-105878278D01*
X120614453Y-105899596D01*
X114375715Y-105899596D01*
X114307594Y-105879594D01*
X114299607Y-105870376D01*
X114250188Y-105896905D01*
X114224285Y-105899596D01*
X109370194Y-105899596D01*
X109302073Y-105879594D01*
X109255580Y-105825938D01*
X109244194Y-105773596D01*
X109244194Y-104140000D01*
X112786835Y-104140000D01*
X112805465Y-104376711D01*
X112806619Y-104381518D01*
X112806620Y-104381524D01*
X112836552Y-104506197D01*
X112860895Y-104607594D01*
X112862788Y-104612165D01*
X112862789Y-104612167D01*
X112914568Y-104737172D01*
X112951760Y-104826963D01*
X112954346Y-104831183D01*
X113073241Y-105025202D01*
X113073245Y-105025208D01*
X113075824Y-105029416D01*
X113230031Y-105209969D01*
X113410584Y-105364176D01*
X113414792Y-105366755D01*
X113414798Y-105366759D01*
X113549052Y-105449030D01*
X113613037Y-105488240D01*
X113617607Y-105490133D01*
X113617611Y-105490135D01*
X113645660Y-105501753D01*
X113832406Y-105579105D01*
X113912609Y-105598360D01*
X114058476Y-105633380D01*
X114058482Y-105633381D01*
X114063289Y-105634535D01*
X114234171Y-105647984D01*
X114300512Y-105673270D01*
X114302987Y-105676626D01*
X114340217Y-105652700D01*
X114365829Y-105647984D01*
X114536711Y-105634535D01*
X114541518Y-105633381D01*
X114541524Y-105633380D01*
X114687391Y-105598360D01*
X114767594Y-105579105D01*
X114954340Y-105501753D01*
X114982389Y-105490135D01*
X114982393Y-105490133D01*
X114986963Y-105488240D01*
X115050948Y-105449030D01*
X115185202Y-105366759D01*
X115185208Y-105366755D01*
X115189416Y-105364176D01*
X115369969Y-105209969D01*
X115524176Y-105029416D01*
X115526755Y-105025208D01*
X115526759Y-105025202D01*
X115645654Y-104831183D01*
X115648240Y-104826963D01*
X115685433Y-104737172D01*
X115737211Y-104612167D01*
X115737212Y-104612165D01*
X115739105Y-104607594D01*
X115763448Y-104506197D01*
X115793380Y-104381524D01*
X115793381Y-104381518D01*
X115794535Y-104376711D01*
X115813165Y-104140000D01*
X115794535Y-103903289D01*
X115791275Y-103889707D01*
X115744758Y-103695954D01*
X115739105Y-103672406D01*
X115680944Y-103531991D01*
X115650135Y-103457611D01*
X115650133Y-103457607D01*
X115648240Y-103453037D01*
X115627204Y-103418709D01*
X115526759Y-103254798D01*
X115526755Y-103254792D01*
X115524176Y-103250584D01*
X115369969Y-103070031D01*
X115189416Y-102915824D01*
X115185208Y-102913245D01*
X115185202Y-102913241D01*
X114991183Y-102794346D01*
X114986963Y-102791760D01*
X114982393Y-102789867D01*
X114982389Y-102789865D01*
X114772167Y-102702789D01*
X114772165Y-102702788D01*
X114767594Y-102700895D01*
X114687391Y-102681640D01*
X114541524Y-102646620D01*
X114541518Y-102646619D01*
X114536711Y-102645465D01*
X114300000Y-102626835D01*
X114063289Y-102645465D01*
X114058482Y-102646619D01*
X114058476Y-102646620D01*
X113912609Y-102681640D01*
X113832406Y-102700895D01*
X113827835Y-102702788D01*
X113827833Y-102702789D01*
X113617611Y-102789865D01*
X113617607Y-102789867D01*
X113613037Y-102791760D01*
X113608817Y-102794346D01*
X113414798Y-102913241D01*
X113414792Y-102913245D01*
X113410584Y-102915824D01*
X113230031Y-103070031D01*
X113075824Y-103250584D01*
X113073245Y-103254792D01*
X113073241Y-103254798D01*
X112972796Y-103418709D01*
X112951760Y-103453037D01*
X112949867Y-103457607D01*
X112949865Y-103457611D01*
X112919056Y-103531991D01*
X112860895Y-103672406D01*
X112855242Y-103695954D01*
X112808726Y-103889707D01*
X112805465Y-103903289D01*
X112786835Y-104140000D01*
X109244194Y-104140000D01*
X109244194Y-100292670D01*
X113432160Y-100292670D01*
X113437887Y-100300320D01*
X113609042Y-100405205D01*
X113617837Y-100409687D01*
X113827988Y-100496734D01*
X113837373Y-100499783D01*
X114058554Y-100552885D01*
X114068301Y-100554428D01*
X114295070Y-100572275D01*
X114304930Y-100572275D01*
X114531699Y-100554428D01*
X114541446Y-100552885D01*
X114762627Y-100499783D01*
X114772012Y-100496734D01*
X114982163Y-100409687D01*
X114990958Y-100405205D01*
X115158445Y-100302568D01*
X115167907Y-100292110D01*
X115164124Y-100283334D01*
X114312812Y-99432022D01*
X114298868Y-99424408D01*
X114297035Y-99424539D01*
X114290420Y-99428790D01*
X113438920Y-100280290D01*
X113432160Y-100292670D01*
X109244194Y-100292670D01*
X109244194Y-99064930D01*
X112787725Y-99064930D01*
X112805572Y-99291699D01*
X112807115Y-99301446D01*
X112860217Y-99522627D01*
X112863266Y-99532012D01*
X112950313Y-99742163D01*
X112954795Y-99750958D01*
X113057432Y-99918445D01*
X113067890Y-99927907D01*
X113076666Y-99924124D01*
X113927978Y-99072812D01*
X113934356Y-99061132D01*
X114664408Y-99061132D01*
X114664539Y-99062965D01*
X114668790Y-99069580D01*
X115520290Y-99921080D01*
X115532670Y-99927840D01*
X115540320Y-99922113D01*
X115645205Y-99750958D01*
X115649687Y-99742163D01*
X115736734Y-99532012D01*
X115739783Y-99522627D01*
X115792885Y-99301446D01*
X115794428Y-99291699D01*
X115812275Y-99064930D01*
X115812275Y-99055070D01*
X115794428Y-98828301D01*
X115792885Y-98818554D01*
X115739783Y-98597373D01*
X115736734Y-98587988D01*
X115649687Y-98377837D01*
X115645205Y-98369042D01*
X115542568Y-98201555D01*
X115532110Y-98192093D01*
X115523334Y-98195876D01*
X114672022Y-99047188D01*
X114664408Y-99061132D01*
X113934356Y-99061132D01*
X113935592Y-99058868D01*
X113935461Y-99057035D01*
X113931210Y-99050420D01*
X113079710Y-98198920D01*
X113067330Y-98192160D01*
X113059680Y-98197887D01*
X112954795Y-98369042D01*
X112950313Y-98377837D01*
X112863266Y-98587988D01*
X112860217Y-98597373D01*
X112807115Y-98818554D01*
X112805572Y-98828301D01*
X112787725Y-99055070D01*
X112787725Y-99064930D01*
X109244194Y-99064930D01*
X109244194Y-97827890D01*
X113432093Y-97827890D01*
X113435876Y-97836666D01*
X114287188Y-98687978D01*
X114301132Y-98695592D01*
X114302965Y-98695461D01*
X114309580Y-98691210D01*
X115161080Y-97839710D01*
X115167840Y-97827330D01*
X115162113Y-97819680D01*
X114990958Y-97714795D01*
X114982163Y-97710313D01*
X114772012Y-97623266D01*
X114762627Y-97620217D01*
X114541446Y-97567115D01*
X114531699Y-97565572D01*
X114304930Y-97547725D01*
X114295070Y-97547725D01*
X114068301Y-97565572D01*
X114058554Y-97567115D01*
X113837373Y-97620217D01*
X113827988Y-97623266D01*
X113617837Y-97710313D01*
X113609042Y-97714795D01*
X113441555Y-97817432D01*
X113432093Y-97827890D01*
X109244194Y-97827890D01*
X109244194Y-88900000D01*
X112786835Y-88900000D01*
X112805465Y-89136711D01*
X112806619Y-89141518D01*
X112806620Y-89141524D01*
X112818948Y-89192872D01*
X112860895Y-89367594D01*
X112862788Y-89372165D01*
X112862789Y-89372167D01*
X112939825Y-89558148D01*
X112951760Y-89586963D01*
X112954346Y-89591183D01*
X113073241Y-89785202D01*
X113073245Y-89785208D01*
X113075824Y-89789416D01*
X113230031Y-89969969D01*
X113410584Y-90124176D01*
X113414792Y-90126755D01*
X113414798Y-90126759D01*
X113585498Y-90231364D01*
X113613037Y-90248240D01*
X113617607Y-90250133D01*
X113617611Y-90250135D01*
X113827833Y-90337211D01*
X113832406Y-90339105D01*
X113912609Y-90358360D01*
X114058476Y-90393380D01*
X114058482Y-90393381D01*
X114063289Y-90394535D01*
X114300000Y-90413165D01*
X114536711Y-90394535D01*
X114541518Y-90393381D01*
X114541524Y-90393380D01*
X114687391Y-90358360D01*
X114767594Y-90339105D01*
X114772167Y-90337211D01*
X114982389Y-90250135D01*
X114982393Y-90250133D01*
X114986963Y-90248240D01*
X115014502Y-90231364D01*
X115185202Y-90126759D01*
X115185208Y-90126755D01*
X115189416Y-90124176D01*
X115369969Y-89969969D01*
X115524176Y-89789416D01*
X115526755Y-89785208D01*
X115526759Y-89785202D01*
X115645654Y-89591183D01*
X115648240Y-89586963D01*
X115660176Y-89558148D01*
X115737211Y-89372167D01*
X115737212Y-89372165D01*
X115739105Y-89367594D01*
X115781052Y-89192872D01*
X115793380Y-89141524D01*
X115793381Y-89141518D01*
X115794535Y-89136711D01*
X115813165Y-88900000D01*
X115794535Y-88663289D01*
X115791275Y-88649707D01*
X115740260Y-88437218D01*
X115739105Y-88432406D01*
X115712748Y-88368774D01*
X115650135Y-88217611D01*
X115650133Y-88217607D01*
X115648240Y-88213037D01*
X115586792Y-88112763D01*
X115526759Y-88014798D01*
X115526755Y-88014792D01*
X115524176Y-88010584D01*
X115369969Y-87830031D01*
X115189416Y-87675824D01*
X115185208Y-87673245D01*
X115185202Y-87673241D01*
X114991183Y-87554346D01*
X114986963Y-87551760D01*
X114982393Y-87549867D01*
X114982389Y-87549865D01*
X114772167Y-87462789D01*
X114772165Y-87462788D01*
X114767594Y-87460895D01*
X114687391Y-87441640D01*
X114541524Y-87406620D01*
X114541518Y-87406619D01*
X114536711Y-87405465D01*
X114300000Y-87386835D01*
X114063289Y-87405465D01*
X114058482Y-87406619D01*
X114058476Y-87406620D01*
X113912609Y-87441640D01*
X113832406Y-87460895D01*
X113827835Y-87462788D01*
X113827833Y-87462789D01*
X113617611Y-87549865D01*
X113617607Y-87549867D01*
X113613037Y-87551760D01*
X113608817Y-87554346D01*
X113414798Y-87673241D01*
X113414792Y-87673245D01*
X113410584Y-87675824D01*
X113230031Y-87830031D01*
X113075824Y-88010584D01*
X113073245Y-88014792D01*
X113073241Y-88014798D01*
X113013208Y-88112763D01*
X112951760Y-88213037D01*
X112949867Y-88217607D01*
X112949865Y-88217611D01*
X112887252Y-88368774D01*
X112860895Y-88432406D01*
X112859740Y-88437218D01*
X112808726Y-88649707D01*
X112805465Y-88663289D01*
X112786835Y-88900000D01*
X109244194Y-88900000D01*
X109244194Y-86087885D01*
X118022000Y-86087885D01*
X118026475Y-86103124D01*
X118027865Y-86104329D01*
X118035548Y-86106000D01*
X119107885Y-86106000D01*
X119123124Y-86101525D01*
X119124329Y-86100135D01*
X119126000Y-86092452D01*
X119126000Y-85020116D01*
X119121525Y-85004877D01*
X119120135Y-85003672D01*
X119112452Y-85002001D01*
X118485331Y-85002001D01*
X118478510Y-85002371D01*
X118427648Y-85007895D01*
X118412396Y-85011521D01*
X118291946Y-85056676D01*
X118276351Y-85065214D01*
X118174276Y-85141715D01*
X118161715Y-85154276D01*
X118085214Y-85256351D01*
X118076676Y-85271946D01*
X118031522Y-85392394D01*
X118027895Y-85407649D01*
X118022369Y-85458514D01*
X118022000Y-85465328D01*
X118022000Y-86087885D01*
X109244194Y-86087885D01*
X109244194Y-84555954D01*
X109264196Y-84487833D01*
X109317852Y-84441340D01*
X109370194Y-84429954D01*
X131468012Y-84429954D01*
X131536133Y-84449956D01*
G37*
G04 #@! TD.AperFunction*
G04 #@! TD*
M02*
