G04 #@! TF.GenerationSoftware,KiCad,Pcbnew,6.0.8-f2edbf62ab~116~ubuntu20.04.1*
G04 #@! TF.CreationDate,2022-10-06T15:54:14+01:00*
G04 #@! TF.ProjectId,slrm,736c726d-2e6b-4696-9361-645f70636258,rev?*
G04 #@! TF.SameCoordinates,Original*
G04 #@! TF.FileFunction,Soldermask,Top*
G04 #@! TF.FilePolarity,Negative*
%FSLAX46Y46*%
G04 Gerber Fmt 4.6, Leading zero omitted, Abs format (unit mm)*
G04 Created by KiCad (PCBNEW 6.0.8-f2edbf62ab~116~ubuntu20.04.1) date 2022-10-06 15:54:14*
%MOMM*%
%LPD*%
G01*
G04 APERTURE LIST*
G04 Aperture macros list*
%AMRoundRect*
0 Rectangle with rounded corners*
0 $1 Rounding radius*
0 $2 $3 $4 $5 $6 $7 $8 $9 X,Y pos of 4 corners*
0 Add a 4 corners polygon primitive as box body*
4,1,4,$2,$3,$4,$5,$6,$7,$8,$9,$2,$3,0*
0 Add four circle primitives for the rounded corners*
1,1,$1+$1,$2,$3*
1,1,$1+$1,$4,$5*
1,1,$1+$1,$6,$7*
1,1,$1+$1,$8,$9*
0 Add four rect primitives between the rounded corners*
20,1,$1+$1,$2,$3,$4,$5,0*
20,1,$1+$1,$4,$5,$6,$7,0*
20,1,$1+$1,$6,$7,$8,$9,0*
20,1,$1+$1,$8,$9,$2,$3,0*%
G04 Aperture macros list end*
%ADD10C,2.000000*%
%ADD11R,1.350000X1.350000*%
%ADD12O,0.600000X2.250000*%
%ADD13R,1.700000X1.700000*%
%ADD14O,1.700000X1.700000*%
%ADD15RoundRect,0.250000X0.650000X-0.325000X0.650000X0.325000X-0.650000X0.325000X-0.650000X-0.325000X0*%
%ADD16RoundRect,0.150000X-0.150000X0.875000X-0.150000X-0.875000X0.150000X-0.875000X0.150000X0.875000X0*%
%ADD17RoundRect,0.150000X-0.150000X0.825000X-0.150000X-0.825000X0.150000X-0.825000X0.150000X0.825000X0*%
%ADD18RoundRect,0.250000X-0.650000X0.325000X-0.650000X-0.325000X0.650000X-0.325000X0.650000X0.325000X0*%
G04 APERTURE END LIST*
D10*
G04 #@! TO.C,GND*
X114300000Y-99060000D03*
G04 #@! TD*
G04 #@! TO.C,RAS*
X187960000Y-96520000D03*
G04 #@! TD*
G04 #@! TO.C,WR*
X187960000Y-91440000D03*
G04 #@! TD*
G04 #@! TO.C,+5V*
X114300000Y-104140000D03*
G04 #@! TD*
G04 #@! TO.C,CAS*
X114300000Y-88900000D03*
G04 #@! TD*
D11*
G04 #@! TO.C,D6*
X121920000Y-88900000D03*
G04 #@! TD*
G04 #@! TO.C,D2*
X162560000Y-88900000D03*
G04 #@! TD*
G04 #@! TO.C,D4*
X142240000Y-88900000D03*
G04 #@! TD*
D12*
G04 #@! TO.C,SRAM*
X142433809Y-92450000D03*
X143703809Y-92450000D03*
X144973809Y-92450000D03*
X146243809Y-92450000D03*
X147513809Y-92450000D03*
X148783809Y-92450000D03*
X150053809Y-92450000D03*
X151323809Y-92450000D03*
X152593809Y-92450000D03*
X153863809Y-92450000D03*
X155133809Y-92450000D03*
X156403809Y-92450000D03*
X157673809Y-92450000D03*
X158943809Y-92450000D03*
X159003809Y-103550000D03*
X157733809Y-103550000D03*
X156463809Y-103550000D03*
X155193809Y-103550000D03*
X153923809Y-103550000D03*
X152653809Y-103550000D03*
X151383809Y-103550000D03*
X150113809Y-103550000D03*
X148843809Y-103550000D03*
X147573809Y-103550000D03*
X146303809Y-103550000D03*
X145033809Y-103550000D03*
X143763809Y-103550000D03*
X142493809Y-103550000D03*
G04 #@! TD*
D13*
G04 #@! TO.C,J1*
X119380000Y-86360000D03*
D14*
X119380000Y-88900000D03*
X119380000Y-91440000D03*
X119380000Y-93980000D03*
X119380000Y-96520000D03*
X119380000Y-99060000D03*
X119380000Y-101600000D03*
X119380000Y-104140000D03*
G04 #@! TD*
D15*
G04 #@! TO.C,C1*
X179000000Y-103475000D03*
X179000000Y-100525000D03*
G04 #@! TD*
G04 #@! TO.C,C2*
X136300000Y-104150000D03*
X136300000Y-101200000D03*
G04 #@! TD*
D13*
G04 #@! TO.C,J8*
X182880000Y-86360000D03*
D14*
X182880000Y-88900000D03*
X182880000Y-91440000D03*
X182880000Y-93980000D03*
X182880000Y-96520000D03*
X182880000Y-99060000D03*
X182880000Y-101600000D03*
X182880000Y-104140000D03*
G04 #@! TD*
D11*
G04 #@! TO.C,D5*
X132080000Y-88900000D03*
G04 #@! TD*
G04 #@! TO.C,D1*
X172720000Y-88900000D03*
G04 #@! TD*
D16*
G04 #@! TO.C,LATCH*
X133815000Y-94390000D03*
X132545000Y-94390000D03*
X131275000Y-94390000D03*
X130005000Y-94390000D03*
X128735000Y-94390000D03*
X127465000Y-94390000D03*
X126195000Y-94390000D03*
X124925000Y-94390000D03*
X123655000Y-94390000D03*
X122385000Y-94390000D03*
X122385000Y-103690000D03*
X123655000Y-103690000D03*
X124925000Y-103690000D03*
X126195000Y-103690000D03*
X127465000Y-103690000D03*
X128735000Y-103690000D03*
X130005000Y-103690000D03*
X131275000Y-103690000D03*
X132545000Y-103690000D03*
X133815000Y-103690000D03*
G04 #@! TD*
D17*
G04 #@! TO.C,INV*
X175285000Y-97715000D03*
X174015000Y-97715000D03*
X172745000Y-97715000D03*
X171475000Y-97715000D03*
X170205000Y-97715000D03*
X168935000Y-97715000D03*
X167665000Y-97715000D03*
X167665000Y-102665000D03*
X168935000Y-102665000D03*
X170205000Y-102665000D03*
X171475000Y-102665000D03*
X172745000Y-102665000D03*
X174015000Y-102665000D03*
X175285000Y-102665000D03*
G04 #@! TD*
D11*
G04 #@! TO.C,D3*
X152400000Y-88900000D03*
G04 #@! TD*
D18*
G04 #@! TO.C,C3*
X139900000Y-96789583D03*
X139900000Y-99739583D03*
G04 #@! TD*
M02*
