%TF.GenerationSoftware,KiCad,Pcbnew,6.0.8-f2edbf62ab~116~ubuntu20.04.1*%
%TF.CreationDate,2022-10-06T15:56:44+01:00*%
%TF.ProjectId,slrm,736c726d-2e6b-4696-9361-645f70636258,rev?*%
%TF.SameCoordinates,Original*%
%TF.FileFunction,Drillmap*%
%TF.FilePolarity,Positive*%
%FSLAX45Y45*%
G04 Gerber Fmt 4.5, Leading zero omitted, Abs format (unit mm)*
G04 Created by KiCad (PCBNEW 6.0.8-f2edbf62ab~116~ubuntu20.04.1) date 2022-10-06 15:56:44*
%MOMM*%
%LPD*%
G01*
G04 APERTURE LIST*
%ADD10C,0.100000*%
%ADD11C,0.200000*%
G04 APERTURE END LIST*
D10*
X10873569Y-8392145D02*
X19078802Y-8392145D01*
X19078802Y-8392145D02*
X19078802Y-10640810D01*
X19078802Y-10640810D02*
X10873569Y-10640810D01*
X10873569Y-10640810D02*
X10873569Y-8392145D01*
D11*
X11126188Y-10956286D02*
X11126188Y-10756286D01*
X11173807Y-10756286D01*
X11202379Y-10765810D01*
X11221426Y-10784857D01*
X11230950Y-10803905D01*
X11240474Y-10842000D01*
X11240474Y-10870572D01*
X11230950Y-10908667D01*
X11221426Y-10927714D01*
X11202379Y-10946762D01*
X11173807Y-10956286D01*
X11126188Y-10956286D01*
X11326188Y-10956286D02*
X11326188Y-10822952D01*
X11326188Y-10861048D02*
X11335712Y-10842000D01*
X11345236Y-10832476D01*
X11364284Y-10822952D01*
X11383331Y-10822952D01*
X11449998Y-10956286D02*
X11449998Y-10822952D01*
X11449998Y-10756286D02*
X11440474Y-10765810D01*
X11449998Y-10775333D01*
X11459522Y-10765810D01*
X11449998Y-10756286D01*
X11449998Y-10775333D01*
X11573807Y-10956286D02*
X11554760Y-10946762D01*
X11545236Y-10927714D01*
X11545236Y-10756286D01*
X11678569Y-10956286D02*
X11659522Y-10946762D01*
X11649998Y-10927714D01*
X11649998Y-10756286D01*
X11907141Y-10956286D02*
X11907141Y-10756286D01*
X11973807Y-10899143D01*
X12040474Y-10756286D01*
X12040474Y-10956286D01*
X12221426Y-10956286D02*
X12221426Y-10851524D01*
X12211903Y-10832476D01*
X12192855Y-10822952D01*
X12154760Y-10822952D01*
X12135712Y-10832476D01*
X12221426Y-10946762D02*
X12202379Y-10956286D01*
X12154760Y-10956286D01*
X12135712Y-10946762D01*
X12126188Y-10927714D01*
X12126188Y-10908667D01*
X12135712Y-10889619D01*
X12154760Y-10880095D01*
X12202379Y-10880095D01*
X12221426Y-10870572D01*
X12316665Y-10822952D02*
X12316665Y-11022952D01*
X12316665Y-10832476D02*
X12335712Y-10822952D01*
X12373807Y-10822952D01*
X12392855Y-10832476D01*
X12402379Y-10842000D01*
X12411903Y-10861048D01*
X12411903Y-10918191D01*
X12402379Y-10937238D01*
X12392855Y-10946762D01*
X12373807Y-10956286D01*
X12335712Y-10956286D01*
X12316665Y-10946762D01*
X12497617Y-10937238D02*
X12507141Y-10946762D01*
X12497617Y-10956286D01*
X12488093Y-10946762D01*
X12497617Y-10937238D01*
X12497617Y-10956286D01*
X12497617Y-10832476D02*
X12507141Y-10842000D01*
X12497617Y-10851524D01*
X12488093Y-10842000D01*
X12497617Y-10832476D01*
X12497617Y-10851524D01*
M02*
