G04 #@! TF.GenerationSoftware,KiCad,Pcbnew,6.0.8-f2edbf62ab~116~ubuntu20.04.1*
G04 #@! TF.CreationDate,2022-10-06T15:54:12+01:00*
G04 #@! TF.ProjectId,slrm,736c726d-2e6b-4696-9361-645f70636258,rev?*
G04 #@! TF.SameCoordinates,Original*
G04 #@! TF.FileFunction,Copper,L1,Top*
G04 #@! TF.FilePolarity,Positive*
%FSLAX46Y46*%
G04 Gerber Fmt 4.6, Leading zero omitted, Abs format (unit mm)*
G04 Created by KiCad (PCBNEW 6.0.8-f2edbf62ab~116~ubuntu20.04.1) date 2022-10-06 15:54:12*
%MOMM*%
%LPD*%
G01*
G04 APERTURE LIST*
G04 Aperture macros list*
%AMRoundRect*
0 Rectangle with rounded corners*
0 $1 Rounding radius*
0 $2 $3 $4 $5 $6 $7 $8 $9 X,Y pos of 4 corners*
0 Add a 4 corners polygon primitive as box body*
4,1,4,$2,$3,$4,$5,$6,$7,$8,$9,$2,$3,0*
0 Add four circle primitives for the rounded corners*
1,1,$1+$1,$2,$3*
1,1,$1+$1,$4,$5*
1,1,$1+$1,$6,$7*
1,1,$1+$1,$8,$9*
0 Add four rect primitives between the rounded corners*
20,1,$1+$1,$2,$3,$4,$5,0*
20,1,$1+$1,$4,$5,$6,$7,0*
20,1,$1+$1,$6,$7,$8,$9,0*
20,1,$1+$1,$8,$9,$2,$3,0*%
G04 Aperture macros list end*
G04 #@! TA.AperFunction,ComponentPad*
%ADD10C,2.000000*%
G04 #@! TD*
G04 #@! TA.AperFunction,ComponentPad*
%ADD11R,1.350000X1.350000*%
G04 #@! TD*
G04 #@! TA.AperFunction,SMDPad,CuDef*
%ADD12O,0.600000X2.250000*%
G04 #@! TD*
G04 #@! TA.AperFunction,ComponentPad*
%ADD13R,1.700000X1.700000*%
G04 #@! TD*
G04 #@! TA.AperFunction,ComponentPad*
%ADD14O,1.700000X1.700000*%
G04 #@! TD*
G04 #@! TA.AperFunction,SMDPad,CuDef*
%ADD15RoundRect,0.250000X0.650000X-0.325000X0.650000X0.325000X-0.650000X0.325000X-0.650000X-0.325000X0*%
G04 #@! TD*
G04 #@! TA.AperFunction,SMDPad,CuDef*
%ADD16RoundRect,0.150000X-0.150000X0.875000X-0.150000X-0.875000X0.150000X-0.875000X0.150000X0.875000X0*%
G04 #@! TD*
G04 #@! TA.AperFunction,SMDPad,CuDef*
%ADD17RoundRect,0.150000X-0.150000X0.825000X-0.150000X-0.825000X0.150000X-0.825000X0.150000X0.825000X0*%
G04 #@! TD*
G04 #@! TA.AperFunction,SMDPad,CuDef*
%ADD18RoundRect,0.250000X-0.650000X0.325000X-0.650000X-0.325000X0.650000X-0.325000X0.650000X0.325000X0*%
G04 #@! TD*
G04 #@! TA.AperFunction,ViaPad*
%ADD19C,0.800000*%
G04 #@! TD*
G04 #@! TA.AperFunction,Conductor*
%ADD20C,0.350000*%
G04 #@! TD*
G04 #@! TA.AperFunction,Conductor*
%ADD21C,0.250000*%
G04 #@! TD*
G04 APERTURE END LIST*
D10*
G04 #@! TO.P,GND,1*
G04 #@! TO.N,GND*
X114300000Y-99060000D03*
G04 #@! TD*
G04 #@! TO.P,RAS,1*
G04 #@! TO.N,ZX_RAS*
X187960000Y-96520000D03*
G04 #@! TD*
G04 #@! TO.P,WR,1*
G04 #@! TO.N,ZX_WRITE*
X187960000Y-91440000D03*
G04 #@! TD*
G04 #@! TO.P,+5V,1*
G04 #@! TO.N,+5V*
X114300000Y-104140000D03*
G04 #@! TD*
G04 #@! TO.P,CAS,1*
G04 #@! TO.N,ZX_CAS*
X114300000Y-88900000D03*
G04 #@! TD*
D11*
G04 #@! TO.P,D6,1,Pin_1*
G04 #@! TO.N,ZX_D6*
X121920000Y-88900000D03*
G04 #@! TD*
G04 #@! TO.P,D2,1,Pin_1*
G04 #@! TO.N,ZX_D2*
X162560000Y-88900000D03*
G04 #@! TD*
G04 #@! TO.P,D4,1,Pin_1*
G04 #@! TO.N,ZX_D4*
X142240000Y-88900000D03*
G04 #@! TD*
D12*
G04 #@! TO.P,SRAM,28,VCC*
G04 #@! TO.N,+5V*
X142433809Y-92450000D03*
G04 #@! TO.P,SRAM,27,~{WE}*
G04 #@! TO.N,ZX_WRITE*
X143703809Y-92450000D03*
G04 #@! TO.P,SRAM,26,A13*
G04 #@! TO.N,ZX_A6*
X144973809Y-92450000D03*
G04 #@! TO.P,SRAM,25,A8*
G04 #@! TO.N,ZX_A1*
X146243809Y-92450000D03*
G04 #@! TO.P,SRAM,24,A9*
G04 #@! TO.N,ZX_A2*
X147513809Y-92450000D03*
G04 #@! TO.P,SRAM,23,A11*
G04 #@! TO.N,ZX_A4*
X148783809Y-92450000D03*
G04 #@! TO.P,SRAM,22,~{OE}*
G04 #@! TO.N,GND*
X150053809Y-92450000D03*
G04 #@! TO.P,SRAM,21,A10*
G04 #@! TO.N,ZX_A3*
X151323809Y-92450000D03*
G04 #@! TO.P,SRAM,20,~{CE}*
G04 #@! TO.N,ZX_CAS*
X152593809Y-92450000D03*
G04 #@! TO.P,SRAM,19,I/O7*
G04 #@! TO.N,ZX_D7*
X153863809Y-92450000D03*
G04 #@! TO.P,SRAM,18,I/O6*
G04 #@! TO.N,ZX_D6*
X155133809Y-92450000D03*
G04 #@! TO.P,SRAM,17,I/O5*
G04 #@! TO.N,ZX_D5*
X156403809Y-92450000D03*
G04 #@! TO.P,SRAM,16,I/O4*
G04 #@! TO.N,ZX_D4*
X157673809Y-92450000D03*
G04 #@! TO.P,SRAM,15,I/O3*
G04 #@! TO.N,ZX_D3*
X158943809Y-92450000D03*
G04 #@! TO.P,SRAM,14,GND*
G04 #@! TO.N,GND*
X159003809Y-103550000D03*
G04 #@! TO.P,SRAM,13,I/O2*
G04 #@! TO.N,ZX_D2*
X157733809Y-103550000D03*
G04 #@! TO.P,SRAM,12,I/O1*
G04 #@! TO.N,ZX_D1*
X156463809Y-103550000D03*
G04 #@! TO.P,SRAM,11,I/O0*
G04 #@! TO.N,ZX_D0*
X155193809Y-103550000D03*
G04 #@! TO.P,SRAM,10,A0*
G04 #@! TO.N,RAS_A0*
X153923809Y-103550000D03*
G04 #@! TO.P,SRAM,9,A1*
G04 #@! TO.N,RAS_A1*
X152653809Y-103550000D03*
G04 #@! TO.P,SRAM,8,A2*
G04 #@! TO.N,RAS_A2*
X151383809Y-103550000D03*
G04 #@! TO.P,SRAM,7,A3*
G04 #@! TO.N,RAS_A3*
X150113809Y-103550000D03*
G04 #@! TO.P,SRAM,6,A4*
G04 #@! TO.N,RAS_A4*
X148843809Y-103550000D03*
G04 #@! TO.P,SRAM,5,A5*
G04 #@! TO.N,RAS_A5*
X147573809Y-103550000D03*
G04 #@! TO.P,SRAM,4,A6*
G04 #@! TO.N,RAS_A6*
X146303809Y-103550000D03*
G04 #@! TO.P,SRAM,3,A7*
G04 #@! TO.N,ZX_A0*
X145033809Y-103550000D03*
G04 #@! TO.P,SRAM,2,A12*
G04 #@! TO.N,ZX_A5*
X143763809Y-103550000D03*
G04 #@! TO.P,SRAM,1,A14*
G04 #@! TO.N,GND*
X142493809Y-103550000D03*
G04 #@! TD*
D13*
G04 #@! TO.P,J1,1,Pin_1*
G04 #@! TO.N,GND*
X119380000Y-86360000D03*
D14*
G04 #@! TO.P,J1,2,Pin_2*
G04 #@! TO.N,ZX_CAS*
X119380000Y-88900000D03*
G04 #@! TO.P,J1,3,Pin_3*
G04 #@! TO.N,ZX_D7*
X119380000Y-91440000D03*
G04 #@! TO.P,J1,4,Pin_4*
G04 #@! TO.N,ZX_A6*
X119380000Y-93980000D03*
G04 #@! TO.P,J1,5,Pin_5*
G04 #@! TO.N,ZX_A3*
X119380000Y-96520000D03*
G04 #@! TO.P,J1,6,Pin_6*
G04 #@! TO.N,ZX_A4*
X119380000Y-99060000D03*
G04 #@! TO.P,J1,7,Pin_7*
G04 #@! TO.N,ZX_A5*
X119380000Y-101600000D03*
G04 #@! TO.P,J1,8,Pin_8*
G04 #@! TO.N,+5V*
X119380000Y-104140000D03*
G04 #@! TD*
D15*
G04 #@! TO.P,C1,1*
G04 #@! TO.N,+5V*
X179000000Y-103475000D03*
G04 #@! TO.P,C1,2*
G04 #@! TO.N,GND*
X179000000Y-100525000D03*
G04 #@! TD*
G04 #@! TO.P,C2,1*
G04 #@! TO.N,+5V*
X136300000Y-104150000D03*
G04 #@! TO.P,C2,2*
G04 #@! TO.N,GND*
X136300000Y-101200000D03*
G04 #@! TD*
D13*
G04 #@! TO.P,J8,1,Pin_1*
G04 #@! TO.N,unconnected-(J8-Pad1)*
X182880000Y-86360000D03*
D14*
G04 #@! TO.P,J8,2,Pin_2*
G04 #@! TO.N,ZX_D0*
X182880000Y-88900000D03*
G04 #@! TO.P,J8,3,Pin_3*
G04 #@! TO.N,ZX_WRITE*
X182880000Y-91440000D03*
G04 #@! TO.P,J8,4,Pin_4*
G04 #@! TO.N,ZX_RAS*
X182880000Y-93980000D03*
G04 #@! TO.P,J8,5,Pin_5*
G04 #@! TO.N,ZX_A0*
X182880000Y-96520000D03*
G04 #@! TO.P,J8,6,Pin_6*
G04 #@! TO.N,ZX_A2*
X182880000Y-99060000D03*
G04 #@! TO.P,J8,7,Pin_7*
G04 #@! TO.N,ZX_A1*
X182880000Y-101600000D03*
G04 #@! TO.P,J8,8,Pin_8*
G04 #@! TO.N,unconnected-(J8-Pad8)*
X182880000Y-104140000D03*
G04 #@! TD*
D11*
G04 #@! TO.P,D5,1,Pin_1*
G04 #@! TO.N,ZX_D5*
X132080000Y-88900000D03*
G04 #@! TD*
G04 #@! TO.P,D1,1,Pin_1*
G04 #@! TO.N,ZX_D1*
X172720000Y-88900000D03*
G04 #@! TD*
D16*
G04 #@! TO.P,LATCH,1,OE*
G04 #@! TO.N,GND*
X133815000Y-94390000D03*
G04 #@! TO.P,LATCH,2,D0*
G04 #@! TO.N,ZX_A0*
X132545000Y-94390000D03*
G04 #@! TO.P,LATCH,3,D1*
G04 #@! TO.N,ZX_A1*
X131275000Y-94390000D03*
G04 #@! TO.P,LATCH,4,D2*
G04 #@! TO.N,ZX_A2*
X130005000Y-94390000D03*
G04 #@! TO.P,LATCH,5,D3*
G04 #@! TO.N,ZX_A3*
X128735000Y-94390000D03*
G04 #@! TO.P,LATCH,6,D4*
G04 #@! TO.N,ZX_A4*
X127465000Y-94390000D03*
G04 #@! TO.P,LATCH,7,D5*
G04 #@! TO.N,ZX_A5*
X126195000Y-94390000D03*
G04 #@! TO.P,LATCH,8,D6*
G04 #@! TO.N,ZX_A6*
X124925000Y-94390000D03*
G04 #@! TO.P,LATCH,9,D7*
G04 #@! TO.N,GND*
X123655000Y-94390000D03*
G04 #@! TO.P,LATCH,10,GND*
X122385000Y-94390000D03*
G04 #@! TO.P,LATCH,11,Cp*
G04 #@! TO.N,RAS_INV*
X122385000Y-103690000D03*
G04 #@! TO.P,LATCH,12,Q7*
G04 #@! TO.N,unconnected-(U2-Pad12)*
X123655000Y-103690000D03*
G04 #@! TO.P,LATCH,13,Q6*
G04 #@! TO.N,RAS_A6*
X124925000Y-103690000D03*
G04 #@! TO.P,LATCH,14,Q5*
G04 #@! TO.N,RAS_A5*
X126195000Y-103690000D03*
G04 #@! TO.P,LATCH,15,Q4*
G04 #@! TO.N,RAS_A4*
X127465000Y-103690000D03*
G04 #@! TO.P,LATCH,16,Q3*
G04 #@! TO.N,RAS_A3*
X128735000Y-103690000D03*
G04 #@! TO.P,LATCH,17,Q2*
G04 #@! TO.N,RAS_A2*
X130005000Y-103690000D03*
G04 #@! TO.P,LATCH,18,Q1*
G04 #@! TO.N,RAS_A1*
X131275000Y-103690000D03*
G04 #@! TO.P,LATCH,19,Q0*
G04 #@! TO.N,RAS_A0*
X132545000Y-103690000D03*
G04 #@! TO.P,LATCH,20,VCC*
G04 #@! TO.N,+5V*
X133815000Y-103690000D03*
G04 #@! TD*
D17*
G04 #@! TO.P,INV,1*
G04 #@! TO.N,ZX_RAS*
X175285000Y-97715000D03*
G04 #@! TO.P,INV,2*
G04 #@! TO.N,RAS_INV*
X174015000Y-97715000D03*
G04 #@! TO.P,INV,3*
G04 #@! TO.N,GND*
X172745000Y-97715000D03*
G04 #@! TO.P,INV,4*
G04 #@! TO.N,unconnected-(U1-Pad4)*
X171475000Y-97715000D03*
G04 #@! TO.P,INV,5*
G04 #@! TO.N,GND*
X170205000Y-97715000D03*
G04 #@! TO.P,INV,6*
G04 #@! TO.N,unconnected-(U1-Pad6)*
X168935000Y-97715000D03*
G04 #@! TO.P,INV,7,GND*
G04 #@! TO.N,GND*
X167665000Y-97715000D03*
G04 #@! TO.P,INV,8*
G04 #@! TO.N,unconnected-(U1-Pad8)*
X167665000Y-102665000D03*
G04 #@! TO.P,INV,9*
G04 #@! TO.N,GND*
X168935000Y-102665000D03*
G04 #@! TO.P,INV,10*
G04 #@! TO.N,unconnected-(U1-Pad10)*
X170205000Y-102665000D03*
G04 #@! TO.P,INV,11*
G04 #@! TO.N,GND*
X171475000Y-102665000D03*
G04 #@! TO.P,INV,12*
G04 #@! TO.N,unconnected-(U1-Pad12)*
X172745000Y-102665000D03*
G04 #@! TO.P,INV,13*
G04 #@! TO.N,GND*
X174015000Y-102665000D03*
G04 #@! TO.P,INV,14,VCC*
G04 #@! TO.N,+5V*
X175285000Y-102665000D03*
G04 #@! TD*
D11*
G04 #@! TO.P,D3,1,Pin_1*
G04 #@! TO.N,ZX_D3*
X152400000Y-88900000D03*
G04 #@! TD*
D18*
G04 #@! TO.P,C3,1*
G04 #@! TO.N,+5V*
X139900000Y-96789583D03*
G04 #@! TO.P,C3,2*
G04 #@! TO.N,GND*
X139900000Y-99739583D03*
G04 #@! TD*
D19*
G04 #@! TO.N,+5V*
X138585685Y-104205946D03*
X176700000Y-103500000D03*
X140350000Y-92650000D03*
G04 #@! TO.N,GND*
X135500000Y-94400000D03*
X179000000Y-99000000D03*
X150100000Y-90200000D03*
X140500000Y-104200000D03*
X123000000Y-92800000D03*
X169800000Y-100200000D03*
X160500000Y-103600000D03*
G04 #@! TO.N,ZX_CAS*
X150100000Y-89100000D03*
X121195500Y-86700000D03*
G04 #@! TO.N,ZX_D7*
X154300000Y-90100000D03*
G04 #@! TO.N,ZX_A6*
X137000000Y-95451000D03*
X144900000Y-95451000D03*
X137000000Y-92700000D03*
X124900000Y-92700000D03*
G04 #@! TO.N,ZX_A3*
X128700000Y-98800000D03*
X152200000Y-98500000D03*
G04 #@! TO.N,ZX_A4*
X127500000Y-97600000D03*
X148800000Y-97575500D03*
X127500000Y-99524500D03*
G04 #@! TO.N,ZX_A5*
X121400000Y-105100000D03*
X125345059Y-100249000D03*
X143800000Y-105300000D03*
G04 #@! TO.N,ZX_D6*
X155100000Y-86300000D03*
X124000000Y-85900000D03*
G04 #@! TO.N,ZX_D5*
X156300000Y-85400000D03*
X132100000Y-85375500D03*
G04 #@! TO.N,ZX_D4*
X157700000Y-84700000D03*
X142300000Y-84675500D03*
G04 #@! TO.N,ZX_D3*
X158900000Y-88900000D03*
G04 #@! TO.N,ZX_D2*
X162600000Y-101300000D03*
X157700000Y-101500000D03*
G04 #@! TO.N,ZX_D1*
X163400000Y-90800000D03*
X156500000Y-100500000D03*
X163400000Y-100500000D03*
G04 #@! TO.N,ZX_D0*
X155200000Y-99500000D03*
X164124500Y-99500000D03*
X164124500Y-92100000D03*
G04 #@! TO.N,ZX_WRITE*
X143700000Y-94000000D03*
G04 #@! TO.N,ZX_RAS*
X175300000Y-94000000D03*
G04 #@! TO.N,ZX_A0*
X138000000Y-91900000D03*
X138000000Y-94726500D03*
X132500000Y-91975500D03*
X141000000Y-94726500D03*
G04 #@! TO.N,ZX_A2*
X130300000Y-96900000D03*
X147500000Y-96925500D03*
G04 #@! TO.N,ZX_A1*
X131300000Y-96175500D03*
X146200000Y-96175500D03*
X179000000Y-97400000D03*
X179000000Y-95450500D03*
G04 #@! TO.N,RAS_INV*
X174600000Y-99800000D03*
X122400000Y-101800000D03*
G04 #@! TO.N,RAS_A6*
X146300000Y-101800000D03*
X125100000Y-101900000D03*
G04 #@! TO.N,RAS_A5*
X126200000Y-101075500D03*
X147600000Y-101500000D03*
G04 #@! TO.N,RAS_A4*
X148900000Y-101500000D03*
X127700000Y-100625500D03*
G04 #@! TO.N,RAS_A3*
X150100000Y-101500000D03*
X128700000Y-100175500D03*
G04 #@! TO.N,RAS_A2*
X129900000Y-99725500D03*
X151400000Y-101500000D03*
G04 #@! TO.N,RAS_A1*
X152600000Y-101500000D03*
X131300000Y-99275500D03*
G04 #@! TO.N,RAS_A0*
X153900000Y-101500000D03*
X132500000Y-98825500D03*
G04 #@! TD*
D20*
G04 #@! TO.N,GND*
X135500000Y-94400000D02*
X135500000Y-96075000D01*
X135500000Y-96075000D02*
X136300000Y-96875000D01*
X142493809Y-103550000D02*
X141903809Y-104140000D01*
X141903809Y-104140000D02*
X140560000Y-104140000D01*
X140560000Y-104140000D02*
X140500000Y-104200000D01*
D21*
G04 #@! TO.N,ZX_RAS*
X182880000Y-93980000D02*
X185420000Y-96520000D01*
X185420000Y-96520000D02*
X187960000Y-96520000D01*
G04 #@! TO.N,ZX_WRITE*
X182880000Y-91440000D02*
X187960000Y-91440000D01*
G04 #@! TO.N,ZX_CAS*
X119380000Y-88900000D02*
X114300000Y-88900000D01*
D20*
G04 #@! TO.N,+5V*
X133815000Y-103690000D02*
X133890000Y-103690000D01*
X176725000Y-103475000D02*
X179000000Y-103475000D01*
X176700000Y-103500000D02*
X176120000Y-103500000D01*
X140121235Y-92878765D02*
X140350000Y-92650000D01*
X176120000Y-103500000D02*
X175285000Y-102665000D01*
X134500000Y-104300000D02*
X136150000Y-104300000D01*
X140350000Y-92650000D02*
X140550000Y-92450000D01*
X133890000Y-103690000D02*
X134500000Y-104300000D01*
X138529739Y-104150000D02*
X138585685Y-104205946D01*
X136300000Y-104150000D02*
X138529739Y-104150000D01*
X140121235Y-96568348D02*
X140121235Y-92878765D01*
X139900000Y-96789583D02*
X140121235Y-96568348D01*
X140550000Y-92450000D02*
X142433809Y-92450000D01*
X176700000Y-103500000D02*
X176725000Y-103475000D01*
G04 #@! TO.N,GND*
X136300000Y-96875000D02*
X136300000Y-101200000D01*
X140500000Y-104200000D02*
X140500000Y-100339583D01*
X167600000Y-100200000D02*
X167600000Y-97780000D01*
X172745000Y-99455000D02*
X172700000Y-99500000D01*
X169800000Y-100200000D02*
X170200000Y-99800000D01*
X159003809Y-103550000D02*
X160450000Y-103550000D01*
X167600000Y-97780000D02*
X167665000Y-97715000D01*
X172700000Y-99500000D02*
X172000000Y-100200000D01*
X171900000Y-100200000D02*
X169800000Y-100200000D01*
X135490000Y-94390000D02*
X135500000Y-94400000D01*
X174015000Y-102665000D02*
X174015000Y-100815000D01*
X140500000Y-100339583D02*
X139900000Y-99739583D01*
X133815000Y-94390000D02*
X135490000Y-94390000D01*
X170200000Y-99800000D02*
X170200000Y-97720000D01*
X160450000Y-103550000D02*
X160500000Y-103600000D01*
X172745000Y-97715000D02*
X172745000Y-99455000D01*
X169800000Y-100200000D02*
X167600000Y-100200000D01*
X171475000Y-102665000D02*
X171475000Y-100625000D01*
X122385000Y-93415000D02*
X123000000Y-92800000D01*
X123655000Y-93455000D02*
X123000000Y-92800000D01*
X168935000Y-101065000D02*
X169800000Y-100200000D01*
X171475000Y-100625000D02*
X171900000Y-100200000D01*
X172000000Y-100200000D02*
X171900000Y-100200000D01*
X168935000Y-102665000D02*
X168935000Y-101065000D01*
X174015000Y-100815000D02*
X172700000Y-99500000D01*
X150053809Y-90246191D02*
X150100000Y-90200000D01*
X150053809Y-92450000D02*
X150053809Y-90246191D01*
X170200000Y-97720000D02*
X170205000Y-97715000D01*
X179000000Y-100525000D02*
X179000000Y-99000000D01*
D21*
G04 #@! TO.N,ZX_CAS*
X150100000Y-89100000D02*
X152600000Y-91600000D01*
X152600000Y-91600000D02*
X152600000Y-92443809D01*
X152600000Y-92443809D02*
X152593809Y-92450000D01*
X121195500Y-86700000D02*
X121195500Y-87084500D01*
X121195500Y-87084500D02*
X119380000Y-88900000D01*
G04 #@! TO.N,ZX_D7*
X154300000Y-90100000D02*
X153863809Y-90536191D01*
X153863809Y-90536191D02*
X153863809Y-92450000D01*
G04 #@! TO.N,ZX_A6*
X124900000Y-92700000D02*
X124900000Y-94365000D01*
X137000000Y-95451000D02*
X137000000Y-92700000D01*
X144973809Y-95377191D02*
X144900000Y-95451000D01*
X124900000Y-94365000D02*
X124925000Y-94390000D01*
X144973809Y-92450000D02*
X144973809Y-95377191D01*
G04 #@! TO.N,ZX_A3*
X151323809Y-97623809D02*
X151323809Y-92450000D01*
X128700000Y-94605000D02*
X128895000Y-94410000D01*
X152200000Y-98500000D02*
X151323809Y-97623809D01*
X128700000Y-98800000D02*
X128700000Y-94605000D01*
G04 #@! TO.N,ZX_A4*
X127500000Y-99100000D02*
X127500000Y-99524500D01*
X148783809Y-97559309D02*
X148783809Y-92450000D01*
X148800000Y-97575500D02*
X148783809Y-97559309D01*
X127500000Y-97600000D02*
X127500000Y-94535000D01*
X127500000Y-97600000D02*
X127500000Y-99100000D01*
G04 #@! TO.N,ZX_A5*
X125394059Y-100200000D02*
X125345059Y-100249000D01*
X126355000Y-94545000D02*
X126300000Y-94600000D01*
X143763809Y-103550000D02*
X143763809Y-104936191D01*
X143763809Y-104936191D02*
X143763809Y-105263809D01*
X126355000Y-94410000D02*
X126355000Y-94545000D01*
X143763809Y-105263809D02*
X143800000Y-105300000D01*
X121400000Y-103620000D02*
X119380000Y-101600000D01*
X121400000Y-105100000D02*
X121400000Y-103620000D01*
X126300000Y-100200000D02*
X125394059Y-100200000D01*
X126300000Y-94600000D02*
X126300000Y-100200000D01*
G04 #@! TO.N,ZX_D6*
X155100000Y-86300000D02*
X155133809Y-86333809D01*
X121920000Y-87980000D02*
X121920000Y-88900000D01*
X124000000Y-85900000D02*
X121920000Y-87980000D01*
X155133809Y-86333809D02*
X155133809Y-92450000D01*
G04 #@! TO.N,ZX_D5*
X132100000Y-85375500D02*
X132080000Y-85395500D01*
X132080000Y-85395500D02*
X132080000Y-88900000D01*
X156403809Y-85503809D02*
X156403809Y-92450000D01*
X156300000Y-85400000D02*
X156403809Y-85503809D01*
G04 #@! TO.N,ZX_D4*
X142300000Y-84675500D02*
X142240000Y-84735500D01*
X157700000Y-84700000D02*
X157673809Y-84726191D01*
X157673809Y-84726191D02*
X157673809Y-92450000D01*
X142240000Y-84735500D02*
X142240000Y-88900000D01*
G04 #@! TO.N,ZX_D3*
X158943809Y-88943809D02*
X158900000Y-88900000D01*
X158943809Y-92450000D02*
X158943809Y-88943809D01*
G04 #@! TO.N,ZX_D2*
X162560000Y-101260000D02*
X162560000Y-88900000D01*
X162600000Y-101300000D02*
X162560000Y-101260000D01*
X157733809Y-103550000D02*
X157733809Y-101533809D01*
X157733809Y-101533809D02*
X157700000Y-101500000D01*
G04 #@! TO.N,ZX_D1*
X156463809Y-100536191D02*
X156463809Y-103550000D01*
X163400000Y-100500000D02*
X163400000Y-90800000D01*
X156500000Y-100500000D02*
X156463809Y-100536191D01*
G04 #@! TO.N,ZX_D0*
X155193809Y-99506191D02*
X155193809Y-103550000D01*
X164124500Y-99500000D02*
X164124500Y-92100000D01*
X155200000Y-99500000D02*
X155193809Y-99506191D01*
G04 #@! TO.N,ZX_WRITE*
X143700000Y-94000000D02*
X143700000Y-92453809D01*
G04 #@! TO.N,ZX_RAS*
X175300000Y-97700000D02*
X175285000Y-97715000D01*
X175300000Y-94000000D02*
X175300000Y-97700000D01*
G04 #@! TO.N,ZX_A0*
X141426500Y-94300000D02*
X141000000Y-94726500D01*
X145033809Y-96933809D02*
X142400000Y-94300000D01*
X142400000Y-94300000D02*
X141426500Y-94300000D01*
X138000000Y-94726500D02*
X138000000Y-91900000D01*
X132500000Y-94345000D02*
X132545000Y-94390000D01*
X132500000Y-91975500D02*
X132500000Y-94345000D01*
X145033809Y-103550000D02*
X145033809Y-96933809D01*
G04 #@! TO.N,ZX_A2*
X130165000Y-94410000D02*
X130165000Y-97165000D01*
X147513809Y-96911691D02*
X147513809Y-92450000D01*
X147500000Y-96925500D02*
X147513809Y-96911691D01*
G04 #@! TO.N,ZX_A1*
X179000000Y-97400000D02*
X179000000Y-95450500D01*
X131300000Y-96175500D02*
X131300000Y-94415000D01*
X146200000Y-96175500D02*
X146243809Y-96131691D01*
X131300000Y-94415000D02*
X131275000Y-94390000D01*
X146243809Y-96131691D02*
X146243809Y-92450000D01*
G04 #@! TO.N,RAS_INV*
X122385000Y-103690000D02*
X122385000Y-101815000D01*
X174015000Y-97715000D02*
X174015000Y-99215000D01*
X122385000Y-101815000D02*
X122400000Y-101800000D01*
X174015000Y-99215000D02*
X174600000Y-99800000D01*
G04 #@! TO.N,RAS_A6*
X125100000Y-101900000D02*
X125100000Y-103515000D01*
X125100000Y-103515000D02*
X124925000Y-103690000D01*
X146303809Y-103550000D02*
X146303809Y-101803809D01*
X146303809Y-101803809D02*
X146300000Y-101800000D01*
G04 #@! TO.N,RAS_A5*
X147573809Y-101526191D02*
X147573809Y-103550000D01*
X147600000Y-101500000D02*
X147573809Y-101526191D01*
X126200000Y-101075500D02*
X126200000Y-103685000D01*
X126200000Y-103685000D02*
X126195000Y-103690000D01*
G04 #@! TO.N,RAS_A4*
X148843809Y-101556191D02*
X148843809Y-103550000D01*
X127500000Y-103655000D02*
X127465000Y-103690000D01*
X127700000Y-100625500D02*
X127500000Y-100825500D01*
X148900000Y-101500000D02*
X148843809Y-101556191D01*
X127500000Y-100825500D02*
X127500000Y-103655000D01*
G04 #@! TO.N,RAS_A3*
X128700000Y-100175500D02*
X128700000Y-103655000D01*
X150113809Y-101513809D02*
X150113809Y-103550000D01*
X128700000Y-103655000D02*
X128735000Y-103690000D01*
X150100000Y-101500000D02*
X150113809Y-101513809D01*
G04 #@! TO.N,RAS_A2*
X129900000Y-99725500D02*
X130000000Y-99825500D01*
X130000000Y-103685000D02*
X130005000Y-103690000D01*
X151383809Y-103516191D02*
X151383809Y-103550000D01*
X151400000Y-103500000D02*
X151383809Y-103516191D01*
X151400000Y-101500000D02*
X151400000Y-103500000D01*
X130000000Y-99825500D02*
X130000000Y-103685000D01*
G04 #@! TO.N,RAS_A1*
X131300000Y-103665000D02*
X131275000Y-103690000D01*
X131300000Y-99275500D02*
X131300000Y-103665000D01*
X152600000Y-101500000D02*
X152653809Y-101553809D01*
X152653809Y-101553809D02*
X152653809Y-103550000D01*
G04 #@! TO.N,RAS_A0*
X132500000Y-103645000D02*
X132545000Y-103690000D01*
X153923809Y-101523809D02*
X153923809Y-103550000D01*
X153900000Y-101500000D02*
X153923809Y-101523809D01*
X132500000Y-98825500D02*
X132500000Y-103645000D01*
G04 #@! TD*
M02*
